%MOIN*%
%OFA0B0*%
%FSLAX46Y46*%
%IPPOS*%
%LPD*%
%ADD10C,0.0039370078740157488*%
%ADD11C,0.005905511811023622*%
%ADD12C,0.0047244094488188976*%
%ADD13C,0.015000000000000001*%
%ADD24C,0.0039370078740157488*%
%ADD25C,0.005905511811023622*%
%ADD26C,0.0047244094488188976*%
%ADD27C,0.015000000000000001*%
%ADD28C,0.0039370078740157488*%
%ADD29C,0.005905511811023622*%
%ADD30C,0.0047244094488188976*%
%ADD31C,0.015000000000000001*%
%ADD32C,0.0039370078740157488*%
%ADD33C,0.005905511811023622*%
%ADD34C,0.0047244094488188976*%
%ADD35C,0.015000000000000001*%
%ADD36C,0.0039370078740157488*%
%ADD37C,0.005905511811023622*%
%ADD38C,0.0047244094488188976*%
%ADD39C,0.015000000000000001*%
%ADD40C,0.0039370078740157488*%
%ADD41C,0.005905511811023622*%
%ADD42C,0.0047244094488188976*%
%ADD43C,0.015000000000000001*%
%ADD44C,0.0039370078740157488*%
%ADD45C,0.005905511811023622*%
%ADD46C,0.0047244094488188976*%
%ADD47C,0.015000000000000001*%
%ADD48C,0.0039370078740157488*%
%ADD49C,0.005905511811023622*%
%ADD50C,0.0047244094488188976*%
%ADD51C,0.015000000000000001*%
%ADD52C,0.0039370078740157488*%
%ADD53C,0.005905511811023622*%
%ADD54C,0.0047244094488188976*%
%ADD55C,0.015000000000000001*%
%ADD56C,0.0039370078740157488*%
%ADD57C,0.005905511811023622*%
%ADD58C,0.0047244094488188976*%
%ADD59C,0.015000000000000001*%
G01G01*
D10*
D11*
X0000557307Y0000873808D02*
X0000557307Y0000901367D01*
X0000604551Y0000901367D02*
X0000604551Y0000873808D01*
X0001155220Y0001631000D02*
X0001155220Y0001431000D01*
X0001155220Y0001431000D02*
X0001255220Y0001431000D01*
X0001255220Y0001431000D02*
X0001255220Y0001631000D01*
X0001266244Y0001742023D02*
X0001266244Y0001681000D01*
X0001255220Y0001631000D02*
X0001155220Y0001631000D01*
X0001144196Y0001681000D02*
X0001144196Y0001742023D01*
X0001144196Y0001742023D02*
X0001266244Y0001742023D01*
X0001143803Y0000878047D02*
X0001104433Y0000878047D01*
X0001104433Y0000931196D02*
X0001143803Y0000931196D01*
X0000625614Y0001121013D02*
X0000586244Y0001121013D01*
X0000586244Y0001174162D02*
X0000625614Y0001174162D01*
X0000687503Y0000689772D02*
X0000687503Y0000650402D01*
X0000634354Y0000650402D02*
X0000634354Y0000689772D01*
X0000756244Y0000726662D02*
X0000795614Y0000726662D01*
X0000795614Y0000673513D02*
X0000756244Y0000673513D01*
X0000938114Y0000673513D02*
X0000898744Y0000673513D01*
X0000898744Y0000726662D02*
X0000938114Y0000726662D01*
D12*
X0001199314Y0000751078D02*
X0001199314Y0000821944D01*
X0001072543Y0000821944D02*
X0001072543Y0000725488D01*
D11*
X0001127031Y0001169385D02*
X0001008921Y0001169385D01*
X0001127031Y0001242220D02*
X0001008921Y0001242220D01*
X0001127031Y0001242220D02*
X0001127031Y0001314070D01*
X0001008921Y0001242220D02*
X0001008921Y0001314070D01*
X0001127031Y0001314070D02*
X0001252031Y0001314070D01*
X0001008921Y0001314070D02*
X0000883921Y0001314070D01*
X0001252031Y0001314070D02*
X0001252031Y0001180212D01*
X0000883921Y0001314070D02*
X0000883921Y0001180212D01*
X0001252031Y0001180212D02*
X0001127031Y0001180212D01*
X0000883921Y0001180212D02*
X0001008921Y0001180212D01*
X0001127031Y0001180212D02*
X0001127031Y0001169385D01*
X0001008921Y0001180212D02*
X0001008921Y0001169385D01*
X0000470574Y0000906196D02*
X0000470574Y0000845173D01*
X0000470574Y0000845173D02*
X0000348527Y0000845173D01*
X0000348527Y0000845173D02*
X0000348527Y0000906196D01*
X0000359551Y0000956196D02*
X0000359551Y0001356196D01*
X0000359551Y0001356196D02*
X0000459551Y0001356196D01*
X0000459551Y0001356196D02*
X0000459551Y0000956196D01*
X0000359551Y0000956196D02*
X0000459551Y0000956196D01*
X0000470574Y0000343598D02*
X0000470574Y0000282574D01*
X0000470574Y0000282574D02*
X0000348527Y0000282574D01*
X0000348527Y0000282574D02*
X0000348527Y0000343598D01*
X0000359551Y0000393598D02*
X0000359551Y0000793598D01*
X0000359551Y0000793598D02*
X0000459551Y0000793598D01*
X0000459551Y0000793598D02*
X0000459551Y0000393598D01*
X0000359551Y0000393598D02*
X0000459551Y0000393598D01*
D13*
X0000635929Y0000847587D02*
X0000635929Y0000997587D01*
X0001010929Y0000847587D02*
X0001010929Y0000897587D01*
X0001010929Y0000897587D02*
X0000985929Y0000922587D01*
X0000985929Y0000922587D02*
X0001010929Y0000947587D01*
X0001010929Y0000947587D02*
X0001010929Y0000997587D01*
D11*
X0001059551Y0000583362D02*
X0001059551Y0000543992D01*
X0001126480Y0000543992D02*
X0001126480Y0000583362D01*
X0000547464Y0001052272D02*
X0000547464Y0001012902D01*
X0000614393Y0001012902D02*
X0000614393Y0001052272D01*
X0001065456Y0000709346D02*
X0001026086Y0000709346D01*
X0001026086Y0000642417D02*
X0001065456Y0000642417D01*
X0001006401Y0000593204D02*
X0000978842Y0000593204D01*
X0000978842Y0000640448D02*
X0001006401Y0000640448D01*
D12*
X0001223724Y0000534149D02*
X0001223724Y0000486905D01*
X0001154433Y0000486905D02*
X0001154433Y0000534149D01*
D11*
X0000787897Y0000610921D02*
X0000760338Y0000610921D01*
X0000760338Y0000658165D02*
X0000787897Y0000658165D01*
X0001136322Y0000392417D02*
X0001108763Y0000392417D01*
X0001108763Y0000439661D02*
X0001136322Y0000439661D01*
X0001066440Y0000313677D02*
X0001066440Y0000353047D01*
X0001119590Y0000353047D02*
X0001119590Y0000313677D01*
D12*
X0001060968Y0001076511D02*
X0001060968Y0000946590D01*
X0001060968Y0000946590D02*
X0001218448Y0000946590D01*
D11*
X0000540147Y0000911446D02*
X0000542022Y0000909571D01*
X0000543896Y0000903947D01*
X0000543896Y0000900197D01*
X0000542022Y0000894573D01*
X0000538272Y0000890823D01*
X0000534523Y0000888948D01*
X0000527024Y0000887074D01*
X0000521399Y0000887074D01*
X0000513900Y0000888948D01*
X0000510151Y0000890823D01*
X0000506401Y0000894573D01*
X0000504526Y0000900197D01*
X0000504526Y0000903947D01*
X0000506401Y0000909571D01*
X0000508276Y0000911446D01*
X0000508276Y0000926444D02*
X0000506401Y0000928319D01*
X0000504526Y0000932068D01*
X0000504526Y0000941442D01*
X0000506401Y0000945192D01*
X0000508276Y0000947066D01*
X0000512025Y0000948941D01*
X0000515775Y0000948941D01*
X0000521399Y0000947066D01*
X0000543896Y0000924569D01*
X0000543896Y0000948941D01*
X0001192097Y0001776575D02*
X0001192097Y0001748454D01*
X0001190222Y0001742829D01*
X0001186472Y0001739080D01*
X0001180848Y0001737205D01*
X0001177098Y0001737205D01*
X0001227717Y0001776575D02*
X0001220218Y0001776575D01*
X0001216469Y0001774700D01*
X0001214594Y0001772826D01*
X0001210844Y0001767201D01*
X0001208970Y0001759702D01*
X0001208970Y0001744704D01*
X0001210844Y0001740955D01*
X0001212719Y0001739080D01*
X0001216469Y0001737205D01*
X0001223968Y0001737205D01*
X0001227717Y0001739080D01*
X0001229592Y0001740955D01*
X0001231467Y0001744704D01*
X0001231467Y0001754078D01*
X0001229592Y0001757827D01*
X0001227717Y0001759702D01*
X0001223968Y0001761577D01*
X0001216469Y0001761577D01*
X0001212719Y0001759702D01*
X0001210844Y0001757827D01*
X0001208970Y0001754078D01*
X0001117556Y0000961614D02*
X0001104433Y0000980362D01*
X0001095059Y0000961614D02*
X0001095059Y0001000985D01*
X0001110057Y0001000985D01*
X0001113806Y0000999110D01*
X0001115681Y0000997235D01*
X0001117556Y0000993485D01*
X0001117556Y0000987861D01*
X0001115681Y0000984112D01*
X0001113806Y0000982237D01*
X0001110057Y0000980362D01*
X0001095059Y0000980362D01*
X0001153177Y0001000985D02*
X0001134429Y0001000985D01*
X0001132554Y0000982237D01*
X0001134429Y0000984112D01*
X0001138178Y0000985986D01*
X0001147552Y0000985986D01*
X0001151302Y0000984112D01*
X0001153177Y0000982237D01*
X0001155051Y0000978487D01*
X0001155051Y0000969113D01*
X0001153177Y0000965364D01*
X0001151302Y0000963489D01*
X0001147552Y0000961614D01*
X0001138178Y0000961614D01*
X0001134429Y0000963489D01*
X0001132554Y0000965364D01*
X0000590391Y0001183662D02*
X0000577267Y0001202409D01*
X0000567893Y0001183662D02*
X0000567893Y0001223032D01*
X0000582892Y0001223032D01*
X0000586641Y0001221157D01*
X0000588516Y0001219282D01*
X0000590391Y0001215533D01*
X0000590391Y0001209908D01*
X0000588516Y0001206159D01*
X0000586641Y0001204284D01*
X0000582892Y0001202409D01*
X0000567893Y0001202409D01*
X0000624136Y0001209908D02*
X0000624136Y0001183662D01*
X0000614763Y0001224907D02*
X0000605389Y0001196785D01*
X0000629761Y0001196785D01*
X0000603936Y0000663526D02*
X0000585188Y0000650402D01*
X0000603936Y0000641028D02*
X0000564566Y0000641028D01*
X0000564566Y0000656027D01*
X0000566440Y0000659776D01*
X0000568315Y0000661651D01*
X0000572065Y0000663526D01*
X0000577689Y0000663526D01*
X0000581438Y0000661651D01*
X0000583313Y0000659776D01*
X0000585188Y0000656027D01*
X0000585188Y0000641028D01*
X0000564566Y0000676649D02*
X0000564566Y0000701021D01*
X0000579564Y0000687898D01*
X0000579564Y0000693522D01*
X0000581438Y0000697272D01*
X0000583313Y0000699146D01*
X0000587063Y0000701021D01*
X0000596437Y0000701021D01*
X0000600186Y0000699146D01*
X0000602061Y0000697272D01*
X0000603936Y0000693522D01*
X0000603936Y0000682273D01*
X0000602061Y0000678524D01*
X0000600186Y0000676649D01*
X0000769367Y0000607474D02*
X0000756244Y0000626222D01*
X0000746870Y0000607474D02*
X0000746870Y0000646844D01*
X0000761868Y0000646844D01*
X0000765617Y0000644969D01*
X0000767492Y0000643095D01*
X0000769367Y0000639345D01*
X0000769367Y0000633721D01*
X0000767492Y0000629971D01*
X0000765617Y0000628096D01*
X0000761868Y0000626222D01*
X0000746870Y0000626222D01*
X0000784365Y0000643095D02*
X0000786240Y0000644969D01*
X0000789989Y0000646844D01*
X0000799363Y0000646844D01*
X0000803113Y0000644969D01*
X0000804987Y0000643095D01*
X0000806862Y0000639345D01*
X0000806862Y0000635595D01*
X0000804987Y0000629971D01*
X0000782490Y0000607474D01*
X0000806862Y0000607474D01*
X0000879761Y0000616733D02*
X0000866637Y0000635480D01*
X0000857263Y0000616733D02*
X0000857263Y0000656103D01*
X0000872262Y0000656103D01*
X0000876011Y0000654228D01*
X0000877886Y0000652353D01*
X0000879761Y0000648604D01*
X0000879761Y0000642979D01*
X0000877886Y0000639230D01*
X0000876011Y0000637355D01*
X0000872262Y0000635480D01*
X0000857263Y0000635480D01*
X0000917256Y0000616733D02*
X0000894759Y0000616733D01*
X0000906007Y0000616733D02*
X0000906007Y0000656103D01*
X0000902258Y0000650478D01*
X0000898508Y0000646729D01*
X0000894759Y0000644854D01*
X0001213188Y0000752184D02*
X0001245059Y0000752184D01*
X0001248808Y0000754059D01*
X0001250683Y0000755934D01*
X0001252558Y0000759683D01*
X0001252558Y0000767182D01*
X0001250683Y0000770932D01*
X0001248808Y0000772807D01*
X0001245059Y0000774682D01*
X0001213188Y0000774682D01*
X0001216937Y0000791554D02*
X0001215062Y0000793429D01*
X0001213188Y0000797179D01*
X0001213188Y0000806553D01*
X0001215062Y0000810302D01*
X0001216937Y0000812177D01*
X0001220687Y0000814052D01*
X0001224436Y0000814052D01*
X0001230061Y0000812177D01*
X0001252558Y0000789680D01*
X0001252558Y0000814052D01*
X0001060653Y0001370887D02*
X0001060653Y0001337141D01*
X0001058403Y0001330392D01*
X0001053904Y0001325893D01*
X0001047155Y0001323643D01*
X0001042655Y0001323643D01*
X0001105647Y0001370887D02*
X0001083150Y0001370887D01*
X0001080901Y0001348390D01*
X0001083150Y0001350640D01*
X0001087650Y0001352889D01*
X0001098898Y0001352889D01*
X0001103398Y0001350640D01*
X0001105647Y0001348390D01*
X0001107897Y0001343890D01*
X0001107897Y0001332642D01*
X0001105647Y0001328142D01*
X0001103398Y0001325893D01*
X0001098898Y0001323643D01*
X0001087650Y0001323643D01*
X0001083150Y0001325893D01*
X0001080901Y0001328142D01*
X0000480904Y0000816301D02*
X0000509026Y0000816301D01*
X0000514650Y0000814427D01*
X0000518400Y0000810677D01*
X0000520274Y0000805053D01*
X0000520274Y0000801303D01*
X0000480904Y0000831299D02*
X0000480904Y0000855671D01*
X0000495902Y0000842548D01*
X0000495902Y0000848172D01*
X0000497777Y0000851922D01*
X0000499652Y0000853797D01*
X0000503401Y0000855671D01*
X0000512775Y0000855671D01*
X0000516525Y0000853797D01*
X0000518400Y0000851922D01*
X0000520274Y0000848172D01*
X0000520274Y0000836924D01*
X0000518400Y0000833174D01*
X0000516525Y0000831299D01*
X0000474999Y0000290711D02*
X0000503120Y0000290711D01*
X0000508745Y0000288836D01*
X0000512494Y0000285086D01*
X0000514369Y0000279462D01*
X0000514369Y0000275713D01*
X0000478748Y0000307584D02*
X0000476874Y0000309458D01*
X0000474999Y0000313208D01*
X0000474999Y0000322582D01*
X0000476874Y0000326331D01*
X0000478748Y0000328206D01*
X0000482498Y0000330081D01*
X0000486247Y0000330081D01*
X0000491872Y0000328206D01*
X0000514369Y0000305709D01*
X0000514369Y0000330081D01*
X0000863278Y0000566575D02*
X0000863278Y0000538454D01*
X0000861403Y0000532829D01*
X0000857653Y0000529080D01*
X0000852029Y0000527205D01*
X0000848280Y0000527205D01*
X0000902648Y0000527205D02*
X0000880151Y0000527205D01*
X0000891399Y0000527205D02*
X0000891399Y0000566575D01*
X0000887650Y0000560951D01*
X0000883900Y0000557201D01*
X0000880151Y0000555326D01*
X0000994684Y0001106515D02*
X0001026555Y0001106515D01*
X0001030304Y0001108390D01*
X0001032179Y0001110265D01*
X0001034054Y0001114014D01*
X0001034054Y0001121513D01*
X0001032179Y0001125263D01*
X0001030304Y0001127137D01*
X0001026555Y0001129012D01*
X0000994684Y0001129012D01*
X0001034054Y0001168382D02*
X0001034054Y0001145885D01*
X0001034054Y0001157134D02*
X0000994684Y0001157134D01*
X0001000308Y0001153384D01*
X0001004058Y0001149635D01*
X0001005932Y0001145885D01*
X0001177942Y0000610265D02*
X0001179817Y0000608390D01*
X0001181692Y0000602766D01*
X0001181692Y0000599016D01*
X0001179817Y0000593392D01*
X0001176067Y0000589642D01*
X0001172318Y0000587767D01*
X0001164819Y0000585893D01*
X0001159194Y0000585893D01*
X0001151695Y0000587767D01*
X0001147946Y0000589642D01*
X0001144196Y0000593392D01*
X0001142322Y0000599016D01*
X0001142322Y0000602766D01*
X0001144196Y0000608390D01*
X0001146071Y0000610265D01*
X0001181692Y0000647760D02*
X0001181692Y0000625263D01*
X0001181692Y0000636511D02*
X0001142322Y0000636511D01*
X0001147946Y0000632762D01*
X0001151695Y0000629012D01*
X0001153570Y0000625263D01*
X0000534241Y0001026026D02*
X0000536116Y0001024151D01*
X0000537991Y0001018527D01*
X0000537991Y0001014777D01*
X0000536116Y0001009153D01*
X0000532367Y0001005403D01*
X0000528617Y0001003529D01*
X0000521118Y0001001654D01*
X0000515494Y0001001654D01*
X0000507995Y0001003529D01*
X0000504245Y0001005403D01*
X0000500496Y0001009153D01*
X0000498621Y0001014777D01*
X0000498621Y0001018527D01*
X0000500496Y0001024151D01*
X0000502370Y0001026026D01*
X0000498621Y0001039149D02*
X0000498621Y0001063521D01*
X0000513619Y0001050398D01*
X0000513619Y0001056022D01*
X0000515494Y0001059772D01*
X0000517368Y0001061646D01*
X0000521118Y0001063521D01*
X0000530492Y0001063521D01*
X0000534241Y0001061646D01*
X0000536116Y0001059772D01*
X0000537991Y0001056022D01*
X0000537991Y0001044773D01*
X0000536116Y0001041024D01*
X0000534241Y0001039149D01*
X0001021493Y0000726781D02*
X0001019618Y0000724907D01*
X0001013994Y0000723032D01*
X0001010244Y0000723032D01*
X0001004620Y0000724907D01*
X0001000871Y0000728656D01*
X0000998996Y0000732406D01*
X0000997121Y0000739905D01*
X0000997121Y0000745529D01*
X0000998996Y0000753028D01*
X0001000871Y0000756778D01*
X0001004620Y0000760527D01*
X0001010244Y0000762402D01*
X0001013994Y0000762402D01*
X0001019618Y0000760527D01*
X0001021493Y0000758652D01*
X0001055239Y0000749278D02*
X0001055239Y0000723032D01*
X0001045865Y0000764277D02*
X0001036491Y0000736155D01*
X0001060863Y0000736155D01*
X0000980154Y0000549616D02*
X0000978280Y0000547741D01*
X0000972655Y0000545866D01*
X0000968906Y0000545866D01*
X0000963281Y0000547741D01*
X0000959532Y0000551491D01*
X0000957657Y0000555240D01*
X0000955782Y0000562739D01*
X0000955782Y0000568364D01*
X0000957657Y0000575863D01*
X0000959532Y0000579612D01*
X0000963281Y0000583362D01*
X0000968906Y0000585236D01*
X0000972655Y0000585236D01*
X0000978280Y0000583362D01*
X0000980154Y0000581487D01*
X0001013900Y0000585236D02*
X0001006401Y0000585236D01*
X0001002652Y0000583362D01*
X0001000777Y0000581487D01*
X0000997027Y0000575863D01*
X0000995152Y0000568364D01*
X0000995152Y0000553365D01*
X0000997027Y0000549616D01*
X0000998902Y0000547741D01*
X0001002652Y0000545866D01*
X0001010151Y0000545866D01*
X0001013900Y0000547741D01*
X0001015775Y0000549616D01*
X0001017650Y0000553365D01*
X0001017650Y0000562739D01*
X0001015775Y0000566489D01*
X0001013900Y0000568364D01*
X0001010151Y0000570238D01*
X0001002652Y0000570238D01*
X0000998902Y0000568364D01*
X0000997027Y0000566489D01*
X0000995152Y0000562739D01*
X0001270274Y0000503965D02*
X0001270274Y0000485218D01*
X0001230904Y0000485218D01*
X0001270274Y0000537711D02*
X0001270274Y0000515214D01*
X0001270274Y0000526463D02*
X0001230904Y0000526463D01*
X0001236529Y0000522713D01*
X0001240278Y0000518964D01*
X0001242153Y0000515214D01*
X0000767556Y0000545679D02*
X0000765681Y0000543804D01*
X0000760057Y0000541929D01*
X0000756307Y0000541929D01*
X0000750683Y0000543804D01*
X0000746934Y0000547554D01*
X0000745059Y0000551303D01*
X0000743184Y0000558802D01*
X0000743184Y0000564427D01*
X0000745059Y0000571926D01*
X0000746934Y0000575675D01*
X0000750683Y0000579425D01*
X0000756307Y0000581299D01*
X0000760057Y0000581299D01*
X0000765681Y0000579425D01*
X0000767556Y0000577550D01*
X0000803177Y0000581299D02*
X0000784429Y0000581299D01*
X0000782554Y0000562552D01*
X0000784429Y0000564427D01*
X0000788178Y0000566301D01*
X0000797552Y0000566301D01*
X0000801302Y0000564427D01*
X0000803177Y0000562552D01*
X0000805051Y0000558802D01*
X0000805051Y0000549428D01*
X0000803177Y0000545679D01*
X0000801302Y0000543804D01*
X0000797552Y0000541929D01*
X0000788178Y0000541929D01*
X0000784429Y0000543804D01*
X0000782554Y0000545679D01*
X0000703064Y0001270276D02*
X0000712438Y0001230906D01*
X0000719937Y0001259027D01*
X0000727436Y0001230906D01*
X0000736810Y0001270276D01*
X0000772430Y0001230906D02*
X0000749933Y0001230906D01*
X0000761182Y0001230906D02*
X0000761182Y0001270276D01*
X0000757432Y0001264652D01*
X0000753683Y0001260902D01*
X0000749933Y0001259027D01*
X0000608576Y0001270276D02*
X0000617950Y0001230906D01*
X0000625449Y0001259027D01*
X0000632948Y0001230906D01*
X0000642322Y0001270276D01*
X0000655445Y0001266526D02*
X0000657320Y0001268401D01*
X0000661069Y0001270276D01*
X0000670443Y0001270276D01*
X0000674193Y0001268401D01*
X0000676067Y0001266526D01*
X0000677942Y0001262777D01*
X0000677942Y0001259027D01*
X0000676067Y0001253403D01*
X0000653570Y0001230906D01*
X0000677942Y0001230906D01*
X0001222280Y0000401978D02*
X0001220406Y0000400103D01*
X0001214781Y0000398229D01*
X0001211032Y0000398229D01*
X0001205407Y0000400103D01*
X0001201658Y0000403853D01*
X0001199783Y0000407602D01*
X0001197908Y0000415101D01*
X0001197908Y0000420726D01*
X0001199783Y0000428225D01*
X0001201658Y0000431974D01*
X0001205407Y0000435724D01*
X0001211032Y0000437599D01*
X0001214781Y0000437599D01*
X0001220406Y0000435724D01*
X0001222280Y0000433849D01*
X0001235404Y0000437599D02*
X0001261650Y0000437599D01*
X0001244778Y0000398229D01*
X0000957282Y0000309084D02*
X0000938535Y0000295960D01*
X0000957282Y0000286586D02*
X0000917912Y0000286586D01*
X0000917912Y0000301584D01*
X0000919787Y0000305334D01*
X0000921662Y0000307209D01*
X0000925411Y0000309084D01*
X0000931035Y0000309084D01*
X0000934785Y0000307209D01*
X0000936660Y0000305334D01*
X0000938535Y0000301584D01*
X0000938535Y0000286586D01*
X0000917912Y0000342829D02*
X0000917912Y0000335330D01*
X0000919787Y0000331581D01*
X0000921662Y0000329706D01*
X0000927286Y0000325956D01*
X0000934785Y0000324082D01*
X0000949783Y0000324082D01*
X0000953533Y0000325956D01*
X0000955407Y0000327831D01*
X0000957282Y0000331581D01*
X0000957282Y0000339080D01*
X0000955407Y0000342829D01*
X0000953533Y0000344704D01*
X0000949783Y0000346579D01*
X0000940409Y0000346579D01*
X0000936660Y0000344704D01*
X0000934785Y0000342829D01*
X0000932910Y0000339080D01*
X0000932910Y0000331581D01*
X0000934785Y0000327831D01*
X0000936660Y0000325956D01*
X0000940409Y0000324082D01*
X0001120960Y0001108945D02*
X0001120960Y0001090197D01*
X0001107837Y0001129567D02*
X0001120960Y0001108945D01*
X0001134084Y0001129567D01*
X0001167830Y0001090197D02*
X0001145332Y0001090197D01*
X0001156581Y0001090197D02*
X0001156581Y0001129567D01*
X0001152832Y0001123943D01*
X0001149082Y0001120193D01*
X0001145332Y0001118319D01*
G04 next file*
G04 Gerber Fmt 4.6, Leading zero omitted, Abs format (unit mm)*
G04 Created by KiCad (PCBNEW 4.0.7) date Thursday, 08 March 2018 'PMt' 14:48:31*
G01G01*
G04 APERTURE LIST*
G04 APERTURE END LIST*
D24*
D25*
X0002080488Y0002393908D02*
X0002080488Y0002366349D01*
X0002033244Y0002366349D02*
X0002033244Y0002393908D01*
X0001482574Y0001636716D02*
X0001482574Y0001836716D01*
X0001482574Y0001836716D02*
X0001382574Y0001836716D01*
X0001382574Y0001836716D02*
X0001382574Y0001636716D01*
X0001371551Y0001525692D02*
X0001371551Y0001586716D01*
X0001382574Y0001636716D02*
X0001482574Y0001636716D01*
X0001493598Y0001586716D02*
X0001493598Y0001525692D01*
X0001493598Y0001525692D02*
X0001371551Y0001525692D01*
X0001493992Y0002389669D02*
X0001533362Y0002389669D01*
X0001533362Y0002336519D02*
X0001493992Y0002336519D01*
X0002012181Y0002146703D02*
X0002051551Y0002146703D01*
X0002051551Y0002093553D02*
X0002012181Y0002093553D01*
X0001950291Y0002577943D02*
X0001950291Y0002617313D01*
X0002003441Y0002617313D02*
X0002003441Y0002577943D01*
X0001881551Y0002541053D02*
X0001842181Y0002541053D01*
X0001842181Y0002594203D02*
X0001881551Y0002594203D01*
X0001699681Y0002594203D02*
X0001739051Y0002594203D01*
X0001739051Y0002541053D02*
X0001699681Y0002541053D01*
D26*
X0001438480Y0002516637D02*
X0001438480Y0002445771D01*
X0001565251Y0002445771D02*
X0001565251Y0002542228D01*
D25*
X0001510763Y0002098330D02*
X0001628874Y0002098330D01*
X0001510763Y0002025496D02*
X0001628874Y0002025496D01*
X0001510763Y0002025496D02*
X0001510763Y0001953645D01*
X0001628874Y0002025496D02*
X0001628874Y0001953645D01*
X0001510763Y0001953645D02*
X0001385763Y0001953645D01*
X0001628874Y0001953645D02*
X0001753873Y0001953645D01*
X0001385763Y0001953645D02*
X0001385763Y0002087503D01*
X0001753873Y0001953645D02*
X0001753874Y0002087503D01*
X0001385763Y0002087503D02*
X0001510763Y0002087503D01*
X0001753874Y0002087503D02*
X0001628874Y0002087503D01*
X0001510763Y0002087503D02*
X0001510763Y0002098330D01*
X0001628874Y0002087503D02*
X0001628874Y0002098330D01*
X0002167220Y0002361519D02*
X0002167220Y0002422543D01*
X0002167220Y0002422543D02*
X0002289267Y0002422543D01*
X0002289267Y0002422543D02*
X0002289267Y0002361519D01*
X0002278244Y0002311519D02*
X0002278244Y0001911519D01*
X0002278244Y0001911519D02*
X0002178244Y0001911519D01*
X0002178244Y0001911519D02*
X0002178244Y0002311519D01*
X0002278244Y0002311519D02*
X0002178244Y0002311519D01*
X0002167220Y0002924118D02*
X0002167220Y0002985141D01*
X0002167220Y0002985141D02*
X0002289267Y0002985141D01*
X0002289267Y0002985141D02*
X0002289267Y0002924118D01*
X0002278244Y0002874118D02*
X0002278244Y0002474118D01*
X0002278244Y0002474118D02*
X0002178244Y0002474118D01*
X0002178244Y0002474118D02*
X0002178244Y0002874118D01*
X0002278244Y0002874118D02*
X0002178244Y0002874118D01*
D27*
X0002001866Y0002420128D02*
X0002001866Y0002270128D01*
X0001626866Y0002420128D02*
X0001626866Y0002370128D01*
X0001626866Y0002370128D02*
X0001651866Y0002345128D01*
X0001651866Y0002345128D02*
X0001626866Y0002320128D01*
X0001626866Y0002320128D02*
X0001626866Y0002270128D01*
D25*
X0001578244Y0002684354D02*
X0001578244Y0002723724D01*
X0001511314Y0002723724D02*
X0001511314Y0002684354D01*
X0002090330Y0002215443D02*
X0002090330Y0002254813D01*
X0002023401Y0002254813D02*
X0002023401Y0002215443D01*
X0001572338Y0002558370D02*
X0001611708Y0002558370D01*
X0001611708Y0002625299D02*
X0001572338Y0002625299D01*
X0001631393Y0002674511D02*
X0001658952Y0002674511D01*
X0001658952Y0002627267D02*
X0001631393Y0002627267D01*
D26*
X0001414070Y0002733566D02*
X0001414070Y0002780811D01*
X0001483362Y0002780811D02*
X0001483362Y0002733566D01*
D25*
X0001849897Y0002656795D02*
X0001877456Y0002656795D01*
X0001877456Y0002609551D02*
X0001849897Y0002609551D01*
X0001501472Y0002875299D02*
X0001529031Y0002875299D01*
X0001529031Y0002828055D02*
X0001501472Y0002828055D01*
X0001571354Y0002954039D02*
X0001571354Y0002914669D01*
X0001518204Y0002914669D02*
X0001518204Y0002954039D01*
D26*
X0001576826Y0002191204D02*
X0001576826Y0002321125D01*
X0001576826Y0002321125D02*
X0001419346Y0002321125D01*
D25*
X0002097647Y0002356270D02*
X0002095773Y0002358145D01*
X0002093898Y0002363769D01*
X0002093898Y0002367518D01*
X0002095773Y0002373143D01*
X0002099522Y0002376892D01*
X0002103272Y0002378767D01*
X0002110771Y0002380642D01*
X0002116395Y0002380642D01*
X0002123894Y0002378767D01*
X0002127644Y0002376892D01*
X0002131393Y0002373143D01*
X0002133268Y0002367518D01*
X0002133268Y0002363769D01*
X0002131393Y0002358145D01*
X0002129518Y0002356270D01*
X0002129518Y0002341272D02*
X0002131393Y0002339397D01*
X0002133268Y0002335647D01*
X0002133268Y0002326274D01*
X0002131393Y0002322524D01*
X0002129518Y0002320649D01*
X0002125769Y0002318775D01*
X0002122019Y0002318775D01*
X0002116395Y0002320649D01*
X0002093898Y0002343146D01*
X0002093898Y0002318775D01*
X0001445698Y0001491140D02*
X0001445698Y0001519262D01*
X0001447572Y0001524886D01*
X0001451322Y0001528636D01*
X0001456946Y0001530511D01*
X0001460696Y0001530511D01*
X0001410077Y0001491140D02*
X0001417576Y0001491140D01*
X0001421326Y0001493015D01*
X0001423200Y0001494890D01*
X0001426950Y0001500514D01*
X0001428825Y0001508013D01*
X0001428825Y0001523012D01*
X0001426950Y0001526761D01*
X0001425075Y0001528636D01*
X0001421326Y0001530511D01*
X0001413827Y0001530511D01*
X0001410077Y0001528636D01*
X0001408202Y0001526761D01*
X0001406328Y0001523012D01*
X0001406328Y0001513638D01*
X0001408202Y0001509888D01*
X0001410077Y0001508013D01*
X0001413827Y0001506139D01*
X0001421326Y0001506139D01*
X0001425075Y0001508013D01*
X0001426950Y0001509888D01*
X0001428825Y0001513638D01*
X0001520238Y0002306101D02*
X0001533362Y0002287353D01*
X0001542735Y0002306101D02*
X0001542735Y0002266731D01*
X0001527737Y0002266731D01*
X0001523988Y0002268606D01*
X0001522113Y0002270481D01*
X0001520238Y0002274230D01*
X0001520238Y0002279854D01*
X0001522113Y0002283604D01*
X0001523988Y0002285479D01*
X0001527737Y0002287353D01*
X0001542735Y0002287353D01*
X0001484618Y0002266731D02*
X0001503365Y0002266731D01*
X0001505240Y0002285479D01*
X0001503365Y0002283604D01*
X0001499616Y0002281729D01*
X0001490242Y0002281729D01*
X0001486493Y0002283604D01*
X0001484618Y0002285479D01*
X0001482743Y0002289228D01*
X0001482743Y0002298602D01*
X0001484618Y0002302352D01*
X0001486493Y0002304226D01*
X0001490242Y0002306101D01*
X0001499616Y0002306101D01*
X0001503365Y0002304226D01*
X0001505240Y0002302352D01*
X0002047404Y0002084054D02*
X0002060527Y0002065306D01*
X0002069901Y0002084054D02*
X0002069901Y0002044684D01*
X0002054903Y0002044684D01*
X0002051153Y0002046559D01*
X0002049278Y0002048433D01*
X0002047404Y0002052183D01*
X0002047404Y0002057807D01*
X0002049278Y0002061557D01*
X0002051153Y0002063431D01*
X0002054903Y0002065306D01*
X0002069901Y0002065306D01*
X0002013658Y0002057807D02*
X0002013658Y0002084054D01*
X0002023032Y0002042809D02*
X0002032406Y0002070931D01*
X0002008034Y0002070931D01*
X0002033859Y0002604190D02*
X0002052606Y0002617313D01*
X0002033859Y0002626687D02*
X0002073229Y0002626687D01*
X0002073229Y0002611689D01*
X0002071354Y0002607939D01*
X0002069479Y0002606065D01*
X0002065730Y0002604190D01*
X0002060105Y0002604190D01*
X0002056356Y0002606065D01*
X0002054481Y0002607939D01*
X0002052606Y0002611689D01*
X0002052606Y0002626687D01*
X0002073229Y0002591066D02*
X0002073229Y0002566695D01*
X0002058231Y0002579818D01*
X0002058231Y0002574194D01*
X0002056356Y0002570444D01*
X0002054481Y0002568569D01*
X0002050731Y0002566695D01*
X0002041358Y0002566695D01*
X0002037608Y0002568569D01*
X0002035733Y0002570444D01*
X0002033859Y0002574194D01*
X0002033859Y0002585442D01*
X0002035733Y0002589192D01*
X0002037608Y0002591066D01*
X0001868427Y0002660242D02*
X0001881551Y0002641494D01*
X0001890925Y0002660242D02*
X0001890925Y0002620872D01*
X0001875926Y0002620872D01*
X0001872177Y0002622746D01*
X0001870302Y0002624621D01*
X0001868427Y0002628371D01*
X0001868427Y0002633995D01*
X0001870302Y0002637744D01*
X0001872177Y0002639619D01*
X0001875926Y0002641494D01*
X0001890925Y0002641494D01*
X0001853429Y0002624621D02*
X0001851555Y0002622746D01*
X0001847805Y0002620872D01*
X0001838431Y0002620872D01*
X0001834682Y0002622746D01*
X0001832807Y0002624621D01*
X0001830932Y0002628371D01*
X0001830932Y0002632120D01*
X0001832807Y0002637744D01*
X0001855304Y0002660242D01*
X0001830932Y0002660242D01*
X0001758034Y0002650983D02*
X0001771157Y0002632235D01*
X0001780531Y0002650983D02*
X0001780531Y0002611613D01*
X0001765533Y0002611613D01*
X0001761783Y0002613488D01*
X0001759908Y0002615362D01*
X0001758034Y0002619112D01*
X0001758034Y0002624736D01*
X0001759908Y0002628486D01*
X0001761783Y0002630361D01*
X0001765533Y0002632235D01*
X0001780531Y0002632235D01*
X0001720538Y0002650983D02*
X0001743035Y0002650983D01*
X0001731787Y0002650983D02*
X0001731787Y0002611613D01*
X0001735536Y0002617237D01*
X0001739286Y0002620987D01*
X0001743035Y0002622862D01*
X0001424607Y0002515531D02*
X0001392736Y0002515531D01*
X0001388986Y0002513656D01*
X0001387111Y0002511782D01*
X0001385236Y0002508032D01*
X0001385236Y0002500533D01*
X0001387111Y0002496784D01*
X0001388986Y0002494909D01*
X0001392736Y0002493034D01*
X0001424607Y0002493034D01*
X0001420857Y0002476161D02*
X0001422732Y0002474286D01*
X0001424607Y0002470537D01*
X0001424607Y0002461163D01*
X0001422732Y0002457413D01*
X0001420857Y0002455539D01*
X0001417107Y0002453664D01*
X0001413358Y0002453664D01*
X0001407734Y0002455539D01*
X0001385236Y0002478036D01*
X0001385236Y0002453664D01*
X0001577141Y0001896829D02*
X0001577141Y0001930574D01*
X0001579391Y0001937323D01*
X0001583890Y0001941823D01*
X0001590640Y0001944073D01*
X0001595139Y0001944073D01*
X0001532147Y0001896829D02*
X0001554644Y0001896829D01*
X0001556894Y0001919326D01*
X0001554644Y0001917076D01*
X0001550145Y0001914826D01*
X0001538896Y0001914826D01*
X0001534397Y0001917076D01*
X0001532147Y0001919326D01*
X0001529897Y0001923825D01*
X0001529897Y0001935074D01*
X0001532147Y0001939573D01*
X0001534397Y0001941823D01*
X0001538896Y0001944073D01*
X0001550145Y0001944073D01*
X0001554644Y0001941823D01*
X0001556894Y0001939573D01*
X0002156890Y0002451414D02*
X0002128769Y0002451414D01*
X0002123144Y0002453289D01*
X0002119395Y0002457039D01*
X0002117520Y0002462663D01*
X0002117520Y0002466412D01*
X0002156890Y0002436416D02*
X0002156890Y0002412044D01*
X0002141892Y0002425167D01*
X0002141892Y0002419543D01*
X0002140017Y0002415794D01*
X0002138142Y0002413919D01*
X0002134393Y0002412044D01*
X0002125019Y0002412044D01*
X0002121269Y0002413919D01*
X0002119395Y0002415794D01*
X0002117520Y0002419543D01*
X0002117520Y0002430792D01*
X0002119395Y0002434541D01*
X0002121269Y0002436416D01*
X0002162796Y0002977005D02*
X0002134674Y0002977005D01*
X0002129050Y0002978880D01*
X0002125300Y0002982629D01*
X0002123425Y0002988253D01*
X0002123425Y0002992003D01*
X0002159046Y0002960132D02*
X0002160921Y0002958257D01*
X0002162796Y0002954508D01*
X0002162796Y0002945134D01*
X0002160921Y0002941384D01*
X0002159046Y0002939509D01*
X0002155296Y0002937635D01*
X0002151547Y0002937635D01*
X0002145923Y0002939509D01*
X0002123425Y0002962007D01*
X0002123425Y0002937635D01*
X0001774517Y0002701140D02*
X0001774517Y0002729262D01*
X0001776391Y0002734886D01*
X0001780141Y0002738636D01*
X0001785765Y0002740511D01*
X0001789515Y0002740511D01*
X0001735146Y0002740511D02*
X0001757644Y0002740511D01*
X0001746395Y0002740511D02*
X0001746395Y0002701140D01*
X0001750145Y0002706765D01*
X0001753894Y0002710514D01*
X0001757644Y0002712389D01*
X0001643110Y0002161200D02*
X0001611239Y0002161200D01*
X0001607490Y0002159326D01*
X0001605615Y0002157451D01*
X0001603740Y0002153701D01*
X0001603740Y0002146202D01*
X0001605615Y0002142453D01*
X0001607490Y0002140578D01*
X0001611239Y0002138703D01*
X0001643110Y0002138703D01*
X0001603740Y0002099333D02*
X0001603740Y0002121830D01*
X0001603740Y0002110582D02*
X0001643110Y0002110582D01*
X0001637486Y0002114331D01*
X0001633737Y0002118081D01*
X0001631862Y0002121830D01*
X0001459852Y0002657451D02*
X0001457977Y0002659326D01*
X0001456103Y0002664950D01*
X0001456103Y0002668700D01*
X0001457977Y0002674324D01*
X0001461727Y0002678073D01*
X0001465476Y0002679948D01*
X0001472975Y0002681823D01*
X0001478600Y0002681823D01*
X0001486099Y0002679948D01*
X0001489848Y0002678073D01*
X0001493598Y0002674324D01*
X0001495473Y0002668700D01*
X0001495473Y0002664950D01*
X0001493598Y0002659326D01*
X0001491723Y0002657451D01*
X0001456103Y0002619956D02*
X0001456103Y0002642453D01*
X0001456103Y0002631204D02*
X0001495473Y0002631204D01*
X0001489848Y0002634954D01*
X0001486099Y0002638703D01*
X0001484224Y0002642453D01*
X0002103553Y0002241690D02*
X0002101678Y0002243565D01*
X0002099803Y0002249189D01*
X0002099803Y0002252938D01*
X0002101678Y0002258563D01*
X0002105428Y0002262312D01*
X0002109177Y0002264187D01*
X0002116676Y0002266062D01*
X0002122301Y0002266062D01*
X0002129800Y0002264187D01*
X0002133549Y0002262312D01*
X0002137299Y0002258563D01*
X0002139173Y0002252938D01*
X0002139173Y0002249189D01*
X0002137299Y0002243565D01*
X0002135424Y0002241690D01*
X0002139173Y0002228566D02*
X0002139173Y0002204195D01*
X0002124175Y0002217318D01*
X0002124175Y0002211694D01*
X0002122301Y0002207944D01*
X0002120426Y0002206069D01*
X0002116676Y0002204195D01*
X0002107302Y0002204195D01*
X0002103553Y0002206069D01*
X0002101678Y0002207944D01*
X0002099803Y0002211694D01*
X0002099803Y0002222942D01*
X0002101678Y0002226692D01*
X0002103553Y0002228566D01*
X0001616301Y0002540934D02*
X0001618176Y0002542809D01*
X0001623800Y0002544684D01*
X0001627550Y0002544684D01*
X0001633174Y0002542809D01*
X0001636924Y0002539060D01*
X0001638799Y0002535310D01*
X0001640673Y0002527811D01*
X0001640673Y0002522187D01*
X0001638799Y0002514688D01*
X0001636924Y0002510938D01*
X0001633174Y0002507188D01*
X0001627550Y0002505314D01*
X0001623800Y0002505314D01*
X0001618176Y0002507188D01*
X0001616301Y0002509063D01*
X0001582556Y0002518437D02*
X0001582556Y0002544684D01*
X0001591929Y0002503439D02*
X0001601303Y0002531560D01*
X0001576931Y0002531560D01*
X0001657640Y0002718100D02*
X0001659515Y0002719974D01*
X0001665139Y0002721849D01*
X0001668888Y0002721849D01*
X0001674513Y0002719974D01*
X0001678262Y0002716225D01*
X0001680137Y0002712475D01*
X0001682012Y0002704976D01*
X0001682012Y0002699352D01*
X0001680137Y0002691853D01*
X0001678262Y0002688103D01*
X0001674513Y0002684354D01*
X0001668888Y0002682479D01*
X0001665139Y0002682479D01*
X0001659515Y0002684354D01*
X0001657640Y0002686229D01*
X0001623894Y0002682479D02*
X0001631393Y0002682479D01*
X0001635143Y0002684354D01*
X0001637017Y0002686229D01*
X0001640767Y0002691853D01*
X0001642642Y0002699352D01*
X0001642642Y0002714350D01*
X0001640767Y0002718100D01*
X0001638892Y0002719974D01*
X0001635143Y0002721849D01*
X0001627644Y0002721849D01*
X0001623894Y0002719974D01*
X0001622019Y0002718100D01*
X0001620145Y0002714350D01*
X0001620145Y0002704976D01*
X0001622019Y0002701227D01*
X0001623894Y0002699352D01*
X0001627644Y0002697477D01*
X0001635143Y0002697477D01*
X0001638892Y0002699352D01*
X0001640767Y0002701227D01*
X0001642642Y0002704976D01*
X0001367520Y0002763750D02*
X0001367520Y0002782498D01*
X0001406890Y0002782498D01*
X0001367520Y0002730004D02*
X0001367520Y0002752502D01*
X0001367520Y0002741253D02*
X0001406890Y0002741253D01*
X0001401266Y0002745002D01*
X0001397516Y0002748752D01*
X0001395641Y0002752502D01*
X0001870238Y0002722037D02*
X0001872113Y0002723911D01*
X0001877737Y0002725786D01*
X0001881487Y0002725786D01*
X0001887111Y0002723911D01*
X0001890861Y0002720162D01*
X0001892736Y0002716412D01*
X0001894610Y0002708913D01*
X0001894610Y0002703289D01*
X0001892736Y0002695790D01*
X0001890861Y0002692040D01*
X0001887111Y0002688291D01*
X0001881487Y0002686416D01*
X0001877737Y0002686416D01*
X0001872113Y0002688291D01*
X0001870238Y0002690166D01*
X0001834618Y0002686416D02*
X0001853365Y0002686416D01*
X0001855240Y0002705164D01*
X0001853365Y0002703289D01*
X0001849616Y0002701414D01*
X0001840242Y0002701414D01*
X0001836493Y0002703289D01*
X0001834618Y0002705164D01*
X0001832743Y0002708913D01*
X0001832743Y0002718287D01*
X0001834618Y0002722037D01*
X0001836493Y0002723911D01*
X0001840242Y0002725786D01*
X0001849616Y0002725786D01*
X0001853365Y0002723911D01*
X0001855240Y0002722037D01*
X0001934730Y0001997440D02*
X0001925356Y0002036810D01*
X0001917857Y0002008688D01*
X0001910358Y0002036810D01*
X0001900985Y0001997440D01*
X0001865364Y0002036810D02*
X0001887861Y0002036810D01*
X0001876613Y0002036810D02*
X0001876613Y0001997440D01*
X0001880362Y0002003064D01*
X0001884112Y0002006814D01*
X0001887861Y0002008688D01*
X0002029218Y0001997440D02*
X0002019845Y0002036810D01*
X0002012346Y0002008688D01*
X0002004847Y0002036810D01*
X0001995473Y0001997440D01*
X0001982349Y0002001189D02*
X0001980475Y0001999314D01*
X0001976725Y0001997440D01*
X0001967351Y0001997440D01*
X0001963602Y0001999314D01*
X0001961727Y0002001189D01*
X0001959852Y0002004939D01*
X0001959852Y0002008688D01*
X0001961727Y0002014313D01*
X0001984224Y0002036810D01*
X0001959852Y0002036810D01*
X0001415514Y0002865737D02*
X0001417389Y0002867612D01*
X0001423013Y0002869487D01*
X0001426762Y0002869487D01*
X0001432387Y0002867612D01*
X0001436136Y0002863863D01*
X0001438011Y0002860113D01*
X0001439886Y0002852614D01*
X0001439886Y0002846990D01*
X0001438011Y0002839491D01*
X0001436136Y0002835741D01*
X0001432387Y0002831992D01*
X0001426762Y0002830117D01*
X0001423013Y0002830117D01*
X0001417389Y0002831992D01*
X0001415514Y0002833866D01*
X0001402391Y0002830117D02*
X0001376144Y0002830117D01*
X0001393017Y0002869487D01*
X0001680512Y0002958632D02*
X0001699260Y0002971755D01*
X0001680512Y0002981129D02*
X0001719882Y0002981129D01*
X0001719882Y0002966131D01*
X0001718007Y0002962382D01*
X0001716133Y0002960507D01*
X0001712383Y0002958632D01*
X0001706759Y0002958632D01*
X0001703009Y0002960507D01*
X0001701135Y0002962382D01*
X0001699260Y0002966131D01*
X0001699260Y0002981129D01*
X0001719882Y0002924886D02*
X0001719882Y0002932385D01*
X0001718007Y0002936135D01*
X0001716133Y0002938010D01*
X0001710508Y0002941759D01*
X0001703009Y0002943634D01*
X0001688011Y0002943634D01*
X0001684262Y0002941759D01*
X0001682387Y0002939884D01*
X0001680512Y0002936135D01*
X0001680512Y0002928636D01*
X0001682387Y0002924886D01*
X0001684262Y0002923011D01*
X0001688011Y0002921137D01*
X0001697385Y0002921137D01*
X0001701135Y0002923011D01*
X0001703009Y0002924886D01*
X0001704884Y0002928636D01*
X0001704884Y0002936135D01*
X0001703009Y0002939884D01*
X0001701135Y0002941759D01*
X0001697385Y0002943634D01*
X0001516834Y0002158771D02*
X0001516834Y0002177518D01*
X0001529957Y0002138148D02*
X0001516834Y0002158771D01*
X0001503710Y0002138148D01*
X0001469965Y0002177518D02*
X0001492462Y0002177518D01*
X0001481213Y0002177518D02*
X0001481213Y0002138148D01*
X0001484963Y0002143773D01*
X0001488712Y0002147522D01*
X0001492462Y0002149397D01*
G04 next file*
G04 Gerber Fmt 4.6, Leading zero omitted, Abs format (unit mm)*
G04 Created by KiCad (PCBNEW 4.0.7) date Thursday, 08 March 2018 'PMt' 14:48:31*
G01G01*
G04 APERTURE LIST*
G04 APERTURE END LIST*
D28*
D29*
X0001620299Y0000873808D02*
X0001620299Y0000901367D01*
X0001667543Y0000901367D02*
X0001667543Y0000873808D01*
X0002218212Y0001631000D02*
X0002218212Y0001431000D01*
X0002218212Y0001431000D02*
X0002318212Y0001431000D01*
X0002318212Y0001431000D02*
X0002318212Y0001631000D01*
X0002329236Y0001742023D02*
X0002329236Y0001681000D01*
X0002318212Y0001631000D02*
X0002218212Y0001631000D01*
X0002207188Y0001681000D02*
X0002207188Y0001742023D01*
X0002207188Y0001742023D02*
X0002329236Y0001742023D01*
X0002206795Y0000878047D02*
X0002167425Y0000878047D01*
X0002167425Y0000931196D02*
X0002206795Y0000931196D01*
X0001688606Y0001121013D02*
X0001649236Y0001121013D01*
X0001649236Y0001174162D02*
X0001688606Y0001174162D01*
X0001750495Y0000689772D02*
X0001750495Y0000650402D01*
X0001697346Y0000650402D02*
X0001697346Y0000689772D01*
X0001819236Y0000726662D02*
X0001858606Y0000726662D01*
X0001858606Y0000673513D02*
X0001819236Y0000673513D01*
X0002001106Y0000673513D02*
X0001961736Y0000673513D01*
X0001961736Y0000726662D02*
X0002001106Y0000726662D01*
D30*
X0002262307Y0000751078D02*
X0002262307Y0000821944D01*
X0002135535Y0000821944D02*
X0002135535Y0000725488D01*
D29*
X0002190023Y0001169385D02*
X0002071913Y0001169385D01*
X0002190023Y0001242220D02*
X0002071913Y0001242220D01*
X0002190023Y0001242220D02*
X0002190023Y0001314070D01*
X0002071913Y0001242220D02*
X0002071913Y0001314070D01*
X0002190023Y0001314070D02*
X0002315023Y0001314070D01*
X0002071913Y0001314070D02*
X0001946913Y0001314070D01*
X0002315023Y0001314070D02*
X0002315023Y0001180212D01*
X0001946913Y0001314070D02*
X0001946913Y0001180212D01*
X0002315023Y0001180212D02*
X0002190023Y0001180212D01*
X0001946913Y0001180212D02*
X0002071913Y0001180212D01*
X0002190023Y0001180212D02*
X0002190023Y0001169385D01*
X0002071913Y0001180212D02*
X0002071913Y0001169385D01*
X0001533566Y0000906196D02*
X0001533566Y0000845173D01*
X0001533566Y0000845173D02*
X0001411519Y0000845173D01*
X0001411519Y0000845173D02*
X0001411519Y0000906196D01*
X0001422543Y0000956196D02*
X0001422543Y0001356196D01*
X0001422543Y0001356196D02*
X0001522543Y0001356196D01*
X0001522543Y0001356196D02*
X0001522543Y0000956196D01*
X0001422543Y0000956196D02*
X0001522543Y0000956196D01*
X0001533566Y0000343598D02*
X0001533566Y0000282574D01*
X0001533566Y0000282574D02*
X0001411519Y0000282574D01*
X0001411519Y0000282574D02*
X0001411519Y0000343598D01*
X0001422543Y0000393598D02*
X0001422543Y0000793598D01*
X0001422543Y0000793598D02*
X0001522543Y0000793598D01*
X0001522543Y0000793598D02*
X0001522543Y0000393598D01*
X0001422543Y0000393598D02*
X0001522543Y0000393598D01*
D31*
X0001698921Y0000847587D02*
X0001698921Y0000997587D01*
X0002073921Y0000847587D02*
X0002073921Y0000897587D01*
X0002073921Y0000897587D02*
X0002048921Y0000922587D01*
X0002048921Y0000922587D02*
X0002073921Y0000947587D01*
X0002073921Y0000947587D02*
X0002073921Y0000997587D01*
D29*
X0002122543Y0000583362D02*
X0002122543Y0000543992D01*
X0002189472Y0000543992D02*
X0002189472Y0000583362D01*
X0001610456Y0001052272D02*
X0001610456Y0001012902D01*
X0001677385Y0001012902D02*
X0001677385Y0001052272D01*
X0002128448Y0000709346D02*
X0002089078Y0000709346D01*
X0002089078Y0000642417D02*
X0002128448Y0000642417D01*
X0002069393Y0000593204D02*
X0002041834Y0000593204D01*
X0002041834Y0000640448D02*
X0002069393Y0000640448D01*
D30*
X0002286716Y0000534149D02*
X0002286716Y0000486905D01*
X0002217425Y0000486905D02*
X0002217425Y0000534149D01*
D29*
X0001850889Y0000610921D02*
X0001823330Y0000610921D01*
X0001823330Y0000658165D02*
X0001850889Y0000658165D01*
X0002199314Y0000392417D02*
X0002171755Y0000392417D01*
X0002171755Y0000439661D02*
X0002199314Y0000439661D01*
X0002129433Y0000313677D02*
X0002129433Y0000353047D01*
X0002182582Y0000353047D02*
X0002182582Y0000313677D01*
D30*
X0002123960Y0001076511D02*
X0002123960Y0000946590D01*
X0002123960Y0000946590D02*
X0002281440Y0000946590D01*
D29*
X0001603139Y0000911446D02*
X0001605014Y0000909571D01*
X0001606889Y0000903947D01*
X0001606889Y0000900197D01*
X0001605014Y0000894573D01*
X0001601264Y0000890823D01*
X0001597515Y0000888948D01*
X0001590016Y0000887074D01*
X0001584391Y0000887074D01*
X0001576892Y0000888948D01*
X0001573143Y0000890823D01*
X0001569393Y0000894573D01*
X0001567518Y0000900197D01*
X0001567518Y0000903947D01*
X0001569393Y0000909571D01*
X0001571268Y0000911446D01*
X0001571268Y0000926444D02*
X0001569393Y0000928319D01*
X0001567518Y0000932068D01*
X0001567518Y0000941442D01*
X0001569393Y0000945192D01*
X0001571268Y0000947066D01*
X0001575017Y0000948941D01*
X0001578767Y0000948941D01*
X0001584391Y0000947066D01*
X0001606889Y0000924569D01*
X0001606889Y0000948941D01*
X0002255089Y0001776575D02*
X0002255089Y0001748454D01*
X0002253214Y0001742829D01*
X0002249464Y0001739080D01*
X0002243840Y0001737205D01*
X0002240091Y0001737205D01*
X0002290709Y0001776575D02*
X0002283210Y0001776575D01*
X0002279461Y0001774700D01*
X0002277586Y0001772826D01*
X0002273836Y0001767201D01*
X0002271962Y0001759702D01*
X0002271962Y0001744704D01*
X0002273836Y0001740955D01*
X0002275711Y0001739080D01*
X0002279461Y0001737205D01*
X0002286960Y0001737205D01*
X0002290709Y0001739080D01*
X0002292584Y0001740955D01*
X0002294459Y0001744704D01*
X0002294459Y0001754078D01*
X0002292584Y0001757827D01*
X0002290709Y0001759702D01*
X0002286960Y0001761577D01*
X0002279461Y0001761577D01*
X0002275711Y0001759702D01*
X0002273836Y0001757827D01*
X0002271962Y0001754078D01*
X0002180548Y0000961614D02*
X0002167425Y0000980362D01*
X0002158051Y0000961614D02*
X0002158051Y0001000985D01*
X0002173049Y0001000985D01*
X0002176799Y0000999110D01*
X0002178673Y0000997235D01*
X0002180548Y0000993485D01*
X0002180548Y0000987861D01*
X0002178673Y0000984112D01*
X0002176799Y0000982237D01*
X0002173049Y0000980362D01*
X0002158051Y0000980362D01*
X0002216169Y0001000985D02*
X0002197421Y0001000985D01*
X0002195546Y0000982237D01*
X0002197421Y0000984112D01*
X0002201170Y0000985986D01*
X0002210544Y0000985986D01*
X0002214294Y0000984112D01*
X0002216169Y0000982237D01*
X0002218043Y0000978487D01*
X0002218043Y0000969113D01*
X0002216169Y0000965364D01*
X0002214294Y0000963489D01*
X0002210544Y0000961614D01*
X0002201170Y0000961614D01*
X0002197421Y0000963489D01*
X0002195546Y0000965364D01*
X0001653383Y0001183662D02*
X0001640259Y0001202409D01*
X0001630886Y0001183662D02*
X0001630886Y0001223032D01*
X0001645884Y0001223032D01*
X0001649633Y0001221157D01*
X0001651508Y0001219282D01*
X0001653383Y0001215533D01*
X0001653383Y0001209908D01*
X0001651508Y0001206159D01*
X0001649633Y0001204284D01*
X0001645884Y0001202409D01*
X0001630886Y0001202409D01*
X0001687129Y0001209908D02*
X0001687129Y0001183662D01*
X0001677755Y0001224907D02*
X0001668381Y0001196785D01*
X0001692753Y0001196785D01*
X0001666928Y0000663526D02*
X0001648180Y0000650402D01*
X0001666928Y0000641028D02*
X0001627558Y0000641028D01*
X0001627558Y0000656027D01*
X0001629432Y0000659776D01*
X0001631307Y0000661651D01*
X0001635057Y0000663526D01*
X0001640681Y0000663526D01*
X0001644431Y0000661651D01*
X0001646305Y0000659776D01*
X0001648180Y0000656027D01*
X0001648180Y0000641028D01*
X0001627558Y0000676649D02*
X0001627558Y0000701021D01*
X0001642556Y0000687898D01*
X0001642556Y0000693522D01*
X0001644431Y0000697272D01*
X0001646305Y0000699146D01*
X0001650055Y0000701021D01*
X0001659429Y0000701021D01*
X0001663178Y0000699146D01*
X0001665053Y0000697272D01*
X0001666928Y0000693522D01*
X0001666928Y0000682273D01*
X0001665053Y0000678524D01*
X0001663178Y0000676649D01*
X0001832359Y0000607474D02*
X0001819236Y0000626222D01*
X0001809862Y0000607474D02*
X0001809862Y0000646844D01*
X0001824860Y0000646844D01*
X0001828610Y0000644969D01*
X0001830484Y0000643095D01*
X0001832359Y0000639345D01*
X0001832359Y0000633721D01*
X0001830484Y0000629971D01*
X0001828610Y0000628096D01*
X0001824860Y0000626222D01*
X0001809862Y0000626222D01*
X0001847357Y0000643095D02*
X0001849232Y0000644969D01*
X0001852981Y0000646844D01*
X0001862355Y0000646844D01*
X0001866105Y0000644969D01*
X0001867980Y0000643095D01*
X0001869854Y0000639345D01*
X0001869854Y0000635595D01*
X0001867980Y0000629971D01*
X0001845482Y0000607474D01*
X0001869854Y0000607474D01*
X0001942753Y0000616733D02*
X0001929629Y0000635480D01*
X0001920256Y0000616733D02*
X0001920256Y0000656103D01*
X0001935254Y0000656103D01*
X0001939003Y0000654228D01*
X0001940878Y0000652353D01*
X0001942753Y0000648604D01*
X0001942753Y0000642979D01*
X0001940878Y0000639230D01*
X0001939003Y0000637355D01*
X0001935254Y0000635480D01*
X0001920256Y0000635480D01*
X0001980248Y0000616733D02*
X0001957751Y0000616733D01*
X0001969000Y0000616733D02*
X0001969000Y0000656103D01*
X0001965250Y0000650478D01*
X0001961500Y0000646729D01*
X0001957751Y0000644854D01*
X0002276180Y0000752184D02*
X0002308051Y0000752184D01*
X0002311800Y0000754059D01*
X0002313675Y0000755934D01*
X0002315550Y0000759683D01*
X0002315550Y0000767182D01*
X0002313675Y0000770932D01*
X0002311800Y0000772807D01*
X0002308051Y0000774682D01*
X0002276180Y0000774682D01*
X0002279929Y0000791554D02*
X0002278055Y0000793429D01*
X0002276180Y0000797179D01*
X0002276180Y0000806553D01*
X0002278055Y0000810302D01*
X0002279929Y0000812177D01*
X0002283679Y0000814052D01*
X0002287428Y0000814052D01*
X0002293053Y0000812177D01*
X0002315550Y0000789680D01*
X0002315550Y0000814052D01*
X0002123645Y0001370887D02*
X0002123645Y0001337141D01*
X0002121395Y0001330392D01*
X0002116896Y0001325893D01*
X0002110147Y0001323643D01*
X0002105647Y0001323643D01*
X0002168640Y0001370887D02*
X0002146142Y0001370887D01*
X0002143893Y0001348390D01*
X0002146142Y0001350640D01*
X0002150642Y0001352889D01*
X0002161890Y0001352889D01*
X0002166390Y0001350640D01*
X0002168640Y0001348390D01*
X0002170889Y0001343890D01*
X0002170889Y0001332642D01*
X0002168640Y0001328142D01*
X0002166390Y0001325893D01*
X0002161890Y0001323643D01*
X0002150642Y0001323643D01*
X0002146142Y0001325893D01*
X0002143893Y0001328142D01*
X0001543896Y0000816301D02*
X0001572018Y0000816301D01*
X0001577642Y0000814427D01*
X0001581392Y0000810677D01*
X0001583266Y0000805053D01*
X0001583266Y0000801303D01*
X0001543896Y0000831299D02*
X0001543896Y0000855671D01*
X0001558895Y0000842548D01*
X0001558895Y0000848172D01*
X0001560769Y0000851922D01*
X0001562644Y0000853797D01*
X0001566394Y0000855671D01*
X0001575767Y0000855671D01*
X0001579517Y0000853797D01*
X0001581392Y0000851922D01*
X0001583266Y0000848172D01*
X0001583266Y0000836924D01*
X0001581392Y0000833174D01*
X0001579517Y0000831299D01*
X0001537991Y0000290711D02*
X0001566112Y0000290711D01*
X0001571737Y0000288836D01*
X0001575486Y0000285086D01*
X0001577361Y0000279462D01*
X0001577361Y0000275713D01*
X0001541740Y0000307584D02*
X0001539866Y0000309458D01*
X0001537991Y0000313208D01*
X0001537991Y0000322582D01*
X0001539866Y0000326331D01*
X0001541740Y0000328206D01*
X0001545490Y0000330081D01*
X0001549239Y0000330081D01*
X0001554864Y0000328206D01*
X0001577361Y0000305709D01*
X0001577361Y0000330081D01*
X0001926270Y0000566575D02*
X0001926270Y0000538454D01*
X0001924395Y0000532829D01*
X0001920646Y0000529080D01*
X0001915021Y0000527205D01*
X0001911272Y0000527205D01*
X0001965640Y0000527205D02*
X0001943143Y0000527205D01*
X0001954391Y0000527205D02*
X0001954391Y0000566575D01*
X0001950642Y0000560951D01*
X0001946892Y0000557201D01*
X0001943143Y0000555326D01*
X0002057676Y0001106515D02*
X0002089547Y0001106515D01*
X0002093296Y0001108390D01*
X0002095171Y0001110265D01*
X0002097046Y0001114014D01*
X0002097046Y0001121513D01*
X0002095171Y0001125263D01*
X0002093296Y0001127137D01*
X0002089547Y0001129012D01*
X0002057676Y0001129012D01*
X0002097046Y0001168382D02*
X0002097046Y0001145885D01*
X0002097046Y0001157134D02*
X0002057676Y0001157134D01*
X0002063300Y0001153384D01*
X0002067050Y0001149635D01*
X0002068925Y0001145885D01*
X0002240934Y0000610265D02*
X0002242809Y0000608390D01*
X0002244684Y0000602766D01*
X0002244684Y0000599016D01*
X0002242809Y0000593392D01*
X0002239060Y0000589642D01*
X0002235310Y0000587767D01*
X0002227811Y0000585893D01*
X0002222187Y0000585893D01*
X0002214688Y0000587767D01*
X0002210938Y0000589642D01*
X0002207188Y0000593392D01*
X0002205314Y0000599016D01*
X0002205314Y0000602766D01*
X0002207188Y0000608390D01*
X0002209063Y0000610265D01*
X0002244684Y0000647760D02*
X0002244684Y0000625263D01*
X0002244684Y0000636511D02*
X0002205314Y0000636511D01*
X0002210938Y0000632762D01*
X0002214688Y0000629012D01*
X0002216562Y0000625263D01*
X0001597233Y0001026026D02*
X0001599108Y0001024151D01*
X0001600983Y0001018527D01*
X0001600983Y0001014777D01*
X0001599108Y0001009153D01*
X0001595359Y0001005403D01*
X0001591609Y0001003529D01*
X0001584110Y0001001654D01*
X0001578486Y0001001654D01*
X0001570987Y0001003529D01*
X0001567237Y0001005403D01*
X0001563488Y0001009153D01*
X0001561613Y0001014777D01*
X0001561613Y0001018527D01*
X0001563488Y0001024151D01*
X0001565362Y0001026026D01*
X0001561613Y0001039149D02*
X0001561613Y0001063521D01*
X0001576611Y0001050398D01*
X0001576611Y0001056022D01*
X0001578486Y0001059772D01*
X0001580361Y0001061646D01*
X0001584110Y0001063521D01*
X0001593484Y0001063521D01*
X0001597233Y0001061646D01*
X0001599108Y0001059772D01*
X0001600983Y0001056022D01*
X0001600983Y0001044773D01*
X0001599108Y0001041024D01*
X0001597233Y0001039149D01*
X0002084485Y0000726781D02*
X0002082610Y0000724907D01*
X0002076986Y0000723032D01*
X0002073237Y0000723032D01*
X0002067612Y0000724907D01*
X0002063863Y0000728656D01*
X0002061988Y0000732406D01*
X0002060113Y0000739905D01*
X0002060113Y0000745529D01*
X0002061988Y0000753028D01*
X0002063863Y0000756778D01*
X0002067612Y0000760527D01*
X0002073237Y0000762402D01*
X0002076986Y0000762402D01*
X0002082610Y0000760527D01*
X0002084485Y0000758652D01*
X0002118231Y0000749278D02*
X0002118231Y0000723032D01*
X0002108857Y0000764277D02*
X0002099483Y0000736155D01*
X0002123855Y0000736155D01*
X0002043147Y0000549616D02*
X0002041272Y0000547741D01*
X0002035647Y0000545866D01*
X0002031898Y0000545866D01*
X0002026274Y0000547741D01*
X0002022524Y0000551491D01*
X0002020649Y0000555240D01*
X0002018775Y0000562739D01*
X0002018775Y0000568364D01*
X0002020649Y0000575863D01*
X0002022524Y0000579612D01*
X0002026274Y0000583362D01*
X0002031898Y0000585236D01*
X0002035647Y0000585236D01*
X0002041272Y0000583362D01*
X0002043147Y0000581487D01*
X0002076892Y0000585236D02*
X0002069393Y0000585236D01*
X0002065644Y0000583362D01*
X0002063769Y0000581487D01*
X0002060019Y0000575863D01*
X0002058145Y0000568364D01*
X0002058145Y0000553365D01*
X0002060019Y0000549616D01*
X0002061894Y0000547741D01*
X0002065644Y0000545866D01*
X0002073143Y0000545866D01*
X0002076892Y0000547741D01*
X0002078767Y0000549616D01*
X0002080642Y0000553365D01*
X0002080642Y0000562739D01*
X0002078767Y0000566489D01*
X0002076892Y0000568364D01*
X0002073143Y0000570238D01*
X0002065644Y0000570238D01*
X0002061894Y0000568364D01*
X0002060019Y0000566489D01*
X0002058145Y0000562739D01*
X0002333266Y0000503965D02*
X0002333266Y0000485218D01*
X0002293896Y0000485218D01*
X0002333266Y0000537711D02*
X0002333266Y0000515214D01*
X0002333266Y0000526463D02*
X0002293896Y0000526463D01*
X0002299521Y0000522713D01*
X0002303270Y0000518964D01*
X0002305145Y0000515214D01*
X0001830548Y0000545679D02*
X0001828673Y0000543804D01*
X0001823049Y0000541929D01*
X0001819300Y0000541929D01*
X0001813675Y0000543804D01*
X0001809926Y0000547554D01*
X0001808051Y0000551303D01*
X0001806176Y0000558802D01*
X0001806176Y0000564427D01*
X0001808051Y0000571926D01*
X0001809926Y0000575675D01*
X0001813675Y0000579425D01*
X0001819300Y0000581299D01*
X0001823049Y0000581299D01*
X0001828673Y0000579425D01*
X0001830548Y0000577550D01*
X0001866169Y0000581299D02*
X0001847421Y0000581299D01*
X0001845546Y0000562552D01*
X0001847421Y0000564427D01*
X0001851170Y0000566301D01*
X0001860544Y0000566301D01*
X0001864294Y0000564427D01*
X0001866169Y0000562552D01*
X0001868043Y0000558802D01*
X0001868043Y0000549428D01*
X0001866169Y0000545679D01*
X0001864294Y0000543804D01*
X0001860544Y0000541929D01*
X0001851170Y0000541929D01*
X0001847421Y0000543804D01*
X0001845546Y0000545679D01*
X0001766056Y0001270276D02*
X0001775430Y0001230906D01*
X0001782929Y0001259027D01*
X0001790428Y0001230906D01*
X0001799802Y0001270276D01*
X0001835422Y0001230906D02*
X0001812925Y0001230906D01*
X0001824174Y0001230906D02*
X0001824174Y0001270276D01*
X0001820424Y0001264652D01*
X0001816675Y0001260902D01*
X0001812925Y0001259027D01*
X0001671568Y0001270276D02*
X0001680942Y0001230906D01*
X0001688441Y0001259027D01*
X0001695940Y0001230906D01*
X0001705314Y0001270276D01*
X0001718437Y0001266526D02*
X0001720312Y0001268401D01*
X0001724061Y0001270276D01*
X0001733435Y0001270276D01*
X0001737185Y0001268401D01*
X0001739060Y0001266526D01*
X0001740934Y0001262777D01*
X0001740934Y0001259027D01*
X0001739060Y0001253403D01*
X0001716562Y0001230906D01*
X0001740934Y0001230906D01*
X0002285272Y0000401978D02*
X0002283398Y0000400103D01*
X0002277773Y0000398229D01*
X0002274024Y0000398229D01*
X0002268400Y0000400103D01*
X0002264650Y0000403853D01*
X0002262775Y0000407602D01*
X0002260900Y0000415101D01*
X0002260900Y0000420726D01*
X0002262775Y0000428225D01*
X0002264650Y0000431974D01*
X0002268400Y0000435724D01*
X0002274024Y0000437599D01*
X0002277773Y0000437599D01*
X0002283398Y0000435724D01*
X0002285272Y0000433849D01*
X0002298396Y0000437599D02*
X0002324643Y0000437599D01*
X0002307770Y0000398229D01*
X0002020274Y0000309084D02*
X0002001527Y0000295960D01*
X0002020274Y0000286586D02*
X0001980904Y0000286586D01*
X0001980904Y0000301584D01*
X0001982779Y0000305334D01*
X0001984654Y0000307209D01*
X0001988403Y0000309084D01*
X0001994028Y0000309084D01*
X0001997777Y0000307209D01*
X0001999652Y0000305334D01*
X0002001527Y0000301584D01*
X0002001527Y0000286586D01*
X0001980904Y0000342829D02*
X0001980904Y0000335330D01*
X0001982779Y0000331581D01*
X0001984654Y0000329706D01*
X0001990278Y0000325956D01*
X0001997777Y0000324082D01*
X0002012775Y0000324082D01*
X0002016525Y0000325956D01*
X0002018400Y0000327831D01*
X0002020274Y0000331581D01*
X0002020274Y0000339080D01*
X0002018400Y0000342829D01*
X0002016525Y0000344704D01*
X0002012775Y0000346579D01*
X0002003401Y0000346579D01*
X0001999652Y0000344704D01*
X0001997777Y0000342829D01*
X0001995902Y0000339080D01*
X0001995902Y0000331581D01*
X0001997777Y0000327831D01*
X0001999652Y0000325956D01*
X0002003401Y0000324082D01*
X0002183953Y0001108945D02*
X0002183953Y0001090197D01*
X0002170829Y0001129567D02*
X0002183953Y0001108945D01*
X0002197076Y0001129567D01*
X0002230822Y0001090197D02*
X0002208325Y0001090197D01*
X0002219573Y0001090197D02*
X0002219573Y0001129567D01*
X0002215824Y0001123943D01*
X0002212074Y0001120193D01*
X0002208325Y0001118319D01*
G04 next file*
G04 Gerber Fmt 4.6, Leading zero omitted, Abs format (unit mm)*
G04 Created by KiCad (PCBNEW 4.0.7) date Thursday, 08 March 2018 'PMt' 14:48:31*
G01G01*
G04 APERTURE LIST*
G04 APERTURE END LIST*
D32*
D33*
X0001017496Y0002393908D02*
X0001017496Y0002366349D01*
X0000970252Y0002366349D02*
X0000970252Y0002393908D01*
X0000419582Y0001636716D02*
X0000419582Y0001836716D01*
X0000419582Y0001836716D02*
X0000319582Y0001836716D01*
X0000319582Y0001836716D02*
X0000319582Y0001636716D01*
X0000308559Y0001525692D02*
X0000308559Y0001586716D01*
X0000319582Y0001636716D02*
X0000419582Y0001636716D01*
X0000430606Y0001586716D02*
X0000430606Y0001525692D01*
X0000430606Y0001525692D02*
X0000308559Y0001525692D01*
X0000431000Y0002389669D02*
X0000470370Y0002389669D01*
X0000470370Y0002336519D02*
X0000431000Y0002336519D01*
X0000949189Y0002146703D02*
X0000988559Y0002146703D01*
X0000988559Y0002093553D02*
X0000949189Y0002093553D01*
X0000887299Y0002577943D02*
X0000887299Y0002617313D01*
X0000940448Y0002617313D02*
X0000940448Y0002577943D01*
X0000818559Y0002541053D02*
X0000779189Y0002541053D01*
X0000779189Y0002594203D02*
X0000818559Y0002594203D01*
X0000636689Y0002594203D02*
X0000676059Y0002594203D01*
X0000676059Y0002541053D02*
X0000636689Y0002541053D01*
D34*
X0000375488Y0002516637D02*
X0000375488Y0002445771D01*
X0000502259Y0002445771D02*
X0000502259Y0002542228D01*
D33*
X0000447771Y0002098330D02*
X0000565881Y0002098330D01*
X0000447771Y0002025496D02*
X0000565881Y0002025496D01*
X0000447771Y0002025496D02*
X0000447771Y0001953645D01*
X0000565881Y0002025496D02*
X0000565881Y0001953645D01*
X0000447771Y0001953645D02*
X0000322771Y0001953645D01*
X0000565881Y0001953645D02*
X0000690881Y0001953645D01*
X0000322771Y0001953645D02*
X0000322771Y0002087503D01*
X0000690881Y0001953645D02*
X0000690881Y0002087503D01*
X0000322771Y0002087503D02*
X0000447771Y0002087503D01*
X0000690881Y0002087503D02*
X0000565881Y0002087503D01*
X0000447771Y0002087503D02*
X0000447771Y0002098330D01*
X0000565881Y0002087503D02*
X0000565881Y0002098330D01*
X0001104228Y0002361519D02*
X0001104228Y0002422543D01*
X0001104228Y0002422543D02*
X0001226275Y0002422543D01*
X0001226275Y0002422543D02*
X0001226275Y0002361519D01*
X0001215251Y0002311519D02*
X0001215251Y0001911519D01*
X0001215251Y0001911519D02*
X0001115251Y0001911519D01*
X0001115251Y0001911519D02*
X0001115251Y0002311519D01*
X0001215251Y0002311519D02*
X0001115251Y0002311519D01*
X0001104228Y0002924118D02*
X0001104228Y0002985141D01*
X0001104228Y0002985141D02*
X0001226275Y0002985141D01*
X0001226275Y0002985141D02*
X0001226275Y0002924118D01*
X0001215251Y0002874118D02*
X0001215251Y0002474118D01*
X0001215251Y0002474118D02*
X0001115251Y0002474118D01*
X0001115251Y0002474118D02*
X0001115251Y0002874118D01*
X0001215251Y0002874118D02*
X0001115251Y0002874118D01*
D35*
X0000938874Y0002420128D02*
X0000938874Y0002270128D01*
X0000563874Y0002420128D02*
X0000563874Y0002370128D01*
X0000563874Y0002370128D02*
X0000588874Y0002345128D01*
X0000588874Y0002345128D02*
X0000563874Y0002320128D01*
X0000563874Y0002320128D02*
X0000563874Y0002270128D01*
D33*
X0000515251Y0002684354D02*
X0000515251Y0002723724D01*
X0000448322Y0002723724D02*
X0000448322Y0002684354D01*
X0001027338Y0002215443D02*
X0001027338Y0002254813D01*
X0000960409Y0002254813D02*
X0000960409Y0002215443D01*
X0000509346Y0002558370D02*
X0000548716Y0002558370D01*
X0000548716Y0002625299D02*
X0000509346Y0002625299D01*
X0000568401Y0002674511D02*
X0000595960Y0002674511D01*
X0000595960Y0002627267D02*
X0000568401Y0002627267D01*
D34*
X0000351078Y0002733566D02*
X0000351078Y0002780811D01*
X0000420370Y0002780811D02*
X0000420370Y0002733566D01*
D33*
X0000786905Y0002656795D02*
X0000814464Y0002656795D01*
X0000814464Y0002609551D02*
X0000786905Y0002609551D01*
X0000438480Y0002875299D02*
X0000466039Y0002875299D01*
X0000466039Y0002828055D02*
X0000438480Y0002828055D01*
X0000508362Y0002954039D02*
X0000508362Y0002914669D01*
X0000455212Y0002914669D02*
X0000455212Y0002954039D01*
D34*
X0000513834Y0002191204D02*
X0000513834Y0002321125D01*
X0000513834Y0002321125D02*
X0000356354Y0002321125D01*
D33*
X0001034655Y0002356270D02*
X0001032781Y0002358145D01*
X0001030906Y0002363769D01*
X0001030906Y0002367518D01*
X0001032781Y0002373143D01*
X0001036530Y0002376892D01*
X0001040280Y0002378767D01*
X0001047779Y0002380642D01*
X0001053403Y0002380642D01*
X0001060902Y0002378767D01*
X0001064652Y0002376892D01*
X0001068401Y0002373143D01*
X0001070276Y0002367518D01*
X0001070276Y0002363769D01*
X0001068401Y0002358145D01*
X0001066526Y0002356270D01*
X0001066526Y0002341272D02*
X0001068401Y0002339397D01*
X0001070276Y0002335647D01*
X0001070276Y0002326274D01*
X0001068401Y0002322524D01*
X0001066526Y0002320649D01*
X0001062777Y0002318775D01*
X0001059027Y0002318775D01*
X0001053403Y0002320649D01*
X0001030906Y0002343146D01*
X0001030906Y0002318775D01*
X0000382706Y0001491140D02*
X0000382706Y0001519262D01*
X0000384580Y0001524886D01*
X0000388330Y0001528636D01*
X0000393954Y0001530511D01*
X0000397704Y0001530511D01*
X0000347085Y0001491140D02*
X0000354584Y0001491140D01*
X0000358334Y0001493015D01*
X0000360208Y0001494890D01*
X0000363958Y0001500514D01*
X0000365833Y0001508013D01*
X0000365833Y0001523012D01*
X0000363958Y0001526761D01*
X0000362083Y0001528636D01*
X0000358334Y0001530511D01*
X0000350835Y0001530511D01*
X0000347085Y0001528636D01*
X0000345210Y0001526761D01*
X0000343335Y0001523012D01*
X0000343335Y0001513638D01*
X0000345210Y0001509888D01*
X0000347085Y0001508013D01*
X0000350835Y0001506139D01*
X0000358334Y0001506139D01*
X0000362083Y0001508013D01*
X0000363958Y0001509888D01*
X0000365833Y0001513638D01*
X0000457246Y0002306101D02*
X0000470370Y0002287353D01*
X0000479743Y0002306101D02*
X0000479743Y0002266731D01*
X0000464745Y0002266731D01*
X0000460996Y0002268606D01*
X0000459121Y0002270481D01*
X0000457246Y0002274230D01*
X0000457246Y0002279854D01*
X0000459121Y0002283604D01*
X0000460996Y0002285479D01*
X0000464745Y0002287353D01*
X0000479743Y0002287353D01*
X0000421626Y0002266731D02*
X0000440373Y0002266731D01*
X0000442248Y0002285479D01*
X0000440373Y0002283604D01*
X0000436624Y0002281729D01*
X0000427250Y0002281729D01*
X0000423500Y0002283604D01*
X0000421626Y0002285479D01*
X0000419751Y0002289228D01*
X0000419751Y0002298602D01*
X0000421626Y0002302352D01*
X0000423500Y0002304226D01*
X0000427250Y0002306101D01*
X0000436624Y0002306101D01*
X0000440373Y0002304226D01*
X0000442248Y0002302352D01*
X0000984412Y0002084054D02*
X0000997535Y0002065306D01*
X0001006909Y0002084054D02*
X0001006909Y0002044684D01*
X0000991911Y0002044684D01*
X0000988161Y0002046559D01*
X0000986286Y0002048433D01*
X0000984412Y0002052183D01*
X0000984412Y0002057807D01*
X0000986286Y0002061557D01*
X0000988161Y0002063431D01*
X0000991911Y0002065306D01*
X0001006909Y0002065306D01*
X0000950666Y0002057807D02*
X0000950666Y0002084054D01*
X0000960040Y0002042809D02*
X0000969413Y0002070931D01*
X0000945041Y0002070931D01*
X0000970866Y0002604190D02*
X0000989614Y0002617313D01*
X0000970866Y0002626687D02*
X0001010237Y0002626687D01*
X0001010237Y0002611689D01*
X0001008362Y0002607939D01*
X0001006487Y0002606065D01*
X0001002737Y0002604190D01*
X0000997113Y0002604190D01*
X0000993364Y0002606065D01*
X0000991489Y0002607939D01*
X0000989614Y0002611689D01*
X0000989614Y0002626687D01*
X0001010237Y0002591066D02*
X0001010237Y0002566695D01*
X0000995238Y0002579818D01*
X0000995238Y0002574194D01*
X0000993364Y0002570444D01*
X0000991489Y0002568569D01*
X0000987739Y0002566695D01*
X0000978366Y0002566695D01*
X0000974616Y0002568569D01*
X0000972741Y0002570444D01*
X0000970866Y0002574194D01*
X0000970866Y0002585442D01*
X0000972741Y0002589192D01*
X0000974616Y0002591066D01*
X0000805435Y0002660242D02*
X0000818559Y0002641494D01*
X0000827932Y0002660242D02*
X0000827932Y0002620872D01*
X0000812934Y0002620872D01*
X0000809185Y0002622746D01*
X0000807310Y0002624621D01*
X0000805435Y0002628371D01*
X0000805435Y0002633995D01*
X0000807310Y0002637744D01*
X0000809185Y0002639619D01*
X0000812934Y0002641494D01*
X0000827932Y0002641494D01*
X0000790437Y0002624621D02*
X0000788562Y0002622746D01*
X0000784813Y0002620872D01*
X0000775439Y0002620872D01*
X0000771689Y0002622746D01*
X0000769815Y0002624621D01*
X0000767940Y0002628371D01*
X0000767940Y0002632120D01*
X0000769815Y0002637744D01*
X0000792312Y0002660242D01*
X0000767940Y0002660242D01*
X0000695041Y0002650983D02*
X0000708165Y0002632235D01*
X0000717539Y0002650983D02*
X0000717539Y0002611613D01*
X0000702541Y0002611613D01*
X0000698791Y0002613488D01*
X0000696916Y0002615362D01*
X0000695041Y0002619112D01*
X0000695041Y0002624736D01*
X0000696916Y0002628486D01*
X0000698791Y0002630361D01*
X0000702541Y0002632235D01*
X0000717539Y0002632235D01*
X0000657546Y0002650983D02*
X0000680043Y0002650983D01*
X0000668795Y0002650983D02*
X0000668795Y0002611613D01*
X0000672544Y0002617237D01*
X0000676294Y0002620987D01*
X0000680043Y0002622862D01*
X0000361614Y0002515531D02*
X0000329743Y0002515531D01*
X0000325994Y0002513656D01*
X0000324119Y0002511782D01*
X0000322244Y0002508032D01*
X0000322244Y0002500533D01*
X0000324119Y0002496783D01*
X0000325994Y0002494909D01*
X0000329743Y0002493034D01*
X0000361614Y0002493034D01*
X0000357865Y0002476161D02*
X0000359740Y0002474286D01*
X0000361614Y0002470537D01*
X0000361614Y0002461163D01*
X0000359740Y0002457413D01*
X0000357865Y0002455539D01*
X0000354115Y0002453664D01*
X0000350366Y0002453664D01*
X0000344742Y0002455539D01*
X0000322244Y0002478036D01*
X0000322244Y0002453664D01*
X0000514149Y0001896829D02*
X0000514149Y0001930574D01*
X0000516399Y0001937323D01*
X0000520898Y0001941823D01*
X0000527647Y0001944073D01*
X0000532147Y0001944073D01*
X0000469155Y0001896829D02*
X0000491652Y0001896829D01*
X0000493902Y0001919326D01*
X0000491652Y0001917076D01*
X0000487152Y0001914826D01*
X0000475904Y0001914826D01*
X0000471404Y0001917076D01*
X0000469155Y0001919326D01*
X0000466905Y0001923825D01*
X0000466905Y0001935074D01*
X0000469155Y0001939573D01*
X0000471404Y0001941823D01*
X0000475904Y0001944073D01*
X0000487152Y0001944073D01*
X0000491652Y0001941823D01*
X0000493902Y0001939573D01*
X0001093898Y0002451414D02*
X0001065776Y0002451414D01*
X0001060152Y0002453289D01*
X0001056403Y0002457039D01*
X0001054528Y0002462663D01*
X0001054528Y0002466412D01*
X0001093898Y0002436416D02*
X0001093898Y0002412044D01*
X0001078900Y0002425167D01*
X0001078900Y0002419543D01*
X0001077025Y0002415794D01*
X0001075150Y0002413919D01*
X0001071401Y0002412044D01*
X0001062027Y0002412044D01*
X0001058277Y0002413919D01*
X0001056403Y0002415794D01*
X0001054528Y0002419543D01*
X0001054528Y0002430792D01*
X0001056403Y0002434541D01*
X0001058277Y0002436416D01*
X0001099803Y0002977005D02*
X0001071682Y0002977005D01*
X0001066058Y0002978880D01*
X0001062308Y0002982629D01*
X0001060433Y0002988253D01*
X0001060433Y0002992003D01*
X0001096054Y0002960132D02*
X0001097929Y0002958257D01*
X0001099803Y0002954508D01*
X0001099803Y0002945134D01*
X0001097929Y0002941384D01*
X0001096054Y0002939509D01*
X0001092304Y0002937635D01*
X0001088555Y0002937635D01*
X0001082931Y0002939509D01*
X0001060433Y0002962007D01*
X0001060433Y0002937635D01*
X0000711524Y0002701140D02*
X0000711524Y0002729262D01*
X0000713399Y0002734886D01*
X0000717149Y0002738636D01*
X0000722773Y0002740511D01*
X0000726523Y0002740511D01*
X0000672154Y0002740511D02*
X0000694652Y0002740511D01*
X0000683403Y0002740511D02*
X0000683403Y0002701140D01*
X0000687152Y0002706765D01*
X0000690902Y0002710514D01*
X0000694652Y0002712389D01*
X0000580118Y0002161200D02*
X0000548247Y0002161200D01*
X0000544498Y0002159326D01*
X0000542623Y0002157451D01*
X0000540748Y0002153701D01*
X0000540748Y0002146202D01*
X0000542623Y0002142453D01*
X0000544498Y0002140578D01*
X0000548247Y0002138703D01*
X0000580118Y0002138703D01*
X0000540748Y0002099333D02*
X0000540748Y0002121830D01*
X0000540748Y0002110582D02*
X0000580118Y0002110582D01*
X0000574494Y0002114331D01*
X0000570745Y0002118081D01*
X0000568870Y0002121830D01*
X0000396860Y0002657451D02*
X0000394985Y0002659326D01*
X0000393110Y0002664950D01*
X0000393110Y0002668700D01*
X0000394985Y0002674324D01*
X0000398735Y0002678073D01*
X0000402484Y0002679948D01*
X0000409983Y0002681823D01*
X0000415608Y0002681823D01*
X0000423107Y0002679948D01*
X0000426856Y0002678073D01*
X0000430606Y0002674324D01*
X0000432481Y0002668700D01*
X0000432481Y0002664950D01*
X0000430606Y0002659326D01*
X0000428731Y0002657451D01*
X0000393110Y0002619956D02*
X0000393110Y0002642453D01*
X0000393110Y0002631204D02*
X0000432481Y0002631204D01*
X0000426856Y0002634954D01*
X0000423107Y0002638703D01*
X0000421232Y0002642453D01*
X0001040561Y0002241690D02*
X0001038686Y0002243565D01*
X0001036811Y0002249189D01*
X0001036811Y0002252938D01*
X0001038686Y0002258563D01*
X0001042436Y0002262312D01*
X0001046185Y0002264187D01*
X0001053684Y0002266062D01*
X0001059308Y0002266062D01*
X0001066808Y0002264187D01*
X0001070557Y0002262312D01*
X0001074307Y0002258563D01*
X0001076181Y0002252938D01*
X0001076181Y0002249189D01*
X0001074307Y0002243565D01*
X0001072432Y0002241690D01*
X0001076181Y0002228566D02*
X0001076181Y0002204195D01*
X0001061183Y0002217318D01*
X0001061183Y0002211694D01*
X0001059308Y0002207944D01*
X0001057434Y0002206069D01*
X0001053684Y0002204195D01*
X0001044310Y0002204195D01*
X0001040561Y0002206069D01*
X0001038686Y0002207944D01*
X0001036811Y0002211694D01*
X0001036811Y0002222942D01*
X0001038686Y0002226692D01*
X0001040561Y0002228566D01*
X0000553309Y0002540934D02*
X0000555184Y0002542809D01*
X0000560808Y0002544684D01*
X0000564558Y0002544684D01*
X0000570182Y0002542809D01*
X0000573932Y0002539060D01*
X0000575806Y0002535310D01*
X0000577681Y0002527811D01*
X0000577681Y0002522187D01*
X0000575806Y0002514688D01*
X0000573932Y0002510938D01*
X0000570182Y0002507188D01*
X0000564558Y0002505314D01*
X0000560808Y0002505314D01*
X0000555184Y0002507188D01*
X0000553309Y0002509063D01*
X0000519563Y0002518437D02*
X0000519563Y0002544684D01*
X0000528937Y0002503439D02*
X0000538311Y0002531560D01*
X0000513939Y0002531560D01*
X0000594648Y0002718100D02*
X0000596523Y0002719974D01*
X0000602147Y0002721849D01*
X0000605896Y0002721849D01*
X0000611521Y0002719974D01*
X0000615270Y0002716225D01*
X0000617145Y0002712475D01*
X0000619020Y0002704976D01*
X0000619020Y0002699352D01*
X0000617145Y0002691853D01*
X0000615270Y0002688103D01*
X0000611521Y0002684354D01*
X0000605896Y0002682479D01*
X0000602147Y0002682479D01*
X0000596523Y0002684354D01*
X0000594648Y0002686229D01*
X0000560902Y0002682479D02*
X0000568401Y0002682479D01*
X0000572151Y0002684354D01*
X0000574025Y0002686229D01*
X0000577775Y0002691853D01*
X0000579650Y0002699352D01*
X0000579650Y0002714350D01*
X0000577775Y0002718100D01*
X0000575900Y0002719974D01*
X0000572151Y0002721849D01*
X0000564652Y0002721849D01*
X0000560902Y0002719974D01*
X0000559027Y0002718100D01*
X0000557152Y0002714350D01*
X0000557152Y0002704976D01*
X0000559027Y0002701227D01*
X0000560902Y0002699352D01*
X0000564652Y0002697477D01*
X0000572151Y0002697477D01*
X0000575900Y0002699352D01*
X0000577775Y0002701227D01*
X0000579650Y0002704976D01*
X0000304528Y0002763750D02*
X0000304528Y0002782498D01*
X0000343898Y0002782498D01*
X0000304528Y0002730004D02*
X0000304528Y0002752502D01*
X0000304528Y0002741253D02*
X0000343898Y0002741253D01*
X0000338274Y0002745002D01*
X0000334524Y0002748752D01*
X0000332649Y0002752502D01*
X0000807246Y0002722037D02*
X0000809121Y0002723911D01*
X0000814745Y0002725786D01*
X0000818495Y0002725786D01*
X0000824119Y0002723911D01*
X0000827869Y0002720162D01*
X0000829743Y0002716412D01*
X0000831618Y0002708913D01*
X0000831618Y0002703289D01*
X0000829743Y0002695790D01*
X0000827869Y0002692040D01*
X0000824119Y0002688291D01*
X0000818495Y0002686416D01*
X0000814745Y0002686416D01*
X0000809121Y0002688291D01*
X0000807246Y0002690166D01*
X0000771626Y0002686416D02*
X0000790373Y0002686416D01*
X0000792248Y0002705164D01*
X0000790373Y0002703289D01*
X0000786624Y0002701414D01*
X0000777250Y0002701414D01*
X0000773500Y0002703289D01*
X0000771626Y0002705164D01*
X0000769751Y0002708913D01*
X0000769751Y0002718287D01*
X0000771626Y0002722037D01*
X0000773500Y0002723911D01*
X0000777250Y0002725786D01*
X0000786624Y0002725786D01*
X0000790373Y0002723911D01*
X0000792248Y0002722037D01*
X0000871738Y0001997440D02*
X0000862364Y0002036810D01*
X0000854865Y0002008688D01*
X0000847366Y0002036810D01*
X0000837992Y0001997440D01*
X0000802372Y0002036810D02*
X0000824869Y0002036810D01*
X0000813620Y0002036810D02*
X0000813620Y0001997440D01*
X0000817370Y0002003064D01*
X0000821120Y0002006814D01*
X0000824869Y0002008688D01*
X0000966226Y0001997440D02*
X0000956853Y0002036810D01*
X0000949353Y0002008688D01*
X0000941854Y0002036810D01*
X0000932481Y0001997440D01*
X0000919357Y0002001189D02*
X0000917482Y0001999314D01*
X0000913733Y0001997440D01*
X0000904359Y0001997440D01*
X0000900610Y0001999314D01*
X0000898735Y0002001189D01*
X0000896860Y0002004939D01*
X0000896860Y0002008688D01*
X0000898735Y0002014313D01*
X0000921232Y0002036810D01*
X0000896860Y0002036810D01*
X0000352522Y0002865737D02*
X0000354397Y0002867612D01*
X0000360021Y0002869487D01*
X0000363770Y0002869487D01*
X0000369395Y0002867612D01*
X0000373144Y0002863863D01*
X0000375019Y0002860113D01*
X0000376894Y0002852614D01*
X0000376894Y0002846990D01*
X0000375019Y0002839491D01*
X0000373144Y0002835741D01*
X0000369395Y0002831992D01*
X0000363770Y0002830117D01*
X0000360021Y0002830117D01*
X0000354397Y0002831992D01*
X0000352522Y0002833866D01*
X0000339398Y0002830117D02*
X0000313152Y0002830117D01*
X0000330025Y0002869487D01*
X0000617520Y0002958632D02*
X0000636268Y0002971755D01*
X0000617520Y0002981129D02*
X0000656890Y0002981129D01*
X0000656890Y0002966131D01*
X0000655015Y0002962382D01*
X0000653140Y0002960507D01*
X0000649391Y0002958632D01*
X0000643767Y0002958632D01*
X0000640017Y0002960507D01*
X0000638142Y0002962382D01*
X0000636268Y0002966131D01*
X0000636268Y0002981129D01*
X0000656890Y0002924886D02*
X0000656890Y0002932385D01*
X0000655015Y0002936135D01*
X0000653140Y0002938010D01*
X0000647516Y0002941759D01*
X0000640017Y0002943634D01*
X0000625019Y0002943634D01*
X0000621269Y0002941759D01*
X0000619395Y0002939884D01*
X0000617520Y0002936135D01*
X0000617520Y0002928636D01*
X0000619395Y0002924886D01*
X0000621269Y0002923011D01*
X0000625019Y0002921137D01*
X0000634393Y0002921137D01*
X0000638142Y0002923011D01*
X0000640017Y0002924886D01*
X0000641892Y0002928636D01*
X0000641892Y0002936135D01*
X0000640017Y0002939884D01*
X0000638142Y0002941759D01*
X0000634393Y0002943634D01*
X0000453842Y0002158771D02*
X0000453842Y0002177518D01*
X0000466965Y0002138148D02*
X0000453842Y0002158771D01*
X0000440718Y0002138148D01*
X0000406972Y0002177518D02*
X0000429470Y0002177518D01*
X0000418221Y0002177518D02*
X0000418221Y0002138148D01*
X0000421971Y0002143773D01*
X0000425720Y0002147522D01*
X0000429470Y0002149397D01*
G04 next file*
G04 Gerber Fmt 4.6, Leading zero omitted, Abs format (unit mm)*
G04 Created by KiCad (PCBNEW 4.0.7) date Thursday, 08 March 2018 'PMt' 14:48:31*
G01G01*
G04 APERTURE LIST*
G04 APERTURE END LIST*
D36*
D37*
X0003143480Y0002393908D02*
X0003143480Y0002366349D01*
X0003096236Y0002366349D02*
X0003096236Y0002393908D01*
X0002545566Y0001636716D02*
X0002545566Y0001836716D01*
X0002545566Y0001836716D02*
X0002445566Y0001836716D01*
X0002445566Y0001836716D02*
X0002445566Y0001636716D01*
X0002434543Y0001525692D02*
X0002434543Y0001586716D01*
X0002445566Y0001636716D02*
X0002545566Y0001636716D01*
X0002556590Y0001586716D02*
X0002556590Y0001525692D01*
X0002556590Y0001525692D02*
X0002434543Y0001525692D01*
X0002556984Y0002389669D02*
X0002596354Y0002389669D01*
X0002596354Y0002336519D02*
X0002556984Y0002336519D01*
X0003075173Y0002146703D02*
X0003114543Y0002146703D01*
X0003114543Y0002093553D02*
X0003075173Y0002093553D01*
X0003013283Y0002577943D02*
X0003013283Y0002617313D01*
X0003066433Y0002617313D02*
X0003066433Y0002577943D01*
X0002944543Y0002541053D02*
X0002905173Y0002541053D01*
X0002905173Y0002594203D02*
X0002944543Y0002594203D01*
X0002762673Y0002594203D02*
X0002802043Y0002594203D01*
X0002802043Y0002541053D02*
X0002762673Y0002541053D01*
D38*
X0002501472Y0002516637D02*
X0002501472Y0002445771D01*
X0002628244Y0002445771D02*
X0002628244Y0002542228D01*
D37*
X0002573755Y0002098330D02*
X0002691866Y0002098330D01*
X0002573755Y0002025496D02*
X0002691866Y0002025496D01*
X0002573755Y0002025496D02*
X0002573755Y0001953645D01*
X0002691866Y0002025496D02*
X0002691866Y0001953645D01*
X0002573755Y0001953645D02*
X0002448755Y0001953645D01*
X0002691866Y0001953645D02*
X0002816866Y0001953645D01*
X0002448755Y0001953645D02*
X0002448755Y0002087503D01*
X0002816866Y0001953645D02*
X0002816866Y0002087503D01*
X0002448755Y0002087503D02*
X0002573755Y0002087503D01*
X0002816866Y0002087503D02*
X0002691866Y0002087503D01*
X0002573755Y0002087503D02*
X0002573755Y0002098330D01*
X0002691866Y0002087503D02*
X0002691866Y0002098330D01*
X0003230212Y0002361519D02*
X0003230212Y0002422543D01*
X0003230212Y0002422543D02*
X0003352259Y0002422543D01*
X0003352259Y0002422543D02*
X0003352259Y0002361519D01*
X0003341236Y0002311519D02*
X0003341236Y0001911519D01*
X0003341236Y0001911519D02*
X0003241236Y0001911519D01*
X0003241236Y0001911519D02*
X0003241236Y0002311519D01*
X0003341236Y0002311519D02*
X0003241236Y0002311519D01*
X0003230212Y0002924118D02*
X0003230212Y0002985141D01*
X0003230212Y0002985141D02*
X0003352259Y0002985141D01*
X0003352259Y0002985141D02*
X0003352259Y0002924118D01*
X0003341236Y0002874118D02*
X0003341236Y0002474118D01*
X0003341236Y0002474118D02*
X0003241236Y0002474118D01*
X0003241236Y0002474118D02*
X0003241236Y0002874118D01*
X0003341236Y0002874118D02*
X0003241236Y0002874118D01*
D39*
X0003064858Y0002420128D02*
X0003064858Y0002270128D01*
X0002689858Y0002420128D02*
X0002689858Y0002370128D01*
X0002689858Y0002370128D02*
X0002714858Y0002345128D01*
X0002714858Y0002345128D02*
X0002689858Y0002320128D01*
X0002689858Y0002320128D02*
X0002689858Y0002270128D01*
D37*
X0002641236Y0002684354D02*
X0002641236Y0002723724D01*
X0002574307Y0002723724D02*
X0002574307Y0002684354D01*
X0003153322Y0002215443D02*
X0003153322Y0002254813D01*
X0003086393Y0002254813D02*
X0003086393Y0002215443D01*
X0002635330Y0002558370D02*
X0002674700Y0002558370D01*
X0002674700Y0002625299D02*
X0002635330Y0002625299D01*
X0002694385Y0002674511D02*
X0002721944Y0002674511D01*
X0002721944Y0002627267D02*
X0002694385Y0002627267D01*
D38*
X0002477062Y0002733566D02*
X0002477062Y0002780811D01*
X0002546354Y0002780811D02*
X0002546354Y0002733566D01*
D37*
X0002912889Y0002656795D02*
X0002940448Y0002656795D01*
X0002940448Y0002609551D02*
X0002912889Y0002609551D01*
X0002564464Y0002875299D02*
X0002592023Y0002875299D01*
X0002592023Y0002828055D02*
X0002564464Y0002828055D01*
X0002634346Y0002954039D02*
X0002634346Y0002914669D01*
X0002581196Y0002914669D02*
X0002581196Y0002954039D01*
D38*
X0002639818Y0002191204D02*
X0002639818Y0002321125D01*
X0002639818Y0002321125D02*
X0002482338Y0002321125D01*
D37*
X0003160640Y0002356270D02*
X0003158765Y0002358145D01*
X0003156890Y0002363769D01*
X0003156890Y0002367518D01*
X0003158765Y0002373143D01*
X0003162514Y0002376892D01*
X0003166264Y0002378767D01*
X0003173763Y0002380642D01*
X0003179387Y0002380642D01*
X0003186886Y0002378767D01*
X0003190636Y0002376892D01*
X0003194385Y0002373143D01*
X0003196260Y0002367518D01*
X0003196260Y0002363769D01*
X0003194385Y0002358145D01*
X0003192511Y0002356270D01*
X0003192511Y0002341272D02*
X0003194385Y0002339397D01*
X0003196260Y0002335647D01*
X0003196260Y0002326274D01*
X0003194385Y0002322524D01*
X0003192511Y0002320649D01*
X0003188761Y0002318775D01*
X0003185012Y0002318775D01*
X0003179387Y0002320649D01*
X0003156890Y0002343146D01*
X0003156890Y0002318775D01*
X0002508690Y0001491140D02*
X0002508690Y0001519262D01*
X0002510565Y0001524886D01*
X0002514314Y0001528636D01*
X0002519938Y0001530511D01*
X0002523688Y0001530511D01*
X0002473069Y0001491140D02*
X0002480568Y0001491140D01*
X0002484318Y0001493015D01*
X0002486193Y0001494890D01*
X0002489942Y0001500514D01*
X0002491817Y0001508013D01*
X0002491817Y0001523012D01*
X0002489942Y0001526761D01*
X0002488067Y0001528636D01*
X0002484318Y0001530511D01*
X0002476819Y0001530511D01*
X0002473069Y0001528636D01*
X0002471194Y0001526761D01*
X0002469320Y0001523012D01*
X0002469320Y0001513638D01*
X0002471194Y0001509888D01*
X0002473069Y0001508013D01*
X0002476819Y0001506139D01*
X0002484318Y0001506139D01*
X0002488067Y0001508013D01*
X0002489942Y0001509888D01*
X0002491817Y0001513638D01*
X0002583230Y0002306101D02*
X0002596354Y0002287353D01*
X0002605728Y0002306101D02*
X0002605728Y0002266731D01*
X0002590730Y0002266731D01*
X0002586980Y0002268606D01*
X0002585105Y0002270481D01*
X0002583230Y0002274230D01*
X0002583230Y0002279854D01*
X0002585105Y0002283604D01*
X0002586980Y0002285479D01*
X0002590730Y0002287353D01*
X0002605728Y0002287353D01*
X0002547610Y0002266731D02*
X0002566358Y0002266731D01*
X0002568232Y0002285479D01*
X0002566358Y0002283604D01*
X0002562608Y0002281729D01*
X0002553234Y0002281729D01*
X0002549485Y0002283604D01*
X0002547610Y0002285479D01*
X0002545735Y0002289228D01*
X0002545735Y0002298602D01*
X0002547610Y0002302352D01*
X0002549485Y0002304226D01*
X0002553234Y0002306101D01*
X0002562608Y0002306101D01*
X0002566358Y0002304226D01*
X0002568232Y0002302352D01*
X0003110396Y0002084054D02*
X0003123519Y0002065306D01*
X0003132893Y0002084054D02*
X0003132893Y0002044684D01*
X0003117895Y0002044684D01*
X0003114145Y0002046559D01*
X0003112271Y0002048433D01*
X0003110396Y0002052183D01*
X0003110396Y0002057807D01*
X0003112271Y0002061557D01*
X0003114145Y0002063431D01*
X0003117895Y0002065306D01*
X0003132893Y0002065306D01*
X0003076650Y0002057807D02*
X0003076650Y0002084054D01*
X0003086024Y0002042809D02*
X0003095398Y0002070931D01*
X0003071026Y0002070931D01*
X0003096851Y0002604190D02*
X0003115598Y0002617313D01*
X0003096851Y0002626687D02*
X0003136221Y0002626687D01*
X0003136221Y0002611689D01*
X0003134346Y0002607939D01*
X0003132471Y0002606065D01*
X0003128722Y0002604190D01*
X0003123097Y0002604190D01*
X0003119348Y0002606065D01*
X0003117473Y0002607939D01*
X0003115598Y0002611689D01*
X0003115598Y0002626687D01*
X0003136221Y0002591066D02*
X0003136221Y0002566695D01*
X0003121223Y0002579818D01*
X0003121223Y0002574194D01*
X0003119348Y0002570444D01*
X0003117473Y0002568569D01*
X0003113724Y0002566695D01*
X0003104350Y0002566695D01*
X0003100600Y0002568569D01*
X0003098725Y0002570444D01*
X0003096851Y0002574194D01*
X0003096851Y0002585442D01*
X0003098725Y0002589192D01*
X0003100600Y0002591066D01*
X0002931420Y0002660242D02*
X0002944543Y0002641494D01*
X0002953917Y0002660242D02*
X0002953917Y0002620872D01*
X0002938919Y0002620872D01*
X0002935169Y0002622746D01*
X0002933294Y0002624621D01*
X0002931420Y0002628371D01*
X0002931420Y0002633995D01*
X0002933294Y0002637744D01*
X0002935169Y0002639619D01*
X0002938919Y0002641494D01*
X0002953917Y0002641494D01*
X0002916421Y0002624621D02*
X0002914547Y0002622746D01*
X0002910797Y0002620872D01*
X0002901423Y0002620872D01*
X0002897674Y0002622746D01*
X0002895799Y0002624621D01*
X0002893924Y0002628371D01*
X0002893924Y0002632120D01*
X0002895799Y0002637744D01*
X0002918296Y0002660242D01*
X0002893924Y0002660242D01*
X0002821026Y0002650983D02*
X0002834149Y0002632235D01*
X0002843523Y0002650983D02*
X0002843523Y0002611613D01*
X0002828525Y0002611613D01*
X0002824775Y0002613488D01*
X0002822900Y0002615362D01*
X0002821026Y0002619112D01*
X0002821026Y0002624736D01*
X0002822900Y0002628486D01*
X0002824775Y0002630361D01*
X0002828525Y0002632235D01*
X0002843523Y0002632235D01*
X0002783530Y0002650983D02*
X0002806028Y0002650983D01*
X0002794779Y0002650983D02*
X0002794779Y0002611613D01*
X0002798529Y0002617237D01*
X0002802278Y0002620987D01*
X0002806028Y0002622862D01*
X0002487599Y0002515531D02*
X0002455728Y0002515531D01*
X0002451978Y0002513656D01*
X0002450103Y0002511782D01*
X0002448229Y0002508032D01*
X0002448229Y0002500533D01*
X0002450103Y0002496784D01*
X0002451978Y0002494909D01*
X0002455728Y0002493034D01*
X0002487599Y0002493034D01*
X0002483849Y0002476161D02*
X0002485724Y0002474286D01*
X0002487599Y0002470537D01*
X0002487599Y0002461163D01*
X0002485724Y0002457413D01*
X0002483849Y0002455539D01*
X0002480100Y0002453664D01*
X0002476350Y0002453664D01*
X0002470726Y0002455539D01*
X0002448229Y0002478036D01*
X0002448229Y0002453664D01*
X0002640133Y0001896829D02*
X0002640133Y0001930574D01*
X0002642383Y0001937323D01*
X0002646882Y0001941823D01*
X0002653632Y0001944073D01*
X0002658131Y0001944073D01*
X0002595139Y0001896829D02*
X0002617636Y0001896829D01*
X0002619886Y0001919326D01*
X0002617636Y0001917076D01*
X0002613137Y0001914826D01*
X0002601888Y0001914826D01*
X0002597389Y0001917076D01*
X0002595139Y0001919326D01*
X0002592889Y0001923825D01*
X0002592889Y0001935074D01*
X0002595139Y0001939573D01*
X0002597389Y0001941823D01*
X0002601888Y0001944073D01*
X0002613137Y0001944073D01*
X0002617636Y0001941823D01*
X0002619886Y0001939573D01*
X0003219882Y0002451414D02*
X0003191761Y0002451414D01*
X0003186136Y0002453289D01*
X0003182387Y0002457039D01*
X0003180512Y0002462663D01*
X0003180512Y0002466412D01*
X0003219882Y0002436416D02*
X0003219882Y0002412044D01*
X0003204884Y0002425167D01*
X0003204884Y0002419543D01*
X0003203009Y0002415794D01*
X0003201135Y0002413919D01*
X0003197385Y0002412044D01*
X0003188011Y0002412044D01*
X0003184262Y0002413919D01*
X0003182387Y0002415794D01*
X0003180512Y0002419543D01*
X0003180512Y0002430792D01*
X0003182387Y0002434541D01*
X0003184262Y0002436416D01*
X0003225788Y0002977005D02*
X0003197666Y0002977005D01*
X0003192042Y0002978880D01*
X0003188292Y0002982629D01*
X0003186418Y0002988253D01*
X0003186418Y0002992003D01*
X0003222038Y0002960132D02*
X0003223913Y0002958257D01*
X0003225788Y0002954508D01*
X0003225788Y0002945134D01*
X0003223913Y0002941384D01*
X0003222038Y0002939509D01*
X0003218289Y0002937635D01*
X0003214539Y0002937635D01*
X0003208915Y0002939509D01*
X0003186418Y0002962007D01*
X0003186418Y0002937635D01*
X0002837509Y0002701140D02*
X0002837509Y0002729262D01*
X0002839383Y0002734886D01*
X0002843133Y0002738636D01*
X0002848757Y0002740511D01*
X0002852507Y0002740511D01*
X0002798139Y0002740511D02*
X0002820636Y0002740511D01*
X0002809387Y0002740511D02*
X0002809387Y0002701140D01*
X0002813137Y0002706765D01*
X0002816886Y0002710514D01*
X0002820636Y0002712389D01*
X0002706103Y0002161200D02*
X0002674232Y0002161200D01*
X0002670482Y0002159326D01*
X0002668607Y0002157451D01*
X0002666733Y0002153701D01*
X0002666733Y0002146202D01*
X0002668607Y0002142453D01*
X0002670482Y0002140578D01*
X0002674232Y0002138703D01*
X0002706103Y0002138703D01*
X0002666733Y0002099333D02*
X0002666733Y0002121830D01*
X0002666733Y0002110582D02*
X0002706103Y0002110582D01*
X0002700478Y0002114331D01*
X0002696729Y0002118081D01*
X0002694854Y0002121830D01*
X0002522844Y0002657451D02*
X0002520970Y0002659326D01*
X0002519095Y0002664950D01*
X0002519095Y0002668700D01*
X0002520970Y0002674324D01*
X0002524719Y0002678073D01*
X0002528469Y0002679948D01*
X0002535968Y0002681823D01*
X0002541592Y0002681823D01*
X0002549091Y0002679948D01*
X0002552841Y0002678073D01*
X0002556590Y0002674324D01*
X0002558465Y0002668700D01*
X0002558465Y0002664950D01*
X0002556590Y0002659326D01*
X0002554715Y0002657451D01*
X0002519095Y0002619956D02*
X0002519095Y0002642453D01*
X0002519095Y0002631204D02*
X0002558465Y0002631204D01*
X0002552841Y0002634954D01*
X0002549091Y0002638703D01*
X0002547216Y0002642453D01*
X0003166545Y0002241690D02*
X0003164670Y0002243565D01*
X0003162796Y0002249189D01*
X0003162796Y0002252938D01*
X0003164670Y0002258563D01*
X0003168420Y0002262312D01*
X0003172169Y0002264187D01*
X0003179668Y0002266062D01*
X0003185293Y0002266062D01*
X0003192792Y0002264187D01*
X0003196541Y0002262312D01*
X0003200291Y0002258563D01*
X0003202166Y0002252938D01*
X0003202166Y0002249189D01*
X0003200291Y0002243565D01*
X0003198416Y0002241690D01*
X0003202166Y0002228566D02*
X0003202166Y0002204195D01*
X0003187167Y0002217318D01*
X0003187167Y0002211694D01*
X0003185293Y0002207944D01*
X0003183418Y0002206069D01*
X0003179668Y0002204195D01*
X0003170295Y0002204195D01*
X0003166545Y0002206069D01*
X0003164670Y0002207944D01*
X0003162796Y0002211694D01*
X0003162796Y0002222942D01*
X0003164670Y0002226692D01*
X0003166545Y0002228566D01*
X0002679293Y0002540934D02*
X0002681168Y0002542809D01*
X0002686792Y0002544684D01*
X0002690542Y0002544684D01*
X0002696166Y0002542809D01*
X0002699916Y0002539060D01*
X0002701791Y0002535310D01*
X0002703665Y0002527811D01*
X0002703665Y0002522187D01*
X0002701791Y0002514688D01*
X0002699916Y0002510938D01*
X0002696166Y0002507188D01*
X0002690542Y0002505314D01*
X0002686792Y0002505314D01*
X0002681168Y0002507188D01*
X0002679293Y0002509063D01*
X0002645548Y0002518437D02*
X0002645548Y0002544684D01*
X0002654922Y0002503439D02*
X0002664295Y0002531560D01*
X0002639923Y0002531560D01*
X0002720632Y0002718100D02*
X0002722507Y0002719974D01*
X0002728131Y0002721849D01*
X0002731881Y0002721849D01*
X0002737505Y0002719974D01*
X0002741254Y0002716225D01*
X0002743129Y0002712475D01*
X0002745004Y0002704976D01*
X0002745004Y0002699352D01*
X0002743129Y0002691853D01*
X0002741254Y0002688103D01*
X0002737505Y0002684354D01*
X0002731881Y0002682479D01*
X0002728131Y0002682479D01*
X0002722507Y0002684354D01*
X0002720632Y0002686229D01*
X0002686886Y0002682479D02*
X0002694385Y0002682479D01*
X0002698135Y0002684354D01*
X0002700010Y0002686229D01*
X0002703759Y0002691853D01*
X0002705634Y0002699352D01*
X0002705634Y0002714350D01*
X0002703759Y0002718100D01*
X0002701884Y0002719974D01*
X0002698135Y0002721849D01*
X0002690636Y0002721849D01*
X0002686886Y0002719974D01*
X0002685011Y0002718100D01*
X0002683137Y0002714350D01*
X0002683137Y0002704976D01*
X0002685011Y0002701227D01*
X0002686886Y0002699352D01*
X0002690636Y0002697477D01*
X0002698135Y0002697477D01*
X0002701884Y0002699352D01*
X0002703759Y0002701227D01*
X0002705634Y0002704976D01*
X0002430512Y0002763750D02*
X0002430512Y0002782498D01*
X0002469882Y0002782498D01*
X0002430512Y0002730004D02*
X0002430512Y0002752502D01*
X0002430512Y0002741253D02*
X0002469882Y0002741253D01*
X0002464258Y0002745002D01*
X0002460508Y0002748752D01*
X0002458634Y0002752502D01*
X0002933230Y0002722037D02*
X0002935105Y0002723911D01*
X0002940730Y0002725786D01*
X0002944479Y0002725786D01*
X0002950103Y0002723911D01*
X0002953853Y0002720162D01*
X0002955728Y0002716412D01*
X0002957602Y0002708913D01*
X0002957602Y0002703289D01*
X0002955728Y0002695790D01*
X0002953853Y0002692040D01*
X0002950103Y0002688291D01*
X0002944479Y0002686416D01*
X0002940730Y0002686416D01*
X0002935105Y0002688291D01*
X0002933230Y0002690166D01*
X0002897610Y0002686416D02*
X0002916358Y0002686416D01*
X0002918232Y0002705164D01*
X0002916358Y0002703289D01*
X0002912608Y0002701414D01*
X0002903234Y0002701414D01*
X0002899485Y0002703289D01*
X0002897610Y0002705164D01*
X0002895735Y0002708913D01*
X0002895735Y0002718287D01*
X0002897610Y0002722037D01*
X0002899485Y0002723911D01*
X0002903234Y0002725786D01*
X0002912608Y0002725786D01*
X0002916358Y0002723911D01*
X0002918232Y0002722037D01*
X0002997722Y0001997440D02*
X0002988349Y0002036810D01*
X0002980850Y0002008688D01*
X0002973350Y0002036810D01*
X0002963977Y0001997440D01*
X0002928356Y0002036810D02*
X0002950853Y0002036810D01*
X0002939605Y0002036810D02*
X0002939605Y0001997440D01*
X0002943354Y0002003064D01*
X0002947104Y0002006814D01*
X0002950853Y0002008688D01*
X0003092211Y0001997440D02*
X0003082837Y0002036810D01*
X0003075338Y0002008688D01*
X0003067839Y0002036810D01*
X0003058465Y0001997440D01*
X0003045341Y0002001189D02*
X0003043467Y0001999314D01*
X0003039717Y0001997440D01*
X0003030343Y0001997440D01*
X0003026594Y0001999314D01*
X0003024719Y0002001189D01*
X0003022844Y0002004939D01*
X0003022844Y0002008688D01*
X0003024719Y0002014313D01*
X0003047216Y0002036810D01*
X0003022844Y0002036810D01*
X0002478506Y0002865737D02*
X0002480381Y0002867612D01*
X0002486005Y0002869487D01*
X0002489755Y0002869487D01*
X0002495379Y0002867612D01*
X0002499128Y0002863863D01*
X0002501003Y0002860113D01*
X0002502878Y0002852614D01*
X0002502878Y0002846990D01*
X0002501003Y0002839491D01*
X0002499128Y0002835741D01*
X0002495379Y0002831992D01*
X0002489755Y0002830117D01*
X0002486005Y0002830117D01*
X0002480381Y0002831992D01*
X0002478506Y0002833866D01*
X0002465383Y0002830117D02*
X0002439136Y0002830117D01*
X0002456009Y0002869487D01*
X0002743504Y0002958632D02*
X0002762252Y0002971755D01*
X0002743504Y0002981129D02*
X0002782874Y0002981129D01*
X0002782874Y0002966131D01*
X0002781000Y0002962382D01*
X0002779125Y0002960507D01*
X0002775375Y0002958632D01*
X0002769751Y0002958632D01*
X0002766001Y0002960507D01*
X0002764127Y0002962382D01*
X0002762252Y0002966131D01*
X0002762252Y0002981129D01*
X0002782874Y0002924886D02*
X0002782874Y0002932385D01*
X0002781000Y0002936135D01*
X0002779125Y0002938010D01*
X0002773500Y0002941759D01*
X0002766001Y0002943634D01*
X0002751003Y0002943634D01*
X0002747254Y0002941759D01*
X0002745379Y0002939884D01*
X0002743504Y0002936135D01*
X0002743504Y0002928636D01*
X0002745379Y0002924886D01*
X0002747254Y0002923011D01*
X0002751003Y0002921137D01*
X0002760377Y0002921137D01*
X0002764127Y0002923011D01*
X0002766001Y0002924886D01*
X0002767876Y0002928636D01*
X0002767876Y0002936135D01*
X0002766001Y0002939884D01*
X0002764127Y0002941759D01*
X0002760377Y0002943634D01*
X0002579826Y0002158771D02*
X0002579826Y0002177518D01*
X0002592949Y0002138148D02*
X0002579826Y0002158771D01*
X0002566702Y0002138148D01*
X0002532957Y0002177518D02*
X0002555454Y0002177518D01*
X0002544205Y0002177518D02*
X0002544205Y0002138148D01*
X0002547955Y0002143773D01*
X0002551704Y0002147522D01*
X0002555454Y0002149397D01*
G04 next file*
G04 Gerber Fmt 4.6, Leading zero omitted, Abs format (unit mm)*
G04 Created by KiCad (PCBNEW 4.0.7) date Thursday, 08 March 2018 'PMt' 14:48:31*
G01G01*
G04 APERTURE LIST*
G04 APERTURE END LIST*
D40*
D41*
X0002683291Y0000873808D02*
X0002683291Y0000901367D01*
X0002730535Y0000901367D02*
X0002730535Y0000873808D01*
X0003281204Y0001631000D02*
X0003281204Y0001431000D01*
X0003281204Y0001431000D02*
X0003381204Y0001431000D01*
X0003381204Y0001431000D02*
X0003381204Y0001631000D01*
X0003392228Y0001742023D02*
X0003392228Y0001681000D01*
X0003381204Y0001631000D02*
X0003281204Y0001631000D01*
X0003270181Y0001681000D02*
X0003270181Y0001742023D01*
X0003270181Y0001742023D02*
X0003392228Y0001742023D01*
X0003269787Y0000878047D02*
X0003230417Y0000878047D01*
X0003230417Y0000931196D02*
X0003269787Y0000931196D01*
X0002751598Y0001121013D02*
X0002712228Y0001121013D01*
X0002712228Y0001174162D02*
X0002751598Y0001174162D01*
X0002813488Y0000689772D02*
X0002813488Y0000650402D01*
X0002760338Y0000650402D02*
X0002760338Y0000689772D01*
X0002882228Y0000726662D02*
X0002921598Y0000726662D01*
X0002921598Y0000673513D02*
X0002882228Y0000673513D01*
X0003064098Y0000673513D02*
X0003024728Y0000673513D01*
X0003024728Y0000726662D02*
X0003064098Y0000726662D01*
D42*
X0003325299Y0000751078D02*
X0003325299Y0000821944D01*
X0003198527Y0000821944D02*
X0003198527Y0000725488D01*
D41*
X0003253015Y0001169385D02*
X0003134905Y0001169385D01*
X0003253015Y0001242220D02*
X0003134905Y0001242220D01*
X0003253015Y0001242220D02*
X0003253015Y0001314070D01*
X0003134905Y0001242220D02*
X0003134905Y0001314070D01*
X0003253015Y0001314070D02*
X0003378015Y0001314070D01*
X0003134905Y0001314070D02*
X0003009905Y0001314070D01*
X0003378015Y0001314070D02*
X0003378015Y0001180212D01*
X0003009905Y0001314070D02*
X0003009905Y0001180212D01*
X0003378015Y0001180212D02*
X0003253015Y0001180212D01*
X0003009905Y0001180212D02*
X0003134905Y0001180212D01*
X0003253015Y0001180212D02*
X0003253015Y0001169385D01*
X0003134905Y0001180212D02*
X0003134905Y0001169385D01*
X0002596559Y0000906196D02*
X0002596559Y0000845173D01*
X0002596559Y0000845173D02*
X0002474511Y0000845173D01*
X0002474511Y0000845173D02*
X0002474511Y0000906196D01*
X0002485535Y0000956196D02*
X0002485535Y0001356196D01*
X0002485535Y0001356196D02*
X0002585535Y0001356196D01*
X0002585535Y0001356196D02*
X0002585535Y0000956196D01*
X0002485535Y0000956196D02*
X0002585535Y0000956196D01*
X0002596559Y0000343598D02*
X0002596559Y0000282574D01*
X0002596559Y0000282574D02*
X0002474511Y0000282574D01*
X0002474511Y0000282574D02*
X0002474511Y0000343598D01*
X0002485535Y0000393598D02*
X0002485535Y0000793598D01*
X0002485535Y0000793598D02*
X0002585535Y0000793598D01*
X0002585535Y0000793598D02*
X0002585535Y0000393598D01*
X0002485535Y0000393598D02*
X0002585535Y0000393598D01*
D43*
X0002761913Y0000847587D02*
X0002761913Y0000997587D01*
X0003136913Y0000847587D02*
X0003136913Y0000897587D01*
X0003136913Y0000897587D02*
X0003111913Y0000922587D01*
X0003111913Y0000922587D02*
X0003136913Y0000947587D01*
X0003136913Y0000947587D02*
X0003136913Y0000997587D01*
D41*
X0003185535Y0000583362D02*
X0003185535Y0000543992D01*
X0003252464Y0000543992D02*
X0003252464Y0000583362D01*
X0002673448Y0001052272D02*
X0002673448Y0001012902D01*
X0002740377Y0001012902D02*
X0002740377Y0001052272D01*
X0003191440Y0000709346D02*
X0003152070Y0000709346D01*
X0003152070Y0000642417D02*
X0003191440Y0000642417D01*
X0003132385Y0000593204D02*
X0003104826Y0000593204D01*
X0003104826Y0000640448D02*
X0003132385Y0000640448D01*
D42*
X0003349708Y0000534149D02*
X0003349708Y0000486905D01*
X0003280417Y0000486905D02*
X0003280417Y0000534149D01*
D41*
X0002913881Y0000610921D02*
X0002886322Y0000610921D01*
X0002886322Y0000658165D02*
X0002913881Y0000658165D01*
X0003262307Y0000392417D02*
X0003234748Y0000392417D01*
X0003234748Y0000439661D02*
X0003262307Y0000439661D01*
X0003192425Y0000313677D02*
X0003192425Y0000353047D01*
X0003245574Y0000353047D02*
X0003245574Y0000313677D01*
D42*
X0003186952Y0001076511D02*
X0003186952Y0000946590D01*
X0003186952Y0000946590D02*
X0003344433Y0000946590D01*
D41*
X0002666131Y0000911446D02*
X0002668006Y0000909571D01*
X0002669881Y0000903947D01*
X0002669881Y0000900197D01*
X0002668006Y0000894573D01*
X0002664256Y0000890823D01*
X0002660507Y0000888948D01*
X0002653008Y0000887074D01*
X0002647383Y0000887074D01*
X0002639884Y0000888948D01*
X0002636135Y0000890823D01*
X0002632385Y0000894573D01*
X0002630511Y0000900197D01*
X0002630511Y0000903947D01*
X0002632385Y0000909571D01*
X0002634260Y0000911446D01*
X0002634260Y0000926444D02*
X0002632385Y0000928319D01*
X0002630511Y0000932068D01*
X0002630511Y0000941442D01*
X0002632385Y0000945192D01*
X0002634260Y0000947066D01*
X0002638010Y0000948941D01*
X0002641759Y0000948941D01*
X0002647383Y0000947066D01*
X0002669881Y0000924569D01*
X0002669881Y0000948941D01*
X0003318081Y0001776575D02*
X0003318081Y0001748454D01*
X0003316206Y0001742829D01*
X0003312457Y0001739080D01*
X0003306832Y0001737205D01*
X0003303083Y0001737205D01*
X0003353701Y0001776575D02*
X0003346202Y0001776575D01*
X0003342453Y0001774700D01*
X0003340578Y0001772826D01*
X0003336829Y0001767201D01*
X0003334954Y0001759702D01*
X0003334954Y0001744704D01*
X0003336829Y0001740955D01*
X0003338703Y0001739080D01*
X0003342453Y0001737205D01*
X0003349952Y0001737205D01*
X0003353701Y0001739080D01*
X0003355576Y0001740955D01*
X0003357451Y0001744704D01*
X0003357451Y0001754078D01*
X0003355576Y0001757827D01*
X0003353701Y0001759702D01*
X0003349952Y0001761577D01*
X0003342453Y0001761577D01*
X0003338703Y0001759702D01*
X0003336829Y0001757827D01*
X0003334954Y0001754078D01*
X0003243540Y0000961614D02*
X0003230417Y0000980362D01*
X0003221043Y0000961614D02*
X0003221043Y0001000985D01*
X0003236041Y0001000985D01*
X0003239791Y0000999110D01*
X0003241665Y0000997235D01*
X0003243540Y0000993485D01*
X0003243540Y0000987861D01*
X0003241665Y0000984112D01*
X0003239791Y0000982237D01*
X0003236041Y0000980362D01*
X0003221043Y0000980362D01*
X0003279161Y0001000985D02*
X0003260413Y0001000985D01*
X0003258538Y0000982237D01*
X0003260413Y0000984112D01*
X0003264163Y0000985986D01*
X0003273536Y0000985986D01*
X0003277286Y0000984112D01*
X0003279161Y0000982237D01*
X0003281036Y0000978487D01*
X0003281036Y0000969113D01*
X0003279161Y0000965364D01*
X0003277286Y0000963489D01*
X0003273536Y0000961614D01*
X0003264163Y0000961614D01*
X0003260413Y0000963489D01*
X0003258538Y0000965364D01*
X0002716375Y0001183662D02*
X0002703251Y0001202409D01*
X0002693878Y0001183662D02*
X0002693878Y0001223032D01*
X0002708876Y0001223032D01*
X0002712625Y0001221157D01*
X0002714500Y0001219282D01*
X0002716375Y0001215533D01*
X0002716375Y0001209908D01*
X0002714500Y0001206159D01*
X0002712625Y0001204284D01*
X0002708876Y0001202409D01*
X0002693878Y0001202409D01*
X0002750121Y0001209908D02*
X0002750121Y0001183662D01*
X0002740747Y0001224907D02*
X0002731373Y0001196785D01*
X0002755745Y0001196785D01*
X0002729920Y0000663526D02*
X0002711172Y0000650402D01*
X0002729920Y0000641028D02*
X0002690550Y0000641028D01*
X0002690550Y0000656027D01*
X0002692425Y0000659776D01*
X0002694299Y0000661651D01*
X0002698049Y0000663526D01*
X0002703673Y0000663526D01*
X0002707423Y0000661651D01*
X0002709297Y0000659776D01*
X0002711172Y0000656027D01*
X0002711172Y0000641028D01*
X0002690550Y0000676649D02*
X0002690550Y0000701021D01*
X0002705548Y0000687898D01*
X0002705548Y0000693522D01*
X0002707423Y0000697272D01*
X0002709297Y0000699146D01*
X0002713047Y0000701021D01*
X0002722421Y0000701021D01*
X0002726170Y0000699146D01*
X0002728045Y0000697272D01*
X0002729920Y0000693522D01*
X0002729920Y0000682273D01*
X0002728045Y0000678524D01*
X0002726170Y0000676649D01*
X0002895351Y0000607474D02*
X0002882228Y0000626222D01*
X0002872854Y0000607474D02*
X0002872854Y0000646844D01*
X0002887852Y0000646844D01*
X0002891602Y0000644969D01*
X0002893476Y0000643095D01*
X0002895351Y0000639345D01*
X0002895351Y0000633721D01*
X0002893476Y0000629971D01*
X0002891602Y0000628096D01*
X0002887852Y0000626222D01*
X0002872854Y0000626222D01*
X0002910349Y0000643095D02*
X0002912224Y0000644969D01*
X0002915974Y0000646844D01*
X0002925347Y0000646844D01*
X0002929097Y0000644969D01*
X0002930972Y0000643095D01*
X0002932846Y0000639345D01*
X0002932846Y0000635595D01*
X0002930972Y0000629971D01*
X0002908475Y0000607474D01*
X0002932846Y0000607474D01*
X0003005745Y0000616733D02*
X0002992622Y0000635480D01*
X0002983248Y0000616733D02*
X0002983248Y0000656103D01*
X0002998246Y0000656103D01*
X0003001995Y0000654228D01*
X0003003870Y0000652353D01*
X0003005745Y0000648604D01*
X0003005745Y0000642979D01*
X0003003870Y0000639230D01*
X0003001995Y0000637355D01*
X0002998246Y0000635480D01*
X0002983248Y0000635480D01*
X0003043240Y0000616733D02*
X0003020743Y0000616733D01*
X0003031992Y0000616733D02*
X0003031992Y0000656103D01*
X0003028242Y0000650478D01*
X0003024493Y0000646729D01*
X0003020743Y0000644854D01*
X0003339172Y0000752184D02*
X0003371043Y0000752184D01*
X0003374793Y0000754059D01*
X0003376667Y0000755934D01*
X0003378542Y0000759683D01*
X0003378542Y0000767182D01*
X0003376667Y0000770932D01*
X0003374793Y0000772807D01*
X0003371043Y0000774682D01*
X0003339172Y0000774682D01*
X0003342922Y0000791554D02*
X0003341047Y0000793429D01*
X0003339172Y0000797179D01*
X0003339172Y0000806553D01*
X0003341047Y0000810302D01*
X0003342922Y0000812177D01*
X0003346671Y0000814052D01*
X0003350421Y0000814052D01*
X0003356045Y0000812177D01*
X0003378542Y0000789680D01*
X0003378542Y0000814052D01*
X0003186637Y0001370887D02*
X0003186637Y0001337141D01*
X0003184388Y0001330392D01*
X0003179888Y0001325893D01*
X0003173139Y0001323643D01*
X0003168640Y0001323643D01*
X0003231632Y0001370887D02*
X0003209135Y0001370887D01*
X0003206885Y0001348390D01*
X0003209135Y0001350640D01*
X0003213634Y0001352889D01*
X0003224883Y0001352889D01*
X0003229382Y0001350640D01*
X0003231632Y0001348390D01*
X0003233881Y0001343890D01*
X0003233881Y0001332642D01*
X0003231632Y0001328142D01*
X0003229382Y0001325893D01*
X0003224883Y0001323643D01*
X0003213634Y0001323643D01*
X0003209135Y0001325893D01*
X0003206885Y0001328142D01*
X0002606888Y0000816301D02*
X0002635010Y0000816301D01*
X0002640634Y0000814427D01*
X0002644384Y0000810677D01*
X0002646259Y0000805053D01*
X0002646259Y0000801303D01*
X0002606888Y0000831299D02*
X0002606888Y0000855671D01*
X0002621887Y0000842548D01*
X0002621887Y0000848172D01*
X0002623761Y0000851922D01*
X0002625636Y0000853797D01*
X0002629386Y0000855671D01*
X0002638760Y0000855671D01*
X0002642509Y0000853797D01*
X0002644384Y0000851922D01*
X0002646259Y0000848172D01*
X0002646259Y0000836924D01*
X0002644384Y0000833174D01*
X0002642509Y0000831299D01*
X0002600983Y0000290711D02*
X0002629105Y0000290711D01*
X0002634729Y0000288836D01*
X0002638478Y0000285086D01*
X0002640353Y0000279462D01*
X0002640353Y0000275713D01*
X0002604733Y0000307584D02*
X0002602858Y0000309458D01*
X0002600983Y0000313208D01*
X0002600983Y0000322582D01*
X0002602858Y0000326331D01*
X0002604733Y0000328206D01*
X0002608482Y0000330081D01*
X0002612232Y0000330081D01*
X0002617856Y0000328206D01*
X0002640353Y0000305709D01*
X0002640353Y0000330081D01*
X0002989262Y0000566575D02*
X0002989262Y0000538454D01*
X0002987387Y0000532829D01*
X0002983638Y0000529080D01*
X0002978013Y0000527205D01*
X0002974264Y0000527205D01*
X0003028632Y0000527205D02*
X0003006135Y0000527205D01*
X0003017383Y0000527205D02*
X0003017383Y0000566575D01*
X0003013634Y0000560951D01*
X0003009884Y0000557201D01*
X0003006135Y0000555326D01*
X0003120668Y0001106515D02*
X0003152539Y0001106515D01*
X0003156289Y0001108390D01*
X0003158163Y0001110265D01*
X0003160038Y0001114014D01*
X0003160038Y0001121513D01*
X0003158163Y0001125263D01*
X0003156289Y0001127137D01*
X0003152539Y0001129012D01*
X0003120668Y0001129012D01*
X0003160038Y0001168382D02*
X0003160038Y0001145885D01*
X0003160038Y0001157134D02*
X0003120668Y0001157134D01*
X0003126292Y0001153384D01*
X0003130042Y0001149635D01*
X0003131917Y0001145885D01*
X0003303926Y0000610265D02*
X0003305801Y0000608390D01*
X0003307676Y0000602766D01*
X0003307676Y0000599016D01*
X0003305801Y0000593392D01*
X0003302052Y0000589642D01*
X0003298302Y0000587767D01*
X0003290803Y0000585893D01*
X0003285179Y0000585893D01*
X0003277680Y0000587767D01*
X0003273930Y0000589642D01*
X0003270181Y0000593392D01*
X0003268306Y0000599016D01*
X0003268306Y0000602766D01*
X0003270181Y0000608390D01*
X0003272055Y0000610265D01*
X0003307676Y0000647760D02*
X0003307676Y0000625263D01*
X0003307676Y0000636511D02*
X0003268306Y0000636511D01*
X0003273930Y0000632762D01*
X0003277680Y0000629012D01*
X0003279554Y0000625263D01*
X0002660226Y0001026026D02*
X0002662100Y0001024151D01*
X0002663975Y0001018527D01*
X0002663975Y0001014777D01*
X0002662100Y0001009153D01*
X0002658351Y0001005403D01*
X0002654601Y0001003529D01*
X0002647102Y0001001654D01*
X0002641478Y0001001654D01*
X0002633979Y0001003529D01*
X0002630229Y0001005403D01*
X0002626480Y0001009153D01*
X0002624605Y0001014777D01*
X0002624605Y0001018527D01*
X0002626480Y0001024151D01*
X0002628355Y0001026026D01*
X0002624605Y0001039149D02*
X0002624605Y0001063521D01*
X0002639603Y0001050398D01*
X0002639603Y0001056022D01*
X0002641478Y0001059772D01*
X0002643353Y0001061646D01*
X0002647102Y0001063521D01*
X0002656476Y0001063521D01*
X0002660226Y0001061646D01*
X0002662100Y0001059772D01*
X0002663975Y0001056022D01*
X0002663975Y0001044773D01*
X0002662100Y0001041024D01*
X0002660226Y0001039149D01*
X0003147477Y0000726781D02*
X0003145602Y0000724907D01*
X0003139978Y0000723032D01*
X0003136229Y0000723032D01*
X0003130604Y0000724907D01*
X0003126855Y0000728656D01*
X0003124980Y0000732406D01*
X0003123105Y0000739905D01*
X0003123105Y0000745529D01*
X0003124980Y0000753028D01*
X0003126855Y0000756778D01*
X0003130604Y0000760527D01*
X0003136229Y0000762402D01*
X0003139978Y0000762402D01*
X0003145602Y0000760527D01*
X0003147477Y0000758652D01*
X0003181223Y0000749278D02*
X0003181223Y0000723032D01*
X0003171849Y0000764277D02*
X0003162475Y0000736155D01*
X0003186847Y0000736155D01*
X0003106139Y0000549616D02*
X0003104264Y0000547741D01*
X0003098640Y0000545866D01*
X0003094890Y0000545866D01*
X0003089266Y0000547741D01*
X0003085516Y0000551491D01*
X0003083641Y0000555240D01*
X0003081767Y0000562739D01*
X0003081767Y0000568364D01*
X0003083641Y0000575863D01*
X0003085516Y0000579612D01*
X0003089266Y0000583362D01*
X0003094890Y0000585236D01*
X0003098640Y0000585236D01*
X0003104264Y0000583362D01*
X0003106139Y0000581487D01*
X0003139884Y0000585236D02*
X0003132385Y0000585236D01*
X0003128636Y0000583362D01*
X0003126761Y0000581487D01*
X0003123012Y0000575863D01*
X0003121137Y0000568364D01*
X0003121137Y0000553365D01*
X0003123012Y0000549616D01*
X0003124886Y0000547741D01*
X0003128636Y0000545866D01*
X0003136135Y0000545866D01*
X0003139884Y0000547741D01*
X0003141759Y0000549616D01*
X0003143634Y0000553365D01*
X0003143634Y0000562739D01*
X0003141759Y0000566489D01*
X0003139884Y0000568364D01*
X0003136135Y0000570238D01*
X0003128636Y0000570238D01*
X0003124886Y0000568364D01*
X0003123012Y0000566489D01*
X0003121137Y0000562739D01*
X0003396259Y0000503965D02*
X0003396259Y0000485218D01*
X0003356889Y0000485218D01*
X0003396259Y0000537711D02*
X0003396259Y0000515214D01*
X0003396259Y0000526463D02*
X0003356889Y0000526463D01*
X0003362513Y0000522713D01*
X0003366262Y0000518964D01*
X0003368137Y0000515214D01*
X0002893540Y0000545679D02*
X0002891665Y0000543804D01*
X0002886041Y0000541929D01*
X0002882292Y0000541929D01*
X0002876667Y0000543804D01*
X0002872918Y0000547554D01*
X0002871043Y0000551303D01*
X0002869168Y0000558802D01*
X0002869168Y0000564427D01*
X0002871043Y0000571926D01*
X0002872918Y0000575675D01*
X0002876667Y0000579425D01*
X0002882292Y0000581299D01*
X0002886041Y0000581299D01*
X0002891665Y0000579425D01*
X0002893540Y0000577550D01*
X0002929161Y0000581299D02*
X0002910413Y0000581299D01*
X0002908538Y0000562552D01*
X0002910413Y0000564427D01*
X0002914163Y0000566301D01*
X0002923536Y0000566301D01*
X0002927286Y0000564427D01*
X0002929161Y0000562552D01*
X0002931036Y0000558802D01*
X0002931036Y0000549428D01*
X0002929161Y0000545679D01*
X0002927286Y0000543804D01*
X0002923536Y0000541929D01*
X0002914163Y0000541929D01*
X0002910413Y0000543804D01*
X0002908538Y0000545679D01*
X0002829048Y0001270276D02*
X0002838422Y0001230906D01*
X0002845921Y0001259027D01*
X0002853420Y0001230906D01*
X0002862794Y0001270276D01*
X0002898415Y0001230906D02*
X0002875917Y0001230906D01*
X0002887166Y0001230906D02*
X0002887166Y0001270276D01*
X0002883416Y0001264652D01*
X0002879667Y0001260902D01*
X0002875917Y0001259027D01*
X0002734560Y0001270276D02*
X0002743934Y0001230906D01*
X0002751433Y0001259027D01*
X0002758932Y0001230906D01*
X0002768306Y0001270276D01*
X0002781429Y0001266526D02*
X0002783304Y0001268401D01*
X0002787053Y0001270276D01*
X0002796427Y0001270276D01*
X0002800177Y0001268401D01*
X0002802052Y0001266526D01*
X0002803926Y0001262777D01*
X0002803926Y0001259027D01*
X0002802052Y0001253403D01*
X0002779554Y0001230906D01*
X0002803926Y0001230906D01*
X0003348265Y0000401978D02*
X0003346390Y0000400103D01*
X0003340766Y0000398229D01*
X0003337016Y0000398229D01*
X0003331392Y0000400103D01*
X0003327642Y0000403853D01*
X0003325767Y0000407602D01*
X0003323893Y0000415101D01*
X0003323893Y0000420726D01*
X0003325767Y0000428225D01*
X0003327642Y0000431974D01*
X0003331392Y0000435724D01*
X0003337016Y0000437599D01*
X0003340766Y0000437599D01*
X0003346390Y0000435724D01*
X0003348265Y0000433849D01*
X0003361388Y0000437599D02*
X0003387635Y0000437599D01*
X0003370762Y0000398229D01*
X0003083266Y0000309084D02*
X0003064519Y0000295960D01*
X0003083266Y0000286586D02*
X0003043896Y0000286586D01*
X0003043896Y0000301584D01*
X0003045771Y0000305334D01*
X0003047646Y0000307209D01*
X0003051395Y0000309084D01*
X0003057020Y0000309084D01*
X0003060769Y0000307209D01*
X0003062644Y0000305334D01*
X0003064519Y0000301584D01*
X0003064519Y0000286586D01*
X0003043896Y0000342829D02*
X0003043896Y0000335330D01*
X0003045771Y0000331581D01*
X0003047646Y0000329706D01*
X0003053270Y0000325956D01*
X0003060769Y0000324082D01*
X0003075767Y0000324082D01*
X0003079517Y0000325956D01*
X0003081392Y0000327831D01*
X0003083266Y0000331581D01*
X0003083266Y0000339080D01*
X0003081392Y0000342829D01*
X0003079517Y0000344704D01*
X0003075767Y0000346579D01*
X0003066394Y0000346579D01*
X0003062644Y0000344704D01*
X0003060769Y0000342829D01*
X0003058895Y0000339080D01*
X0003058895Y0000331581D01*
X0003060769Y0000327831D01*
X0003062644Y0000325956D01*
X0003066394Y0000324082D01*
X0003246945Y0001108945D02*
X0003246945Y0001090197D01*
X0003233821Y0001129567D02*
X0003246945Y0001108945D01*
X0003260068Y0001129567D01*
X0003293814Y0001090197D02*
X0003271317Y0001090197D01*
X0003282565Y0001090197D02*
X0003282565Y0001129567D01*
X0003278816Y0001123943D01*
X0003275066Y0001120193D01*
X0003271317Y0001118319D01*
G04 next file*
G04 Gerber Fmt 4.6, Leading zero omitted, Abs format (unit mm)*
G04 Created by KiCad (PCBNEW 4.0.7) date Thursday, 08 March 2018 'PMt' 14:48:31*
G01G01*
G04 APERTURE LIST*
G04 APERTURE END LIST*
D44*
D45*
X0003746283Y0000873808D02*
X0003746283Y0000901367D01*
X0003793527Y0000901367D02*
X0003793527Y0000873808D01*
X0004344196Y0001631000D02*
X0004344196Y0001431000D01*
X0004344196Y0001431000D02*
X0004444196Y0001431000D01*
X0004444196Y0001431000D02*
X0004444196Y0001631000D01*
X0004455220Y0001742023D02*
X0004455220Y0001681000D01*
X0004444196Y0001631000D02*
X0004344196Y0001631000D01*
X0004333173Y0001681000D02*
X0004333173Y0001742023D01*
X0004333173Y0001742023D02*
X0004455220Y0001742023D01*
X0004332779Y0000878047D02*
X0004293409Y0000878047D01*
X0004293409Y0000931196D02*
X0004332779Y0000931196D01*
X0003814590Y0001121013D02*
X0003775220Y0001121013D01*
X0003775220Y0001174162D02*
X0003814590Y0001174162D01*
X0003876480Y0000689772D02*
X0003876480Y0000650402D01*
X0003823330Y0000650402D02*
X0003823330Y0000689772D01*
X0003945220Y0000726662D02*
X0003984590Y0000726662D01*
X0003984590Y0000673513D02*
X0003945220Y0000673513D01*
X0004127090Y0000673513D02*
X0004087720Y0000673513D01*
X0004087720Y0000726662D02*
X0004127090Y0000726662D01*
D46*
X0004388291Y0000751078D02*
X0004388291Y0000821944D01*
X0004261519Y0000821944D02*
X0004261519Y0000725488D01*
D45*
X0004316007Y0001169385D02*
X0004197897Y0001169385D01*
X0004316007Y0001242220D02*
X0004197897Y0001242220D01*
X0004316007Y0001242220D02*
X0004316007Y0001314070D01*
X0004197897Y0001242220D02*
X0004197897Y0001314070D01*
X0004316007Y0001314070D02*
X0004441007Y0001314070D01*
X0004197897Y0001314070D02*
X0004072897Y0001314070D01*
X0004441007Y0001314070D02*
X0004441007Y0001180212D01*
X0004072897Y0001314070D02*
X0004072897Y0001180212D01*
X0004441007Y0001180212D02*
X0004316007Y0001180212D01*
X0004072897Y0001180212D02*
X0004197897Y0001180212D01*
X0004316007Y0001180212D02*
X0004316007Y0001169385D01*
X0004197897Y0001180212D02*
X0004197897Y0001169385D01*
X0003659551Y0000906196D02*
X0003659551Y0000845173D01*
X0003659551Y0000845173D02*
X0003537503Y0000845173D01*
X0003537503Y0000845173D02*
X0003537503Y0000906196D01*
X0003548527Y0000956196D02*
X0003548527Y0001356196D01*
X0003548527Y0001356196D02*
X0003648527Y0001356196D01*
X0003648527Y0001356196D02*
X0003648527Y0000956196D01*
X0003548527Y0000956196D02*
X0003648527Y0000956196D01*
X0003659551Y0000343598D02*
X0003659551Y0000282574D01*
X0003659551Y0000282574D02*
X0003537503Y0000282574D01*
X0003537503Y0000282574D02*
X0003537503Y0000343598D01*
X0003548527Y0000393598D02*
X0003548527Y0000793598D01*
X0003548527Y0000793598D02*
X0003648527Y0000793598D01*
X0003648527Y0000793598D02*
X0003648527Y0000393598D01*
X0003548527Y0000393598D02*
X0003648527Y0000393598D01*
D47*
X0003824905Y0000847587D02*
X0003824905Y0000997587D01*
X0004199905Y0000847587D02*
X0004199905Y0000897587D01*
X0004199905Y0000897587D02*
X0004174905Y0000922587D01*
X0004174905Y0000922587D02*
X0004199905Y0000947587D01*
X0004199905Y0000947587D02*
X0004199905Y0000997587D01*
D45*
X0004248527Y0000583362D02*
X0004248527Y0000543992D01*
X0004315456Y0000543992D02*
X0004315456Y0000583362D01*
X0003736440Y0001052272D02*
X0003736440Y0001012902D01*
X0003803370Y0001012902D02*
X0003803370Y0001052272D01*
X0004254433Y0000709346D02*
X0004215062Y0000709346D01*
X0004215062Y0000642417D02*
X0004254433Y0000642417D01*
X0004195377Y0000593204D02*
X0004167818Y0000593204D01*
X0004167818Y0000640448D02*
X0004195377Y0000640448D01*
D46*
X0004412700Y0000534149D02*
X0004412700Y0000486905D01*
X0004343409Y0000486905D02*
X0004343409Y0000534149D01*
D45*
X0003976874Y0000610921D02*
X0003949314Y0000610921D01*
X0003949314Y0000658165D02*
X0003976874Y0000658165D01*
X0004325299Y0000392417D02*
X0004297740Y0000392417D01*
X0004297740Y0000439661D02*
X0004325299Y0000439661D01*
X0004255417Y0000313677D02*
X0004255417Y0000353047D01*
X0004308566Y0000353047D02*
X0004308566Y0000313677D01*
D46*
X0004249944Y0001076511D02*
X0004249944Y0000946590D01*
X0004249944Y0000946590D02*
X0004407425Y0000946590D01*
D45*
X0003729123Y0000911446D02*
X0003730998Y0000909571D01*
X0003732873Y0000903947D01*
X0003732873Y0000900197D01*
X0003730998Y0000894573D01*
X0003727248Y0000890823D01*
X0003723499Y0000888948D01*
X0003716000Y0000887074D01*
X0003710376Y0000887074D01*
X0003702877Y0000888948D01*
X0003699127Y0000890823D01*
X0003695377Y0000894573D01*
X0003693503Y0000900197D01*
X0003693503Y0000903947D01*
X0003695377Y0000909571D01*
X0003697252Y0000911446D01*
X0003697252Y0000926444D02*
X0003695377Y0000928319D01*
X0003693503Y0000932068D01*
X0003693503Y0000941442D01*
X0003695377Y0000945192D01*
X0003697252Y0000947066D01*
X0003701002Y0000948941D01*
X0003704751Y0000948941D01*
X0003710376Y0000947066D01*
X0003732873Y0000924569D01*
X0003732873Y0000948941D01*
X0004381073Y0001776575D02*
X0004381073Y0001748454D01*
X0004379198Y0001742829D01*
X0004375449Y0001739080D01*
X0004369824Y0001737205D01*
X0004366075Y0001737205D01*
X0004416694Y0001776575D02*
X0004409194Y0001776575D01*
X0004405445Y0001774700D01*
X0004403570Y0001772826D01*
X0004399821Y0001767201D01*
X0004397946Y0001759702D01*
X0004397946Y0001744704D01*
X0004399821Y0001740955D01*
X0004401695Y0001739080D01*
X0004405445Y0001737205D01*
X0004412944Y0001737205D01*
X0004416694Y0001739080D01*
X0004418568Y0001740955D01*
X0004420443Y0001744704D01*
X0004420443Y0001754078D01*
X0004418568Y0001757827D01*
X0004416694Y0001759702D01*
X0004412944Y0001761577D01*
X0004405445Y0001761577D01*
X0004401695Y0001759702D01*
X0004399821Y0001757827D01*
X0004397946Y0001754078D01*
X0004306532Y0000961614D02*
X0004293409Y0000980362D01*
X0004284035Y0000961614D02*
X0004284035Y0001000985D01*
X0004299033Y0001000985D01*
X0004302783Y0000999110D01*
X0004304658Y0000997235D01*
X0004306532Y0000993485D01*
X0004306532Y0000987861D01*
X0004304658Y0000984112D01*
X0004302783Y0000982237D01*
X0004299033Y0000980362D01*
X0004284035Y0000980362D01*
X0004342153Y0001000985D02*
X0004323405Y0001000985D01*
X0004321530Y0000982237D01*
X0004323405Y0000984112D01*
X0004327155Y0000985986D01*
X0004336529Y0000985986D01*
X0004340278Y0000984112D01*
X0004342153Y0000982237D01*
X0004344028Y0000978487D01*
X0004344028Y0000969113D01*
X0004342153Y0000965364D01*
X0004340278Y0000963489D01*
X0004336529Y0000961614D01*
X0004327155Y0000961614D01*
X0004323405Y0000963489D01*
X0004321530Y0000965364D01*
X0003779367Y0001183662D02*
X0003766244Y0001202409D01*
X0003756870Y0001183662D02*
X0003756870Y0001223032D01*
X0003771868Y0001223032D01*
X0003775617Y0001221157D01*
X0003777492Y0001219282D01*
X0003779367Y0001215533D01*
X0003779367Y0001209908D01*
X0003777492Y0001206159D01*
X0003775617Y0001204284D01*
X0003771868Y0001202409D01*
X0003756870Y0001202409D01*
X0003813113Y0001209908D02*
X0003813113Y0001183662D01*
X0003803739Y0001224907D02*
X0003794365Y0001196785D01*
X0003818737Y0001196785D01*
X0003792912Y0000663526D02*
X0003774164Y0000650402D01*
X0003792912Y0000641028D02*
X0003753542Y0000641028D01*
X0003753542Y0000656027D01*
X0003755417Y0000659776D01*
X0003757292Y0000661651D01*
X0003761041Y0000663526D01*
X0003766665Y0000663526D01*
X0003770415Y0000661651D01*
X0003772290Y0000659776D01*
X0003774164Y0000656027D01*
X0003774164Y0000641028D01*
X0003753542Y0000676649D02*
X0003753542Y0000701021D01*
X0003768540Y0000687898D01*
X0003768540Y0000693522D01*
X0003770415Y0000697272D01*
X0003772290Y0000699146D01*
X0003776039Y0000701021D01*
X0003785413Y0000701021D01*
X0003789163Y0000699146D01*
X0003791037Y0000697272D01*
X0003792912Y0000693522D01*
X0003792912Y0000682273D01*
X0003791037Y0000678524D01*
X0003789163Y0000676649D01*
X0003958343Y0000607474D02*
X0003945220Y0000626222D01*
X0003935846Y0000607474D02*
X0003935846Y0000646844D01*
X0003950844Y0000646844D01*
X0003954594Y0000644969D01*
X0003956469Y0000643095D01*
X0003958343Y0000639345D01*
X0003958343Y0000633721D01*
X0003956469Y0000629971D01*
X0003954594Y0000628096D01*
X0003950844Y0000626222D01*
X0003935846Y0000626222D01*
X0003973341Y0000643095D02*
X0003975216Y0000644969D01*
X0003978966Y0000646844D01*
X0003988340Y0000646844D01*
X0003992089Y0000644969D01*
X0003993964Y0000643095D01*
X0003995839Y0000639345D01*
X0003995839Y0000635595D01*
X0003993964Y0000629971D01*
X0003971467Y0000607474D01*
X0003995839Y0000607474D01*
X0004068737Y0000616733D02*
X0004055614Y0000635480D01*
X0004046240Y0000616733D02*
X0004046240Y0000656103D01*
X0004061238Y0000656103D01*
X0004064988Y0000654228D01*
X0004066862Y0000652353D01*
X0004068737Y0000648604D01*
X0004068737Y0000642979D01*
X0004066862Y0000639230D01*
X0004064988Y0000637355D01*
X0004061238Y0000635480D01*
X0004046240Y0000635480D01*
X0004106232Y0000616733D02*
X0004083735Y0000616733D01*
X0004094984Y0000616733D02*
X0004094984Y0000656103D01*
X0004091234Y0000650478D01*
X0004087485Y0000646729D01*
X0004083735Y0000644854D01*
X0004402164Y0000752184D02*
X0004434035Y0000752184D01*
X0004437785Y0000754059D01*
X0004439659Y0000755934D01*
X0004441534Y0000759683D01*
X0004441534Y0000767182D01*
X0004439659Y0000770932D01*
X0004437785Y0000772807D01*
X0004434035Y0000774682D01*
X0004402164Y0000774682D01*
X0004405914Y0000791554D02*
X0004404039Y0000793429D01*
X0004402164Y0000797179D01*
X0004402164Y0000806553D01*
X0004404039Y0000810302D01*
X0004405914Y0000812177D01*
X0004409663Y0000814052D01*
X0004413413Y0000814052D01*
X0004419037Y0000812177D01*
X0004441534Y0000789680D01*
X0004441534Y0000814052D01*
X0004249629Y0001370887D02*
X0004249629Y0001337141D01*
X0004247380Y0001330392D01*
X0004242880Y0001325893D01*
X0004236131Y0001323643D01*
X0004231632Y0001323643D01*
X0004294624Y0001370887D02*
X0004272127Y0001370887D01*
X0004269877Y0001348390D01*
X0004272127Y0001350640D01*
X0004276626Y0001352889D01*
X0004287875Y0001352889D01*
X0004292374Y0001350640D01*
X0004294624Y0001348390D01*
X0004296874Y0001343890D01*
X0004296874Y0001332642D01*
X0004294624Y0001328142D01*
X0004292374Y0001325893D01*
X0004287875Y0001323643D01*
X0004276626Y0001323643D01*
X0004272127Y0001325893D01*
X0004269877Y0001328142D01*
X0003669881Y0000816301D02*
X0003698002Y0000816301D01*
X0003703626Y0000814427D01*
X0003707376Y0000810677D01*
X0003709251Y0000805053D01*
X0003709251Y0000801303D01*
X0003669881Y0000831299D02*
X0003669881Y0000855671D01*
X0003684879Y0000842548D01*
X0003684879Y0000848172D01*
X0003686754Y0000851922D01*
X0003688628Y0000853797D01*
X0003692378Y0000855671D01*
X0003701752Y0000855671D01*
X0003705501Y0000853797D01*
X0003707376Y0000851922D01*
X0003709251Y0000848172D01*
X0003709251Y0000836924D01*
X0003707376Y0000833174D01*
X0003705501Y0000831299D01*
X0003663975Y0000290711D02*
X0003692097Y0000290711D01*
X0003697721Y0000288836D01*
X0003701470Y0000285086D01*
X0003703345Y0000279462D01*
X0003703345Y0000275713D01*
X0003667725Y0000307584D02*
X0003665850Y0000309458D01*
X0003663975Y0000313208D01*
X0003663975Y0000322582D01*
X0003665850Y0000326331D01*
X0003667725Y0000328206D01*
X0003671474Y0000330081D01*
X0003675224Y0000330081D01*
X0003680848Y0000328206D01*
X0003703345Y0000305709D01*
X0003703345Y0000330081D01*
X0004052254Y0000566575D02*
X0004052254Y0000538454D01*
X0004050379Y0000532829D01*
X0004046630Y0000529080D01*
X0004041005Y0000527205D01*
X0004037256Y0000527205D01*
X0004091624Y0000527205D02*
X0004069127Y0000527205D01*
X0004080376Y0000527205D02*
X0004080376Y0000566575D01*
X0004076626Y0000560951D01*
X0004072877Y0000557201D01*
X0004069127Y0000555326D01*
X0004183660Y0001106515D02*
X0004215531Y0001106515D01*
X0004219281Y0001108390D01*
X0004221155Y0001110265D01*
X0004223030Y0001114014D01*
X0004223030Y0001121513D01*
X0004221155Y0001125263D01*
X0004219281Y0001127137D01*
X0004215531Y0001129012D01*
X0004183660Y0001129012D01*
X0004223030Y0001168382D02*
X0004223030Y0001145885D01*
X0004223030Y0001157134D02*
X0004183660Y0001157134D01*
X0004189284Y0001153384D01*
X0004193034Y0001149635D01*
X0004194909Y0001145885D01*
X0004366919Y0000610265D02*
X0004368793Y0000608390D01*
X0004370668Y0000602766D01*
X0004370668Y0000599016D01*
X0004368793Y0000593392D01*
X0004365044Y0000589642D01*
X0004361294Y0000587767D01*
X0004353795Y0000585893D01*
X0004348171Y0000585893D01*
X0004340672Y0000587767D01*
X0004336922Y0000589642D01*
X0004333173Y0000593392D01*
X0004331298Y0000599016D01*
X0004331298Y0000602766D01*
X0004333173Y0000608390D01*
X0004335047Y0000610265D01*
X0004370668Y0000647760D02*
X0004370668Y0000625263D01*
X0004370668Y0000636511D02*
X0004331298Y0000636511D01*
X0004336922Y0000632762D01*
X0004340672Y0000629012D01*
X0004342547Y0000625263D01*
X0003723218Y0001026026D02*
X0003725092Y0001024151D01*
X0003726967Y0001018527D01*
X0003726967Y0001014777D01*
X0003725092Y0001009153D01*
X0003721343Y0001005403D01*
X0003717593Y0001003529D01*
X0003710094Y0001001654D01*
X0003704470Y0001001654D01*
X0003696971Y0001003529D01*
X0003693221Y0001005403D01*
X0003689472Y0001009153D01*
X0003687597Y0001014777D01*
X0003687597Y0001018527D01*
X0003689472Y0001024151D01*
X0003691347Y0001026026D01*
X0003687597Y0001039149D02*
X0003687597Y0001063521D01*
X0003702595Y0001050398D01*
X0003702595Y0001056022D01*
X0003704470Y0001059772D01*
X0003706345Y0001061646D01*
X0003710094Y0001063521D01*
X0003719468Y0001063521D01*
X0003723218Y0001061646D01*
X0003725092Y0001059772D01*
X0003726967Y0001056022D01*
X0003726967Y0001044773D01*
X0003725092Y0001041024D01*
X0003723218Y0001039149D01*
X0004210469Y0000726781D02*
X0004208595Y0000724907D01*
X0004202970Y0000723032D01*
X0004199221Y0000723032D01*
X0004193596Y0000724907D01*
X0004189847Y0000728656D01*
X0004187972Y0000732406D01*
X0004186097Y0000739905D01*
X0004186097Y0000745529D01*
X0004187972Y0000753028D01*
X0004189847Y0000756778D01*
X0004193596Y0000760527D01*
X0004199221Y0000762402D01*
X0004202970Y0000762402D01*
X0004208595Y0000760527D01*
X0004210469Y0000758652D01*
X0004244215Y0000749278D02*
X0004244215Y0000723032D01*
X0004234841Y0000764277D02*
X0004225467Y0000736155D01*
X0004249839Y0000736155D01*
X0004169131Y0000549616D02*
X0004167256Y0000547741D01*
X0004161632Y0000545866D01*
X0004157882Y0000545866D01*
X0004152258Y0000547741D01*
X0004148508Y0000551491D01*
X0004146634Y0000555240D01*
X0004144759Y0000562739D01*
X0004144759Y0000568364D01*
X0004146634Y0000575863D01*
X0004148508Y0000579612D01*
X0004152258Y0000583362D01*
X0004157882Y0000585236D01*
X0004161632Y0000585236D01*
X0004167256Y0000583362D01*
X0004169131Y0000581487D01*
X0004202877Y0000585236D02*
X0004195377Y0000585236D01*
X0004191628Y0000583362D01*
X0004189753Y0000581487D01*
X0004186004Y0000575863D01*
X0004184129Y0000568364D01*
X0004184129Y0000553365D01*
X0004186004Y0000549616D01*
X0004187878Y0000547741D01*
X0004191628Y0000545866D01*
X0004199127Y0000545866D01*
X0004202877Y0000547741D01*
X0004204751Y0000549616D01*
X0004206626Y0000553365D01*
X0004206626Y0000562739D01*
X0004204751Y0000566489D01*
X0004202877Y0000568364D01*
X0004199127Y0000570238D01*
X0004191628Y0000570238D01*
X0004187878Y0000568364D01*
X0004186004Y0000566489D01*
X0004184129Y0000562739D01*
X0004459251Y0000503965D02*
X0004459251Y0000485218D01*
X0004419881Y0000485218D01*
X0004459251Y0000537711D02*
X0004459251Y0000515214D01*
X0004459251Y0000526463D02*
X0004419881Y0000526463D01*
X0004425505Y0000522713D01*
X0004429254Y0000518964D01*
X0004431129Y0000515214D01*
X0003956532Y0000545679D02*
X0003954658Y0000543804D01*
X0003949033Y0000541929D01*
X0003945284Y0000541929D01*
X0003939659Y0000543804D01*
X0003935910Y0000547554D01*
X0003934035Y0000551303D01*
X0003932160Y0000558802D01*
X0003932160Y0000564427D01*
X0003934035Y0000571926D01*
X0003935910Y0000575675D01*
X0003939659Y0000579425D01*
X0003945284Y0000581299D01*
X0003949033Y0000581299D01*
X0003954658Y0000579425D01*
X0003956532Y0000577550D01*
X0003992153Y0000581299D02*
X0003973405Y0000581299D01*
X0003971530Y0000562552D01*
X0003973405Y0000564427D01*
X0003977155Y0000566301D01*
X0003986529Y0000566301D01*
X0003990278Y0000564427D01*
X0003992153Y0000562552D01*
X0003994028Y0000558802D01*
X0003994028Y0000549428D01*
X0003992153Y0000545679D01*
X0003990278Y0000543804D01*
X0003986529Y0000541929D01*
X0003977155Y0000541929D01*
X0003973405Y0000543804D01*
X0003971530Y0000545679D01*
X0003892040Y0001270276D02*
X0003901414Y0001230906D01*
X0003908913Y0001259027D01*
X0003916412Y0001230906D01*
X0003925786Y0001270276D01*
X0003961407Y0001230906D02*
X0003938910Y0001230906D01*
X0003950158Y0001230906D02*
X0003950158Y0001270276D01*
X0003946409Y0001264652D01*
X0003942659Y0001260902D01*
X0003938910Y0001259027D01*
X0003797552Y0001270276D02*
X0003806926Y0001230906D01*
X0003814425Y0001259027D01*
X0003821924Y0001230906D01*
X0003831298Y0001270276D01*
X0003844421Y0001266526D02*
X0003846296Y0001268401D01*
X0003850046Y0001270276D01*
X0003859419Y0001270276D01*
X0003863169Y0001268401D01*
X0003865044Y0001266526D01*
X0003866919Y0001262777D01*
X0003866919Y0001259027D01*
X0003865044Y0001253403D01*
X0003842547Y0001230906D01*
X0003866919Y0001230906D01*
X0004411257Y0000401978D02*
X0004409382Y0000400103D01*
X0004403758Y0000398229D01*
X0004400008Y0000398229D01*
X0004394384Y0000400103D01*
X0004390634Y0000403853D01*
X0004388760Y0000407602D01*
X0004386885Y0000415101D01*
X0004386885Y0000420726D01*
X0004388760Y0000428225D01*
X0004390634Y0000431974D01*
X0004394384Y0000435724D01*
X0004400008Y0000437599D01*
X0004403758Y0000437599D01*
X0004409382Y0000435724D01*
X0004411257Y0000433849D01*
X0004424380Y0000437599D02*
X0004450627Y0000437599D01*
X0004433754Y0000398229D01*
X0004146259Y0000309084D02*
X0004127511Y0000295960D01*
X0004146259Y0000286586D02*
X0004106889Y0000286586D01*
X0004106889Y0000301584D01*
X0004108763Y0000305334D01*
X0004110638Y0000307209D01*
X0004114388Y0000309084D01*
X0004120012Y0000309084D01*
X0004123761Y0000307209D01*
X0004125636Y0000305334D01*
X0004127511Y0000301584D01*
X0004127511Y0000286586D01*
X0004106889Y0000342829D02*
X0004106889Y0000335330D01*
X0004108763Y0000331581D01*
X0004110638Y0000329706D01*
X0004116262Y0000325956D01*
X0004123761Y0000324082D01*
X0004138760Y0000324082D01*
X0004142509Y0000325956D01*
X0004144384Y0000327831D01*
X0004146259Y0000331581D01*
X0004146259Y0000339080D01*
X0004144384Y0000342829D01*
X0004142509Y0000344704D01*
X0004138760Y0000346579D01*
X0004129386Y0000346579D01*
X0004125636Y0000344704D01*
X0004123761Y0000342829D01*
X0004121887Y0000339080D01*
X0004121887Y0000331581D01*
X0004123761Y0000327831D01*
X0004125636Y0000325956D01*
X0004129386Y0000324082D01*
X0004309937Y0001108945D02*
X0004309937Y0001090197D01*
X0004296814Y0001129567D02*
X0004309937Y0001108945D01*
X0004323060Y0001129567D01*
X0004356806Y0001090197D02*
X0004334309Y0001090197D01*
X0004345557Y0001090197D02*
X0004345557Y0001129567D01*
X0004341808Y0001123943D01*
X0004338058Y0001120193D01*
X0004334309Y0001118319D01*
G04 next file*
G04 Gerber Fmt 4.6, Leading zero omitted, Abs format (unit mm)*
G04 Created by KiCad (PCBNEW 4.0.7) date Thursday, 08 March 2018 'PMt' 14:48:31*
G01G01*
G04 APERTURE LIST*
G04 APERTURE END LIST*
D48*
D49*
X0004206472Y0002393908D02*
X0004206472Y0002366349D01*
X0004159228Y0002366349D02*
X0004159228Y0002393908D01*
X0003608559Y0001636716D02*
X0003608559Y0001836716D01*
X0003608559Y0001836716D02*
X0003508559Y0001836716D01*
X0003508559Y0001836716D02*
X0003508559Y0001636716D01*
X0003497535Y0001525692D02*
X0003497535Y0001586716D01*
X0003508559Y0001636716D02*
X0003608559Y0001636716D01*
X0003619582Y0001586716D02*
X0003619582Y0001525692D01*
X0003619582Y0001525692D02*
X0003497535Y0001525692D01*
X0003619976Y0002389669D02*
X0003659346Y0002389669D01*
X0003659346Y0002336519D02*
X0003619976Y0002336519D01*
X0004138165Y0002146703D02*
X0004177535Y0002146703D01*
X0004177535Y0002093553D02*
X0004138165Y0002093553D01*
X0004076275Y0002577943D02*
X0004076275Y0002617313D01*
X0004129425Y0002617313D02*
X0004129425Y0002577943D01*
X0004007535Y0002541053D02*
X0003968165Y0002541053D01*
X0003968165Y0002594203D02*
X0004007535Y0002594203D01*
X0003825665Y0002594203D02*
X0003865035Y0002594203D01*
X0003865035Y0002541053D02*
X0003825665Y0002541053D01*
D50*
X0003564464Y0002516637D02*
X0003564464Y0002445771D01*
X0003691236Y0002445771D02*
X0003691236Y0002542228D01*
D49*
X0003636748Y0002098330D02*
X0003754858Y0002098330D01*
X0003636748Y0002025496D02*
X0003754858Y0002025496D01*
X0003636748Y0002025496D02*
X0003636748Y0001953645D01*
X0003754858Y0002025496D02*
X0003754858Y0001953645D01*
X0003636748Y0001953645D02*
X0003511747Y0001953645D01*
X0003754858Y0001953645D02*
X0003879858Y0001953645D01*
X0003511747Y0001953645D02*
X0003511747Y0002087503D01*
X0003879858Y0001953645D02*
X0003879858Y0002087503D01*
X0003511747Y0002087503D02*
X0003636748Y0002087503D01*
X0003879858Y0002087503D02*
X0003754858Y0002087503D01*
X0003636748Y0002087503D02*
X0003636748Y0002098330D01*
X0003754858Y0002087503D02*
X0003754858Y0002098330D01*
X0004293204Y0002361519D02*
X0004293204Y0002422543D01*
X0004293204Y0002422543D02*
X0004415251Y0002422543D01*
X0004415251Y0002422543D02*
X0004415251Y0002361519D01*
X0004404228Y0002311519D02*
X0004404228Y0001911519D01*
X0004404228Y0001911519D02*
X0004304228Y0001911519D01*
X0004304228Y0001911519D02*
X0004304228Y0002311519D01*
X0004404228Y0002311519D02*
X0004304228Y0002311519D01*
X0004293204Y0002924118D02*
X0004293204Y0002985141D01*
X0004293204Y0002985141D02*
X0004415251Y0002985141D01*
X0004415251Y0002985141D02*
X0004415251Y0002924118D01*
X0004404228Y0002874118D02*
X0004404228Y0002474118D01*
X0004404228Y0002474118D02*
X0004304228Y0002474118D01*
X0004304228Y0002474118D02*
X0004304228Y0002874118D01*
X0004404228Y0002874118D02*
X0004304228Y0002874118D01*
D51*
X0004127850Y0002420128D02*
X0004127850Y0002270128D01*
X0003752850Y0002420128D02*
X0003752850Y0002370128D01*
X0003752850Y0002370128D02*
X0003777850Y0002345128D01*
X0003777850Y0002345128D02*
X0003752850Y0002320128D01*
X0003752850Y0002320128D02*
X0003752850Y0002270128D01*
D49*
X0003704228Y0002684354D02*
X0003704228Y0002723724D01*
X0003637299Y0002723724D02*
X0003637299Y0002684354D01*
X0004216315Y0002215443D02*
X0004216315Y0002254813D01*
X0004149385Y0002254813D02*
X0004149385Y0002215443D01*
X0003698322Y0002558370D02*
X0003737692Y0002558370D01*
X0003737692Y0002625299D02*
X0003698322Y0002625299D01*
X0003757377Y0002674511D02*
X0003784937Y0002674511D01*
X0003784937Y0002627267D02*
X0003757377Y0002627267D01*
D50*
X0003540055Y0002733566D02*
X0003540055Y0002780811D01*
X0003609346Y0002780811D02*
X0003609346Y0002733566D01*
D49*
X0003975881Y0002656795D02*
X0004003440Y0002656795D01*
X0004003440Y0002609551D02*
X0003975881Y0002609551D01*
X0003627456Y0002875299D02*
X0003655015Y0002875299D01*
X0003655015Y0002828055D02*
X0003627456Y0002828055D01*
X0003697338Y0002954039D02*
X0003697338Y0002914669D01*
X0003644188Y0002914669D02*
X0003644188Y0002954039D01*
D50*
X0003702811Y0002191204D02*
X0003702811Y0002321125D01*
X0003702811Y0002321125D02*
X0003545330Y0002321125D01*
D49*
X0004223632Y0002356270D02*
X0004221757Y0002358145D01*
X0004219882Y0002363769D01*
X0004219882Y0002367518D01*
X0004221757Y0002373143D01*
X0004225506Y0002376892D01*
X0004229256Y0002378767D01*
X0004236755Y0002380642D01*
X0004242379Y0002380642D01*
X0004249878Y0002378767D01*
X0004253628Y0002376892D01*
X0004257377Y0002373143D01*
X0004259252Y0002367518D01*
X0004259252Y0002363769D01*
X0004257377Y0002358145D01*
X0004255503Y0002356270D01*
X0004255503Y0002341272D02*
X0004257377Y0002339397D01*
X0004259252Y0002335647D01*
X0004259252Y0002326274D01*
X0004257377Y0002322524D01*
X0004255503Y0002320649D01*
X0004251753Y0002318775D01*
X0004248004Y0002318775D01*
X0004242379Y0002320649D01*
X0004219882Y0002343146D01*
X0004219882Y0002318775D01*
X0003571682Y0001491140D02*
X0003571682Y0001519262D01*
X0003573557Y0001524886D01*
X0003577306Y0001528636D01*
X0003582930Y0001530511D01*
X0003586680Y0001530511D01*
X0003536061Y0001491140D02*
X0003543560Y0001491140D01*
X0003547310Y0001493015D01*
X0003549185Y0001494890D01*
X0003552934Y0001500514D01*
X0003554809Y0001508013D01*
X0003554809Y0001523012D01*
X0003552934Y0001526761D01*
X0003551060Y0001528636D01*
X0003547310Y0001530511D01*
X0003539811Y0001530511D01*
X0003536061Y0001528636D01*
X0003534187Y0001526761D01*
X0003532312Y0001523012D01*
X0003532312Y0001513638D01*
X0003534187Y0001509888D01*
X0003536061Y0001508013D01*
X0003539811Y0001506139D01*
X0003547310Y0001506139D01*
X0003551060Y0001508013D01*
X0003552934Y0001509888D01*
X0003554809Y0001513638D01*
X0003646223Y0002306101D02*
X0003659346Y0002287353D01*
X0003668720Y0002306101D02*
X0003668720Y0002266731D01*
X0003653722Y0002266731D01*
X0003649972Y0002268606D01*
X0003648097Y0002270481D01*
X0003646223Y0002274230D01*
X0003646223Y0002279854D01*
X0003648097Y0002283604D01*
X0003649972Y0002285479D01*
X0003653722Y0002287353D01*
X0003668720Y0002287353D01*
X0003610602Y0002266731D02*
X0003629350Y0002266731D01*
X0003631224Y0002285479D01*
X0003629350Y0002283604D01*
X0003625600Y0002281729D01*
X0003616226Y0002281729D01*
X0003612477Y0002283604D01*
X0003610602Y0002285479D01*
X0003608727Y0002289228D01*
X0003608727Y0002298602D01*
X0003610602Y0002302352D01*
X0003612477Y0002304226D01*
X0003616226Y0002306101D01*
X0003625600Y0002306101D01*
X0003629350Y0002304226D01*
X0003631224Y0002302352D01*
X0004173388Y0002084054D02*
X0004186511Y0002065306D01*
X0004195885Y0002084054D02*
X0004195885Y0002044684D01*
X0004180887Y0002044684D01*
X0004177137Y0002046559D01*
X0004175263Y0002048433D01*
X0004173388Y0002052183D01*
X0004173388Y0002057807D01*
X0004175263Y0002061557D01*
X0004177137Y0002063431D01*
X0004180887Y0002065306D01*
X0004195885Y0002065306D01*
X0004139642Y0002057807D02*
X0004139642Y0002084054D01*
X0004149016Y0002042809D02*
X0004158390Y0002070931D01*
X0004134018Y0002070931D01*
X0004159843Y0002604190D02*
X0004178591Y0002617313D01*
X0004159843Y0002626687D02*
X0004199213Y0002626687D01*
X0004199213Y0002611689D01*
X0004197338Y0002607939D01*
X0004195463Y0002606065D01*
X0004191714Y0002604190D01*
X0004186090Y0002604190D01*
X0004182340Y0002606065D01*
X0004180465Y0002607939D01*
X0004178591Y0002611689D01*
X0004178591Y0002626687D01*
X0004199213Y0002591066D02*
X0004199213Y0002566695D01*
X0004184215Y0002579818D01*
X0004184215Y0002574194D01*
X0004182340Y0002570444D01*
X0004180465Y0002568569D01*
X0004176716Y0002566695D01*
X0004167342Y0002566695D01*
X0004163592Y0002568569D01*
X0004161718Y0002570444D01*
X0004159843Y0002574194D01*
X0004159843Y0002585442D01*
X0004161718Y0002589192D01*
X0004163592Y0002591066D01*
X0003994412Y0002660242D02*
X0004007535Y0002641494D01*
X0004016909Y0002660242D02*
X0004016909Y0002620872D01*
X0004001911Y0002620872D01*
X0003998161Y0002622746D01*
X0003996286Y0002624621D01*
X0003994412Y0002628371D01*
X0003994412Y0002633995D01*
X0003996286Y0002637744D01*
X0003998161Y0002639619D01*
X0004001911Y0002641494D01*
X0004016909Y0002641494D01*
X0003979414Y0002624621D02*
X0003977539Y0002622746D01*
X0003973789Y0002620872D01*
X0003964415Y0002620872D01*
X0003960666Y0002622746D01*
X0003958791Y0002624621D01*
X0003956916Y0002628371D01*
X0003956916Y0002632120D01*
X0003958791Y0002637744D01*
X0003981288Y0002660242D01*
X0003956916Y0002660242D01*
X0003884018Y0002650983D02*
X0003897141Y0002632235D01*
X0003906515Y0002650983D02*
X0003906515Y0002611613D01*
X0003891517Y0002611613D01*
X0003887767Y0002613488D01*
X0003885893Y0002615362D01*
X0003884018Y0002619112D01*
X0003884018Y0002624736D01*
X0003885893Y0002628486D01*
X0003887767Y0002630361D01*
X0003891517Y0002632235D01*
X0003906515Y0002632235D01*
X0003846523Y0002650983D02*
X0003869020Y0002650983D01*
X0003857771Y0002650983D02*
X0003857771Y0002611613D01*
X0003861521Y0002617237D01*
X0003865270Y0002620987D01*
X0003869020Y0002622862D01*
X0003550591Y0002515531D02*
X0003518720Y0002515531D01*
X0003514970Y0002513656D01*
X0003513095Y0002511782D01*
X0003511221Y0002508032D01*
X0003511221Y0002500533D01*
X0003513095Y0002496784D01*
X0003514970Y0002494909D01*
X0003518720Y0002493034D01*
X0003550591Y0002493034D01*
X0003546841Y0002476161D02*
X0003548716Y0002474286D01*
X0003550591Y0002470537D01*
X0003550591Y0002461163D01*
X0003548716Y0002457413D01*
X0003546841Y0002455539D01*
X0003543092Y0002453664D01*
X0003539342Y0002453664D01*
X0003533718Y0002455539D01*
X0003511221Y0002478036D01*
X0003511221Y0002453664D01*
X0003703125Y0001896829D02*
X0003703125Y0001930574D01*
X0003705375Y0001937323D01*
X0003709875Y0001941823D01*
X0003716624Y0001944073D01*
X0003721123Y0001944073D01*
X0003658131Y0001896829D02*
X0003680628Y0001896829D01*
X0003682878Y0001919326D01*
X0003680628Y0001917076D01*
X0003676129Y0001914826D01*
X0003664880Y0001914826D01*
X0003660381Y0001917076D01*
X0003658131Y0001919326D01*
X0003655881Y0001923825D01*
X0003655881Y0001935074D01*
X0003658131Y0001939573D01*
X0003660381Y0001941823D01*
X0003664880Y0001944073D01*
X0003676129Y0001944073D01*
X0003680628Y0001941823D01*
X0003682878Y0001939573D01*
X0004282874Y0002451414D02*
X0004254753Y0002451414D01*
X0004249128Y0002453289D01*
X0004245379Y0002457039D01*
X0004243504Y0002462663D01*
X0004243504Y0002466412D01*
X0004282874Y0002436416D02*
X0004282874Y0002412044D01*
X0004267876Y0002425167D01*
X0004267876Y0002419543D01*
X0004266001Y0002415794D01*
X0004264127Y0002413919D01*
X0004260377Y0002412044D01*
X0004251003Y0002412044D01*
X0004247254Y0002413919D01*
X0004245379Y0002415794D01*
X0004243504Y0002419543D01*
X0004243504Y0002430792D01*
X0004245379Y0002434541D01*
X0004247254Y0002436416D01*
X0004288780Y0002977005D02*
X0004260658Y0002977005D01*
X0004255034Y0002978880D01*
X0004251284Y0002982629D01*
X0004249410Y0002988253D01*
X0004249410Y0002992003D01*
X0004285030Y0002960132D02*
X0004286905Y0002958257D01*
X0004288780Y0002954508D01*
X0004288780Y0002945134D01*
X0004286905Y0002941384D01*
X0004285030Y0002939509D01*
X0004281281Y0002937635D01*
X0004277531Y0002937635D01*
X0004271907Y0002939509D01*
X0004249410Y0002962007D01*
X0004249410Y0002937635D01*
X0003900501Y0002701140D02*
X0003900501Y0002729262D01*
X0003902376Y0002734886D01*
X0003906125Y0002738636D01*
X0003911749Y0002740511D01*
X0003915499Y0002740511D01*
X0003861131Y0002740511D02*
X0003883628Y0002740511D01*
X0003872379Y0002740511D02*
X0003872379Y0002701140D01*
X0003876129Y0002706765D01*
X0003879878Y0002710514D01*
X0003883628Y0002712389D01*
X0003769095Y0002161200D02*
X0003737224Y0002161200D01*
X0003733474Y0002159326D01*
X0003731599Y0002157451D01*
X0003729725Y0002153701D01*
X0003729725Y0002146202D01*
X0003731599Y0002142453D01*
X0003733474Y0002140578D01*
X0003737224Y0002138703D01*
X0003769095Y0002138703D01*
X0003729725Y0002099333D02*
X0003729725Y0002121830D01*
X0003729725Y0002110582D02*
X0003769095Y0002110582D01*
X0003763470Y0002114331D01*
X0003759721Y0002118081D01*
X0003757846Y0002121830D01*
X0003585836Y0002657451D02*
X0003583962Y0002659326D01*
X0003582087Y0002664950D01*
X0003582087Y0002668700D01*
X0003583962Y0002674324D01*
X0003587711Y0002678073D01*
X0003591461Y0002679948D01*
X0003598960Y0002681823D01*
X0003604584Y0002681823D01*
X0003612083Y0002679948D01*
X0003615833Y0002678073D01*
X0003619582Y0002674324D01*
X0003621457Y0002668700D01*
X0003621457Y0002664950D01*
X0003619582Y0002659326D01*
X0003617707Y0002657451D01*
X0003582087Y0002619956D02*
X0003582087Y0002642453D01*
X0003582087Y0002631204D02*
X0003621457Y0002631204D01*
X0003615833Y0002634954D01*
X0003612083Y0002638703D01*
X0003610208Y0002642453D01*
X0004229537Y0002241690D02*
X0004227662Y0002243565D01*
X0004225788Y0002249189D01*
X0004225788Y0002252938D01*
X0004227662Y0002258563D01*
X0004231412Y0002262312D01*
X0004235161Y0002264187D01*
X0004242661Y0002266062D01*
X0004248285Y0002266062D01*
X0004255784Y0002264187D01*
X0004259533Y0002262312D01*
X0004263283Y0002258563D01*
X0004265158Y0002252938D01*
X0004265158Y0002249189D01*
X0004263283Y0002243565D01*
X0004261408Y0002241690D01*
X0004265158Y0002228566D02*
X0004265158Y0002204195D01*
X0004250160Y0002217318D01*
X0004250160Y0002211694D01*
X0004248285Y0002207944D01*
X0004246410Y0002206069D01*
X0004242661Y0002204195D01*
X0004233287Y0002204195D01*
X0004229537Y0002206069D01*
X0004227662Y0002207944D01*
X0004225788Y0002211694D01*
X0004225788Y0002222942D01*
X0004227662Y0002226692D01*
X0004229537Y0002228566D01*
X0003742286Y0002540934D02*
X0003744160Y0002542809D01*
X0003749785Y0002544684D01*
X0003753534Y0002544684D01*
X0003759158Y0002542809D01*
X0003762908Y0002539060D01*
X0003764783Y0002535310D01*
X0003766658Y0002527811D01*
X0003766658Y0002522187D01*
X0003764783Y0002514688D01*
X0003762908Y0002510938D01*
X0003759158Y0002507188D01*
X0003753534Y0002505314D01*
X0003749785Y0002505314D01*
X0003744160Y0002507188D01*
X0003742286Y0002509063D01*
X0003708540Y0002518437D02*
X0003708540Y0002544684D01*
X0003717914Y0002503439D02*
X0003727287Y0002531560D01*
X0003702915Y0002531560D01*
X0003783624Y0002718100D02*
X0003785499Y0002719974D01*
X0003791123Y0002721849D01*
X0003794873Y0002721849D01*
X0003800497Y0002719974D01*
X0003804247Y0002716225D01*
X0003806121Y0002712475D01*
X0003807996Y0002704976D01*
X0003807996Y0002699352D01*
X0003806121Y0002691853D01*
X0003804247Y0002688103D01*
X0003800497Y0002684354D01*
X0003794873Y0002682479D01*
X0003791123Y0002682479D01*
X0003785499Y0002684354D01*
X0003783624Y0002686229D01*
X0003749878Y0002682479D02*
X0003757377Y0002682479D01*
X0003761127Y0002684354D01*
X0003763002Y0002686229D01*
X0003766751Y0002691853D01*
X0003768626Y0002699352D01*
X0003768626Y0002714350D01*
X0003766751Y0002718100D01*
X0003764877Y0002719974D01*
X0003761127Y0002721849D01*
X0003753628Y0002721849D01*
X0003749878Y0002719974D01*
X0003748004Y0002718100D01*
X0003746129Y0002714350D01*
X0003746129Y0002704976D01*
X0003748004Y0002701227D01*
X0003749878Y0002699352D01*
X0003753628Y0002697477D01*
X0003761127Y0002697477D01*
X0003764877Y0002699352D01*
X0003766751Y0002701227D01*
X0003768626Y0002704976D01*
X0003493504Y0002763750D02*
X0003493504Y0002782498D01*
X0003532874Y0002782498D01*
X0003493504Y0002730004D02*
X0003493504Y0002752502D01*
X0003493504Y0002741253D02*
X0003532874Y0002741253D01*
X0003527250Y0002745002D01*
X0003523500Y0002748752D01*
X0003521626Y0002752502D01*
X0003996223Y0002722037D02*
X0003998097Y0002723911D01*
X0004003722Y0002725786D01*
X0004007471Y0002725786D01*
X0004013095Y0002723911D01*
X0004016845Y0002720162D01*
X0004018720Y0002716412D01*
X0004020595Y0002708913D01*
X0004020595Y0002703289D01*
X0004018720Y0002695790D01*
X0004016845Y0002692040D01*
X0004013095Y0002688291D01*
X0004007471Y0002686416D01*
X0004003722Y0002686416D01*
X0003998097Y0002688291D01*
X0003996223Y0002690166D01*
X0003960602Y0002686416D02*
X0003979350Y0002686416D01*
X0003981224Y0002705164D01*
X0003979350Y0002703289D01*
X0003975600Y0002701414D01*
X0003966226Y0002701414D01*
X0003962477Y0002703289D01*
X0003960602Y0002705164D01*
X0003958727Y0002708913D01*
X0003958727Y0002718287D01*
X0003960602Y0002722037D01*
X0003962477Y0002723911D01*
X0003966226Y0002725786D01*
X0003975600Y0002725786D01*
X0003979350Y0002723911D01*
X0003981224Y0002722037D01*
X0004060715Y0001997440D02*
X0004051341Y0002036810D01*
X0004043842Y0002008688D01*
X0004036343Y0002036810D01*
X0004026969Y0001997440D01*
X0003991348Y0002036810D02*
X0004013845Y0002036810D01*
X0004002597Y0002036810D02*
X0004002597Y0001997440D01*
X0004006346Y0002003064D01*
X0004010096Y0002006814D01*
X0004013845Y0002008688D01*
X0004155203Y0001997440D02*
X0004145829Y0002036810D01*
X0004138330Y0002008688D01*
X0004130831Y0002036810D01*
X0004121457Y0001997440D01*
X0004108334Y0002001189D02*
X0004106459Y0001999314D01*
X0004102709Y0001997440D01*
X0004093335Y0001997440D01*
X0004089586Y0001999314D01*
X0004087711Y0002001189D01*
X0004085836Y0002004939D01*
X0004085836Y0002008688D01*
X0004087711Y0002014313D01*
X0004110208Y0002036810D01*
X0004085836Y0002036810D01*
X0003541498Y0002865737D02*
X0003543373Y0002867612D01*
X0003548997Y0002869487D01*
X0003552747Y0002869487D01*
X0003558371Y0002867612D01*
X0003562121Y0002863863D01*
X0003563995Y0002860113D01*
X0003565870Y0002852614D01*
X0003565870Y0002846990D01*
X0003563995Y0002839491D01*
X0003562121Y0002835741D01*
X0003558371Y0002831992D01*
X0003552747Y0002830117D01*
X0003548997Y0002830117D01*
X0003543373Y0002831992D01*
X0003541498Y0002833866D01*
X0003528375Y0002830117D02*
X0003502128Y0002830117D01*
X0003519001Y0002869487D01*
X0003806496Y0002958632D02*
X0003825244Y0002971755D01*
X0003806496Y0002981129D02*
X0003845866Y0002981129D01*
X0003845866Y0002966131D01*
X0003843992Y0002962382D01*
X0003842117Y0002960507D01*
X0003838367Y0002958632D01*
X0003832743Y0002958632D01*
X0003828994Y0002960507D01*
X0003827119Y0002962382D01*
X0003825244Y0002966131D01*
X0003825244Y0002981129D01*
X0003845866Y0002924886D02*
X0003845866Y0002932385D01*
X0003843992Y0002936135D01*
X0003842117Y0002938010D01*
X0003836493Y0002941759D01*
X0003828994Y0002943634D01*
X0003813995Y0002943634D01*
X0003810246Y0002941759D01*
X0003808371Y0002939884D01*
X0003806496Y0002936135D01*
X0003806496Y0002928636D01*
X0003808371Y0002924886D01*
X0003810246Y0002923011D01*
X0003813995Y0002921137D01*
X0003823369Y0002921137D01*
X0003827119Y0002923011D01*
X0003828994Y0002924886D01*
X0003830868Y0002928636D01*
X0003830868Y0002936135D01*
X0003828994Y0002939884D01*
X0003827119Y0002941759D01*
X0003823369Y0002943634D01*
X0003642818Y0002158771D02*
X0003642818Y0002177518D01*
X0003655941Y0002138148D02*
X0003642818Y0002158771D01*
X0003629695Y0002138148D01*
X0003595949Y0002177518D02*
X0003618446Y0002177518D01*
X0003607197Y0002177518D02*
X0003607197Y0002138148D01*
X0003610947Y0002143773D01*
X0003614697Y0002147522D01*
X0003618446Y0002149397D01*
G04 next file*
G04 Gerber Fmt 4.6, Leading zero omitted, Abs format (unit mm)*
G04 Created by KiCad (PCBNEW 4.0.7) date Thursday, 08 March 2018 'PMt' 14:48:31*
G01G01*
G04 APERTURE LIST*
G04 APERTURE END LIST*
D52*
D53*
X0004809275Y0000873808D02*
X0004809275Y0000901367D01*
X0004856519Y0000901367D02*
X0004856519Y0000873808D01*
X0005407188Y0001631000D02*
X0005407188Y0001431000D01*
X0005407188Y0001431000D02*
X0005507188Y0001431000D01*
X0005507188Y0001431000D02*
X0005507188Y0001631000D01*
X0005518212Y0001742023D02*
X0005518212Y0001681000D01*
X0005507188Y0001631000D02*
X0005407188Y0001631000D01*
X0005396165Y0001681000D02*
X0005396165Y0001742023D01*
X0005396165Y0001742023D02*
X0005518212Y0001742023D01*
X0005395771Y0000878047D02*
X0005356401Y0000878047D01*
X0005356401Y0000931196D02*
X0005395771Y0000931196D01*
X0004877582Y0001121013D02*
X0004838212Y0001121013D01*
X0004838212Y0001174162D02*
X0004877582Y0001174162D01*
X0004939472Y0000689772D02*
X0004939472Y0000650402D01*
X0004886322Y0000650402D02*
X0004886322Y0000689772D01*
X0005008212Y0000726662D02*
X0005047582Y0000726662D01*
X0005047582Y0000673513D02*
X0005008212Y0000673513D01*
X0005190082Y0000673513D02*
X0005150712Y0000673513D01*
X0005150712Y0000726662D02*
X0005190082Y0000726662D01*
D54*
X0005451283Y0000751078D02*
X0005451283Y0000821944D01*
X0005324511Y0000821944D02*
X0005324511Y0000725488D01*
D53*
X0005379000Y0001169385D02*
X0005260889Y0001169385D01*
X0005379000Y0001242220D02*
X0005260889Y0001242220D01*
X0005379000Y0001242220D02*
X0005379000Y0001314070D01*
X0005260889Y0001242220D02*
X0005260889Y0001314070D01*
X0005379000Y0001314070D02*
X0005504000Y0001314070D01*
X0005260889Y0001314070D02*
X0005135889Y0001314070D01*
X0005504000Y0001314070D02*
X0005504000Y0001180212D01*
X0005135889Y0001314070D02*
X0005135889Y0001180212D01*
X0005504000Y0001180212D02*
X0005379000Y0001180212D01*
X0005135889Y0001180212D02*
X0005260889Y0001180212D01*
X0005379000Y0001180212D02*
X0005379000Y0001169385D01*
X0005260889Y0001180212D02*
X0005260889Y0001169385D01*
X0004722543Y0000906196D02*
X0004722543Y0000845173D01*
X0004722543Y0000845173D02*
X0004600496Y0000845173D01*
X0004600496Y0000845173D02*
X0004600496Y0000906196D01*
X0004611519Y0000956196D02*
X0004611519Y0001356196D01*
X0004611519Y0001356196D02*
X0004711519Y0001356196D01*
X0004711519Y0001356196D02*
X0004711519Y0000956196D01*
X0004611519Y0000956196D02*
X0004711519Y0000956196D01*
X0004722543Y0000343598D02*
X0004722543Y0000282574D01*
X0004722543Y0000282574D02*
X0004600496Y0000282574D01*
X0004600496Y0000282574D02*
X0004600496Y0000343598D01*
X0004611519Y0000393598D02*
X0004611519Y0000793598D01*
X0004611519Y0000793598D02*
X0004711519Y0000793598D01*
X0004711519Y0000793598D02*
X0004711519Y0000393598D01*
X0004611519Y0000393598D02*
X0004711519Y0000393598D01*
D55*
X0004887897Y0000847587D02*
X0004887897Y0000997587D01*
X0005262897Y0000847587D02*
X0005262897Y0000897587D01*
X0005262897Y0000897587D02*
X0005237897Y0000922587D01*
X0005237897Y0000922587D02*
X0005262897Y0000947587D01*
X0005262897Y0000947587D02*
X0005262897Y0000997587D01*
D53*
X0005311519Y0000583362D02*
X0005311519Y0000543992D01*
X0005378448Y0000543992D02*
X0005378448Y0000583362D01*
X0004799432Y0001052272D02*
X0004799432Y0001012902D01*
X0004866362Y0001012902D02*
X0004866362Y0001052272D01*
X0005317425Y0000709346D02*
X0005278055Y0000709346D01*
X0005278055Y0000642417D02*
X0005317425Y0000642417D01*
X0005258370Y0000593204D02*
X0005230810Y0000593204D01*
X0005230810Y0000640448D02*
X0005258370Y0000640448D01*
D54*
X0005475692Y0000534149D02*
X0005475692Y0000486905D01*
X0005406401Y0000486905D02*
X0005406401Y0000534149D01*
D53*
X0005039866Y0000610921D02*
X0005012307Y0000610921D01*
X0005012307Y0000658165D02*
X0005039866Y0000658165D01*
X0005388291Y0000392417D02*
X0005360732Y0000392417D01*
X0005360732Y0000439661D02*
X0005388291Y0000439661D01*
X0005318409Y0000313677D02*
X0005318409Y0000353047D01*
X0005371559Y0000353047D02*
X0005371559Y0000313677D01*
D54*
X0005312937Y0001076511D02*
X0005312937Y0000946590D01*
X0005312937Y0000946590D02*
X0005470417Y0000946590D01*
D53*
X0004792115Y0000911446D02*
X0004793990Y0000909571D01*
X0004795865Y0000903947D01*
X0004795865Y0000900197D01*
X0004793990Y0000894573D01*
X0004790241Y0000890823D01*
X0004786491Y0000888948D01*
X0004778992Y0000887074D01*
X0004773368Y0000887074D01*
X0004765869Y0000888948D01*
X0004762119Y0000890823D01*
X0004758370Y0000894573D01*
X0004756495Y0000900197D01*
X0004756495Y0000903947D01*
X0004758370Y0000909571D01*
X0004760244Y0000911446D01*
X0004760244Y0000926444D02*
X0004758370Y0000928319D01*
X0004756495Y0000932068D01*
X0004756495Y0000941442D01*
X0004758370Y0000945192D01*
X0004760244Y0000947066D01*
X0004763994Y0000948941D01*
X0004767743Y0000948941D01*
X0004773368Y0000947066D01*
X0004795865Y0000924569D01*
X0004795865Y0000948941D01*
X0005444065Y0001776575D02*
X0005444065Y0001748454D01*
X0005442190Y0001742829D01*
X0005438441Y0001739080D01*
X0005432817Y0001737205D01*
X0005429067Y0001737205D01*
X0005479686Y0001776575D02*
X0005472187Y0001776575D01*
X0005468437Y0001774700D01*
X0005466562Y0001772826D01*
X0005462813Y0001767201D01*
X0005460938Y0001759702D01*
X0005460938Y0001744704D01*
X0005462813Y0001740955D01*
X0005464688Y0001739080D01*
X0005468437Y0001737205D01*
X0005475936Y0001737205D01*
X0005479686Y0001739080D01*
X0005481560Y0001740955D01*
X0005483435Y0001744704D01*
X0005483435Y0001754078D01*
X0005481560Y0001757827D01*
X0005479686Y0001759702D01*
X0005475936Y0001761577D01*
X0005468437Y0001761577D01*
X0005464688Y0001759702D01*
X0005462813Y0001757827D01*
X0005460938Y0001754078D01*
X0005369524Y0000961614D02*
X0005356401Y0000980362D01*
X0005347027Y0000961614D02*
X0005347027Y0001000985D01*
X0005362025Y0001000985D01*
X0005365775Y0000999110D01*
X0005367650Y0000997235D01*
X0005369524Y0000993485D01*
X0005369524Y0000987861D01*
X0005367650Y0000984112D01*
X0005365775Y0000982237D01*
X0005362025Y0000980362D01*
X0005347027Y0000980362D01*
X0005405145Y0001000985D02*
X0005386397Y0001000985D01*
X0005384523Y0000982237D01*
X0005386397Y0000984112D01*
X0005390147Y0000985986D01*
X0005399521Y0000985986D01*
X0005403270Y0000984112D01*
X0005405145Y0000982237D01*
X0005407020Y0000978487D01*
X0005407020Y0000969113D01*
X0005405145Y0000965364D01*
X0005403270Y0000963489D01*
X0005399521Y0000961614D01*
X0005390147Y0000961614D01*
X0005386397Y0000963489D01*
X0005384523Y0000965364D01*
X0004842359Y0001183662D02*
X0004829236Y0001202409D01*
X0004819862Y0001183662D02*
X0004819862Y0001223032D01*
X0004834860Y0001223032D01*
X0004838610Y0001221157D01*
X0004840484Y0001219282D01*
X0004842359Y0001215533D01*
X0004842359Y0001209908D01*
X0004840484Y0001206159D01*
X0004838610Y0001204284D01*
X0004834860Y0001202409D01*
X0004819862Y0001202409D01*
X0004876105Y0001209908D02*
X0004876105Y0001183662D01*
X0004866731Y0001224907D02*
X0004857357Y0001196785D01*
X0004881729Y0001196785D01*
X0004855904Y0000663526D02*
X0004837157Y0000650402D01*
X0004855904Y0000641028D02*
X0004816534Y0000641028D01*
X0004816534Y0000656027D01*
X0004818409Y0000659776D01*
X0004820284Y0000661651D01*
X0004824033Y0000663526D01*
X0004829657Y0000663526D01*
X0004833407Y0000661651D01*
X0004835282Y0000659776D01*
X0004837157Y0000656027D01*
X0004837157Y0000641028D01*
X0004816534Y0000676649D02*
X0004816534Y0000701021D01*
X0004831532Y0000687898D01*
X0004831532Y0000693522D01*
X0004833407Y0000697272D01*
X0004835282Y0000699146D01*
X0004839031Y0000701021D01*
X0004848405Y0000701021D01*
X0004852155Y0000699146D01*
X0004854029Y0000697272D01*
X0004855904Y0000693522D01*
X0004855904Y0000682273D01*
X0004854029Y0000678524D01*
X0004852155Y0000676649D01*
X0005021335Y0000607474D02*
X0005008212Y0000626222D01*
X0004998838Y0000607474D02*
X0004998838Y0000646844D01*
X0005013836Y0000646844D01*
X0005017586Y0000644969D01*
X0005019461Y0000643095D01*
X0005021335Y0000639345D01*
X0005021335Y0000633721D01*
X0005019461Y0000629971D01*
X0005017586Y0000628096D01*
X0005013836Y0000626222D01*
X0004998838Y0000626222D01*
X0005036334Y0000643095D02*
X0005038208Y0000644969D01*
X0005041958Y0000646844D01*
X0005051332Y0000646844D01*
X0005055081Y0000644969D01*
X0005056956Y0000643095D01*
X0005058831Y0000639345D01*
X0005058831Y0000635595D01*
X0005056956Y0000629971D01*
X0005034459Y0000607474D01*
X0005058831Y0000607474D01*
X0005131729Y0000616733D02*
X0005118606Y0000635480D01*
X0005109232Y0000616733D02*
X0005109232Y0000656103D01*
X0005124230Y0000656103D01*
X0005127980Y0000654228D01*
X0005129854Y0000652353D01*
X0005131729Y0000648604D01*
X0005131729Y0000642979D01*
X0005129854Y0000639230D01*
X0005127980Y0000637355D01*
X0005124230Y0000635480D01*
X0005109232Y0000635480D01*
X0005169225Y0000616733D02*
X0005146727Y0000616733D01*
X0005157976Y0000616733D02*
X0005157976Y0000656103D01*
X0005154226Y0000650478D01*
X0005150477Y0000646729D01*
X0005146727Y0000644854D01*
X0005465156Y0000752184D02*
X0005497027Y0000752184D01*
X0005500777Y0000754059D01*
X0005502652Y0000755934D01*
X0005504526Y0000759683D01*
X0005504526Y0000767182D01*
X0005502652Y0000770932D01*
X0005500777Y0000772807D01*
X0005497027Y0000774682D01*
X0005465156Y0000774682D01*
X0005468906Y0000791554D02*
X0005467031Y0000793429D01*
X0005465156Y0000797179D01*
X0005465156Y0000806553D01*
X0005467031Y0000810302D01*
X0005468906Y0000812177D01*
X0005472655Y0000814052D01*
X0005476405Y0000814052D01*
X0005482029Y0000812177D01*
X0005504526Y0000789680D01*
X0005504526Y0000814052D01*
X0005312622Y0001370887D02*
X0005312622Y0001337141D01*
X0005310372Y0001330392D01*
X0005305872Y0001325893D01*
X0005299123Y0001323643D01*
X0005294624Y0001323643D01*
X0005357616Y0001370887D02*
X0005335119Y0001370887D01*
X0005332869Y0001348390D01*
X0005335119Y0001350640D01*
X0005339618Y0001352889D01*
X0005350867Y0001352889D01*
X0005355366Y0001350640D01*
X0005357616Y0001348390D01*
X0005359866Y0001343890D01*
X0005359866Y0001332642D01*
X0005357616Y0001328142D01*
X0005355366Y0001325893D01*
X0005350867Y0001323643D01*
X0005339618Y0001323643D01*
X0005335119Y0001325893D01*
X0005332869Y0001328142D01*
X0004732873Y0000816301D02*
X0004760994Y0000816301D01*
X0004766619Y0000814427D01*
X0004770368Y0000810677D01*
X0004772243Y0000805053D01*
X0004772243Y0000801303D01*
X0004732873Y0000831299D02*
X0004732873Y0000855671D01*
X0004747871Y0000842548D01*
X0004747871Y0000848172D01*
X0004749746Y0000851922D01*
X0004751620Y0000853797D01*
X0004755370Y0000855671D01*
X0004764744Y0000855671D01*
X0004768493Y0000853797D01*
X0004770368Y0000851922D01*
X0004772243Y0000848172D01*
X0004772243Y0000836924D01*
X0004770368Y0000833174D01*
X0004768493Y0000831299D01*
X0004726967Y0000290711D02*
X0004755089Y0000290711D01*
X0004760713Y0000288836D01*
X0004764463Y0000285086D01*
X0004766337Y0000279462D01*
X0004766337Y0000275713D01*
X0004730717Y0000307584D02*
X0004728842Y0000309458D01*
X0004726967Y0000313208D01*
X0004726967Y0000322582D01*
X0004728842Y0000326331D01*
X0004730717Y0000328206D01*
X0004734466Y0000330081D01*
X0004738216Y0000330081D01*
X0004743840Y0000328206D01*
X0004766337Y0000305709D01*
X0004766337Y0000330081D01*
X0005115246Y0000566575D02*
X0005115246Y0000538454D01*
X0005113371Y0000532829D01*
X0005109622Y0000529080D01*
X0005103998Y0000527205D01*
X0005100248Y0000527205D01*
X0005154616Y0000527205D02*
X0005132119Y0000527205D01*
X0005143368Y0000527205D02*
X0005143368Y0000566575D01*
X0005139618Y0000560951D01*
X0005135869Y0000557201D01*
X0005132119Y0000555326D01*
X0005246652Y0001106515D02*
X0005278523Y0001106515D01*
X0005282273Y0001108390D01*
X0005284148Y0001110265D01*
X0005286022Y0001114014D01*
X0005286022Y0001121513D01*
X0005284148Y0001125263D01*
X0005282273Y0001127137D01*
X0005278523Y0001129012D01*
X0005246652Y0001129012D01*
X0005286022Y0001168382D02*
X0005286022Y0001145885D01*
X0005286022Y0001157134D02*
X0005246652Y0001157134D01*
X0005252277Y0001153384D01*
X0005256026Y0001149635D01*
X0005257901Y0001145885D01*
X0005429911Y0000610265D02*
X0005431785Y0000608390D01*
X0005433660Y0000602766D01*
X0005433660Y0000599016D01*
X0005431785Y0000593392D01*
X0005428036Y0000589642D01*
X0005424286Y0000587767D01*
X0005416787Y0000585893D01*
X0005411163Y0000585893D01*
X0005403664Y0000587767D01*
X0005399914Y0000589642D01*
X0005396165Y0000593392D01*
X0005394290Y0000599016D01*
X0005394290Y0000602766D01*
X0005396165Y0000608390D01*
X0005398040Y0000610265D01*
X0005433660Y0000647760D02*
X0005433660Y0000625263D01*
X0005433660Y0000636511D02*
X0005394290Y0000636511D01*
X0005399914Y0000632762D01*
X0005403664Y0000629012D01*
X0005405539Y0000625263D01*
X0004786210Y0001026026D02*
X0004788085Y0001024151D01*
X0004789959Y0001018527D01*
X0004789959Y0001014777D01*
X0004788085Y0001009153D01*
X0004784335Y0001005403D01*
X0004780586Y0001003529D01*
X0004773087Y0001001654D01*
X0004767462Y0001001654D01*
X0004759963Y0001003529D01*
X0004756214Y0001005403D01*
X0004752464Y0001009153D01*
X0004750589Y0001014777D01*
X0004750589Y0001018527D01*
X0004752464Y0001024151D01*
X0004754339Y0001026026D01*
X0004750589Y0001039149D02*
X0004750589Y0001063521D01*
X0004765587Y0001050398D01*
X0004765587Y0001056022D01*
X0004767462Y0001059772D01*
X0004769337Y0001061646D01*
X0004773087Y0001063521D01*
X0004782460Y0001063521D01*
X0004786210Y0001061646D01*
X0004788085Y0001059772D01*
X0004789959Y0001056022D01*
X0004789959Y0001044773D01*
X0004788085Y0001041024D01*
X0004786210Y0001039149D01*
X0005273461Y0000726781D02*
X0005271587Y0000724907D01*
X0005265962Y0000723032D01*
X0005262213Y0000723032D01*
X0005256589Y0000724907D01*
X0005252839Y0000728656D01*
X0005250964Y0000732406D01*
X0005249090Y0000739905D01*
X0005249090Y0000745529D01*
X0005250964Y0000753028D01*
X0005252839Y0000756778D01*
X0005256589Y0000760527D01*
X0005262213Y0000762402D01*
X0005265962Y0000762402D01*
X0005271587Y0000760527D01*
X0005273461Y0000758652D01*
X0005307207Y0000749278D02*
X0005307207Y0000723032D01*
X0005297833Y0000764277D02*
X0005288460Y0000736155D01*
X0005312832Y0000736155D01*
X0005232123Y0000549616D02*
X0005230248Y0000547741D01*
X0005224624Y0000545866D01*
X0005220874Y0000545866D01*
X0005215250Y0000547741D01*
X0005211500Y0000551491D01*
X0005209626Y0000555240D01*
X0005207751Y0000562739D01*
X0005207751Y0000568364D01*
X0005209626Y0000575863D01*
X0005211500Y0000579612D01*
X0005215250Y0000583362D01*
X0005220874Y0000585236D01*
X0005224624Y0000585236D01*
X0005230248Y0000583362D01*
X0005232123Y0000581487D01*
X0005265869Y0000585236D02*
X0005258370Y0000585236D01*
X0005254620Y0000583362D01*
X0005252745Y0000581487D01*
X0005248996Y0000575863D01*
X0005247121Y0000568364D01*
X0005247121Y0000553365D01*
X0005248996Y0000549616D01*
X0005250871Y0000547741D01*
X0005254620Y0000545866D01*
X0005262119Y0000545866D01*
X0005265869Y0000547741D01*
X0005267743Y0000549616D01*
X0005269618Y0000553365D01*
X0005269618Y0000562739D01*
X0005267743Y0000566489D01*
X0005265869Y0000568364D01*
X0005262119Y0000570238D01*
X0005254620Y0000570238D01*
X0005250871Y0000568364D01*
X0005248996Y0000566489D01*
X0005247121Y0000562739D01*
X0005522243Y0000503965D02*
X0005522243Y0000485218D01*
X0005482873Y0000485218D01*
X0005522243Y0000537711D02*
X0005522243Y0000515214D01*
X0005522243Y0000526463D02*
X0005482873Y0000526463D01*
X0005488497Y0000522713D01*
X0005492247Y0000518964D01*
X0005494121Y0000515214D01*
X0005019524Y0000545679D02*
X0005017650Y0000543804D01*
X0005012025Y0000541929D01*
X0005008276Y0000541929D01*
X0005002652Y0000543804D01*
X0004998902Y0000547554D01*
X0004997027Y0000551303D01*
X0004995152Y0000558802D01*
X0004995152Y0000564427D01*
X0004997027Y0000571926D01*
X0004998902Y0000575675D01*
X0005002652Y0000579425D01*
X0005008276Y0000581299D01*
X0005012025Y0000581299D01*
X0005017650Y0000579425D01*
X0005019524Y0000577550D01*
X0005055145Y0000581299D02*
X0005036397Y0000581299D01*
X0005034523Y0000562552D01*
X0005036397Y0000564427D01*
X0005040147Y0000566301D01*
X0005049521Y0000566301D01*
X0005053270Y0000564427D01*
X0005055145Y0000562552D01*
X0005057020Y0000558802D01*
X0005057020Y0000549428D01*
X0005055145Y0000545679D01*
X0005053270Y0000543804D01*
X0005049521Y0000541929D01*
X0005040147Y0000541929D01*
X0005036397Y0000543804D01*
X0005034523Y0000545679D01*
X0004955032Y0001270276D02*
X0004964406Y0001230906D01*
X0004971905Y0001259027D01*
X0004979404Y0001230906D01*
X0004988778Y0001270276D01*
X0005024399Y0001230906D02*
X0005001902Y0001230906D01*
X0005013150Y0001230906D02*
X0005013150Y0001270276D01*
X0005009401Y0001264652D01*
X0005005651Y0001260902D01*
X0005001902Y0001259027D01*
X0004860544Y0001270276D02*
X0004869918Y0001230906D01*
X0004877417Y0001259027D01*
X0004884916Y0001230906D01*
X0004894290Y0001270276D01*
X0004907413Y0001266526D02*
X0004909288Y0001268401D01*
X0004913038Y0001270276D01*
X0004922412Y0001270276D01*
X0004926161Y0001268401D01*
X0004928036Y0001266526D01*
X0004929911Y0001262777D01*
X0004929911Y0001259027D01*
X0004928036Y0001253403D01*
X0004905539Y0001230906D01*
X0004929911Y0001230906D01*
X0005474249Y0000401978D02*
X0005472374Y0000400103D01*
X0005466750Y0000398229D01*
X0005463000Y0000398229D01*
X0005457376Y0000400103D01*
X0005453626Y0000403853D01*
X0005451752Y0000407602D01*
X0005449877Y0000415101D01*
X0005449877Y0000420726D01*
X0005451752Y0000428225D01*
X0005453626Y0000431974D01*
X0005457376Y0000435724D01*
X0005463000Y0000437599D01*
X0005466750Y0000437599D01*
X0005472374Y0000435724D01*
X0005474249Y0000433849D01*
X0005487372Y0000437599D02*
X0005513619Y0000437599D01*
X0005496746Y0000398229D01*
X0005209251Y0000309084D02*
X0005190503Y0000295960D01*
X0005209251Y0000286586D02*
X0005169881Y0000286586D01*
X0005169881Y0000301584D01*
X0005171755Y0000305334D01*
X0005173630Y0000307209D01*
X0005177380Y0000309084D01*
X0005183004Y0000309084D01*
X0005186754Y0000307209D01*
X0005188628Y0000305334D01*
X0005190503Y0000301584D01*
X0005190503Y0000286586D01*
X0005169881Y0000342829D02*
X0005169881Y0000335330D01*
X0005171755Y0000331581D01*
X0005173630Y0000329706D01*
X0005179254Y0000325956D01*
X0005186754Y0000324082D01*
X0005201752Y0000324082D01*
X0005205501Y0000325956D01*
X0005207376Y0000327831D01*
X0005209251Y0000331581D01*
X0005209251Y0000339080D01*
X0005207376Y0000342829D01*
X0005205501Y0000344704D01*
X0005201752Y0000346579D01*
X0005192378Y0000346579D01*
X0005188628Y0000344704D01*
X0005186754Y0000342829D01*
X0005184879Y0000339080D01*
X0005184879Y0000331581D01*
X0005186754Y0000327831D01*
X0005188628Y0000325956D01*
X0005192378Y0000324082D01*
X0005372929Y0001108945D02*
X0005372929Y0001090197D01*
X0005359806Y0001129567D02*
X0005372929Y0001108945D01*
X0005386052Y0001129567D01*
X0005419798Y0001090197D02*
X0005397301Y0001090197D01*
X0005408550Y0001090197D02*
X0005408550Y0001129567D01*
X0005404800Y0001123943D01*
X0005401050Y0001120193D01*
X0005397301Y0001118319D01*
G04 next file*
G04 Gerber Fmt 4.6, Leading zero omitted, Abs format (unit mm)*
G04 Created by KiCad (PCBNEW 4.0.7) date Thursday, 08 March 2018 'PMt' 14:48:31*
G01G01*
G04 APERTURE LIST*
G04 APERTURE END LIST*
D56*
D57*
X0005269464Y0002393908D02*
X0005269464Y0002366349D01*
X0005222220Y0002366349D02*
X0005222220Y0002393908D01*
X0004671551Y0001636716D02*
X0004671551Y0001836716D01*
X0004671551Y0001836716D02*
X0004571551Y0001836716D01*
X0004571551Y0001836716D02*
X0004571551Y0001636716D01*
X0004560527Y0001525692D02*
X0004560527Y0001586716D01*
X0004571551Y0001636716D02*
X0004671551Y0001636716D01*
X0004682574Y0001586716D02*
X0004682574Y0001525692D01*
X0004682574Y0001525692D02*
X0004560527Y0001525692D01*
X0004682968Y0002389669D02*
X0004722338Y0002389669D01*
X0004722338Y0002336519D02*
X0004682968Y0002336519D01*
X0005201157Y0002146703D02*
X0005240527Y0002146703D01*
X0005240527Y0002093553D02*
X0005201157Y0002093553D01*
X0005139267Y0002577943D02*
X0005139267Y0002617313D01*
X0005192417Y0002617313D02*
X0005192417Y0002577943D01*
X0005070527Y0002541053D02*
X0005031157Y0002541053D01*
X0005031157Y0002594203D02*
X0005070527Y0002594203D01*
X0004888657Y0002594203D02*
X0004928027Y0002594203D01*
X0004928027Y0002541053D02*
X0004888657Y0002541053D01*
D58*
X0004627456Y0002516637D02*
X0004627456Y0002445771D01*
X0004754228Y0002445771D02*
X0004754228Y0002542228D01*
D57*
X0004699740Y0002098330D02*
X0004817850Y0002098330D01*
X0004699740Y0002025496D02*
X0004817850Y0002025496D01*
X0004699740Y0002025496D02*
X0004699740Y0001953645D01*
X0004817850Y0002025496D02*
X0004817850Y0001953645D01*
X0004699740Y0001953645D02*
X0004574740Y0001953645D01*
X0004817850Y0001953645D02*
X0004942850Y0001953645D01*
X0004574740Y0001953645D02*
X0004574740Y0002087503D01*
X0004942850Y0001953645D02*
X0004942850Y0002087503D01*
X0004574740Y0002087503D02*
X0004699740Y0002087503D01*
X0004942850Y0002087503D02*
X0004817850Y0002087503D01*
X0004699740Y0002087503D02*
X0004699740Y0002098330D01*
X0004817850Y0002087503D02*
X0004817850Y0002098330D01*
X0005356196Y0002361519D02*
X0005356196Y0002422543D01*
X0005356196Y0002422543D02*
X0005478244Y0002422543D01*
X0005478244Y0002422543D02*
X0005478244Y0002361519D01*
X0005467220Y0002311519D02*
X0005467220Y0001911519D01*
X0005467220Y0001911519D02*
X0005367220Y0001911519D01*
X0005367220Y0001911519D02*
X0005367220Y0002311519D01*
X0005467220Y0002311519D02*
X0005367220Y0002311519D01*
X0005356196Y0002924118D02*
X0005356196Y0002985141D01*
X0005356196Y0002985141D02*
X0005478244Y0002985141D01*
X0005478244Y0002985141D02*
X0005478244Y0002924118D01*
X0005467220Y0002874118D02*
X0005467220Y0002474118D01*
X0005467220Y0002474118D02*
X0005367220Y0002474118D01*
X0005367220Y0002474118D02*
X0005367220Y0002874118D01*
X0005467220Y0002874118D02*
X0005367220Y0002874118D01*
D59*
X0005190842Y0002420128D02*
X0005190842Y0002270128D01*
X0004815842Y0002420128D02*
X0004815842Y0002370128D01*
X0004815842Y0002370128D02*
X0004840842Y0002345128D01*
X0004840842Y0002345128D02*
X0004815842Y0002320128D01*
X0004815842Y0002320128D02*
X0004815842Y0002270128D01*
D57*
X0004767220Y0002684354D02*
X0004767220Y0002723724D01*
X0004700291Y0002723724D02*
X0004700291Y0002684354D01*
X0005279307Y0002215443D02*
X0005279307Y0002254813D01*
X0005212377Y0002254813D02*
X0005212377Y0002215443D01*
X0004761314Y0002558370D02*
X0004800685Y0002558370D01*
X0004800685Y0002625299D02*
X0004761314Y0002625299D01*
X0004820370Y0002674511D02*
X0004847929Y0002674511D01*
X0004847929Y0002627267D02*
X0004820370Y0002627267D01*
D58*
X0004603047Y0002733566D02*
X0004603047Y0002780811D01*
X0004672338Y0002780811D02*
X0004672338Y0002733566D01*
D57*
X0005038874Y0002656795D02*
X0005066433Y0002656795D01*
X0005066433Y0002609551D02*
X0005038874Y0002609551D01*
X0004690448Y0002875299D02*
X0004718007Y0002875299D01*
X0004718007Y0002828055D02*
X0004690448Y0002828055D01*
X0004760330Y0002954039D02*
X0004760330Y0002914669D01*
X0004707181Y0002914669D02*
X0004707181Y0002954039D01*
D58*
X0004765803Y0002191204D02*
X0004765803Y0002321125D01*
X0004765803Y0002321125D02*
X0004608322Y0002321125D01*
D57*
X0005286624Y0002356270D02*
X0005284749Y0002358145D01*
X0005282874Y0002363769D01*
X0005282874Y0002367518D01*
X0005284749Y0002373143D01*
X0005288499Y0002376892D01*
X0005292248Y0002378767D01*
X0005299747Y0002380642D01*
X0005305371Y0002380642D01*
X0005312871Y0002378767D01*
X0005316620Y0002376892D01*
X0005320370Y0002373143D01*
X0005322244Y0002367518D01*
X0005322244Y0002363769D01*
X0005320370Y0002358145D01*
X0005318495Y0002356270D01*
X0005318495Y0002341272D02*
X0005320370Y0002339397D01*
X0005322244Y0002335647D01*
X0005322244Y0002326274D01*
X0005320370Y0002322524D01*
X0005318495Y0002320649D01*
X0005314745Y0002318775D01*
X0005310996Y0002318775D01*
X0005305371Y0002320649D01*
X0005282874Y0002343146D01*
X0005282874Y0002318775D01*
X0004634674Y0001491140D02*
X0004634674Y0001519262D01*
X0004636549Y0001524886D01*
X0004640298Y0001528636D01*
X0004645923Y0001530511D01*
X0004649672Y0001530511D01*
X0004599053Y0001491140D02*
X0004606553Y0001491140D01*
X0004610302Y0001493015D01*
X0004612177Y0001494890D01*
X0004615926Y0001500514D01*
X0004617801Y0001508013D01*
X0004617801Y0001523012D01*
X0004615926Y0001526761D01*
X0004614052Y0001528636D01*
X0004610302Y0001530511D01*
X0004602803Y0001530511D01*
X0004599053Y0001528636D01*
X0004597179Y0001526761D01*
X0004595304Y0001523012D01*
X0004595304Y0001513638D01*
X0004597179Y0001509888D01*
X0004599053Y0001508013D01*
X0004602803Y0001506139D01*
X0004610302Y0001506139D01*
X0004614052Y0001508013D01*
X0004615926Y0001509888D01*
X0004617801Y0001513638D01*
X0004709215Y0002306101D02*
X0004722338Y0002287353D01*
X0004731712Y0002306101D02*
X0004731712Y0002266731D01*
X0004716714Y0002266731D01*
X0004712964Y0002268606D01*
X0004711089Y0002270481D01*
X0004709215Y0002274230D01*
X0004709215Y0002279854D01*
X0004711089Y0002283604D01*
X0004712964Y0002285479D01*
X0004716714Y0002287353D01*
X0004731712Y0002287353D01*
X0004673594Y0002266731D02*
X0004692342Y0002266731D01*
X0004694217Y0002285479D01*
X0004692342Y0002283604D01*
X0004688592Y0002281729D01*
X0004679218Y0002281729D01*
X0004675469Y0002283604D01*
X0004673594Y0002285479D01*
X0004671719Y0002289228D01*
X0004671719Y0002298602D01*
X0004673594Y0002302352D01*
X0004675469Y0002304226D01*
X0004679218Y0002306101D01*
X0004688592Y0002306101D01*
X0004692342Y0002304226D01*
X0004694217Y0002302352D01*
X0005236380Y0002084054D02*
X0005249503Y0002065306D01*
X0005258877Y0002084054D02*
X0005258877Y0002044684D01*
X0005243879Y0002044684D01*
X0005240130Y0002046559D01*
X0005238255Y0002048433D01*
X0005236380Y0002052183D01*
X0005236380Y0002057807D01*
X0005238255Y0002061557D01*
X0005240130Y0002063431D01*
X0005243879Y0002065306D01*
X0005258877Y0002065306D01*
X0005202634Y0002057807D02*
X0005202634Y0002084054D01*
X0005212008Y0002042809D02*
X0005221382Y0002070931D01*
X0005197010Y0002070931D01*
X0005222835Y0002604190D02*
X0005241583Y0002617313D01*
X0005222835Y0002626687D02*
X0005262205Y0002626687D01*
X0005262205Y0002611689D01*
X0005260330Y0002607939D01*
X0005258456Y0002606065D01*
X0005254706Y0002604190D01*
X0005249082Y0002604190D01*
X0005245332Y0002606065D01*
X0005243457Y0002607939D01*
X0005241583Y0002611689D01*
X0005241583Y0002626687D01*
X0005262205Y0002591066D02*
X0005262205Y0002566695D01*
X0005247207Y0002579818D01*
X0005247207Y0002574194D01*
X0005245332Y0002570444D01*
X0005243457Y0002568569D01*
X0005239708Y0002566695D01*
X0005230334Y0002566695D01*
X0005226585Y0002568569D01*
X0005224710Y0002570444D01*
X0005222835Y0002574194D01*
X0005222835Y0002585442D01*
X0005224710Y0002589192D01*
X0005226585Y0002591066D01*
X0005057404Y0002660242D02*
X0005070527Y0002641494D01*
X0005079901Y0002660242D02*
X0005079901Y0002620872D01*
X0005064903Y0002620872D01*
X0005061153Y0002622746D01*
X0005059279Y0002624621D01*
X0005057404Y0002628371D01*
X0005057404Y0002633995D01*
X0005059279Y0002637744D01*
X0005061153Y0002639619D01*
X0005064903Y0002641494D01*
X0005079901Y0002641494D01*
X0005042406Y0002624621D02*
X0005040531Y0002622746D01*
X0005036781Y0002620872D01*
X0005027407Y0002620872D01*
X0005023658Y0002622746D01*
X0005021783Y0002624621D01*
X0005019908Y0002628371D01*
X0005019908Y0002632120D01*
X0005021783Y0002637744D01*
X0005044280Y0002660242D01*
X0005019908Y0002660242D01*
X0004947010Y0002650983D02*
X0004960133Y0002632235D01*
X0004969507Y0002650983D02*
X0004969507Y0002611613D01*
X0004954509Y0002611613D01*
X0004950760Y0002613488D01*
X0004948885Y0002615362D01*
X0004947010Y0002619112D01*
X0004947010Y0002624736D01*
X0004948885Y0002628486D01*
X0004950760Y0002630361D01*
X0004954509Y0002632235D01*
X0004969507Y0002632235D01*
X0004909515Y0002650983D02*
X0004932012Y0002650983D01*
X0004920763Y0002650983D02*
X0004920763Y0002611613D01*
X0004924513Y0002617237D01*
X0004928262Y0002620987D01*
X0004932012Y0002622862D01*
X0004613583Y0002515531D02*
X0004581712Y0002515531D01*
X0004577962Y0002513656D01*
X0004576088Y0002511782D01*
X0004574213Y0002508032D01*
X0004574213Y0002500533D01*
X0004576088Y0002496784D01*
X0004577962Y0002494909D01*
X0004581712Y0002493034D01*
X0004613583Y0002493034D01*
X0004609833Y0002476161D02*
X0004611708Y0002474286D01*
X0004613583Y0002470537D01*
X0004613583Y0002461163D01*
X0004611708Y0002457413D01*
X0004609833Y0002455539D01*
X0004606084Y0002453664D01*
X0004602334Y0002453664D01*
X0004596710Y0002455539D01*
X0004574213Y0002478036D01*
X0004574213Y0002453664D01*
X0004766118Y0001896829D02*
X0004766118Y0001930574D01*
X0004768367Y0001937323D01*
X0004772867Y0001941823D01*
X0004779616Y0001944073D01*
X0004784115Y0001944073D01*
X0004721123Y0001896829D02*
X0004743620Y0001896829D01*
X0004745870Y0001919326D01*
X0004743620Y0001917076D01*
X0004739121Y0001914826D01*
X0004727872Y0001914826D01*
X0004723373Y0001917076D01*
X0004721123Y0001919326D01*
X0004718873Y0001923825D01*
X0004718873Y0001935074D01*
X0004721123Y0001939573D01*
X0004723373Y0001941823D01*
X0004727872Y0001944073D01*
X0004739121Y0001944073D01*
X0004743620Y0001941823D01*
X0004745870Y0001939573D01*
X0005345866Y0002451414D02*
X0005317745Y0002451414D01*
X0005312121Y0002453289D01*
X0005308371Y0002457039D01*
X0005306496Y0002462663D01*
X0005306496Y0002466412D01*
X0005345866Y0002436416D02*
X0005345866Y0002412044D01*
X0005330868Y0002425167D01*
X0005330868Y0002419543D01*
X0005328994Y0002415794D01*
X0005327119Y0002413919D01*
X0005323369Y0002412044D01*
X0005313995Y0002412044D01*
X0005310246Y0002413919D01*
X0005308371Y0002415794D01*
X0005306496Y0002419543D01*
X0005306496Y0002430792D01*
X0005308371Y0002434541D01*
X0005310246Y0002436416D01*
X0005351772Y0002977005D02*
X0005323650Y0002977005D01*
X0005318026Y0002978880D01*
X0005314277Y0002982629D01*
X0005312402Y0002988253D01*
X0005312402Y0002992003D01*
X0005348022Y0002960132D02*
X0005349897Y0002958257D01*
X0005351772Y0002954508D01*
X0005351772Y0002945134D01*
X0005349897Y0002941384D01*
X0005348022Y0002939509D01*
X0005344273Y0002937635D01*
X0005340523Y0002937635D01*
X0005334899Y0002939509D01*
X0005312402Y0002962007D01*
X0005312402Y0002937635D01*
X0004963493Y0002701140D02*
X0004963493Y0002729262D01*
X0004965368Y0002734886D01*
X0004969117Y0002738636D01*
X0004974742Y0002740511D01*
X0004978491Y0002740511D01*
X0004924123Y0002740511D02*
X0004946620Y0002740511D01*
X0004935371Y0002740511D02*
X0004935371Y0002701140D01*
X0004939121Y0002706765D01*
X0004942871Y0002710514D01*
X0004946620Y0002712389D01*
X0004832087Y0002161200D02*
X0004800216Y0002161200D01*
X0004796466Y0002159326D01*
X0004794592Y0002157451D01*
X0004792717Y0002153701D01*
X0004792717Y0002146202D01*
X0004794592Y0002142453D01*
X0004796466Y0002140578D01*
X0004800216Y0002138703D01*
X0004832087Y0002138703D01*
X0004792717Y0002099333D02*
X0004792717Y0002121830D01*
X0004792717Y0002110582D02*
X0004832087Y0002110582D01*
X0004826463Y0002114331D01*
X0004822713Y0002118081D01*
X0004820838Y0002121830D01*
X0004648829Y0002657451D02*
X0004646954Y0002659326D01*
X0004645079Y0002664950D01*
X0004645079Y0002668700D01*
X0004646954Y0002674324D01*
X0004650703Y0002678073D01*
X0004654453Y0002679948D01*
X0004661952Y0002681823D01*
X0004667576Y0002681823D01*
X0004675075Y0002679948D01*
X0004678825Y0002678073D01*
X0004682574Y0002674324D01*
X0004684449Y0002668700D01*
X0004684449Y0002664950D01*
X0004682574Y0002659326D01*
X0004680700Y0002657451D01*
X0004645079Y0002619956D02*
X0004645079Y0002642453D01*
X0004645079Y0002631204D02*
X0004684449Y0002631204D01*
X0004678825Y0002634954D01*
X0004675075Y0002638703D01*
X0004673200Y0002642453D01*
X0005292529Y0002241690D02*
X0005290655Y0002243565D01*
X0005288780Y0002249189D01*
X0005288780Y0002252938D01*
X0005290655Y0002258563D01*
X0005294404Y0002262312D01*
X0005298154Y0002264187D01*
X0005305653Y0002266062D01*
X0005311277Y0002266062D01*
X0005318776Y0002264187D01*
X0005322526Y0002262312D01*
X0005326275Y0002258563D01*
X0005328150Y0002252938D01*
X0005328150Y0002249189D01*
X0005326275Y0002243565D01*
X0005324400Y0002241690D01*
X0005328150Y0002228566D02*
X0005328150Y0002204195D01*
X0005313152Y0002217318D01*
X0005313152Y0002211694D01*
X0005311277Y0002207944D01*
X0005309402Y0002206069D01*
X0005305653Y0002204195D01*
X0005296279Y0002204195D01*
X0005292529Y0002206069D01*
X0005290655Y0002207944D01*
X0005288780Y0002211694D01*
X0005288780Y0002222942D01*
X0005290655Y0002226692D01*
X0005292529Y0002228566D01*
X0004805278Y0002540934D02*
X0004807152Y0002542809D01*
X0004812777Y0002544684D01*
X0004816526Y0002544684D01*
X0004822151Y0002542809D01*
X0004825900Y0002539060D01*
X0004827775Y0002535310D01*
X0004829650Y0002527811D01*
X0004829650Y0002522187D01*
X0004827775Y0002514688D01*
X0004825900Y0002510938D01*
X0004822151Y0002507188D01*
X0004816526Y0002505314D01*
X0004812777Y0002505314D01*
X0004807152Y0002507188D01*
X0004805278Y0002509063D01*
X0004771532Y0002518437D02*
X0004771532Y0002544684D01*
X0004780906Y0002503439D02*
X0004790280Y0002531560D01*
X0004765908Y0002531560D01*
X0004846616Y0002718100D02*
X0004848491Y0002719974D01*
X0004854115Y0002721849D01*
X0004857865Y0002721849D01*
X0004863489Y0002719974D01*
X0004867239Y0002716225D01*
X0004869113Y0002712475D01*
X0004870988Y0002704976D01*
X0004870988Y0002699352D01*
X0004869113Y0002691853D01*
X0004867239Y0002688103D01*
X0004863489Y0002684354D01*
X0004857865Y0002682479D01*
X0004854115Y0002682479D01*
X0004848491Y0002684354D01*
X0004846616Y0002686229D01*
X0004812870Y0002682479D02*
X0004820370Y0002682479D01*
X0004824119Y0002684354D01*
X0004825994Y0002686229D01*
X0004829743Y0002691853D01*
X0004831618Y0002699352D01*
X0004831618Y0002714350D01*
X0004829743Y0002718100D01*
X0004827869Y0002719974D01*
X0004824119Y0002721849D01*
X0004816620Y0002721849D01*
X0004812870Y0002719974D01*
X0004810996Y0002718100D01*
X0004809121Y0002714350D01*
X0004809121Y0002704976D01*
X0004810996Y0002701227D01*
X0004812870Y0002699352D01*
X0004816620Y0002697477D01*
X0004824119Y0002697477D01*
X0004827869Y0002699352D01*
X0004829743Y0002701227D01*
X0004831618Y0002704976D01*
X0004556496Y0002763750D02*
X0004556496Y0002782498D01*
X0004595866Y0002782498D01*
X0004556496Y0002730004D02*
X0004556496Y0002752502D01*
X0004556496Y0002741253D02*
X0004595866Y0002741253D01*
X0004590242Y0002745002D01*
X0004586493Y0002748752D01*
X0004584618Y0002752502D01*
X0005059215Y0002722037D02*
X0005061089Y0002723911D01*
X0005066714Y0002725786D01*
X0005070463Y0002725786D01*
X0005076088Y0002723911D01*
X0005079837Y0002720162D01*
X0005081712Y0002716412D01*
X0005083587Y0002708913D01*
X0005083587Y0002703289D01*
X0005081712Y0002695790D01*
X0005079837Y0002692040D01*
X0005076088Y0002688291D01*
X0005070463Y0002686416D01*
X0005066714Y0002686416D01*
X0005061089Y0002688291D01*
X0005059215Y0002690166D01*
X0005023594Y0002686416D02*
X0005042342Y0002686416D01*
X0005044217Y0002705164D01*
X0005042342Y0002703289D01*
X0005038592Y0002701414D01*
X0005029218Y0002701414D01*
X0005025469Y0002703289D01*
X0005023594Y0002705164D01*
X0005021719Y0002708913D01*
X0005021719Y0002718287D01*
X0005023594Y0002722037D01*
X0005025469Y0002723911D01*
X0005029218Y0002725786D01*
X0005038592Y0002725786D01*
X0005042342Y0002723911D01*
X0005044217Y0002722037D01*
X0005123707Y0001997440D02*
X0005114333Y0002036810D01*
X0005106834Y0002008688D01*
X0005099335Y0002036810D01*
X0005089961Y0001997440D01*
X0005054340Y0002036810D02*
X0005076838Y0002036810D01*
X0005065589Y0002036810D02*
X0005065589Y0001997440D01*
X0005069338Y0002003064D01*
X0005073088Y0002006814D01*
X0005076838Y0002008688D01*
X0005218195Y0001997440D02*
X0005208821Y0002036810D01*
X0005201322Y0002008688D01*
X0005193823Y0002036810D01*
X0005184449Y0001997440D01*
X0005171326Y0002001189D02*
X0005169451Y0001999314D01*
X0005165701Y0001997440D01*
X0005156328Y0001997440D01*
X0005152578Y0001999314D01*
X0005150703Y0002001189D01*
X0005148829Y0002004939D01*
X0005148829Y0002008688D01*
X0005150703Y0002014313D01*
X0005173200Y0002036810D01*
X0005148829Y0002036810D01*
X0004604490Y0002865737D02*
X0004606365Y0002867612D01*
X0004611989Y0002869487D01*
X0004615739Y0002869487D01*
X0004621363Y0002867612D01*
X0004625113Y0002863863D01*
X0004626987Y0002860113D01*
X0004628862Y0002852614D01*
X0004628862Y0002846990D01*
X0004626987Y0002839491D01*
X0004625113Y0002835741D01*
X0004621363Y0002831992D01*
X0004615739Y0002830117D01*
X0004611989Y0002830117D01*
X0004606365Y0002831992D01*
X0004604490Y0002833866D01*
X0004591367Y0002830117D02*
X0004565120Y0002830117D01*
X0004581993Y0002869487D01*
X0004869488Y0002958632D02*
X0004888236Y0002971755D01*
X0004869488Y0002981129D02*
X0004908859Y0002981129D01*
X0004908859Y0002966131D01*
X0004906984Y0002962382D01*
X0004905109Y0002960507D01*
X0004901359Y0002958632D01*
X0004895735Y0002958632D01*
X0004891986Y0002960507D01*
X0004890111Y0002962382D01*
X0004888236Y0002966131D01*
X0004888236Y0002981129D01*
X0004908859Y0002924886D02*
X0004908859Y0002932385D01*
X0004906984Y0002936135D01*
X0004905109Y0002938010D01*
X0004899485Y0002941759D01*
X0004891986Y0002943634D01*
X0004876987Y0002943634D01*
X0004873238Y0002941759D01*
X0004871363Y0002939884D01*
X0004869488Y0002936135D01*
X0004869488Y0002928636D01*
X0004871363Y0002924886D01*
X0004873238Y0002923011D01*
X0004876987Y0002921137D01*
X0004886361Y0002921137D01*
X0004890111Y0002923011D01*
X0004891986Y0002924886D01*
X0004893860Y0002928636D01*
X0004893860Y0002936135D01*
X0004891986Y0002939884D01*
X0004890111Y0002941759D01*
X0004886361Y0002943634D01*
X0004705810Y0002158771D02*
X0004705810Y0002177518D01*
X0004718934Y0002138148D02*
X0004705810Y0002158771D01*
X0004692687Y0002138148D01*
X0004658941Y0002177518D02*
X0004681438Y0002177518D01*
X0004670190Y0002177518D02*
X0004670190Y0002138148D01*
X0004673939Y0002143773D01*
X0004677689Y0002147522D01*
X0004681438Y0002149397D01*
M02*