%
M48
METRIC,000.000
T01C0.41
T02C0.81
T03C0.91
T04C0.99
T05C1.02
T06C1.09
%
T01
X012589Y014021
X016341Y022121
X017989Y022103
X018741Y022103
X019203Y030241
X019455Y021331
X019993Y018131
X021190Y017572
X021649Y029307
X022190Y022271
X022300Y020917
X023709Y018260
X024192Y021422
X025688Y026411
X025942Y027361
X026089Y021034
X026541Y032162
X026770Y027590
X027532Y032162
X027558Y027590
X028294Y032162
X028789Y020470
X028827Y025049
X029564Y029258
X029650Y017211
X030098Y023018
X030352Y029114
X030352Y029114
X030590Y009972
X031114Y029114
X054410Y067978
X050658Y059878
X049010Y059896
X048258Y059896
X047796Y051758
X047544Y060668
X047006Y063868
X045809Y064427
X045350Y052692
X044809Y059728
X044699Y061082
X043290Y063739
X042807Y060577
X041311Y055588
X041057Y054638
X040910Y060965
X040458Y049838
X040229Y054410
X039467Y049838
X039441Y054410
X038705Y049838
X038210Y061529
X038172Y056950
X037435Y052741
X037349Y064788
X036902Y058982
X036647Y052886
X036647Y052886
X036409Y072027
X035885Y052886
X039589Y014021
X043341Y022121
X044989Y022103
X045741Y022103
X046203Y030241
X046455Y021331
X046993Y018131
X048190Y017572
X048649Y029307
X049190Y022271
X049300Y020917
X050709Y018260
X051192Y021422
X052688Y026411
X052942Y027361
X053089Y021034
X053542Y032162
X053770Y027590
X054532Y032162
X054558Y027590
X055294Y032162
X055789Y020470
X055827Y025049
X056564Y029258
X056650Y017211
X057098Y023018
X057352Y029114
X057352Y029114
X057590Y009972
X058114Y029114
X027410Y067978
X023658Y059878
X022010Y059896
X021258Y059896
X020796Y051758
X020544Y060668
X020006Y063868
X018809Y064427
X018350Y052692
X017809Y059728
X017699Y061082
X016290Y063739
X015807Y060577
X014311Y055588
X014057Y054638
X013910Y060965
X013458Y049837
X013229Y054410
X012467Y049837
X012442Y054410
X011705Y049837
X011210Y061529
X011172Y056950
X010435Y052741
X010349Y064788
X009902Y058982
X009648Y052885
X009648Y052885
X009409Y072027
X008886Y052885
X081410Y067978
X077658Y059878
X076010Y059896
X075258Y059896
X074796Y051758
X074544Y060668
X074006Y063868
X072809Y064427
X072350Y052692
X071809Y059728
X071699Y061082
X070290Y063739
X069807Y060577
X068311Y055588
X068057Y054638
X067910Y060965
X067458Y049838
X067229Y054410
X066467Y049838
X066442Y054410
X065705Y049838
X065209Y061529
X065172Y056950
X064435Y052741
X064349Y064788
X063902Y058982
X063647Y052886
X063647Y052886
X063409Y072027
X062885Y052886
X066589Y014021
X070341Y022121
X071989Y022103
X072741Y022103
X073203Y030241
X073455Y021331
X073993Y018131
X075190Y017572
X075649Y029307
X076190Y022271
X076300Y020917
X077709Y018260
X078192Y021422
X079688Y026411
X079942Y027361
X080089Y021034
X080542Y032162
X080770Y027590
X081532Y032162
X081558Y027590
X082294Y032162
X082789Y020470
X082828Y025049
X083564Y029258
X083650Y017211
X084098Y023018
X084352Y029114
X084352Y029114
X084590Y009972
X085114Y029114
X093589Y014021
X097341Y022121
X098989Y022103
X099741Y022103
X100203Y030241
X100455Y021331
X100993Y018131
X102190Y017572
X102649Y029307
X103190Y022271
X103300Y020917
X104709Y018260
X105192Y021422
X106688Y026411
X106942Y027361
X107089Y021034
X107542Y032162
X107770Y027590
X108532Y032162
X108558Y027590
X109294Y032162
X109789Y020470
X109828Y025049
X110564Y029258
X110650Y017211
X111098Y023018
X111352Y029114
X111352Y029114
X111590Y009972
X112114Y029114
X108410Y067978
X104658Y059878
X103010Y059896
X102258Y059896
X101796Y051758
X101544Y060668
X101006Y063868
X099809Y064427
X099350Y052692
X098809Y059728
X098699Y061082
X097290Y063739
X096807Y060577
X095311Y055588
X095057Y054638
X094910Y060965
X094458Y049838
X094229Y054410
X093467Y049838
X093442Y054410
X092705Y049838
X092210Y061529
X092172Y056950
X091435Y052741
X091349Y064788
X090902Y058982
X090648Y052886
X090648Y052886
X090409Y072027
X089886Y052886
X120589Y014021
X124341Y022121
X125989Y022103
X126741Y022103
X127203Y030241
X127455Y021331
X127993Y018131
X129190Y017572
X129649Y029307
X130190Y022271
X130300Y020917
X131709Y018260
X132192Y021422
X133688Y026411
X133942Y027361
X134089Y021034
X134542Y032162
X134770Y027590
X135532Y032162
X135558Y027590
X136294Y032162
X136789Y020470
X136828Y025049
X137564Y029258
X137650Y017211
X138098Y023018
X138352Y029114
X138352Y029114
X138590Y009972
X139114Y029114
X135410Y067978
X131658Y059878
X130009Y059896
X129258Y059896
X128795Y051758
X128544Y060668
X128006Y063868
X126809Y064427
X126350Y052692
X125809Y059728
X125699Y061082
X124290Y063739
X123807Y060577
X122311Y055588
X122057Y054638
X121910Y060965
X121458Y049838
X121229Y054410
X120467Y049838
X120442Y054410
X119705Y049838
X119210Y061529
X119172Y056950
X118435Y052741
X118349Y064788
X117902Y058982
X117648Y052886
X117648Y052886
X117409Y072027
X116886Y052886
T02
X012371Y011273
X013168Y026091
X013285Y019365
X014540Y013721
X022856Y015204
X025345Y013178
X026034Y018192
X029859Y014752
X054628Y070726
X053831Y055908
X053714Y062634
X052459Y068278
X044143Y066795
X041654Y068821
X040966Y063808
X037140Y067247
X039371Y011273
X040168Y026091
X040285Y019365
X041540Y013721
X049856Y015204
X052345Y013178
X053034Y018192
X056859Y014752
X027628Y070726
X026831Y055908
X026714Y062634
X025459Y068278
X017143Y066795
X014654Y068821
X013966Y063808
X010140Y067247
X081628Y070726
X080831Y055908
X080714Y062634
X079459Y068278
X071143Y066795
X068654Y068821
X067966Y063808
X064140Y067247
X066371Y011273
X067168Y026091
X067285Y019365
X068540Y013721
X076856Y015204
X079345Y013178
X080033Y018192
X083859Y014752
X093371Y011273
X094168Y026091
X094285Y019365
X095540Y013721
X103856Y015204
X106345Y013178
X107033Y018192
X110859Y014752
X108628Y070726
X107831Y055908
X107714Y062634
X106459Y068278
X098143Y066795
X095654Y068821
X094966Y063808
X091140Y067247
X120371Y011273
X121168Y026091
X121285Y019365
X122540Y013721
X130856Y015204
X133345Y013178
X134034Y018192
X137859Y014752
X135628Y070726
X134831Y055908
X134714Y062634
X133459Y068278
X125143Y066795
X122654Y068821
X121966Y063808
X118140Y067247
T03
X016440Y011171
X018939Y011171
X020941Y011171
X023440Y011171
X050559Y070828
X048060Y070828
X046058Y070828
X043559Y070828
X043440Y011171
X045939Y011171
X047941Y011171
X050440Y011171
X023559Y070828
X021060Y070828
X019058Y070828
X016559Y070828
X077559Y070828
X075060Y070828
X073058Y070828
X070559Y070828
X070440Y011171
X072939Y011171
X074941Y011171
X077440Y011171
X097440Y011171
X099939Y011171
X101941Y011171
X104440Y011171
X104559Y070828
X102060Y070828
X100058Y070828
X097559Y070828
X124440Y011171
X126939Y011171
X128941Y011171
X131440Y011171
X131559Y070828
X129060Y070828
X127058Y070828
X124559Y070828
T04
X008000Y006000G85X008000Y006000
X008000Y006000G85X008000Y006000
X059000Y076000G85X059000Y076000
X059000Y076000G85X059000Y076000
X035000Y006000G85X035000Y006000
X035000Y006000G85X035000Y006000
X032000Y076000G85X032000Y076000
X032000Y076000G85X032000Y076000
X086000Y076000G85X086000Y076000
X086000Y076000G85X086000Y076000
X062000Y006000G85X062000Y006000
X062000Y006000G85X062000Y006000
X089000Y006000G85X089000Y006000
X089000Y006000G85X089000Y006000
X113000Y076000G85X113000Y076000
X113000Y076000G85X113000Y076000
X116000Y006000G85X116000Y006000
X116000Y006000G85X116000Y006000
X140000Y076000G85X140000Y076000
X140000Y076000G85X140000Y076000
T05
X010339Y032470
X010339Y029931
X010339Y027391
X010339Y024851
X010339Y022311
X010339Y018181
X010339Y015641
X010339Y013101
X010339Y010561
X010339Y008021
X030550Y041991
X030550Y039451
X030550Y036911
X056660Y049528
X056660Y052068
X056660Y054608
X056660Y057148
X056660Y059688
X056660Y063818
X056660Y066358
X056660Y068898
X056660Y071438
X056660Y073978
X036449Y040008
X036449Y042548
X036449Y045088
X037339Y032470
X037339Y029931
X037339Y027391
X037339Y024851
X037339Y022311
X037339Y018181
X037339Y015641
X037339Y013101
X037339Y010561
X037339Y008021
X057550Y041991
X057550Y039451
X057550Y036911
X029660Y049528
X029660Y052068
X029660Y054608
X029660Y057148
X029660Y059688
X029660Y063818
X029660Y066358
X029660Y068898
X029660Y071438
X029660Y073978
X009449Y040008
X009449Y042548
X009449Y045088
X083660Y049528
X083660Y052068
X083660Y054608
X083660Y057148
X083660Y059688
X083660Y063818
X083660Y066358
X083660Y068898
X083660Y071438
X083660Y073978
X063449Y040008
X063449Y042548
X063449Y045088
X064339Y032470
X064339Y029931
X064339Y027391
X064339Y024851
X064339Y022311
X064339Y018181
X064339Y015641
X064339Y013101
X064339Y010561
X064339Y008021
X084550Y041991
X084550Y039451
X084550Y036911
X091339Y032470
X091339Y029931
X091339Y027391
X091339Y024851
X091339Y022311
X091339Y018181
X091339Y015641
X091339Y013101
X091339Y010561
X091339Y008021
X111550Y041991
X111550Y039451
X111550Y036911
X110660Y049528
X110660Y052068
X110660Y054608
X110660Y057148
X110660Y059688
X110660Y063818
X110660Y066358
X110660Y068898
X110660Y071438
X110660Y073978
X090449Y040008
X090449Y042548
X090449Y045088
X118339Y032470
X118339Y029931
X118339Y027391
X118339Y024851
X118339Y022311
X118339Y018181
X118339Y015641
X118339Y013101
X118339Y010561
X118339Y008021
X138550Y041991
X138550Y039451
X138550Y036911
X137660Y049528
X137660Y052068
X137660Y054608
X137660Y057148
X137660Y059688
X137660Y063818
X137660Y066358
X137660Y068898
X137660Y071438
X137660Y073978
X117449Y040008
X117449Y042548
X117449Y045088
T06
X017690Y009070
X022190Y009070
X049309Y072929
X044809Y072929
X044690Y009070
X049190Y009070
X022309Y072929
X017809Y072929
X076309Y072929
X071809Y072929
X071690Y009070
X076190Y009070
X098690Y009070
X103190Y009070
X103309Y072929
X098809Y072929
X125690Y009070
X130190Y009070
X130309Y072929
X125809Y072929
M30