%MOIN*%
%OFA0B0*%
%FSLAX46Y46*%
%IPPOS*%
%LPD*%
%AMREC1400*
4,1,3,
0.014763779527559053,0.015748031496062995,
-0.014763779527559058,0.015748031496062992,
-0.014763779527559053,-0.015748031496062995,
0.014763779527559058,-0.015748031496062992,
0*%
%AMREC1410*
4,1,3,
0.0098425196850393682,0.017716535433070869,
-0.0098425196850393734,0.017716535433070866,
-0.0098425196850393682,-0.017716535433070869,
0.0098425196850393734,-0.017716535433070866,
0*%
%AMREC1420*
4,1,3,
0.017716535433070866,0.0098425196850393734,
-0.017716535433070869,0.0098425196850393682,
-0.017716535433070866,-0.0098425196850393734,
0.017716535433070869,-0.0098425196850393682,
0*%
%AMREC1430*
4,1,3,
0.012795275590551181,0.020866141732283468,
-0.012795275590551184,0.020866141732283468,
-0.012795275590551181,-0.020866141732283468,
0.012795275590551184,-0.020866141732283468,
0*%
%AMREC1440*
4,1,3,
0.0059055118110236185,0.027559055118110236,
-0.0059055118110236254,0.027559055118110236,
-0.0059055118110236185,-0.027559055118110236,
0.0059055118110236254,-0.027559055118110236,
0*%
%AMREC1450*
4,1,3,
0.024606299212598423,0.0452755905511811,
-0.02460629921259843,0.0452755905511811,
-0.024606299212598423,-0.0452755905511811,
0.02460629921259843,-0.0452755905511811,
0*%
%AMREC1460*
4,1,3,
0.013779527559055114,0.031496062992125991,
-0.013779527559055123,0.031496062992125991,
-0.013779527559055114,-0.031496062992125991,
0.013779527559055123,-0.031496062992125991,
0*%
%AMREC1470*
4,1,3,
0.013779527559055116,0.021653543307086617,
-0.01377952755905512,0.021653543307086617,
-0.013779527559055116,-0.021653543307086617,
0.01377952755905512,-0.021653543307086617,
0*%
%AMREC1480*
4,1,3,
0.0059999999999999975,0.022500000000000003,
-0.0060000000000000036,0.022500000000000003,
-0.0059999999999999975,-0.022500000000000003,
0.0060000000000000036,-0.022500000000000003,
0*%
%AMREC1490*
4,1,3,
0.024606299212598423,0.019685039370078747,
-0.02460629921259843,0.01968503937007874,
-0.024606299212598423,-0.019685039370078747,
0.02460629921259843,-0.01968503937007874,
0*%
%AMREC1500*
4,1,3,
0.01968503937007874,0.02460629921259843,
-0.019685039370078747,0.024606299212598423,
-0.01968503937007874,-0.02460629921259843,
0.019685039370078747,-0.024606299212598423,
0*%
%AMREC1510*
4,1,3,
0.015748031496062992,0.014763779527559058,
-0.015748031496062995,0.014763779527559053,
-0.015748031496062992,-0.014763779527559058,
0.015748031496062995,-0.014763779527559053,
0*%
%AMREC1520*
4,1,3,
0.025590551181102365,0.01377952755905512,
-0.025590551181102365,0.013779527559055116,
-0.025590551181102365,-0.01377952755905512,
0.025590551181102365,-0.013779527559055116,
0*%
%AMREC1530*
4,1,3,
0.027559055118110232,0.023622047244094491,
-0.027559055118110239,0.023622047244094484,
-0.027559055118110232,-0.023622047244094491,
0.027559055118110239,-0.023622047244094484,
0*%
%ADD10C,0.0039370078740157488*%
%ADD11C,0.005905511811023622*%
%ADD12R,0.029527559055118113X0.031496062992125991*%
%ADD13R,0.01968503937007874X0.035433070866141732*%
%ADD14R,0.035433070866141732X0.01968503937007874*%
%ADD15R,0.025590551181102365X0.041732283464566935*%
%ADD16R,0.011811023622047244X0.055118110236220472*%
%ADD17R,0.049212598425196853X0.0905511811023622*%
%ADD18R,0.027559055118110236X0.062992125984251982*%
%ADD19R,0.027559055118110236X0.043307086614173235*%
%ADD20R,0.012000000000000002X0.045000000000000005*%
%ADD21R,0.049212598425196853X0.03937007874015748*%
%ADD22R,0.03937007874015748X0.049212598425196853*%
%ADD23R,0.031496062992125991X0.029527559055118113*%
%ADD24R,0.051181102362204731X0.027559055118110236*%
%ADD25R,0.055118110236220472X0.047244094488188976*%
%ADD36C,0.0039370078740157488*%
%ADD37C,0.005905511811023622*%
%ADD38R,0.029527559055118113X0.031496062992125991*%
%ADD39R,0.01968503937007874X0.035433070866141732*%
%ADD40R,0.035433070866141732X0.01968503937007874*%
%ADD41R,0.025590551181102365X0.041732283464566935*%
%ADD42R,0.011811023622047244X0.055118110236220472*%
%ADD43R,0.049212598425196853X0.0905511811023622*%
%ADD44R,0.027559055118110236X0.062992125984251982*%
%ADD45R,0.027559055118110236X0.043307086614173235*%
%ADD46R,0.012000000000000002X0.045000000000000005*%
%ADD47R,0.049212598425196853X0.03937007874015748*%
%ADD48R,0.03937007874015748X0.049212598425196853*%
%ADD49R,0.031496062992125991X0.029527559055118113*%
%ADD50R,0.051181102362204731X0.027559055118110236*%
%ADD51R,0.055118110236220472X0.047244094488188976*%
%ADD52C,0.0039370078740157488*%
%ADD53C,0.005905511811023622*%
%ADD54R,0.029527559055118113X0.031496062992125991*%
%ADD55R,0.01968503937007874X0.035433070866141732*%
%ADD56R,0.035433070866141732X0.01968503937007874*%
%ADD57R,0.025590551181102365X0.041732283464566935*%
%ADD58R,0.011811023622047244X0.055118110236220472*%
%ADD59R,0.049212598425196853X0.0905511811023622*%
%ADD60R,0.027559055118110236X0.062992125984251982*%
%ADD61R,0.027559055118110236X0.043307086614173235*%
%ADD62R,0.012000000000000002X0.045000000000000005*%
%ADD63R,0.049212598425196853X0.03937007874015748*%
%ADD64R,0.03937007874015748X0.049212598425196853*%
%ADD65R,0.031496062992125991X0.029527559055118113*%
%ADD66R,0.051181102362204731X0.027559055118110236*%
%ADD67R,0.055118110236220472X0.047244094488188976*%
%ADD68C,0.0039370078740157488*%
%ADD69C,0.005905511811023622*%
%AMCOMP191*
4,1,3,
0.014763779527559053,0.015748031496062995,
-0.014763779527559058,0.015748031496062992,
-0.014763779527559053,-0.015748031496062995,
0.014763779527559058,-0.015748031496062992,
0*%
%ADD70COMP191*%
%AMCOMP192*
4,1,3,
0.0098425196850393682,0.017716535433070869,
-0.0098425196850393734,0.017716535433070866,
-0.0098425196850393682,-0.017716535433070869,
0.0098425196850393734,-0.017716535433070866,
0*%
%ADD71COMP192*%
%AMCOMP193*
4,1,3,
0.017716535433070866,0.0098425196850393734,
-0.017716535433070869,0.0098425196850393682,
-0.017716535433070866,-0.0098425196850393734,
0.017716535433070869,-0.0098425196850393682,
0*%
%ADD72COMP193*%
%AMCOMP194*
4,1,3,
0.012795275590551181,0.020866141732283468,
-0.012795275590551184,0.020866141732283468,
-0.012795275590551181,-0.020866141732283468,
0.012795275590551184,-0.020866141732283468,
0*%
%ADD73COMP194*%
%AMCOMP195*
4,1,3,
0.0059055118110236185,0.027559055118110236,
-0.0059055118110236254,0.027559055118110236,
-0.0059055118110236185,-0.027559055118110236,
0.0059055118110236254,-0.027559055118110236,
0*%
%ADD74COMP195*%
%AMCOMP196*
4,1,3,
0.024606299212598423,0.0452755905511811,
-0.02460629921259843,0.0452755905511811,
-0.024606299212598423,-0.0452755905511811,
0.02460629921259843,-0.0452755905511811,
0*%
%ADD75COMP196*%
%AMCOMP197*
4,1,3,
0.013779527559055114,0.031496062992125991,
-0.013779527559055123,0.031496062992125991,
-0.013779527559055114,-0.031496062992125991,
0.013779527559055123,-0.031496062992125991,
0*%
%ADD76COMP197*%
%AMCOMP198*
4,1,3,
0.013779527559055116,0.021653543307086617,
-0.01377952755905512,0.021653543307086617,
-0.013779527559055116,-0.021653543307086617,
0.01377952755905512,-0.021653543307086617,
0*%
%ADD77COMP198*%
%AMCOMP199*
4,1,3,
0.0059999999999999975,0.022500000000000003,
-0.0060000000000000036,0.022500000000000003,
-0.0059999999999999975,-0.022500000000000003,
0.0060000000000000036,-0.022500000000000003,
0*%
%ADD78COMP199*%
%AMCOMP200*
4,1,3,
0.024606299212598423,0.019685039370078747,
-0.02460629921259843,0.01968503937007874,
-0.024606299212598423,-0.019685039370078747,
0.02460629921259843,-0.01968503937007874,
0*%
%ADD79COMP200*%
%AMCOMP201*
4,1,3,
0.01968503937007874,0.02460629921259843,
-0.019685039370078747,0.024606299212598423,
-0.01968503937007874,-0.02460629921259843,
0.019685039370078747,-0.024606299212598423,
0*%
%ADD80COMP201*%
%AMCOMP202*
4,1,3,
0.015748031496062992,0.014763779527559058,
-0.015748031496062995,0.014763779527559053,
-0.015748031496062992,-0.014763779527559058,
0.015748031496062995,-0.014763779527559053,
0*%
%ADD81COMP202*%
%AMCOMP203*
4,1,3,
0.025590551181102365,0.01377952755905512,
-0.025590551181102365,0.013779527559055116,
-0.025590551181102365,-0.01377952755905512,
0.025590551181102365,-0.013779527559055116,
0*%
%ADD82COMP203*%
%AMCOMP204*
4,1,3,
0.027559055118110232,0.023622047244094491,
-0.027559055118110239,0.023622047244094484,
-0.027559055118110232,-0.023622047244094491,
0.027559055118110239,-0.023622047244094484,
0*%
%ADD83COMP204*%
%ADD84C,0.0039370078740157488*%
%ADD85C,0.005905511811023622*%
%ADD86R,0.029527559055118113X0.031496062992125991*%
%ADD87R,0.01968503937007874X0.035433070866141732*%
%ADD88R,0.035433070866141732X0.01968503937007874*%
%ADD89R,0.025590551181102365X0.041732283464566935*%
%ADD90R,0.011811023622047244X0.055118110236220472*%
%ADD91R,0.049212598425196853X0.0905511811023622*%
%ADD92R,0.027559055118110236X0.062992125984251982*%
%ADD93R,0.027559055118110236X0.043307086614173235*%
%ADD94R,0.012000000000000002X0.045000000000000005*%
%ADD95R,0.049212598425196853X0.03937007874015748*%
%ADD96R,0.03937007874015748X0.049212598425196853*%
%ADD97R,0.031496062992125991X0.029527559055118113*%
%ADD98R,0.051181102362204731X0.027559055118110236*%
%ADD99R,0.055118110236220472X0.047244094488188976*%
%ADD100C,0.0039370078740157488*%
%ADD101C,0.005905511811023622*%
%ADD102R,0.029527559055118113X0.031496062992125991*%
%ADD103R,0.01968503937007874X0.035433070866141732*%
%ADD104R,0.035433070866141732X0.01968503937007874*%
%ADD105R,0.025590551181102365X0.041732283464566935*%
%ADD106R,0.011811023622047244X0.055118110236220472*%
%ADD107R,0.049212598425196853X0.0905511811023622*%
%ADD108R,0.027559055118110236X0.062992125984251982*%
%ADD109R,0.027559055118110236X0.043307086614173235*%
%ADD110R,0.012000000000000002X0.045000000000000005*%
%ADD111R,0.049212598425196853X0.03937007874015748*%
%ADD112R,0.03937007874015748X0.049212598425196853*%
%ADD113R,0.031496062992125991X0.029527559055118113*%
%ADD114R,0.051181102362204731X0.027559055118110236*%
%ADD115R,0.055118110236220472X0.047244094488188976*%
%ADD116C,0.0039370078740157488*%
%ADD117C,0.005905511811023622*%
%ADD118R,0.029527559055118113X0.031496062992125991*%
%ADD119R,0.01968503937007874X0.035433070866141732*%
%ADD120R,0.035433070866141732X0.01968503937007874*%
%ADD121R,0.025590551181102365X0.041732283464566935*%
%ADD122R,0.011811023622047244X0.055118110236220472*%
%ADD123R,0.049212598425196853X0.0905511811023622*%
%ADD124R,0.027559055118110236X0.062992125984251982*%
%ADD125R,0.027559055118110236X0.043307086614173235*%
%ADD126R,0.012000000000000002X0.045000000000000005*%
%ADD127R,0.049212598425196853X0.03937007874015748*%
%ADD128R,0.03937007874015748X0.049212598425196853*%
%ADD129R,0.031496062992125991X0.029527559055118113*%
%ADD130R,0.051181102362204731X0.027559055118110236*%
%ADD131R,0.055118110236220472X0.047244094488188976*%
%ADD132C,0.0039370078740157488*%
%ADD133C,0.005905511811023622*%
%ADD134R,0.029527559055118113X0.031496062992125991*%
%ADD135R,0.01968503937007874X0.035433070866141732*%
%ADD136R,0.035433070866141732X0.01968503937007874*%
%ADD137R,0.025590551181102365X0.041732283464566935*%
%ADD138R,0.011811023622047244X0.055118110236220472*%
%ADD139R,0.049212598425196853X0.0905511811023622*%
%ADD140R,0.027559055118110236X0.062992125984251982*%
%ADD141R,0.027559055118110236X0.043307086614173235*%
%ADD142R,0.012000000000000002X0.045000000000000005*%
%ADD143R,0.049212598425196853X0.03937007874015748*%
%ADD144R,0.03937007874015748X0.049212598425196853*%
%ADD145R,0.031496062992125991X0.029527559055118113*%
%ADD146R,0.051181102362204731X0.027559055118110236*%
%ADD147R,0.055118110236220472X0.047244094488188976*%
%ADD148C,0.0039370078740157488*%
%ADD149C,0.005905511811023622*%
%ADD150R,0.029527559055118113X0.031496062992125991*%
%ADD151R,0.01968503937007874X0.035433070866141732*%
%ADD152R,0.035433070866141732X0.01968503937007874*%
%ADD153R,0.025590551181102365X0.041732283464566935*%
%ADD154R,0.011811023622047244X0.055118110236220472*%
%ADD155R,0.049212598425196853X0.0905511811023622*%
%ADD156R,0.027559055118110236X0.062992125984251982*%
%ADD157R,0.027559055118110236X0.043307086614173235*%
%ADD158R,0.012000000000000002X0.045000000000000005*%
%ADD159R,0.049212598425196853X0.03937007874015748*%
%ADD160R,0.03937007874015748X0.049212598425196853*%
%ADD161R,0.031496062992125991X0.029527559055118113*%
%ADD162R,0.051181102362204731X0.027559055118110236*%
%ADD163R,0.055118110236220472X0.047244094488188976*%
%ADD164C,0.0039370078740157488*%
%ADD165C,0.005905511811023622*%
%ADD166R,0.029527559055118113X0.031496062992125991*%
%ADD167R,0.01968503937007874X0.035433070866141732*%
%ADD168R,0.035433070866141732X0.01968503937007874*%
%ADD169R,0.025590551181102365X0.041732283464566935*%
%ADD170R,0.011811023622047244X0.055118110236220472*%
%ADD171R,0.049212598425196853X0.0905511811023622*%
%ADD172R,0.027559055118110236X0.062992125984251982*%
%ADD173R,0.027559055118110236X0.043307086614173235*%
%ADD174R,0.012000000000000002X0.045000000000000005*%
%ADD175R,0.049212598425196853X0.03937007874015748*%
%ADD176R,0.03937007874015748X0.049212598425196853*%
%ADD177R,0.031496062992125991X0.029527559055118113*%
%ADD178R,0.051181102362204731X0.027559055118110236*%
%ADD179R,0.055118110236220472X0.047244094488188976*%
G01G01*
D10*
D11*
X0000914960Y0001346220D02*
G75*
G03G03X0001134960Y0001566220J0000220000D01X0001134960Y0001566220J0000220000D01*
G01G01*
X0000318527Y0000239031D02*
X0000318527Y0001343362D01*
X0001275220Y0000239031D02*
X0000318527Y0000239031D01*
X0001275220Y0001756748D02*
X0001275220Y0000239031D01*
X0001133488Y0001756748D02*
X0001275220Y0001756748D01*
X0001134960Y0001566220D02*
X0001133488Y0001756748D01*
X0000314960Y0001346220D02*
X0000914960Y0001346220D01*
D12*
X0000578488Y0000830265D03*
X0000578488Y0000889320D03*
D13*
X0001092149Y0000876826D03*
X0001151204Y0000876826D03*
X0000573960Y0001119792D03*
X0000633015Y0001119792D03*
D14*
X0000658488Y0000612765D03*
X0000658488Y0000671820D03*
D13*
X0000803015Y0000672292D03*
X0000743960Y0000672292D03*
X0000886460Y0000672292D03*
X0000945515Y0000672292D03*
D15*
X0001096086Y0000715409D03*
X0001133488Y0000715409D03*
X0001170889Y0000715409D03*
X0001170889Y0000802023D03*
X0001096086Y0000802023D03*
D16*
X0001114748Y0001178007D03*
X0001095062Y0001178007D03*
X0001075377Y0001178007D03*
X0001055692Y0001178007D03*
X0001036007Y0001178007D03*
X0001016322Y0001178007D03*
D17*
X0000967110Y0001227220D03*
D18*
X0000928724Y0001213440D03*
D19*
X0000901165Y0001223283D03*
D17*
X0001163960Y0001227220D03*
D18*
X0001202346Y0001213440D03*
D19*
X0001229905Y0001223283D03*
D20*
X0000983488Y0001039792D03*
X0000958488Y0001039792D03*
X0000933488Y0001039792D03*
X0000908488Y0001039792D03*
X0000883488Y0001039792D03*
X0000858488Y0001039792D03*
X0000833488Y0001039792D03*
X0000808488Y0001039792D03*
X0000783488Y0001039792D03*
X0000758488Y0001039792D03*
X0000733488Y0001039792D03*
X0000708488Y0001039792D03*
X0000683488Y0001039792D03*
X0000658488Y0001039792D03*
X0000658488Y0000777292D03*
X0000683488Y0000777292D03*
X0000708488Y0000777292D03*
X0000733488Y0000777292D03*
X0000758488Y0000777292D03*
X0000783488Y0000777292D03*
X0000808488Y0000777292D03*
X0000833488Y0000777292D03*
X0000858488Y0000777292D03*
X0000883488Y0000777292D03*
X0000908488Y0000777292D03*
X0000933488Y0000777292D03*
X0000958488Y0000777292D03*
X0000983488Y0000777292D03*
D21*
X0001090574Y0000496511D03*
X0001090574Y0000575251D03*
X0000578488Y0000965422D03*
X0000578488Y0001044162D03*
D22*
X0001003960Y0000648086D03*
X0001082700Y0000648086D03*
D23*
X0001019708Y0000589031D03*
X0000960653Y0000589031D03*
D24*
X0001186637Y0000445330D03*
X0001186637Y0000520133D03*
D23*
X0000801204Y0000606748D03*
X0000742149Y0000606748D03*
X0001149629Y0000388244D03*
X0001090574Y0000388244D03*
D14*
X0001090574Y0000335094D03*
X0001090574Y0000276039D03*
D25*
X0001093960Y0000950291D03*
X0001180574Y0000950291D03*
X0001180574Y0001017220D03*
X0001093960Y0001017220D03*
G04 next file*
G04 Gerber Fmt 4.6, Leading zero omitted, Abs format (unit mm)*
G04 Created by KiCad (PCBNEW 4.0.7) date Tuesday, 06 March 2018 'PMt' 15:17:41*
G01G01*
G04 APERTURE LIST*
G04 APERTURE END LIST*
D36*
D37*
X0001722834Y0001882125D02*
G75*
G03G03X0001502834Y0001662125J-0000220000D01X0001502834Y0001662125J-0000220000D01*
G01G01*
X0002319267Y0002989314D02*
X0002319267Y0001884984D01*
X0001362574Y0002989314D02*
X0002319267Y0002989314D01*
X0001362574Y0001471598D02*
X0001362574Y0002989314D01*
X0001504307Y0001471598D02*
X0001362574Y0001471598D01*
X0001502834Y0001662125D02*
X0001504307Y0001471598D01*
X0002322834Y0001882125D02*
X0001722834Y0001882125D01*
D38*
X0002059307Y0002398081D03*
X0002059307Y0002339026D03*
D39*
X0001545645Y0002351519D03*
X0001486590Y0002351519D03*
X0002063834Y0002108553D03*
X0002004779Y0002108553D03*
D40*
X0001979307Y0002615581D03*
X0001979307Y0002556526D03*
D39*
X0001834779Y0002556053D03*
X0001893834Y0002556053D03*
X0001751334Y0002556053D03*
X0001692279Y0002556053D03*
D41*
X0001541708Y0002512937D03*
X0001504307Y0002512937D03*
X0001466905Y0002512937D03*
X0001466905Y0002426322D03*
X0001541708Y0002426322D03*
D42*
X0001523047Y0002050338D03*
X0001542732Y0002050338D03*
X0001562417Y0002050338D03*
X0001582102Y0002050338D03*
X0001601787Y0002050338D03*
X0001621472Y0002050338D03*
D43*
X0001670685Y0002001125D03*
D44*
X0001709070Y0002014905D03*
D45*
X0001736629Y0002005062D03*
D43*
X0001473834Y0002001125D03*
D44*
X0001435448Y0002014905D03*
D45*
X0001407889Y0002005062D03*
D46*
X0001654307Y0002188553D03*
X0001679307Y0002188553D03*
X0001704307Y0002188553D03*
X0001729307Y0002188553D03*
X0001754307Y0002188553D03*
X0001779307Y0002188553D03*
X0001804307Y0002188553D03*
X0001829307Y0002188553D03*
X0001854307Y0002188553D03*
X0001879307Y0002188553D03*
X0001904307Y0002188553D03*
X0001929307Y0002188553D03*
X0001954307Y0002188553D03*
X0001979307Y0002188553D03*
X0001979307Y0002451053D03*
X0001954307Y0002451053D03*
X0001929307Y0002451053D03*
X0001904307Y0002451053D03*
X0001879307Y0002451053D03*
X0001854307Y0002451053D03*
X0001829307Y0002451053D03*
X0001804307Y0002451053D03*
X0001779307Y0002451053D03*
X0001754307Y0002451053D03*
X0001729307Y0002451053D03*
X0001704307Y0002451053D03*
X0001679307Y0002451053D03*
X0001654307Y0002451053D03*
D47*
X0001547220Y0002731834D03*
X0001547220Y0002653094D03*
X0002059307Y0002262923D03*
X0002059307Y0002184183D03*
D48*
X0001633834Y0002580259D03*
X0001555094Y0002580259D03*
D49*
X0001618086Y0002639314D03*
X0001677141Y0002639314D03*
D50*
X0001451157Y0002783015D03*
X0001451157Y0002708212D03*
D49*
X0001836590Y0002621598D03*
X0001895645Y0002621598D03*
X0001488165Y0002840102D03*
X0001547220Y0002840102D03*
D40*
X0001547220Y0002893251D03*
X0001547220Y0002952307D03*
D51*
X0001543834Y0002278055D03*
X0001457220Y0002278055D03*
X0001457220Y0002211125D03*
X0001543834Y0002211125D03*
G04 next file*
G04 Gerber Fmt 4.6, Leading zero omitted, Abs format (unit mm)*
G04 Created by KiCad (PCBNEW 4.0.7) date Tuesday, 06 March 2018 'PMt' 15:17:41*
G01G01*
G04 APERTURE LIST*
G04 APERTURE END LIST*
D52*
D53*
X0001977952Y0001346220D02*
G75*
G03G03X0002197952Y0001566220J0000220000D01X0002197952Y0001566220J0000220000D01*
G01G01*
X0001381519Y0000239031D02*
X0001381519Y0001343362D01*
X0002338212Y0000239031D02*
X0001381519Y0000239031D01*
X0002338212Y0001756748D02*
X0002338212Y0000239031D01*
X0002196480Y0001756748D02*
X0002338212Y0001756748D01*
X0002197952Y0001566220D02*
X0002196480Y0001756748D01*
X0001377952Y0001346220D02*
X0001977952Y0001346220D01*
D54*
X0001641480Y0000830265D03*
X0001641480Y0000889320D03*
D55*
X0002155141Y0000876826D03*
X0002214196Y0000876826D03*
X0001636952Y0001119792D03*
X0001696007Y0001119792D03*
D56*
X0001721480Y0000612765D03*
X0001721480Y0000671820D03*
D55*
X0001866007Y0000672292D03*
X0001806952Y0000672292D03*
X0001949452Y0000672292D03*
X0002008507Y0000672292D03*
D57*
X0002159078Y0000715409D03*
X0002196480Y0000715409D03*
X0002233881Y0000715409D03*
X0002233881Y0000802023D03*
X0002159078Y0000802023D03*
D58*
X0002177740Y0001178007D03*
X0002158055Y0001178007D03*
X0002138370Y0001178007D03*
X0002118685Y0001178007D03*
X0002099000Y0001178007D03*
X0002079314Y0001178007D03*
D59*
X0002030102Y0001227220D03*
D60*
X0001991716Y0001213440D03*
D61*
X0001964157Y0001223283D03*
D59*
X0002226952Y0001227220D03*
D60*
X0002265338Y0001213440D03*
D61*
X0002292897Y0001223283D03*
D62*
X0002046480Y0001039792D03*
X0002021480Y0001039792D03*
X0001996480Y0001039792D03*
X0001971480Y0001039792D03*
X0001946480Y0001039792D03*
X0001921480Y0001039792D03*
X0001896480Y0001039792D03*
X0001871480Y0001039792D03*
X0001846480Y0001039792D03*
X0001821480Y0001039792D03*
X0001796480Y0001039792D03*
X0001771480Y0001039792D03*
X0001746480Y0001039792D03*
X0001721480Y0001039792D03*
X0001721480Y0000777292D03*
X0001746480Y0000777292D03*
X0001771480Y0000777292D03*
X0001796480Y0000777292D03*
X0001821480Y0000777292D03*
X0001846480Y0000777292D03*
X0001871480Y0000777292D03*
X0001896480Y0000777292D03*
X0001921480Y0000777292D03*
X0001946480Y0000777292D03*
X0001971480Y0000777292D03*
X0001996480Y0000777292D03*
X0002021480Y0000777292D03*
X0002046480Y0000777292D03*
D63*
X0002153566Y0000496511D03*
X0002153566Y0000575251D03*
X0001641480Y0000965422D03*
X0001641480Y0001044162D03*
D64*
X0002066952Y0000648086D03*
X0002145692Y0000648086D03*
D65*
X0002082700Y0000589031D03*
X0002023645Y0000589031D03*
D66*
X0002249629Y0000445330D03*
X0002249629Y0000520133D03*
D65*
X0001864196Y0000606748D03*
X0001805141Y0000606748D03*
X0002212622Y0000388244D03*
X0002153566Y0000388244D03*
D56*
X0002153566Y0000335094D03*
X0002153566Y0000276039D03*
D67*
X0002156952Y0000950291D03*
X0002243566Y0000950291D03*
X0002243566Y0001017220D03*
X0002156952Y0001017220D03*
G04 next file*
G04 Gerber Fmt 4.6, Leading zero omitted, Abs format (unit mm)*
G04 Created by KiCad (PCBNEW 4.0.7) date Tuesday, 06 March 2018 'PMt' 15:17:41*
G01G01*
G04 APERTURE LIST*
G04 APERTURE END LIST*
D68*
D69*
X0000659842Y0001882125D02*
G75*
G03G03X0000439842Y0001662125J-0000220000D01X0000439842Y0001662125J-0000220000D01*
G01G01*
X0001256275Y0002989314D02*
X0001256275Y0001884984D01*
X0000299582Y0002989314D02*
X0001256275Y0002989314D01*
X0000299582Y0001471598D02*
X0000299582Y0002989314D01*
X0000441314Y0001471598D02*
X0000299582Y0001471598D01*
X0000439842Y0001662125D02*
X0000441314Y0001471598D01*
X0001259842Y0001882125D02*
X0000659842Y0001882125D01*
D70*
X0000996315Y0002398081D03*
X0000996315Y0002339026D03*
D71*
X0000482653Y0002351519D03*
X0000423598Y0002351519D03*
X0001000842Y0002108553D03*
X0000941787Y0002108553D03*
D72*
X0000916315Y0002615581D03*
X0000916315Y0002556526D03*
D71*
X0000771787Y0002556053D03*
X0000830842Y0002556053D03*
X0000688342Y0002556053D03*
X0000629287Y0002556053D03*
D73*
X0000478716Y0002512936D03*
X0000441314Y0002512936D03*
X0000403913Y0002512936D03*
X0000403913Y0002426322D03*
X0000478716Y0002426322D03*
D74*
X0000460055Y0002050338D03*
X0000479740Y0002050338D03*
X0000499425Y0002050338D03*
X0000519110Y0002050338D03*
X0000538795Y0002050338D03*
X0000558480Y0002050338D03*
D75*
X0000607692Y0002001125D03*
D76*
X0000646078Y0002014905D03*
D77*
X0000673637Y0002005062D03*
D75*
X0000410842Y0002001125D03*
D76*
X0000372456Y0002014905D03*
D77*
X0000344897Y0002005062D03*
D78*
X0000591315Y0002188553D03*
X0000616315Y0002188553D03*
X0000641315Y0002188553D03*
X0000666315Y0002188553D03*
X0000691315Y0002188553D03*
X0000716315Y0002188553D03*
X0000741315Y0002188553D03*
X0000766315Y0002188553D03*
X0000791315Y0002188553D03*
X0000816315Y0002188553D03*
X0000841315Y0002188553D03*
X0000866315Y0002188553D03*
X0000891315Y0002188553D03*
X0000916315Y0002188553D03*
X0000916315Y0002451053D03*
X0000891315Y0002451053D03*
X0000866315Y0002451053D03*
X0000841315Y0002451053D03*
X0000816315Y0002451053D03*
X0000791315Y0002451053D03*
X0000766315Y0002451053D03*
X0000741315Y0002451053D03*
X0000716315Y0002451053D03*
X0000691315Y0002451053D03*
X0000666315Y0002451053D03*
X0000641315Y0002451053D03*
X0000616315Y0002451053D03*
X0000591315Y0002451053D03*
D79*
X0000484228Y0002731834D03*
X0000484228Y0002653094D03*
X0000996315Y0002262923D03*
X0000996315Y0002184183D03*
D80*
X0000570842Y0002580259D03*
X0000492102Y0002580259D03*
D81*
X0000555094Y0002639314D03*
X0000614149Y0002639314D03*
D82*
X0000388165Y0002783015D03*
X0000388165Y0002708212D03*
D81*
X0000773598Y0002621598D03*
X0000832653Y0002621598D03*
X0000425173Y0002840102D03*
X0000484228Y0002840102D03*
D72*
X0000484228Y0002893251D03*
X0000484228Y0002952307D03*
D83*
X0000480842Y0002278055D03*
X0000394228Y0002278055D03*
X0000394228Y0002211125D03*
X0000480842Y0002211125D03*
G04 next file*
G04 Gerber Fmt 4.6, Leading zero omitted, Abs format (unit mm)*
G04 Created by KiCad (PCBNEW 4.0.7) date Tuesday, 06 March 2018 'PMt' 15:17:41*
G01G01*
G04 APERTURE LIST*
G04 APERTURE END LIST*
D84*
D85*
X0002785826Y0001882125D02*
G75*
G03G03X0002565826Y0001662125J-0000220000D01X0002565826Y0001662125J-0000220000D01*
G01G01*
X0003382259Y0002989314D02*
X0003382259Y0001884984D01*
X0002425566Y0002989314D02*
X0003382259Y0002989314D01*
X0002425566Y0001471598D02*
X0002425566Y0002989314D01*
X0002567299Y0001471598D02*
X0002425566Y0001471598D01*
X0002565826Y0001662125D02*
X0002567299Y0001471598D01*
X0003385826Y0001882125D02*
X0002785826Y0001882125D01*
D86*
X0003122299Y0002398081D03*
X0003122299Y0002339026D03*
D87*
X0002608637Y0002351519D03*
X0002549582Y0002351519D03*
X0003126826Y0002108553D03*
X0003067771Y0002108553D03*
D88*
X0003042299Y0002615581D03*
X0003042299Y0002556526D03*
D87*
X0002897771Y0002556053D03*
X0002956826Y0002556053D03*
X0002814326Y0002556053D03*
X0002755271Y0002556053D03*
D89*
X0002604700Y0002512937D03*
X0002567299Y0002512937D03*
X0002529897Y0002512937D03*
X0002529897Y0002426322D03*
X0002604700Y0002426322D03*
D90*
X0002586039Y0002050338D03*
X0002605724Y0002050338D03*
X0002625409Y0002050338D03*
X0002645094Y0002050338D03*
X0002664779Y0002050338D03*
X0002684464Y0002050338D03*
D91*
X0002733677Y0002001125D03*
D92*
X0002772062Y0002014905D03*
D93*
X0002799622Y0002005062D03*
D91*
X0002536826Y0002001125D03*
D92*
X0002498440Y0002014905D03*
D93*
X0002470881Y0002005062D03*
D94*
X0002717299Y0002188553D03*
X0002742299Y0002188553D03*
X0002767299Y0002188553D03*
X0002792299Y0002188553D03*
X0002817299Y0002188553D03*
X0002842299Y0002188553D03*
X0002867299Y0002188553D03*
X0002892299Y0002188553D03*
X0002917299Y0002188553D03*
X0002942299Y0002188553D03*
X0002967299Y0002188553D03*
X0002992299Y0002188553D03*
X0003017299Y0002188553D03*
X0003042299Y0002188553D03*
X0003042299Y0002451053D03*
X0003017299Y0002451053D03*
X0002992299Y0002451053D03*
X0002967299Y0002451053D03*
X0002942299Y0002451053D03*
X0002917299Y0002451053D03*
X0002892299Y0002451053D03*
X0002867299Y0002451053D03*
X0002842299Y0002451053D03*
X0002817299Y0002451053D03*
X0002792299Y0002451053D03*
X0002767299Y0002451053D03*
X0002742299Y0002451053D03*
X0002717299Y0002451053D03*
D95*
X0002610212Y0002731834D03*
X0002610212Y0002653094D03*
X0003122299Y0002262923D03*
X0003122299Y0002184183D03*
D96*
X0002696826Y0002580259D03*
X0002618086Y0002580259D03*
D97*
X0002681078Y0002639314D03*
X0002740133Y0002639314D03*
D98*
X0002514149Y0002783015D03*
X0002514149Y0002708212D03*
D97*
X0002899582Y0002621598D03*
X0002958637Y0002621598D03*
X0002551157Y0002840102D03*
X0002610212Y0002840102D03*
D88*
X0002610212Y0002893251D03*
X0002610212Y0002952307D03*
D99*
X0002606826Y0002278055D03*
X0002520212Y0002278055D03*
X0002520212Y0002211125D03*
X0002606826Y0002211125D03*
G04 next file*
G04 Gerber Fmt 4.6, Leading zero omitted, Abs format (unit mm)*
G04 Created by KiCad (PCBNEW 4.0.7) date Tuesday, 06 March 2018 'PMt' 15:17:41*
G01G01*
G04 APERTURE LIST*
G04 APERTURE END LIST*
D100*
D101*
X0003040944Y0001346220D02*
G75*
G03G03X0003260944Y0001566220J0000220000D01X0003260944Y0001566220J0000220000D01*
G01G01*
X0002444511Y0000239031D02*
X0002444511Y0001343362D01*
X0003401204Y0000239031D02*
X0002444511Y0000239031D01*
X0003401204Y0001756748D02*
X0003401204Y0000239031D01*
X0003259472Y0001756748D02*
X0003401204Y0001756748D01*
X0003260944Y0001566220D02*
X0003259472Y0001756748D01*
X0002440944Y0001346220D02*
X0003040944Y0001346220D01*
D102*
X0002704472Y0000830265D03*
X0002704472Y0000889320D03*
D103*
X0003218133Y0000876826D03*
X0003277188Y0000876826D03*
X0002699944Y0001119792D03*
X0002758999Y0001119792D03*
D104*
X0002784472Y0000612765D03*
X0002784472Y0000671820D03*
D103*
X0002928999Y0000672292D03*
X0002869944Y0000672292D03*
X0003012444Y0000672292D03*
X0003071499Y0000672292D03*
D105*
X0003222070Y0000715409D03*
X0003259472Y0000715409D03*
X0003296874Y0000715409D03*
X0003296874Y0000802023D03*
X0003222070Y0000802023D03*
D106*
X0003240732Y0001178007D03*
X0003221047Y0001178007D03*
X0003201362Y0001178007D03*
X0003181677Y0001178007D03*
X0003161992Y0001178007D03*
X0003142307Y0001178007D03*
D107*
X0003093094Y0001227220D03*
D108*
X0003054708Y0001213440D03*
D109*
X0003027149Y0001223283D03*
D107*
X0003289944Y0001227220D03*
D108*
X0003328330Y0001213440D03*
D109*
X0003355889Y0001223283D03*
D110*
X0003109472Y0001039792D03*
X0003084472Y0001039792D03*
X0003059472Y0001039792D03*
X0003034472Y0001039792D03*
X0003009472Y0001039792D03*
X0002984472Y0001039792D03*
X0002959472Y0001039792D03*
X0002934472Y0001039792D03*
X0002909472Y0001039792D03*
X0002884472Y0001039792D03*
X0002859472Y0001039792D03*
X0002834472Y0001039792D03*
X0002809472Y0001039792D03*
X0002784472Y0001039792D03*
X0002784472Y0000777292D03*
X0002809472Y0000777292D03*
X0002834472Y0000777292D03*
X0002859472Y0000777292D03*
X0002884472Y0000777292D03*
X0002909472Y0000777292D03*
X0002934472Y0000777292D03*
X0002959472Y0000777292D03*
X0002984472Y0000777292D03*
X0003009472Y0000777292D03*
X0003034472Y0000777292D03*
X0003059472Y0000777292D03*
X0003084472Y0000777292D03*
X0003109472Y0000777292D03*
D111*
X0003216559Y0000496511D03*
X0003216559Y0000575251D03*
X0002704472Y0000965422D03*
X0002704472Y0001044162D03*
D112*
X0003129944Y0000648086D03*
X0003208685Y0000648086D03*
D113*
X0003145692Y0000589031D03*
X0003086637Y0000589031D03*
D114*
X0003312622Y0000445330D03*
X0003312622Y0000520133D03*
D113*
X0002927188Y0000606748D03*
X0002868133Y0000606748D03*
X0003275614Y0000388244D03*
X0003216559Y0000388244D03*
D104*
X0003216559Y0000335094D03*
X0003216559Y0000276039D03*
D115*
X0003219944Y0000950291D03*
X0003306559Y0000950291D03*
X0003306559Y0001017220D03*
X0003219944Y0001017220D03*
G04 next file*
G04 Gerber Fmt 4.6, Leading zero omitted, Abs format (unit mm)*
G04 Created by KiCad (PCBNEW 4.0.7) date Tuesday, 06 March 2018 'PMt' 15:17:41*
G01G01*
G04 APERTURE LIST*
G04 APERTURE END LIST*
D116*
D117*
X0004103937Y0001346220D02*
G75*
G03G03X0004323937Y0001566220J0000220000D01X0004323937Y0001566220J0000220000D01*
G01G01*
X0003507503Y0000239031D02*
X0003507503Y0001343362D01*
X0004464196Y0000239031D02*
X0003507503Y0000239031D01*
X0004464196Y0001756748D02*
X0004464196Y0000239031D01*
X0004322464Y0001756748D02*
X0004464196Y0001756748D01*
X0004323937Y0001566220D02*
X0004322464Y0001756748D01*
X0003503937Y0001346220D02*
X0004103937Y0001346220D01*
D118*
X0003767464Y0000830265D03*
X0003767464Y0000889320D03*
D119*
X0004281125Y0000876826D03*
X0004340181Y0000876826D03*
X0003762936Y0001119792D03*
X0003821992Y0001119792D03*
D120*
X0003847464Y0000612765D03*
X0003847464Y0000671820D03*
D119*
X0003991992Y0000672292D03*
X0003932936Y0000672292D03*
X0004075436Y0000672292D03*
X0004134492Y0000672292D03*
D121*
X0004285062Y0000715409D03*
X0004322464Y0000715409D03*
X0004359866Y0000715409D03*
X0004359866Y0000802023D03*
X0004285062Y0000802023D03*
D122*
X0004303724Y0001178007D03*
X0004284039Y0001178007D03*
X0004264354Y0001178007D03*
X0004244669Y0001178007D03*
X0004224984Y0001178007D03*
X0004205299Y0001178007D03*
D123*
X0004156086Y0001227220D03*
D124*
X0004117700Y0001213440D03*
D125*
X0004090141Y0001223283D03*
D123*
X0004352937Y0001227220D03*
D124*
X0004391322Y0001213440D03*
D125*
X0004418881Y0001223283D03*
D126*
X0004172464Y0001039792D03*
X0004147464Y0001039792D03*
X0004122464Y0001039792D03*
X0004097464Y0001039792D03*
X0004072464Y0001039792D03*
X0004047464Y0001039792D03*
X0004022464Y0001039792D03*
X0003997464Y0001039792D03*
X0003972464Y0001039792D03*
X0003947464Y0001039792D03*
X0003922464Y0001039792D03*
X0003897464Y0001039792D03*
X0003872464Y0001039792D03*
X0003847464Y0001039792D03*
X0003847464Y0000777292D03*
X0003872464Y0000777292D03*
X0003897464Y0000777292D03*
X0003922464Y0000777292D03*
X0003947464Y0000777292D03*
X0003972464Y0000777292D03*
X0003997464Y0000777292D03*
X0004022464Y0000777292D03*
X0004047464Y0000777292D03*
X0004072464Y0000777292D03*
X0004097464Y0000777292D03*
X0004122464Y0000777292D03*
X0004147464Y0000777292D03*
X0004172464Y0000777292D03*
D127*
X0004279551Y0000496511D03*
X0004279551Y0000575251D03*
X0003767464Y0000965422D03*
X0003767464Y0001044162D03*
D128*
X0004192936Y0000648086D03*
X0004271677Y0000648086D03*
D129*
X0004208685Y0000589031D03*
X0004149629Y0000589031D03*
D130*
X0004375614Y0000445330D03*
X0004375614Y0000520133D03*
D129*
X0003990181Y0000606748D03*
X0003931125Y0000606748D03*
X0004338606Y0000388244D03*
X0004279551Y0000388244D03*
D120*
X0004279551Y0000335094D03*
X0004279551Y0000276039D03*
D131*
X0004282937Y0000950291D03*
X0004369551Y0000950291D03*
X0004369551Y0001017220D03*
X0004282937Y0001017220D03*
G04 next file*
G04 Gerber Fmt 4.6, Leading zero omitted, Abs format (unit mm)*
G04 Created by KiCad (PCBNEW 4.0.7) date Tuesday, 06 March 2018 'PMt' 15:17:41*
G01G01*
G04 APERTURE LIST*
G04 APERTURE END LIST*
D132*
D133*
X0003848818Y0001882125D02*
G75*
G03G03X0003628818Y0001662125J-0000220000D01X0003628818Y0001662125J-0000220000D01*
G01G01*
X0004445251Y0002989314D02*
X0004445251Y0001884984D01*
X0003488559Y0002989314D02*
X0004445251Y0002989314D01*
X0003488559Y0001471598D02*
X0003488559Y0002989314D01*
X0003630291Y0001471598D02*
X0003488559Y0001471598D01*
X0003628818Y0001662125D02*
X0003630291Y0001471598D01*
X0004448818Y0001882125D02*
X0003848818Y0001882125D01*
D134*
X0004185291Y0002398081D03*
X0004185291Y0002339026D03*
D135*
X0003671629Y0002351519D03*
X0003612574Y0002351519D03*
X0004189818Y0002108553D03*
X0004130763Y0002108553D03*
D136*
X0004105291Y0002615581D03*
X0004105291Y0002556526D03*
D135*
X0003960763Y0002556053D03*
X0004019818Y0002556053D03*
X0003877318Y0002556053D03*
X0003818263Y0002556053D03*
D137*
X0003667692Y0002512937D03*
X0003630291Y0002512937D03*
X0003592889Y0002512937D03*
X0003592889Y0002426322D03*
X0003667692Y0002426322D03*
D138*
X0003649031Y0002050338D03*
X0003668716Y0002050338D03*
X0003688401Y0002050338D03*
X0003708086Y0002050338D03*
X0003727771Y0002050338D03*
X0003747456Y0002050338D03*
D139*
X0003796669Y0002001125D03*
D140*
X0003835055Y0002014905D03*
D141*
X0003862614Y0002005062D03*
D139*
X0003599818Y0002001125D03*
D140*
X0003561433Y0002014905D03*
D141*
X0003533874Y0002005062D03*
D142*
X0003780291Y0002188553D03*
X0003805291Y0002188553D03*
X0003830291Y0002188553D03*
X0003855291Y0002188553D03*
X0003880291Y0002188553D03*
X0003905291Y0002188553D03*
X0003930291Y0002188553D03*
X0003955291Y0002188553D03*
X0003980291Y0002188553D03*
X0004005291Y0002188553D03*
X0004030291Y0002188553D03*
X0004055291Y0002188553D03*
X0004080291Y0002188553D03*
X0004105291Y0002188553D03*
X0004105291Y0002451053D03*
X0004080291Y0002451053D03*
X0004055291Y0002451053D03*
X0004030291Y0002451053D03*
X0004005291Y0002451053D03*
X0003980291Y0002451053D03*
X0003955291Y0002451053D03*
X0003930291Y0002451053D03*
X0003905291Y0002451053D03*
X0003880291Y0002451053D03*
X0003855291Y0002451053D03*
X0003830291Y0002451053D03*
X0003805291Y0002451053D03*
X0003780291Y0002451053D03*
D143*
X0003673204Y0002731834D03*
X0003673204Y0002653094D03*
X0004185291Y0002262923D03*
X0004185291Y0002184183D03*
D144*
X0003759818Y0002580259D03*
X0003681078Y0002580259D03*
D145*
X0003744070Y0002639314D03*
X0003803125Y0002639314D03*
D146*
X0003577141Y0002783015D03*
X0003577141Y0002708212D03*
D145*
X0003962574Y0002621598D03*
X0004021629Y0002621598D03*
X0003614149Y0002840102D03*
X0003673204Y0002840102D03*
D136*
X0003673204Y0002893251D03*
X0003673204Y0002952307D03*
D147*
X0003669818Y0002278055D03*
X0003583204Y0002278055D03*
X0003583204Y0002211125D03*
X0003669818Y0002211125D03*
G04 next file*
G04 Gerber Fmt 4.6, Leading zero omitted, Abs format (unit mm)*
G04 Created by KiCad (PCBNEW 4.0.7) date Tuesday, 06 March 2018 'PMt' 15:17:41*
G01G01*
G04 APERTURE LIST*
G04 APERTURE END LIST*
D148*
D149*
X0005166929Y0001346220D02*
G75*
G03G03X0005386929Y0001566220J0000220000D01X0005386929Y0001566220J0000220000D01*
G01G01*
X0004570496Y0000239031D02*
X0004570496Y0001343362D01*
X0005527188Y0000239031D02*
X0004570496Y0000239031D01*
X0005527188Y0001756748D02*
X0005527188Y0000239031D01*
X0005385456Y0001756748D02*
X0005527188Y0001756748D01*
X0005386929Y0001566220D02*
X0005385456Y0001756748D01*
X0004566929Y0001346220D02*
X0005166929Y0001346220D01*
D150*
X0004830456Y0000830265D03*
X0004830456Y0000889320D03*
D151*
X0005344118Y0000876826D03*
X0005403173Y0000876826D03*
X0004825929Y0001119792D03*
X0004884984Y0001119792D03*
D152*
X0004910456Y0000612765D03*
X0004910456Y0000671820D03*
D151*
X0005054984Y0000672292D03*
X0004995929Y0000672292D03*
X0005138429Y0000672292D03*
X0005197484Y0000672292D03*
D153*
X0005348055Y0000715409D03*
X0005385456Y0000715409D03*
X0005422858Y0000715409D03*
X0005422858Y0000802023D03*
X0005348055Y0000802023D03*
D154*
X0005366716Y0001178007D03*
X0005347031Y0001178007D03*
X0005327346Y0001178007D03*
X0005307661Y0001178007D03*
X0005287976Y0001178007D03*
X0005268291Y0001178007D03*
D155*
X0005219078Y0001227220D03*
D156*
X0005180692Y0001213440D03*
D157*
X0005153133Y0001223283D03*
D155*
X0005415929Y0001227220D03*
D156*
X0005454314Y0001213440D03*
D157*
X0005481874Y0001223283D03*
D158*
X0005235456Y0001039792D03*
X0005210456Y0001039792D03*
X0005185456Y0001039792D03*
X0005160456Y0001039792D03*
X0005135456Y0001039792D03*
X0005110456Y0001039792D03*
X0005085456Y0001039792D03*
X0005060456Y0001039792D03*
X0005035456Y0001039792D03*
X0005010456Y0001039792D03*
X0004985456Y0001039792D03*
X0004960456Y0001039792D03*
X0004935456Y0001039792D03*
X0004910456Y0001039792D03*
X0004910456Y0000777292D03*
X0004935456Y0000777292D03*
X0004960456Y0000777292D03*
X0004985456Y0000777292D03*
X0005010456Y0000777292D03*
X0005035456Y0000777292D03*
X0005060456Y0000777292D03*
X0005085456Y0000777292D03*
X0005110456Y0000777292D03*
X0005135456Y0000777292D03*
X0005160456Y0000777292D03*
X0005185456Y0000777292D03*
X0005210456Y0000777292D03*
X0005235456Y0000777292D03*
D159*
X0005342543Y0000496511D03*
X0005342543Y0000575251D03*
X0004830456Y0000965422D03*
X0004830456Y0001044162D03*
D160*
X0005255929Y0000648086D03*
X0005334669Y0000648086D03*
D161*
X0005271677Y0000589031D03*
X0005212622Y0000589031D03*
D162*
X0005438606Y0000445330D03*
X0005438606Y0000520133D03*
D161*
X0005053173Y0000606748D03*
X0004994118Y0000606748D03*
X0005401598Y0000388244D03*
X0005342543Y0000388244D03*
D152*
X0005342543Y0000335094D03*
X0005342543Y0000276039D03*
D163*
X0005345929Y0000950291D03*
X0005432543Y0000950291D03*
X0005432543Y0001017220D03*
X0005345929Y0001017220D03*
G04 next file*
G04 Gerber Fmt 4.6, Leading zero omitted, Abs format (unit mm)*
G04 Created by KiCad (PCBNEW 4.0.7) date Tuesday, 06 March 2018 'PMt' 15:17:41*
G01G01*
G04 APERTURE LIST*
G04 APERTURE END LIST*
D164*
D165*
X0004911810Y0001882125D02*
G75*
G03G03X0004691811Y0001662125J-0000220000D01X0004691811Y0001662125J-0000220000D01*
G01G01*
X0005508244Y0002989314D02*
X0005508244Y0001884984D01*
X0004551551Y0002989314D02*
X0005508244Y0002989314D01*
X0004551551Y0001471598D02*
X0004551551Y0002989314D01*
X0004693283Y0001471598D02*
X0004551551Y0001471598D01*
X0004691811Y0001662125D02*
X0004693283Y0001471598D01*
X0005511811Y0001882125D02*
X0004911810Y0001882125D01*
D166*
X0005248283Y0002398081D03*
X0005248283Y0002339026D03*
D167*
X0004734622Y0002351519D03*
X0004675566Y0002351519D03*
X0005252811Y0002108553D03*
X0005193755Y0002108553D03*
D168*
X0005168283Y0002615581D03*
X0005168283Y0002556526D03*
D167*
X0005023755Y0002556053D03*
X0005082811Y0002556053D03*
X0004940311Y0002556053D03*
X0004881255Y0002556053D03*
D169*
X0004730685Y0002512937D03*
X0004693283Y0002512937D03*
X0004655881Y0002512937D03*
X0004655881Y0002426322D03*
X0004730685Y0002426322D03*
D170*
X0004712023Y0002050338D03*
X0004731708Y0002050338D03*
X0004751393Y0002050338D03*
X0004771078Y0002050338D03*
X0004790763Y0002050338D03*
X0004810448Y0002050338D03*
D171*
X0004859661Y0002001125D03*
D172*
X0004898047Y0002014905D03*
D173*
X0004925606Y0002005062D03*
D171*
X0004662811Y0002001125D03*
D172*
X0004624425Y0002014905D03*
D173*
X0004596866Y0002005062D03*
D174*
X0004843283Y0002188553D03*
X0004868283Y0002188553D03*
X0004893283Y0002188553D03*
X0004918283Y0002188553D03*
X0004943283Y0002188553D03*
X0004968283Y0002188553D03*
X0004993283Y0002188553D03*
X0005018283Y0002188553D03*
X0005043283Y0002188553D03*
X0005068283Y0002188553D03*
X0005093283Y0002188553D03*
X0005118283Y0002188553D03*
X0005143283Y0002188553D03*
X0005168283Y0002188553D03*
X0005168283Y0002451053D03*
X0005143283Y0002451053D03*
X0005118283Y0002451053D03*
X0005093283Y0002451053D03*
X0005068283Y0002451053D03*
X0005043283Y0002451053D03*
X0005018283Y0002451053D03*
X0004993283Y0002451053D03*
X0004968283Y0002451053D03*
X0004943283Y0002451053D03*
X0004918283Y0002451053D03*
X0004893283Y0002451053D03*
X0004868283Y0002451053D03*
X0004843283Y0002451053D03*
D175*
X0004736196Y0002731834D03*
X0004736196Y0002653094D03*
X0005248283Y0002262923D03*
X0005248283Y0002184183D03*
D176*
X0004822811Y0002580259D03*
X0004744070Y0002580259D03*
D177*
X0004807062Y0002639314D03*
X0004866118Y0002639314D03*
D178*
X0004640133Y0002783015D03*
X0004640133Y0002708212D03*
D177*
X0005025566Y0002621598D03*
X0005084622Y0002621598D03*
X0004677141Y0002840102D03*
X0004736196Y0002840102D03*
D168*
X0004736196Y0002893251D03*
X0004736196Y0002952307D03*
D179*
X0004732811Y0002278055D03*
X0004646196Y0002278055D03*
X0004646196Y0002211125D03*
X0004732811Y0002211125D03*
M02*