%MOIN*%
%OFA0B0*%
%FSLAX46Y46*%
%IPPOS*%
%LPD*%
%AMREC230*
4,1,3,
0.022637795275590546,0.023622047244094491,
-0.022637795275590556,0.023622047244094484,
-0.022637795275590546,-0.023622047244094491,
0.022637795275590556,-0.023622047244094484,
0*%
%AMREC240*
4,1,3,
0.04787401574803149,0.041874015748031512,
-0.047874015748031504,0.041874015748031491,
-0.04787401574803149,-0.041874015748031512,
0.047874015748031504,-0.041874015748031491,
0*%
%AMREC250*
4,1,3,
0.017716535433070866,0.025590551181102365,
-0.017716535433070869,0.025590551181102365,
-0.017716535433070866,-0.025590551181102365,
0.017716535433070869,-0.025590551181102365,
0*%
%AMREC260*
4,1,3,
0.025590551181102365,0.017716535433070869,
-0.025590551181102365,0.017716535433070866,
-0.025590551181102365,-0.017716535433070869,
0.025590551181102365,-0.017716535433070866,
0*%
%AMREC270*
4,1,3,
0.020669291338582675,0.028740157480314967,
-0.020669291338582682,0.028740157480314957,
-0.020669291338582675,-0.028740157480314967,
0.020669291338582682,-0.028740157480314957,
0*%
%AMREC280*
4,1,3,
0.013779527559055114,0.035433070866141732,
-0.013779527559055123,0.035433070866141732,
-0.013779527559055114,-0.035433070866141732,
0.013779527559055123,-0.035433070866141732,
0*%
%AMREC290*
4,1,3,
0.032480314960629919,0.053149606299212608,
-0.032480314960629926,0.053149606299212608,
-0.032480314960629919,-0.053149606299212608,
0.032480314960629926,-0.053149606299212608,
0*%
%AMREC300*
4,1,3,
0.021653543307086614,0.03937007874015748,
-0.021653543307086621,0.03937007874015748,
-0.021653543307086614,-0.03937007874015748,
0.021653543307086621,-0.03937007874015748,
0*%
%AMREC310*
4,1,3,
0.021653543307086614,0.029527559055118117,
-0.021653543307086621,0.029527559055118106,
-0.021653543307086614,-0.029527559055118117,
0.021653543307086621,-0.029527559055118106,
0*%
%AMREC320*
4,1,3,
0.013874015748031493,0.030374015748031495,
-0.013874015748031501,0.030374015748031495,
-0.013874015748031493,-0.030374015748031495,
0.013874015748031501,-0.030374015748031495,
0*%
%AMREC330*
4,1,3,
0.032480314960629919,0.027559055118110239,
-0.032480314960629926,0.027559055118110232,
-0.032480314960629919,-0.027559055118110239,
0.032480314960629926,-0.027559055118110232,
0*%
%AMREC340*
4,1,3,
0.027559055118110232,0.032480314960629926,
-0.027559055118110239,0.032480314960629919,
-0.027559055118110232,-0.032480314960629926,
0.027559055118110239,-0.032480314960629919,
0*%
%AMREC350*
4,1,3,
0.023622047244094484,0.022637795275590556,
-0.023622047244094491,0.022637795275590546,
-0.023622047244094484,-0.022637795275590556,
0.023622047244094491,-0.022637795275590546,
0*%
%AMREC360*
4,1,3,
0.033464566929133854,0.021653543307086621,
-0.033464566929133861,0.021653543307086614,
-0.033464566929133854,-0.021653543307086621,
0.033464566929133861,-0.021653543307086614,
0*%
%AMREC370*
4,1,3,
0.035433070866141732,0.031496062992125991,
-0.035433070866141739,0.031496062992125984,
-0.035433070866141732,-0.031496062992125991,
0.035433070866141739,-0.031496062992125984,
0*%
%ADD10C,0.0039370078740157488*%
%ADD11C,0.1*%
%ADD12R,0.0452755905511811X0.047244094488188976*%
%ADD13R,0.095748031496063X0.083748031496063011*%
%ADD14O,0.095748031496063X0.083748031496063011*%
%ADD15R,0.035433070866141732X0.051181102362204731*%
%ADD16R,0.051181102362204731X0.035433070866141732*%
%ADD17R,0.041338582677165357X0.05748031496062992*%
%ADD18R,0.027559055118110236X0.070866141732283464*%
%ADD19R,0.064960629921259838X0.10629921259842522*%
%ADD20R,0.043307086614173235X0.07874015748031496*%
%ADD21R,0.043307086614173235X0.059055118110236227*%
%ADD22C,0.08070866141732283*%
%ADD23C,0.059055118110236227*%
%ADD24O,0.086614173228346469X0.18503937007874016*%
%ADD25R,0.027748031496062992X0.06074803149606299*%
%ADD26R,0.064960629921259838X0.055118110236220472*%
%ADD27R,0.055118110236220472X0.064960629921259838*%
%ADD28R,0.047244094488188976X0.0452755905511811*%
%ADD29R,0.066929133858267723X0.043307086614173235*%
%ADD30C,0.074803149606299218*%
%ADD31R,0.070866141732283464X0.062992125984251982*%
%ADD42C,0.0039370078740157488*%
%ADD43C,0.1*%
%ADD44R,0.0452755905511811X0.047244094488188976*%
%ADD45R,0.095748031496063X0.083748031496063011*%
%ADD46O,0.095748031496063X0.083748031496063011*%
%ADD47R,0.035433070866141732X0.051181102362204731*%
%ADD48R,0.051181102362204731X0.035433070866141732*%
%ADD49R,0.041338582677165357X0.05748031496062992*%
%ADD50R,0.027559055118110236X0.070866141732283464*%
%ADD51R,0.064960629921259838X0.10629921259842522*%
%ADD52R,0.043307086614173235X0.07874015748031496*%
%ADD53R,0.043307086614173235X0.059055118110236227*%
%ADD54C,0.08070866141732283*%
%ADD55C,0.059055118110236227*%
%ADD56O,0.086614173228346469X0.18503937007874016*%
%ADD57R,0.027748031496062992X0.06074803149606299*%
%ADD58R,0.064960629921259838X0.055118110236220472*%
%ADD59R,0.055118110236220472X0.064960629921259838*%
%ADD60R,0.047244094488188976X0.0452755905511811*%
%ADD61R,0.066929133858267723X0.043307086614173235*%
%ADD62C,0.074803149606299218*%
%ADD63R,0.070866141732283464X0.062992125984251982*%
%ADD64C,0.0039370078740157488*%
%ADD65C,0.1*%
%ADD66R,0.0452755905511811X0.047244094488188976*%
%ADD67R,0.095748031496063X0.083748031496063011*%
%ADD68O,0.095748031496063X0.083748031496063011*%
%ADD69R,0.035433070866141732X0.051181102362204731*%
%ADD70R,0.051181102362204731X0.035433070866141732*%
%ADD71R,0.041338582677165357X0.05748031496062992*%
%ADD72R,0.027559055118110236X0.070866141732283464*%
%ADD73R,0.064960629921259838X0.10629921259842522*%
%ADD74R,0.043307086614173235X0.07874015748031496*%
%ADD75R,0.043307086614173235X0.059055118110236227*%
%ADD76C,0.08070866141732283*%
%ADD77C,0.059055118110236227*%
%ADD78O,0.086614173228346469X0.18503937007874016*%
%ADD79R,0.027748031496062992X0.06074803149606299*%
%ADD80R,0.064960629921259838X0.055118110236220472*%
%ADD81R,0.055118110236220472X0.064960629921259838*%
%ADD82R,0.047244094488188976X0.0452755905511811*%
%ADD83R,0.066929133858267723X0.043307086614173235*%
%ADD84C,0.074803149606299218*%
%ADD85R,0.070866141732283464X0.062992125984251982*%
%ADD86C,0.0039370078740157488*%
%ADD87C,0.1*%
%AMCOMP74*
4,1,3,
0.022637795275590546,0.023622047244094491,
-0.022637795275590556,0.023622047244094484,
-0.022637795275590546,-0.023622047244094491,
0.022637795275590556,-0.023622047244094484,
0*%
%ADD88COMP74*%
%AMCOMP75*
4,1,3,
0.04787401574803149,0.041874015748031512,
-0.047874015748031504,0.041874015748031491,
-0.04787401574803149,-0.041874015748031512,
0.047874015748031504,-0.041874015748031491,
0*%
%ADD89COMP75*%
%ADD90O,0.095748031496063X0.083748031496063011*%
%AMCOMP76*
4,1,3,
0.017716535433070866,0.025590551181102365,
-0.017716535433070869,0.025590551181102365,
-0.017716535433070866,-0.025590551181102365,
0.017716535433070869,-0.025590551181102365,
0*%
%ADD91COMP76*%
%AMCOMP77*
4,1,3,
0.025590551181102365,0.017716535433070869,
-0.025590551181102365,0.017716535433070866,
-0.025590551181102365,-0.017716535433070869,
0.025590551181102365,-0.017716535433070866,
0*%
%ADD92COMP77*%
%AMCOMP78*
4,1,3,
0.020669291338582675,0.028740157480314967,
-0.020669291338582682,0.028740157480314957,
-0.020669291338582675,-0.028740157480314967,
0.020669291338582682,-0.028740157480314957,
0*%
%ADD93COMP78*%
%AMCOMP79*
4,1,3,
0.013779527559055114,0.035433070866141732,
-0.013779527559055123,0.035433070866141732,
-0.013779527559055114,-0.035433070866141732,
0.013779527559055123,-0.035433070866141732,
0*%
%ADD94COMP79*%
%AMCOMP80*
4,1,3,
0.032480314960629919,0.053149606299212608,
-0.032480314960629926,0.053149606299212608,
-0.032480314960629919,-0.053149606299212608,
0.032480314960629926,-0.053149606299212608,
0*%
%ADD95COMP80*%
%AMCOMP81*
4,1,3,
0.021653543307086614,0.03937007874015748,
-0.021653543307086621,0.03937007874015748,
-0.021653543307086614,-0.03937007874015748,
0.021653543307086621,-0.03937007874015748,
0*%
%ADD96COMP81*%
%AMCOMP82*
4,1,3,
0.021653543307086614,0.029527559055118117,
-0.021653543307086621,0.029527559055118106,
-0.021653543307086614,-0.029527559055118117,
0.021653543307086621,-0.029527559055118106,
0*%
%ADD97COMP82*%
%ADD98C,0.08070866141732283*%
%ADD99C,0.059055118110236227*%
%ADD100O,0.086614173228346469X0.18503937007874016*%
%AMCOMP83*
4,1,3,
0.013874015748031493,0.030374015748031495,
-0.013874015748031501,0.030374015748031495,
-0.013874015748031493,-0.030374015748031495,
0.013874015748031501,-0.030374015748031495,
0*%
%ADD101COMP83*%
%AMCOMP84*
4,1,3,
0.032480314960629919,0.027559055118110239,
-0.032480314960629926,0.027559055118110232,
-0.032480314960629919,-0.027559055118110239,
0.032480314960629926,-0.027559055118110232,
0*%
%ADD102COMP84*%
%AMCOMP85*
4,1,3,
0.027559055118110232,0.032480314960629926,
-0.027559055118110239,0.032480314960629919,
-0.027559055118110232,-0.032480314960629926,
0.027559055118110239,-0.032480314960629919,
0*%
%ADD103COMP85*%
%AMCOMP86*
4,1,3,
0.023622047244094484,0.022637795275590556,
-0.023622047244094491,0.022637795275590546,
-0.023622047244094484,-0.022637795275590556,
0.023622047244094491,-0.022637795275590546,
0*%
%ADD104COMP86*%
%AMCOMP87*
4,1,3,
0.033464566929133854,0.021653543307086621,
-0.033464566929133861,0.021653543307086614,
-0.033464566929133854,-0.021653543307086621,
0.033464566929133861,-0.021653543307086614,
0*%
%ADD105COMP87*%
%ADD106C,0.074803149606299218*%
%AMCOMP88*
4,1,3,
0.035433070866141732,0.031496062992125991,
-0.035433070866141739,0.031496062992125984,
-0.035433070866141732,-0.031496062992125991,
0.035433070866141739,-0.031496062992125984,
0*%
%ADD107COMP88*%
%ADD108C,0.0039370078740157488*%
%ADD109C,0.1*%
%ADD110R,0.0452755905511811X0.047244094488188976*%
%ADD111R,0.095748031496063X0.083748031496063011*%
%ADD112O,0.095748031496063X0.083748031496063011*%
%ADD113R,0.035433070866141732X0.051181102362204731*%
%ADD114R,0.051181102362204731X0.035433070866141732*%
%ADD115R,0.041338582677165357X0.05748031496062992*%
%ADD116R,0.027559055118110236X0.070866141732283464*%
%ADD117R,0.064960629921259838X0.10629921259842522*%
%ADD118R,0.043307086614173235X0.07874015748031496*%
%ADD119R,0.043307086614173235X0.059055118110236227*%
%ADD120C,0.08070866141732283*%
%ADD121C,0.059055118110236227*%
%ADD122O,0.086614173228346469X0.18503937007874016*%
%ADD123R,0.027748031496062992X0.06074803149606299*%
%ADD124R,0.064960629921259838X0.055118110236220472*%
%ADD125R,0.055118110236220472X0.064960629921259838*%
%ADD126R,0.047244094488188976X0.0452755905511811*%
%ADD127R,0.066929133858267723X0.043307086614173235*%
%ADD128C,0.074803149606299218*%
%ADD129R,0.070866141732283464X0.062992125984251982*%
%ADD130C,0.0039370078740157488*%
%ADD131C,0.1*%
%ADD132R,0.0452755905511811X0.047244094488188976*%
%ADD133R,0.095748031496063X0.083748031496063011*%
%ADD134O,0.095748031496063X0.083748031496063011*%
%ADD135R,0.035433070866141732X0.051181102362204731*%
%ADD136R,0.051181102362204731X0.035433070866141732*%
%ADD137R,0.041338582677165357X0.05748031496062992*%
%ADD138R,0.027559055118110236X0.070866141732283464*%
%ADD139R,0.064960629921259838X0.10629921259842522*%
%ADD140R,0.043307086614173235X0.07874015748031496*%
%ADD141R,0.043307086614173235X0.059055118110236227*%
%ADD142C,0.08070866141732283*%
%ADD143C,0.059055118110236227*%
%ADD144O,0.086614173228346469X0.18503937007874016*%
%ADD145R,0.027748031496062992X0.06074803149606299*%
%ADD146R,0.064960629921259838X0.055118110236220472*%
%ADD147R,0.055118110236220472X0.064960629921259838*%
%ADD148R,0.047244094488188976X0.0452755905511811*%
%ADD149R,0.066929133858267723X0.043307086614173235*%
%ADD150C,0.074803149606299218*%
%ADD151R,0.070866141732283464X0.062992125984251982*%
%ADD152C,0.0039370078740157488*%
%ADD153C,0.1*%
%ADD154R,0.0452755905511811X0.047244094488188976*%
%ADD155R,0.095748031496063X0.083748031496063011*%
%ADD156O,0.095748031496063X0.083748031496063011*%
%ADD157R,0.035433070866141732X0.051181102362204731*%
%ADD158R,0.051181102362204731X0.035433070866141732*%
%ADD159R,0.041338582677165357X0.05748031496062992*%
%ADD160R,0.027559055118110236X0.070866141732283464*%
%ADD161R,0.064960629921259838X0.10629921259842522*%
%ADD162R,0.043307086614173235X0.07874015748031496*%
%ADD163R,0.043307086614173235X0.059055118110236227*%
%ADD164C,0.08070866141732283*%
%ADD165C,0.059055118110236227*%
%ADD166O,0.086614173228346469X0.18503937007874016*%
%ADD167R,0.027748031496062992X0.06074803149606299*%
%ADD168R,0.064960629921259838X0.055118110236220472*%
%ADD169R,0.055118110236220472X0.064960629921259838*%
%ADD170R,0.047244094488188976X0.0452755905511811*%
%ADD171R,0.066929133858267723X0.043307086614173235*%
%ADD172C,0.074803149606299218*%
%ADD173R,0.070866141732283464X0.062992125984251982*%
%ADD174C,0.0039370078740157488*%
%ADD175C,0.1*%
%ADD176R,0.0452755905511811X0.047244094488188976*%
%ADD177R,0.095748031496063X0.083748031496063011*%
%ADD178O,0.095748031496063X0.083748031496063011*%
%ADD179R,0.035433070866141732X0.051181102362204731*%
%ADD180R,0.051181102362204731X0.035433070866141732*%
%ADD181R,0.041338582677165357X0.05748031496062992*%
%ADD182R,0.027559055118110236X0.070866141732283464*%
%ADD183R,0.064960629921259838X0.10629921259842522*%
%ADD184R,0.043307086614173235X0.07874015748031496*%
%ADD185R,0.043307086614173235X0.059055118110236227*%
%ADD186C,0.08070866141732283*%
%ADD187C,0.059055118110236227*%
%ADD188O,0.086614173228346469X0.18503937007874016*%
%ADD189R,0.027748031496062992X0.06074803149606299*%
%ADD190R,0.064960629921259838X0.055118110236220472*%
%ADD191R,0.055118110236220472X0.064960629921259838*%
%ADD192R,0.047244094488188976X0.0452755905511811*%
%ADD193R,0.066929133858267723X0.043307086614173235*%
%ADD194C,0.074803149606299218*%
%ADD195R,0.070866141732283464X0.062992125984251982*%
%ADD196C,0.0039370078740157488*%
%ADD197C,0.1*%
%ADD198R,0.0452755905511811X0.047244094488188976*%
%ADD199R,0.095748031496063X0.083748031496063011*%
%ADD200O,0.095748031496063X0.083748031496063011*%
%ADD201R,0.035433070866141732X0.051181102362204731*%
%ADD202R,0.051181102362204731X0.035433070866141732*%
%ADD203R,0.041338582677165357X0.05748031496062992*%
%ADD204R,0.027559055118110236X0.070866141732283464*%
%ADD205R,0.064960629921259838X0.10629921259842522*%
%ADD206R,0.043307086614173235X0.07874015748031496*%
%ADD207R,0.043307086614173235X0.059055118110236227*%
%ADD208C,0.08070866141732283*%
%ADD209C,0.059055118110236227*%
%ADD210O,0.086614173228346469X0.18503937007874016*%
%ADD211R,0.027748031496062992X0.06074803149606299*%
%ADD212R,0.064960629921259838X0.055118110236220472*%
%ADD213R,0.055118110236220472X0.064960629921259838*%
%ADD214R,0.047244094488188976X0.0452755905511811*%
%ADD215R,0.066929133858267723X0.043307086614173235*%
%ADD216C,0.074803149606299218*%
%ADD217R,0.070866141732283464X0.062992125984251982*%
%ADD218C,0.0039370078740157488*%
%ADD219C,0.1*%
%ADD220R,0.0452755905511811X0.047244094488188976*%
%ADD221R,0.095748031496063X0.083748031496063011*%
%ADD222O,0.095748031496063X0.083748031496063011*%
%ADD223R,0.035433070866141732X0.051181102362204731*%
%ADD224R,0.051181102362204731X0.035433070866141732*%
%ADD225R,0.041338582677165357X0.05748031496062992*%
%ADD226R,0.027559055118110236X0.070866141732283464*%
%ADD227R,0.064960629921259838X0.10629921259842522*%
%ADD228R,0.043307086614173235X0.07874015748031496*%
%ADD229R,0.043307086614173235X0.059055118110236227*%
%ADD230C,0.08070866141732283*%
%ADD231C,0.059055118110236227*%
%ADD232O,0.086614173228346469X0.18503937007874016*%
%ADD233R,0.027748031496062992X0.06074803149606299*%
%ADD234R,0.064960629921259838X0.055118110236220472*%
%ADD235R,0.055118110236220472X0.064960629921259838*%
%ADD236R,0.047244094488188976X0.0452755905511811*%
%ADD237R,0.066929133858267723X0.043307086614173235*%
%ADD238C,0.074803149606299218*%
%ADD239R,0.070866141732283464X0.062992125984251982*%
G01G01*
D10*
D11*
X0000787401Y0000374015D02*
X0001206795Y0001371157D03*
D12*
X0000580929Y0000858060D03*
X0000580929Y0000917115D03*
D11*
X0000526086Y0001313677D03*
D13*
X0001205220Y0001681000D03*
D14*
X0001205220Y0001580999D03*
X0001205220Y0001481000D03*
D15*
X0001094590Y0000904622D03*
X0001153645Y0000904622D03*
X0000576401Y0001147587D03*
X0000635456Y0001147587D03*
D16*
X0000660929Y0000640560D03*
X0000660929Y0000699615D03*
D15*
X0000805456Y0000700087D03*
X0000746401Y0000700087D03*
X0000888901Y0000700087D03*
X0000947956Y0000700087D03*
D17*
X0001098527Y0000743204D03*
X0001135929Y0000743204D03*
X0001173330Y0000743204D03*
X0001173330Y0000829818D03*
X0001098527Y0000829818D03*
D18*
X0001117188Y0001205803D03*
X0001097503Y0001205803D03*
X0001077818Y0001205803D03*
X0001058133Y0001205803D03*
X0001038448Y0001205803D03*
X0001018763Y0001205803D03*
D19*
X0000969551Y0001255015D03*
D20*
X0000931165Y0001241236D03*
D21*
X0000903606Y0001251078D03*
D19*
X0001166401Y0001255015D03*
D20*
X0001204787Y0001241236D03*
D21*
X0001232346Y0001251078D03*
D13*
X0000409551Y0000906196D03*
D14*
X0000409551Y0001006196D03*
X0000409551Y0001106196D03*
X0000409551Y0001206196D03*
X0000409551Y0001306196D03*
D13*
X0000409551Y0000343598D03*
D14*
X0000409551Y0000443598D03*
X0000409551Y0000543598D03*
X0000409551Y0000643598D03*
X0000409551Y0000743598D03*
D22*
X0000826874Y0000467614D03*
X0000925299Y0000467614D03*
X0000748133Y0000467614D03*
X0000649708Y0000467614D03*
D23*
X0000876086Y0000384937D03*
X0000698921Y0000384937D03*
D24*
X0000563094Y0000384937D03*
X0001011913Y0000384937D03*
D25*
X0000985929Y0001067587D03*
X0000960929Y0001067587D03*
X0000935929Y0001067587D03*
X0000910929Y0001067587D03*
X0000885929Y0001067587D03*
X0000860929Y0001067587D03*
X0000835929Y0001067587D03*
X0000810929Y0001067587D03*
X0000785929Y0001067587D03*
X0000760929Y0001067587D03*
X0000735929Y0001067587D03*
X0000710929Y0001067587D03*
X0000685929Y0001067587D03*
X0000660929Y0001067587D03*
X0000660929Y0000805087D03*
X0000685929Y0000805087D03*
X0000710929Y0000805087D03*
X0000735929Y0000805087D03*
X0000760929Y0000805087D03*
X0000785929Y0000805087D03*
X0000810929Y0000805087D03*
X0000835929Y0000805087D03*
X0000860929Y0000805087D03*
X0000885929Y0000805087D03*
X0000910929Y0000805087D03*
X0000935929Y0000805087D03*
X0000960929Y0000805087D03*
X0000985929Y0000805087D03*
D11*
X0001200889Y0000337692D03*
D26*
X0001093015Y0000524307D03*
X0001093015Y0000603047D03*
X0000580929Y0000993217D03*
X0000580929Y0001071957D03*
D27*
X0001006401Y0000675881D03*
X0001085141Y0000675881D03*
D28*
X0001022149Y0000616826D03*
X0000963094Y0000616826D03*
D29*
X0001189078Y0000473125D03*
X0001189078Y0000547929D03*
D28*
X0000803645Y0000634543D03*
X0000744590Y0000634543D03*
D30*
X0000738685Y0001313677D03*
X0000644196Y0001313677D03*
D28*
X0001152070Y0000416039D03*
X0001093015Y0000416039D03*
D16*
X0001093015Y0000362889D03*
X0001093015Y0000303834D03*
D31*
X0001096401Y0000978086D03*
X0001183015Y0000978086D03*
X0001183015Y0001045015D03*
X0001096401Y0001045015D03*
G04 next file*
G04 Gerber Fmt 4.6, Leading zero omitted, Abs format (unit mm)*
G04 Created by KiCad (PCBNEW 4.0.7) date Thursday, 08 March 2018 'PMt' 14:48:31*
G01G01*
G04 APERTURE LIST*
G04 APERTURE END LIST*
D42*
D43*
X0001850393Y0002893700D02*
X0001430999Y0001896559D03*
D44*
X0002056866Y0002409656D03*
X0002056866Y0002350601D03*
D43*
X0002111708Y0001954039D03*
D45*
X0001432574Y0001586716D03*
D46*
X0001432574Y0001686716D03*
X0001432574Y0001786716D03*
D47*
X0001543204Y0002363094D03*
X0001484149Y0002363094D03*
X0002061393Y0002120128D03*
X0002002338Y0002120128D03*
D48*
X0001976866Y0002627156D03*
X0001976866Y0002568101D03*
D47*
X0001832338Y0002567628D03*
X0001891393Y0002567628D03*
X0001748893Y0002567628D03*
X0001689838Y0002567628D03*
D49*
X0001539267Y0002524511D03*
X0001501866Y0002524511D03*
X0001464464Y0002524511D03*
X0001464464Y0002437897D03*
X0001539267Y0002437897D03*
D50*
X0001520606Y0002061913D03*
X0001540291Y0002061913D03*
X0001559976Y0002061913D03*
X0001579661Y0002061913D03*
X0001599346Y0002061913D03*
X0001619031Y0002061913D03*
D51*
X0001668244Y0002012700D03*
D52*
X0001706629Y0002026480D03*
D53*
X0001734188Y0002016637D03*
D51*
X0001471393Y0002012700D03*
D52*
X0001433007Y0002026480D03*
D53*
X0001405448Y0002016637D03*
D45*
X0002228244Y0002361519D03*
D46*
X0002228244Y0002261519D03*
X0002228244Y0002161519D03*
X0002228244Y0002061519D03*
X0002228244Y0001961519D03*
D45*
X0002228244Y0002924118D03*
D46*
X0002228244Y0002824118D03*
X0002228244Y0002724118D03*
X0002228244Y0002624118D03*
X0002228244Y0002524118D03*
D54*
X0001810921Y0002800102D03*
X0001712496Y0002800102D03*
X0001889661Y0002800102D03*
X0001988086Y0002800102D03*
D55*
X0001761708Y0002882779D03*
X0001938874Y0002882779D03*
D56*
X0002074700Y0002882779D03*
X0001625881Y0002882779D03*
D57*
X0001651866Y0002200128D03*
X0001676866Y0002200128D03*
X0001701866Y0002200128D03*
X0001726866Y0002200128D03*
X0001751866Y0002200128D03*
X0001776866Y0002200128D03*
X0001801866Y0002200128D03*
X0001826866Y0002200128D03*
X0001851866Y0002200128D03*
X0001876866Y0002200128D03*
X0001901866Y0002200128D03*
X0001926866Y0002200128D03*
X0001951866Y0002200128D03*
X0001976866Y0002200128D03*
X0001976866Y0002462628D03*
X0001951866Y0002462628D03*
X0001926866Y0002462628D03*
X0001901866Y0002462628D03*
X0001876866Y0002462628D03*
X0001851866Y0002462628D03*
X0001826866Y0002462628D03*
X0001801866Y0002462628D03*
X0001776866Y0002462628D03*
X0001751866Y0002462628D03*
X0001726866Y0002462628D03*
X0001701866Y0002462628D03*
X0001676866Y0002462628D03*
X0001651866Y0002462628D03*
D43*
X0001436905Y0002930023D03*
D58*
X0001544779Y0002743409D03*
X0001544779Y0002664669D03*
X0002056866Y0002274498D03*
X0002056866Y0002195758D03*
D59*
X0001631393Y0002591834D03*
X0001552653Y0002591834D03*
D60*
X0001615645Y0002650889D03*
X0001674700Y0002650889D03*
D61*
X0001448716Y0002794590D03*
X0001448716Y0002719787D03*
D60*
X0001834149Y0002633173D03*
X0001893204Y0002633173D03*
D62*
X0001899110Y0001954039D03*
X0001993598Y0001954039D03*
D60*
X0001485724Y0002851677D03*
X0001544779Y0002851677D03*
D48*
X0001544779Y0002904826D03*
X0001544779Y0002963881D03*
D63*
X0001541393Y0002289629D03*
X0001454779Y0002289629D03*
X0001454779Y0002222700D03*
X0001541393Y0002222700D03*
G04 next file*
G04 Gerber Fmt 4.6, Leading zero omitted, Abs format (unit mm)*
G04 Created by KiCad (PCBNEW 4.0.7) date Thursday, 08 March 2018 'PMt' 14:48:31*
G01G01*
G04 APERTURE LIST*
G04 APERTURE END LIST*
D64*
D65*
X0001850393Y0000374015D02*
X0002269787Y0001371157D03*
D66*
X0001643921Y0000858060D03*
X0001643921Y0000917115D03*
D65*
X0001589078Y0001313677D03*
D67*
X0002268212Y0001681000D03*
D68*
X0002268212Y0001580999D03*
X0002268212Y0001481000D03*
D69*
X0002157582Y0000904622D03*
X0002216637Y0000904622D03*
X0001639393Y0001147587D03*
X0001698448Y0001147587D03*
D70*
X0001723921Y0000640560D03*
X0001723921Y0000699615D03*
D69*
X0001868448Y0000700087D03*
X0001809393Y0000700087D03*
X0001951893Y0000700087D03*
X0002010948Y0000700087D03*
D71*
X0002161519Y0000743204D03*
X0002198921Y0000743204D03*
X0002236322Y0000743204D03*
X0002236322Y0000829818D03*
X0002161519Y0000829818D03*
D72*
X0002180181Y0001205803D03*
X0002160496Y0001205803D03*
X0002140810Y0001205803D03*
X0002121125Y0001205803D03*
X0002101440Y0001205803D03*
X0002081755Y0001205803D03*
D73*
X0002032543Y0001255015D03*
D74*
X0001994157Y0001241236D03*
D75*
X0001966598Y0001251078D03*
D73*
X0002229393Y0001255015D03*
D74*
X0002267779Y0001241236D03*
D75*
X0002295338Y0001251078D03*
D67*
X0001472543Y0000906196D03*
D68*
X0001472543Y0001006196D03*
X0001472543Y0001106196D03*
X0001472543Y0001206196D03*
X0001472543Y0001306196D03*
D67*
X0001472543Y0000343598D03*
D68*
X0001472543Y0000443598D03*
X0001472543Y0000543598D03*
X0001472543Y0000643598D03*
X0001472543Y0000743598D03*
D76*
X0001889866Y0000467614D03*
X0001988291Y0000467614D03*
X0001811125Y0000467614D03*
X0001712700Y0000467614D03*
D77*
X0001939078Y0000384937D03*
X0001761913Y0000384937D03*
D78*
X0001626086Y0000384937D03*
X0002074905Y0000384937D03*
D79*
X0002048921Y0001067587D03*
X0002023921Y0001067587D03*
X0001998921Y0001067587D03*
X0001973921Y0001067587D03*
X0001948921Y0001067587D03*
X0001923921Y0001067587D03*
X0001898921Y0001067587D03*
X0001873921Y0001067587D03*
X0001848921Y0001067587D03*
X0001823921Y0001067587D03*
X0001798921Y0001067587D03*
X0001773921Y0001067587D03*
X0001748921Y0001067587D03*
X0001723921Y0001067587D03*
X0001723921Y0000805087D03*
X0001748921Y0000805087D03*
X0001773921Y0000805087D03*
X0001798921Y0000805087D03*
X0001823921Y0000805087D03*
X0001848921Y0000805087D03*
X0001873921Y0000805087D03*
X0001898921Y0000805087D03*
X0001923921Y0000805087D03*
X0001948921Y0000805087D03*
X0001973921Y0000805087D03*
X0001998921Y0000805087D03*
X0002023921Y0000805087D03*
X0002048921Y0000805087D03*
D65*
X0002263881Y0000337692D03*
D80*
X0002156007Y0000524307D03*
X0002156007Y0000603047D03*
X0001643921Y0000993217D03*
X0001643921Y0001071957D03*
D81*
X0002069393Y0000675881D03*
X0002148133Y0000675881D03*
D82*
X0002085141Y0000616826D03*
X0002026086Y0000616826D03*
D83*
X0002252070Y0000473125D03*
X0002252070Y0000547929D03*
D82*
X0001866637Y0000634543D03*
X0001807582Y0000634543D03*
D84*
X0001801677Y0001313677D03*
X0001707188Y0001313677D03*
D82*
X0002215062Y0000416039D03*
X0002156007Y0000416039D03*
D70*
X0002156007Y0000362889D03*
X0002156007Y0000303834D03*
D85*
X0002159393Y0000978086D03*
X0002246007Y0000978086D03*
X0002246007Y0001045015D03*
X0002159393Y0001045015D03*
G04 next file*
G04 Gerber Fmt 4.6, Leading zero omitted, Abs format (unit mm)*
G04 Created by KiCad (PCBNEW 4.0.7) date Thursday, 08 March 2018 'PMt' 14:48:31*
G01G01*
G04 APERTURE LIST*
G04 APERTURE END LIST*
D86*
D87*
X0000787401Y0002893700D02*
X0000368007Y0001896559D03*
D88*
X0000993874Y0002409656D03*
X0000993874Y0002350601D03*
D87*
X0001048716Y0001954039D03*
D89*
X0000369582Y0001586716D03*
D90*
X0000369582Y0001686716D03*
X0000369582Y0001786716D03*
D91*
X0000480212Y0002363094D03*
X0000421157Y0002363094D03*
X0000998401Y0002120128D03*
X0000939346Y0002120128D03*
D92*
X0000913874Y0002627156D03*
X0000913874Y0002568101D03*
D91*
X0000769346Y0002567628D03*
X0000828401Y0002567628D03*
X0000685901Y0002567628D03*
X0000626846Y0002567628D03*
D93*
X0000476275Y0002524511D03*
X0000438874Y0002524511D03*
X0000401472Y0002524511D03*
X0000401472Y0002437897D03*
X0000476275Y0002437897D03*
D94*
X0000457614Y0002061913D03*
X0000477299Y0002061913D03*
X0000496984Y0002061913D03*
X0000516669Y0002061913D03*
X0000536354Y0002061913D03*
X0000556039Y0002061913D03*
D95*
X0000605251Y0002012700D03*
D96*
X0000643637Y0002026480D03*
D97*
X0000671196Y0002016637D03*
D95*
X0000408401Y0002012700D03*
D96*
X0000370015Y0002026480D03*
D97*
X0000342456Y0002016637D03*
D89*
X0001165251Y0002361519D03*
D90*
X0001165251Y0002261519D03*
X0001165251Y0002161519D03*
X0001165251Y0002061519D03*
X0001165251Y0001961519D03*
D89*
X0001165251Y0002924118D03*
D90*
X0001165251Y0002824118D03*
X0001165251Y0002724118D03*
X0001165251Y0002624118D03*
X0001165251Y0002524118D03*
D98*
X0000747929Y0002800102D03*
X0000649503Y0002800102D03*
X0000826669Y0002800102D03*
X0000925094Y0002800102D03*
D99*
X0000698716Y0002882779D03*
X0000875881Y0002882779D03*
D100*
X0001011708Y0002882779D03*
X0000562889Y0002882779D03*
D101*
X0000588874Y0002200128D03*
X0000613874Y0002200128D03*
X0000638874Y0002200128D03*
X0000663874Y0002200128D03*
X0000688874Y0002200128D03*
X0000713874Y0002200128D03*
X0000738874Y0002200128D03*
X0000763874Y0002200128D03*
X0000788874Y0002200128D03*
X0000813874Y0002200128D03*
X0000838874Y0002200128D03*
X0000863874Y0002200128D03*
X0000888874Y0002200128D03*
X0000913874Y0002200128D03*
X0000913874Y0002462628D03*
X0000888874Y0002462628D03*
X0000863874Y0002462628D03*
X0000838874Y0002462628D03*
X0000813874Y0002462628D03*
X0000788874Y0002462628D03*
X0000763874Y0002462628D03*
X0000738874Y0002462628D03*
X0000713874Y0002462628D03*
X0000688874Y0002462628D03*
X0000663874Y0002462628D03*
X0000638874Y0002462628D03*
X0000613874Y0002462628D03*
X0000588874Y0002462628D03*
D87*
X0000373913Y0002930023D03*
D102*
X0000481787Y0002743409D03*
X0000481787Y0002664669D03*
X0000993874Y0002274498D03*
X0000993874Y0002195758D03*
D103*
X0000568401Y0002591834D03*
X0000489661Y0002591834D03*
D104*
X0000552653Y0002650889D03*
X0000611708Y0002650889D03*
D105*
X0000385724Y0002794590D03*
X0000385724Y0002719787D03*
D104*
X0000771157Y0002633173D03*
X0000830212Y0002633173D03*
D106*
X0000836118Y0001954039D03*
X0000930606Y0001954039D03*
D104*
X0000422732Y0002851677D03*
X0000481787Y0002851677D03*
D92*
X0000481787Y0002904826D03*
X0000481787Y0002963881D03*
D107*
X0000478401Y0002289629D03*
X0000391787Y0002289629D03*
X0000391787Y0002222700D03*
X0000478401Y0002222700D03*
G04 next file*
G04 Gerber Fmt 4.6, Leading zero omitted, Abs format (unit mm)*
G04 Created by KiCad (PCBNEW 4.0.7) date Thursday, 08 March 2018 'PMt' 14:48:31*
G01G01*
G04 APERTURE LIST*
G04 APERTURE END LIST*
D108*
D109*
X0002913385Y0002893700D02*
X0002493992Y0001896559D03*
D110*
X0003119858Y0002409656D03*
X0003119858Y0002350601D03*
D109*
X0003174700Y0001954039D03*
D111*
X0002495566Y0001586716D03*
D112*
X0002495566Y0001686716D03*
X0002495566Y0001786716D03*
D113*
X0002606196Y0002363094D03*
X0002547141Y0002363094D03*
X0003124385Y0002120128D03*
X0003065330Y0002120128D03*
D114*
X0003039858Y0002627156D03*
X0003039858Y0002568101D03*
D113*
X0002895330Y0002567628D03*
X0002954385Y0002567628D03*
X0002811885Y0002567628D03*
X0002752830Y0002567628D03*
D115*
X0002602259Y0002524511D03*
X0002564858Y0002524511D03*
X0002527456Y0002524511D03*
X0002527456Y0002437897D03*
X0002602259Y0002437897D03*
D116*
X0002583598Y0002061913D03*
X0002603283Y0002061913D03*
X0002622968Y0002061913D03*
X0002642653Y0002061913D03*
X0002662338Y0002061913D03*
X0002682023Y0002061913D03*
D117*
X0002731236Y0002012700D03*
D118*
X0002769622Y0002026480D03*
D119*
X0002797181Y0002016637D03*
D117*
X0002534385Y0002012700D03*
D118*
X0002495999Y0002026480D03*
D119*
X0002468440Y0002016637D03*
D111*
X0003291236Y0002361519D03*
D112*
X0003291236Y0002261519D03*
X0003291236Y0002161519D03*
X0003291236Y0002061519D03*
X0003291236Y0001961519D03*
D111*
X0003291236Y0002924118D03*
D112*
X0003291236Y0002824118D03*
X0003291236Y0002724118D03*
X0003291236Y0002624118D03*
X0003291236Y0002524118D03*
D120*
X0002873913Y0002800102D03*
X0002775488Y0002800102D03*
X0002952653Y0002800102D03*
X0003051078Y0002800102D03*
D121*
X0002824700Y0002882779D03*
X0003001866Y0002882779D03*
D122*
X0003137692Y0002882779D03*
X0002688874Y0002882779D03*
D123*
X0002714858Y0002200128D03*
X0002739858Y0002200128D03*
X0002764858Y0002200128D03*
X0002789858Y0002200128D03*
X0002814858Y0002200128D03*
X0002839858Y0002200128D03*
X0002864858Y0002200128D03*
X0002889858Y0002200128D03*
X0002914858Y0002200128D03*
X0002939858Y0002200128D03*
X0002964858Y0002200128D03*
X0002989858Y0002200128D03*
X0003014858Y0002200128D03*
X0003039858Y0002200128D03*
X0003039858Y0002462628D03*
X0003014858Y0002462628D03*
X0002989858Y0002462628D03*
X0002964858Y0002462628D03*
X0002939858Y0002462628D03*
X0002914858Y0002462628D03*
X0002889858Y0002462628D03*
X0002864858Y0002462628D03*
X0002839858Y0002462628D03*
X0002814858Y0002462628D03*
X0002789858Y0002462628D03*
X0002764858Y0002462628D03*
X0002739858Y0002462628D03*
X0002714858Y0002462628D03*
D109*
X0002499897Y0002930023D03*
D124*
X0002607771Y0002743409D03*
X0002607771Y0002664669D03*
X0003119858Y0002274498D03*
X0003119858Y0002195758D03*
D125*
X0002694385Y0002591834D03*
X0002615645Y0002591834D03*
D126*
X0002678637Y0002650889D03*
X0002737692Y0002650889D03*
D127*
X0002511708Y0002794590D03*
X0002511708Y0002719787D03*
D126*
X0002897141Y0002633173D03*
X0002956196Y0002633173D03*
D128*
X0002962102Y0001954039D03*
X0003056590Y0001954039D03*
D126*
X0002548716Y0002851677D03*
X0002607771Y0002851677D03*
D114*
X0002607771Y0002904826D03*
X0002607771Y0002963881D03*
D129*
X0002604385Y0002289629D03*
X0002517771Y0002289629D03*
X0002517771Y0002222700D03*
X0002604385Y0002222700D03*
G04 next file*
G04 Gerber Fmt 4.6, Leading zero omitted, Abs format (unit mm)*
G04 Created by KiCad (PCBNEW 4.0.7) date Thursday, 08 March 2018 'PMt' 14:48:31*
G01G01*
G04 APERTURE LIST*
G04 APERTURE END LIST*
D130*
D131*
X0002913385Y0000374015D02*
X0003332779Y0001371157D03*
D132*
X0002706913Y0000858060D03*
X0002706913Y0000917115D03*
D131*
X0002652070Y0001313677D03*
D133*
X0003331204Y0001681000D03*
D134*
X0003331204Y0001580999D03*
X0003331204Y0001481000D03*
D135*
X0003220574Y0000904622D03*
X0003279629Y0000904622D03*
X0002702385Y0001147587D03*
X0002761440Y0001147587D03*
D136*
X0002786913Y0000640560D03*
X0002786913Y0000699615D03*
D135*
X0002931440Y0000700087D03*
X0002872385Y0000700087D03*
X0003014885Y0000700087D03*
X0003073940Y0000700087D03*
D137*
X0003224511Y0000743204D03*
X0003261913Y0000743204D03*
X0003299314Y0000743204D03*
X0003299314Y0000829818D03*
X0003224511Y0000829818D03*
D138*
X0003243173Y0001205803D03*
X0003223488Y0001205803D03*
X0003203803Y0001205803D03*
X0003184118Y0001205803D03*
X0003164433Y0001205803D03*
X0003144748Y0001205803D03*
D139*
X0003095535Y0001255015D03*
D140*
X0003057149Y0001241236D03*
D141*
X0003029590Y0001251078D03*
D139*
X0003292385Y0001255015D03*
D140*
X0003330771Y0001241236D03*
D141*
X0003358330Y0001251078D03*
D133*
X0002535535Y0000906196D03*
D134*
X0002535535Y0001006196D03*
X0002535535Y0001106196D03*
X0002535535Y0001206196D03*
X0002535535Y0001306196D03*
D133*
X0002535535Y0000343598D03*
D134*
X0002535535Y0000443598D03*
X0002535535Y0000543598D03*
X0002535535Y0000643598D03*
X0002535535Y0000743598D03*
D142*
X0002952858Y0000467614D03*
X0003051283Y0000467614D03*
X0002874118Y0000467614D03*
X0002775692Y0000467614D03*
D143*
X0003002070Y0000384937D03*
X0002824905Y0000384937D03*
D144*
X0002689078Y0000384937D03*
X0003137897Y0000384937D03*
D145*
X0003111913Y0001067587D03*
X0003086913Y0001067587D03*
X0003061913Y0001067587D03*
X0003036913Y0001067587D03*
X0003011913Y0001067587D03*
X0002986913Y0001067587D03*
X0002961913Y0001067587D03*
X0002936913Y0001067587D03*
X0002911913Y0001067587D03*
X0002886913Y0001067587D03*
X0002861913Y0001067587D03*
X0002836913Y0001067587D03*
X0002811913Y0001067587D03*
X0002786913Y0001067587D03*
X0002786913Y0000805087D03*
X0002811913Y0000805087D03*
X0002836913Y0000805087D03*
X0002861913Y0000805087D03*
X0002886913Y0000805087D03*
X0002911913Y0000805087D03*
X0002936913Y0000805087D03*
X0002961913Y0000805087D03*
X0002986913Y0000805087D03*
X0003011913Y0000805087D03*
X0003036913Y0000805087D03*
X0003061913Y0000805087D03*
X0003086913Y0000805087D03*
X0003111913Y0000805087D03*
D131*
X0003326874Y0000337692D03*
D146*
X0003219000Y0000524307D03*
X0003219000Y0000603047D03*
X0002706913Y0000993217D03*
X0002706913Y0001071957D03*
D147*
X0003132385Y0000675881D03*
X0003211125Y0000675881D03*
D148*
X0003148133Y0000616826D03*
X0003089078Y0000616826D03*
D149*
X0003315062Y0000473125D03*
X0003315062Y0000547929D03*
D148*
X0002929629Y0000634543D03*
X0002870574Y0000634543D03*
D150*
X0002864669Y0001313677D03*
X0002770181Y0001313677D03*
D148*
X0003278055Y0000416039D03*
X0003219000Y0000416039D03*
D136*
X0003219000Y0000362889D03*
X0003219000Y0000303834D03*
D151*
X0003222385Y0000978086D03*
X0003308999Y0000978086D03*
X0003308999Y0001045015D03*
X0003222385Y0001045015D03*
G04 next file*
G04 Gerber Fmt 4.6, Leading zero omitted, Abs format (unit mm)*
G04 Created by KiCad (PCBNEW 4.0.7) date Thursday, 08 March 2018 'PMt' 14:48:31*
G01G01*
G04 APERTURE LIST*
G04 APERTURE END LIST*
D152*
D153*
X0003976377Y0000374015D02*
X0004395771Y0001371157D03*
D154*
X0003769905Y0000858060D03*
X0003769905Y0000917115D03*
D153*
X0003715062Y0001313677D03*
D155*
X0004394196Y0001681000D03*
D156*
X0004394196Y0001580999D03*
X0004394196Y0001481000D03*
D157*
X0004283566Y0000904622D03*
X0004342622Y0000904622D03*
X0003765377Y0001147587D03*
X0003824432Y0001147587D03*
D158*
X0003849905Y0000640560D03*
X0003849905Y0000699615D03*
D157*
X0003994432Y0000700087D03*
X0003935377Y0000700087D03*
X0004077877Y0000700087D03*
X0004136932Y0000700087D03*
D159*
X0004287503Y0000743204D03*
X0004324905Y0000743204D03*
X0004362307Y0000743204D03*
X0004362307Y0000829818D03*
X0004287503Y0000829818D03*
D160*
X0004306165Y0001205803D03*
X0004286480Y0001205803D03*
X0004266795Y0001205803D03*
X0004247110Y0001205803D03*
X0004227425Y0001205803D03*
X0004207740Y0001205803D03*
D161*
X0004158527Y0001255015D03*
D162*
X0004120141Y0001241236D03*
D163*
X0004092582Y0001251078D03*
D161*
X0004355377Y0001255015D03*
D162*
X0004393763Y0001241236D03*
D163*
X0004421322Y0001251078D03*
D155*
X0003598527Y0000906196D03*
D156*
X0003598527Y0001006196D03*
X0003598527Y0001106196D03*
X0003598527Y0001206196D03*
X0003598527Y0001306196D03*
D155*
X0003598527Y0000343598D03*
D156*
X0003598527Y0000443598D03*
X0003598527Y0000543598D03*
X0003598527Y0000643598D03*
X0003598527Y0000743598D03*
D164*
X0004015850Y0000467614D03*
X0004114275Y0000467614D03*
X0003937110Y0000467614D03*
X0003838685Y0000467614D03*
D165*
X0004065062Y0000384937D03*
X0003887897Y0000384937D03*
D166*
X0003752070Y0000384937D03*
X0004200889Y0000384937D03*
D167*
X0004174905Y0001067587D03*
X0004149905Y0001067587D03*
X0004124905Y0001067587D03*
X0004099905Y0001067587D03*
X0004074905Y0001067587D03*
X0004049905Y0001067587D03*
X0004024905Y0001067587D03*
X0003999905Y0001067587D03*
X0003974905Y0001067587D03*
X0003949905Y0001067587D03*
X0003924905Y0001067587D03*
X0003899905Y0001067587D03*
X0003874905Y0001067587D03*
X0003849905Y0001067587D03*
X0003849905Y0000805087D03*
X0003874905Y0000805087D03*
X0003899905Y0000805087D03*
X0003924905Y0000805087D03*
X0003949905Y0000805087D03*
X0003974905Y0000805087D03*
X0003999905Y0000805087D03*
X0004024905Y0000805087D03*
X0004049905Y0000805087D03*
X0004074905Y0000805087D03*
X0004099905Y0000805087D03*
X0004124905Y0000805087D03*
X0004149905Y0000805087D03*
X0004174905Y0000805087D03*
D153*
X0004389866Y0000337692D03*
D168*
X0004281992Y0000524307D03*
X0004281992Y0000603047D03*
X0003769905Y0000993217D03*
X0003769905Y0001071957D03*
D169*
X0004195377Y0000675881D03*
X0004274118Y0000675881D03*
D170*
X0004211125Y0000616826D03*
X0004152070Y0000616826D03*
D171*
X0004378055Y0000473125D03*
X0004378055Y0000547929D03*
D170*
X0003992622Y0000634543D03*
X0003933566Y0000634543D03*
D172*
X0003927661Y0001313677D03*
X0003833173Y0001313677D03*
D170*
X0004341047Y0000416039D03*
X0004281992Y0000416039D03*
D158*
X0004281992Y0000362889D03*
X0004281992Y0000303834D03*
D173*
X0004285377Y0000978086D03*
X0004371992Y0000978086D03*
X0004371992Y0001045015D03*
X0004285377Y0001045015D03*
G04 next file*
G04 Gerber Fmt 4.6, Leading zero omitted, Abs format (unit mm)*
G04 Created by KiCad (PCBNEW 4.0.7) date Thursday, 08 March 2018 'PMt' 14:48:31*
G01G01*
G04 APERTURE LIST*
G04 APERTURE END LIST*
D174*
D175*
X0003976377Y0002893700D02*
X0003556984Y0001896559D03*
D176*
X0004182850Y0002409656D03*
X0004182850Y0002350601D03*
D175*
X0004237692Y0001954039D03*
D177*
X0003558559Y0001586716D03*
D178*
X0003558559Y0001686716D03*
X0003558559Y0001786716D03*
D179*
X0003669188Y0002363094D03*
X0003610133Y0002363094D03*
X0004187378Y0002120128D03*
X0004128322Y0002120128D03*
D180*
X0004102850Y0002627156D03*
X0004102850Y0002568101D03*
D179*
X0003958322Y0002567628D03*
X0004017378Y0002567628D03*
X0003874878Y0002567628D03*
X0003815822Y0002567628D03*
D181*
X0003665251Y0002524511D03*
X0003627850Y0002524511D03*
X0003590448Y0002524511D03*
X0003590448Y0002437897D03*
X0003665251Y0002437897D03*
D182*
X0003646590Y0002061913D03*
X0003666275Y0002061913D03*
X0003685960Y0002061913D03*
X0003705645Y0002061913D03*
X0003725330Y0002061913D03*
X0003745015Y0002061913D03*
D183*
X0003794228Y0002012700D03*
D184*
X0003832614Y0002026480D03*
D185*
X0003860173Y0002016637D03*
D183*
X0003597377Y0002012700D03*
D184*
X0003558992Y0002026480D03*
D185*
X0003531433Y0002016637D03*
D177*
X0004354228Y0002361519D03*
D178*
X0004354228Y0002261519D03*
X0004354228Y0002161519D03*
X0004354228Y0002061519D03*
X0004354228Y0001961519D03*
D177*
X0004354228Y0002924118D03*
D178*
X0004354228Y0002824118D03*
X0004354228Y0002724118D03*
X0004354228Y0002624118D03*
X0004354228Y0002524118D03*
D186*
X0003936905Y0002800102D03*
X0003838480Y0002800102D03*
X0004015645Y0002800102D03*
X0004114070Y0002800102D03*
D187*
X0003887692Y0002882779D03*
X0004064858Y0002882779D03*
D188*
X0004200685Y0002882779D03*
X0003751866Y0002882779D03*
D189*
X0003777850Y0002200128D03*
X0003802850Y0002200128D03*
X0003827850Y0002200128D03*
X0003852850Y0002200128D03*
X0003877850Y0002200128D03*
X0003902850Y0002200128D03*
X0003927850Y0002200128D03*
X0003952850Y0002200128D03*
X0003977850Y0002200128D03*
X0004002850Y0002200128D03*
X0004027850Y0002200128D03*
X0004052850Y0002200128D03*
X0004077850Y0002200128D03*
X0004102850Y0002200128D03*
X0004102850Y0002462628D03*
X0004077850Y0002462628D03*
X0004052850Y0002462628D03*
X0004027850Y0002462628D03*
X0004002850Y0002462628D03*
X0003977850Y0002462628D03*
X0003952850Y0002462628D03*
X0003927850Y0002462628D03*
X0003902850Y0002462628D03*
X0003877850Y0002462628D03*
X0003852850Y0002462628D03*
X0003827850Y0002462628D03*
X0003802850Y0002462628D03*
X0003777850Y0002462628D03*
D175*
X0003562889Y0002930023D03*
D190*
X0003670763Y0002743409D03*
X0003670763Y0002664669D03*
X0004182850Y0002274498D03*
X0004182850Y0002195758D03*
D191*
X0003757377Y0002591834D03*
X0003678637Y0002591834D03*
D192*
X0003741629Y0002650889D03*
X0003800685Y0002650889D03*
D193*
X0003574700Y0002794590D03*
X0003574700Y0002719787D03*
D192*
X0003960133Y0002633173D03*
X0004019188Y0002633173D03*
D194*
X0004025094Y0001954039D03*
X0004119582Y0001954039D03*
D192*
X0003611708Y0002851677D03*
X0003670763Y0002851677D03*
D180*
X0003670763Y0002904826D03*
X0003670763Y0002963881D03*
D195*
X0003667377Y0002289629D03*
X0003580763Y0002289629D03*
X0003580763Y0002222700D03*
X0003667377Y0002222700D03*
G04 next file*
G04 Gerber Fmt 4.6, Leading zero omitted, Abs format (unit mm)*
G04 Created by KiCad (PCBNEW 4.0.7) date Thursday, 08 March 2018 'PMt' 14:48:31*
G01G01*
G04 APERTURE LIST*
G04 APERTURE END LIST*
D196*
D197*
X0005039370Y0000374015D02*
X0005458763Y0001371157D03*
D198*
X0004832897Y0000858060D03*
X0004832897Y0000917115D03*
D197*
X0004778055Y0001313677D03*
D199*
X0005457188Y0001681000D03*
D200*
X0005457188Y0001580999D03*
X0005457188Y0001481000D03*
D201*
X0005346559Y0000904622D03*
X0005405614Y0000904622D03*
X0004828370Y0001147587D03*
X0004887425Y0001147587D03*
D202*
X0004912897Y0000640560D03*
X0004912897Y0000699615D03*
D201*
X0005057425Y0000700087D03*
X0004998370Y0000700087D03*
X0005140870Y0000700087D03*
X0005199925Y0000700087D03*
D203*
X0005350496Y0000743204D03*
X0005387897Y0000743204D03*
X0005425299Y0000743204D03*
X0005425299Y0000829818D03*
X0005350496Y0000829818D03*
D204*
X0005369157Y0001205803D03*
X0005349472Y0001205803D03*
X0005329787Y0001205803D03*
X0005310102Y0001205803D03*
X0005290417Y0001205803D03*
X0005270732Y0001205803D03*
D205*
X0005221519Y0001255015D03*
D206*
X0005183133Y0001241236D03*
D207*
X0005155574Y0001251078D03*
D205*
X0005418370Y0001255015D03*
D206*
X0005456755Y0001241236D03*
D207*
X0005484314Y0001251078D03*
D199*
X0004661519Y0000906196D03*
D200*
X0004661519Y0001006196D03*
X0004661519Y0001106196D03*
X0004661519Y0001206196D03*
X0004661519Y0001306196D03*
D199*
X0004661519Y0000343598D03*
D200*
X0004661519Y0000443598D03*
X0004661519Y0000543598D03*
X0004661519Y0000643598D03*
X0004661519Y0000743598D03*
D208*
X0005078842Y0000467614D03*
X0005177267Y0000467614D03*
X0005000102Y0000467614D03*
X0004901677Y0000467614D03*
D209*
X0005128055Y0000384937D03*
X0004950889Y0000384937D03*
D210*
X0004815062Y0000384937D03*
X0005263881Y0000384937D03*
D211*
X0005237897Y0001067587D03*
X0005212897Y0001067587D03*
X0005187897Y0001067587D03*
X0005162897Y0001067587D03*
X0005137897Y0001067587D03*
X0005112897Y0001067587D03*
X0005087897Y0001067587D03*
X0005062897Y0001067587D03*
X0005037897Y0001067587D03*
X0005012897Y0001067587D03*
X0004987897Y0001067587D03*
X0004962897Y0001067587D03*
X0004937897Y0001067587D03*
X0004912897Y0001067587D03*
X0004912897Y0000805087D03*
X0004937897Y0000805087D03*
X0004962897Y0000805087D03*
X0004987897Y0000805087D03*
X0005012897Y0000805087D03*
X0005037897Y0000805087D03*
X0005062897Y0000805087D03*
X0005087897Y0000805087D03*
X0005112897Y0000805087D03*
X0005137897Y0000805087D03*
X0005162897Y0000805087D03*
X0005187897Y0000805087D03*
X0005212897Y0000805087D03*
X0005237897Y0000805087D03*
D197*
X0005452858Y0000337692D03*
D212*
X0005344984Y0000524307D03*
X0005344984Y0000603047D03*
X0004832897Y0000993217D03*
X0004832897Y0001071957D03*
D213*
X0005258370Y0000675881D03*
X0005337110Y0000675881D03*
D214*
X0005274118Y0000616826D03*
X0005215062Y0000616826D03*
D215*
X0005441047Y0000473125D03*
X0005441047Y0000547929D03*
D214*
X0005055614Y0000634543D03*
X0004996559Y0000634543D03*
D216*
X0004990653Y0001313677D03*
X0004896165Y0001313677D03*
D214*
X0005404039Y0000416039D03*
X0005344984Y0000416039D03*
D202*
X0005344984Y0000362889D03*
X0005344984Y0000303834D03*
D217*
X0005348370Y0000978086D03*
X0005434984Y0000978086D03*
X0005434984Y0001045015D03*
X0005348370Y0001045015D03*
G04 next file*
G04 Gerber Fmt 4.6, Leading zero omitted, Abs format (unit mm)*
G04 Created by KiCad (PCBNEW 4.0.7) date Thursday, 08 March 2018 'PMt' 14:48:31*
G01G01*
G04 APERTURE LIST*
G04 APERTURE END LIST*
D218*
D219*
X0005039370Y0002893700D02*
X0004619976Y0001896559D03*
D220*
X0005245842Y0002409656D03*
X0005245842Y0002350601D03*
D219*
X0005300685Y0001954039D03*
D221*
X0004621551Y0001586716D03*
D222*
X0004621551Y0001686716D03*
X0004621551Y0001786716D03*
D223*
X0004732181Y0002363094D03*
X0004673125Y0002363094D03*
X0005250370Y0002120128D03*
X0005191315Y0002120128D03*
D224*
X0005165842Y0002627156D03*
X0005165842Y0002568101D03*
D223*
X0005021315Y0002567628D03*
X0005080370Y0002567628D03*
X0004937870Y0002567628D03*
X0004878815Y0002567628D03*
D225*
X0004728244Y0002524511D03*
X0004690842Y0002524511D03*
X0004653440Y0002524511D03*
X0004653440Y0002437897D03*
X0004728244Y0002437897D03*
D226*
X0004709582Y0002061913D03*
X0004729267Y0002061913D03*
X0004748952Y0002061913D03*
X0004768637Y0002061913D03*
X0004788322Y0002061913D03*
X0004808007Y0002061913D03*
D227*
X0004857220Y0002012700D03*
D228*
X0004895606Y0002026480D03*
D229*
X0004923165Y0002016637D03*
D227*
X0004660370Y0002012700D03*
D228*
X0004621984Y0002026480D03*
D229*
X0004594425Y0002016637D03*
D221*
X0005417220Y0002361519D03*
D222*
X0005417220Y0002261519D03*
X0005417220Y0002161519D03*
X0005417220Y0002061519D03*
X0005417220Y0001961519D03*
D221*
X0005417220Y0002924118D03*
D222*
X0005417220Y0002824118D03*
X0005417220Y0002724118D03*
X0005417220Y0002624118D03*
X0005417220Y0002524118D03*
D230*
X0004999897Y0002800102D03*
X0004901472Y0002800102D03*
X0005078637Y0002800102D03*
X0005177062Y0002800102D03*
D231*
X0004950685Y0002882779D03*
X0005127850Y0002882779D03*
D232*
X0005263677Y0002882779D03*
X0004814858Y0002882779D03*
D233*
X0004840842Y0002200128D03*
X0004865842Y0002200128D03*
X0004890842Y0002200128D03*
X0004915842Y0002200128D03*
X0004940842Y0002200128D03*
X0004965842Y0002200128D03*
X0004990842Y0002200128D03*
X0005015842Y0002200128D03*
X0005040842Y0002200128D03*
X0005065842Y0002200128D03*
X0005090842Y0002200128D03*
X0005115842Y0002200128D03*
X0005140842Y0002200128D03*
X0005165842Y0002200128D03*
X0005165842Y0002462628D03*
X0005140842Y0002462628D03*
X0005115842Y0002462628D03*
X0005090842Y0002462628D03*
X0005065842Y0002462628D03*
X0005040842Y0002462628D03*
X0005015842Y0002462628D03*
X0004990842Y0002462628D03*
X0004965842Y0002462628D03*
X0004940842Y0002462628D03*
X0004915842Y0002462628D03*
X0004890842Y0002462628D03*
X0004865842Y0002462628D03*
X0004840842Y0002462628D03*
D219*
X0004625881Y0002930023D03*
D234*
X0004733755Y0002743409D03*
X0004733755Y0002664669D03*
X0005245842Y0002274498D03*
X0005245842Y0002195758D03*
D235*
X0004820370Y0002591834D03*
X0004741629Y0002591834D03*
D236*
X0004804622Y0002650889D03*
X0004863677Y0002650889D03*
D237*
X0004637692Y0002794590D03*
X0004637692Y0002719787D03*
D236*
X0005023125Y0002633173D03*
X0005082181Y0002633173D03*
D238*
X0005088086Y0001954039D03*
X0005182574Y0001954039D03*
D236*
X0004674700Y0002851677D03*
X0004733755Y0002851677D03*
D224*
X0004733755Y0002904826D03*
X0004733755Y0002963881D03*
D239*
X0004730370Y0002289629D03*
X0004643755Y0002289629D03*
X0004643755Y0002222700D03*
X0004730370Y0002222700D03*
M02*