%MOIN*%
%OFA0B0*%
%FSLAX46Y46*%
%IPPOS*%
%LPD*%
%ADD10C,0.0039370078740157488*%
%ADD11C,0.011811023622047244*%
%ADD12C,0.00984251968503937*%
%ADD13C,0.01*%
%ADD24C,0.0039370078740157488*%
%ADD25C,0.011811023622047244*%
%ADD26C,0.00984251968503937*%
%ADD27C,0.01*%
%ADD28C,0.0039370078740157488*%
%ADD29C,0.011811023622047244*%
%ADD30C,0.00984251968503937*%
%ADD31C,0.01*%
%ADD32C,0.0039370078740157488*%
%ADD33C,0.011811023622047244*%
%ADD34C,0.00984251968503937*%
%ADD35C,0.01*%
%ADD36C,0.0039370078740157488*%
%ADD37C,0.011811023622047244*%
%ADD38C,0.00984251968503937*%
%ADD39C,0.01*%
%ADD40C,0.0039370078740157488*%
%ADD41C,0.011811023622047244*%
%ADD42C,0.00984251968503937*%
%ADD43C,0.01*%
%ADD44C,0.0039370078740157488*%
%ADD45C,0.011811023622047244*%
%ADD46C,0.00984251968503937*%
%ADD47C,0.01*%
%ADD48C,0.0039370078740157488*%
%ADD49C,0.011811023622047244*%
%ADD50C,0.00984251968503937*%
%ADD51C,0.01*%
%ADD52C,0.0039370078740157488*%
%ADD53C,0.011811023622047244*%
%ADD54C,0.00984251968503937*%
%ADD55C,0.01*%
%ADD56C,0.0039370078740157488*%
%ADD57C,0.011811023622047244*%
%ADD58C,0.00984251968503937*%
%ADD59C,0.01*%
G01G01*
D10*
D11*
X0001223116Y0001242012D02*
X0001194995Y0001261697D01*
X0001223116Y0001275758D02*
X0001164061Y0001275758D01*
X0001164061Y0001253260D01*
X0001166874Y0001247636D01*
X0001169686Y0001244824D01*
X0001175310Y0001242012D01*
X0001183746Y0001242012D01*
X0001189371Y0001244824D01*
X0001192183Y0001247636D01*
X0001194995Y0001253260D01*
X0001194995Y0001275758D01*
X0001220304Y0001194205D02*
X0001223116Y0001199830D01*
X0001223116Y0001211078D01*
X0001220304Y0001216702D01*
X0001214680Y0001219515D01*
X0001192183Y0001219515D01*
X0001186559Y0001216702D01*
X0001183746Y0001211078D01*
X0001183746Y0001199830D01*
X0001186559Y0001194205D01*
X0001192183Y0001191393D01*
X0001197807Y0001191393D01*
X0001203431Y0001219515D01*
X0001183746Y0001171708D02*
X0001223116Y0001157647D01*
X0001183746Y0001143587D01*
X0001169686Y0001078907D02*
X0001166874Y0001076095D01*
X0001164061Y0001070471D01*
X0001164061Y0001056410D01*
X0001166874Y0001050786D01*
X0001169686Y0001047974D01*
X0001175310Y0001045161D01*
X0001180934Y0001045161D01*
X0001189371Y0001047974D01*
X0001223116Y0001081719D01*
X0001223116Y0001045161D01*
X0001164061Y0001008604D02*
X0001164061Y0001002979D01*
X0001166874Y0000997355D01*
X0001169686Y0000994543D01*
X0001175310Y0000991731D01*
X0001186559Y0000988918D01*
X0001200619Y0000988918D01*
X0001211868Y0000991731D01*
X0001217492Y0000994543D01*
X0001220304Y0000997355D01*
X0001223116Y0001002979D01*
X0001223116Y0001008604D01*
X0001220304Y0001014228D01*
X0001217492Y0001017040D01*
X0001211868Y0001019852D01*
X0001200619Y0001022664D01*
X0001186559Y0001022664D01*
X0001175310Y0001019852D01*
X0001169686Y0001017040D01*
X0001166874Y0001014228D01*
X0001164061Y0001008604D01*
X0001223116Y0000932676D02*
X0001223116Y0000966421D01*
X0001223116Y0000949548D02*
X0001164061Y0000949548D01*
X0001172498Y0000955173D01*
X0001178122Y0000960797D01*
X0001180934Y0000966421D01*
X0001189371Y0000898930D02*
X0001186559Y0000904554D01*
X0001183746Y0000907366D01*
X0001178122Y0000910178D01*
X0001175310Y0000910178D01*
X0001169686Y0000907366D01*
X0001166874Y0000904554D01*
X0001164061Y0000898930D01*
X0001164061Y0000887681D01*
X0001166874Y0000882057D01*
X0001169686Y0000879245D01*
X0001175310Y0000876433D01*
X0001178122Y0000876433D01*
X0001183746Y0000879245D01*
X0001186559Y0000882057D01*
X0001189371Y0000887681D01*
X0001189371Y0000898930D01*
X0001192183Y0000904554D01*
X0001194995Y0000907366D01*
X0001200619Y0000910178D01*
X0001211868Y0000910178D01*
X0001217492Y0000907366D01*
X0001220304Y0000904554D01*
X0001223116Y0000898930D01*
X0001223116Y0000887681D01*
X0001220304Y0000882057D01*
X0001217492Y0000879245D01*
X0001211868Y0000876433D01*
X0001200619Y0000876433D01*
X0001194995Y0000879245D01*
X0001192183Y0000882057D01*
X0001189371Y0000887681D01*
X0001164061Y0000839875D02*
X0001164061Y0000834250D01*
X0001166874Y0000828626D01*
X0001169686Y0000825814D01*
X0001175310Y0000823002D01*
X0001186559Y0000820190D01*
X0001200619Y0000820190D01*
X0001211868Y0000823002D01*
X0001217492Y0000825814D01*
X0001220304Y0000828626D01*
X0001223116Y0000834250D01*
X0001223116Y0000839875D01*
X0001220304Y0000845499D01*
X0001217492Y0000848311D01*
X0001211868Y0000851123D01*
X0001200619Y0000853935D01*
X0001186559Y0000853935D01*
X0001175310Y0000851123D01*
X0001169686Y0000848311D01*
X0001166874Y0000845499D01*
X0001164061Y0000839875D01*
X0001164061Y0000800505D02*
X0001164061Y0000763947D01*
X0001186559Y0000783632D01*
X0001186559Y0000775195D01*
X0001189371Y0000769571D01*
X0001192183Y0000766759D01*
X0001197807Y0000763947D01*
X0001211868Y0000763947D01*
X0001217492Y0000766759D01*
X0001220304Y0000769571D01*
X0001223116Y0000775195D01*
X0001223116Y0000792068D01*
X0001220304Y0000797692D01*
X0001217492Y0000800505D01*
X0001164061Y0000727389D02*
X0001164061Y0000721764D01*
X0001166874Y0000716140D01*
X0001169686Y0000713328D01*
X0001175310Y0000710516D01*
X0001186559Y0000707704D01*
X0001200619Y0000707704D01*
X0001211868Y0000710516D01*
X0001217492Y0000713328D01*
X0001220304Y0000716140D01*
X0001223116Y0000721764D01*
X0001223116Y0000727389D01*
X0001220304Y0000733013D01*
X0001217492Y0000735825D01*
X0001211868Y0000738637D01*
X0001200619Y0000741450D01*
X0001186559Y0000741450D01*
X0001175310Y0000738637D01*
X0001169686Y0000735825D01*
X0001166874Y0000733013D01*
X0001164061Y0000727389D01*
X0001164061Y0000654273D02*
X0001164061Y0000682394D01*
X0001192183Y0000685207D01*
X0001189371Y0000682394D01*
X0001186559Y0000676770D01*
X0001186559Y0000662709D01*
X0001189371Y0000657085D01*
X0001192183Y0000654273D01*
X0001197807Y0000651461D01*
X0001211868Y0000651461D01*
X0001217492Y0000654273D01*
X0001220304Y0000657085D01*
X0001223116Y0000662709D01*
X0001223116Y0000676770D01*
X0001220304Y0000682394D01*
X0001217492Y0000685207D01*
D12*
X0000870274Y0000856628D02*
X0000830904Y0000856628D01*
X0000830904Y0000847254D01*
X0000832779Y0000841629D01*
X0000836529Y0000837880D01*
X0000840278Y0000836005D01*
X0000847777Y0000834130D01*
X0000853401Y0000834130D01*
X0000860901Y0000836005D01*
X0000864650Y0000837880D01*
X0000868400Y0000841629D01*
X0000870274Y0000847254D01*
X0000870274Y0000856628D01*
X0000855276Y0000817257D02*
X0000855276Y0000787261D01*
X0000763975Y0000852297D02*
X0000724605Y0000852297D01*
X0000724605Y0000842923D01*
X0000726480Y0000837299D01*
X0000730229Y0000833549D01*
X0000733979Y0000831674D01*
X0000741478Y0000829800D01*
X0000747102Y0000829800D01*
X0000754601Y0000831674D01*
X0000758351Y0000833549D01*
X0000762100Y0000837299D01*
X0000763975Y0000842923D01*
X0000763975Y0000852297D01*
X0000748977Y0000812927D02*
X0000748977Y0000782930D01*
X0000763975Y0000797929D02*
X0000733979Y0000797929D01*
X0000631992Y0000828319D02*
X0000630117Y0000832068D01*
X0000630117Y0000837692D01*
X0000631992Y0000843317D01*
X0000635741Y0000847066D01*
X0000639491Y0000848941D01*
X0000646990Y0000850816D01*
X0000652614Y0000850816D01*
X0000660113Y0000848941D01*
X0000663863Y0000847066D01*
X0000667612Y0000843317D01*
X0000669487Y0000837692D01*
X0000669487Y0000833943D01*
X0000667612Y0000828319D01*
X0000665737Y0000826444D01*
X0000652614Y0000826444D01*
X0000652614Y0000833943D01*
X0000669487Y0000809571D02*
X0000630117Y0000809571D01*
X0000669487Y0000787074D01*
X0000630117Y0000787074D01*
X0000669487Y0000768326D02*
X0000630117Y0000768326D01*
X0000630117Y0000758952D01*
X0000631992Y0000753328D01*
X0000635741Y0000749578D01*
X0000639491Y0000747704D01*
X0000646990Y0000745829D01*
X0000652614Y0000745829D01*
X0000660113Y0000747704D01*
X0000663863Y0000749578D01*
X0000667612Y0000753328D01*
X0000669487Y0000758952D01*
X0000669487Y0000768326D01*
X0000925392Y0000852766D02*
X0000964763Y0000839642D01*
X0000925392Y0000826519D01*
X0000964763Y0000813395D02*
X0000925392Y0000813395D01*
X0000940391Y0000813395D02*
X0000938516Y0000809646D01*
X0000938516Y0000802147D01*
X0000940391Y0000798397D01*
X0000942265Y0000796523D01*
X0000946015Y0000794648D01*
X0000957263Y0000794648D01*
X0000961013Y0000796523D01*
X0000962888Y0000798397D01*
X0000964763Y0000802147D01*
X0000964763Y0000809646D01*
X0000962888Y0000813395D01*
X0000938516Y0000760902D02*
X0000964763Y0000760902D01*
X0000938516Y0000777775D02*
X0000959138Y0000777775D01*
X0000962888Y0000775900D01*
X0000964763Y0000772151D01*
X0000964763Y0000766526D01*
X0000962888Y0000762777D01*
X0000961013Y0000760902D01*
X0000962888Y0000744029D02*
X0000964763Y0000740280D01*
X0000964763Y0000732781D01*
X0000962888Y0000729031D01*
X0000959138Y0000727156D01*
X0000957263Y0000727156D01*
X0000953514Y0000729031D01*
X0000951639Y0000732781D01*
X0000951639Y0000738405D01*
X0000949764Y0000742154D01*
X0000946015Y0000744029D01*
X0000944140Y0000744029D01*
X0000940391Y0000742154D01*
X0000938516Y0000738405D01*
X0000938516Y0000732781D01*
X0000940391Y0000729031D01*
D13*
G36*
X0001252401Y0000299015D02*
X0001082401Y0000299015D01*
X0001082401Y0000629015D01*
X0001252401Y0000629015D01*
X0001252401Y0000299015D01*
X0001252401Y0000299015D01*
G37*
X0001252401Y0000299015D02*
X0001082401Y0000299015D01*
X0001082401Y0000629015D01*
X0001252401Y0000629015D01*
X0001252401Y0000299015D01*
G04 next file*
G04 Gerber Fmt 4.6, Leading zero omitted, Abs format (unit mm)*
G04 Created by KiCad (PCBNEW 4.0.7) date Thursday, 08 March 2018 'PMt' 14:48:31*
G01G01*
G04 APERTURE LIST*
G04 APERTURE END LIST*
D24*
D25*
X0001414678Y0002025704D02*
X0001442799Y0002006019D01*
X0001414678Y0001991958D02*
X0001473733Y0001991958D01*
X0001473733Y0002014455D01*
X0001470921Y0002020079D01*
X0001468109Y0002022892D01*
X0001462484Y0002025704D01*
X0001454048Y0002025704D01*
X0001448424Y0002022892D01*
X0001445611Y0002020079D01*
X0001442799Y0002014455D01*
X0001442799Y0001991958D01*
X0001417490Y0002073510D02*
X0001414678Y0002067886D01*
X0001414678Y0002056637D01*
X0001417490Y0002051013D01*
X0001423114Y0002048201D01*
X0001445611Y0002048201D01*
X0001451236Y0002051013D01*
X0001454048Y0002056637D01*
X0001454048Y0002067886D01*
X0001451236Y0002073510D01*
X0001445611Y0002076322D01*
X0001439987Y0002076322D01*
X0001434363Y0002048201D01*
X0001454048Y0002096007D02*
X0001414678Y0002110068D01*
X0001454048Y0002124129D01*
X0001468109Y0002188808D02*
X0001470921Y0002191620D01*
X0001473733Y0002197245D01*
X0001473733Y0002211306D01*
X0001470921Y0002216930D01*
X0001468109Y0002219742D01*
X0001462484Y0002222554D01*
X0001456860Y0002222554D01*
X0001448424Y0002219742D01*
X0001414678Y0002185996D01*
X0001414678Y0002222554D01*
X0001473733Y0002259112D02*
X0001473733Y0002264736D01*
X0001470921Y0002270361D01*
X0001468109Y0002273173D01*
X0001462484Y0002275985D01*
X0001451236Y0002278797D01*
X0001437175Y0002278797D01*
X0001425926Y0002275985D01*
X0001420302Y0002273173D01*
X0001417490Y0002270361D01*
X0001414678Y0002264736D01*
X0001414678Y0002259112D01*
X0001417490Y0002253488D01*
X0001420302Y0002250676D01*
X0001425926Y0002247863D01*
X0001437175Y0002245051D01*
X0001451236Y0002245051D01*
X0001462484Y0002247863D01*
X0001468109Y0002250676D01*
X0001470921Y0002253488D01*
X0001473733Y0002259112D01*
X0001414678Y0002335040D02*
X0001414678Y0002301294D01*
X0001414678Y0002318167D02*
X0001473733Y0002318167D01*
X0001465296Y0002312543D01*
X0001459672Y0002306919D01*
X0001456860Y0002301294D01*
X0001448424Y0002368786D02*
X0001451236Y0002363161D01*
X0001454048Y0002360349D01*
X0001459672Y0002357537D01*
X0001462484Y0002357537D01*
X0001468109Y0002360349D01*
X0001470921Y0002363161D01*
X0001473733Y0002368786D01*
X0001473733Y0002380034D01*
X0001470921Y0002385659D01*
X0001468109Y0002388471D01*
X0001462484Y0002391283D01*
X0001459672Y0002391283D01*
X0001454048Y0002388471D01*
X0001451236Y0002385659D01*
X0001448424Y0002380034D01*
X0001448424Y0002368786D01*
X0001445611Y0002363161D01*
X0001442799Y0002360349D01*
X0001437175Y0002357537D01*
X0001425926Y0002357537D01*
X0001420302Y0002360349D01*
X0001417490Y0002363161D01*
X0001414678Y0002368786D01*
X0001414678Y0002380034D01*
X0001417490Y0002385659D01*
X0001420302Y0002388471D01*
X0001425926Y0002391283D01*
X0001437175Y0002391283D01*
X0001442799Y0002388471D01*
X0001445611Y0002385659D01*
X0001448424Y0002380034D01*
X0001473733Y0002427841D02*
X0001473733Y0002433465D01*
X0001470921Y0002439089D01*
X0001468109Y0002441902D01*
X0001462484Y0002444714D01*
X0001451236Y0002447526D01*
X0001437175Y0002447526D01*
X0001425926Y0002444714D01*
X0001420302Y0002441902D01*
X0001417490Y0002439089D01*
X0001414678Y0002433465D01*
X0001414678Y0002427841D01*
X0001417490Y0002422217D01*
X0001420302Y0002419404D01*
X0001425926Y0002416592D01*
X0001437175Y0002413780D01*
X0001451236Y0002413780D01*
X0001462484Y0002416592D01*
X0001468109Y0002419404D01*
X0001470921Y0002422217D01*
X0001473733Y0002427841D01*
X0001473733Y0002467211D02*
X0001473733Y0002503769D01*
X0001451236Y0002484084D01*
X0001451236Y0002492520D01*
X0001448424Y0002498145D01*
X0001445611Y0002500957D01*
X0001439987Y0002503769D01*
X0001425926Y0002503769D01*
X0001420302Y0002500957D01*
X0001417490Y0002498145D01*
X0001414678Y0002492520D01*
X0001414678Y0002475647D01*
X0001417490Y0002470023D01*
X0001420302Y0002467211D01*
X0001473733Y0002540327D02*
X0001473733Y0002545951D01*
X0001470921Y0002551575D01*
X0001468109Y0002554388D01*
X0001462484Y0002557200D01*
X0001451236Y0002560012D01*
X0001437175Y0002560012D01*
X0001425926Y0002557200D01*
X0001420302Y0002554388D01*
X0001417490Y0002551575D01*
X0001414678Y0002545951D01*
X0001414678Y0002540327D01*
X0001417490Y0002534702D01*
X0001420302Y0002531890D01*
X0001425926Y0002529078D01*
X0001437175Y0002526266D01*
X0001451236Y0002526266D01*
X0001462484Y0002529078D01*
X0001468109Y0002531890D01*
X0001470921Y0002534702D01*
X0001473733Y0002540327D01*
X0001473733Y0002613443D02*
X0001473733Y0002585321D01*
X0001445611Y0002582509D01*
X0001448424Y0002585321D01*
X0001451236Y0002590945D01*
X0001451236Y0002605006D01*
X0001448424Y0002610630D01*
X0001445611Y0002613443D01*
X0001439987Y0002616255D01*
X0001425926Y0002616255D01*
X0001420302Y0002613443D01*
X0001417490Y0002610630D01*
X0001414678Y0002605006D01*
X0001414678Y0002590945D01*
X0001417490Y0002585321D01*
X0001420302Y0002582509D01*
D26*
X0001767520Y0002411088D02*
X0001806890Y0002411088D01*
X0001806890Y0002420462D01*
X0001805015Y0002426086D01*
X0001801266Y0002429836D01*
X0001797516Y0002431710D01*
X0001790017Y0002433585D01*
X0001784393Y0002433585D01*
X0001776894Y0002431710D01*
X0001773144Y0002429836D01*
X0001769395Y0002426086D01*
X0001767520Y0002420462D01*
X0001767520Y0002411088D01*
X0001782518Y0002450458D02*
X0001782518Y0002480454D01*
X0001873819Y0002415419D02*
X0001913189Y0002415419D01*
X0001913189Y0002424793D01*
X0001911314Y0002430417D01*
X0001907565Y0002434166D01*
X0001903815Y0002436041D01*
X0001896316Y0002437916D01*
X0001890692Y0002437916D01*
X0001883193Y0002436041D01*
X0001879443Y0002434166D01*
X0001875694Y0002430417D01*
X0001873819Y0002424793D01*
X0001873819Y0002415419D01*
X0001888817Y0002454789D02*
X0001888817Y0002484785D01*
X0001873819Y0002469787D02*
X0001903815Y0002469787D01*
X0002005803Y0002439397D02*
X0002007677Y0002435647D01*
X0002007677Y0002430023D01*
X0002005803Y0002424399D01*
X0002002053Y0002420649D01*
X0001998304Y0002418775D01*
X0001990805Y0002416900D01*
X0001985180Y0002416900D01*
X0001977681Y0002418775D01*
X0001973932Y0002420649D01*
X0001970182Y0002424399D01*
X0001968307Y0002430023D01*
X0001968307Y0002433773D01*
X0001970182Y0002439397D01*
X0001972057Y0002441272D01*
X0001985180Y0002441272D01*
X0001985180Y0002433773D01*
X0001968307Y0002458145D02*
X0002007677Y0002458145D01*
X0001968307Y0002480642D01*
X0002007677Y0002480642D01*
X0001968307Y0002499389D02*
X0002007677Y0002499389D01*
X0002007677Y0002508763D01*
X0002005803Y0002514388D01*
X0002002053Y0002518137D01*
X0001998304Y0002520012D01*
X0001990805Y0002521887D01*
X0001985180Y0002521887D01*
X0001977681Y0002520012D01*
X0001973932Y0002518137D01*
X0001970182Y0002514388D01*
X0001968307Y0002508763D01*
X0001968307Y0002499389D01*
X0001712402Y0002414950D02*
X0001673032Y0002428073D01*
X0001712402Y0002441197D01*
X0001673032Y0002454320D02*
X0001712402Y0002454320D01*
X0001697404Y0002454320D02*
X0001699278Y0002458070D01*
X0001699278Y0002465569D01*
X0001697404Y0002469318D01*
X0001695529Y0002471193D01*
X0001691779Y0002473068D01*
X0001680531Y0002473068D01*
X0001676781Y0002471193D01*
X0001674907Y0002469318D01*
X0001673032Y0002465569D01*
X0001673032Y0002458070D01*
X0001674907Y0002454320D01*
X0001699278Y0002506814D02*
X0001673032Y0002506814D01*
X0001699278Y0002489941D02*
X0001678656Y0002489941D01*
X0001674907Y0002491815D01*
X0001673032Y0002495565D01*
X0001673032Y0002501189D01*
X0001674907Y0002504939D01*
X0001676781Y0002506814D01*
X0001674907Y0002523686D02*
X0001673032Y0002527436D01*
X0001673032Y0002534935D01*
X0001674907Y0002538685D01*
X0001678656Y0002540559D01*
X0001680531Y0002540559D01*
X0001684280Y0002538685D01*
X0001686155Y0002534935D01*
X0001686155Y0002529311D01*
X0001688030Y0002525561D01*
X0001691779Y0002523686D01*
X0001693654Y0002523686D01*
X0001697404Y0002525561D01*
X0001699278Y0002529311D01*
X0001699278Y0002534935D01*
X0001697404Y0002538685D01*
D27*
G36*
X0001385393Y0002968700D02*
X0001555393Y0002968700D01*
X0001555393Y0002638700D01*
X0001385393Y0002638700D01*
X0001385393Y0002968700D01*
X0001385393Y0002968700D01*
G37*
X0001385393Y0002968700D02*
X0001555393Y0002968700D01*
X0001555393Y0002638700D01*
X0001385393Y0002638700D01*
X0001385393Y0002968700D01*
G04 next file*
G04 Gerber Fmt 4.6, Leading zero omitted, Abs format (unit mm)*
G04 Created by KiCad (PCBNEW 4.0.7) date Thursday, 08 March 2018 'PMt' 14:48:31*
G01G01*
G04 APERTURE LIST*
G04 APERTURE END LIST*
D28*
D29*
X0002286109Y0001242012D02*
X0002257987Y0001261697D01*
X0002286109Y0001275758D02*
X0002227053Y0001275758D01*
X0002227053Y0001253260D01*
X0002229866Y0001247636D01*
X0002232678Y0001244824D01*
X0002238302Y0001242012D01*
X0002246739Y0001242012D01*
X0002252363Y0001244824D01*
X0002255175Y0001247636D01*
X0002257987Y0001253260D01*
X0002257987Y0001275758D01*
X0002283296Y0001194205D02*
X0002286109Y0001199830D01*
X0002286109Y0001211078D01*
X0002283296Y0001216702D01*
X0002277672Y0001219515D01*
X0002255175Y0001219515D01*
X0002249551Y0001216702D01*
X0002246739Y0001211078D01*
X0002246739Y0001199830D01*
X0002249551Y0001194205D01*
X0002255175Y0001191393D01*
X0002260799Y0001191393D01*
X0002266424Y0001219515D01*
X0002246739Y0001171708D02*
X0002286109Y0001157647D01*
X0002246739Y0001143587D01*
X0002232678Y0001078907D02*
X0002229866Y0001076095D01*
X0002227053Y0001070471D01*
X0002227053Y0001056410D01*
X0002229866Y0001050786D01*
X0002232678Y0001047974D01*
X0002238302Y0001045161D01*
X0002243926Y0001045161D01*
X0002252363Y0001047974D01*
X0002286109Y0001081719D01*
X0002286109Y0001045161D01*
X0002227053Y0001008604D02*
X0002227053Y0001002979D01*
X0002229866Y0000997355D01*
X0002232678Y0000994543D01*
X0002238302Y0000991731D01*
X0002249551Y0000988918D01*
X0002263611Y0000988918D01*
X0002274860Y0000991731D01*
X0002280484Y0000994543D01*
X0002283296Y0000997355D01*
X0002286109Y0001002979D01*
X0002286109Y0001008604D01*
X0002283296Y0001014228D01*
X0002280484Y0001017040D01*
X0002274860Y0001019852D01*
X0002263611Y0001022664D01*
X0002249551Y0001022664D01*
X0002238302Y0001019852D01*
X0002232678Y0001017040D01*
X0002229866Y0001014228D01*
X0002227053Y0001008604D01*
X0002286109Y0000932676D02*
X0002286109Y0000966421D01*
X0002286109Y0000949548D02*
X0002227053Y0000949548D01*
X0002235490Y0000955173D01*
X0002241114Y0000960797D01*
X0002243926Y0000966421D01*
X0002252363Y0000898930D02*
X0002249551Y0000904554D01*
X0002246739Y0000907366D01*
X0002241114Y0000910178D01*
X0002238302Y0000910178D01*
X0002232678Y0000907366D01*
X0002229866Y0000904554D01*
X0002227053Y0000898930D01*
X0002227053Y0000887681D01*
X0002229866Y0000882057D01*
X0002232678Y0000879245D01*
X0002238302Y0000876433D01*
X0002241114Y0000876433D01*
X0002246739Y0000879245D01*
X0002249551Y0000882057D01*
X0002252363Y0000887681D01*
X0002252363Y0000898930D01*
X0002255175Y0000904554D01*
X0002257987Y0000907366D01*
X0002263611Y0000910178D01*
X0002274860Y0000910178D01*
X0002280484Y0000907366D01*
X0002283296Y0000904554D01*
X0002286109Y0000898930D01*
X0002286109Y0000887681D01*
X0002283296Y0000882057D01*
X0002280484Y0000879245D01*
X0002274860Y0000876433D01*
X0002263611Y0000876433D01*
X0002257987Y0000879245D01*
X0002255175Y0000882057D01*
X0002252363Y0000887681D01*
X0002227053Y0000839875D02*
X0002227053Y0000834250D01*
X0002229866Y0000828626D01*
X0002232678Y0000825814D01*
X0002238302Y0000823002D01*
X0002249551Y0000820190D01*
X0002263611Y0000820190D01*
X0002274860Y0000823002D01*
X0002280484Y0000825814D01*
X0002283296Y0000828626D01*
X0002286109Y0000834250D01*
X0002286109Y0000839875D01*
X0002283296Y0000845499D01*
X0002280484Y0000848311D01*
X0002274860Y0000851123D01*
X0002263611Y0000853935D01*
X0002249551Y0000853935D01*
X0002238302Y0000851123D01*
X0002232678Y0000848311D01*
X0002229866Y0000845499D01*
X0002227053Y0000839875D01*
X0002227053Y0000800505D02*
X0002227053Y0000763947D01*
X0002249551Y0000783632D01*
X0002249551Y0000775195D01*
X0002252363Y0000769571D01*
X0002255175Y0000766759D01*
X0002260799Y0000763947D01*
X0002274860Y0000763947D01*
X0002280484Y0000766759D01*
X0002283296Y0000769571D01*
X0002286109Y0000775195D01*
X0002286109Y0000792068D01*
X0002283296Y0000797692D01*
X0002280484Y0000800505D01*
X0002227053Y0000727389D02*
X0002227053Y0000721764D01*
X0002229866Y0000716140D01*
X0002232678Y0000713328D01*
X0002238302Y0000710516D01*
X0002249551Y0000707704D01*
X0002263611Y0000707704D01*
X0002274860Y0000710516D01*
X0002280484Y0000713328D01*
X0002283296Y0000716140D01*
X0002286109Y0000721764D01*
X0002286109Y0000727389D01*
X0002283296Y0000733013D01*
X0002280484Y0000735825D01*
X0002274860Y0000738637D01*
X0002263611Y0000741450D01*
X0002249551Y0000741450D01*
X0002238302Y0000738637D01*
X0002232678Y0000735825D01*
X0002229866Y0000733013D01*
X0002227053Y0000727389D01*
X0002227053Y0000654273D02*
X0002227053Y0000682394D01*
X0002255175Y0000685207D01*
X0002252363Y0000682394D01*
X0002249551Y0000676770D01*
X0002249551Y0000662709D01*
X0002252363Y0000657085D01*
X0002255175Y0000654273D01*
X0002260799Y0000651461D01*
X0002274860Y0000651461D01*
X0002280484Y0000654273D01*
X0002283296Y0000657085D01*
X0002286109Y0000662709D01*
X0002286109Y0000676770D01*
X0002283296Y0000682394D01*
X0002280484Y0000685207D01*
D30*
X0001933266Y0000856628D02*
X0001893896Y0000856628D01*
X0001893896Y0000847254D01*
X0001895771Y0000841629D01*
X0001899521Y0000837880D01*
X0001903270Y0000836005D01*
X0001910769Y0000834130D01*
X0001916394Y0000834130D01*
X0001923893Y0000836005D01*
X0001927642Y0000837880D01*
X0001931392Y0000841629D01*
X0001933266Y0000847254D01*
X0001933266Y0000856628D01*
X0001918268Y0000817257D02*
X0001918268Y0000787261D01*
X0001826967Y0000852297D02*
X0001787597Y0000852297D01*
X0001787597Y0000842923D01*
X0001789472Y0000837299D01*
X0001793221Y0000833549D01*
X0001796971Y0000831674D01*
X0001804470Y0000829800D01*
X0001810094Y0000829800D01*
X0001817593Y0000831674D01*
X0001821343Y0000833549D01*
X0001825092Y0000837299D01*
X0001826967Y0000842923D01*
X0001826967Y0000852297D01*
X0001811969Y0000812927D02*
X0001811969Y0000782930D01*
X0001826967Y0000797929D02*
X0001796971Y0000797929D01*
X0001694984Y0000828319D02*
X0001693109Y0000832068D01*
X0001693109Y0000837692D01*
X0001694984Y0000843317D01*
X0001698733Y0000847066D01*
X0001702483Y0000848941D01*
X0001709982Y0000850816D01*
X0001715606Y0000850816D01*
X0001723105Y0000848941D01*
X0001726855Y0000847066D01*
X0001730604Y0000843317D01*
X0001732479Y0000837692D01*
X0001732479Y0000833943D01*
X0001730604Y0000828319D01*
X0001728730Y0000826444D01*
X0001715606Y0000826444D01*
X0001715606Y0000833943D01*
X0001732479Y0000809571D02*
X0001693109Y0000809571D01*
X0001732479Y0000787074D01*
X0001693109Y0000787074D01*
X0001732479Y0000768326D02*
X0001693109Y0000768326D01*
X0001693109Y0000758952D01*
X0001694984Y0000753328D01*
X0001698733Y0000749578D01*
X0001702483Y0000747704D01*
X0001709982Y0000745829D01*
X0001715606Y0000745829D01*
X0001723105Y0000747704D01*
X0001726855Y0000749578D01*
X0001730604Y0000753328D01*
X0001732479Y0000758952D01*
X0001732479Y0000768326D01*
X0001988385Y0000852766D02*
X0002027755Y0000839642D01*
X0001988385Y0000826519D01*
X0002027755Y0000813395D02*
X0001988385Y0000813395D01*
X0002003383Y0000813395D02*
X0002001508Y0000809646D01*
X0002001508Y0000802147D01*
X0002003383Y0000798397D01*
X0002005257Y0000796523D01*
X0002009007Y0000794648D01*
X0002020256Y0000794648D01*
X0002024005Y0000796523D01*
X0002025880Y0000798397D01*
X0002027755Y0000802147D01*
X0002027755Y0000809646D01*
X0002025880Y0000813395D01*
X0002001508Y0000760902D02*
X0002027755Y0000760902D01*
X0002001508Y0000777775D02*
X0002022130Y0000777775D01*
X0002025880Y0000775900D01*
X0002027755Y0000772151D01*
X0002027755Y0000766526D01*
X0002025880Y0000762777D01*
X0002024005Y0000760902D01*
X0002025880Y0000744029D02*
X0002027755Y0000740280D01*
X0002027755Y0000732781D01*
X0002025880Y0000729031D01*
X0002022130Y0000727156D01*
X0002020256Y0000727156D01*
X0002016506Y0000729031D01*
X0002014631Y0000732781D01*
X0002014631Y0000738405D01*
X0002012757Y0000742154D01*
X0002009007Y0000744029D01*
X0002007132Y0000744029D01*
X0002003383Y0000742154D01*
X0002001508Y0000738405D01*
X0002001508Y0000732781D01*
X0002003383Y0000729031D01*
D31*
G36*
X0002315393Y0000299015D02*
X0002145393Y0000299015D01*
X0002145393Y0000629015D01*
X0002315393Y0000629015D01*
X0002315393Y0000299015D01*
X0002315393Y0000299015D01*
G37*
X0002315393Y0000299015D02*
X0002145393Y0000299015D01*
X0002145393Y0000629015D01*
X0002315393Y0000629015D01*
X0002315393Y0000299015D01*
G04 next file*
G04 Gerber Fmt 4.6, Leading zero omitted, Abs format (unit mm)*
G04 Created by KiCad (PCBNEW 4.0.7) date Thursday, 08 March 2018 'PMt' 14:48:31*
G01G01*
G04 APERTURE LIST*
G04 APERTURE END LIST*
D32*
D33*
X0000351686Y0002025704D02*
X0000379807Y0002006019D01*
X0000351686Y0001991958D02*
X0000410741Y0001991958D01*
X0000410741Y0002014455D01*
X0000407929Y0002020079D01*
X0000405116Y0002022892D01*
X0000399492Y0002025704D01*
X0000391056Y0002025704D01*
X0000385431Y0002022892D01*
X0000382619Y0002020079D01*
X0000379807Y0002014455D01*
X0000379807Y0001991958D01*
X0000354498Y0002073510D02*
X0000351686Y0002067886D01*
X0000351686Y0002056637D01*
X0000354498Y0002051013D01*
X0000360122Y0002048201D01*
X0000382619Y0002048201D01*
X0000388244Y0002051013D01*
X0000391056Y0002056637D01*
X0000391056Y0002067886D01*
X0000388244Y0002073510D01*
X0000382619Y0002076322D01*
X0000376995Y0002076322D01*
X0000371371Y0002048201D01*
X0000391056Y0002096007D02*
X0000351686Y0002110068D01*
X0000391056Y0002124129D01*
X0000405116Y0002188808D02*
X0000407929Y0002191620D01*
X0000410741Y0002197245D01*
X0000410741Y0002211306D01*
X0000407929Y0002216930D01*
X0000405116Y0002219742D01*
X0000399492Y0002222554D01*
X0000393868Y0002222554D01*
X0000385431Y0002219742D01*
X0000351686Y0002185996D01*
X0000351686Y0002222554D01*
X0000410741Y0002259112D02*
X0000410741Y0002264736D01*
X0000407929Y0002270361D01*
X0000405116Y0002273173D01*
X0000399492Y0002275985D01*
X0000388244Y0002278797D01*
X0000374183Y0002278797D01*
X0000362934Y0002275985D01*
X0000357310Y0002273173D01*
X0000354498Y0002270361D01*
X0000351686Y0002264736D01*
X0000351686Y0002259112D01*
X0000354498Y0002253488D01*
X0000357310Y0002250676D01*
X0000362934Y0002247863D01*
X0000374183Y0002245051D01*
X0000388244Y0002245051D01*
X0000399492Y0002247863D01*
X0000405116Y0002250676D01*
X0000407929Y0002253488D01*
X0000410741Y0002259112D01*
X0000351686Y0002335040D02*
X0000351686Y0002301294D01*
X0000351686Y0002318167D02*
X0000410741Y0002318167D01*
X0000402304Y0002312543D01*
X0000396680Y0002306919D01*
X0000393868Y0002301294D01*
X0000385431Y0002368786D02*
X0000388244Y0002363161D01*
X0000391056Y0002360349D01*
X0000396680Y0002357537D01*
X0000399492Y0002357537D01*
X0000405116Y0002360349D01*
X0000407929Y0002363161D01*
X0000410741Y0002368786D01*
X0000410741Y0002380034D01*
X0000407929Y0002385659D01*
X0000405116Y0002388471D01*
X0000399492Y0002391283D01*
X0000396680Y0002391283D01*
X0000391056Y0002388471D01*
X0000388244Y0002385659D01*
X0000385431Y0002380034D01*
X0000385431Y0002368786D01*
X0000382619Y0002363161D01*
X0000379807Y0002360349D01*
X0000374183Y0002357537D01*
X0000362934Y0002357537D01*
X0000357310Y0002360349D01*
X0000354498Y0002363161D01*
X0000351686Y0002368786D01*
X0000351686Y0002380034D01*
X0000354498Y0002385659D01*
X0000357310Y0002388471D01*
X0000362934Y0002391283D01*
X0000374183Y0002391283D01*
X0000379807Y0002388471D01*
X0000382619Y0002385659D01*
X0000385431Y0002380034D01*
X0000410741Y0002427841D02*
X0000410741Y0002433465D01*
X0000407929Y0002439089D01*
X0000405116Y0002441902D01*
X0000399492Y0002444714D01*
X0000388244Y0002447526D01*
X0000374183Y0002447526D01*
X0000362934Y0002444714D01*
X0000357310Y0002441902D01*
X0000354498Y0002439089D01*
X0000351686Y0002433465D01*
X0000351686Y0002427841D01*
X0000354498Y0002422217D01*
X0000357310Y0002419404D01*
X0000362934Y0002416592D01*
X0000374183Y0002413780D01*
X0000388244Y0002413780D01*
X0000399492Y0002416592D01*
X0000405116Y0002419404D01*
X0000407929Y0002422217D01*
X0000410741Y0002427841D01*
X0000410741Y0002467211D02*
X0000410741Y0002503769D01*
X0000388244Y0002484084D01*
X0000388244Y0002492520D01*
X0000385431Y0002498145D01*
X0000382619Y0002500957D01*
X0000376995Y0002503769D01*
X0000362934Y0002503769D01*
X0000357310Y0002500957D01*
X0000354498Y0002498145D01*
X0000351686Y0002492520D01*
X0000351686Y0002475647D01*
X0000354498Y0002470023D01*
X0000357310Y0002467211D01*
X0000410741Y0002540327D02*
X0000410741Y0002545951D01*
X0000407929Y0002551575D01*
X0000405116Y0002554388D01*
X0000399492Y0002557200D01*
X0000388244Y0002560012D01*
X0000374183Y0002560012D01*
X0000362934Y0002557200D01*
X0000357310Y0002554388D01*
X0000354498Y0002551575D01*
X0000351686Y0002545951D01*
X0000351686Y0002540327D01*
X0000354498Y0002534702D01*
X0000357310Y0002531890D01*
X0000362934Y0002529078D01*
X0000374183Y0002526266D01*
X0000388244Y0002526266D01*
X0000399492Y0002529078D01*
X0000405116Y0002531890D01*
X0000407929Y0002534702D01*
X0000410741Y0002540327D01*
X0000410741Y0002613443D02*
X0000410741Y0002585321D01*
X0000382619Y0002582509D01*
X0000385431Y0002585321D01*
X0000388244Y0002590945D01*
X0000388244Y0002605006D01*
X0000385431Y0002610630D01*
X0000382619Y0002613443D01*
X0000376995Y0002616255D01*
X0000362934Y0002616255D01*
X0000357310Y0002613443D01*
X0000354498Y0002610630D01*
X0000351686Y0002605006D01*
X0000351686Y0002590945D01*
X0000354498Y0002585321D01*
X0000357310Y0002582509D01*
D34*
X0000704528Y0002411088D02*
X0000743898Y0002411088D01*
X0000743898Y0002420462D01*
X0000742023Y0002426086D01*
X0000738274Y0002429836D01*
X0000734524Y0002431710D01*
X0000727025Y0002433585D01*
X0000721401Y0002433585D01*
X0000713902Y0002431710D01*
X0000710152Y0002429836D01*
X0000706403Y0002426086D01*
X0000704528Y0002420462D01*
X0000704528Y0002411088D01*
X0000719526Y0002450458D02*
X0000719526Y0002480454D01*
X0000810827Y0002415419D02*
X0000850197Y0002415419D01*
X0000850197Y0002424793D01*
X0000848322Y0002430417D01*
X0000844573Y0002434166D01*
X0000840823Y0002436041D01*
X0000833324Y0002437916D01*
X0000827700Y0002437916D01*
X0000820201Y0002436041D01*
X0000816451Y0002434166D01*
X0000812702Y0002430417D01*
X0000810827Y0002424793D01*
X0000810827Y0002415419D01*
X0000825825Y0002454789D02*
X0000825825Y0002484785D01*
X0000810827Y0002469787D02*
X0000840823Y0002469787D01*
X0000942811Y0002439397D02*
X0000944685Y0002435647D01*
X0000944685Y0002430023D01*
X0000942811Y0002424399D01*
X0000939061Y0002420649D01*
X0000935311Y0002418775D01*
X0000927812Y0002416900D01*
X0000922188Y0002416900D01*
X0000914689Y0002418775D01*
X0000910940Y0002420649D01*
X0000907190Y0002424399D01*
X0000905315Y0002430023D01*
X0000905315Y0002433773D01*
X0000907190Y0002439397D01*
X0000909065Y0002441272D01*
X0000922188Y0002441272D01*
X0000922188Y0002433773D01*
X0000905315Y0002458145D02*
X0000944685Y0002458145D01*
X0000905315Y0002480642D01*
X0000944685Y0002480642D01*
X0000905315Y0002499389D02*
X0000944685Y0002499389D01*
X0000944685Y0002508763D01*
X0000942811Y0002514388D01*
X0000939061Y0002518137D01*
X0000935311Y0002520012D01*
X0000927812Y0002521887D01*
X0000922188Y0002521887D01*
X0000914689Y0002520012D01*
X0000910940Y0002518137D01*
X0000907190Y0002514388D01*
X0000905315Y0002508763D01*
X0000905315Y0002499389D01*
X0000649410Y0002414950D02*
X0000610040Y0002428073D01*
X0000649410Y0002441197D01*
X0000610040Y0002454320D02*
X0000649410Y0002454320D01*
X0000634412Y0002454320D02*
X0000636286Y0002458070D01*
X0000636286Y0002465569D01*
X0000634412Y0002469318D01*
X0000632537Y0002471193D01*
X0000628787Y0002473068D01*
X0000617539Y0002473068D01*
X0000613789Y0002471193D01*
X0000611914Y0002469318D01*
X0000610040Y0002465569D01*
X0000610040Y0002458070D01*
X0000611914Y0002454320D01*
X0000636286Y0002506814D02*
X0000610040Y0002506814D01*
X0000636286Y0002489941D02*
X0000615664Y0002489941D01*
X0000611914Y0002491815D01*
X0000610040Y0002495565D01*
X0000610040Y0002501189D01*
X0000611914Y0002504939D01*
X0000613789Y0002506814D01*
X0000611914Y0002523686D02*
X0000610040Y0002527436D01*
X0000610040Y0002534935D01*
X0000611914Y0002538685D01*
X0000615664Y0002540559D01*
X0000617539Y0002540559D01*
X0000621288Y0002538685D01*
X0000623163Y0002534935D01*
X0000623163Y0002529311D01*
X0000625038Y0002525561D01*
X0000628787Y0002523686D01*
X0000630662Y0002523686D01*
X0000634412Y0002525561D01*
X0000636286Y0002529311D01*
X0000636286Y0002534935D01*
X0000634412Y0002538685D01*
D35*
G36*
X0000322401Y0002968700D02*
X0000492401Y0002968700D01*
X0000492401Y0002638700D01*
X0000322401Y0002638700D01*
X0000322401Y0002968700D01*
X0000322401Y0002968700D01*
G37*
X0000322401Y0002968700D02*
X0000492401Y0002968700D01*
X0000492401Y0002638700D01*
X0000322401Y0002638700D01*
X0000322401Y0002968700D01*
G04 next file*
G04 Gerber Fmt 4.6, Leading zero omitted, Abs format (unit mm)*
G04 Created by KiCad (PCBNEW 4.0.7) date Thursday, 08 March 2018 'PMt' 14:48:31*
G01G01*
G04 APERTURE LIST*
G04 APERTURE END LIST*
D36*
D37*
X0002477670Y0002025704D02*
X0002505791Y0002006019D01*
X0002477670Y0001991958D02*
X0002536725Y0001991958D01*
X0002536725Y0002014455D01*
X0002533913Y0002020079D01*
X0002531101Y0002022892D01*
X0002525476Y0002025704D01*
X0002517040Y0002025704D01*
X0002511416Y0002022892D01*
X0002508604Y0002020079D01*
X0002505791Y0002014455D01*
X0002505791Y0001991958D01*
X0002480482Y0002073510D02*
X0002477670Y0002067886D01*
X0002477670Y0002056637D01*
X0002480482Y0002051013D01*
X0002486106Y0002048201D01*
X0002508604Y0002048201D01*
X0002514228Y0002051013D01*
X0002517040Y0002056637D01*
X0002517040Y0002067886D01*
X0002514228Y0002073510D01*
X0002508604Y0002076322D01*
X0002502979Y0002076322D01*
X0002497355Y0002048201D01*
X0002517040Y0002096007D02*
X0002477670Y0002110068D01*
X0002517040Y0002124129D01*
X0002531101Y0002188808D02*
X0002533913Y0002191620D01*
X0002536725Y0002197245D01*
X0002536725Y0002211306D01*
X0002533913Y0002216930D01*
X0002531101Y0002219742D01*
X0002525476Y0002222554D01*
X0002519852Y0002222554D01*
X0002511416Y0002219742D01*
X0002477670Y0002185996D01*
X0002477670Y0002222554D01*
X0002536725Y0002259112D02*
X0002536725Y0002264736D01*
X0002533913Y0002270361D01*
X0002531101Y0002273173D01*
X0002525476Y0002275985D01*
X0002514228Y0002278797D01*
X0002500167Y0002278797D01*
X0002488919Y0002275985D01*
X0002483294Y0002273173D01*
X0002480482Y0002270361D01*
X0002477670Y0002264736D01*
X0002477670Y0002259112D01*
X0002480482Y0002253488D01*
X0002483294Y0002250676D01*
X0002488919Y0002247863D01*
X0002500167Y0002245051D01*
X0002514228Y0002245051D01*
X0002525476Y0002247863D01*
X0002531101Y0002250676D01*
X0002533913Y0002253488D01*
X0002536725Y0002259112D01*
X0002477670Y0002335040D02*
X0002477670Y0002301294D01*
X0002477670Y0002318167D02*
X0002536725Y0002318167D01*
X0002528289Y0002312543D01*
X0002522664Y0002306919D01*
X0002519852Y0002301294D01*
X0002511416Y0002368786D02*
X0002514228Y0002363161D01*
X0002517040Y0002360349D01*
X0002522664Y0002357537D01*
X0002525476Y0002357537D01*
X0002531101Y0002360349D01*
X0002533913Y0002363161D01*
X0002536725Y0002368786D01*
X0002536725Y0002380034D01*
X0002533913Y0002385659D01*
X0002531101Y0002388471D01*
X0002525476Y0002391283D01*
X0002522664Y0002391283D01*
X0002517040Y0002388471D01*
X0002514228Y0002385659D01*
X0002511416Y0002380034D01*
X0002511416Y0002368786D01*
X0002508604Y0002363161D01*
X0002505791Y0002360349D01*
X0002500167Y0002357537D01*
X0002488919Y0002357537D01*
X0002483294Y0002360349D01*
X0002480482Y0002363161D01*
X0002477670Y0002368786D01*
X0002477670Y0002380034D01*
X0002480482Y0002385659D01*
X0002483294Y0002388471D01*
X0002488919Y0002391283D01*
X0002500167Y0002391283D01*
X0002505791Y0002388471D01*
X0002508604Y0002385659D01*
X0002511416Y0002380034D01*
X0002536725Y0002427841D02*
X0002536725Y0002433465D01*
X0002533913Y0002439089D01*
X0002531101Y0002441902D01*
X0002525476Y0002444714D01*
X0002514228Y0002447526D01*
X0002500167Y0002447526D01*
X0002488919Y0002444714D01*
X0002483294Y0002441902D01*
X0002480482Y0002439089D01*
X0002477670Y0002433465D01*
X0002477670Y0002427841D01*
X0002480482Y0002422217D01*
X0002483294Y0002419404D01*
X0002488919Y0002416592D01*
X0002500167Y0002413780D01*
X0002514228Y0002413780D01*
X0002525476Y0002416592D01*
X0002531101Y0002419404D01*
X0002533913Y0002422217D01*
X0002536725Y0002427841D01*
X0002536725Y0002467211D02*
X0002536725Y0002503769D01*
X0002514228Y0002484084D01*
X0002514228Y0002492520D01*
X0002511416Y0002498145D01*
X0002508604Y0002500957D01*
X0002502979Y0002503769D01*
X0002488919Y0002503769D01*
X0002483294Y0002500957D01*
X0002480482Y0002498145D01*
X0002477670Y0002492520D01*
X0002477670Y0002475647D01*
X0002480482Y0002470023D01*
X0002483294Y0002467211D01*
X0002536725Y0002540327D02*
X0002536725Y0002545951D01*
X0002533913Y0002551575D01*
X0002531101Y0002554388D01*
X0002525476Y0002557200D01*
X0002514228Y0002560012D01*
X0002500167Y0002560012D01*
X0002488919Y0002557200D01*
X0002483294Y0002554388D01*
X0002480482Y0002551575D01*
X0002477670Y0002545951D01*
X0002477670Y0002540327D01*
X0002480482Y0002534702D01*
X0002483294Y0002531890D01*
X0002488919Y0002529078D01*
X0002500167Y0002526266D01*
X0002514228Y0002526266D01*
X0002525476Y0002529078D01*
X0002531101Y0002531890D01*
X0002533913Y0002534702D01*
X0002536725Y0002540327D01*
X0002536725Y0002613443D02*
X0002536725Y0002585321D01*
X0002508604Y0002582509D01*
X0002511416Y0002585321D01*
X0002514228Y0002590945D01*
X0002514228Y0002605006D01*
X0002511416Y0002610630D01*
X0002508604Y0002613443D01*
X0002502979Y0002616255D01*
X0002488919Y0002616255D01*
X0002483294Y0002613443D01*
X0002480482Y0002610630D01*
X0002477670Y0002605006D01*
X0002477670Y0002590945D01*
X0002480482Y0002585321D01*
X0002483294Y0002582509D01*
D38*
X0002830512Y0002411088D02*
X0002869882Y0002411088D01*
X0002869882Y0002420462D01*
X0002868007Y0002426086D01*
X0002864258Y0002429836D01*
X0002860508Y0002431710D01*
X0002853009Y0002433585D01*
X0002847385Y0002433585D01*
X0002839886Y0002431710D01*
X0002836136Y0002429836D01*
X0002832387Y0002426086D01*
X0002830512Y0002420462D01*
X0002830512Y0002411088D01*
X0002845510Y0002450458D02*
X0002845510Y0002480454D01*
X0002936811Y0002415419D02*
X0002976181Y0002415419D01*
X0002976181Y0002424793D01*
X0002974307Y0002430417D01*
X0002970557Y0002434166D01*
X0002966807Y0002436041D01*
X0002959308Y0002437916D01*
X0002953684Y0002437916D01*
X0002946185Y0002436041D01*
X0002942436Y0002434166D01*
X0002938686Y0002430417D01*
X0002936811Y0002424793D01*
X0002936811Y0002415419D01*
X0002951809Y0002454789D02*
X0002951809Y0002484785D01*
X0002936811Y0002469787D02*
X0002966807Y0002469787D01*
X0003068795Y0002439397D02*
X0003070670Y0002435647D01*
X0003070670Y0002430023D01*
X0003068795Y0002424399D01*
X0003065045Y0002420649D01*
X0003061296Y0002418775D01*
X0003053797Y0002416900D01*
X0003048172Y0002416900D01*
X0003040673Y0002418775D01*
X0003036924Y0002420649D01*
X0003033174Y0002424399D01*
X0003031299Y0002430023D01*
X0003031299Y0002433773D01*
X0003033174Y0002439397D01*
X0003035049Y0002441272D01*
X0003048172Y0002441272D01*
X0003048172Y0002433773D01*
X0003031299Y0002458145D02*
X0003070670Y0002458145D01*
X0003031299Y0002480642D01*
X0003070670Y0002480642D01*
X0003031299Y0002499389D02*
X0003070670Y0002499389D01*
X0003070670Y0002508763D01*
X0003068795Y0002514388D01*
X0003065045Y0002518137D01*
X0003061296Y0002520012D01*
X0003053797Y0002521887D01*
X0003048172Y0002521887D01*
X0003040673Y0002520012D01*
X0003036924Y0002518137D01*
X0003033174Y0002514388D01*
X0003031299Y0002508763D01*
X0003031299Y0002499389D01*
X0002775394Y0002414950D02*
X0002736024Y0002428073D01*
X0002775394Y0002441197D01*
X0002736024Y0002454320D02*
X0002775394Y0002454320D01*
X0002760396Y0002454320D02*
X0002762271Y0002458070D01*
X0002762271Y0002465569D01*
X0002760396Y0002469318D01*
X0002758521Y0002471193D01*
X0002754772Y0002473068D01*
X0002743523Y0002473068D01*
X0002739773Y0002471193D01*
X0002737899Y0002469318D01*
X0002736024Y0002465569D01*
X0002736024Y0002458070D01*
X0002737899Y0002454320D01*
X0002762271Y0002506814D02*
X0002736024Y0002506814D01*
X0002762271Y0002489941D02*
X0002741648Y0002489941D01*
X0002737899Y0002491815D01*
X0002736024Y0002495565D01*
X0002736024Y0002501189D01*
X0002737899Y0002504939D01*
X0002739773Y0002506814D01*
X0002737899Y0002523686D02*
X0002736024Y0002527436D01*
X0002736024Y0002534935D01*
X0002737899Y0002538685D01*
X0002741648Y0002540559D01*
X0002743523Y0002540559D01*
X0002747272Y0002538685D01*
X0002749147Y0002534935D01*
X0002749147Y0002529311D01*
X0002751022Y0002525561D01*
X0002754772Y0002523686D01*
X0002756646Y0002523686D01*
X0002760396Y0002525561D01*
X0002762271Y0002529311D01*
X0002762271Y0002534935D01*
X0002760396Y0002538685D01*
D39*
G36*
X0002448385Y0002968700D02*
X0002618385Y0002968700D01*
X0002618385Y0002638700D01*
X0002448385Y0002638700D01*
X0002448385Y0002968700D01*
X0002448385Y0002968700D01*
G37*
X0002448385Y0002968700D02*
X0002618385Y0002968700D01*
X0002618385Y0002638700D01*
X0002448385Y0002638700D01*
X0002448385Y0002968700D01*
G04 next file*
G04 Gerber Fmt 4.6, Leading zero omitted, Abs format (unit mm)*
G04 Created by KiCad (PCBNEW 4.0.7) date Thursday, 08 March 2018 'PMt' 14:48:31*
G01G01*
G04 APERTURE LIST*
G04 APERTURE END LIST*
D40*
D41*
X0003349101Y0001242012D02*
X0003320979Y0001261697D01*
X0003349101Y0001275758D02*
X0003290046Y0001275758D01*
X0003290046Y0001253260D01*
X0003292858Y0001247636D01*
X0003295670Y0001244824D01*
X0003301294Y0001242012D01*
X0003309731Y0001242012D01*
X0003315355Y0001244824D01*
X0003318167Y0001247636D01*
X0003320979Y0001253260D01*
X0003320979Y0001275758D01*
X0003346289Y0001194205D02*
X0003349101Y0001199830D01*
X0003349101Y0001211078D01*
X0003346289Y0001216702D01*
X0003340664Y0001219515D01*
X0003318167Y0001219515D01*
X0003312543Y0001216702D01*
X0003309731Y0001211078D01*
X0003309731Y0001199830D01*
X0003312543Y0001194205D01*
X0003318167Y0001191393D01*
X0003323791Y0001191393D01*
X0003329416Y0001219515D01*
X0003309731Y0001171708D02*
X0003349101Y0001157647D01*
X0003309731Y0001143587D01*
X0003295670Y0001078907D02*
X0003292858Y0001076095D01*
X0003290046Y0001070471D01*
X0003290046Y0001056410D01*
X0003292858Y0001050786D01*
X0003295670Y0001047974D01*
X0003301294Y0001045161D01*
X0003306919Y0001045161D01*
X0003315355Y0001047974D01*
X0003349101Y0001081719D01*
X0003349101Y0001045161D01*
X0003290046Y0001008604D02*
X0003290046Y0001002979D01*
X0003292858Y0000997355D01*
X0003295670Y0000994543D01*
X0003301294Y0000991731D01*
X0003312543Y0000988918D01*
X0003326604Y0000988918D01*
X0003337852Y0000991731D01*
X0003343476Y0000994543D01*
X0003346289Y0000997355D01*
X0003349101Y0001002979D01*
X0003349101Y0001008604D01*
X0003346289Y0001014228D01*
X0003343476Y0001017040D01*
X0003337852Y0001019852D01*
X0003326604Y0001022664D01*
X0003312543Y0001022664D01*
X0003301294Y0001019852D01*
X0003295670Y0001017040D01*
X0003292858Y0001014228D01*
X0003290046Y0001008604D01*
X0003349101Y0000932676D02*
X0003349101Y0000966421D01*
X0003349101Y0000949548D02*
X0003290046Y0000949548D01*
X0003298482Y0000955173D01*
X0003304106Y0000960797D01*
X0003306919Y0000966421D01*
X0003315355Y0000898930D02*
X0003312543Y0000904554D01*
X0003309731Y0000907366D01*
X0003304106Y0000910178D01*
X0003301294Y0000910178D01*
X0003295670Y0000907366D01*
X0003292858Y0000904554D01*
X0003290046Y0000898930D01*
X0003290046Y0000887681D01*
X0003292858Y0000882057D01*
X0003295670Y0000879245D01*
X0003301294Y0000876433D01*
X0003304106Y0000876433D01*
X0003309731Y0000879245D01*
X0003312543Y0000882057D01*
X0003315355Y0000887681D01*
X0003315355Y0000898930D01*
X0003318167Y0000904554D01*
X0003320979Y0000907366D01*
X0003326604Y0000910178D01*
X0003337852Y0000910178D01*
X0003343476Y0000907366D01*
X0003346289Y0000904554D01*
X0003349101Y0000898930D01*
X0003349101Y0000887681D01*
X0003346289Y0000882057D01*
X0003343476Y0000879245D01*
X0003337852Y0000876433D01*
X0003326604Y0000876433D01*
X0003320979Y0000879245D01*
X0003318167Y0000882057D01*
X0003315355Y0000887681D01*
X0003290046Y0000839875D02*
X0003290046Y0000834250D01*
X0003292858Y0000828626D01*
X0003295670Y0000825814D01*
X0003301294Y0000823002D01*
X0003312543Y0000820190D01*
X0003326604Y0000820190D01*
X0003337852Y0000823002D01*
X0003343476Y0000825814D01*
X0003346289Y0000828626D01*
X0003349101Y0000834250D01*
X0003349101Y0000839875D01*
X0003346289Y0000845499D01*
X0003343476Y0000848311D01*
X0003337852Y0000851123D01*
X0003326604Y0000853935D01*
X0003312543Y0000853935D01*
X0003301294Y0000851123D01*
X0003295670Y0000848311D01*
X0003292858Y0000845499D01*
X0003290046Y0000839875D01*
X0003290046Y0000800505D02*
X0003290046Y0000763947D01*
X0003312543Y0000783632D01*
X0003312543Y0000775195D01*
X0003315355Y0000769571D01*
X0003318167Y0000766759D01*
X0003323791Y0000763947D01*
X0003337852Y0000763947D01*
X0003343476Y0000766759D01*
X0003346289Y0000769571D01*
X0003349101Y0000775195D01*
X0003349101Y0000792068D01*
X0003346289Y0000797692D01*
X0003343476Y0000800505D01*
X0003290046Y0000727389D02*
X0003290046Y0000721764D01*
X0003292858Y0000716140D01*
X0003295670Y0000713328D01*
X0003301294Y0000710516D01*
X0003312543Y0000707704D01*
X0003326604Y0000707704D01*
X0003337852Y0000710516D01*
X0003343476Y0000713328D01*
X0003346289Y0000716140D01*
X0003349101Y0000721764D01*
X0003349101Y0000727389D01*
X0003346289Y0000733013D01*
X0003343476Y0000735825D01*
X0003337852Y0000738637D01*
X0003326604Y0000741450D01*
X0003312543Y0000741450D01*
X0003301294Y0000738637D01*
X0003295670Y0000735825D01*
X0003292858Y0000733013D01*
X0003290046Y0000727389D01*
X0003290046Y0000654273D02*
X0003290046Y0000682394D01*
X0003318167Y0000685207D01*
X0003315355Y0000682394D01*
X0003312543Y0000676770D01*
X0003312543Y0000662709D01*
X0003315355Y0000657085D01*
X0003318167Y0000654273D01*
X0003323791Y0000651461D01*
X0003337852Y0000651461D01*
X0003343476Y0000654273D01*
X0003346289Y0000657085D01*
X0003349101Y0000662709D01*
X0003349101Y0000676770D01*
X0003346289Y0000682394D01*
X0003343476Y0000685207D01*
D42*
X0002996259Y0000856628D02*
X0002956889Y0000856628D01*
X0002956889Y0000847254D01*
X0002958763Y0000841629D01*
X0002962513Y0000837880D01*
X0002966262Y0000836005D01*
X0002973761Y0000834130D01*
X0002979386Y0000834130D01*
X0002986885Y0000836005D01*
X0002990634Y0000837880D01*
X0002994384Y0000841629D01*
X0002996259Y0000847254D01*
X0002996259Y0000856628D01*
X0002981260Y0000817257D02*
X0002981260Y0000787261D01*
X0002889959Y0000852297D02*
X0002850589Y0000852297D01*
X0002850589Y0000842923D01*
X0002852464Y0000837299D01*
X0002856214Y0000833549D01*
X0002859963Y0000831674D01*
X0002867462Y0000829800D01*
X0002873087Y0000829800D01*
X0002880586Y0000831674D01*
X0002884335Y0000833549D01*
X0002888085Y0000837299D01*
X0002889959Y0000842923D01*
X0002889959Y0000852297D01*
X0002874961Y0000812927D02*
X0002874961Y0000782930D01*
X0002889959Y0000797929D02*
X0002859963Y0000797929D01*
X0002757976Y0000828319D02*
X0002756101Y0000832068D01*
X0002756101Y0000837692D01*
X0002757976Y0000843317D01*
X0002761725Y0000847066D01*
X0002765475Y0000848941D01*
X0002772974Y0000850816D01*
X0002778598Y0000850816D01*
X0002786097Y0000848941D01*
X0002789847Y0000847066D01*
X0002793596Y0000843317D01*
X0002795471Y0000837692D01*
X0002795471Y0000833943D01*
X0002793596Y0000828319D01*
X0002791722Y0000826444D01*
X0002778598Y0000826444D01*
X0002778598Y0000833943D01*
X0002795471Y0000809571D02*
X0002756101Y0000809571D01*
X0002795471Y0000787074D01*
X0002756101Y0000787074D01*
X0002795471Y0000768326D02*
X0002756101Y0000768326D01*
X0002756101Y0000758952D01*
X0002757976Y0000753328D01*
X0002761725Y0000749578D01*
X0002765475Y0000747704D01*
X0002772974Y0000745829D01*
X0002778598Y0000745829D01*
X0002786097Y0000747704D01*
X0002789847Y0000749578D01*
X0002793596Y0000753328D01*
X0002795471Y0000758952D01*
X0002795471Y0000768326D01*
X0003051377Y0000852766D02*
X0003090747Y0000839642D01*
X0003051377Y0000826519D01*
X0003090747Y0000813395D02*
X0003051377Y0000813395D01*
X0003066375Y0000813395D02*
X0003064500Y0000809646D01*
X0003064500Y0000802147D01*
X0003066375Y0000798397D01*
X0003068250Y0000796523D01*
X0003071999Y0000794648D01*
X0003083248Y0000794648D01*
X0003086997Y0000796523D01*
X0003088872Y0000798397D01*
X0003090747Y0000802147D01*
X0003090747Y0000809646D01*
X0003088872Y0000813395D01*
X0003064500Y0000760902D02*
X0003090747Y0000760902D01*
X0003064500Y0000777775D02*
X0003085122Y0000777775D01*
X0003088872Y0000775900D01*
X0003090747Y0000772151D01*
X0003090747Y0000766526D01*
X0003088872Y0000762777D01*
X0003086997Y0000760902D01*
X0003088872Y0000744029D02*
X0003090747Y0000740280D01*
X0003090747Y0000732781D01*
X0003088872Y0000729031D01*
X0003085122Y0000727156D01*
X0003083248Y0000727156D01*
X0003079498Y0000729031D01*
X0003077623Y0000732781D01*
X0003077623Y0000738405D01*
X0003075749Y0000742154D01*
X0003071999Y0000744029D01*
X0003070124Y0000744029D01*
X0003066375Y0000742154D01*
X0003064500Y0000738405D01*
X0003064500Y0000732781D01*
X0003066375Y0000729031D01*
D43*
G36*
X0003378385Y0000299015D02*
X0003208385Y0000299015D01*
X0003208385Y0000629015D01*
X0003378385Y0000629015D01*
X0003378385Y0000299015D01*
X0003378385Y0000299015D01*
G37*
X0003378385Y0000299015D02*
X0003208385Y0000299015D01*
X0003208385Y0000629015D01*
X0003378385Y0000629015D01*
X0003378385Y0000299015D01*
G04 next file*
G04 Gerber Fmt 4.6, Leading zero omitted, Abs format (unit mm)*
G04 Created by KiCad (PCBNEW 4.0.7) date Thursday, 08 March 2018 'PMt' 14:48:31*
G01G01*
G04 APERTURE LIST*
G04 APERTURE END LIST*
D44*
D45*
X0004412093Y0001242012D02*
X0004383971Y0001261697D01*
X0004412093Y0001275758D02*
X0004353038Y0001275758D01*
X0004353038Y0001253260D01*
X0004355850Y0001247636D01*
X0004358662Y0001244824D01*
X0004364286Y0001242012D01*
X0004372723Y0001242012D01*
X0004378347Y0001244824D01*
X0004381159Y0001247636D01*
X0004383971Y0001253260D01*
X0004383971Y0001275758D01*
X0004409281Y0001194205D02*
X0004412093Y0001199830D01*
X0004412093Y0001211078D01*
X0004409281Y0001216702D01*
X0004403656Y0001219515D01*
X0004381159Y0001219515D01*
X0004375535Y0001216702D01*
X0004372723Y0001211078D01*
X0004372723Y0001199830D01*
X0004375535Y0001194205D01*
X0004381159Y0001191393D01*
X0004386784Y0001191393D01*
X0004392408Y0001219515D01*
X0004372723Y0001171708D02*
X0004412093Y0001157647D01*
X0004372723Y0001143587D01*
X0004358662Y0001078907D02*
X0004355850Y0001076095D01*
X0004353038Y0001070471D01*
X0004353038Y0001056410D01*
X0004355850Y0001050786D01*
X0004358662Y0001047974D01*
X0004364286Y0001045161D01*
X0004369911Y0001045161D01*
X0004378347Y0001047974D01*
X0004412093Y0001081719D01*
X0004412093Y0001045161D01*
X0004353038Y0001008604D02*
X0004353038Y0001002979D01*
X0004355850Y0000997355D01*
X0004358662Y0000994543D01*
X0004364286Y0000991731D01*
X0004375535Y0000988918D01*
X0004389596Y0000988918D01*
X0004400844Y0000991731D01*
X0004406469Y0000994543D01*
X0004409281Y0000997355D01*
X0004412093Y0001002979D01*
X0004412093Y0001008604D01*
X0004409281Y0001014228D01*
X0004406469Y0001017040D01*
X0004400844Y0001019852D01*
X0004389596Y0001022664D01*
X0004375535Y0001022664D01*
X0004364286Y0001019852D01*
X0004358662Y0001017040D01*
X0004355850Y0001014228D01*
X0004353038Y0001008604D01*
X0004412093Y0000932676D02*
X0004412093Y0000966421D01*
X0004412093Y0000949548D02*
X0004353038Y0000949548D01*
X0004361474Y0000955173D01*
X0004367098Y0000960797D01*
X0004369911Y0000966421D01*
X0004378347Y0000898930D02*
X0004375535Y0000904554D01*
X0004372723Y0000907366D01*
X0004367098Y0000910178D01*
X0004364286Y0000910178D01*
X0004358662Y0000907366D01*
X0004355850Y0000904554D01*
X0004353038Y0000898930D01*
X0004353038Y0000887681D01*
X0004355850Y0000882057D01*
X0004358662Y0000879245D01*
X0004364286Y0000876433D01*
X0004367098Y0000876433D01*
X0004372723Y0000879245D01*
X0004375535Y0000882057D01*
X0004378347Y0000887681D01*
X0004378347Y0000898930D01*
X0004381159Y0000904554D01*
X0004383971Y0000907366D01*
X0004389596Y0000910178D01*
X0004400844Y0000910178D01*
X0004406469Y0000907366D01*
X0004409281Y0000904554D01*
X0004412093Y0000898930D01*
X0004412093Y0000887681D01*
X0004409281Y0000882057D01*
X0004406469Y0000879245D01*
X0004400844Y0000876433D01*
X0004389596Y0000876433D01*
X0004383971Y0000879245D01*
X0004381159Y0000882057D01*
X0004378347Y0000887681D01*
X0004353038Y0000839875D02*
X0004353038Y0000834250D01*
X0004355850Y0000828626D01*
X0004358662Y0000825814D01*
X0004364286Y0000823002D01*
X0004375535Y0000820190D01*
X0004389596Y0000820190D01*
X0004400844Y0000823002D01*
X0004406469Y0000825814D01*
X0004409281Y0000828626D01*
X0004412093Y0000834250D01*
X0004412093Y0000839875D01*
X0004409281Y0000845499D01*
X0004406469Y0000848311D01*
X0004400844Y0000851123D01*
X0004389596Y0000853935D01*
X0004375535Y0000853935D01*
X0004364286Y0000851123D01*
X0004358662Y0000848311D01*
X0004355850Y0000845499D01*
X0004353038Y0000839875D01*
X0004353038Y0000800505D02*
X0004353038Y0000763947D01*
X0004375535Y0000783632D01*
X0004375535Y0000775195D01*
X0004378347Y0000769571D01*
X0004381159Y0000766759D01*
X0004386784Y0000763947D01*
X0004400844Y0000763947D01*
X0004406469Y0000766759D01*
X0004409281Y0000769571D01*
X0004412093Y0000775195D01*
X0004412093Y0000792068D01*
X0004409281Y0000797692D01*
X0004406469Y0000800505D01*
X0004353038Y0000727389D02*
X0004353038Y0000721764D01*
X0004355850Y0000716140D01*
X0004358662Y0000713328D01*
X0004364286Y0000710516D01*
X0004375535Y0000707704D01*
X0004389596Y0000707704D01*
X0004400844Y0000710516D01*
X0004406469Y0000713328D01*
X0004409281Y0000716140D01*
X0004412093Y0000721764D01*
X0004412093Y0000727389D01*
X0004409281Y0000733013D01*
X0004406469Y0000735825D01*
X0004400844Y0000738637D01*
X0004389596Y0000741450D01*
X0004375535Y0000741450D01*
X0004364286Y0000738637D01*
X0004358662Y0000735825D01*
X0004355850Y0000733013D01*
X0004353038Y0000727389D01*
X0004353038Y0000654273D02*
X0004353038Y0000682394D01*
X0004381159Y0000685207D01*
X0004378347Y0000682394D01*
X0004375535Y0000676770D01*
X0004375535Y0000662709D01*
X0004378347Y0000657085D01*
X0004381159Y0000654273D01*
X0004386784Y0000651461D01*
X0004400844Y0000651461D01*
X0004406469Y0000654273D01*
X0004409281Y0000657085D01*
X0004412093Y0000662709D01*
X0004412093Y0000676770D01*
X0004409281Y0000682394D01*
X0004406469Y0000685207D01*
D46*
X0004059251Y0000856628D02*
X0004019881Y0000856628D01*
X0004019881Y0000847254D01*
X0004021755Y0000841629D01*
X0004025505Y0000837880D01*
X0004029254Y0000836005D01*
X0004036754Y0000834130D01*
X0004042378Y0000834130D01*
X0004049877Y0000836005D01*
X0004053626Y0000837880D01*
X0004057376Y0000841629D01*
X0004059251Y0000847254D01*
X0004059251Y0000856628D01*
X0004044253Y0000817257D02*
X0004044253Y0000787261D01*
X0003952952Y0000852297D02*
X0003913581Y0000852297D01*
X0003913581Y0000842923D01*
X0003915456Y0000837299D01*
X0003919206Y0000833549D01*
X0003922955Y0000831674D01*
X0003930454Y0000829800D01*
X0003936079Y0000829800D01*
X0003943578Y0000831674D01*
X0003947327Y0000833549D01*
X0003951077Y0000837299D01*
X0003952952Y0000842923D01*
X0003952952Y0000852297D01*
X0003937953Y0000812927D02*
X0003937953Y0000782930D01*
X0003952952Y0000797929D02*
X0003922955Y0000797929D01*
X0003820968Y0000828319D02*
X0003819093Y0000832068D01*
X0003819093Y0000837692D01*
X0003820968Y0000843317D01*
X0003824718Y0000847066D01*
X0003828467Y0000848941D01*
X0003835966Y0000850816D01*
X0003841590Y0000850816D01*
X0003849090Y0000848941D01*
X0003852839Y0000847066D01*
X0003856589Y0000843317D01*
X0003858463Y0000837692D01*
X0003858463Y0000833943D01*
X0003856589Y0000828319D01*
X0003854714Y0000826444D01*
X0003841590Y0000826444D01*
X0003841590Y0000833943D01*
X0003858463Y0000809571D02*
X0003819093Y0000809571D01*
X0003858463Y0000787074D01*
X0003819093Y0000787074D01*
X0003858463Y0000768326D02*
X0003819093Y0000768326D01*
X0003819093Y0000758952D01*
X0003820968Y0000753328D01*
X0003824718Y0000749578D01*
X0003828467Y0000747704D01*
X0003835966Y0000745829D01*
X0003841590Y0000745829D01*
X0003849090Y0000747704D01*
X0003852839Y0000749578D01*
X0003856589Y0000753328D01*
X0003858463Y0000758952D01*
X0003858463Y0000768326D01*
X0004114369Y0000852766D02*
X0004153739Y0000839642D01*
X0004114369Y0000826519D01*
X0004153739Y0000813395D02*
X0004114369Y0000813395D01*
X0004129367Y0000813395D02*
X0004127492Y0000809646D01*
X0004127492Y0000802147D01*
X0004129367Y0000798397D01*
X0004131242Y0000796523D01*
X0004134991Y0000794648D01*
X0004146240Y0000794648D01*
X0004149989Y0000796523D01*
X0004151864Y0000798397D01*
X0004153739Y0000802147D01*
X0004153739Y0000809646D01*
X0004151864Y0000813395D01*
X0004127492Y0000760902D02*
X0004153739Y0000760902D01*
X0004127492Y0000777775D02*
X0004148115Y0000777775D01*
X0004151864Y0000775900D01*
X0004153739Y0000772151D01*
X0004153739Y0000766526D01*
X0004151864Y0000762777D01*
X0004149989Y0000760902D01*
X0004151864Y0000744029D02*
X0004153739Y0000740280D01*
X0004153739Y0000732781D01*
X0004151864Y0000729031D01*
X0004148115Y0000727156D01*
X0004146240Y0000727156D01*
X0004142490Y0000729031D01*
X0004140616Y0000732781D01*
X0004140616Y0000738405D01*
X0004138741Y0000742154D01*
X0004134991Y0000744029D01*
X0004133116Y0000744029D01*
X0004129367Y0000742154D01*
X0004127492Y0000738405D01*
X0004127492Y0000732781D01*
X0004129367Y0000729031D01*
D47*
G36*
X0004441377Y0000299015D02*
X0004271377Y0000299015D01*
X0004271377Y0000629015D01*
X0004441377Y0000629015D01*
X0004441377Y0000299015D01*
X0004441377Y0000299015D01*
G37*
X0004441377Y0000299015D02*
X0004271377Y0000299015D01*
X0004271377Y0000629015D01*
X0004441377Y0000629015D01*
X0004441377Y0000299015D01*
G04 next file*
G04 Gerber Fmt 4.6, Leading zero omitted, Abs format (unit mm)*
G04 Created by KiCad (PCBNEW 4.0.7) date Thursday, 08 March 2018 'PMt' 14:48:31*
G01G01*
G04 APERTURE LIST*
G04 APERTURE END LIST*
D48*
D49*
X0003540662Y0002025704D02*
X0003568784Y0002006019D01*
X0003540662Y0001991958D02*
X0003599717Y0001991958D01*
X0003599717Y0002014455D01*
X0003596905Y0002020079D01*
X0003594093Y0002022892D01*
X0003588469Y0002025704D01*
X0003580032Y0002025704D01*
X0003574408Y0002022892D01*
X0003571596Y0002020079D01*
X0003568784Y0002014455D01*
X0003568784Y0001991958D01*
X0003543474Y0002073510D02*
X0003540662Y0002067886D01*
X0003540662Y0002056637D01*
X0003543474Y0002051013D01*
X0003549098Y0002048201D01*
X0003571596Y0002048201D01*
X0003577220Y0002051013D01*
X0003580032Y0002056637D01*
X0003580032Y0002067886D01*
X0003577220Y0002073510D01*
X0003571596Y0002076322D01*
X0003565971Y0002076322D01*
X0003560347Y0002048201D01*
X0003580032Y0002096007D02*
X0003540662Y0002110068D01*
X0003580032Y0002124129D01*
X0003594093Y0002188808D02*
X0003596905Y0002191620D01*
X0003599717Y0002197245D01*
X0003599717Y0002211306D01*
X0003596905Y0002216930D01*
X0003594093Y0002219742D01*
X0003588469Y0002222554D01*
X0003582844Y0002222554D01*
X0003574408Y0002219742D01*
X0003540662Y0002185996D01*
X0003540662Y0002222554D01*
X0003599717Y0002259112D02*
X0003599717Y0002264736D01*
X0003596905Y0002270361D01*
X0003594093Y0002273173D01*
X0003588469Y0002275985D01*
X0003577220Y0002278797D01*
X0003563159Y0002278797D01*
X0003551911Y0002275985D01*
X0003546286Y0002273173D01*
X0003543474Y0002270361D01*
X0003540662Y0002264736D01*
X0003540662Y0002259112D01*
X0003543474Y0002253488D01*
X0003546286Y0002250676D01*
X0003551911Y0002247863D01*
X0003563159Y0002245051D01*
X0003577220Y0002245051D01*
X0003588469Y0002247863D01*
X0003594093Y0002250676D01*
X0003596905Y0002253488D01*
X0003599717Y0002259112D01*
X0003540662Y0002335040D02*
X0003540662Y0002301294D01*
X0003540662Y0002318167D02*
X0003599717Y0002318167D01*
X0003591281Y0002312543D01*
X0003585656Y0002306919D01*
X0003582844Y0002301294D01*
X0003574408Y0002368786D02*
X0003577220Y0002363161D01*
X0003580032Y0002360349D01*
X0003585656Y0002357537D01*
X0003588469Y0002357537D01*
X0003594093Y0002360349D01*
X0003596905Y0002363161D01*
X0003599717Y0002368786D01*
X0003599717Y0002380034D01*
X0003596905Y0002385659D01*
X0003594093Y0002388471D01*
X0003588469Y0002391283D01*
X0003585656Y0002391283D01*
X0003580032Y0002388471D01*
X0003577220Y0002385659D01*
X0003574408Y0002380034D01*
X0003574408Y0002368786D01*
X0003571596Y0002363161D01*
X0003568784Y0002360349D01*
X0003563159Y0002357537D01*
X0003551911Y0002357537D01*
X0003546286Y0002360349D01*
X0003543474Y0002363161D01*
X0003540662Y0002368786D01*
X0003540662Y0002380034D01*
X0003543474Y0002385659D01*
X0003546286Y0002388471D01*
X0003551911Y0002391283D01*
X0003563159Y0002391283D01*
X0003568784Y0002388471D01*
X0003571596Y0002385659D01*
X0003574408Y0002380034D01*
X0003599717Y0002427841D02*
X0003599717Y0002433465D01*
X0003596905Y0002439089D01*
X0003594093Y0002441902D01*
X0003588469Y0002444714D01*
X0003577220Y0002447526D01*
X0003563159Y0002447526D01*
X0003551911Y0002444714D01*
X0003546286Y0002441902D01*
X0003543474Y0002439089D01*
X0003540662Y0002433465D01*
X0003540662Y0002427841D01*
X0003543474Y0002422217D01*
X0003546286Y0002419404D01*
X0003551911Y0002416592D01*
X0003563159Y0002413780D01*
X0003577220Y0002413780D01*
X0003588469Y0002416592D01*
X0003594093Y0002419404D01*
X0003596905Y0002422217D01*
X0003599717Y0002427841D01*
X0003599717Y0002467211D02*
X0003599717Y0002503769D01*
X0003577220Y0002484084D01*
X0003577220Y0002492520D01*
X0003574408Y0002498145D01*
X0003571596Y0002500957D01*
X0003565971Y0002503769D01*
X0003551911Y0002503769D01*
X0003546286Y0002500957D01*
X0003543474Y0002498145D01*
X0003540662Y0002492520D01*
X0003540662Y0002475647D01*
X0003543474Y0002470023D01*
X0003546286Y0002467211D01*
X0003599717Y0002540327D02*
X0003599717Y0002545951D01*
X0003596905Y0002551575D01*
X0003594093Y0002554388D01*
X0003588469Y0002557200D01*
X0003577220Y0002560012D01*
X0003563159Y0002560012D01*
X0003551911Y0002557200D01*
X0003546286Y0002554388D01*
X0003543474Y0002551575D01*
X0003540662Y0002545951D01*
X0003540662Y0002540327D01*
X0003543474Y0002534702D01*
X0003546286Y0002531890D01*
X0003551911Y0002529078D01*
X0003563159Y0002526266D01*
X0003577220Y0002526266D01*
X0003588469Y0002529078D01*
X0003594093Y0002531890D01*
X0003596905Y0002534702D01*
X0003599717Y0002540327D01*
X0003599717Y0002613443D02*
X0003599717Y0002585321D01*
X0003571596Y0002582509D01*
X0003574408Y0002585321D01*
X0003577220Y0002590945D01*
X0003577220Y0002605006D01*
X0003574408Y0002610630D01*
X0003571596Y0002613443D01*
X0003565971Y0002616255D01*
X0003551911Y0002616255D01*
X0003546286Y0002613443D01*
X0003543474Y0002610630D01*
X0003540662Y0002605006D01*
X0003540662Y0002590945D01*
X0003543474Y0002585321D01*
X0003546286Y0002582509D01*
D50*
X0003893504Y0002411088D02*
X0003932874Y0002411088D01*
X0003932874Y0002420462D01*
X0003931000Y0002426086D01*
X0003927250Y0002429836D01*
X0003923500Y0002431710D01*
X0003916001Y0002433585D01*
X0003910377Y0002433585D01*
X0003902878Y0002431710D01*
X0003899128Y0002429836D01*
X0003895379Y0002426086D01*
X0003893504Y0002420462D01*
X0003893504Y0002411088D01*
X0003908502Y0002450458D02*
X0003908502Y0002480454D01*
X0003999803Y0002415419D02*
X0004039173Y0002415419D01*
X0004039173Y0002424793D01*
X0004037299Y0002430417D01*
X0004033549Y0002434166D01*
X0004029800Y0002436041D01*
X0004022301Y0002437916D01*
X0004016676Y0002437916D01*
X0004009177Y0002436041D01*
X0004005428Y0002434166D01*
X0004001678Y0002430417D01*
X0003999803Y0002424793D01*
X0003999803Y0002415419D01*
X0004014802Y0002454789D02*
X0004014802Y0002484785D01*
X0003999803Y0002469787D02*
X0004029800Y0002469787D01*
X0004131787Y0002439397D02*
X0004133662Y0002435647D01*
X0004133662Y0002430023D01*
X0004131787Y0002424399D01*
X0004128037Y0002420649D01*
X0004124288Y0002418775D01*
X0004116789Y0002416900D01*
X0004111164Y0002416900D01*
X0004103665Y0002418775D01*
X0004099916Y0002420649D01*
X0004096166Y0002424399D01*
X0004094292Y0002430023D01*
X0004094292Y0002433773D01*
X0004096166Y0002439397D01*
X0004098041Y0002441272D01*
X0004111164Y0002441272D01*
X0004111164Y0002433773D01*
X0004094292Y0002458145D02*
X0004133662Y0002458145D01*
X0004094292Y0002480642D01*
X0004133662Y0002480642D01*
X0004094292Y0002499389D02*
X0004133662Y0002499389D01*
X0004133662Y0002508763D01*
X0004131787Y0002514388D01*
X0004128037Y0002518137D01*
X0004124288Y0002520012D01*
X0004116789Y0002521887D01*
X0004111164Y0002521887D01*
X0004103665Y0002520012D01*
X0004099916Y0002518137D01*
X0004096166Y0002514388D01*
X0004094292Y0002508763D01*
X0004094292Y0002499389D01*
X0003838386Y0002414950D02*
X0003799016Y0002428073D01*
X0003838386Y0002441197D01*
X0003799016Y0002454320D02*
X0003838386Y0002454320D01*
X0003823388Y0002454320D02*
X0003825263Y0002458070D01*
X0003825263Y0002465569D01*
X0003823388Y0002469318D01*
X0003821513Y0002471193D01*
X0003817764Y0002473068D01*
X0003806515Y0002473068D01*
X0003802766Y0002471193D01*
X0003800891Y0002469318D01*
X0003799016Y0002465569D01*
X0003799016Y0002458070D01*
X0003800891Y0002454320D01*
X0003825263Y0002506814D02*
X0003799016Y0002506814D01*
X0003825263Y0002489941D02*
X0003804640Y0002489941D01*
X0003800891Y0002491815D01*
X0003799016Y0002495565D01*
X0003799016Y0002501189D01*
X0003800891Y0002504939D01*
X0003802766Y0002506814D01*
X0003800891Y0002523686D02*
X0003799016Y0002527436D01*
X0003799016Y0002534935D01*
X0003800891Y0002538685D01*
X0003804640Y0002540559D01*
X0003806515Y0002540559D01*
X0003810265Y0002538685D01*
X0003812139Y0002534935D01*
X0003812139Y0002529311D01*
X0003814014Y0002525561D01*
X0003817764Y0002523686D01*
X0003819638Y0002523686D01*
X0003823388Y0002525561D01*
X0003825263Y0002529311D01*
X0003825263Y0002534935D01*
X0003823388Y0002538685D01*
D51*
G36*
X0003511377Y0002968700D02*
X0003681377Y0002968700D01*
X0003681377Y0002638700D01*
X0003511377Y0002638700D01*
X0003511377Y0002968700D01*
X0003511377Y0002968700D01*
G37*
X0003511377Y0002968700D02*
X0003681377Y0002968700D01*
X0003681377Y0002638700D01*
X0003511377Y0002638700D01*
X0003511377Y0002968700D01*
G04 next file*
G04 Gerber Fmt 4.6, Leading zero omitted, Abs format (unit mm)*
G04 Created by KiCad (PCBNEW 4.0.7) date Thursday, 08 March 2018 'PMt' 14:48:31*
G01G01*
G04 APERTURE LIST*
G04 APERTURE END LIST*
D52*
D53*
X0005475085Y0001242012D02*
X0005446964Y0001261697D01*
X0005475085Y0001275758D02*
X0005416030Y0001275758D01*
X0005416030Y0001253260D01*
X0005418842Y0001247636D01*
X0005421654Y0001244824D01*
X0005427278Y0001242012D01*
X0005435715Y0001242012D01*
X0005441339Y0001244824D01*
X0005444151Y0001247636D01*
X0005446964Y0001253260D01*
X0005446964Y0001275758D01*
X0005472273Y0001194205D02*
X0005475085Y0001199830D01*
X0005475085Y0001211078D01*
X0005472273Y0001216702D01*
X0005466649Y0001219515D01*
X0005444151Y0001219515D01*
X0005438527Y0001216702D01*
X0005435715Y0001211078D01*
X0005435715Y0001199830D01*
X0005438527Y0001194205D01*
X0005444151Y0001191393D01*
X0005449776Y0001191393D01*
X0005455400Y0001219515D01*
X0005435715Y0001171708D02*
X0005475085Y0001157647D01*
X0005435715Y0001143587D01*
X0005421654Y0001078907D02*
X0005418842Y0001076095D01*
X0005416030Y0001070471D01*
X0005416030Y0001056410D01*
X0005418842Y0001050786D01*
X0005421654Y0001047974D01*
X0005427278Y0001045161D01*
X0005432903Y0001045161D01*
X0005441339Y0001047974D01*
X0005475085Y0001081719D01*
X0005475085Y0001045161D01*
X0005416030Y0001008604D02*
X0005416030Y0001002979D01*
X0005418842Y0000997355D01*
X0005421654Y0000994543D01*
X0005427278Y0000991731D01*
X0005438527Y0000988918D01*
X0005452588Y0000988918D01*
X0005463836Y0000991731D01*
X0005469461Y0000994543D01*
X0005472273Y0000997355D01*
X0005475085Y0001002979D01*
X0005475085Y0001008604D01*
X0005472273Y0001014228D01*
X0005469461Y0001017040D01*
X0005463836Y0001019852D01*
X0005452588Y0001022664D01*
X0005438527Y0001022664D01*
X0005427278Y0001019852D01*
X0005421654Y0001017040D01*
X0005418842Y0001014228D01*
X0005416030Y0001008604D01*
X0005475085Y0000932676D02*
X0005475085Y0000966421D01*
X0005475085Y0000949548D02*
X0005416030Y0000949548D01*
X0005424466Y0000955173D01*
X0005430091Y0000960797D01*
X0005432903Y0000966421D01*
X0005441339Y0000898930D02*
X0005438527Y0000904554D01*
X0005435715Y0000907366D01*
X0005430091Y0000910178D01*
X0005427278Y0000910178D01*
X0005421654Y0000907366D01*
X0005418842Y0000904554D01*
X0005416030Y0000898930D01*
X0005416030Y0000887681D01*
X0005418842Y0000882057D01*
X0005421654Y0000879245D01*
X0005427278Y0000876433D01*
X0005430091Y0000876433D01*
X0005435715Y0000879245D01*
X0005438527Y0000882057D01*
X0005441339Y0000887681D01*
X0005441339Y0000898930D01*
X0005444151Y0000904554D01*
X0005446964Y0000907366D01*
X0005452588Y0000910178D01*
X0005463836Y0000910178D01*
X0005469461Y0000907366D01*
X0005472273Y0000904554D01*
X0005475085Y0000898930D01*
X0005475085Y0000887681D01*
X0005472273Y0000882057D01*
X0005469461Y0000879245D01*
X0005463836Y0000876433D01*
X0005452588Y0000876433D01*
X0005446964Y0000879245D01*
X0005444151Y0000882057D01*
X0005441339Y0000887681D01*
X0005416030Y0000839875D02*
X0005416030Y0000834250D01*
X0005418842Y0000828626D01*
X0005421654Y0000825814D01*
X0005427278Y0000823002D01*
X0005438527Y0000820190D01*
X0005452588Y0000820190D01*
X0005463836Y0000823002D01*
X0005469461Y0000825814D01*
X0005472273Y0000828626D01*
X0005475085Y0000834250D01*
X0005475085Y0000839875D01*
X0005472273Y0000845499D01*
X0005469461Y0000848311D01*
X0005463836Y0000851123D01*
X0005452588Y0000853935D01*
X0005438527Y0000853935D01*
X0005427278Y0000851123D01*
X0005421654Y0000848311D01*
X0005418842Y0000845499D01*
X0005416030Y0000839875D01*
X0005416030Y0000800505D02*
X0005416030Y0000763947D01*
X0005438527Y0000783632D01*
X0005438527Y0000775195D01*
X0005441339Y0000769571D01*
X0005444151Y0000766759D01*
X0005449776Y0000763947D01*
X0005463836Y0000763947D01*
X0005469461Y0000766759D01*
X0005472273Y0000769571D01*
X0005475085Y0000775195D01*
X0005475085Y0000792068D01*
X0005472273Y0000797692D01*
X0005469461Y0000800505D01*
X0005416030Y0000727389D02*
X0005416030Y0000721764D01*
X0005418842Y0000716140D01*
X0005421654Y0000713328D01*
X0005427278Y0000710516D01*
X0005438527Y0000707704D01*
X0005452588Y0000707704D01*
X0005463836Y0000710516D01*
X0005469461Y0000713328D01*
X0005472273Y0000716140D01*
X0005475085Y0000721764D01*
X0005475085Y0000727389D01*
X0005472273Y0000733013D01*
X0005469461Y0000735825D01*
X0005463836Y0000738637D01*
X0005452588Y0000741450D01*
X0005438527Y0000741450D01*
X0005427278Y0000738637D01*
X0005421654Y0000735825D01*
X0005418842Y0000733013D01*
X0005416030Y0000727389D01*
X0005416030Y0000654273D02*
X0005416030Y0000682394D01*
X0005444151Y0000685207D01*
X0005441339Y0000682394D01*
X0005438527Y0000676770D01*
X0005438527Y0000662709D01*
X0005441339Y0000657085D01*
X0005444151Y0000654273D01*
X0005449776Y0000651461D01*
X0005463836Y0000651461D01*
X0005469461Y0000654273D01*
X0005472273Y0000657085D01*
X0005475085Y0000662709D01*
X0005475085Y0000676770D01*
X0005472273Y0000682394D01*
X0005469461Y0000685207D01*
D54*
X0005122243Y0000856628D02*
X0005082873Y0000856628D01*
X0005082873Y0000847254D01*
X0005084748Y0000841629D01*
X0005088497Y0000837880D01*
X0005092247Y0000836005D01*
X0005099746Y0000834130D01*
X0005105370Y0000834130D01*
X0005112869Y0000836005D01*
X0005116619Y0000837880D01*
X0005120368Y0000841629D01*
X0005122243Y0000847254D01*
X0005122243Y0000856628D01*
X0005107245Y0000817257D02*
X0005107245Y0000787261D01*
X0005015944Y0000852297D02*
X0004976574Y0000852297D01*
X0004976574Y0000842923D01*
X0004978448Y0000837299D01*
X0004982198Y0000833549D01*
X0004985947Y0000831674D01*
X0004993446Y0000829800D01*
X0004999071Y0000829800D01*
X0005006570Y0000831674D01*
X0005010319Y0000833549D01*
X0005014069Y0000837299D01*
X0005015944Y0000842923D01*
X0005015944Y0000852297D01*
X0005000946Y0000812927D02*
X0005000946Y0000782930D01*
X0005015944Y0000797929D02*
X0004985947Y0000797929D01*
X0004883960Y0000828319D02*
X0004882085Y0000832068D01*
X0004882085Y0000837692D01*
X0004883960Y0000843317D01*
X0004887710Y0000847066D01*
X0004891459Y0000848941D01*
X0004898958Y0000850816D01*
X0004904583Y0000850816D01*
X0004912082Y0000848941D01*
X0004915831Y0000847066D01*
X0004919581Y0000843317D01*
X0004921455Y0000837692D01*
X0004921455Y0000833943D01*
X0004919581Y0000828319D01*
X0004917706Y0000826444D01*
X0004904583Y0000826444D01*
X0004904583Y0000833943D01*
X0004921455Y0000809571D02*
X0004882085Y0000809571D01*
X0004921455Y0000787074D01*
X0004882085Y0000787074D01*
X0004921455Y0000768326D02*
X0004882085Y0000768326D01*
X0004882085Y0000758952D01*
X0004883960Y0000753328D01*
X0004887710Y0000749578D01*
X0004891459Y0000747704D01*
X0004898958Y0000745829D01*
X0004904583Y0000745829D01*
X0004912082Y0000747704D01*
X0004915831Y0000749578D01*
X0004919581Y0000753328D01*
X0004921455Y0000758952D01*
X0004921455Y0000768326D01*
X0005177361Y0000852766D02*
X0005216731Y0000839642D01*
X0005177361Y0000826519D01*
X0005216731Y0000813395D02*
X0005177361Y0000813395D01*
X0005192359Y0000813395D02*
X0005190484Y0000809646D01*
X0005190484Y0000802147D01*
X0005192359Y0000798397D01*
X0005194234Y0000796523D01*
X0005197983Y0000794648D01*
X0005209232Y0000794648D01*
X0005212981Y0000796523D01*
X0005214856Y0000798397D01*
X0005216731Y0000802147D01*
X0005216731Y0000809646D01*
X0005214856Y0000813395D01*
X0005190484Y0000760902D02*
X0005216731Y0000760902D01*
X0005190484Y0000777775D02*
X0005211107Y0000777775D01*
X0005214856Y0000775900D01*
X0005216731Y0000772151D01*
X0005216731Y0000766526D01*
X0005214856Y0000762777D01*
X0005212981Y0000760902D01*
X0005214856Y0000744029D02*
X0005216731Y0000740280D01*
X0005216731Y0000732781D01*
X0005214856Y0000729031D01*
X0005211107Y0000727156D01*
X0005209232Y0000727156D01*
X0005205482Y0000729031D01*
X0005203608Y0000732781D01*
X0005203608Y0000738405D01*
X0005201733Y0000742154D01*
X0005197983Y0000744029D01*
X0005196109Y0000744029D01*
X0005192359Y0000742154D01*
X0005190484Y0000738405D01*
X0005190484Y0000732781D01*
X0005192359Y0000729031D01*
D55*
G36*
X0005504370Y0000299015D02*
X0005334370Y0000299015D01*
X0005334370Y0000629015D01*
X0005504370Y0000629015D01*
X0005504370Y0000299015D01*
X0005504370Y0000299015D01*
G37*
X0005504370Y0000299015D02*
X0005334370Y0000299015D01*
X0005334370Y0000629015D01*
X0005504370Y0000629015D01*
X0005504370Y0000299015D01*
G04 next file*
G04 Gerber Fmt 4.6, Leading zero omitted, Abs format (unit mm)*
G04 Created by KiCad (PCBNEW 4.0.7) date Thursday, 08 March 2018 'PMt' 14:48:31*
G01G01*
G04 APERTURE LIST*
G04 APERTURE END LIST*
D56*
D57*
X0004603654Y0002025704D02*
X0004631776Y0002006019D01*
X0004603654Y0001991958D02*
X0004662709Y0001991958D01*
X0004662709Y0002014455D01*
X0004659897Y0002020079D01*
X0004657085Y0002022892D01*
X0004651461Y0002025704D01*
X0004643024Y0002025704D01*
X0004637400Y0002022892D01*
X0004634588Y0002020079D01*
X0004631776Y0002014455D01*
X0004631776Y0001991958D01*
X0004606466Y0002073510D02*
X0004603654Y0002067886D01*
X0004603654Y0002056637D01*
X0004606466Y0002051013D01*
X0004612091Y0002048201D01*
X0004634588Y0002048201D01*
X0004640212Y0002051013D01*
X0004643024Y0002056637D01*
X0004643024Y0002067886D01*
X0004640212Y0002073510D01*
X0004634588Y0002076322D01*
X0004628963Y0002076322D01*
X0004623339Y0002048201D01*
X0004643024Y0002096007D02*
X0004603654Y0002110068D01*
X0004643024Y0002124129D01*
X0004657085Y0002188808D02*
X0004659897Y0002191620D01*
X0004662709Y0002197245D01*
X0004662709Y0002211306D01*
X0004659897Y0002216930D01*
X0004657085Y0002219742D01*
X0004651461Y0002222554D01*
X0004645836Y0002222554D01*
X0004637400Y0002219742D01*
X0004603654Y0002185996D01*
X0004603654Y0002222554D01*
X0004662709Y0002259112D02*
X0004662709Y0002264736D01*
X0004659897Y0002270361D01*
X0004657085Y0002273173D01*
X0004651461Y0002275985D01*
X0004640212Y0002278797D01*
X0004626151Y0002278797D01*
X0004614903Y0002275985D01*
X0004609278Y0002273173D01*
X0004606466Y0002270361D01*
X0004603654Y0002264736D01*
X0004603654Y0002259112D01*
X0004606466Y0002253488D01*
X0004609278Y0002250676D01*
X0004614903Y0002247863D01*
X0004626151Y0002245051D01*
X0004640212Y0002245051D01*
X0004651461Y0002247863D01*
X0004657085Y0002250676D01*
X0004659897Y0002253488D01*
X0004662709Y0002259112D01*
X0004603654Y0002335040D02*
X0004603654Y0002301294D01*
X0004603654Y0002318167D02*
X0004662709Y0002318167D01*
X0004654273Y0002312543D01*
X0004648649Y0002306919D01*
X0004645836Y0002301294D01*
X0004637400Y0002368786D02*
X0004640212Y0002363161D01*
X0004643024Y0002360349D01*
X0004648649Y0002357537D01*
X0004651461Y0002357537D01*
X0004657085Y0002360349D01*
X0004659897Y0002363161D01*
X0004662709Y0002368786D01*
X0004662709Y0002380034D01*
X0004659897Y0002385659D01*
X0004657085Y0002388471D01*
X0004651461Y0002391283D01*
X0004648649Y0002391283D01*
X0004643024Y0002388471D01*
X0004640212Y0002385659D01*
X0004637400Y0002380034D01*
X0004637400Y0002368786D01*
X0004634588Y0002363161D01*
X0004631776Y0002360349D01*
X0004626151Y0002357537D01*
X0004614903Y0002357537D01*
X0004609278Y0002360349D01*
X0004606466Y0002363161D01*
X0004603654Y0002368786D01*
X0004603654Y0002380034D01*
X0004606466Y0002385659D01*
X0004609278Y0002388471D01*
X0004614903Y0002391283D01*
X0004626151Y0002391283D01*
X0004631776Y0002388471D01*
X0004634588Y0002385659D01*
X0004637400Y0002380034D01*
X0004662709Y0002427841D02*
X0004662709Y0002433465D01*
X0004659897Y0002439089D01*
X0004657085Y0002441902D01*
X0004651461Y0002444714D01*
X0004640212Y0002447526D01*
X0004626151Y0002447526D01*
X0004614903Y0002444714D01*
X0004609278Y0002441902D01*
X0004606466Y0002439089D01*
X0004603654Y0002433465D01*
X0004603654Y0002427841D01*
X0004606466Y0002422217D01*
X0004609278Y0002419404D01*
X0004614903Y0002416592D01*
X0004626151Y0002413780D01*
X0004640212Y0002413780D01*
X0004651461Y0002416592D01*
X0004657085Y0002419404D01*
X0004659897Y0002422217D01*
X0004662709Y0002427841D01*
X0004662709Y0002467211D02*
X0004662709Y0002503769D01*
X0004640212Y0002484084D01*
X0004640212Y0002492520D01*
X0004637400Y0002498145D01*
X0004634588Y0002500957D01*
X0004628963Y0002503769D01*
X0004614903Y0002503769D01*
X0004609278Y0002500957D01*
X0004606466Y0002498145D01*
X0004603654Y0002492520D01*
X0004603654Y0002475647D01*
X0004606466Y0002470023D01*
X0004609278Y0002467211D01*
X0004662709Y0002540327D02*
X0004662709Y0002545951D01*
X0004659897Y0002551575D01*
X0004657085Y0002554388D01*
X0004651461Y0002557200D01*
X0004640212Y0002560012D01*
X0004626151Y0002560012D01*
X0004614903Y0002557200D01*
X0004609278Y0002554388D01*
X0004606466Y0002551575D01*
X0004603654Y0002545951D01*
X0004603654Y0002540327D01*
X0004606466Y0002534702D01*
X0004609278Y0002531890D01*
X0004614903Y0002529078D01*
X0004626151Y0002526266D01*
X0004640212Y0002526266D01*
X0004651461Y0002529078D01*
X0004657085Y0002531890D01*
X0004659897Y0002534702D01*
X0004662709Y0002540327D01*
X0004662709Y0002613443D02*
X0004662709Y0002585321D01*
X0004634588Y0002582509D01*
X0004637400Y0002585321D01*
X0004640212Y0002590945D01*
X0004640212Y0002605006D01*
X0004637400Y0002610630D01*
X0004634588Y0002613443D01*
X0004628964Y0002616255D01*
X0004614903Y0002616255D01*
X0004609278Y0002613443D01*
X0004606466Y0002610630D01*
X0004603654Y0002605006D01*
X0004603654Y0002590945D01*
X0004606466Y0002585321D01*
X0004609278Y0002582509D01*
D58*
X0004956496Y0002411088D02*
X0004995866Y0002411088D01*
X0004995866Y0002420462D01*
X0004993992Y0002426086D01*
X0004990242Y0002429836D01*
X0004986493Y0002431710D01*
X0004978994Y0002433585D01*
X0004973369Y0002433585D01*
X0004965870Y0002431710D01*
X0004962121Y0002429836D01*
X0004958371Y0002426086D01*
X0004956496Y0002420462D01*
X0004956496Y0002411088D01*
X0004971494Y0002450458D02*
X0004971494Y0002480454D01*
X0005062796Y0002415419D02*
X0005102166Y0002415419D01*
X0005102166Y0002424793D01*
X0005100291Y0002430417D01*
X0005096541Y0002434166D01*
X0005092792Y0002436041D01*
X0005085293Y0002437916D01*
X0005079668Y0002437916D01*
X0005072169Y0002436041D01*
X0005068420Y0002434166D01*
X0005064670Y0002430417D01*
X0005062796Y0002424793D01*
X0005062796Y0002415419D01*
X0005077794Y0002454789D02*
X0005077794Y0002484785D01*
X0005062796Y0002469787D02*
X0005092792Y0002469787D01*
X0005194779Y0002439397D02*
X0005196654Y0002435647D01*
X0005196654Y0002430023D01*
X0005194779Y0002424399D01*
X0005191030Y0002420649D01*
X0005187280Y0002418775D01*
X0005179781Y0002416900D01*
X0005174157Y0002416900D01*
X0005166658Y0002418775D01*
X0005162908Y0002420649D01*
X0005159158Y0002424399D01*
X0005157284Y0002430023D01*
X0005157284Y0002433773D01*
X0005159158Y0002439397D01*
X0005161033Y0002441272D01*
X0005174157Y0002441272D01*
X0005174157Y0002433773D01*
X0005157284Y0002458145D02*
X0005196654Y0002458145D01*
X0005157284Y0002480642D01*
X0005196654Y0002480642D01*
X0005157284Y0002499389D02*
X0005196654Y0002499389D01*
X0005196654Y0002508763D01*
X0005194779Y0002514388D01*
X0005191030Y0002518137D01*
X0005187280Y0002520012D01*
X0005179781Y0002521887D01*
X0005174157Y0002521887D01*
X0005166658Y0002520012D01*
X0005162908Y0002518137D01*
X0005159158Y0002514388D01*
X0005157284Y0002508763D01*
X0005157284Y0002499389D01*
X0004901378Y0002414950D02*
X0004862008Y0002428073D01*
X0004901378Y0002441197D01*
X0004862008Y0002454320D02*
X0004901378Y0002454320D01*
X0004886380Y0002454320D02*
X0004888255Y0002458070D01*
X0004888255Y0002465569D01*
X0004886380Y0002469318D01*
X0004884505Y0002471193D01*
X0004880756Y0002473068D01*
X0004869507Y0002473068D01*
X0004865758Y0002471193D01*
X0004863883Y0002469318D01*
X0004862008Y0002465569D01*
X0004862008Y0002458070D01*
X0004863883Y0002454320D01*
X0004888255Y0002506814D02*
X0004862008Y0002506814D01*
X0004888255Y0002489941D02*
X0004867632Y0002489941D01*
X0004863883Y0002491815D01*
X0004862008Y0002495565D01*
X0004862008Y0002501189D01*
X0004863883Y0002504939D01*
X0004865758Y0002506814D01*
X0004863883Y0002523686D02*
X0004862008Y0002527436D01*
X0004862008Y0002534935D01*
X0004863883Y0002538685D01*
X0004867632Y0002540559D01*
X0004869507Y0002540559D01*
X0004873257Y0002538685D01*
X0004875131Y0002534935D01*
X0004875131Y0002529311D01*
X0004877006Y0002525561D01*
X0004880756Y0002523686D01*
X0004882631Y0002523686D01*
X0004886380Y0002525561D01*
X0004888255Y0002529311D01*
X0004888255Y0002534935D01*
X0004886380Y0002538685D01*
D59*
G36*
X0004574370Y0002968700D02*
X0004744370Y0002968700D01*
X0004744370Y0002638700D01*
X0004574370Y0002638700D01*
X0004574370Y0002968700D01*
X0004574370Y0002968700D01*
G37*
X0004574370Y0002968700D02*
X0004744370Y0002968700D01*
X0004744370Y0002638700D01*
X0004574370Y0002638700D01*
X0004574370Y0002968700D01*
M02*