%
M48
METRIC,000.000
T01C0.50
%
T01
X032702Y017384
X032702Y018384
X032702Y019384
X032702Y020384
X032702Y021384
X032702Y022384
X034902Y022109
X034902Y021109
X034902Y020109
X034902Y019109
X034902Y018109
X021852Y035149
X020852Y035149
X019852Y035149
X018852Y035149
X017852Y035149
X016852Y035149
X017286Y037149
X018286Y037149
X019286Y037149
X020286Y037149
X017083Y047849
X018083Y047849
X019083Y047849
X020083Y047849
X021083Y047849
X021740Y045849
X020740Y045849
X019740Y045849
X018740Y045849
X017740Y045849
X016740Y045849
X034297Y061705
X034297Y060705
X034297Y059705
X034297Y058705
X034297Y057705
X032097Y057825
X032097Y058825
X032097Y059825
X032097Y060825
X032097Y061825
X032097Y062825
X059097Y057825
X059097Y058825
X059097Y059825
X059097Y060825
X059097Y061825
X059097Y062825
X061297Y061705
X061297Y060705
X061297Y059705
X061297Y058705
X061297Y057705
X059702Y017384
X059702Y018384
X059702Y019384
X059702Y020384
X059702Y021384
X059702Y022384
X061902Y022109
X061902Y021109
X061902Y020109
X061902Y019109
X061902Y018109
X086097Y057825
X086097Y058825
X086097Y059825
X086097Y060825
X086097Y061825
X086097Y062825
X088297Y061705
X088297Y060705
X088297Y059705
X088297Y058705
X088297Y057705
X086702Y017384
X086702Y018384
X086702Y019384
X086702Y020384
X086702Y021384
X086702Y022384
X088902Y022109
X088902Y021109
X088902Y020109
X088902Y019109
X088902Y018109
X113097Y057825
X113097Y058825
X113097Y059825
X113097Y060825
X113097Y061825
X113097Y062825
X115297Y062705
X115297Y061705
X115297Y060705
X115297Y059705
X115297Y058705
X115297Y057705
X113702Y017384
X113702Y018384
X113702Y019384
X113702Y020384
X113702Y021384
X113702Y022384
X115902Y022109
X115902Y021109
X115902Y020109
X115902Y019109
X115902Y018109
X140097Y057825
X140097Y058825
X140097Y059825
X140097Y060825
X140097Y061825
X140097Y062825
X142097Y057549
X142097Y058549
X142097Y059549
X142097Y060549
X142097Y061549
X142097Y062549
X140702Y017384
X140702Y018384
X140702Y019384
X140702Y020384
X140702Y021384
X140702Y022384
X142702Y017858
X142702Y018858
X142702Y019858
X142702Y020858
X142702Y021858
X142702Y022858
X044083Y047849
X045083Y047849
X046083Y047849
X047083Y047849
X048083Y047849
X048740Y045849
X047740Y045849
X046740Y045849
X045740Y045849
X044740Y045849
X043740Y045849
X048852Y035149
X047852Y035149
X046852Y035149
X045852Y035149
X044852Y035149
X043852Y035149
X044286Y037149
X045286Y037149
X046286Y037149
X047286Y037149
X072083Y047849
X073083Y047849
X074083Y047849
X075083Y047849
X076083Y047849
X076740Y045849
X075740Y045849
X074740Y045849
X073740Y045849
X072740Y045849
X071740Y045849
X076852Y035149
X075852Y035149
X074852Y035149
X073852Y035149
X072852Y035149
X071852Y035149
X072286Y037149
X073286Y037149
X074286Y037149
X075286Y037149
X098083Y047849
X099083Y047849
X100083Y047849
X101083Y047849
X102083Y047849
X102740Y045849
X101740Y045849
X100740Y045849
X099740Y045849
X098740Y045849
X097740Y045849
X102852Y035149
X101852Y035149
X100852Y035149
X099852Y035149
X098852Y035149
X097852Y035149
X098286Y037149
X099286Y037149
X100286Y037149
X101286Y037149
X126083Y047849
X127083Y047849
X128083Y047849
X129083Y047849
X130083Y047849
X130740Y045849
X129740Y045849
X128740Y045849
X127740Y045849
X126740Y045849
X125740Y045849
X130852Y035149
X129852Y035149
X128852Y035149
X127852Y035149
X126852Y035149
X125852Y035149
X126286Y037149
X127286Y037149
X128286Y037149
X129286Y037149
X007297Y061705
X007297Y060705
X007297Y059705
X007297Y058705
X007297Y057705
X005297Y062195
X005297Y061195
X005297Y060195
X005297Y059195
X005297Y058195
X005297Y057195
X007902Y022109
X007902Y021109
X007902Y020109
X007902Y019109
X007902Y018109
X005902Y022396
X005902Y021396
X005902Y020396
X005902Y019396
X005902Y018396
X005902Y017396
X017427Y006527
X018427Y006527
X019427Y006527
X020427Y006527
X021427Y006527
X022427Y006527
X018033Y004527
X019033Y004527
X020033Y004527
X021033Y004527
X022033Y004527
X045427Y006527
X046427Y006527
X047427Y006527
X048427Y006527
X049427Y006527
X050427Y006527
X046033Y004527
X047033Y004527
X048033Y004527
X049033Y004527
X050033Y004527
X072427Y006527
X073427Y006527
X074427Y006527
X075427Y006527
X076427Y006527
X077427Y006527
X073033Y004527
X074033Y004527
X075033Y004527
X076033Y004527
X077033Y004527
X098427Y006527
X099427Y006527
X100427Y006527
X101427Y006527
X102427Y006527
X103427Y006527
X099033Y004527
X100033Y004527
X101033Y004527
X102033Y004527
X103033Y004527
X127427Y006527
X128427Y006527
X129427Y006527
X130427Y006527
X131427Y006527
X132427Y006527
X128033Y004527
X129033Y004527
X130033Y004527
X131033Y004527
X132033Y004527
X130637Y076472
X129637Y076472
X128637Y076472
X127637Y076472
X126637Y076472
X131020Y078472
X130020Y078472
X129020Y078472
X128020Y078472
X127020Y078472
X100637Y076472
X099637Y076472
X098637Y076472
X097637Y076472
X096637Y076472
X101020Y078472
X100020Y078472
X099020Y078472
X098020Y078472
X097020Y078472
X072637Y076472
X071637Y076472
X070637Y076472
X069637Y076472
X068637Y076472
X073020Y078472
X072020Y078472
X071020Y078472
X070020Y078472
X069020Y078472
X045637Y076472
X044637Y076472
X043637Y076472
X042637Y076472
X041637Y076472
X046020Y078472
X045020Y078472
X044020Y078472
X043020Y078472
X042020Y078472
X018637Y076472
X017637Y076472
X016637Y076472
X015637Y076472
X014637Y076472
X019020Y078472
X018020Y078472
X017020Y078472
X016020Y078472
X015020Y078472
M30