%MOIN*%
%OFA0B0*%
%FSLAX46Y46*%
%IPPOS*%
%LPD*%
%ADD10C,0.0039370078740157488*%
%ADD11C,0.005905511811023622*%
%ADD12C,0.011811023622047244*%
%ADD23C,0.0039370078740157488*%
%ADD24C,0.005905511811023622*%
%ADD25C,0.011811023622047244*%
%ADD26C,0.0039370078740157488*%
%ADD27C,0.005905511811023622*%
%ADD28C,0.011811023622047244*%
%ADD29C,0.0039370078740157488*%
%ADD30C,0.005905511811023622*%
%ADD31C,0.011811023622047244*%
%ADD32C,0.0039370078740157488*%
%ADD33C,0.005905511811023622*%
%ADD34C,0.011811023622047244*%
%ADD35C,0.0039370078740157488*%
%ADD36C,0.005905511811023622*%
%ADD37C,0.011811023622047244*%
%ADD38C,0.0039370078740157488*%
%ADD39C,0.005905511811023622*%
%ADD40C,0.011811023622047244*%
%ADD41C,0.0039370078740157488*%
%ADD42C,0.005905511811023622*%
%ADD43C,0.011811023622047244*%
%ADD44C,0.0039370078740157488*%
%ADD45C,0.005905511811023622*%
%ADD46C,0.011811023622047244*%
%ADD47C,0.0039370078740157488*%
%ADD48C,0.005905511811023622*%
%ADD49C,0.011811023622047244*%
G01G01*
D10*
D11*
X0000914960Y0001346220D02*
G75*
G03G03X0001134960Y0001566220J0000220000D01X0001134960Y0001566220J0000220000D01*
G01G01*
D12*
X0000711947Y0000805960D02*
X0000717571Y0000808772D01*
X0000726007Y0000808772D01*
X0000734444Y0000805960D01*
X0000740068Y0000800336D01*
X0000742880Y0000794712D01*
X0000745692Y0000783463D01*
X0000745692Y0000775027D01*
X0000742880Y0000763778D01*
X0000740068Y0000758154D01*
X0000734444Y0000752529D01*
X0000726007Y0000749717D01*
X0000720383Y0000749717D01*
X0000711947Y0000752529D01*
X0000709134Y0000755341D01*
X0000709134Y0000775027D01*
X0000720383Y0000775027D01*
X0000683825Y0000749717D02*
X0000683825Y0000808772D01*
X0000650079Y0000749717D01*
X0000650079Y0000808772D01*
X0000621958Y0000749717D02*
X0000621958Y0000808772D01*
X0000607897Y0000808772D01*
X0000599461Y0000805960D01*
X0000593836Y0000800336D01*
X0000591024Y0000794712D01*
X0000588212Y0000783463D01*
X0000588212Y0000775027D01*
X0000591024Y0000763778D01*
X0000593836Y0000758154D01*
X0000599461Y0000752529D01*
X0000607897Y0000749717D01*
X0000621958Y0000749717D01*
D11*
X0000318527Y0000239031D02*
X0000318527Y0001343362D01*
X0001275220Y0000239031D02*
X0000318527Y0000239031D01*
X0001275220Y0001756748D02*
X0001275220Y0000239031D01*
X0001133488Y0001756748D02*
X0001275220Y0001756748D01*
X0001134960Y0001566220D02*
X0001133488Y0001756748D01*
X0000314960Y0001346220D02*
X0000914960Y0001346220D01*
G04 next file*
G04 Gerber Fmt 4.6, Leading zero omitted, Abs format (unit mm)*
G04 Created by KiCad (PCBNEW 4.0.7) date Monday, 05 March 2018 'PMt' 22:45:11*
G01G01*
G04 APERTURE LIST*
G04 APERTURE END LIST*
D23*
D24*
X0001722834Y0001882125D02*
G75*
G03G03X0001502834Y0001662125J-0000220000D01X0001502834Y0001662125J-0000220000D01*
G01G01*
D25*
X0001925848Y0002422385D02*
X0001920223Y0002419573D01*
X0001911787Y0002419573D01*
X0001903350Y0002422385D01*
X0001897726Y0002428010D01*
X0001894914Y0002433634D01*
X0001892102Y0002444883D01*
X0001892102Y0002453319D01*
X0001894914Y0002464568D01*
X0001897726Y0002470192D01*
X0001903350Y0002475816D01*
X0001911787Y0002478628D01*
X0001917411Y0002478628D01*
X0001925848Y0002475816D01*
X0001928660Y0002473004D01*
X0001928660Y0002453319D01*
X0001917411Y0002453319D01*
X0001953969Y0002478628D02*
X0001953969Y0002419573D01*
X0001987715Y0002478628D01*
X0001987715Y0002419573D01*
X0002015836Y0002478628D02*
X0002015836Y0002419573D01*
X0002029897Y0002419573D01*
X0002038334Y0002422385D01*
X0002043958Y0002428010D01*
X0002046770Y0002433634D01*
X0002049582Y0002444883D01*
X0002049582Y0002453319D01*
X0002046770Y0002464568D01*
X0002043958Y0002470192D01*
X0002038334Y0002475816D01*
X0002029897Y0002478628D01*
X0002015836Y0002478628D01*
D24*
X0002319267Y0002989314D02*
X0002319267Y0001884984D01*
X0001362574Y0002989314D02*
X0002319267Y0002989314D01*
X0001362574Y0001471598D02*
X0001362574Y0002989314D01*
X0001504307Y0001471598D02*
X0001362574Y0001471598D01*
X0001502834Y0001662125D02*
X0001504307Y0001471598D01*
X0002322834Y0001882125D02*
X0001722834Y0001882125D01*
G04 next file*
G04 Gerber Fmt 4.6, Leading zero omitted, Abs format (unit mm)*
G04 Created by KiCad (PCBNEW 4.0.7) date Monday, 05 March 2018 'PMt' 22:45:11*
G01G01*
G04 APERTURE LIST*
G04 APERTURE END LIST*
D26*
D27*
X0001977952Y0001346220D02*
G75*
G03G03X0002197952Y0001566220J0000220000D01X0002197952Y0001566220J0000220000D01*
G01G01*
D28*
X0001774939Y0000805960D02*
X0001780563Y0000808772D01*
X0001789000Y0000808772D01*
X0001797436Y0000805960D01*
X0001803060Y0000800336D01*
X0001805872Y0000794712D01*
X0001808685Y0000783463D01*
X0001808685Y0000775027D01*
X0001805872Y0000763778D01*
X0001803060Y0000758154D01*
X0001797436Y0000752529D01*
X0001789000Y0000749717D01*
X0001783375Y0000749717D01*
X0001774939Y0000752529D01*
X0001772127Y0000755341D01*
X0001772127Y0000775027D01*
X0001783375Y0000775027D01*
X0001746817Y0000749717D02*
X0001746817Y0000808772D01*
X0001713071Y0000749717D01*
X0001713071Y0000808772D01*
X0001684950Y0000749717D02*
X0001684950Y0000808772D01*
X0001670889Y0000808772D01*
X0001662453Y0000805960D01*
X0001656828Y0000800336D01*
X0001654016Y0000794712D01*
X0001651204Y0000783463D01*
X0001651204Y0000775027D01*
X0001654016Y0000763778D01*
X0001656828Y0000758154D01*
X0001662453Y0000752529D01*
X0001670889Y0000749717D01*
X0001684950Y0000749717D01*
D27*
X0001381519Y0000239031D02*
X0001381519Y0001343362D01*
X0002338212Y0000239031D02*
X0001381519Y0000239031D01*
X0002338212Y0001756748D02*
X0002338212Y0000239031D01*
X0002196480Y0001756748D02*
X0002338212Y0001756748D01*
X0002197952Y0001566220D02*
X0002196480Y0001756748D01*
X0001377952Y0001346220D02*
X0001977952Y0001346220D01*
G04 next file*
G04 Gerber Fmt 4.6, Leading zero omitted, Abs format (unit mm)*
G04 Created by KiCad (PCBNEW 4.0.7) date Monday, 05 March 2018 'PMt' 22:45:11*
G01G01*
G04 APERTURE LIST*
G04 APERTURE END LIST*
D29*
D30*
X0000659842Y0001882125D02*
G75*
G03G03X0000439842Y0001662125J-0000220000D01X0000439842Y0001662125J-0000220000D01*
G01G01*
D31*
X0000862856Y0002422385D02*
X0000857231Y0002419573D01*
X0000848795Y0002419573D01*
X0000840358Y0002422385D01*
X0000834734Y0002428010D01*
X0000831922Y0002433634D01*
X0000829110Y0002444883D01*
X0000829110Y0002453319D01*
X0000831922Y0002464568D01*
X0000834734Y0002470192D01*
X0000840358Y0002475816D01*
X0000848795Y0002478628D01*
X0000854419Y0002478628D01*
X0000862856Y0002475816D01*
X0000865668Y0002473004D01*
X0000865668Y0002453319D01*
X0000854419Y0002453319D01*
X0000890977Y0002478628D02*
X0000890977Y0002419573D01*
X0000924723Y0002478628D01*
X0000924723Y0002419573D01*
X0000952844Y0002478628D02*
X0000952844Y0002419573D01*
X0000966905Y0002419573D01*
X0000975341Y0002422385D01*
X0000980966Y0002428010D01*
X0000983778Y0002433634D01*
X0000986590Y0002444883D01*
X0000986590Y0002453319D01*
X0000983778Y0002464568D01*
X0000980966Y0002470192D01*
X0000975341Y0002475816D01*
X0000966905Y0002478628D01*
X0000952844Y0002478628D01*
D30*
X0001256275Y0002989314D02*
X0001256275Y0001884984D01*
X0000299582Y0002989314D02*
X0001256275Y0002989314D01*
X0000299582Y0001471598D02*
X0000299582Y0002989314D01*
X0000441314Y0001471598D02*
X0000299582Y0001471598D01*
X0000439842Y0001662125D02*
X0000441314Y0001471598D01*
X0001259842Y0001882125D02*
X0000659842Y0001882125D01*
G04 next file*
G04 Gerber Fmt 4.6, Leading zero omitted, Abs format (unit mm)*
G04 Created by KiCad (PCBNEW 4.0.7) date Monday, 05 March 2018 'PMt' 22:45:11*
G01G01*
G04 APERTURE LIST*
G04 APERTURE END LIST*
D32*
D33*
X0002785826Y0001882125D02*
G75*
G03G03X0002565826Y0001662125J-0000220000D01X0002565826Y0001662125J-0000220000D01*
G01G01*
D34*
X0002988840Y0002422385D02*
X0002983215Y0002419573D01*
X0002974779Y0002419573D01*
X0002966343Y0002422385D01*
X0002960718Y0002428010D01*
X0002957906Y0002433634D01*
X0002955094Y0002444883D01*
X0002955094Y0002453319D01*
X0002957906Y0002464568D01*
X0002960718Y0002470192D01*
X0002966343Y0002475816D01*
X0002974779Y0002478628D01*
X0002980403Y0002478628D01*
X0002988840Y0002475816D01*
X0002991652Y0002473004D01*
X0002991652Y0002453319D01*
X0002980403Y0002453319D01*
X0003016961Y0002478628D02*
X0003016961Y0002419573D01*
X0003050707Y0002478628D01*
X0003050707Y0002419573D01*
X0003078829Y0002478628D02*
X0003078829Y0002419573D01*
X0003092889Y0002419573D01*
X0003101326Y0002422385D01*
X0003106950Y0002428010D01*
X0003109762Y0002433634D01*
X0003112574Y0002444883D01*
X0003112574Y0002453319D01*
X0003109762Y0002464568D01*
X0003106950Y0002470192D01*
X0003101326Y0002475816D01*
X0003092889Y0002478628D01*
X0003078829Y0002478628D01*
D33*
X0003382259Y0002989314D02*
X0003382259Y0001884984D01*
X0002425566Y0002989314D02*
X0003382259Y0002989314D01*
X0002425566Y0001471598D02*
X0002425566Y0002989314D01*
X0002567299Y0001471598D02*
X0002425566Y0001471598D01*
X0002565826Y0001662125D02*
X0002567299Y0001471598D01*
X0003385826Y0001882125D02*
X0002785826Y0001882125D01*
G04 next file*
G04 Gerber Fmt 4.6, Leading zero omitted, Abs format (unit mm)*
G04 Created by KiCad (PCBNEW 4.0.7) date Monday, 05 March 2018 'PMt' 22:45:11*
G01G01*
G04 APERTURE LIST*
G04 APERTURE END LIST*
D35*
D36*
X0003040944Y0001346220D02*
G75*
G03G03X0003260944Y0001566220J0000220000D01X0003260944Y0001566220J0000220000D01*
G01G01*
D37*
X0002837931Y0000805960D02*
X0002843555Y0000808772D01*
X0002851992Y0000808772D01*
X0002860428Y0000805960D01*
X0002866052Y0000800336D01*
X0002868865Y0000794712D01*
X0002871677Y0000783463D01*
X0002871677Y0000775027D01*
X0002868865Y0000763778D01*
X0002866052Y0000758154D01*
X0002860428Y0000752529D01*
X0002851992Y0000749717D01*
X0002846367Y0000749717D01*
X0002837931Y0000752529D01*
X0002835119Y0000755341D01*
X0002835119Y0000775027D01*
X0002846367Y0000775027D01*
X0002809809Y0000749717D02*
X0002809809Y0000808772D01*
X0002776064Y0000749717D01*
X0002776064Y0000808772D01*
X0002747942Y0000749717D02*
X0002747942Y0000808772D01*
X0002733881Y0000808772D01*
X0002725445Y0000805960D01*
X0002719821Y0000800336D01*
X0002717008Y0000794712D01*
X0002714196Y0000783463D01*
X0002714196Y0000775027D01*
X0002717008Y0000763778D01*
X0002719821Y0000758154D01*
X0002725445Y0000752529D01*
X0002733881Y0000749717D01*
X0002747942Y0000749717D01*
D36*
X0002444511Y0000239031D02*
X0002444511Y0001343362D01*
X0003401204Y0000239031D02*
X0002444511Y0000239031D01*
X0003401204Y0001756748D02*
X0003401204Y0000239031D01*
X0003259472Y0001756748D02*
X0003401204Y0001756748D01*
X0003260944Y0001566220D02*
X0003259472Y0001756748D01*
X0002440944Y0001346220D02*
X0003040944Y0001346220D01*
G04 next file*
G04 Gerber Fmt 4.6, Leading zero omitted, Abs format (unit mm)*
G04 Created by KiCad (PCBNEW 4.0.7) date Monday, 05 March 2018 'PMt' 22:45:11*
G01G01*
G04 APERTURE LIST*
G04 APERTURE END LIST*
D38*
D39*
X0004103937Y0001346220D02*
G75*
G03G03X0004323937Y0001566220J0000220000D01X0004323937Y0001566220J0000220000D01*
G01G01*
D40*
X0003900923Y0000805960D02*
X0003906547Y0000808772D01*
X0003914984Y0000808772D01*
X0003923420Y0000805960D01*
X0003929045Y0000800336D01*
X0003931857Y0000794712D01*
X0003934669Y0000783463D01*
X0003934669Y0000775027D01*
X0003931857Y0000763778D01*
X0003929045Y0000758154D01*
X0003923420Y0000752529D01*
X0003914984Y0000749717D01*
X0003909359Y0000749717D01*
X0003900923Y0000752529D01*
X0003898111Y0000755341D01*
X0003898111Y0000775027D01*
X0003909359Y0000775027D01*
X0003872802Y0000749717D02*
X0003872802Y0000808772D01*
X0003839056Y0000749717D01*
X0003839056Y0000808772D01*
X0003810934Y0000749717D02*
X0003810934Y0000808772D01*
X0003796873Y0000808772D01*
X0003788437Y0000805960D01*
X0003782813Y0000800336D01*
X0003780001Y0000794712D01*
X0003777188Y0000783463D01*
X0003777188Y0000775027D01*
X0003780001Y0000763778D01*
X0003782813Y0000758154D01*
X0003788437Y0000752529D01*
X0003796873Y0000749717D01*
X0003810934Y0000749717D01*
D39*
X0003507503Y0000239031D02*
X0003507503Y0001343362D01*
X0004464196Y0000239031D02*
X0003507503Y0000239031D01*
X0004464196Y0001756748D02*
X0004464196Y0000239031D01*
X0004322464Y0001756748D02*
X0004464196Y0001756748D01*
X0004323937Y0001566220D02*
X0004322464Y0001756748D01*
X0003503937Y0001346220D02*
X0004103937Y0001346220D01*
G04 next file*
G04 Gerber Fmt 4.6, Leading zero omitted, Abs format (unit mm)*
G04 Created by KiCad (PCBNEW 4.0.7) date Monday, 05 March 2018 'PMt' 22:45:11*
G01G01*
G04 APERTURE LIST*
G04 APERTURE END LIST*
D41*
D42*
X0003848818Y0001882125D02*
G75*
G03G03X0003628818Y0001662125J-0000220000D01X0003628818Y0001662125J-0000220000D01*
G01G01*
D43*
X0004051832Y0002422385D02*
X0004046208Y0002419573D01*
X0004037771Y0002419573D01*
X0004029335Y0002422385D01*
X0004023710Y0002428010D01*
X0004020898Y0002433634D01*
X0004018086Y0002444883D01*
X0004018086Y0002453319D01*
X0004020898Y0002464568D01*
X0004023710Y0002470192D01*
X0004029335Y0002475816D01*
X0004037771Y0002478628D01*
X0004043395Y0002478628D01*
X0004051832Y0002475816D01*
X0004054644Y0002473004D01*
X0004054644Y0002453319D01*
X0004043395Y0002453319D01*
X0004079953Y0002478628D02*
X0004079953Y0002419573D01*
X0004113699Y0002478628D01*
X0004113699Y0002419573D01*
X0004141821Y0002478628D02*
X0004141821Y0002419573D01*
X0004155881Y0002419573D01*
X0004164318Y0002422385D01*
X0004169942Y0002428010D01*
X0004172754Y0002433634D01*
X0004175566Y0002444883D01*
X0004175566Y0002453319D01*
X0004172754Y0002464568D01*
X0004169942Y0002470192D01*
X0004164318Y0002475816D01*
X0004155881Y0002478628D01*
X0004141821Y0002478628D01*
D42*
X0004445251Y0002989314D02*
X0004445251Y0001884984D01*
X0003488559Y0002989314D02*
X0004445251Y0002989314D01*
X0003488559Y0001471598D02*
X0003488559Y0002989314D01*
X0003630291Y0001471598D02*
X0003488559Y0001471598D01*
X0003628818Y0001662125D02*
X0003630291Y0001471598D01*
X0004448818Y0001882125D02*
X0003848818Y0001882125D01*
G04 next file*
G04 Gerber Fmt 4.6, Leading zero omitted, Abs format (unit mm)*
G04 Created by KiCad (PCBNEW 4.0.7) date Monday, 05 March 2018 'PMt' 22:45:11*
G01G01*
G04 APERTURE LIST*
G04 APERTURE END LIST*
D44*
D45*
X0005166929Y0001346220D02*
G75*
G03G03X0005386929Y0001566220J0000220000D01X0005386929Y0001566220J0000220000D01*
G01G01*
D46*
X0004963915Y0000805960D02*
X0004969539Y0000808772D01*
X0004977976Y0000808772D01*
X0004986412Y0000805960D01*
X0004992037Y0000800336D01*
X0004994849Y0000794712D01*
X0004997661Y0000783463D01*
X0004997661Y0000775027D01*
X0004994849Y0000763778D01*
X0004992037Y0000758154D01*
X0004986412Y0000752529D01*
X0004977976Y0000749717D01*
X0004972352Y0000749717D01*
X0004963915Y0000752529D01*
X0004961103Y0000755341D01*
X0004961103Y0000775027D01*
X0004972352Y0000775027D01*
X0004935794Y0000749717D02*
X0004935794Y0000808772D01*
X0004902048Y0000749717D01*
X0004902048Y0000808772D01*
X0004873926Y0000749717D02*
X0004873926Y0000808772D01*
X0004859866Y0000808772D01*
X0004851429Y0000805960D01*
X0004845805Y0000800336D01*
X0004842993Y0000794712D01*
X0004840181Y0000783463D01*
X0004840181Y0000775027D01*
X0004842993Y0000763778D01*
X0004845805Y0000758154D01*
X0004851429Y0000752529D01*
X0004859866Y0000749717D01*
X0004873926Y0000749717D01*
D45*
X0004570496Y0000239031D02*
X0004570496Y0001343362D01*
X0005527188Y0000239031D02*
X0004570496Y0000239031D01*
X0005527188Y0001756748D02*
X0005527188Y0000239031D01*
X0005385456Y0001756748D02*
X0005527188Y0001756748D01*
X0005386929Y0001566220D02*
X0005385456Y0001756748D01*
X0004566929Y0001346220D02*
X0005166929Y0001346220D01*
G04 next file*
G04 Gerber Fmt 4.6, Leading zero omitted, Abs format (unit mm)*
G04 Created by KiCad (PCBNEW 4.0.7) date Monday, 05 March 2018 'PMt' 22:45:11*
G01G01*
G04 APERTURE LIST*
G04 APERTURE END LIST*
D47*
D48*
X0004911810Y0001882125D02*
G75*
G03G03X0004691811Y0001662125J-0000220000D01X0004691811Y0001662125J-0000220000D01*
G01G01*
D49*
X0005114824Y0002422385D02*
X0005109200Y0002419573D01*
X0005100763Y0002419573D01*
X0005092327Y0002422385D01*
X0005086703Y0002428010D01*
X0005083890Y0002433634D01*
X0005081078Y0002444883D01*
X0005081078Y0002453319D01*
X0005083890Y0002464568D01*
X0005086703Y0002470192D01*
X0005092327Y0002475816D01*
X0005100763Y0002478628D01*
X0005106388Y0002478628D01*
X0005114824Y0002475816D01*
X0005117636Y0002473004D01*
X0005117636Y0002453319D01*
X0005106388Y0002453319D01*
X0005142946Y0002478628D02*
X0005142946Y0002419573D01*
X0005176691Y0002478628D01*
X0005176691Y0002419573D01*
X0005204813Y0002478628D02*
X0005204813Y0002419573D01*
X0005218874Y0002419573D01*
X0005227310Y0002422385D01*
X0005232934Y0002428010D01*
X0005235746Y0002433634D01*
X0005238559Y0002444883D01*
X0005238559Y0002453319D01*
X0005235746Y0002464568D01*
X0005232934Y0002470192D01*
X0005227310Y0002475816D01*
X0005218874Y0002478628D01*
X0005204813Y0002478628D01*
D48*
X0005508244Y0002989314D02*
X0005508244Y0001884984D01*
X0004551551Y0002989314D02*
X0005508244Y0002989314D01*
X0004551551Y0001471598D02*
X0004551551Y0002989314D01*
X0004693283Y0001471598D02*
X0004551551Y0001471598D01*
X0004691811Y0001662125D02*
X0004693283Y0001471598D01*
X0005511811Y0001882125D02*
X0004911810Y0001882125D01*
M02*