%MOIN*%
%OFA0B0*%
%FSLAX46Y46*%
%IPPOS*%
%LPD*%
%ADD10C,0.0039370078740157488*%
%ADD11C,0.011811023622047244*%
%ADD12C,0.005905511811023622*%
%ADD13C,0.00984251968503937*%
%ADD14C,0.01*%
%ADD25C,0.0039370078740157488*%
%ADD26C,0.011811023622047244*%
%ADD27C,0.005905511811023622*%
%ADD28C,0.00984251968503937*%
%ADD29C,0.01*%
%ADD30C,0.0039370078740157488*%
%ADD31C,0.011811023622047244*%
%ADD32C,0.005905511811023622*%
%ADD33C,0.00984251968503937*%
%ADD34C,0.01*%
%ADD35C,0.0039370078740157488*%
%ADD36C,0.011811023622047244*%
%ADD37C,0.005905511811023622*%
%ADD38C,0.00984251968503937*%
%ADD39C,0.01*%
%ADD40C,0.0039370078740157488*%
%ADD41C,0.011811023622047244*%
%ADD42C,0.005905511811023622*%
%ADD43C,0.00984251968503937*%
%ADD44C,0.01*%
%ADD45C,0.0039370078740157488*%
%ADD46C,0.011811023622047244*%
%ADD47C,0.005905511811023622*%
%ADD48C,0.00984251968503937*%
%ADD49C,0.01*%
%ADD50C,0.0039370078740157488*%
%ADD51C,0.011811023622047244*%
%ADD52C,0.005905511811023622*%
%ADD53C,0.00984251968503937*%
%ADD54C,0.01*%
%ADD55C,0.0039370078740157488*%
%ADD56C,0.011811023622047244*%
%ADD57C,0.005905511811023622*%
%ADD58C,0.00984251968503937*%
%ADD59C,0.01*%
%ADD60C,0.0039370078740157488*%
%ADD61C,0.011811023622047244*%
%ADD62C,0.005905511811023622*%
%ADD63C,0.00984251968503937*%
%ADD64C,0.01*%
%ADD65C,0.0039370078740157488*%
%ADD66C,0.011811023622047244*%
%ADD67C,0.005905511811023622*%
%ADD68C,0.00984251968503937*%
%ADD69C,0.01*%
G01G01*
D10*
D11*
X0001220676Y0001214217D02*
X0001192554Y0001233902D01*
X0001220676Y0001247962D02*
X0001161620Y0001247962D01*
X0001161620Y0001225465D01*
X0001164433Y0001219841D01*
X0001167245Y0001217029D01*
X0001172869Y0001214217D01*
X0001181305Y0001214217D01*
X0001186930Y0001217029D01*
X0001189742Y0001219841D01*
X0001192554Y0001225465D01*
X0001192554Y0001247962D01*
X0001217863Y0001166410D02*
X0001220676Y0001172034D01*
X0001220676Y0001183283D01*
X0001217863Y0001188907D01*
X0001212239Y0001191719D01*
X0001189742Y0001191719D01*
X0001184118Y0001188907D01*
X0001181305Y0001183283D01*
X0001181305Y0001172034D01*
X0001184118Y0001166410D01*
X0001189742Y0001163598D01*
X0001195366Y0001163598D01*
X0001200990Y0001191719D01*
X0001181305Y0001143913D02*
X0001220676Y0001129852D01*
X0001181305Y0001115791D01*
X0001167245Y0001051112D02*
X0001164433Y0001048300D01*
X0001161620Y0001042675D01*
X0001161620Y0001028615D01*
X0001164433Y0001022990D01*
X0001167245Y0001020178D01*
X0001172869Y0001017366D01*
X0001178493Y0001017366D01*
X0001186930Y0001020178D01*
X0001220676Y0001053924D01*
X0001220676Y0001017366D01*
X0001161620Y0000980808D02*
X0001161620Y0000975184D01*
X0001164433Y0000969560D01*
X0001167245Y0000966747D01*
X0001172869Y0000963935D01*
X0001184118Y0000961123D01*
X0001198178Y0000961123D01*
X0001209427Y0000963935D01*
X0001215051Y0000966747D01*
X0001217863Y0000969560D01*
X0001220676Y0000975184D01*
X0001220676Y0000980808D01*
X0001217863Y0000986433D01*
X0001215051Y0000989245D01*
X0001209427Y0000992057D01*
X0001198178Y0000994869D01*
X0001184118Y0000994869D01*
X0001172869Y0000992057D01*
X0001167245Y0000989245D01*
X0001164433Y0000986433D01*
X0001161620Y0000980808D01*
X0001220676Y0000904880D02*
X0001220676Y0000938626D01*
X0001220676Y0000921753D02*
X0001161620Y0000921753D01*
X0001170057Y0000927377D01*
X0001175681Y0000933002D01*
X0001178493Y0000938626D01*
X0001186930Y0000871134D02*
X0001184118Y0000876759D01*
X0001181305Y0000879571D01*
X0001175681Y0000882383D01*
X0001172869Y0000882383D01*
X0001167245Y0000879571D01*
X0001164433Y0000876759D01*
X0001161620Y0000871134D01*
X0001161620Y0000859886D01*
X0001164433Y0000854262D01*
X0001167245Y0000851449D01*
X0001172869Y0000848637D01*
X0001175681Y0000848637D01*
X0001181305Y0000851449D01*
X0001184118Y0000854262D01*
X0001186930Y0000859886D01*
X0001186930Y0000871134D01*
X0001189742Y0000876759D01*
X0001192554Y0000879571D01*
X0001198178Y0000882383D01*
X0001209427Y0000882383D01*
X0001215051Y0000879571D01*
X0001217863Y0000876759D01*
X0001220676Y0000871134D01*
X0001220676Y0000859886D01*
X0001217863Y0000854262D01*
X0001215051Y0000851449D01*
X0001209427Y0000848637D01*
X0001198178Y0000848637D01*
X0001192554Y0000851449D01*
X0001189742Y0000854262D01*
X0001186930Y0000859886D01*
X0001161620Y0000812079D02*
X0001161620Y0000806455D01*
X0001164433Y0000800831D01*
X0001167245Y0000798019D01*
X0001172869Y0000795206D01*
X0001184118Y0000792394D01*
X0001198178Y0000792394D01*
X0001209427Y0000795206D01*
X0001215051Y0000798019D01*
X0001217863Y0000800831D01*
X0001220676Y0000806455D01*
X0001220676Y0000812079D01*
X0001217863Y0000817704D01*
X0001215051Y0000820516D01*
X0001209427Y0000823328D01*
X0001198178Y0000826140D01*
X0001184118Y0000826140D01*
X0001172869Y0000823328D01*
X0001167245Y0000820516D01*
X0001164433Y0000817704D01*
X0001161620Y0000812079D01*
X0001161620Y0000772709D02*
X0001161620Y0000736151D01*
X0001184118Y0000755836D01*
X0001184118Y0000747400D01*
X0001186930Y0000741776D01*
X0001189742Y0000738964D01*
X0001195366Y0000736151D01*
X0001209427Y0000736151D01*
X0001215051Y0000738964D01*
X0001217863Y0000741776D01*
X0001220676Y0000747400D01*
X0001220676Y0000764273D01*
X0001217863Y0000769897D01*
X0001215051Y0000772709D01*
X0001161620Y0000699593D02*
X0001161620Y0000693969D01*
X0001164433Y0000688345D01*
X0001167245Y0000685533D01*
X0001172869Y0000682721D01*
X0001184118Y0000679908D01*
X0001198178Y0000679908D01*
X0001209427Y0000682721D01*
X0001215051Y0000685533D01*
X0001217863Y0000688345D01*
X0001220676Y0000693969D01*
X0001220676Y0000699593D01*
X0001217863Y0000705218D01*
X0001215051Y0000708030D01*
X0001209427Y0000710842D01*
X0001198178Y0000713654D01*
X0001184118Y0000713654D01*
X0001172869Y0000710842D01*
X0001167245Y0000708030D01*
X0001164433Y0000705218D01*
X0001161620Y0000699593D01*
X0001161620Y0000626478D02*
X0001161620Y0000654599D01*
X0001189742Y0000657411D01*
X0001186930Y0000654599D01*
X0001184118Y0000648975D01*
X0001184118Y0000634914D01*
X0001186930Y0000629290D01*
X0001189742Y0000626478D01*
X0001195366Y0000623665D01*
X0001209427Y0000623665D01*
X0001215051Y0000626478D01*
X0001217863Y0000629290D01*
X0001220676Y0000634914D01*
X0001220676Y0000648975D01*
X0001217863Y0000654599D01*
X0001215051Y0000657411D01*
D12*
X0000914960Y0001346220D02*
G75*
G03G03X0001134960Y0001566220J0000220000D01X0001134960Y0001566220J0000220000D01*
G01G01*
D13*
X0000867833Y0000828832D02*
X0000828463Y0000828832D01*
X0000828463Y0000819458D01*
X0000830338Y0000813834D01*
X0000834088Y0000810085D01*
X0000837837Y0000808210D01*
X0000845336Y0000806335D01*
X0000850961Y0000806335D01*
X0000858460Y0000808210D01*
X0000862209Y0000810085D01*
X0000865959Y0000813834D01*
X0000867833Y0000819458D01*
X0000867833Y0000828832D01*
X0000852835Y0000789462D02*
X0000852835Y0000759466D01*
X0000761534Y0000824502D02*
X0000722164Y0000824502D01*
X0000722164Y0000815128D01*
X0000724039Y0000809503D01*
X0000727788Y0000805754D01*
X0000731538Y0000803879D01*
X0000739037Y0000802004D01*
X0000744661Y0000802004D01*
X0000752160Y0000803879D01*
X0000755910Y0000805754D01*
X0000759659Y0000809503D01*
X0000761534Y0000815128D01*
X0000761534Y0000824502D01*
X0000746536Y0000785131D02*
X0000746536Y0000755135D01*
X0000761534Y0000770133D02*
X0000731538Y0000770133D01*
X0000629551Y0000800523D02*
X0000627676Y0000804273D01*
X0000627676Y0000809897D01*
X0000629551Y0000815521D01*
X0000633300Y0000819271D01*
X0000637050Y0000821146D01*
X0000644549Y0000823020D01*
X0000650173Y0000823020D01*
X0000657672Y0000821146D01*
X0000661422Y0000819271D01*
X0000665171Y0000815521D01*
X0000667046Y0000809897D01*
X0000667046Y0000806148D01*
X0000665171Y0000800523D01*
X0000663296Y0000798649D01*
X0000650173Y0000798649D01*
X0000650173Y0000806148D01*
X0000667046Y0000781776D02*
X0000627676Y0000781776D01*
X0000667046Y0000759278D01*
X0000627676Y0000759278D01*
X0000667046Y0000740531D02*
X0000627676Y0000740531D01*
X0000627676Y0000731157D01*
X0000629551Y0000725533D01*
X0000633300Y0000721783D01*
X0000637050Y0000719908D01*
X0000644549Y0000718034D01*
X0000650173Y0000718034D01*
X0000657672Y0000719908D01*
X0000661422Y0000721783D01*
X0000665171Y0000725533D01*
X0000667046Y0000731157D01*
X0000667046Y0000740531D01*
X0000922952Y0000824970D02*
X0000962322Y0000811847D01*
X0000922952Y0000798724D01*
X0000962322Y0000785600D02*
X0000922952Y0000785600D01*
X0000937950Y0000785600D02*
X0000936075Y0000781851D01*
X0000936075Y0000774352D01*
X0000937950Y0000770602D01*
X0000939824Y0000768727D01*
X0000943574Y0000766852D01*
X0000954823Y0000766852D01*
X0000958572Y0000768727D01*
X0000960447Y0000770602D01*
X0000962322Y0000774352D01*
X0000962322Y0000781851D01*
X0000960447Y0000785600D01*
X0000936075Y0000733107D02*
X0000962322Y0000733107D01*
X0000936075Y0000749980D02*
X0000956697Y0000749980D01*
X0000960447Y0000748105D01*
X0000962322Y0000744355D01*
X0000962322Y0000738731D01*
X0000960447Y0000734981D01*
X0000958572Y0000733107D01*
X0000960447Y0000716234D02*
X0000962322Y0000712484D01*
X0000962322Y0000704985D01*
X0000960447Y0000701236D01*
X0000956697Y0000699361D01*
X0000954823Y0000699361D01*
X0000951073Y0000701236D01*
X0000949198Y0000704985D01*
X0000949198Y0000710610D01*
X0000947323Y0000714359D01*
X0000943574Y0000716234D01*
X0000941699Y0000716234D01*
X0000937950Y0000714359D01*
X0000936075Y0000710610D01*
X0000936075Y0000704985D01*
X0000937950Y0000701236D01*
D12*
X0000318527Y0000239031D02*
X0000318527Y0001343362D01*
X0001275220Y0000239031D02*
X0000318527Y0000239031D01*
X0001275220Y0001756748D02*
X0001275220Y0000239031D01*
X0001133488Y0001756748D02*
X0001275220Y0001756748D01*
X0001134960Y0001566220D02*
X0001133488Y0001756748D01*
X0000314960Y0001346220D02*
X0000914960Y0001346220D01*
D14*
G36*
X0001249960Y0000271220D02*
X0001079960Y0000271220D01*
X0001079960Y0000601220D01*
X0001249960Y0000601220D01*
X0001249960Y0000271220D01*
X0001249960Y0000271220D01*
G37*
X0001249960Y0000271220D02*
X0001079960Y0000271220D01*
X0001079960Y0000601220D01*
X0001249960Y0000601220D01*
X0001249960Y0000271220D01*
G04 next file*
G04 Gerber Fmt 4.6, Leading zero omitted, Abs format (unit mm)*
G04 Created by KiCad (PCBNEW 4.0.7) date Tuesday, 06 March 2018 'PMt' 15:17:41*
G01G01*
G04 APERTURE LIST*
G04 APERTURE END LIST*
D25*
D26*
X0001417119Y0002014129D02*
X0001445240Y0001994444D01*
X0001417119Y0001980383D02*
X0001476174Y0001980383D01*
X0001476174Y0002002880D01*
X0001473362Y0002008505D01*
X0001470550Y0002011317D01*
X0001464925Y0002014129D01*
X0001456489Y0002014129D01*
X0001450864Y0002011317D01*
X0001448052Y0002008505D01*
X0001445240Y0002002880D01*
X0001445240Y0001980383D01*
X0001419931Y0002061935D02*
X0001417119Y0002056311D01*
X0001417119Y0002045063D01*
X0001419931Y0002039438D01*
X0001425555Y0002036626D01*
X0001448052Y0002036626D01*
X0001453677Y0002039438D01*
X0001456489Y0002045063D01*
X0001456489Y0002056311D01*
X0001453677Y0002061935D01*
X0001448052Y0002064748D01*
X0001442428Y0002064748D01*
X0001436804Y0002036626D01*
X0001456489Y0002084433D02*
X0001417119Y0002098493D01*
X0001456489Y0002112554D01*
X0001470550Y0002177234D02*
X0001473362Y0002180046D01*
X0001476174Y0002185670D01*
X0001476174Y0002199731D01*
X0001473362Y0002205355D01*
X0001470550Y0002208167D01*
X0001464925Y0002210979D01*
X0001459301Y0002210979D01*
X0001450864Y0002208167D01*
X0001417119Y0002174421D01*
X0001417119Y0002210979D01*
X0001476174Y0002247537D02*
X0001476174Y0002253162D01*
X0001473362Y0002258786D01*
X0001470550Y0002261598D01*
X0001464925Y0002264410D01*
X0001453677Y0002267222D01*
X0001439616Y0002267222D01*
X0001428367Y0002264410D01*
X0001422743Y0002261598D01*
X0001419931Y0002258786D01*
X0001417119Y0002253162D01*
X0001417119Y0002247537D01*
X0001419931Y0002241913D01*
X0001422743Y0002239101D01*
X0001428367Y0002236289D01*
X0001439616Y0002233476D01*
X0001453677Y0002233476D01*
X0001464925Y0002236289D01*
X0001470550Y0002239101D01*
X0001473362Y0002241913D01*
X0001476174Y0002247537D01*
X0001417119Y0002323465D02*
X0001417119Y0002289719D01*
X0001417119Y0002306592D02*
X0001476174Y0002306592D01*
X0001467737Y0002300968D01*
X0001462113Y0002295344D01*
X0001459301Y0002289719D01*
X0001450864Y0002357211D02*
X0001453677Y0002351587D01*
X0001456489Y0002348775D01*
X0001462113Y0002345962D01*
X0001464925Y0002345962D01*
X0001470550Y0002348775D01*
X0001473362Y0002351587D01*
X0001476174Y0002357211D01*
X0001476174Y0002368460D01*
X0001473362Y0002374084D01*
X0001470550Y0002376896D01*
X0001464925Y0002379708D01*
X0001462113Y0002379708D01*
X0001456489Y0002376896D01*
X0001453677Y0002374084D01*
X0001450864Y0002368460D01*
X0001450864Y0002357211D01*
X0001448052Y0002351587D01*
X0001445240Y0002348775D01*
X0001439616Y0002345962D01*
X0001428367Y0002345962D01*
X0001422743Y0002348775D01*
X0001419931Y0002351587D01*
X0001417119Y0002357211D01*
X0001417119Y0002368460D01*
X0001419931Y0002374084D01*
X0001422743Y0002376896D01*
X0001428367Y0002379708D01*
X0001439616Y0002379708D01*
X0001445240Y0002376896D01*
X0001448052Y0002374084D01*
X0001450864Y0002368460D01*
X0001476174Y0002416266D02*
X0001476174Y0002421890D01*
X0001473362Y0002427515D01*
X0001470550Y0002430327D01*
X0001464925Y0002433139D01*
X0001453677Y0002435951D01*
X0001439616Y0002435951D01*
X0001428367Y0002433139D01*
X0001422743Y0002430327D01*
X0001419931Y0002427515D01*
X0001417119Y0002421890D01*
X0001417119Y0002416266D01*
X0001419931Y0002410642D01*
X0001422743Y0002407830D01*
X0001428367Y0002405017D01*
X0001439616Y0002402205D01*
X0001453677Y0002402205D01*
X0001464925Y0002405017D01*
X0001470550Y0002407830D01*
X0001473362Y0002410642D01*
X0001476174Y0002416266D01*
X0001476174Y0002455636D02*
X0001476174Y0002492194D01*
X0001453677Y0002472509D01*
X0001453677Y0002480945D01*
X0001450865Y0002486570D01*
X0001448052Y0002489382D01*
X0001442428Y0002492194D01*
X0001428367Y0002492194D01*
X0001422743Y0002489382D01*
X0001419931Y0002486570D01*
X0001417119Y0002480945D01*
X0001417119Y0002464073D01*
X0001419931Y0002458448D01*
X0001422743Y0002455636D01*
X0001476174Y0002528752D02*
X0001476174Y0002534376D01*
X0001473362Y0002540001D01*
X0001470550Y0002542813D01*
X0001464925Y0002545625D01*
X0001453677Y0002548437D01*
X0001439616Y0002548437D01*
X0001428367Y0002545625D01*
X0001422743Y0002542813D01*
X0001419931Y0002540001D01*
X0001417119Y0002534376D01*
X0001417119Y0002528752D01*
X0001419931Y0002523128D01*
X0001422743Y0002520316D01*
X0001428367Y0002517503D01*
X0001439616Y0002514691D01*
X0001453677Y0002514691D01*
X0001464925Y0002517503D01*
X0001470550Y0002520316D01*
X0001473362Y0002523128D01*
X0001476174Y0002528752D01*
X0001476174Y0002601868D02*
X0001476174Y0002573746D01*
X0001448052Y0002570934D01*
X0001450865Y0002573746D01*
X0001453677Y0002579371D01*
X0001453677Y0002593431D01*
X0001450865Y0002599056D01*
X0001448052Y0002601868D01*
X0001442428Y0002604680D01*
X0001428367Y0002604680D01*
X0001422743Y0002601868D01*
X0001419931Y0002599056D01*
X0001417119Y0002593431D01*
X0001417119Y0002579371D01*
X0001419931Y0002573746D01*
X0001422743Y0002570934D01*
D27*
X0001722834Y0001882125D02*
G75*
G03G03X0001502834Y0001662125J-0000220000D01X0001502834Y0001662125J-0000220000D01*
G01G01*
D28*
X0001769961Y0002399513D02*
X0001809331Y0002399513D01*
X0001809331Y0002408887D01*
X0001807456Y0002414511D01*
X0001803707Y0002418261D01*
X0001799957Y0002420136D01*
X0001792458Y0002422010D01*
X0001786834Y0002422010D01*
X0001779335Y0002420136D01*
X0001775585Y0002418261D01*
X0001771836Y0002414511D01*
X0001769961Y0002408887D01*
X0001769961Y0002399513D01*
X0001784959Y0002438883D02*
X0001784959Y0002468880D01*
X0001876260Y0002403844D02*
X0001915630Y0002403844D01*
X0001915630Y0002413218D01*
X0001913755Y0002418842D01*
X0001910006Y0002422592D01*
X0001906256Y0002424466D01*
X0001898757Y0002426341D01*
X0001893133Y0002426341D01*
X0001885634Y0002424466D01*
X0001881884Y0002422592D01*
X0001878135Y0002418842D01*
X0001876260Y0002413218D01*
X0001876260Y0002403844D01*
X0001891258Y0002443214D02*
X0001891258Y0002473210D01*
X0001876260Y0002458212D02*
X0001906256Y0002458212D01*
X0002008244Y0002427822D02*
X0002010118Y0002424073D01*
X0002010118Y0002418448D01*
X0002008244Y0002412824D01*
X0002004494Y0002409075D01*
X0002000745Y0002407200D01*
X0001993245Y0002405325D01*
X0001987621Y0002405325D01*
X0001980122Y0002407200D01*
X0001976373Y0002409075D01*
X0001972623Y0002412824D01*
X0001970748Y0002418448D01*
X0001970748Y0002422198D01*
X0001972623Y0002427822D01*
X0001974498Y0002429697D01*
X0001987621Y0002429697D01*
X0001987621Y0002422198D01*
X0001970748Y0002446570D02*
X0002010118Y0002446570D01*
X0001970748Y0002469067D01*
X0002010118Y0002469067D01*
X0001970748Y0002487815D02*
X0002010118Y0002487815D01*
X0002010118Y0002497188D01*
X0002008244Y0002502813D01*
X0002004494Y0002506562D01*
X0002000745Y0002508437D01*
X0001993245Y0002510312D01*
X0001987621Y0002510312D01*
X0001980122Y0002508437D01*
X0001976373Y0002506562D01*
X0001972623Y0002502813D01*
X0001970748Y0002497188D01*
X0001970748Y0002487815D01*
X0001714843Y0002403375D02*
X0001675473Y0002416499D01*
X0001714843Y0002429622D01*
X0001675473Y0002442745D02*
X0001714843Y0002442745D01*
X0001699845Y0002442745D02*
X0001701719Y0002446495D01*
X0001701719Y0002453994D01*
X0001699845Y0002457743D01*
X0001697970Y0002459618D01*
X0001694220Y0002461493D01*
X0001682972Y0002461493D01*
X0001679222Y0002459618D01*
X0001677347Y0002457743D01*
X0001675473Y0002453994D01*
X0001675473Y0002446495D01*
X0001677347Y0002442745D01*
X0001701719Y0002495239D02*
X0001675473Y0002495239D01*
X0001701719Y0002478366D02*
X0001681097Y0002478366D01*
X0001677347Y0002480241D01*
X0001675473Y0002483990D01*
X0001675473Y0002489614D01*
X0001677347Y0002493364D01*
X0001679222Y0002495239D01*
X0001677347Y0002512112D02*
X0001675473Y0002515861D01*
X0001675473Y0002523360D01*
X0001677347Y0002527110D01*
X0001681097Y0002528985D01*
X0001682972Y0002528985D01*
X0001686721Y0002527110D01*
X0001688596Y0002523360D01*
X0001688596Y0002517736D01*
X0001690471Y0002513986D01*
X0001694220Y0002512112D01*
X0001696095Y0002512112D01*
X0001699845Y0002513986D01*
X0001701719Y0002517736D01*
X0001701719Y0002523360D01*
X0001699845Y0002527110D01*
D27*
X0002319267Y0002989314D02*
X0002319267Y0001884984D01*
X0001362574Y0002989314D02*
X0002319267Y0002989314D01*
X0001362574Y0001471598D02*
X0001362574Y0002989314D01*
X0001504307Y0001471598D02*
X0001362574Y0001471598D01*
X0001502834Y0001662125D02*
X0001504307Y0001471598D01*
X0002322834Y0001882125D02*
X0001722834Y0001882125D01*
D29*
G36*
X0001387834Y0002957125D02*
X0001557834Y0002957125D01*
X0001557834Y0002627125D01*
X0001387834Y0002627125D01*
X0001387834Y0002957125D01*
X0001387834Y0002957125D01*
G37*
X0001387834Y0002957125D02*
X0001557834Y0002957125D01*
X0001557834Y0002627125D01*
X0001387834Y0002627125D01*
X0001387834Y0002957125D01*
G04 next file*
G04 Gerber Fmt 4.6, Leading zero omitted, Abs format (unit mm)*
G04 Created by KiCad (PCBNEW 4.0.7) date Tuesday, 06 March 2018 'PMt' 15:17:41*
G01G01*
G04 APERTURE LIST*
G04 APERTURE END LIST*
D30*
D31*
X0002283668Y0001214217D02*
X0002255546Y0001233902D01*
X0002283668Y0001247962D02*
X0002224613Y0001247962D01*
X0002224613Y0001225465D01*
X0002227425Y0001219841D01*
X0002230237Y0001217029D01*
X0002235861Y0001214217D01*
X0002244298Y0001214217D01*
X0002249922Y0001217029D01*
X0002252734Y0001219841D01*
X0002255546Y0001225465D01*
X0002255546Y0001247962D01*
X0002280856Y0001166410D02*
X0002283668Y0001172034D01*
X0002283668Y0001183283D01*
X0002280856Y0001188907D01*
X0002275231Y0001191719D01*
X0002252734Y0001191719D01*
X0002247110Y0001188907D01*
X0002244298Y0001183283D01*
X0002244298Y0001172034D01*
X0002247110Y0001166410D01*
X0002252734Y0001163598D01*
X0002258358Y0001163598D01*
X0002263983Y0001191719D01*
X0002244298Y0001143913D02*
X0002283668Y0001129852D01*
X0002244298Y0001115791D01*
X0002230237Y0001051112D02*
X0002227425Y0001048300D01*
X0002224613Y0001042675D01*
X0002224613Y0001028615D01*
X0002227425Y0001022990D01*
X0002230237Y0001020178D01*
X0002235861Y0001017366D01*
X0002241485Y0001017366D01*
X0002249922Y0001020178D01*
X0002283668Y0001053924D01*
X0002283668Y0001017366D01*
X0002224613Y0000980808D02*
X0002224613Y0000975184D01*
X0002227425Y0000969560D01*
X0002230237Y0000966747D01*
X0002235861Y0000963935D01*
X0002247110Y0000961123D01*
X0002261170Y0000961123D01*
X0002272419Y0000963935D01*
X0002278043Y0000966747D01*
X0002280856Y0000969560D01*
X0002283668Y0000975184D01*
X0002283668Y0000980808D01*
X0002280856Y0000986433D01*
X0002278043Y0000989245D01*
X0002272419Y0000992057D01*
X0002261170Y0000994869D01*
X0002247110Y0000994869D01*
X0002235861Y0000992057D01*
X0002230237Y0000989245D01*
X0002227425Y0000986433D01*
X0002224613Y0000980808D01*
X0002283668Y0000904880D02*
X0002283668Y0000938626D01*
X0002283668Y0000921753D02*
X0002224613Y0000921753D01*
X0002233049Y0000927377D01*
X0002238673Y0000933002D01*
X0002241485Y0000938626D01*
X0002249922Y0000871134D02*
X0002247110Y0000876759D01*
X0002244298Y0000879571D01*
X0002238673Y0000882383D01*
X0002235861Y0000882383D01*
X0002230237Y0000879571D01*
X0002227425Y0000876759D01*
X0002224613Y0000871134D01*
X0002224613Y0000859886D01*
X0002227425Y0000854262D01*
X0002230237Y0000851449D01*
X0002235861Y0000848637D01*
X0002238673Y0000848637D01*
X0002244298Y0000851449D01*
X0002247110Y0000854262D01*
X0002249922Y0000859886D01*
X0002249922Y0000871134D01*
X0002252734Y0000876759D01*
X0002255546Y0000879571D01*
X0002261170Y0000882383D01*
X0002272419Y0000882383D01*
X0002278043Y0000879571D01*
X0002280856Y0000876759D01*
X0002283668Y0000871134D01*
X0002283668Y0000859886D01*
X0002280856Y0000854262D01*
X0002278043Y0000851449D01*
X0002272419Y0000848637D01*
X0002261170Y0000848637D01*
X0002255546Y0000851449D01*
X0002252734Y0000854262D01*
X0002249922Y0000859886D01*
X0002224613Y0000812079D02*
X0002224613Y0000806455D01*
X0002227425Y0000800831D01*
X0002230237Y0000798019D01*
X0002235861Y0000795206D01*
X0002247110Y0000792394D01*
X0002261170Y0000792394D01*
X0002272419Y0000795206D01*
X0002278043Y0000798019D01*
X0002280856Y0000800831D01*
X0002283668Y0000806455D01*
X0002283668Y0000812079D01*
X0002280856Y0000817704D01*
X0002278043Y0000820516D01*
X0002272419Y0000823328D01*
X0002261170Y0000826140D01*
X0002247110Y0000826140D01*
X0002235861Y0000823328D01*
X0002230237Y0000820516D01*
X0002227425Y0000817704D01*
X0002224613Y0000812079D01*
X0002224613Y0000772709D02*
X0002224613Y0000736151D01*
X0002247110Y0000755836D01*
X0002247110Y0000747400D01*
X0002249922Y0000741776D01*
X0002252734Y0000738964D01*
X0002258358Y0000736151D01*
X0002272419Y0000736151D01*
X0002278043Y0000738964D01*
X0002280856Y0000741776D01*
X0002283668Y0000747400D01*
X0002283668Y0000764273D01*
X0002280856Y0000769897D01*
X0002278043Y0000772709D01*
X0002224613Y0000699593D02*
X0002224613Y0000693969D01*
X0002227425Y0000688345D01*
X0002230237Y0000685533D01*
X0002235861Y0000682721D01*
X0002247110Y0000679908D01*
X0002261170Y0000679908D01*
X0002272419Y0000682721D01*
X0002278043Y0000685533D01*
X0002280856Y0000688345D01*
X0002283668Y0000693969D01*
X0002283668Y0000699593D01*
X0002280856Y0000705218D01*
X0002278043Y0000708030D01*
X0002272419Y0000710842D01*
X0002261170Y0000713654D01*
X0002247110Y0000713654D01*
X0002235861Y0000710842D01*
X0002230237Y0000708030D01*
X0002227425Y0000705218D01*
X0002224613Y0000699593D01*
X0002224613Y0000626478D02*
X0002224613Y0000654599D01*
X0002252734Y0000657411D01*
X0002249922Y0000654599D01*
X0002247110Y0000648975D01*
X0002247110Y0000634914D01*
X0002249922Y0000629290D01*
X0002252734Y0000626478D01*
X0002258358Y0000623665D01*
X0002272419Y0000623665D01*
X0002278043Y0000626478D01*
X0002280856Y0000629290D01*
X0002283668Y0000634914D01*
X0002283668Y0000648975D01*
X0002280856Y0000654599D01*
X0002278043Y0000657411D01*
D32*
X0001977952Y0001346220D02*
G75*
G03G03X0002197952Y0001566220J0000220000D01X0002197952Y0001566220J0000220000D01*
G01G01*
D33*
X0001930826Y0000828832D02*
X0001891455Y0000828832D01*
X0001891455Y0000819458D01*
X0001893330Y0000813834D01*
X0001897080Y0000810085D01*
X0001900829Y0000808210D01*
X0001908328Y0000806335D01*
X0001913953Y0000806335D01*
X0001921452Y0000808210D01*
X0001925201Y0000810085D01*
X0001928951Y0000813834D01*
X0001930826Y0000819458D01*
X0001930826Y0000828832D01*
X0001915827Y0000789462D02*
X0001915827Y0000759466D01*
X0001824526Y0000824502D02*
X0001785156Y0000824502D01*
X0001785156Y0000815128D01*
X0001787031Y0000809503D01*
X0001790781Y0000805754D01*
X0001794530Y0000803879D01*
X0001802029Y0000802004D01*
X0001807653Y0000802004D01*
X0001815152Y0000803879D01*
X0001818902Y0000805754D01*
X0001822652Y0000809503D01*
X0001824526Y0000815128D01*
X0001824526Y0000824502D01*
X0001809528Y0000785131D02*
X0001809528Y0000755135D01*
X0001824526Y0000770133D02*
X0001794530Y0000770133D01*
X0001692543Y0000800523D02*
X0001690668Y0000804273D01*
X0001690668Y0000809897D01*
X0001692543Y0000815521D01*
X0001696292Y0000819271D01*
X0001700042Y0000821146D01*
X0001707541Y0000823020D01*
X0001713165Y0000823020D01*
X0001720664Y0000821146D01*
X0001724414Y0000819271D01*
X0001728163Y0000815521D01*
X0001730038Y0000809897D01*
X0001730038Y0000806148D01*
X0001728163Y0000800523D01*
X0001726289Y0000798649D01*
X0001713165Y0000798649D01*
X0001713165Y0000806148D01*
X0001730038Y0000781776D02*
X0001690668Y0000781776D01*
X0001730038Y0000759278D01*
X0001690668Y0000759278D01*
X0001730038Y0000740531D02*
X0001690668Y0000740531D01*
X0001690668Y0000731157D01*
X0001692543Y0000725533D01*
X0001696292Y0000721783D01*
X0001700042Y0000719908D01*
X0001707541Y0000718034D01*
X0001713165Y0000718034D01*
X0001720664Y0000719908D01*
X0001724414Y0000721783D01*
X0001728163Y0000725533D01*
X0001730038Y0000731157D01*
X0001730038Y0000740531D01*
X0001985944Y0000824970D02*
X0002025314Y0000811847D01*
X0001985944Y0000798724D01*
X0002025314Y0000785600D02*
X0001985944Y0000785600D01*
X0002000942Y0000785600D02*
X0001999067Y0000781851D01*
X0001999067Y0000774352D01*
X0002000942Y0000770602D01*
X0002002817Y0000768727D01*
X0002006566Y0000766852D01*
X0002017815Y0000766852D01*
X0002021564Y0000768727D01*
X0002023439Y0000770602D01*
X0002025314Y0000774352D01*
X0002025314Y0000781851D01*
X0002023439Y0000785600D01*
X0001999067Y0000733107D02*
X0002025314Y0000733107D01*
X0001999067Y0000749980D02*
X0002019689Y0000749980D01*
X0002023439Y0000748105D01*
X0002025314Y0000744355D01*
X0002025314Y0000738731D01*
X0002023439Y0000734981D01*
X0002021564Y0000733107D01*
X0002023439Y0000716234D02*
X0002025314Y0000712484D01*
X0002025314Y0000704985D01*
X0002023439Y0000701236D01*
X0002019689Y0000699361D01*
X0002017815Y0000699361D01*
X0002014065Y0000701236D01*
X0002012190Y0000704985D01*
X0002012190Y0000710610D01*
X0002010316Y0000714359D01*
X0002006566Y0000716234D01*
X0002004691Y0000716234D01*
X0002000942Y0000714359D01*
X0001999067Y0000710610D01*
X0001999067Y0000704985D01*
X0002000942Y0000701236D01*
D32*
X0001381519Y0000239031D02*
X0001381519Y0001343362D01*
X0002338212Y0000239031D02*
X0001381519Y0000239031D01*
X0002338212Y0001756748D02*
X0002338212Y0000239031D01*
X0002196480Y0001756748D02*
X0002338212Y0001756748D01*
X0002197952Y0001566220D02*
X0002196480Y0001756748D01*
X0001377952Y0001346220D02*
X0001977952Y0001346220D01*
D34*
G36*
X0002312952Y0000271220D02*
X0002142952Y0000271220D01*
X0002142952Y0000601220D01*
X0002312952Y0000601220D01*
X0002312952Y0000271220D01*
X0002312952Y0000271220D01*
G37*
X0002312952Y0000271220D02*
X0002142952Y0000271220D01*
X0002142952Y0000601220D01*
X0002312952Y0000601220D01*
X0002312952Y0000271220D01*
G04 next file*
G04 Gerber Fmt 4.6, Leading zero omitted, Abs format (unit mm)*
G04 Created by KiCad (PCBNEW 4.0.7) date Tuesday, 06 March 2018 'PMt' 15:17:41*
G01G01*
G04 APERTURE LIST*
G04 APERTURE END LIST*
D35*
D36*
X0000354127Y0002014129D02*
X0000382248Y0001994444D01*
X0000354127Y0001980383D02*
X0000413182Y0001980383D01*
X0000413182Y0002002880D01*
X0000410370Y0002008505D01*
X0000407557Y0002011317D01*
X0000401933Y0002014129D01*
X0000393497Y0002014129D01*
X0000387872Y0002011317D01*
X0000385060Y0002008505D01*
X0000382248Y0002002880D01*
X0000382248Y0001980383D01*
X0000356939Y0002061935D02*
X0000354127Y0002056311D01*
X0000354127Y0002045063D01*
X0000356939Y0002039438D01*
X0000362563Y0002036626D01*
X0000385060Y0002036626D01*
X0000390685Y0002039438D01*
X0000393497Y0002045063D01*
X0000393497Y0002056311D01*
X0000390685Y0002061935D01*
X0000385060Y0002064748D01*
X0000379436Y0002064748D01*
X0000373812Y0002036626D01*
X0000393497Y0002084433D02*
X0000354127Y0002098493D01*
X0000393497Y0002112554D01*
X0000407557Y0002177234D02*
X0000410370Y0002180046D01*
X0000413182Y0002185670D01*
X0000413182Y0002199731D01*
X0000410370Y0002205355D01*
X0000407557Y0002208167D01*
X0000401933Y0002210979D01*
X0000396309Y0002210979D01*
X0000387872Y0002208167D01*
X0000354127Y0002174421D01*
X0000354127Y0002210979D01*
X0000413182Y0002247537D02*
X0000413182Y0002253162D01*
X0000410370Y0002258786D01*
X0000407557Y0002261598D01*
X0000401933Y0002264410D01*
X0000390685Y0002267222D01*
X0000376624Y0002267222D01*
X0000365375Y0002264410D01*
X0000359751Y0002261598D01*
X0000356939Y0002258786D01*
X0000354127Y0002253162D01*
X0000354127Y0002247537D01*
X0000356939Y0002241913D01*
X0000359751Y0002239101D01*
X0000365375Y0002236289D01*
X0000376624Y0002233476D01*
X0000390685Y0002233476D01*
X0000401933Y0002236289D01*
X0000407557Y0002239101D01*
X0000410370Y0002241913D01*
X0000413182Y0002247537D01*
X0000354127Y0002323465D02*
X0000354127Y0002289719D01*
X0000354127Y0002306592D02*
X0000413182Y0002306592D01*
X0000404745Y0002300968D01*
X0000399121Y0002295344D01*
X0000396309Y0002289719D01*
X0000387872Y0002357211D02*
X0000390685Y0002351587D01*
X0000393497Y0002348775D01*
X0000399121Y0002345962D01*
X0000401933Y0002345962D01*
X0000407557Y0002348775D01*
X0000410370Y0002351587D01*
X0000413182Y0002357211D01*
X0000413182Y0002368460D01*
X0000410370Y0002374084D01*
X0000407557Y0002376896D01*
X0000401933Y0002379708D01*
X0000399121Y0002379708D01*
X0000393497Y0002376896D01*
X0000390685Y0002374084D01*
X0000387872Y0002368460D01*
X0000387872Y0002357211D01*
X0000385060Y0002351587D01*
X0000382248Y0002348775D01*
X0000376624Y0002345962D01*
X0000365375Y0002345962D01*
X0000359751Y0002348775D01*
X0000356939Y0002351587D01*
X0000354127Y0002357211D01*
X0000354127Y0002368460D01*
X0000356939Y0002374084D01*
X0000359751Y0002376896D01*
X0000365375Y0002379708D01*
X0000376624Y0002379708D01*
X0000382248Y0002376896D01*
X0000385060Y0002374084D01*
X0000387872Y0002368460D01*
X0000413182Y0002416266D02*
X0000413182Y0002421890D01*
X0000410370Y0002427515D01*
X0000407557Y0002430327D01*
X0000401933Y0002433139D01*
X0000390685Y0002435951D01*
X0000376624Y0002435951D01*
X0000365375Y0002433139D01*
X0000359751Y0002430327D01*
X0000356939Y0002427515D01*
X0000354127Y0002421890D01*
X0000354127Y0002416266D01*
X0000356939Y0002410642D01*
X0000359751Y0002407830D01*
X0000365375Y0002405017D01*
X0000376624Y0002402205D01*
X0000390685Y0002402205D01*
X0000401933Y0002405017D01*
X0000407557Y0002407830D01*
X0000410370Y0002410642D01*
X0000413182Y0002416266D01*
X0000413182Y0002455636D02*
X0000413182Y0002492194D01*
X0000390685Y0002472509D01*
X0000390685Y0002480945D01*
X0000387872Y0002486570D01*
X0000385060Y0002489382D01*
X0000379436Y0002492194D01*
X0000365375Y0002492194D01*
X0000359751Y0002489382D01*
X0000356939Y0002486570D01*
X0000354127Y0002480945D01*
X0000354127Y0002464073D01*
X0000356939Y0002458448D01*
X0000359751Y0002455636D01*
X0000413182Y0002528752D02*
X0000413182Y0002534376D01*
X0000410370Y0002540001D01*
X0000407557Y0002542813D01*
X0000401933Y0002545625D01*
X0000390685Y0002548437D01*
X0000376624Y0002548437D01*
X0000365375Y0002545625D01*
X0000359751Y0002542813D01*
X0000356939Y0002540001D01*
X0000354127Y0002534376D01*
X0000354127Y0002528752D01*
X0000356939Y0002523128D01*
X0000359751Y0002520315D01*
X0000365375Y0002517503D01*
X0000376624Y0002514691D01*
X0000390685Y0002514691D01*
X0000401933Y0002517503D01*
X0000407557Y0002520315D01*
X0000410370Y0002523128D01*
X0000413182Y0002528752D01*
X0000413182Y0002601868D02*
X0000413182Y0002573746D01*
X0000385060Y0002570934D01*
X0000387872Y0002573746D01*
X0000390685Y0002579371D01*
X0000390685Y0002593431D01*
X0000387872Y0002599056D01*
X0000385060Y0002601868D01*
X0000379436Y0002604680D01*
X0000365375Y0002604680D01*
X0000359751Y0002601868D01*
X0000356939Y0002599056D01*
X0000354127Y0002593431D01*
X0000354127Y0002579371D01*
X0000356939Y0002573746D01*
X0000359751Y0002570934D01*
D37*
X0000659842Y0001882125D02*
G75*
G03G03X0000439842Y0001662125J-0000220000D01X0000439842Y0001662125J-0000220000D01*
G01G01*
D38*
X0000706969Y0002399513D02*
X0000746339Y0002399513D01*
X0000746339Y0002408887D01*
X0000744464Y0002414511D01*
X0000740715Y0002418261D01*
X0000736965Y0002420136D01*
X0000729466Y0002422010D01*
X0000723842Y0002422010D01*
X0000716343Y0002420136D01*
X0000712593Y0002418261D01*
X0000708844Y0002414511D01*
X0000706969Y0002408887D01*
X0000706969Y0002399513D01*
X0000721967Y0002438883D02*
X0000721967Y0002468880D01*
X0000813268Y0002403844D02*
X0000852638Y0002403844D01*
X0000852638Y0002413218D01*
X0000850763Y0002418842D01*
X0000847014Y0002422592D01*
X0000843264Y0002424466D01*
X0000835765Y0002426341D01*
X0000830141Y0002426341D01*
X0000822642Y0002424466D01*
X0000818892Y0002422592D01*
X0000815143Y0002418842D01*
X0000813268Y0002413218D01*
X0000813268Y0002403844D01*
X0000828266Y0002443214D02*
X0000828266Y0002473210D01*
X0000813268Y0002458212D02*
X0000843264Y0002458212D01*
X0000945251Y0002427822D02*
X0000947126Y0002424073D01*
X0000947126Y0002418448D01*
X0000945251Y0002412824D01*
X0000941502Y0002409075D01*
X0000937752Y0002407200D01*
X0000930253Y0002405325D01*
X0000924629Y0002405325D01*
X0000917130Y0002407200D01*
X0000913380Y0002409075D01*
X0000909631Y0002412824D01*
X0000907756Y0002418448D01*
X0000907756Y0002422198D01*
X0000909631Y0002427822D01*
X0000911506Y0002429697D01*
X0000924629Y0002429697D01*
X0000924629Y0002422198D01*
X0000907756Y0002446570D02*
X0000947126Y0002446570D01*
X0000907756Y0002469067D01*
X0000947126Y0002469067D01*
X0000907756Y0002487815D02*
X0000947126Y0002487815D01*
X0000947126Y0002497188D01*
X0000945251Y0002502813D01*
X0000941502Y0002506562D01*
X0000937752Y0002508437D01*
X0000930253Y0002510312D01*
X0000924629Y0002510312D01*
X0000917130Y0002508437D01*
X0000913380Y0002506562D01*
X0000909631Y0002502813D01*
X0000907756Y0002497188D01*
X0000907756Y0002487815D01*
X0000651851Y0002403375D02*
X0000612481Y0002416499D01*
X0000651851Y0002429622D01*
X0000612481Y0002442745D02*
X0000651851Y0002442745D01*
X0000636853Y0002442745D02*
X0000638727Y0002446495D01*
X0000638727Y0002453994D01*
X0000636853Y0002457743D01*
X0000634978Y0002459618D01*
X0000631228Y0002461493D01*
X0000619980Y0002461493D01*
X0000616230Y0002459618D01*
X0000614355Y0002457743D01*
X0000612481Y0002453994D01*
X0000612481Y0002446495D01*
X0000614355Y0002442745D01*
X0000638727Y0002495239D02*
X0000612481Y0002495239D01*
X0000638727Y0002478366D02*
X0000618105Y0002478366D01*
X0000614355Y0002480241D01*
X0000612481Y0002483990D01*
X0000612481Y0002489614D01*
X0000614355Y0002493364D01*
X0000616230Y0002495239D01*
X0000614355Y0002512112D02*
X0000612481Y0002515861D01*
X0000612481Y0002523360D01*
X0000614355Y0002527110D01*
X0000618105Y0002528985D01*
X0000619980Y0002528985D01*
X0000623729Y0002527110D01*
X0000625604Y0002523360D01*
X0000625604Y0002517736D01*
X0000627479Y0002513986D01*
X0000631228Y0002512112D01*
X0000633103Y0002512112D01*
X0000636853Y0002513986D01*
X0000638727Y0002517736D01*
X0000638727Y0002523360D01*
X0000636853Y0002527110D01*
D37*
X0001256275Y0002989314D02*
X0001256275Y0001884984D01*
X0000299582Y0002989314D02*
X0001256275Y0002989314D01*
X0000299582Y0001471598D02*
X0000299582Y0002989314D01*
X0000441314Y0001471598D02*
X0000299582Y0001471598D01*
X0000439842Y0001662125D02*
X0000441314Y0001471598D01*
X0001259842Y0001882125D02*
X0000659842Y0001882125D01*
D39*
G36*
X0000324842Y0002957125D02*
X0000494842Y0002957125D01*
X0000494842Y0002627125D01*
X0000324842Y0002627125D01*
X0000324842Y0002957125D01*
X0000324842Y0002957125D01*
G37*
X0000324842Y0002957125D02*
X0000494842Y0002957125D01*
X0000494842Y0002627125D01*
X0000324842Y0002627125D01*
X0000324842Y0002957125D01*
G04 next file*
G04 Gerber Fmt 4.6, Leading zero omitted, Abs format (unit mm)*
G04 Created by KiCad (PCBNEW 4.0.7) date Tuesday, 06 March 2018 'PMt' 15:17:41*
G01G01*
G04 APERTURE LIST*
G04 APERTURE END LIST*
D40*
D41*
X0002480111Y0002014129D02*
X0002508232Y0001994444D01*
X0002480111Y0001980383D02*
X0002539166Y0001980383D01*
X0002539166Y0002002880D01*
X0002536354Y0002008505D01*
X0002533542Y0002011317D01*
X0002527917Y0002014129D01*
X0002519481Y0002014129D01*
X0002513857Y0002011317D01*
X0002511044Y0002008505D01*
X0002508232Y0002002880D01*
X0002508232Y0001980383D01*
X0002482923Y0002061935D02*
X0002480111Y0002056311D01*
X0002480111Y0002045063D01*
X0002482923Y0002039438D01*
X0002488547Y0002036626D01*
X0002511044Y0002036626D01*
X0002516669Y0002039438D01*
X0002519481Y0002045063D01*
X0002519481Y0002056311D01*
X0002516669Y0002061935D01*
X0002511044Y0002064748D01*
X0002505420Y0002064748D01*
X0002499796Y0002036626D01*
X0002519481Y0002084433D02*
X0002480111Y0002098493D01*
X0002519481Y0002112554D01*
X0002533542Y0002177234D02*
X0002536354Y0002180046D01*
X0002539166Y0002185670D01*
X0002539166Y0002199731D01*
X0002536354Y0002205355D01*
X0002533542Y0002208167D01*
X0002527917Y0002210979D01*
X0002522293Y0002210979D01*
X0002513857Y0002208167D01*
X0002480111Y0002174421D01*
X0002480111Y0002210979D01*
X0002539166Y0002247537D02*
X0002539166Y0002253162D01*
X0002536354Y0002258786D01*
X0002533542Y0002261598D01*
X0002527917Y0002264410D01*
X0002516669Y0002267222D01*
X0002502608Y0002267222D01*
X0002491359Y0002264410D01*
X0002485735Y0002261598D01*
X0002482923Y0002258786D01*
X0002480111Y0002253162D01*
X0002480111Y0002247537D01*
X0002482923Y0002241913D01*
X0002485735Y0002239101D01*
X0002491359Y0002236289D01*
X0002502608Y0002233476D01*
X0002516669Y0002233476D01*
X0002527917Y0002236289D01*
X0002533542Y0002239101D01*
X0002536354Y0002241913D01*
X0002539166Y0002247537D01*
X0002480111Y0002323465D02*
X0002480111Y0002289719D01*
X0002480111Y0002306592D02*
X0002539166Y0002306592D01*
X0002530730Y0002300968D01*
X0002525105Y0002295344D01*
X0002522293Y0002289719D01*
X0002513857Y0002357211D02*
X0002516669Y0002351587D01*
X0002519481Y0002348775D01*
X0002525105Y0002345962D01*
X0002527917Y0002345962D01*
X0002533542Y0002348775D01*
X0002536354Y0002351587D01*
X0002539166Y0002357211D01*
X0002539166Y0002368460D01*
X0002536354Y0002374084D01*
X0002533542Y0002376896D01*
X0002527917Y0002379708D01*
X0002525105Y0002379708D01*
X0002519481Y0002376896D01*
X0002516669Y0002374084D01*
X0002513857Y0002368460D01*
X0002513857Y0002357211D01*
X0002511044Y0002351587D01*
X0002508232Y0002348775D01*
X0002502608Y0002345962D01*
X0002491359Y0002345962D01*
X0002485735Y0002348775D01*
X0002482923Y0002351587D01*
X0002480111Y0002357211D01*
X0002480111Y0002368460D01*
X0002482923Y0002374084D01*
X0002485735Y0002376896D01*
X0002491359Y0002379708D01*
X0002502608Y0002379708D01*
X0002508232Y0002376896D01*
X0002511044Y0002374084D01*
X0002513857Y0002368460D01*
X0002539166Y0002416266D02*
X0002539166Y0002421890D01*
X0002536354Y0002427515D01*
X0002533542Y0002430327D01*
X0002527917Y0002433139D01*
X0002516669Y0002435951D01*
X0002502608Y0002435951D01*
X0002491359Y0002433139D01*
X0002485735Y0002430327D01*
X0002482923Y0002427515D01*
X0002480111Y0002421890D01*
X0002480111Y0002416266D01*
X0002482923Y0002410642D01*
X0002485735Y0002407830D01*
X0002491359Y0002405017D01*
X0002502608Y0002402205D01*
X0002516669Y0002402205D01*
X0002527917Y0002405017D01*
X0002533542Y0002407830D01*
X0002536354Y0002410642D01*
X0002539166Y0002416266D01*
X0002539166Y0002455636D02*
X0002539166Y0002492194D01*
X0002516669Y0002472509D01*
X0002516669Y0002480945D01*
X0002513857Y0002486570D01*
X0002511045Y0002489382D01*
X0002505420Y0002492194D01*
X0002491359Y0002492194D01*
X0002485735Y0002489382D01*
X0002482923Y0002486570D01*
X0002480111Y0002480945D01*
X0002480111Y0002464073D01*
X0002482923Y0002458448D01*
X0002485735Y0002455636D01*
X0002539166Y0002528752D02*
X0002539166Y0002534376D01*
X0002536354Y0002540001D01*
X0002533542Y0002542813D01*
X0002527917Y0002545625D01*
X0002516669Y0002548437D01*
X0002502608Y0002548437D01*
X0002491359Y0002545625D01*
X0002485735Y0002542813D01*
X0002482923Y0002540001D01*
X0002480111Y0002534376D01*
X0002480111Y0002528752D01*
X0002482923Y0002523128D01*
X0002485735Y0002520316D01*
X0002491359Y0002517503D01*
X0002502608Y0002514691D01*
X0002516669Y0002514691D01*
X0002527917Y0002517503D01*
X0002533542Y0002520316D01*
X0002536354Y0002523128D01*
X0002539166Y0002528752D01*
X0002539166Y0002601868D02*
X0002539166Y0002573746D01*
X0002511045Y0002570934D01*
X0002513857Y0002573746D01*
X0002516669Y0002579371D01*
X0002516669Y0002593431D01*
X0002513857Y0002599056D01*
X0002511045Y0002601868D01*
X0002505420Y0002604680D01*
X0002491359Y0002604680D01*
X0002485735Y0002601868D01*
X0002482923Y0002599056D01*
X0002480111Y0002593431D01*
X0002480111Y0002579371D01*
X0002482923Y0002573746D01*
X0002485735Y0002570934D01*
D42*
X0002785826Y0001882125D02*
G75*
G03G03X0002565826Y0001662125J-0000220000D01X0002565826Y0001662125J-0000220000D01*
G01G01*
D43*
X0002832953Y0002399513D02*
X0002872323Y0002399513D01*
X0002872323Y0002408887D01*
X0002870448Y0002414511D01*
X0002866699Y0002418261D01*
X0002862949Y0002420136D01*
X0002855450Y0002422010D01*
X0002849826Y0002422010D01*
X0002842327Y0002420136D01*
X0002838577Y0002418261D01*
X0002834828Y0002414511D01*
X0002832953Y0002408887D01*
X0002832953Y0002399513D01*
X0002847951Y0002438883D02*
X0002847951Y0002468880D01*
X0002939252Y0002403844D02*
X0002978622Y0002403844D01*
X0002978622Y0002413218D01*
X0002976748Y0002418842D01*
X0002972998Y0002422592D01*
X0002969248Y0002424466D01*
X0002961749Y0002426341D01*
X0002956125Y0002426341D01*
X0002948626Y0002424466D01*
X0002944877Y0002422592D01*
X0002941127Y0002418842D01*
X0002939252Y0002413218D01*
X0002939252Y0002403844D01*
X0002954250Y0002443214D02*
X0002954250Y0002473210D01*
X0002939252Y0002458212D02*
X0002969248Y0002458212D01*
X0003071236Y0002427822D02*
X0003073110Y0002424073D01*
X0003073110Y0002418448D01*
X0003071236Y0002412824D01*
X0003067486Y0002409075D01*
X0003063737Y0002407200D01*
X0003056238Y0002405325D01*
X0003050613Y0002405325D01*
X0003043114Y0002407200D01*
X0003039365Y0002409075D01*
X0003035615Y0002412824D01*
X0003033740Y0002418448D01*
X0003033740Y0002422198D01*
X0003035615Y0002427822D01*
X0003037490Y0002429697D01*
X0003050613Y0002429697D01*
X0003050613Y0002422198D01*
X0003033740Y0002446570D02*
X0003073110Y0002446570D01*
X0003033740Y0002469067D01*
X0003073110Y0002469067D01*
X0003033740Y0002487815D02*
X0003073110Y0002487815D01*
X0003073110Y0002497188D01*
X0003071236Y0002502813D01*
X0003067486Y0002506562D01*
X0003063737Y0002508437D01*
X0003056238Y0002510312D01*
X0003050613Y0002510312D01*
X0003043114Y0002508437D01*
X0003039365Y0002506562D01*
X0003035615Y0002502813D01*
X0003033740Y0002497188D01*
X0003033740Y0002487815D01*
X0002777835Y0002403375D02*
X0002738465Y0002416499D01*
X0002777835Y0002429622D01*
X0002738465Y0002442745D02*
X0002777835Y0002442745D01*
X0002762837Y0002442745D02*
X0002764712Y0002446495D01*
X0002764712Y0002453994D01*
X0002762837Y0002457743D01*
X0002760962Y0002459618D01*
X0002757212Y0002461493D01*
X0002745964Y0002461493D01*
X0002742214Y0002459618D01*
X0002740340Y0002457743D01*
X0002738465Y0002453994D01*
X0002738465Y0002446495D01*
X0002740340Y0002442745D01*
X0002764712Y0002495239D02*
X0002738465Y0002495239D01*
X0002764712Y0002478366D02*
X0002744089Y0002478366D01*
X0002740340Y0002480241D01*
X0002738465Y0002483990D01*
X0002738465Y0002489614D01*
X0002740340Y0002493364D01*
X0002742214Y0002495239D01*
X0002740340Y0002512112D02*
X0002738465Y0002515861D01*
X0002738465Y0002523360D01*
X0002740340Y0002527110D01*
X0002744089Y0002528985D01*
X0002745964Y0002528985D01*
X0002749713Y0002527110D01*
X0002751588Y0002523360D01*
X0002751588Y0002517736D01*
X0002753463Y0002513986D01*
X0002757212Y0002512112D01*
X0002759087Y0002512112D01*
X0002762837Y0002513986D01*
X0002764712Y0002517736D01*
X0002764712Y0002523360D01*
X0002762837Y0002527110D01*
D42*
X0003382259Y0002989314D02*
X0003382259Y0001884984D01*
X0002425566Y0002989314D02*
X0003382259Y0002989314D01*
X0002425566Y0001471598D02*
X0002425566Y0002989314D01*
X0002567299Y0001471598D02*
X0002425566Y0001471598D01*
X0002565826Y0001662125D02*
X0002567299Y0001471598D01*
X0003385826Y0001882125D02*
X0002785826Y0001882125D01*
D44*
G36*
X0002450826Y0002957125D02*
X0002620826Y0002957125D01*
X0002620826Y0002627125D01*
X0002450826Y0002627125D01*
X0002450826Y0002957125D01*
X0002450826Y0002957125D01*
G37*
X0002450826Y0002957125D02*
X0002620826Y0002957125D01*
X0002620826Y0002627125D01*
X0002450826Y0002627125D01*
X0002450826Y0002957125D01*
G04 next file*
G04 Gerber Fmt 4.6, Leading zero omitted, Abs format (unit mm)*
G04 Created by KiCad (PCBNEW 4.0.7) date Tuesday, 06 March 2018 'PMt' 15:17:41*
G01G01*
G04 APERTURE LIST*
G04 APERTURE END LIST*
D45*
D46*
X0003346660Y0001214217D02*
X0003318538Y0001233902D01*
X0003346660Y0001247962D02*
X0003287605Y0001247962D01*
X0003287605Y0001225465D01*
X0003290417Y0001219841D01*
X0003293229Y0001217029D01*
X0003298853Y0001214217D01*
X0003307290Y0001214217D01*
X0003312914Y0001217029D01*
X0003315726Y0001219841D01*
X0003318538Y0001225465D01*
X0003318538Y0001247962D01*
X0003343848Y0001166410D02*
X0003346660Y0001172034D01*
X0003346660Y0001183283D01*
X0003343848Y0001188907D01*
X0003338223Y0001191719D01*
X0003315726Y0001191719D01*
X0003310102Y0001188907D01*
X0003307290Y0001183283D01*
X0003307290Y0001172034D01*
X0003310102Y0001166410D01*
X0003315726Y0001163598D01*
X0003321350Y0001163598D01*
X0003326975Y0001191719D01*
X0003307290Y0001143913D02*
X0003346660Y0001129852D01*
X0003307290Y0001115791D01*
X0003293229Y0001051112D02*
X0003290417Y0001048300D01*
X0003287605Y0001042675D01*
X0003287605Y0001028615D01*
X0003290417Y0001022990D01*
X0003293229Y0001020178D01*
X0003298853Y0001017366D01*
X0003304478Y0001017366D01*
X0003312914Y0001020178D01*
X0003346660Y0001053924D01*
X0003346660Y0001017366D01*
X0003287605Y0000980808D02*
X0003287605Y0000975184D01*
X0003290417Y0000969560D01*
X0003293229Y0000966747D01*
X0003298853Y0000963935D01*
X0003310102Y0000961123D01*
X0003324163Y0000961123D01*
X0003335411Y0000963935D01*
X0003341035Y0000966747D01*
X0003343848Y0000969560D01*
X0003346660Y0000975184D01*
X0003346660Y0000980808D01*
X0003343848Y0000986433D01*
X0003341035Y0000989245D01*
X0003335411Y0000992057D01*
X0003324163Y0000994869D01*
X0003310102Y0000994869D01*
X0003298853Y0000992057D01*
X0003293229Y0000989245D01*
X0003290417Y0000986433D01*
X0003287605Y0000980808D01*
X0003346660Y0000904880D02*
X0003346660Y0000938626D01*
X0003346660Y0000921753D02*
X0003287605Y0000921753D01*
X0003296041Y0000927377D01*
X0003301665Y0000933002D01*
X0003304478Y0000938626D01*
X0003312914Y0000871134D02*
X0003310102Y0000876759D01*
X0003307290Y0000879571D01*
X0003301665Y0000882383D01*
X0003298853Y0000882383D01*
X0003293229Y0000879571D01*
X0003290417Y0000876759D01*
X0003287605Y0000871134D01*
X0003287605Y0000859886D01*
X0003290417Y0000854262D01*
X0003293229Y0000851449D01*
X0003298853Y0000848637D01*
X0003301665Y0000848637D01*
X0003307290Y0000851449D01*
X0003310102Y0000854262D01*
X0003312914Y0000859886D01*
X0003312914Y0000871134D01*
X0003315726Y0000876759D01*
X0003318538Y0000879571D01*
X0003324163Y0000882383D01*
X0003335411Y0000882383D01*
X0003341035Y0000879571D01*
X0003343848Y0000876759D01*
X0003346660Y0000871134D01*
X0003346660Y0000859886D01*
X0003343848Y0000854262D01*
X0003341035Y0000851449D01*
X0003335411Y0000848637D01*
X0003324163Y0000848637D01*
X0003318538Y0000851449D01*
X0003315726Y0000854262D01*
X0003312914Y0000859886D01*
X0003287605Y0000812079D02*
X0003287605Y0000806455D01*
X0003290417Y0000800831D01*
X0003293229Y0000798019D01*
X0003298853Y0000795206D01*
X0003310102Y0000792394D01*
X0003324163Y0000792394D01*
X0003335411Y0000795206D01*
X0003341035Y0000798019D01*
X0003343848Y0000800831D01*
X0003346660Y0000806455D01*
X0003346660Y0000812079D01*
X0003343848Y0000817704D01*
X0003341035Y0000820516D01*
X0003335411Y0000823328D01*
X0003324163Y0000826140D01*
X0003310102Y0000826140D01*
X0003298853Y0000823328D01*
X0003293229Y0000820516D01*
X0003290417Y0000817704D01*
X0003287605Y0000812079D01*
X0003287605Y0000772709D02*
X0003287605Y0000736151D01*
X0003310102Y0000755836D01*
X0003310102Y0000747400D01*
X0003312914Y0000741776D01*
X0003315726Y0000738964D01*
X0003321350Y0000736151D01*
X0003335411Y0000736151D01*
X0003341035Y0000738964D01*
X0003343848Y0000741776D01*
X0003346660Y0000747400D01*
X0003346660Y0000764273D01*
X0003343848Y0000769897D01*
X0003341035Y0000772709D01*
X0003287605Y0000699593D02*
X0003287605Y0000693969D01*
X0003290417Y0000688345D01*
X0003293229Y0000685533D01*
X0003298853Y0000682721D01*
X0003310102Y0000679908D01*
X0003324163Y0000679908D01*
X0003335411Y0000682721D01*
X0003341035Y0000685533D01*
X0003343848Y0000688345D01*
X0003346660Y0000693969D01*
X0003346660Y0000699593D01*
X0003343848Y0000705218D01*
X0003341035Y0000708030D01*
X0003335411Y0000710842D01*
X0003324163Y0000713654D01*
X0003310102Y0000713654D01*
X0003298853Y0000710842D01*
X0003293229Y0000708030D01*
X0003290417Y0000705218D01*
X0003287605Y0000699593D01*
X0003287605Y0000626478D02*
X0003287605Y0000654599D01*
X0003315726Y0000657411D01*
X0003312914Y0000654599D01*
X0003310102Y0000648975D01*
X0003310102Y0000634914D01*
X0003312914Y0000629290D01*
X0003315726Y0000626478D01*
X0003321350Y0000623665D01*
X0003335411Y0000623665D01*
X0003341035Y0000626478D01*
X0003343848Y0000629290D01*
X0003346660Y0000634914D01*
X0003346660Y0000648975D01*
X0003343848Y0000654599D01*
X0003341035Y0000657411D01*
D47*
X0003040944Y0001346220D02*
G75*
G03G03X0003260944Y0001566220J0000220000D01X0003260944Y0001566220J0000220000D01*
G01G01*
D48*
X0002993818Y0000828832D02*
X0002954448Y0000828832D01*
X0002954448Y0000819458D01*
X0002956322Y0000813834D01*
X0002960072Y0000810085D01*
X0002963821Y0000808210D01*
X0002971320Y0000806335D01*
X0002976945Y0000806335D01*
X0002984444Y0000808210D01*
X0002988193Y0000810085D01*
X0002991943Y0000813834D01*
X0002993818Y0000819458D01*
X0002993818Y0000828832D01*
X0002978820Y0000789462D02*
X0002978820Y0000759466D01*
X0002887518Y0000824502D02*
X0002848148Y0000824502D01*
X0002848148Y0000815128D01*
X0002850023Y0000809503D01*
X0002853773Y0000805754D01*
X0002857522Y0000803879D01*
X0002865021Y0000802004D01*
X0002870646Y0000802004D01*
X0002878145Y0000803879D01*
X0002881894Y0000805754D01*
X0002885644Y0000809503D01*
X0002887518Y0000815128D01*
X0002887518Y0000824502D01*
X0002872520Y0000785131D02*
X0002872520Y0000755135D01*
X0002887518Y0000770133D02*
X0002857522Y0000770133D01*
X0002755535Y0000800523D02*
X0002753660Y0000804273D01*
X0002753660Y0000809897D01*
X0002755535Y0000815521D01*
X0002759284Y0000819271D01*
X0002763034Y0000821146D01*
X0002770533Y0000823020D01*
X0002776157Y0000823020D01*
X0002783656Y0000821146D01*
X0002787406Y0000819271D01*
X0002791155Y0000815521D01*
X0002793030Y0000809897D01*
X0002793030Y0000806148D01*
X0002791155Y0000800523D01*
X0002789281Y0000798649D01*
X0002776157Y0000798649D01*
X0002776157Y0000806148D01*
X0002793030Y0000781776D02*
X0002753660Y0000781776D01*
X0002793030Y0000759278D01*
X0002753660Y0000759278D01*
X0002793030Y0000740531D02*
X0002753660Y0000740531D01*
X0002753660Y0000731157D01*
X0002755535Y0000725533D01*
X0002759284Y0000721783D01*
X0002763034Y0000719908D01*
X0002770533Y0000718034D01*
X0002776157Y0000718034D01*
X0002783656Y0000719908D01*
X0002787406Y0000721783D01*
X0002791155Y0000725533D01*
X0002793030Y0000731157D01*
X0002793030Y0000740531D01*
X0003048936Y0000824970D02*
X0003088306Y0000811847D01*
X0003048936Y0000798724D01*
X0003088306Y0000785600D02*
X0003048936Y0000785600D01*
X0003063934Y0000785600D02*
X0003062059Y0000781851D01*
X0003062059Y0000774352D01*
X0003063934Y0000770602D01*
X0003065809Y0000768727D01*
X0003069558Y0000766852D01*
X0003080807Y0000766852D01*
X0003084556Y0000768727D01*
X0003086431Y0000770602D01*
X0003088306Y0000774352D01*
X0003088306Y0000781851D01*
X0003086431Y0000785600D01*
X0003062059Y0000733107D02*
X0003088306Y0000733107D01*
X0003062059Y0000749980D02*
X0003082682Y0000749980D01*
X0003086431Y0000748105D01*
X0003088306Y0000744355D01*
X0003088306Y0000738731D01*
X0003086431Y0000734981D01*
X0003084556Y0000733107D01*
X0003086431Y0000716234D02*
X0003088306Y0000712484D01*
X0003088306Y0000704985D01*
X0003086431Y0000701236D01*
X0003082682Y0000699361D01*
X0003080807Y0000699361D01*
X0003077057Y0000701236D01*
X0003075182Y0000704985D01*
X0003075182Y0000710610D01*
X0003073308Y0000714359D01*
X0003069558Y0000716234D01*
X0003067683Y0000716234D01*
X0003063934Y0000714359D01*
X0003062059Y0000710610D01*
X0003062059Y0000704985D01*
X0003063934Y0000701236D01*
D47*
X0002444511Y0000239031D02*
X0002444511Y0001343362D01*
X0003401204Y0000239031D02*
X0002444511Y0000239031D01*
X0003401204Y0001756748D02*
X0003401204Y0000239031D01*
X0003259472Y0001756748D02*
X0003401204Y0001756748D01*
X0003260944Y0001566220D02*
X0003259472Y0001756748D01*
X0002440944Y0001346220D02*
X0003040944Y0001346220D01*
D49*
G36*
X0003375944Y0000271220D02*
X0003205944Y0000271220D01*
X0003205944Y0000601220D01*
X0003375944Y0000601220D01*
X0003375944Y0000271220D01*
X0003375944Y0000271220D01*
G37*
X0003375944Y0000271220D02*
X0003205944Y0000271220D01*
X0003205944Y0000601220D01*
X0003375944Y0000601220D01*
X0003375944Y0000271220D01*
G04 next file*
G04 Gerber Fmt 4.6, Leading zero omitted, Abs format (unit mm)*
G04 Created by KiCad (PCBNEW 4.0.7) date Tuesday, 06 March 2018 'PMt' 15:17:41*
G01G01*
G04 APERTURE LIST*
G04 APERTURE END LIST*
D50*
D51*
X0004409652Y0001214217D02*
X0004381530Y0001233902D01*
X0004409652Y0001247962D02*
X0004350597Y0001247962D01*
X0004350597Y0001225465D01*
X0004353409Y0001219841D01*
X0004356221Y0001217029D01*
X0004361845Y0001214217D01*
X0004370282Y0001214217D01*
X0004375906Y0001217029D01*
X0004378718Y0001219841D01*
X0004381530Y0001225465D01*
X0004381530Y0001247962D01*
X0004406840Y0001166410D02*
X0004409652Y0001172034D01*
X0004409652Y0001183283D01*
X0004406840Y0001188907D01*
X0004401215Y0001191719D01*
X0004378718Y0001191719D01*
X0004373094Y0001188907D01*
X0004370282Y0001183283D01*
X0004370282Y0001172034D01*
X0004373094Y0001166410D01*
X0004378718Y0001163598D01*
X0004384343Y0001163598D01*
X0004389967Y0001191719D01*
X0004370282Y0001143913D02*
X0004409652Y0001129852D01*
X0004370282Y0001115791D01*
X0004356221Y0001051112D02*
X0004353409Y0001048300D01*
X0004350597Y0001042675D01*
X0004350597Y0001028615D01*
X0004353409Y0001022990D01*
X0004356221Y0001020178D01*
X0004361845Y0001017366D01*
X0004367470Y0001017366D01*
X0004375906Y0001020178D01*
X0004409652Y0001053924D01*
X0004409652Y0001017366D01*
X0004350597Y0000980808D02*
X0004350597Y0000975184D01*
X0004353409Y0000969560D01*
X0004356221Y0000966747D01*
X0004361845Y0000963935D01*
X0004373094Y0000961123D01*
X0004387155Y0000961123D01*
X0004398403Y0000963935D01*
X0004404028Y0000966747D01*
X0004406840Y0000969560D01*
X0004409652Y0000975184D01*
X0004409652Y0000980808D01*
X0004406840Y0000986433D01*
X0004404028Y0000989245D01*
X0004398403Y0000992057D01*
X0004387155Y0000994869D01*
X0004373094Y0000994869D01*
X0004361845Y0000992057D01*
X0004356221Y0000989245D01*
X0004353409Y0000986433D01*
X0004350597Y0000980808D01*
X0004409652Y0000904880D02*
X0004409652Y0000938626D01*
X0004409652Y0000921753D02*
X0004350597Y0000921753D01*
X0004359033Y0000927377D01*
X0004364658Y0000933002D01*
X0004367470Y0000938626D01*
X0004375906Y0000871134D02*
X0004373094Y0000876759D01*
X0004370282Y0000879571D01*
X0004364658Y0000882383D01*
X0004361845Y0000882383D01*
X0004356221Y0000879571D01*
X0004353409Y0000876759D01*
X0004350597Y0000871134D01*
X0004350597Y0000859886D01*
X0004353409Y0000854262D01*
X0004356221Y0000851449D01*
X0004361845Y0000848637D01*
X0004364658Y0000848637D01*
X0004370282Y0000851449D01*
X0004373094Y0000854262D01*
X0004375906Y0000859886D01*
X0004375906Y0000871134D01*
X0004378718Y0000876759D01*
X0004381530Y0000879571D01*
X0004387155Y0000882383D01*
X0004398403Y0000882383D01*
X0004404028Y0000879571D01*
X0004406840Y0000876759D01*
X0004409652Y0000871134D01*
X0004409652Y0000859886D01*
X0004406840Y0000854262D01*
X0004404028Y0000851449D01*
X0004398403Y0000848637D01*
X0004387155Y0000848637D01*
X0004381530Y0000851449D01*
X0004378718Y0000854262D01*
X0004375906Y0000859886D01*
X0004350597Y0000812079D02*
X0004350597Y0000806455D01*
X0004353409Y0000800831D01*
X0004356221Y0000798019D01*
X0004361845Y0000795206D01*
X0004373094Y0000792394D01*
X0004387155Y0000792394D01*
X0004398403Y0000795206D01*
X0004404028Y0000798019D01*
X0004406840Y0000800831D01*
X0004409652Y0000806455D01*
X0004409652Y0000812079D01*
X0004406840Y0000817704D01*
X0004404028Y0000820516D01*
X0004398403Y0000823328D01*
X0004387155Y0000826140D01*
X0004373094Y0000826140D01*
X0004361845Y0000823328D01*
X0004356221Y0000820516D01*
X0004353409Y0000817704D01*
X0004350597Y0000812079D01*
X0004350597Y0000772709D02*
X0004350597Y0000736151D01*
X0004373094Y0000755836D01*
X0004373094Y0000747400D01*
X0004375906Y0000741776D01*
X0004378718Y0000738964D01*
X0004384343Y0000736151D01*
X0004398403Y0000736151D01*
X0004404028Y0000738964D01*
X0004406840Y0000741776D01*
X0004409652Y0000747400D01*
X0004409652Y0000764273D01*
X0004406840Y0000769897D01*
X0004404028Y0000772709D01*
X0004350597Y0000699593D02*
X0004350597Y0000693969D01*
X0004353409Y0000688345D01*
X0004356221Y0000685533D01*
X0004361845Y0000682721D01*
X0004373094Y0000679908D01*
X0004387155Y0000679908D01*
X0004398403Y0000682721D01*
X0004404028Y0000685533D01*
X0004406840Y0000688345D01*
X0004409652Y0000693969D01*
X0004409652Y0000699593D01*
X0004406840Y0000705218D01*
X0004404028Y0000708030D01*
X0004398403Y0000710842D01*
X0004387155Y0000713654D01*
X0004373094Y0000713654D01*
X0004361845Y0000710842D01*
X0004356221Y0000708030D01*
X0004353409Y0000705218D01*
X0004350597Y0000699593D01*
X0004350597Y0000626478D02*
X0004350597Y0000654599D01*
X0004378718Y0000657411D01*
X0004375906Y0000654599D01*
X0004373094Y0000648975D01*
X0004373094Y0000634914D01*
X0004375906Y0000629290D01*
X0004378718Y0000626478D01*
X0004384343Y0000623665D01*
X0004398403Y0000623665D01*
X0004404028Y0000626478D01*
X0004406840Y0000629290D01*
X0004409652Y0000634914D01*
X0004409652Y0000648975D01*
X0004406840Y0000654599D01*
X0004404028Y0000657411D01*
D52*
X0004103937Y0001346220D02*
G75*
G03G03X0004323937Y0001566220J0000220000D01X0004323937Y0001566220J0000220000D01*
G01G01*
D53*
X0004056810Y0000828832D02*
X0004017440Y0000828832D01*
X0004017440Y0000819458D01*
X0004019314Y0000813834D01*
X0004023064Y0000810085D01*
X0004026814Y0000808210D01*
X0004034313Y0000806335D01*
X0004039937Y0000806335D01*
X0004047436Y0000808210D01*
X0004051185Y0000810085D01*
X0004054935Y0000813834D01*
X0004056810Y0000819458D01*
X0004056810Y0000828832D01*
X0004041812Y0000789462D02*
X0004041812Y0000759466D01*
X0003950511Y0000824502D02*
X0003911140Y0000824502D01*
X0003911140Y0000815128D01*
X0003913015Y0000809503D01*
X0003916765Y0000805754D01*
X0003920514Y0000803879D01*
X0003928013Y0000802004D01*
X0003933638Y0000802004D01*
X0003941137Y0000803879D01*
X0003944886Y0000805754D01*
X0003948636Y0000809503D01*
X0003950511Y0000815128D01*
X0003950511Y0000824502D01*
X0003935512Y0000785131D02*
X0003935512Y0000755135D01*
X0003950511Y0000770133D02*
X0003920514Y0000770133D01*
X0003818527Y0000800523D02*
X0003816652Y0000804273D01*
X0003816652Y0000809897D01*
X0003818527Y0000815521D01*
X0003822277Y0000819271D01*
X0003826026Y0000821146D01*
X0003833525Y0000823020D01*
X0003839150Y0000823020D01*
X0003846649Y0000821146D01*
X0003850398Y0000819271D01*
X0003854148Y0000815521D01*
X0003856022Y0000809897D01*
X0003856022Y0000806148D01*
X0003854148Y0000800523D01*
X0003852273Y0000798649D01*
X0003839150Y0000798649D01*
X0003839150Y0000806148D01*
X0003856022Y0000781776D02*
X0003816652Y0000781776D01*
X0003856022Y0000759278D01*
X0003816652Y0000759278D01*
X0003856022Y0000740531D02*
X0003816652Y0000740531D01*
X0003816652Y0000731157D01*
X0003818527Y0000725533D01*
X0003822277Y0000721783D01*
X0003826026Y0000719908D01*
X0003833525Y0000718034D01*
X0003839150Y0000718034D01*
X0003846649Y0000719908D01*
X0003850398Y0000721783D01*
X0003854148Y0000725533D01*
X0003856022Y0000731157D01*
X0003856022Y0000740531D01*
X0004111928Y0000824970D02*
X0004151298Y0000811847D01*
X0004111928Y0000798724D01*
X0004151298Y0000785600D02*
X0004111928Y0000785600D01*
X0004126926Y0000785600D02*
X0004125051Y0000781851D01*
X0004125051Y0000774352D01*
X0004126926Y0000770602D01*
X0004128801Y0000768727D01*
X0004132550Y0000766852D01*
X0004143799Y0000766852D01*
X0004147548Y0000768727D01*
X0004149423Y0000770602D01*
X0004151298Y0000774352D01*
X0004151298Y0000781851D01*
X0004149423Y0000785600D01*
X0004125051Y0000733107D02*
X0004151298Y0000733107D01*
X0004125051Y0000749980D02*
X0004145674Y0000749980D01*
X0004149423Y0000748105D01*
X0004151298Y0000744355D01*
X0004151298Y0000738731D01*
X0004149423Y0000734981D01*
X0004147548Y0000733107D01*
X0004149423Y0000716234D02*
X0004151298Y0000712484D01*
X0004151298Y0000704985D01*
X0004149423Y0000701236D01*
X0004145674Y0000699361D01*
X0004143799Y0000699361D01*
X0004140049Y0000701236D01*
X0004138175Y0000704985D01*
X0004138175Y0000710610D01*
X0004136300Y0000714359D01*
X0004132550Y0000716234D01*
X0004130676Y0000716234D01*
X0004126926Y0000714359D01*
X0004125051Y0000710610D01*
X0004125051Y0000704985D01*
X0004126926Y0000701236D01*
D52*
X0003507503Y0000239031D02*
X0003507503Y0001343362D01*
X0004464196Y0000239031D02*
X0003507503Y0000239031D01*
X0004464196Y0001756748D02*
X0004464196Y0000239031D01*
X0004322464Y0001756748D02*
X0004464196Y0001756748D01*
X0004323937Y0001566220D02*
X0004322464Y0001756748D01*
X0003503937Y0001346220D02*
X0004103937Y0001346220D01*
D54*
G36*
X0004438937Y0000271220D02*
X0004268937Y0000271220D01*
X0004268937Y0000601220D01*
X0004438937Y0000601220D01*
X0004438937Y0000271220D01*
X0004438937Y0000271220D01*
G37*
X0004438937Y0000271220D02*
X0004268937Y0000271220D01*
X0004268937Y0000601220D01*
X0004438937Y0000601220D01*
X0004438937Y0000271220D01*
G04 next file*
G04 Gerber Fmt 4.6, Leading zero omitted, Abs format (unit mm)*
G04 Created by KiCad (PCBNEW 4.0.7) date Tuesday, 06 March 2018 'PMt' 15:17:41*
G01G01*
G04 APERTURE LIST*
G04 APERTURE END LIST*
D55*
D56*
X0003543103Y0002014129D02*
X0003571224Y0001994444D01*
X0003543103Y0001980383D02*
X0003602158Y0001980383D01*
X0003602158Y0002002880D01*
X0003599346Y0002008505D01*
X0003596534Y0002011317D01*
X0003590910Y0002014129D01*
X0003582473Y0002014129D01*
X0003576849Y0002011317D01*
X0003574037Y0002008505D01*
X0003571224Y0002002880D01*
X0003571224Y0001980383D01*
X0003545915Y0002061935D02*
X0003543103Y0002056311D01*
X0003543103Y0002045063D01*
X0003545915Y0002039438D01*
X0003551539Y0002036626D01*
X0003574037Y0002036626D01*
X0003579661Y0002039438D01*
X0003582473Y0002045063D01*
X0003582473Y0002056311D01*
X0003579661Y0002061935D01*
X0003574037Y0002064748D01*
X0003568412Y0002064748D01*
X0003562788Y0002036626D01*
X0003582473Y0002084433D02*
X0003543103Y0002098493D01*
X0003582473Y0002112554D01*
X0003596534Y0002177234D02*
X0003599346Y0002180046D01*
X0003602158Y0002185670D01*
X0003602158Y0002199731D01*
X0003599346Y0002205355D01*
X0003596534Y0002208167D01*
X0003590910Y0002210979D01*
X0003585285Y0002210979D01*
X0003576849Y0002208167D01*
X0003543103Y0002174421D01*
X0003543103Y0002210979D01*
X0003602158Y0002247537D02*
X0003602158Y0002253162D01*
X0003599346Y0002258786D01*
X0003596534Y0002261598D01*
X0003590910Y0002264410D01*
X0003579661Y0002267222D01*
X0003565600Y0002267222D01*
X0003554352Y0002264410D01*
X0003548727Y0002261598D01*
X0003545915Y0002258786D01*
X0003543103Y0002253162D01*
X0003543103Y0002247537D01*
X0003545915Y0002241913D01*
X0003548727Y0002239101D01*
X0003554352Y0002236289D01*
X0003565600Y0002233476D01*
X0003579661Y0002233476D01*
X0003590910Y0002236289D01*
X0003596534Y0002239101D01*
X0003599346Y0002241913D01*
X0003602158Y0002247537D01*
X0003543103Y0002323465D02*
X0003543103Y0002289719D01*
X0003543103Y0002306592D02*
X0003602158Y0002306592D01*
X0003593722Y0002300968D01*
X0003588097Y0002295344D01*
X0003585285Y0002289719D01*
X0003576849Y0002357211D02*
X0003579661Y0002351587D01*
X0003582473Y0002348775D01*
X0003588097Y0002345962D01*
X0003590910Y0002345962D01*
X0003596534Y0002348775D01*
X0003599346Y0002351587D01*
X0003602158Y0002357211D01*
X0003602158Y0002368460D01*
X0003599346Y0002374084D01*
X0003596534Y0002376896D01*
X0003590910Y0002379708D01*
X0003588097Y0002379708D01*
X0003582473Y0002376896D01*
X0003579661Y0002374084D01*
X0003576849Y0002368460D01*
X0003576849Y0002357211D01*
X0003574037Y0002351587D01*
X0003571224Y0002348775D01*
X0003565600Y0002345962D01*
X0003554352Y0002345962D01*
X0003548727Y0002348775D01*
X0003545915Y0002351587D01*
X0003543103Y0002357211D01*
X0003543103Y0002368460D01*
X0003545915Y0002374084D01*
X0003548727Y0002376896D01*
X0003554352Y0002379708D01*
X0003565600Y0002379708D01*
X0003571224Y0002376896D01*
X0003574037Y0002374084D01*
X0003576849Y0002368460D01*
X0003602158Y0002416266D02*
X0003602158Y0002421890D01*
X0003599346Y0002427515D01*
X0003596534Y0002430327D01*
X0003590910Y0002433139D01*
X0003579661Y0002435951D01*
X0003565600Y0002435951D01*
X0003554352Y0002433139D01*
X0003548727Y0002430327D01*
X0003545915Y0002427515D01*
X0003543103Y0002421890D01*
X0003543103Y0002416266D01*
X0003545915Y0002410642D01*
X0003548727Y0002407830D01*
X0003554352Y0002405017D01*
X0003565600Y0002402205D01*
X0003579661Y0002402205D01*
X0003590910Y0002405017D01*
X0003596534Y0002407830D01*
X0003599346Y0002410642D01*
X0003602158Y0002416266D01*
X0003602158Y0002455636D02*
X0003602158Y0002492194D01*
X0003579661Y0002472509D01*
X0003579661Y0002480945D01*
X0003576849Y0002486570D01*
X0003574037Y0002489382D01*
X0003568412Y0002492194D01*
X0003554352Y0002492194D01*
X0003548727Y0002489382D01*
X0003545915Y0002486570D01*
X0003543103Y0002480945D01*
X0003543103Y0002464073D01*
X0003545915Y0002458448D01*
X0003548727Y0002455636D01*
X0003602158Y0002528752D02*
X0003602158Y0002534376D01*
X0003599346Y0002540001D01*
X0003596534Y0002542813D01*
X0003590910Y0002545625D01*
X0003579661Y0002548437D01*
X0003565600Y0002548437D01*
X0003554352Y0002545625D01*
X0003548727Y0002542813D01*
X0003545915Y0002540001D01*
X0003543103Y0002534376D01*
X0003543103Y0002528752D01*
X0003545915Y0002523128D01*
X0003548727Y0002520316D01*
X0003554352Y0002517503D01*
X0003565600Y0002514691D01*
X0003579661Y0002514691D01*
X0003590910Y0002517503D01*
X0003596534Y0002520316D01*
X0003599346Y0002523128D01*
X0003602158Y0002528752D01*
X0003602158Y0002601868D02*
X0003602158Y0002573746D01*
X0003574037Y0002570934D01*
X0003576849Y0002573746D01*
X0003579661Y0002579371D01*
X0003579661Y0002593431D01*
X0003576849Y0002599056D01*
X0003574037Y0002601868D01*
X0003568412Y0002604680D01*
X0003554352Y0002604680D01*
X0003548727Y0002601868D01*
X0003545915Y0002599056D01*
X0003543103Y0002593431D01*
X0003543103Y0002579371D01*
X0003545915Y0002573746D01*
X0003548727Y0002570934D01*
D57*
X0003848818Y0001882125D02*
G75*
G03G03X0003628818Y0001662125J-0000220000D01X0003628818Y0001662125J-0000220000D01*
G01G01*
D58*
X0003895945Y0002399513D02*
X0003935315Y0002399513D01*
X0003935315Y0002408887D01*
X0003933440Y0002414511D01*
X0003929691Y0002418261D01*
X0003925941Y0002420136D01*
X0003918442Y0002422010D01*
X0003912818Y0002422010D01*
X0003905319Y0002420136D01*
X0003901569Y0002418261D01*
X0003897820Y0002414511D01*
X0003895945Y0002408887D01*
X0003895945Y0002399513D01*
X0003910943Y0002438883D02*
X0003910943Y0002468880D01*
X0004002244Y0002403844D02*
X0004041614Y0002403844D01*
X0004041614Y0002413218D01*
X0004039740Y0002418842D01*
X0004035990Y0002422592D01*
X0004032241Y0002424466D01*
X0004024742Y0002426341D01*
X0004019117Y0002426341D01*
X0004011618Y0002424466D01*
X0004007869Y0002422592D01*
X0004004119Y0002418842D01*
X0004002244Y0002413218D01*
X0004002244Y0002403844D01*
X0004017242Y0002443214D02*
X0004017242Y0002473210D01*
X0004002244Y0002458212D02*
X0004032241Y0002458212D01*
X0004134228Y0002427822D02*
X0004136103Y0002424073D01*
X0004136103Y0002418448D01*
X0004134228Y0002412824D01*
X0004130478Y0002409075D01*
X0004126729Y0002407200D01*
X0004119230Y0002405325D01*
X0004113605Y0002405325D01*
X0004106106Y0002407200D01*
X0004102357Y0002409075D01*
X0004098607Y0002412824D01*
X0004096733Y0002418448D01*
X0004096733Y0002422198D01*
X0004098607Y0002427822D01*
X0004100482Y0002429697D01*
X0004113605Y0002429697D01*
X0004113605Y0002422198D01*
X0004096733Y0002446570D02*
X0004136103Y0002446570D01*
X0004096733Y0002469067D01*
X0004136103Y0002469067D01*
X0004096733Y0002487815D02*
X0004136103Y0002487815D01*
X0004136103Y0002497188D01*
X0004134228Y0002502813D01*
X0004130478Y0002506562D01*
X0004126729Y0002508437D01*
X0004119230Y0002510312D01*
X0004113605Y0002510312D01*
X0004106106Y0002508437D01*
X0004102357Y0002506562D01*
X0004098607Y0002502813D01*
X0004096733Y0002497188D01*
X0004096733Y0002487815D01*
X0003840827Y0002403375D02*
X0003801457Y0002416499D01*
X0003840827Y0002429622D01*
X0003801457Y0002442745D02*
X0003840827Y0002442745D01*
X0003825829Y0002442745D02*
X0003827704Y0002446495D01*
X0003827704Y0002453994D01*
X0003825829Y0002457743D01*
X0003823954Y0002459618D01*
X0003820205Y0002461493D01*
X0003808956Y0002461493D01*
X0003805206Y0002459618D01*
X0003803332Y0002457743D01*
X0003801457Y0002453994D01*
X0003801457Y0002446495D01*
X0003803332Y0002442745D01*
X0003827704Y0002495239D02*
X0003801457Y0002495239D01*
X0003827704Y0002478366D02*
X0003807081Y0002478366D01*
X0003803332Y0002480241D01*
X0003801457Y0002483990D01*
X0003801457Y0002489614D01*
X0003803332Y0002493364D01*
X0003805206Y0002495239D01*
X0003803332Y0002512112D02*
X0003801457Y0002515861D01*
X0003801457Y0002523360D01*
X0003803332Y0002527110D01*
X0003807081Y0002528985D01*
X0003808956Y0002528985D01*
X0003812706Y0002527110D01*
X0003814580Y0002523360D01*
X0003814580Y0002517736D01*
X0003816455Y0002513986D01*
X0003820205Y0002512112D01*
X0003822079Y0002512112D01*
X0003825829Y0002513986D01*
X0003827704Y0002517736D01*
X0003827704Y0002523360D01*
X0003825829Y0002527110D01*
D57*
X0004445251Y0002989314D02*
X0004445251Y0001884984D01*
X0003488559Y0002989314D02*
X0004445251Y0002989314D01*
X0003488559Y0001471598D02*
X0003488559Y0002989314D01*
X0003630291Y0001471598D02*
X0003488559Y0001471598D01*
X0003628818Y0001662125D02*
X0003630291Y0001471598D01*
X0004448818Y0001882125D02*
X0003848818Y0001882125D01*
D59*
G36*
X0003513818Y0002957125D02*
X0003683818Y0002957125D01*
X0003683818Y0002627125D01*
X0003513818Y0002627125D01*
X0003513818Y0002957125D01*
X0003513818Y0002957125D01*
G37*
X0003513818Y0002957125D02*
X0003683818Y0002957125D01*
X0003683818Y0002627125D01*
X0003513818Y0002627125D01*
X0003513818Y0002957125D01*
G04 next file*
G04 Gerber Fmt 4.6, Leading zero omitted, Abs format (unit mm)*
G04 Created by KiCad (PCBNEW 4.0.7) date Tuesday, 06 March 2018 'PMt' 15:17:41*
G01G01*
G04 APERTURE LIST*
G04 APERTURE END LIST*
D60*
D61*
X0005472644Y0001214217D02*
X0005444523Y0001233902D01*
X0005472644Y0001247962D02*
X0005413589Y0001247962D01*
X0005413589Y0001225465D01*
X0005416401Y0001219841D01*
X0005419213Y0001217029D01*
X0005424838Y0001214217D01*
X0005433274Y0001214217D01*
X0005438898Y0001217029D01*
X0005441710Y0001219841D01*
X0005444523Y0001225465D01*
X0005444523Y0001247962D01*
X0005469832Y0001166410D02*
X0005472644Y0001172034D01*
X0005472644Y0001183283D01*
X0005469832Y0001188907D01*
X0005464208Y0001191719D01*
X0005441710Y0001191719D01*
X0005436086Y0001188907D01*
X0005433274Y0001183283D01*
X0005433274Y0001172034D01*
X0005436086Y0001166410D01*
X0005441710Y0001163598D01*
X0005447335Y0001163598D01*
X0005452959Y0001191719D01*
X0005433274Y0001143913D02*
X0005472644Y0001129852D01*
X0005433274Y0001115791D01*
X0005419213Y0001051112D02*
X0005416401Y0001048300D01*
X0005413589Y0001042675D01*
X0005413589Y0001028615D01*
X0005416401Y0001022990D01*
X0005419213Y0001020178D01*
X0005424838Y0001017366D01*
X0005430462Y0001017366D01*
X0005438898Y0001020178D01*
X0005472644Y0001053924D01*
X0005472644Y0001017366D01*
X0005413589Y0000980808D02*
X0005413589Y0000975184D01*
X0005416401Y0000969560D01*
X0005419213Y0000966747D01*
X0005424838Y0000963935D01*
X0005436086Y0000961123D01*
X0005450147Y0000961123D01*
X0005461395Y0000963935D01*
X0005467020Y0000966747D01*
X0005469832Y0000969560D01*
X0005472644Y0000975184D01*
X0005472644Y0000980808D01*
X0005469832Y0000986433D01*
X0005467020Y0000989245D01*
X0005461395Y0000992057D01*
X0005450147Y0000994869D01*
X0005436086Y0000994869D01*
X0005424838Y0000992057D01*
X0005419213Y0000989245D01*
X0005416401Y0000986433D01*
X0005413589Y0000980808D01*
X0005472644Y0000904880D02*
X0005472644Y0000938626D01*
X0005472644Y0000921753D02*
X0005413589Y0000921753D01*
X0005422025Y0000927377D01*
X0005427650Y0000933002D01*
X0005430462Y0000938626D01*
X0005438898Y0000871134D02*
X0005436086Y0000876759D01*
X0005433274Y0000879571D01*
X0005427650Y0000882383D01*
X0005424838Y0000882383D01*
X0005419213Y0000879571D01*
X0005416401Y0000876759D01*
X0005413589Y0000871134D01*
X0005413589Y0000859886D01*
X0005416401Y0000854262D01*
X0005419213Y0000851449D01*
X0005424838Y0000848637D01*
X0005427650Y0000848637D01*
X0005433274Y0000851449D01*
X0005436086Y0000854262D01*
X0005438898Y0000859886D01*
X0005438898Y0000871134D01*
X0005441710Y0000876759D01*
X0005444523Y0000879571D01*
X0005450147Y0000882383D01*
X0005461395Y0000882383D01*
X0005467020Y0000879571D01*
X0005469832Y0000876759D01*
X0005472644Y0000871134D01*
X0005472644Y0000859886D01*
X0005469832Y0000854262D01*
X0005467020Y0000851449D01*
X0005461395Y0000848637D01*
X0005450147Y0000848637D01*
X0005444523Y0000851449D01*
X0005441710Y0000854262D01*
X0005438898Y0000859886D01*
X0005413589Y0000812079D02*
X0005413589Y0000806455D01*
X0005416401Y0000800831D01*
X0005419213Y0000798019D01*
X0005424838Y0000795206D01*
X0005436086Y0000792394D01*
X0005450147Y0000792394D01*
X0005461395Y0000795206D01*
X0005467020Y0000798019D01*
X0005469832Y0000800831D01*
X0005472644Y0000806455D01*
X0005472644Y0000812079D01*
X0005469832Y0000817704D01*
X0005467020Y0000820516D01*
X0005461395Y0000823328D01*
X0005450147Y0000826140D01*
X0005436086Y0000826140D01*
X0005424838Y0000823328D01*
X0005419213Y0000820516D01*
X0005416401Y0000817704D01*
X0005413589Y0000812079D01*
X0005413589Y0000772709D02*
X0005413589Y0000736151D01*
X0005436086Y0000755836D01*
X0005436086Y0000747400D01*
X0005438898Y0000741776D01*
X0005441710Y0000738964D01*
X0005447335Y0000736151D01*
X0005461395Y0000736151D01*
X0005467020Y0000738964D01*
X0005469832Y0000741776D01*
X0005472644Y0000747400D01*
X0005472644Y0000764273D01*
X0005469832Y0000769897D01*
X0005467020Y0000772709D01*
X0005413589Y0000699593D02*
X0005413589Y0000693969D01*
X0005416401Y0000688345D01*
X0005419213Y0000685533D01*
X0005424838Y0000682721D01*
X0005436086Y0000679908D01*
X0005450147Y0000679908D01*
X0005461395Y0000682721D01*
X0005467020Y0000685533D01*
X0005469832Y0000688345D01*
X0005472644Y0000693969D01*
X0005472644Y0000699593D01*
X0005469832Y0000705218D01*
X0005467020Y0000708030D01*
X0005461395Y0000710842D01*
X0005450147Y0000713654D01*
X0005436086Y0000713654D01*
X0005424838Y0000710842D01*
X0005419213Y0000708030D01*
X0005416401Y0000705218D01*
X0005413589Y0000699593D01*
X0005413589Y0000626478D02*
X0005413589Y0000654599D01*
X0005441710Y0000657411D01*
X0005438898Y0000654599D01*
X0005436086Y0000648975D01*
X0005436086Y0000634914D01*
X0005438898Y0000629290D01*
X0005441710Y0000626478D01*
X0005447335Y0000623665D01*
X0005461395Y0000623665D01*
X0005467020Y0000626478D01*
X0005469832Y0000629290D01*
X0005472644Y0000634914D01*
X0005472644Y0000648975D01*
X0005469832Y0000654599D01*
X0005467020Y0000657411D01*
D62*
X0005166929Y0001346220D02*
G75*
G03G03X0005386929Y0001566220J0000220000D01X0005386929Y0001566220J0000220000D01*
G01G01*
D63*
X0005119802Y0000828832D02*
X0005080432Y0000828832D01*
X0005080432Y0000819458D01*
X0005082307Y0000813834D01*
X0005086056Y0000810085D01*
X0005089806Y0000808210D01*
X0005097305Y0000806335D01*
X0005102929Y0000806335D01*
X0005110428Y0000808210D01*
X0005114178Y0000810085D01*
X0005117927Y0000813834D01*
X0005119802Y0000819458D01*
X0005119802Y0000828832D01*
X0005104804Y0000789462D02*
X0005104804Y0000759466D01*
X0005013503Y0000824502D02*
X0004974133Y0000824502D01*
X0004974133Y0000815128D01*
X0004976007Y0000809503D01*
X0004979757Y0000805754D01*
X0004983506Y0000803879D01*
X0004991005Y0000802004D01*
X0004996630Y0000802004D01*
X0005004129Y0000803879D01*
X0005007878Y0000805754D01*
X0005011628Y0000809503D01*
X0005013503Y0000815128D01*
X0005013503Y0000824502D01*
X0004998505Y0000785131D02*
X0004998505Y0000755135D01*
X0005013503Y0000770133D02*
X0004983506Y0000770133D01*
X0004881519Y0000800523D02*
X0004879644Y0000804273D01*
X0004879644Y0000809897D01*
X0004881519Y0000815521D01*
X0004885269Y0000819271D01*
X0004889018Y0000821146D01*
X0004896517Y0000823020D01*
X0004902142Y0000823020D01*
X0004909641Y0000821146D01*
X0004913390Y0000819271D01*
X0004917140Y0000815521D01*
X0004919015Y0000809897D01*
X0004919015Y0000806148D01*
X0004917140Y0000800523D01*
X0004915265Y0000798649D01*
X0004902142Y0000798649D01*
X0004902142Y0000806148D01*
X0004919015Y0000781776D02*
X0004879644Y0000781776D01*
X0004919015Y0000759278D01*
X0004879644Y0000759278D01*
X0004919015Y0000740531D02*
X0004879644Y0000740531D01*
X0004879644Y0000731157D01*
X0004881519Y0000725533D01*
X0004885269Y0000721783D01*
X0004889018Y0000719908D01*
X0004896517Y0000718034D01*
X0004902142Y0000718034D01*
X0004909641Y0000719908D01*
X0004913390Y0000721783D01*
X0004917140Y0000725533D01*
X0004919015Y0000731157D01*
X0004919015Y0000740531D01*
X0005174920Y0000824970D02*
X0005214290Y0000811847D01*
X0005174920Y0000798724D01*
X0005214290Y0000785600D02*
X0005174920Y0000785600D01*
X0005189918Y0000785600D02*
X0005188043Y0000781851D01*
X0005188043Y0000774352D01*
X0005189918Y0000770602D01*
X0005191793Y0000768727D01*
X0005195542Y0000766852D01*
X0005206791Y0000766852D01*
X0005210541Y0000768727D01*
X0005212415Y0000770602D01*
X0005214290Y0000774352D01*
X0005214290Y0000781851D01*
X0005212415Y0000785600D01*
X0005188043Y0000733107D02*
X0005214290Y0000733107D01*
X0005188043Y0000749980D02*
X0005208666Y0000749980D01*
X0005212415Y0000748105D01*
X0005214290Y0000744355D01*
X0005214290Y0000738731D01*
X0005212415Y0000734981D01*
X0005210541Y0000733107D01*
X0005212415Y0000716234D02*
X0005214290Y0000712484D01*
X0005214290Y0000704985D01*
X0005212415Y0000701236D01*
X0005208666Y0000699361D01*
X0005206791Y0000699361D01*
X0005203041Y0000701236D01*
X0005201167Y0000704985D01*
X0005201167Y0000710610D01*
X0005199292Y0000714359D01*
X0005195542Y0000716234D01*
X0005193668Y0000716234D01*
X0005189918Y0000714359D01*
X0005188043Y0000710610D01*
X0005188043Y0000704985D01*
X0005189918Y0000701236D01*
D62*
X0004570496Y0000239031D02*
X0004570496Y0001343362D01*
X0005527188Y0000239031D02*
X0004570496Y0000239031D01*
X0005527188Y0001756748D02*
X0005527188Y0000239031D01*
X0005385456Y0001756748D02*
X0005527188Y0001756748D01*
X0005386929Y0001566220D02*
X0005385456Y0001756748D01*
X0004566929Y0001346220D02*
X0005166929Y0001346220D01*
D64*
G36*
X0005501929Y0000271220D02*
X0005331929Y0000271220D01*
X0005331929Y0000601220D01*
X0005501929Y0000601220D01*
X0005501929Y0000271220D01*
X0005501929Y0000271220D01*
G37*
X0005501929Y0000271220D02*
X0005331929Y0000271220D01*
X0005331929Y0000601220D01*
X0005501929Y0000601220D01*
X0005501929Y0000271220D01*
G04 next file*
G04 Gerber Fmt 4.6, Leading zero omitted, Abs format (unit mm)*
G04 Created by KiCad (PCBNEW 4.0.7) date Tuesday, 06 March 2018 'PMt' 15:17:41*
G01G01*
G04 APERTURE LIST*
G04 APERTURE END LIST*
D65*
D66*
X0004606095Y0002014129D02*
X0004634217Y0001994444D01*
X0004606095Y0001980383D02*
X0004665150Y0001980383D01*
X0004665150Y0002002880D01*
X0004662338Y0002008505D01*
X0004659526Y0002011317D01*
X0004653902Y0002014129D01*
X0004645465Y0002014129D01*
X0004639841Y0002011317D01*
X0004637029Y0002008505D01*
X0004634217Y0002002880D01*
X0004634217Y0001980383D01*
X0004608907Y0002061935D02*
X0004606095Y0002056311D01*
X0004606095Y0002045063D01*
X0004608907Y0002039438D01*
X0004614532Y0002036626D01*
X0004637029Y0002036626D01*
X0004642653Y0002039438D01*
X0004645465Y0002045063D01*
X0004645465Y0002056311D01*
X0004642653Y0002061935D01*
X0004637029Y0002064748D01*
X0004631404Y0002064748D01*
X0004625780Y0002036626D01*
X0004645465Y0002084433D02*
X0004606095Y0002098493D01*
X0004645465Y0002112554D01*
X0004659526Y0002177234D02*
X0004662338Y0002180046D01*
X0004665150Y0002185670D01*
X0004665150Y0002199731D01*
X0004662338Y0002205355D01*
X0004659526Y0002208167D01*
X0004653902Y0002210979D01*
X0004648277Y0002210979D01*
X0004639841Y0002208167D01*
X0004606095Y0002174421D01*
X0004606095Y0002210979D01*
X0004665150Y0002247537D02*
X0004665150Y0002253162D01*
X0004662338Y0002258786D01*
X0004659526Y0002261598D01*
X0004653902Y0002264410D01*
X0004642653Y0002267222D01*
X0004628592Y0002267222D01*
X0004617344Y0002264410D01*
X0004611719Y0002261598D01*
X0004608907Y0002258786D01*
X0004606095Y0002253162D01*
X0004606095Y0002247537D01*
X0004608907Y0002241913D01*
X0004611719Y0002239101D01*
X0004617344Y0002236289D01*
X0004628592Y0002233476D01*
X0004642653Y0002233476D01*
X0004653902Y0002236289D01*
X0004659526Y0002239101D01*
X0004662338Y0002241913D01*
X0004665150Y0002247537D01*
X0004606095Y0002323465D02*
X0004606095Y0002289719D01*
X0004606095Y0002306592D02*
X0004665150Y0002306592D01*
X0004656714Y0002300968D01*
X0004651090Y0002295344D01*
X0004648277Y0002289719D01*
X0004639841Y0002357211D02*
X0004642653Y0002351587D01*
X0004645465Y0002348775D01*
X0004651090Y0002345962D01*
X0004653902Y0002345962D01*
X0004659526Y0002348775D01*
X0004662338Y0002351587D01*
X0004665150Y0002357211D01*
X0004665150Y0002368460D01*
X0004662338Y0002374084D01*
X0004659526Y0002376896D01*
X0004653902Y0002379708D01*
X0004651090Y0002379708D01*
X0004645465Y0002376896D01*
X0004642653Y0002374084D01*
X0004639841Y0002368460D01*
X0004639841Y0002357211D01*
X0004637029Y0002351587D01*
X0004634217Y0002348775D01*
X0004628592Y0002345962D01*
X0004617344Y0002345962D01*
X0004611719Y0002348775D01*
X0004608907Y0002351587D01*
X0004606095Y0002357211D01*
X0004606095Y0002368460D01*
X0004608907Y0002374084D01*
X0004611719Y0002376896D01*
X0004617344Y0002379708D01*
X0004628592Y0002379708D01*
X0004634217Y0002376896D01*
X0004637029Y0002374084D01*
X0004639841Y0002368460D01*
X0004665150Y0002416266D02*
X0004665150Y0002421890D01*
X0004662338Y0002427515D01*
X0004659526Y0002430327D01*
X0004653902Y0002433139D01*
X0004642653Y0002435951D01*
X0004628592Y0002435951D01*
X0004617344Y0002433139D01*
X0004611719Y0002430327D01*
X0004608907Y0002427515D01*
X0004606095Y0002421890D01*
X0004606095Y0002416266D01*
X0004608907Y0002410642D01*
X0004611719Y0002407830D01*
X0004617344Y0002405017D01*
X0004628592Y0002402205D01*
X0004642653Y0002402205D01*
X0004653902Y0002405017D01*
X0004659526Y0002407830D01*
X0004662338Y0002410642D01*
X0004665150Y0002416266D01*
X0004665150Y0002455636D02*
X0004665150Y0002492194D01*
X0004642653Y0002472509D01*
X0004642653Y0002480945D01*
X0004639841Y0002486570D01*
X0004637029Y0002489382D01*
X0004631404Y0002492194D01*
X0004617344Y0002492194D01*
X0004611719Y0002489382D01*
X0004608907Y0002486570D01*
X0004606095Y0002480945D01*
X0004606095Y0002464073D01*
X0004608907Y0002458448D01*
X0004611719Y0002455636D01*
X0004665150Y0002528752D02*
X0004665150Y0002534376D01*
X0004662338Y0002540001D01*
X0004659526Y0002542813D01*
X0004653902Y0002545625D01*
X0004642653Y0002548437D01*
X0004628592Y0002548437D01*
X0004617344Y0002545625D01*
X0004611719Y0002542813D01*
X0004608907Y0002540001D01*
X0004606095Y0002534376D01*
X0004606095Y0002528752D01*
X0004608907Y0002523128D01*
X0004611719Y0002520316D01*
X0004617344Y0002517503D01*
X0004628592Y0002514691D01*
X0004642653Y0002514691D01*
X0004653902Y0002517503D01*
X0004659526Y0002520316D01*
X0004662338Y0002523128D01*
X0004665150Y0002528752D01*
X0004665150Y0002601868D02*
X0004665150Y0002573746D01*
X0004637029Y0002570934D01*
X0004639841Y0002573746D01*
X0004642653Y0002579371D01*
X0004642653Y0002593431D01*
X0004639841Y0002599056D01*
X0004637029Y0002601868D01*
X0004631404Y0002604680D01*
X0004617344Y0002604680D01*
X0004611719Y0002601868D01*
X0004608907Y0002599056D01*
X0004606095Y0002593431D01*
X0004606095Y0002579371D01*
X0004608907Y0002573746D01*
X0004611719Y0002570934D01*
D67*
X0004911810Y0001882125D02*
G75*
G03G03X0004691811Y0001662125J-0000220000D01X0004691811Y0001662125J-0000220000D01*
G01G01*
D68*
X0004958937Y0002399513D02*
X0004998307Y0002399513D01*
X0004998307Y0002408887D01*
X0004996433Y0002414511D01*
X0004992683Y0002418261D01*
X0004988934Y0002420136D01*
X0004981434Y0002422010D01*
X0004975810Y0002422010D01*
X0004968311Y0002420136D01*
X0004964562Y0002418261D01*
X0004960812Y0002414511D01*
X0004958937Y0002408887D01*
X0004958937Y0002399513D01*
X0004973935Y0002438883D02*
X0004973935Y0002468880D01*
X0005065236Y0002403844D02*
X0005104607Y0002403844D01*
X0005104607Y0002413218D01*
X0005102732Y0002418842D01*
X0005098982Y0002422592D01*
X0005095233Y0002424466D01*
X0005087734Y0002426341D01*
X0005082109Y0002426341D01*
X0005074610Y0002424466D01*
X0005070861Y0002422592D01*
X0005067111Y0002418842D01*
X0005065236Y0002413218D01*
X0005065236Y0002403844D01*
X0005080235Y0002443214D02*
X0005080235Y0002473210D01*
X0005065236Y0002458212D02*
X0005095233Y0002458212D01*
X0005197220Y0002427822D02*
X0005199095Y0002424073D01*
X0005199095Y0002418448D01*
X0005197220Y0002412824D01*
X0005193470Y0002409075D01*
X0005189721Y0002407200D01*
X0005182222Y0002405325D01*
X0005176598Y0002405325D01*
X0005169098Y0002407200D01*
X0005165349Y0002409075D01*
X0005161599Y0002412824D01*
X0005159725Y0002418448D01*
X0005159725Y0002422198D01*
X0005161599Y0002427822D01*
X0005163474Y0002429697D01*
X0005176598Y0002429697D01*
X0005176598Y0002422198D01*
X0005159725Y0002446570D02*
X0005199095Y0002446570D01*
X0005159725Y0002469067D01*
X0005199095Y0002469067D01*
X0005159725Y0002487815D02*
X0005199095Y0002487815D01*
X0005199095Y0002497188D01*
X0005197220Y0002502813D01*
X0005193470Y0002506562D01*
X0005189721Y0002508437D01*
X0005182222Y0002510312D01*
X0005176598Y0002510312D01*
X0005169098Y0002508437D01*
X0005165349Y0002506562D01*
X0005161599Y0002502813D01*
X0005159725Y0002497188D01*
X0005159725Y0002487815D01*
X0004903819Y0002403375D02*
X0004864449Y0002416499D01*
X0004903819Y0002429622D01*
X0004864449Y0002442745D02*
X0004903819Y0002442745D01*
X0004888821Y0002442745D02*
X0004890696Y0002446495D01*
X0004890696Y0002453994D01*
X0004888821Y0002457743D01*
X0004886946Y0002459618D01*
X0004883197Y0002461493D01*
X0004871948Y0002461493D01*
X0004868199Y0002459618D01*
X0004866324Y0002457743D01*
X0004864449Y0002453994D01*
X0004864449Y0002446495D01*
X0004866324Y0002442745D01*
X0004890696Y0002495239D02*
X0004864449Y0002495239D01*
X0004890696Y0002478366D02*
X0004870073Y0002478366D01*
X0004866324Y0002480241D01*
X0004864449Y0002483990D01*
X0004864449Y0002489614D01*
X0004866324Y0002493364D01*
X0004868199Y0002495239D01*
X0004866324Y0002512112D02*
X0004864449Y0002515861D01*
X0004864449Y0002523360D01*
X0004866324Y0002527110D01*
X0004870073Y0002528985D01*
X0004871948Y0002528985D01*
X0004875698Y0002527110D01*
X0004877572Y0002523360D01*
X0004877572Y0002517736D01*
X0004879447Y0002513986D01*
X0004883197Y0002512112D01*
X0004885072Y0002512112D01*
X0004888821Y0002513986D01*
X0004890696Y0002517736D01*
X0004890696Y0002523360D01*
X0004888821Y0002527110D01*
D67*
X0005508244Y0002989314D02*
X0005508244Y0001884984D01*
X0004551551Y0002989314D02*
X0005508244Y0002989314D01*
X0004551551Y0001471598D02*
X0004551551Y0002989314D01*
X0004693283Y0001471598D02*
X0004551551Y0001471598D01*
X0004691811Y0001662125D02*
X0004693283Y0001471598D01*
X0005511811Y0001882125D02*
X0004911810Y0001882125D01*
D69*
G36*
X0004576811Y0002957125D02*
X0004746811Y0002957125D01*
X0004746811Y0002627125D01*
X0004576811Y0002627125D01*
X0004576811Y0002957125D01*
X0004576811Y0002957125D01*
G37*
X0004576811Y0002957125D02*
X0004746811Y0002957125D01*
X0004746811Y0002627125D01*
X0004576811Y0002627125D01*
X0004576811Y0002957125D01*
M02*