%MOIN*%
%OFA0B0*%
%FSLAX46Y46*%
%IPPOS*%
%LPD*%
%AMREC1070*
4,1,3,
0.037401574803149581,0.16535433070866143,
-0.03740157480314963,0.16535433070866143,
-0.037401574803149581,-0.16535433070866143,
0.03740157480314963,-0.16535433070866143,
0*%
%AMREC1080*
4,1,3,
0.037401574803149588,0.15551181102362208,
-0.037401574803149623,0.15551181102362208,
-0.037401574803149588,-0.15551181102362208,
0.037401574803149623,-0.15551181102362208,
0*%
%AMREC1090*
4,1,3,
0.04787401574803149,0.041874015748031512,
-0.047874015748031504,0.041874015748031491,
-0.04787401574803149,-0.041874015748031512,
0.047874015748031504,-0.041874015748031491,
0*%
%ADD10C,0.0039370078740157488*%
%ADD11C,0.005905511811023622*%
%ADD12R,0.074803149606299218X0.33070866141732286*%
%ADD13R,0.074803149606299218X0.31102362204724415*%
%ADD14R,0.095748031496063X0.083748031496063011*%
%ADD15O,0.095748031496063X0.083748031496063011*%
%ADD16C,0.08070866141732283*%
%ADD17C,0.059055118110236227*%
%ADD18O,0.086614173228346469X0.18503937007874016*%
%ADD29C,0.0039370078740157488*%
%ADD30C,0.005905511811023622*%
%ADD31R,0.074803149606299218X0.33070866141732286*%
%ADD32R,0.074803149606299218X0.31102362204724415*%
%ADD33R,0.095748031496063X0.083748031496063011*%
%ADD34O,0.095748031496063X0.083748031496063011*%
%ADD35C,0.08070866141732283*%
%ADD36C,0.059055118110236227*%
%ADD37O,0.086614173228346469X0.18503937007874016*%
%ADD38C,0.0039370078740157488*%
%ADD39C,0.005905511811023622*%
%ADD40R,0.074803149606299218X0.33070866141732286*%
%ADD41R,0.074803149606299218X0.31102362204724415*%
%ADD42R,0.095748031496063X0.083748031496063011*%
%ADD43O,0.095748031496063X0.083748031496063011*%
%ADD44C,0.08070866141732283*%
%ADD45C,0.059055118110236227*%
%ADD46O,0.086614173228346469X0.18503937007874016*%
%ADD47C,0.0039370078740157488*%
%ADD48C,0.005905511811023622*%
%AMCOMP158*
4,1,3,
0.037401574803149581,0.16535433070866143,
-0.03740157480314963,0.16535433070866143,
-0.037401574803149581,-0.16535433070866143,
0.03740157480314963,-0.16535433070866143,
0*%
%ADD49COMP158*%
%AMCOMP159*
4,1,3,
0.037401574803149588,0.15551181102362208,
-0.037401574803149623,0.15551181102362208,
-0.037401574803149588,-0.15551181102362208,
0.037401574803149623,-0.15551181102362208,
0*%
%ADD50COMP159*%
%AMCOMP160*
4,1,3,
0.04787401574803149,0.041874015748031512,
-0.047874015748031504,0.041874015748031491,
-0.04787401574803149,-0.041874015748031512,
0.047874015748031504,-0.041874015748031491,
0*%
%ADD51COMP160*%
%ADD52O,0.095748031496063X0.083748031496063011*%
%ADD53C,0.08070866141732283*%
%ADD54C,0.059055118110236227*%
%ADD55O,0.086614173228346469X0.18503937007874016*%
%ADD56C,0.0039370078740157488*%
%ADD57C,0.005905511811023622*%
%ADD58R,0.074803149606299218X0.33070866141732286*%
%ADD59R,0.074803149606299218X0.31102362204724415*%
%ADD60R,0.095748031496063X0.083748031496063011*%
%ADD61O,0.095748031496063X0.083748031496063011*%
%ADD62C,0.08070866141732283*%
%ADD63C,0.059055118110236227*%
%ADD64O,0.086614173228346469X0.18503937007874016*%
%ADD65C,0.0039370078740157488*%
%ADD66C,0.005905511811023622*%
%ADD67R,0.074803149606299218X0.33070866141732286*%
%ADD68R,0.074803149606299218X0.31102362204724415*%
%ADD69R,0.095748031496063X0.083748031496063011*%
%ADD70O,0.095748031496063X0.083748031496063011*%
%ADD71C,0.08070866141732283*%
%ADD72C,0.059055118110236227*%
%ADD73O,0.086614173228346469X0.18503937007874016*%
%ADD74C,0.0039370078740157488*%
%ADD75C,0.005905511811023622*%
%ADD76R,0.074803149606299218X0.33070866141732286*%
%ADD77R,0.074803149606299218X0.31102362204724415*%
%ADD78R,0.095748031496063X0.083748031496063011*%
%ADD79O,0.095748031496063X0.083748031496063011*%
%ADD80C,0.08070866141732283*%
%ADD81C,0.059055118110236227*%
%ADD82O,0.086614173228346469X0.18503937007874016*%
%ADD83C,0.0039370078740157488*%
%ADD84C,0.005905511811023622*%
%ADD85R,0.074803149606299218X0.33070866141732286*%
%ADD86R,0.074803149606299218X0.31102362204724415*%
%ADD87R,0.095748031496063X0.083748031496063011*%
%ADD88O,0.095748031496063X0.083748031496063011*%
%ADD89C,0.08070866141732283*%
%ADD90C,0.059055118110236227*%
%ADD91O,0.086614173228346469X0.18503937007874016*%
%ADD92C,0.0039370078740157488*%
%ADD93C,0.005905511811023622*%
%ADD94R,0.074803149606299218X0.33070866141732286*%
%ADD95R,0.074803149606299218X0.31102362204724415*%
%ADD96R,0.095748031496063X0.083748031496063011*%
%ADD97O,0.095748031496063X0.083748031496063011*%
%ADD98C,0.08070866141732283*%
%ADD99C,0.059055118110236227*%
%ADD100O,0.086614173228346469X0.18503937007874016*%
%ADD101C,0.0039370078740157488*%
%ADD102C,0.005905511811023622*%
%ADD103R,0.074803149606299218X0.33070866141732286*%
%ADD104R,0.074803149606299218X0.31102362204724415*%
%ADD105R,0.095748031496063X0.083748031496063011*%
%ADD106O,0.095748031496063X0.083748031496063011*%
%ADD107C,0.08070866141732283*%
%ADD108C,0.059055118110236227*%
%ADD109O,0.086614173228346469X0.18503937007874016*%
G01G01*
D10*
D11*
X0000914960Y0001346220D02*
G75*
G03G03X0001134960Y0001566220J0000220000D01X0001134960Y0001566220J0000220000D01*
G01G01*
X0000318527Y0000239031D02*
X0000318527Y0001343362D01*
X0001275220Y0000239031D02*
X0000318527Y0000239031D01*
X0001275220Y0001756748D02*
X0001275220Y0000239031D01*
X0001133488Y0001756748D02*
X0001275220Y0001756748D01*
X0001134960Y0001566220D02*
X0001133488Y0001756748D01*
X0000314960Y0001346220D02*
X0000914960Y0001346220D01*
D12*
X0000644511Y0001059897D03*
X0000944511Y0001059897D03*
D13*
X0000845692Y0001069740D03*
X0000743330Y0001069740D03*
D14*
X0001202779Y0001653204D03*
D15*
X0001202779Y0001553204D03*
X0001202779Y0001453204D03*
D14*
X0000407110Y0000878401D03*
D15*
X0000407110Y0000978401D03*
X0000407110Y0001078401D03*
X0000407110Y0001178401D03*
X0000407110Y0001278401D03*
D14*
X0000407110Y0000315803D03*
D15*
X0000407110Y0000415803D03*
X0000407110Y0000515803D03*
X0000407110Y0000615803D03*
X0000407110Y0000715803D03*
D16*
X0000824433Y0000439818D03*
X0000922858Y0000439818D03*
X0000745692Y0000439818D03*
X0000647267Y0000439818D03*
D17*
X0000873645Y0000357141D03*
X0000696480Y0000357141D03*
D18*
X0000560653Y0000357141D03*
X0001009472Y0000357141D03*
G04 next file*
G04 Gerber Fmt 4.6, Leading zero omitted, Abs format (unit mm)*
G04 Created by KiCad (PCBNEW 4.0.7) date Tuesday, 06 March 2018 'PMt' 15:17:41*
G01G01*
G04 APERTURE LIST*
G04 APERTURE END LIST*
D29*
D30*
X0001722834Y0001882125D02*
G75*
G03G03X0001502834Y0001662125J-0000220000D01X0001502834Y0001662125J-0000220000D01*
G01G01*
X0002319267Y0002989314D02*
X0002319267Y0001884984D01*
X0001362574Y0002989314D02*
X0002319267Y0002989314D01*
X0001362574Y0001471598D02*
X0001362574Y0002989314D01*
X0001504307Y0001471598D02*
X0001362574Y0001471598D01*
X0001502834Y0001662125D02*
X0001504307Y0001471598D01*
X0002322834Y0001882125D02*
X0001722834Y0001882125D01*
D31*
X0001993283Y0002168448D03*
X0001693283Y0002168448D03*
D32*
X0001792102Y0002158606D03*
X0001894464Y0002158606D03*
D33*
X0001435015Y0001575141D03*
D34*
X0001435015Y0001675141D03*
X0001435015Y0001775141D03*
D33*
X0002230685Y0002349944D03*
D34*
X0002230685Y0002249944D03*
X0002230685Y0002149944D03*
X0002230685Y0002049944D03*
X0002230685Y0001949944D03*
D33*
X0002230685Y0002912543D03*
D34*
X0002230685Y0002812543D03*
X0002230685Y0002712543D03*
X0002230685Y0002612543D03*
X0002230685Y0002512543D03*
D35*
X0001813362Y0002788527D03*
X0001714937Y0002788527D03*
X0001892102Y0002788527D03*
X0001990527Y0002788527D03*
D36*
X0001764149Y0002871204D03*
X0001941314Y0002871204D03*
D37*
X0002077141Y0002871204D03*
X0001628322Y0002871204D03*
G04 next file*
G04 Gerber Fmt 4.6, Leading zero omitted, Abs format (unit mm)*
G04 Created by KiCad (PCBNEW 4.0.7) date Tuesday, 06 March 2018 'PMt' 15:17:41*
G01G01*
G04 APERTURE LIST*
G04 APERTURE END LIST*
D38*
D39*
X0001977952Y0001346220D02*
G75*
G03G03X0002197952Y0001566220J0000220000D01X0002197952Y0001566220J0000220000D01*
G01G01*
X0001381519Y0000239031D02*
X0001381519Y0001343362D01*
X0002338212Y0000239031D02*
X0001381519Y0000239031D01*
X0002338212Y0001756748D02*
X0002338212Y0000239031D01*
X0002196480Y0001756748D02*
X0002338212Y0001756748D01*
X0002197952Y0001566220D02*
X0002196480Y0001756748D01*
X0001377952Y0001346220D02*
X0001977952Y0001346220D01*
D40*
X0001707503Y0001059897D03*
X0002007503Y0001059897D03*
D41*
X0001908685Y0001069740D03*
X0001806322Y0001069740D03*
D42*
X0002265771Y0001653204D03*
D43*
X0002265771Y0001553204D03*
X0002265771Y0001453204D03*
D42*
X0001470102Y0000878401D03*
D43*
X0001470102Y0000978401D03*
X0001470102Y0001078401D03*
X0001470102Y0001178401D03*
X0001470102Y0001278401D03*
D42*
X0001470102Y0000315803D03*
D43*
X0001470102Y0000415803D03*
X0001470102Y0000515803D03*
X0001470102Y0000615803D03*
X0001470102Y0000715803D03*
D44*
X0001887425Y0000439818D03*
X0001985850Y0000439818D03*
X0001808685Y0000439818D03*
X0001710259Y0000439818D03*
D45*
X0001936637Y0000357141D03*
X0001759472Y0000357141D03*
D46*
X0001623645Y0000357141D03*
X0002072464Y0000357141D03*
G04 next file*
G04 Gerber Fmt 4.6, Leading zero omitted, Abs format (unit mm)*
G04 Created by KiCad (PCBNEW 4.0.7) date Tuesday, 06 March 2018 'PMt' 15:17:41*
G01G01*
G04 APERTURE LIST*
G04 APERTURE END LIST*
D47*
D48*
X0000659842Y0001882125D02*
G75*
G03G03X0000439842Y0001662125J-0000220000D01X0000439842Y0001662125J-0000220000D01*
G01G01*
X0001256275Y0002989314D02*
X0001256275Y0001884984D01*
X0000299582Y0002989314D02*
X0001256275Y0002989314D01*
X0000299582Y0001471598D02*
X0000299582Y0002989314D01*
X0000441314Y0001471598D02*
X0000299582Y0001471598D01*
X0000439842Y0001662125D02*
X0000441314Y0001471598D01*
X0001259842Y0001882125D02*
X0000659842Y0001882125D01*
D49*
X0000930291Y0002168448D03*
X0000630291Y0002168448D03*
D50*
X0000729110Y0002158606D03*
X0000831472Y0002158606D03*
D51*
X0000372023Y0001575141D03*
D52*
X0000372023Y0001675141D03*
X0000372023Y0001775141D03*
D51*
X0001167692Y0002349944D03*
D52*
X0001167692Y0002249944D03*
X0001167692Y0002149944D03*
X0001167692Y0002049944D03*
X0001167692Y0001949944D03*
D51*
X0001167692Y0002912543D03*
D52*
X0001167692Y0002812543D03*
X0001167692Y0002712543D03*
X0001167692Y0002612543D03*
X0001167692Y0002512543D03*
D53*
X0000750370Y0002788527D03*
X0000651944Y0002788527D03*
X0000829110Y0002788527D03*
X0000927535Y0002788527D03*
D54*
X0000701157Y0002871204D03*
X0000878322Y0002871204D03*
D55*
X0001014149Y0002871204D03*
X0000565330Y0002871204D03*
G04 next file*
G04 Gerber Fmt 4.6, Leading zero omitted, Abs format (unit mm)*
G04 Created by KiCad (PCBNEW 4.0.7) date Tuesday, 06 March 2018 'PMt' 15:17:41*
G01G01*
G04 APERTURE LIST*
G04 APERTURE END LIST*
D56*
D57*
X0002785826Y0001882125D02*
G75*
G03G03X0002565826Y0001662125J-0000220000D01X0002565826Y0001662125J-0000220000D01*
G01G01*
X0003382259Y0002989314D02*
X0003382259Y0001884984D01*
X0002425566Y0002989314D02*
X0003382259Y0002989314D01*
X0002425566Y0001471598D02*
X0002425566Y0002989314D01*
X0002567299Y0001471598D02*
X0002425566Y0001471598D01*
X0002565826Y0001662125D02*
X0002567299Y0001471598D01*
X0003385826Y0001882125D02*
X0002785826Y0001882125D01*
D58*
X0003056275Y0002168448D03*
X0002756275Y0002168448D03*
D59*
X0002855094Y0002158606D03*
X0002957456Y0002158606D03*
D60*
X0002498007Y0001575141D03*
D61*
X0002498007Y0001675141D03*
X0002498007Y0001775141D03*
D60*
X0003293677Y0002349944D03*
D61*
X0003293677Y0002249944D03*
X0003293677Y0002149944D03*
X0003293677Y0002049944D03*
X0003293677Y0001949944D03*
D60*
X0003293677Y0002912543D03*
D61*
X0003293677Y0002812543D03*
X0003293677Y0002712543D03*
X0003293677Y0002612543D03*
X0003293677Y0002512543D03*
D62*
X0002876354Y0002788527D03*
X0002777929Y0002788527D03*
X0002955094Y0002788527D03*
X0003053519Y0002788527D03*
D63*
X0002827141Y0002871204D03*
X0003004307Y0002871204D03*
D64*
X0003140133Y0002871204D03*
X0002691314Y0002871204D03*
G04 next file*
G04 Gerber Fmt 4.6, Leading zero omitted, Abs format (unit mm)*
G04 Created by KiCad (PCBNEW 4.0.7) date Tuesday, 06 March 2018 'PMt' 15:17:41*
G01G01*
G04 APERTURE LIST*
G04 APERTURE END LIST*
D65*
D66*
X0003040944Y0001346220D02*
G75*
G03G03X0003260944Y0001566220J0000220000D01X0003260944Y0001566220J0000220000D01*
G01G01*
X0002444511Y0000239031D02*
X0002444511Y0001343362D01*
X0003401204Y0000239031D02*
X0002444511Y0000239031D01*
X0003401204Y0001756748D02*
X0003401204Y0000239031D01*
X0003259472Y0001756748D02*
X0003401204Y0001756748D01*
X0003260944Y0001566220D02*
X0003259472Y0001756748D01*
X0002440944Y0001346220D02*
X0003040944Y0001346220D01*
D67*
X0002770496Y0001059897D03*
X0003070496Y0001059897D03*
D68*
X0002971677Y0001069740D03*
X0002869314Y0001069740D03*
D69*
X0003328763Y0001653204D03*
D70*
X0003328763Y0001553204D03*
X0003328763Y0001453204D03*
D69*
X0002533094Y0000878401D03*
D70*
X0002533094Y0000978401D03*
X0002533094Y0001078401D03*
X0002533094Y0001178401D03*
X0002533094Y0001278401D03*
D69*
X0002533094Y0000315803D03*
D70*
X0002533094Y0000415803D03*
X0002533094Y0000515803D03*
X0002533094Y0000615803D03*
X0002533094Y0000715803D03*
D71*
X0002950417Y0000439818D03*
X0003048842Y0000439818D03*
X0002871677Y0000439818D03*
X0002773251Y0000439818D03*
D72*
X0002999629Y0000357141D03*
X0002822464Y0000357141D03*
D73*
X0002686637Y0000357141D03*
X0003135456Y0000357141D03*
G04 next file*
G04 Gerber Fmt 4.6, Leading zero omitted, Abs format (unit mm)*
G04 Created by KiCad (PCBNEW 4.0.7) date Tuesday, 06 March 2018 'PMt' 15:17:41*
G01G01*
G04 APERTURE LIST*
G04 APERTURE END LIST*
D74*
D75*
X0004103937Y0001346220D02*
G75*
G03G03X0004323937Y0001566220J0000220000D01X0004323937Y0001566220J0000220000D01*
G01G01*
X0003507503Y0000239031D02*
X0003507503Y0001343362D01*
X0004464196Y0000239031D02*
X0003507503Y0000239031D01*
X0004464196Y0001756748D02*
X0004464196Y0000239031D01*
X0004322464Y0001756748D02*
X0004464196Y0001756748D01*
X0004323937Y0001566220D02*
X0004322464Y0001756748D01*
X0003503937Y0001346220D02*
X0004103937Y0001346220D01*
D76*
X0003833488Y0001059897D03*
X0004133488Y0001059897D03*
D77*
X0004034669Y0001069740D03*
X0003932307Y0001069740D03*
D78*
X0004391755Y0001653204D03*
D79*
X0004391755Y0001553204D03*
X0004391755Y0001453204D03*
D78*
X0003596086Y0000878401D03*
D79*
X0003596086Y0000978401D03*
X0003596086Y0001078401D03*
X0003596086Y0001178401D03*
X0003596086Y0001278401D03*
D78*
X0003596086Y0000315803D03*
D79*
X0003596086Y0000415803D03*
X0003596086Y0000515803D03*
X0003596086Y0000615803D03*
X0003596086Y0000715803D03*
D80*
X0004013409Y0000439818D03*
X0004111834Y0000439818D03*
X0003934669Y0000439818D03*
X0003836244Y0000439818D03*
D81*
X0004062622Y0000357141D03*
X0003885456Y0000357141D03*
D82*
X0003749629Y0000357141D03*
X0004198448Y0000357141D03*
G04 next file*
G04 Gerber Fmt 4.6, Leading zero omitted, Abs format (unit mm)*
G04 Created by KiCad (PCBNEW 4.0.7) date Tuesday, 06 March 2018 'PMt' 15:17:41*
G01G01*
G04 APERTURE LIST*
G04 APERTURE END LIST*
D83*
D84*
X0003848818Y0001882125D02*
G75*
G03G03X0003628818Y0001662125J-0000220000D01X0003628818Y0001662125J-0000220000D01*
G01G01*
X0004445251Y0002989314D02*
X0004445251Y0001884984D01*
X0003488559Y0002989314D02*
X0004445251Y0002989314D01*
X0003488559Y0001471598D02*
X0003488559Y0002989314D01*
X0003630291Y0001471598D02*
X0003488559Y0001471598D01*
X0003628818Y0001662125D02*
X0003630291Y0001471598D01*
X0004448818Y0001882125D02*
X0003848818Y0001882125D01*
D85*
X0004119267Y0002168448D03*
X0003819267Y0002168448D03*
D86*
X0003918086Y0002158606D03*
X0004020448Y0002158606D03*
D87*
X0003561000Y0001575141D03*
D88*
X0003561000Y0001675141D03*
X0003561000Y0001775141D03*
D87*
X0004356669Y0002349944D03*
D88*
X0004356669Y0002249944D03*
X0004356669Y0002149944D03*
X0004356669Y0002049944D03*
X0004356669Y0001949944D03*
D87*
X0004356669Y0002912543D03*
D88*
X0004356669Y0002812543D03*
X0004356669Y0002712543D03*
X0004356669Y0002612543D03*
X0004356669Y0002512543D03*
D89*
X0003939346Y0002788527D03*
X0003840921Y0002788527D03*
X0004018086Y0002788527D03*
X0004116511Y0002788527D03*
D90*
X0003890133Y0002871204D03*
X0004067299Y0002871204D03*
D91*
X0004203125Y0002871204D03*
X0003754307Y0002871204D03*
G04 next file*
G04 Gerber Fmt 4.6, Leading zero omitted, Abs format (unit mm)*
G04 Created by KiCad (PCBNEW 4.0.7) date Tuesday, 06 March 2018 'PMt' 15:17:41*
G01G01*
G04 APERTURE LIST*
G04 APERTURE END LIST*
D92*
D93*
X0005166929Y0001346220D02*
G75*
G03G03X0005386929Y0001566220J0000220000D01X0005386929Y0001566220J0000220000D01*
G01G01*
X0004570496Y0000239031D02*
X0004570496Y0001343362D01*
X0005527188Y0000239031D02*
X0004570496Y0000239031D01*
X0005527188Y0001756748D02*
X0005527188Y0000239031D01*
X0005385456Y0001756748D02*
X0005527188Y0001756748D01*
X0005386929Y0001566220D02*
X0005385456Y0001756748D01*
X0004566929Y0001346220D02*
X0005166929Y0001346220D01*
D94*
X0004896480Y0001059897D03*
X0005196480Y0001059897D03*
D95*
X0005097661Y0001069740D03*
X0004995299Y0001069740D03*
D96*
X0005454748Y0001653204D03*
D97*
X0005454748Y0001553204D03*
X0005454748Y0001453204D03*
D96*
X0004659078Y0000878401D03*
D97*
X0004659078Y0000978401D03*
X0004659078Y0001078401D03*
X0004659078Y0001178401D03*
X0004659078Y0001278401D03*
D96*
X0004659078Y0000315803D03*
D97*
X0004659078Y0000415803D03*
X0004659078Y0000515803D03*
X0004659078Y0000615803D03*
X0004659078Y0000715803D03*
D98*
X0005076401Y0000439818D03*
X0005174826Y0000439818D03*
X0004997661Y0000439818D03*
X0004899236Y0000439818D03*
D99*
X0005125614Y0000357141D03*
X0004948448Y0000357141D03*
D100*
X0004812622Y0000357141D03*
X0005261440Y0000357141D03*
G04 next file*
G04 Gerber Fmt 4.6, Leading zero omitted, Abs format (unit mm)*
G04 Created by KiCad (PCBNEW 4.0.7) date Tuesday, 06 March 2018 'PMt' 15:17:41*
G01G01*
G04 APERTURE LIST*
G04 APERTURE END LIST*
D101*
D102*
X0004911810Y0001882125D02*
G75*
G03G03X0004691811Y0001662125J-0000220000D01X0004691811Y0001662125J-0000220000D01*
G01G01*
X0005508244Y0002989314D02*
X0005508244Y0001884984D01*
X0004551551Y0002989314D02*
X0005508244Y0002989314D01*
X0004551551Y0001471598D02*
X0004551551Y0002989314D01*
X0004693283Y0001471598D02*
X0004551551Y0001471598D01*
X0004691811Y0001662125D02*
X0004693283Y0001471598D01*
X0005511811Y0001882125D02*
X0004911810Y0001882125D01*
D103*
X0005182259Y0002168448D03*
X0004882259Y0002168448D03*
D104*
X0004981078Y0002158606D03*
X0005083440Y0002158606D03*
D105*
X0004623992Y0001575141D03*
D106*
X0004623992Y0001675141D03*
X0004623992Y0001775141D03*
D105*
X0005419661Y0002349944D03*
D106*
X0005419661Y0002249944D03*
X0005419661Y0002149944D03*
X0005419661Y0002049944D03*
X0005419661Y0001949944D03*
D105*
X0005419661Y0002912543D03*
D106*
X0005419661Y0002812543D03*
X0005419661Y0002712543D03*
X0005419661Y0002612543D03*
X0005419661Y0002512543D03*
D107*
X0005002338Y0002788527D03*
X0004903913Y0002788527D03*
X0005081078Y0002788527D03*
X0005179503Y0002788527D03*
D108*
X0004953125Y0002871204D03*
X0005130291Y0002871204D03*
D109*
X0005266118Y0002871204D03*
X0004817299Y0002871204D03*
M02*