%
M48
METRIC,000.000
T01C0.50
%
T01
X032640Y017678
X032640Y018678
X032640Y019678
X032640Y020678
X032640Y021678
X034840Y022404
X034840Y021404
X034840Y020404
X034840Y019404
X034840Y018404
X034840Y017404
X021790Y034444
X020790Y034444
X019790Y034444
X018790Y034444
X017790Y034444
X016790Y034444
X016654Y036444
X017654Y036444
X018654Y036444
X019654Y036444
X020654Y036444
X016146Y047516
X017145Y047555
X018145Y047555
X019145Y047555
X020145Y047555
X021145Y047555
X021086Y045555
X020086Y045555
X019086Y045555
X018086Y045555
X017086Y045555
X034359Y062411
X034359Y061411
X034359Y060411
X034359Y059411
X034359Y058411
X034359Y057411
X032159Y057531
X032159Y058531
X032159Y059531
X032159Y060531
X032159Y061531
X032159Y062531
X059159Y057531
X059159Y058531
X059159Y059531
X059159Y060531
X059159Y061531
X059159Y062531
X061359Y062411
X061359Y061411
X061359Y060411
X061359Y059411
X061359Y058411
X061359Y057411
X059640Y017678
X059640Y018678
X059640Y019678
X059640Y020678
X059640Y021678
X061840Y022403
X061840Y021403
X061840Y020403
X061840Y019403
X061840Y018403
X061840Y017403
X086159Y057531
X086159Y058531
X086159Y059531
X086159Y060531
X086159Y061531
X086159Y062531
X088359Y062411
X088359Y061411
X088359Y060411
X088359Y059411
X088359Y058411
X088359Y057411
X086640Y017678
X086640Y018678
X086640Y019678
X086640Y020678
X086640Y021678
X088840Y022403
X088840Y021403
X088840Y020403
X088840Y019403
X088840Y018403
X088840Y017403
X113159Y057531
X113159Y058531
X113159Y059531
X113159Y060531
X113159Y061531
X113159Y062531
X115359Y062411
X115359Y061411
X115359Y060411
X115359Y059411
X115359Y058411
X115359Y057411
X113640Y017678
X113640Y018678
X113640Y019678
X113640Y020678
X113640Y021678
X115840Y022404
X115840Y021404
X115840Y020404
X115840Y019404
X115840Y018404
X115840Y017404
X140159Y057531
X140159Y058531
X140159Y059531
X140159Y060531
X140159Y061531
X140159Y062531
X142159Y057812
X142159Y058812
X142159Y059812
X142159Y060812
X142159Y061812
X140640Y017678
X140640Y018678
X140640Y019678
X140640Y020678
X140640Y021678
X142640Y017269
X142640Y018269
X142640Y019269
X142640Y020269
X142640Y021269
X142640Y022269
X043146Y047516
X044145Y047555
X045145Y047555
X046145Y047555
X047145Y047555
X048145Y047555
X048086Y045555
X047086Y045555
X046086Y045555
X045086Y045555
X044086Y045555
X048790Y034444
X047790Y034444
X046790Y034444
X045790Y034444
X044790Y034444
X043790Y034444
X043654Y036444
X044654Y036444
X045654Y036444
X046654Y036444
X047654Y036444
X071145Y047555
X072145Y047555
X073145Y047555
X074145Y047555
X075145Y047555
X076145Y047555
X076086Y045555
X075086Y045555
X074086Y045555
X073086Y045555
X072086Y045555
X076790Y034444
X075790Y034444
X074790Y034444
X073790Y034444
X072790Y034444
X071790Y034444
X071654Y036444
X072654Y036444
X073654Y036444
X074654Y036444
X075654Y036444
X097146Y047516
X098145Y047555
X099145Y047555
X100145Y047555
X101145Y047555
X102145Y047555
X102086Y045555
X101086Y045555
X100086Y045555
X099086Y045555
X098086Y045555
X102790Y034444
X101790Y034444
X100790Y034444
X099790Y034444
X098790Y034444
X097790Y034444
X097654Y036444
X098654Y036444
X099654Y036444
X100654Y036444
X101654Y036444
X125145Y047555
X126145Y047555
X127145Y047555
X128145Y047555
X129145Y047555
X130145Y047555
X130086Y045555
X129086Y045555
X128086Y045555
X127086Y045555
X126086Y045555
X130790Y034444
X129790Y034444
X128790Y034444
X127790Y034444
X126790Y034444
X125790Y034444
X125654Y036444
X126654Y036444
X127654Y036444
X128654Y036444
X129654Y036444
X007359Y058411
X007359Y057411
X007359Y056411
X007359Y055411
X007359Y054411
X007359Y053411
X005359Y058344
X005359Y057344
X005359Y056344
X005359Y055344
X005359Y054344
X005359Y053344
X007840Y022404
X007840Y021404
X007840Y020404
X007840Y019404
X007840Y018404
X007840Y017404
X005840Y022573
X005840Y021573
X005840Y020573
X005840Y019573
X005840Y018573
X005840Y017573
X017365Y005821
X018365Y005821
X019365Y005821
X020365Y005821
X021365Y005821
X022365Y005821
X018088Y003821
X019088Y003821
X020088Y003821
X021088Y003821
X022088Y003821
X045365Y005821
X046365Y005821
X047365Y005821
X048365Y005821
X049365Y005821
X050365Y005821
X046088Y003821
X047088Y003821
X048088Y003821
X049088Y003821
X050088Y003821
X072365Y005821
X073365Y005821
X074365Y005821
X075365Y005821
X076365Y005821
X077365Y005821
X073088Y003821
X074088Y003821
X075088Y003821
X076088Y003821
X077088Y003821
X099365Y005821
X100365Y005821
X101365Y005821
X102365Y005821
X103365Y005821
X104365Y005821
X099088Y003821
X100088Y003821
X101088Y003821
X102088Y003821
X103088Y003821
X104088Y003821
X127365Y005821
X128365Y005821
X129365Y005821
X130365Y005821
X131365Y005821
X132365Y005821
X128088Y003821
X129088Y003821
X130088Y003821
X131088Y003821
X132088Y003821
X131699Y076178
X130699Y076178
X129699Y076178
X128699Y076178
X127699Y076178
X126699Y076178
X131525Y078178
X130525Y078178
X129525Y078178
X128525Y078178
X127525Y078178
X126525Y078178
X101699Y076178
X100699Y076178
X099699Y076178
X098699Y076178
X097699Y076178
X096699Y076178
X101525Y078178
X100525Y078178
X099525Y078178
X098525Y078178
X097525Y078178
X096525Y078178
X073699Y076178
X072699Y076178
X071699Y076178
X070699Y076178
X069699Y076178
X068699Y076178
X073525Y078178
X072525Y078178
X071525Y078178
X070525Y078178
X069525Y078178
X068525Y078178
X046699Y076178
X045699Y076178
X044699Y076178
X043699Y076178
X042699Y076178
X041699Y076178
X046525Y078178
X045525Y078178
X044525Y078178
X043525Y078178
X042525Y078178
X041525Y078178
X019699Y076178
X018699Y076178
X017699Y076178
X016699Y076178
X015699Y076178
X014699Y076178
X019525Y078178
X018525Y078178
X017525Y078178
X016525Y078178
X015525Y078178
X014525Y078178
M30