%
M48
METRIC,000.000
T01C0.41
T02C0.81
T03C0.91
T04C0.99
T05C1.02
T06C1.09
T10C0.50
%
T01
X012651Y014727
X016403Y022827
X018051Y022809
X018803Y022809
X019265Y030947
X019517Y022037
X020055Y018837
X021252Y018278
X021711Y030013
X022252Y022977
X022362Y021623
X023771Y018966
X024254Y022128
X025750Y027117
X026004Y028067
X026151Y021740
X026604Y032867
X026832Y028296
X027594Y032867
X027619Y028296
X028356Y032867
X028851Y021176
X028890Y025756
X029626Y029964
X029712Y017917
X030160Y023724
X030413Y029820
X030413Y029820
X030652Y010678
X031176Y029820
X054348Y068272
X050596Y060172
X048948Y060190
X048196Y060190
X047734Y052052
X047482Y060962
X046944Y064162
X045747Y064721
X045288Y052986
X044747Y060022
X044637Y061376
X043228Y064033
X042745Y060871
X041249Y055882
X040995Y054932
X040848Y061259
X040396Y050132
X040167Y054704
X039405Y050132
X039379Y054704
X038643Y050132
X038148Y061823
X038110Y057244
X037373Y053035
X037287Y065081
X036839Y059276
X036586Y053180
X036586Y053180
X036347Y072321
X035824Y053180
X039651Y014727
X043403Y022827
X045051Y022809
X045803Y022809
X046265Y030947
X046517Y022037
X047055Y018837
X048252Y018278
X048711Y030013
X049252Y022977
X049362Y021623
X050771Y018966
X051254Y022128
X052750Y027117
X053004Y028067
X053151Y021740
X053604Y032867
X053832Y028296
X054594Y032867
X054620Y028296
X055356Y032867
X055851Y021176
X055890Y025756
X056626Y029964
X056712Y017917
X057160Y023724
X057414Y029820
X057414Y029820
X057652Y010678
X058176Y029820
X027348Y068272
X023596Y060172
X021948Y060190
X021196Y060190
X020734Y052052
X020482Y060962
X019944Y064162
X018747Y064721
X018288Y052986
X017747Y060022
X017637Y061376
X016228Y064033
X015745Y060871
X014249Y055882
X013995Y054932
X013848Y061259
X013396Y050132
X013167Y054704
X012405Y050132
X012380Y054704
X011643Y050132
X011148Y061823
X011110Y057244
X010373Y053035
X010287Y065081
X009840Y059275
X009586Y053180
X009586Y053180
X009347Y072321
X008824Y053180
X081348Y068272
X077596Y060172
X075948Y060190
X075196Y060190
X074734Y052052
X074482Y060962
X073944Y064162
X072747Y064721
X072288Y052986
X071747Y060022
X071637Y061376
X070228Y064033
X069745Y060871
X068249Y055882
X067995Y054932
X067848Y061259
X067396Y050132
X067167Y054704
X066405Y050132
X066380Y054704
X065643Y050132
X065147Y061823
X065110Y057244
X064373Y053035
X064287Y065081
X063839Y059276
X063586Y053180
X063586Y053180
X063347Y072321
X062824Y053180
X066651Y014727
X070403Y022827
X072051Y022809
X072803Y022809
X073265Y030947
X073517Y022037
X074055Y018837
X075252Y018278
X075711Y030013
X076252Y022977
X076362Y021623
X077771Y018966
X078254Y022128
X079750Y027117
X080004Y028067
X080151Y021740
X080604Y032867
X080832Y028296
X081594Y032867
X081620Y028296
X082356Y032867
X082851Y021176
X082890Y025756
X083626Y029964
X083712Y017917
X084160Y023724
X084414Y029820
X084414Y029820
X084652Y010678
X085176Y029820
X093651Y014727
X097403Y022827
X099051Y022809
X099803Y022809
X100265Y030947
X100517Y022037
X101055Y018837
X102252Y018278
X102711Y030013
X103252Y022977
X103362Y021623
X104771Y018966
X105254Y022128
X106750Y027117
X107004Y028067
X107151Y021740
X107604Y032867
X107832Y028296
X108594Y032867
X108620Y028296
X109356Y032867
X109851Y021176
X109890Y025756
X110626Y029964
X110712Y017917
X111160Y023724
X111414Y029820
X111414Y029820
X111652Y010678
X112176Y029820
X108348Y068272
X104596Y060172
X102948Y060190
X102196Y060190
X101734Y052052
X101482Y060962
X100944Y064162
X099747Y064721
X099288Y052986
X098747Y060022
X098637Y061376
X097228Y064033
X096745Y060871
X095249Y055882
X094995Y054932
X094848Y061259
X094396Y050132
X094167Y054704
X093405Y050132
X093380Y054704
X092643Y050132
X092148Y061823
X092110Y057244
X091373Y053035
X091287Y065081
X090840Y059276
X090586Y053180
X090586Y053180
X090347Y072321
X089824Y053180
X120651Y014727
X124403Y022827
X126051Y022809
X126803Y022809
X127265Y030947
X127517Y022037
X128055Y018837
X129252Y018278
X129711Y030013
X130252Y022977
X130362Y021623
X131771Y018966
X132254Y022128
X133750Y027117
X134004Y028067
X134151Y021740
X134604Y032867
X134832Y028296
X135594Y032867
X135620Y028296
X136356Y032867
X136851Y021176
X136890Y025756
X137626Y029964
X137712Y017917
X138160Y023724
X138414Y029820
X138414Y029820
X138652Y010678
X139176Y029820
X135348Y068272
X131596Y060172
X129948Y060190
X129196Y060190
X128734Y052052
X128482Y060962
X127944Y064162
X126747Y064721
X126288Y052986
X125747Y060022
X125637Y061376
X124228Y064033
X123745Y060871
X122249Y055882
X121995Y054932
X121848Y061259
X121396Y050132
X121167Y054704
X120405Y050132
X120380Y054704
X119643Y050132
X119148Y061823
X119110Y057244
X118373Y053035
X118287Y065081
X117840Y059276
X117586Y053180
X117586Y053180
X117347Y072321
X116824Y053180
T02
X012433Y011979
X013230Y026797
X013347Y020071
X014602Y014427
X022918Y015910
X025407Y013884
X026096Y018898
X029921Y015458
X054566Y071020
X053769Y056202
X053652Y062928
X052397Y068572
X044081Y067089
X041592Y069115
X040904Y064102
X037078Y067541
X039433Y011979
X040230Y026797
X040347Y020071
X041602Y014427
X049918Y015910
X052407Y013884
X053096Y018898
X056921Y015458
X027566Y071020
X026769Y056202
X026652Y062928
X025397Y068572
X017081Y067089
X014592Y069115
X013904Y064102
X010078Y067541
X081566Y071020
X080769Y056202
X080652Y062928
X079397Y068572
X071081Y067089
X068592Y069115
X067904Y064102
X064078Y067541
X066433Y011979
X067230Y026797
X067347Y020071
X068602Y014427
X076918Y015910
X079407Y013884
X080096Y018898
X083921Y015458
X093433Y011979
X094230Y026797
X094347Y020071
X095602Y014427
X103918Y015910
X106407Y013884
X107096Y018898
X110921Y015458
X108566Y071020
X107769Y056202
X107652Y062928
X106397Y068572
X098081Y067089
X095592Y069115
X094904Y064102
X091078Y067541
X120433Y011979
X121230Y026797
X121347Y020071
X122602Y014427
X130918Y015910
X133407Y013884
X134096Y018898
X137921Y015458
X135566Y071020
X134769Y056202
X134652Y062928
X133397Y068572
X125081Y067089
X122592Y069115
X121904Y064102
X118078Y067541
T03
X016502Y011877
X019001Y011877
X021003Y011877
X023502Y011877
X050497Y071122
X047998Y071122
X045996Y071122
X043497Y071122
X043502Y011877
X046001Y011877
X048003Y011877
X050502Y011877
X023497Y071122
X020998Y071122
X018996Y071122
X016497Y071122
X077497Y071122
X074998Y071122
X072996Y071122
X070497Y071122
X070502Y011877
X073001Y011877
X075003Y011877
X077502Y011877
X097502Y011877
X100001Y011877
X102003Y011877
X104502Y011877
X104497Y071122
X101998Y071122
X099996Y071122
X097497Y071122
X124502Y011877
X127001Y011877
X129002Y011877
X131502Y011877
X131497Y071122
X128997Y071122
X126996Y071122
X124497Y071122
T04
X020000Y009500G85X020000Y009500
X020000Y009500G85X020000Y009500
X047000Y073500G85X047000Y073500
X047000Y073500G85X047000Y073500
X047000Y009500G85X047000Y009500
X047000Y009500G85X047000Y009500
X020000Y073500G85X020000Y073500
X020000Y073500G85X020000Y073500
X074000Y073500G85X074000Y073500
X074000Y073500G85X074000Y073500
X074000Y009500G85X074000Y009500
X074000Y009500G85X074000Y009500
X101000Y009500G85X101000Y009500
X101000Y009500G85X101000Y009500
X101000Y073500G85X101000Y073500
X101000Y073500G85X101000Y073500
X128000Y009500G85X128000Y009500
X128000Y009500G85X128000Y009500
X128000Y073500G85X128000Y073500
X128000Y073500G85X128000Y073500
T05
X010401Y033177
X010401Y030637
X010401Y028097
X010401Y025557
X010401Y023017
X010401Y018887
X010401Y016347
X010401Y013807
X010401Y011267
X010401Y008727
X030612Y042697
X030612Y040157
X030612Y037617
X056598Y049822
X056598Y052362
X056598Y054902
X056598Y057442
X056598Y059982
X056598Y064111
X056598Y066652
X056598Y069192
X056598Y071732
X056598Y074272
X036387Y040302
X036387Y042842
X036387Y045382
X037401Y033177
X037401Y030637
X037401Y028097
X037401Y025557
X037401Y023017
X037401Y018887
X037401Y016347
X037401Y013807
X037401Y011267
X037401Y008727
X057612Y042697
X057612Y040157
X057612Y037617
X029598Y049822
X029598Y052362
X029598Y054902
X029598Y057442
X029598Y059982
X029598Y064111
X029598Y066652
X029598Y069192
X029598Y071732
X029598Y074272
X009387Y040302
X009387Y042842
X009387Y045382
X083598Y049822
X083598Y052362
X083598Y054902
X083598Y057442
X083598Y059982
X083598Y064111
X083598Y066652
X083598Y069192
X083598Y071732
X083598Y074272
X063387Y040302
X063387Y042842
X063387Y045382
X064400Y033177
X064400Y030637
X064400Y028097
X064400Y025557
X064400Y023017
X064400Y018887
X064400Y016347
X064400Y013807
X064400Y011267
X064400Y008727
X084612Y042697
X084612Y040157
X084612Y037617
X091401Y033177
X091401Y030637
X091401Y028097
X091401Y025557
X091401Y023017
X091401Y018887
X091401Y016347
X091401Y013807
X091401Y011267
X091401Y008727
X111612Y042697
X111612Y040157
X111612Y037617
X110598Y049822
X110598Y052362
X110598Y054902
X110598Y057442
X110598Y059982
X110598Y064111
X110598Y066652
X110598Y069192
X110598Y071732
X110598Y074272
X090387Y040302
X090387Y042842
X090387Y045382
X118401Y033177
X118401Y030637
X118401Y028097
X118401Y025557
X118401Y023017
X118401Y018887
X118401Y016347
X118401Y013807
X118401Y011267
X118401Y008727
X138612Y042697
X138612Y040157
X138612Y037617
X137598Y049822
X137598Y052362
X137598Y054902
X137598Y057442
X137598Y059982
X137598Y064111
X137598Y066652
X137598Y069192
X137598Y071732
X137598Y074272
X117387Y040302
X117387Y042842
X117387Y045382
T06
X017752Y009776
X022252Y009776
X049247Y073223
X044747Y073223
X044752Y009776
X049252Y009776
X022247Y073223
X017747Y073223
X076247Y073223
X071747Y073223
X071752Y009776
X076252Y009776
X098752Y009776
X103252Y009776
X103247Y073223
X098747Y073223
X125752Y009776
X130252Y009776
X130247Y073223
X125747Y073223
T10
X032702Y017384
X032702Y018384
X032702Y019384
X032702Y020384
X032702Y021384
X032702Y022384
X034902Y022109
X034902Y021109
X034902Y020109
X034902Y019109
X034902Y018109
X021852Y035149
X020852Y035149
X019852Y035149
X018852Y035149
X017852Y035149
X016852Y035149
X017286Y037149
X018286Y037149
X019286Y037149
X020286Y037149
X017083Y047849
X018083Y047849
X019083Y047849
X020083Y047849
X021083Y047849
X021740Y045849
X020740Y045849
X019740Y045849
X018740Y045849
X017740Y045849
X016740Y045849
X034297Y061705
X034297Y060705
X034297Y059705
X034297Y058705
X034297Y057705
X032097Y057825
X032097Y058825
X032097Y059825
X032097Y060825
X032097Y061825
X032097Y062825
X059097Y057825
X059097Y058825
X059097Y059825
X059097Y060825
X059097Y061825
X059097Y062825
X061297Y061705
X061297Y060705
X061297Y059705
X061297Y058705
X061297Y057705
X059702Y017384
X059702Y018384
X059702Y019384
X059702Y020384
X059702Y021384
X059702Y022384
X061902Y022109
X061902Y021109
X061902Y020109
X061902Y019109
X061902Y018109
X086097Y057825
X086097Y058825
X086097Y059825
X086097Y060825
X086097Y061825
X086097Y062825
X088297Y061705
X088297Y060705
X088297Y059705
X088297Y058705
X088297Y057705
X086702Y017384
X086702Y018384
X086702Y019384
X086702Y020384
X086702Y021384
X086702Y022384
X088902Y022109
X088902Y021109
X088902Y020109
X088902Y019109
X088902Y018109
X113097Y057825
X113097Y058825
X113097Y059825
X113097Y060825
X113097Y061825
X113097Y062825
X115297Y062705
X115297Y061705
X115297Y060705
X115297Y059705
X115297Y058705
X115297Y057705
X113702Y017384
X113702Y018384
X113702Y019384
X113702Y020384
X113702Y021384
X113702Y022384
X115902Y022109
X115902Y021109
X115902Y020109
X115902Y019109
X115902Y018109
X140097Y057825
X140097Y058825
X140097Y059825
X140097Y060825
X140097Y061825
X140097Y062825
X142097Y057549
X142097Y058549
X142097Y059549
X142097Y060549
X142097Y061549
X142097Y062549
X140702Y017384
X140702Y018384
X140702Y019384
X140702Y020384
X140702Y021384
X140702Y022384
X142702Y017858
X142702Y018858
X142702Y019858
X142702Y020858
X142702Y021858
X142702Y022858
X044083Y047849
X045083Y047849
X046083Y047849
X047083Y047849
X048083Y047849
X048740Y045849
X047740Y045849
X046740Y045849
X045740Y045849
X044740Y045849
X043740Y045849
X048852Y035149
X047852Y035149
X046852Y035149
X045852Y035149
X044852Y035149
X043852Y035149
X044286Y037149
X045286Y037149
X046286Y037149
X047286Y037149
X072083Y047849
X073083Y047849
X074083Y047849
X075083Y047849
X076083Y047849
X076740Y045849
X075740Y045849
X074740Y045849
X073740Y045849
X072740Y045849
X071740Y045849
X076852Y035149
X075852Y035149
X074852Y035149
X073852Y035149
X072852Y035149
X071852Y035149
X072286Y037149
X073286Y037149
X074286Y037149
X075286Y037149
X098083Y047849
X099083Y047849
X100083Y047849
X101083Y047849
X102083Y047849
X102740Y045849
X101740Y045849
X100740Y045849
X099740Y045849
X098740Y045849
X097740Y045849
X102852Y035149
X101852Y035149
X100852Y035149
X099852Y035149
X098852Y035149
X097852Y035149
X098286Y037149
X099286Y037149
X100286Y037149
X101286Y037149
X126083Y047849
X127083Y047849
X128083Y047849
X129083Y047849
X130083Y047849
X130740Y045849
X129740Y045849
X128740Y045849
X127740Y045849
X126740Y045849
X125740Y045849
X130852Y035149
X129852Y035149
X128852Y035149
X127852Y035149
X126852Y035149
X125852Y035149
X126286Y037149
X127286Y037149
X128286Y037149
X129286Y037149
X007297Y061705
X007297Y060705
X007297Y059705
X007297Y058705
X007297Y057705
X005297Y062195
X005297Y061195
X005297Y060195
X005297Y059195
X005297Y058195
X005297Y057195
X007902Y022109
X007902Y021109
X007902Y020109
X007902Y019109
X007902Y018109
X005902Y022396
X005902Y021396
X005902Y020396
X005902Y019396
X005902Y018396
X005902Y017396
X017427Y006527
X018427Y006527
X019427Y006527
X020427Y006527
X021427Y006527
X022427Y006527
X018033Y004527
X019033Y004527
X020033Y004527
X021033Y004527
X022033Y004527
X045427Y006527
X046427Y006527
X047427Y006527
X048427Y006527
X049427Y006527
X050427Y006527
X046033Y004527
X047033Y004527
X048033Y004527
X049033Y004527
X050033Y004527
X072427Y006527
X073427Y006527
X074427Y006527
X075427Y006527
X076427Y006527
X077427Y006527
X073033Y004527
X074033Y004527
X075033Y004527
X076033Y004527
X077033Y004527
X098427Y006527
X099427Y006527
X100427Y006527
X101427Y006527
X102427Y006527
X103427Y006527
X099033Y004527
X100033Y004527
X101033Y004527
X102033Y004527
X103033Y004527
X127427Y006527
X128426Y006527
X129426Y006527
X130426Y006527
X131427Y006527
X132427Y006527
X128032Y004527
X129032Y004527
X130032Y004527
X131032Y004527
X132033Y004527
X130637Y076472
X129637Y076472
X128637Y076472
X127637Y076472
X126637Y076472
X131020Y078472
X130020Y078472
X129020Y078472
X128020Y078472
X127020Y078472
X100637Y076472
X099637Y076472
X098637Y076472
X097637Y076472
X096637Y076472
X101020Y078472
X100020Y078472
X099020Y078472
X098020Y078472
X097020Y078472
X072637Y076472
X071637Y076472
X070637Y076472
X069637Y076472
X068637Y076472
X073020Y078472
X072020Y078472
X071020Y078472
X070020Y078472
X069020Y078472
X045637Y076472
X044637Y076472
X043637Y076472
X042637Y076472
X041637Y076472
X046020Y078472
X045020Y078472
X044020Y078472
X043020Y078472
X042020Y078472
X018637Y076472
X017637Y076472
X016637Y076472
X015637Y076472
X014637Y076472
X019020Y078472
X018020Y078472
X017020Y078472
X016020Y078472
X015020Y078472
M30