%
M48
METRIC,000.000
T01C0.41
T02C0.81
T03C0.91
T04C0.99
T05C1.02
T06C1.09
T10C0.50
%
T01
X012589Y014021
X016341Y022121
X017989Y022103
X018741Y022103
X019203Y030241
X019455Y021331
X019993Y018131
X021190Y017572
X021649Y029307
X022190Y022271
X022300Y020917
X023709Y018260
X024192Y021422
X024441Y032171
X025673Y028285
X025940Y022720
X026089Y021034
X027131Y023779
X028789Y020470
X029650Y017211
X030590Y023622
X030590Y009972
X054410Y067978
X050658Y059878
X049010Y059896
X048258Y059896
X047796Y051758
X047544Y060668
X047006Y063868
X045809Y064427
X045350Y052692
X044809Y059728
X044699Y061082
X043290Y063739
X042807Y060577
X042558Y049827
X041326Y053714
X041059Y059279
X040910Y060965
X039868Y058220
X038210Y061529
X037349Y064788
X036409Y058377
X036409Y072027
X039589Y014021
X043341Y022121
X044989Y022103
X045741Y022103
X046203Y030241
X046455Y021331
X046993Y018131
X048190Y017572
X048649Y029307
X049190Y022271
X049300Y020917
X050709Y018260
X051192Y021422
X051441Y032171
X052673Y028285
X052940Y022720
X053089Y021034
X054131Y023779
X055789Y020470
X056650Y017211
X057590Y023622
X057590Y009972
X027410Y067978
X023658Y059878
X022010Y059896
X021258Y059896
X020796Y051758
X020544Y060668
X020006Y063868
X018809Y064427
X018350Y052692
X017809Y059728
X017699Y061082
X016290Y063739
X015807Y060577
X015558Y049827
X014326Y053714
X014059Y059279
X013910Y060965
X012868Y058220
X011210Y061529
X010349Y064788
X009409Y058377
X009409Y072027
X081410Y067978
X077658Y059878
X076010Y059896
X075258Y059896
X074796Y051758
X074544Y060668
X074006Y063868
X072809Y064427
X072350Y052692
X071809Y059728
X071699Y061082
X070290Y063739
X069807Y060577
X069558Y049827
X068326Y053714
X068059Y059279
X067910Y060965
X066868Y058220
X065209Y061529
X064349Y064788
X063409Y058377
X063409Y072027
X066589Y014021
X070341Y022121
X071989Y022103
X072741Y022103
X073203Y030241
X073455Y021331
X073993Y018131
X075190Y017572
X075649Y029307
X076190Y022271
X076300Y020917
X077709Y018260
X078192Y021422
X078441Y032171
X079673Y028285
X079940Y022720
X080089Y021034
X081131Y023779
X082789Y020470
X083650Y017211
X084590Y023622
X084590Y009972
X093589Y014021
X097341Y022121
X098989Y022103
X099741Y022103
X100203Y030241
X100455Y021331
X100993Y018131
X102190Y017572
X102649Y029307
X103190Y022271
X103300Y020917
X104709Y018260
X105192Y021422
X105441Y032171
X106673Y028285
X106940Y022720
X107089Y021034
X108131Y023779
X109789Y020470
X110650Y017211
X111590Y023622
X111590Y009972
X108410Y067978
X104658Y059878
X103010Y059896
X102258Y059896
X101796Y051758
X101544Y060668
X101006Y063868
X099809Y064427
X099350Y052692
X098809Y059728
X098699Y061082
X097290Y063739
X096807Y060577
X096558Y049827
X095326Y053714
X095059Y059279
X094910Y060965
X093868Y058220
X092210Y061529
X091349Y064788
X090409Y058377
X090409Y072027
X120589Y014021
X124341Y022121
X125989Y022103
X126741Y022103
X127203Y030241
X127455Y021331
X127993Y018131
X129190Y017572
X129649Y029307
X130190Y022271
X130300Y020917
X131709Y018260
X132192Y021422
X132441Y032171
X133673Y028285
X133940Y022720
X134089Y021034
X135131Y023779
X136789Y020470
X137650Y017211
X138590Y023622
X138590Y009972
X135410Y067978
X131658Y059878
X130008Y059896
X129258Y059896
X128794Y051758
X128544Y060668
X128006Y063868
X126809Y064427
X126350Y052692
X125809Y059728
X125699Y061082
X124290Y063739
X123807Y060577
X123558Y049827
X122326Y053714
X122059Y059279
X121910Y060965
X120868Y058220
X119210Y061529
X118349Y064788
X117409Y058377
X117409Y072027
T02
X012371Y011273
X013168Y026091
X013285Y019365
X014540Y013721
X022856Y015204
X025345Y013178
X026239Y018222
X027591Y029329
X029859Y014752
X054628Y070726
X053831Y055908
X053714Y062634
X052459Y068278
X044143Y066795
X041654Y068821
X040760Y063777
X039408Y052670
X037140Y067247
X039371Y011273
X040168Y026091
X040285Y019365
X041540Y013721
X049856Y015204
X052345Y013178
X053239Y018222
X054591Y029329
X056859Y014752
X027628Y070726
X026831Y055908
X026714Y062634
X025459Y068278
X017143Y066795
X014654Y068821
X013760Y063777
X012408Y052670
X010140Y067247
X081628Y070726
X080831Y055908
X080714Y062634
X079459Y068278
X071143Y066795
X068654Y068821
X067760Y063777
X066408Y052670
X064140Y067247
X066371Y011273
X067168Y026091
X067285Y019365
X068540Y013721
X076856Y015204
X079345Y013178
X080239Y018222
X081591Y029329
X083859Y014752
X093371Y011273
X094168Y026091
X094285Y019365
X095540Y013721
X103856Y015204
X106345Y013178
X107239Y018222
X108591Y029329
X110859Y014752
X108628Y070726
X107831Y055908
X107714Y062634
X106459Y068278
X098143Y066795
X095654Y068821
X094760Y063777
X093408Y052670
X091140Y067247
X120371Y011273
X121168Y026091
X121285Y019365
X122540Y013721
X130856Y015204
X133345Y013178
X134239Y018222
X135591Y029329
X137859Y014752
X135628Y070726
X134831Y055908
X134714Y062634
X133459Y068278
X125143Y066795
X122654Y068821
X121760Y063777
X120408Y052670
X118140Y067247
T03
X016440Y011171
X018939Y011171
X020941Y011171
X023440Y011171
X050559Y070828
X048060Y070828
X046058Y070828
X043559Y070828
X043440Y011171
X045939Y011171
X047941Y011171
X050440Y011171
X023559Y070828
X021060Y070828
X019058Y070828
X016559Y070828
X077559Y070828
X075060Y070828
X073058Y070828
X070559Y070828
X070440Y011171
X072939Y011171
X074941Y011171
X077440Y011171
X097440Y011171
X099939Y011171
X101941Y011171
X104440Y011171
X104559Y070828
X102060Y070828
X100058Y070828
X097559Y070828
X124440Y011171
X126939Y011171
X128941Y011171
X131440Y011171
X131559Y070828
X129060Y070828
X127058Y070828
X124559Y070828
T04
X008000Y006000G85X008000Y006000
X008000Y006000G85X008000Y006000
X059000Y076000G85X059000Y076000
X059000Y076000G85X059000Y076000
X035000Y006000G85X035000Y006000
X035000Y006000G85X035000Y006000
X032000Y076000G85X032000Y076000
X032000Y076000G85X032000Y076000
X086000Y076000G85X086000Y076000
X086000Y076000G85X086000Y076000
X062000Y006000G85X062000Y006000
X062000Y006000G85X062000Y006000
X089000Y006000G85X089000Y006000
X089000Y006000G85X089000Y006000
X113000Y076000G85X113000Y076000
X113000Y076000G85X113000Y076000
X116000Y006000G85X116000Y006000
X116000Y006000G85X116000Y006000
X140000Y076000G85X140000Y076000
X140000Y076000G85X140000Y076000
T05
X010339Y032470
X010339Y029931
X010339Y027391
X010339Y024851
X010339Y022311
X010339Y018181
X010339Y015641
X010339Y013101
X010339Y010561
X010339Y008021
X030550Y041991
X030550Y039451
X030550Y036911
X056660Y049528
X056660Y052068
X056660Y054608
X056660Y057148
X056660Y059688
X056660Y063818
X056660Y066358
X056660Y068898
X056660Y071438
X056660Y073978
X036449Y040008
X036449Y042548
X036449Y045088
X037339Y032470
X037339Y029931
X037339Y027391
X037339Y024851
X037339Y022311
X037339Y018181
X037339Y015641
X037339Y013101
X037339Y010561
X037339Y008021
X057550Y041991
X057550Y039451
X057550Y036911
X029660Y049528
X029660Y052068
X029660Y054608
X029660Y057148
X029660Y059688
X029660Y063818
X029660Y066358
X029660Y068898
X029660Y071438
X029660Y073978
X009449Y040008
X009449Y042548
X009449Y045088
X083660Y049528
X083660Y052068
X083660Y054608
X083660Y057148
X083660Y059688
X083660Y063818
X083660Y066358
X083660Y068898
X083660Y071438
X083660Y073978
X063449Y040008
X063449Y042548
X063449Y045088
X064339Y032470
X064339Y029931
X064339Y027391
X064339Y024851
X064339Y022311
X064339Y018181
X064339Y015641
X064339Y013101
X064339Y010561
X064339Y008021
X084550Y041991
X084550Y039451
X084550Y036911
X091339Y032470
X091339Y029931
X091339Y027391
X091339Y024851
X091339Y022311
X091339Y018181
X091339Y015641
X091339Y013101
X091339Y010561
X091339Y008021
X111550Y041991
X111550Y039451
X111550Y036911
X110660Y049528
X110660Y052068
X110660Y054608
X110660Y057148
X110660Y059688
X110660Y063818
X110660Y066358
X110660Y068898
X110660Y071438
X110660Y073978
X090449Y040008
X090449Y042548
X090449Y045088
X118339Y032470
X118339Y029931
X118339Y027391
X118339Y024851
X118339Y022311
X118339Y018181
X118339Y015641
X118339Y013101
X118339Y010561
X118339Y008021
X138550Y041991
X138550Y039451
X138550Y036911
X137660Y049528
X137660Y052068
X137660Y054608
X137660Y057148
X137660Y059688
X137660Y063818
X137660Y066358
X137660Y068898
X137660Y071438
X137660Y073978
X117449Y040008
X117449Y042548
X117449Y045088
T06
X017690Y009070
X022190Y009070
X049309Y072929
X044809Y072929
X044690Y009070
X049190Y009070
X022309Y072929
X017809Y072929
X076309Y072929
X071809Y072929
X071690Y009070
X076190Y009070
X098690Y009070
X103190Y009070
X103309Y072929
X098809Y072929
X125690Y009070
X130190Y009070
X130309Y072929
X125809Y072929
T10
X032640Y017678
X032640Y018678
X032640Y019678
X032640Y020678
X032640Y021678
X034840Y022404
X034840Y021404
X034840Y020404
X034840Y019404
X034840Y018404
X034840Y017404
X021790Y034444
X020790Y034444
X019790Y034444
X018790Y034444
X017790Y034444
X016790Y034444
X016654Y036444
X017654Y036444
X018654Y036444
X019654Y036444
X020654Y036444
X016146Y047516
X017145Y047555
X018145Y047555
X019145Y047555
X020145Y047555
X021145Y047555
X021086Y045555
X020086Y045555
X019086Y045555
X018086Y045555
X017086Y045555
X034359Y062411
X034359Y061411
X034359Y060411
X034359Y059411
X034359Y058411
X034359Y057411
X032159Y057531
X032159Y058531
X032159Y059531
X032159Y060531
X032159Y061531
X032159Y062531
X059159Y057531
X059159Y058531
X059159Y059531
X059159Y060531
X059159Y061531
X059159Y062531
X061359Y062411
X061359Y061411
X061359Y060411
X061359Y059411
X061359Y058411
X061359Y057411
X059640Y017678
X059640Y018678
X059640Y019678
X059640Y020678
X059640Y021678
X061840Y022403
X061840Y021403
X061840Y020403
X061840Y019403
X061840Y018403
X061840Y017403
X086159Y057531
X086159Y058531
X086159Y059531
X086159Y060531
X086159Y061531
X086159Y062531
X088359Y062411
X088359Y061411
X088359Y060411
X088359Y059411
X088359Y058411
X088359Y057411
X086640Y017678
X086640Y018678
X086640Y019678
X086640Y020678
X086640Y021678
X088840Y022403
X088840Y021403
X088840Y020403
X088840Y019403
X088840Y018403
X088840Y017403
X113159Y057531
X113159Y058531
X113159Y059531
X113159Y060531
X113159Y061531
X113159Y062531
X115359Y062411
X115359Y061411
X115359Y060411
X115359Y059411
X115359Y058411
X115359Y057411
X113640Y017678
X113640Y018678
X113640Y019678
X113640Y020678
X113640Y021678
X115840Y022404
X115840Y021404
X115840Y020404
X115840Y019404
X115840Y018404
X115840Y017404
X140159Y057531
X140159Y058531
X140159Y059531
X140159Y060531
X140159Y061531
X140159Y062531
X142159Y057812
X142159Y058812
X142159Y059812
X142159Y060812
X142159Y061812
X140640Y017678
X140640Y018678
X140640Y019678
X140640Y020678
X140640Y021678
X142640Y017269
X142640Y018269
X142640Y019269
X142640Y020269
X142640Y021269
X142640Y022269
X043146Y047516
X044145Y047555
X045145Y047555
X046145Y047555
X047145Y047555
X048145Y047555
X048086Y045555
X047086Y045555
X046086Y045555
X045086Y045555
X044086Y045555
X048790Y034444
X047790Y034444
X046790Y034444
X045790Y034444
X044790Y034444
X043790Y034444
X043654Y036444
X044654Y036444
X045654Y036444
X046654Y036444
X047654Y036444
X071145Y047555
X072145Y047555
X073145Y047555
X074145Y047555
X075145Y047555
X076145Y047555
X076086Y045555
X075086Y045555
X074086Y045555
X073086Y045555
X072086Y045555
X076790Y034444
X075790Y034444
X074790Y034444
X073790Y034444
X072790Y034444
X071790Y034444
X071654Y036444
X072654Y036444
X073654Y036444
X074654Y036444
X075654Y036444
X097146Y047516
X098145Y047555
X099145Y047555
X100145Y047555
X101145Y047555
X102145Y047555
X102086Y045555
X101086Y045555
X100086Y045555
X099086Y045555
X098086Y045555
X102790Y034444
X101790Y034444
X100790Y034444
X099790Y034444
X098790Y034444
X097790Y034444
X097654Y036444
X098654Y036444
X099654Y036444
X100654Y036444
X101654Y036444
X125145Y047555
X126145Y047555
X127145Y047555
X128145Y047555
X129145Y047555
X130145Y047555
X130086Y045555
X129086Y045555
X128086Y045555
X127086Y045555
X126086Y045555
X130789Y034444
X129789Y034444
X128789Y034444
X127790Y034444
X126790Y034444
X125790Y034444
X125654Y036444
X126654Y036444
X127654Y036444
X128654Y036444
X129654Y036444
X007359Y058411
X007359Y057411
X007359Y056411
X007359Y055411
X007359Y054411
X007359Y053411
X005359Y058344
X005359Y057344
X005359Y056344
X005359Y055344
X005359Y054344
X005359Y053344
X007840Y022404
X007840Y021404
X007840Y020404
X007840Y019404
X007840Y018404
X007840Y017404
X005840Y022573
X005840Y021573
X005840Y020573
X005840Y019573
X005840Y018573
X005840Y017573
X017365Y005821
X018365Y005821
X019365Y005821
X020365Y005821
X021365Y005821
X022365Y005821
X018088Y003821
X019088Y003821
X020088Y003821
X021088Y003821
X022088Y003821
X045365Y005821
X046365Y005821
X047365Y005821
X048365Y005821
X049365Y005821
X050365Y005821
X046088Y003821
X047088Y003821
X048088Y003821
X049088Y003821
X050088Y003821
X072365Y005821
X073365Y005821
X074365Y005821
X075365Y005821
X076365Y005821
X077365Y005821
X073088Y003821
X074088Y003821
X075088Y003821
X076088Y003821
X077088Y003821
X099365Y005821
X100365Y005821
X101365Y005821
X102365Y005821
X103365Y005821
X104365Y005821
X099088Y003821
X100088Y003821
X101088Y003821
X102088Y003821
X103088Y003821
X104088Y003821
X127365Y005821
X128365Y005821
X129365Y005821
X130365Y005821
X131365Y005821
X132365Y005821
X128088Y003821
X129088Y003821
X130088Y003821
X131088Y003821
X132088Y003821
X131699Y076178
X130699Y076178
X129699Y076178
X128699Y076178
X127699Y076178
X126699Y076178
X131525Y078178
X130525Y078178
X129525Y078178
X128525Y078178
X127525Y078178
X126525Y078178
X101699Y076178
X100699Y076178
X099699Y076178
X098699Y076178
X097699Y076178
X096699Y076178
X101525Y078178
X100525Y078178
X099525Y078178
X098525Y078178
X097525Y078178
X096525Y078178
X073699Y076178
X072699Y076178
X071699Y076178
X070699Y076178
X069699Y076178
X068699Y076178
X073525Y078178
X072525Y078178
X071525Y078178
X070525Y078178
X069525Y078178
X068525Y078178
X046699Y076178
X045699Y076178
X044699Y076178
X043699Y076178
X042699Y076178
X041699Y076178
X046525Y078178
X045525Y078178
X044525Y078178
X043525Y078178
X042525Y078178
X041525Y078178
X019699Y076178
X018699Y076178
X017699Y076178
X016699Y076178
X015699Y076178
X014699Y076178
X019525Y078178
X018525Y078178
X017525Y078178
X016525Y078178
X015525Y078178
X014525Y078178
M30