%TF.GenerationSoftware,KiCad,Pcbnew,(5.1.2-1)-1*%
%TF.CreationDate,2019-05-29T15:28:05+01:00*%
%TF.ProjectId,a5v11-mod-01,61357631-312d-46d6-9f64-2d30312e6b69,rev?*%
%TF.SameCoordinates,PX3740df8PY3c191b8*%
%TF.FileFunction,Copper,L1,Top*%
%TF.FilePolarity,Positive*%
%FSLAX46Y46*%
G04 Gerber Fmt 4.6, Leading zero omitted, Abs format (unit mm)*
G04 Created by KiCad (PCBNEW (5.1.2-1)-1) date 2019-05-29 15:28:05*
%MOMM*%
%LPD*%
G04 APERTURE LIST*
%ADD10R,0.350000X1.700000*%
%ADD11C,1.000000*%
%ADD12R,0.750000X0.800000*%
%ADD13R,2.032000X1.727200*%
%ADD14O,2.032000X1.727200*%
%ADD15R,0.500000X0.900000*%
%ADD16R,0.900000X0.500000*%
%ADD17R,0.650000X1.060000*%
%ADD18R,0.300000X1.400000*%
%ADD19R,1.250000X2.300000*%
%ADD20R,0.700000X1.600000*%
%ADD21R,0.700000X1.100000*%
%ADD22C,1.650000*%
%ADD23C,1.100000*%
%ADD24O,1.800000X4.300000*%
%ADD25R,1.250000X1.000000*%
%ADD26R,1.000000X1.250000*%
%ADD27R,0.800000X0.750000*%
%ADD28R,1.300000X0.700000*%
%ADD29R,1.400000X1.200000*%
%ADD30C,1.500000*%
%ADD31C,0.600000*%
%ADD32C,1.778000*%
%ADD33C,0.508000*%
%ADD34C,0.250000*%
%ADD35C,0.762000*%
%ADD36C,1.016000*%
%ADD37C,0.304800*%
%ADD38C,0.381000*%
%ADD39C,1.270000*%
G04 APERTURE END LIST*
D10*
X5062600Y16177400D03*
X4412600Y16177400D03*
X3762600Y16177400D03*
X3112600Y16177400D03*
X2462600Y16177400D03*
X1812600Y16177400D03*
X1162600Y16177400D03*
X512600Y16177400D03*
X-137400Y16177400D03*
X-787400Y16177400D03*
X-1437400Y16177400D03*
X-2087400Y16177400D03*
X-2737400Y16177400D03*
X-3387400Y16177400D03*
X-3387400Y10877400D03*
X-2737400Y10877400D03*
X-2087400Y10877400D03*
X-1437400Y10877400D03*
X-787400Y10877400D03*
X-137400Y10877400D03*
X512600Y10877400D03*
X1162600Y10877400D03*
X1812600Y10877400D03*
X2462600Y10877400D03*
X3112600Y10877400D03*
X3762600Y10877400D03*
X4412600Y10877400D03*
X5062600Y10877400D03*
D11*
X10652600Y25327400D03*
D12*
X-5244402Y12294732D03*
X-5244402Y13794732D03*
D11*
X-6637400Y23867400D03*
D13*
X10612600Y33197400D03*
D14*
X10612600Y30657400D03*
X10612600Y28117400D03*
D15*
X7802600Y13477400D03*
X9302600Y13477400D03*
X-5359402Y19648732D03*
X-3859402Y19648732D03*
D16*
X-3212402Y6770232D03*
X-3212402Y8270232D03*
D15*
X458598Y8282232D03*
X-1041402Y8282232D03*
X2578098Y8282232D03*
X4078098Y8282232D03*
D17*
X7902600Y9377400D03*
X8852600Y9377400D03*
X9802600Y9377400D03*
X9802600Y11577400D03*
X7902600Y11577400D03*
D18*
X8376600Y21127400D03*
X7876600Y21127400D03*
X7376600Y21127400D03*
X6876600Y21127400D03*
X6376600Y21127400D03*
X5876600Y21127400D03*
D19*
X4626600Y22377400D03*
D20*
X3651600Y22027400D03*
D21*
X2951600Y22277400D03*
D19*
X9626600Y22377400D03*
D20*
X10601600Y22027400D03*
D21*
X11301600Y22277400D03*
D13*
X-9597400Y13517400D03*
D14*
X-9597400Y16057400D03*
X-9597400Y18597400D03*
X-9597400Y21137400D03*
X-9597400Y23677400D03*
D13*
X-9597400Y-772600D03*
D14*
X-9597400Y1767400D03*
X-9597400Y4307400D03*
X-9597400Y6847400D03*
X-9597400Y9387400D03*
D22*
X1002600Y2377400D03*
X3502600Y2377400D03*
X-997400Y2377400D03*
X-3497400Y2377400D03*
D23*
X2252600Y277400D03*
X-2247400Y277400D03*
D24*
X-5697400Y277400D03*
X5702600Y277400D03*
D11*
X10502600Y-922600D03*
D25*
X7762600Y3817400D03*
X7762600Y5817400D03*
X-5244402Y15727732D03*
X-5244402Y17727732D03*
D26*
X5562600Y7667400D03*
X7562600Y7667400D03*
D27*
X5962600Y6167400D03*
X4462600Y6167400D03*
D28*
X10202600Y2517400D03*
X10202600Y4417400D03*
D27*
X412600Y6617400D03*
X-1087400Y6617400D03*
X9262600Y1067400D03*
X7762600Y1067400D03*
D16*
X7762600Y-282600D03*
X7762600Y-1782600D03*
D29*
X7848600Y15343400D03*
X10048600Y15343400D03*
X10048600Y17043400D03*
X7848600Y17043400D03*
D30*
X3992600Y25227400D03*
X1492600Y25227400D03*
X-1007400Y25227400D03*
X-3507400Y25227400D03*
X-3507400Y23417400D03*
D31*
X11176000Y20320000D03*
X10414000Y20320000D03*
X10414000Y20320000D03*
X9626600Y20465400D03*
X8356600Y23368000D03*
X7594600Y23368000D03*
X10160000Y14224000D03*
X8890000Y16256000D03*
X6604000Y23368000D03*
X10652600Y1177400D03*
D32*
X2919431Y6411973D03*
D31*
X1251929Y8778071D03*
D32*
X5407771Y4383221D03*
D31*
X56880Y9336332D03*
X-7347400Y5227400D03*
D32*
X-6768355Y17296912D03*
D31*
X-3597400Y13327400D03*
X-1947400Y13309857D03*
X-1197400Y13309857D03*
X5862600Y16817400D03*
X6382600Y14257400D03*
X1592600Y13357400D03*
X5892600Y13767400D03*
X2252600Y13357400D03*
D32*
X9921752Y5958248D03*
D31*
X8852600Y11677400D03*
X-481902Y12536732D03*
X6372611Y11577409D03*
D32*
X1280886Y22527773D03*
D31*
X1711207Y20513461D03*
D32*
X-1007400Y23937400D03*
D31*
X-734253Y21448261D03*
X3125603Y11905183D03*
X6942600Y12597400D03*
X9712600Y8417400D03*
X3772598Y9467400D03*
X4912600Y24467400D03*
X3242601Y24037399D03*
D32*
X6096000Y9398000D03*
D31*
X6004600Y18567400D03*
X6832600Y18796000D03*
X7620000Y18796000D03*
D32*
X-5397400Y4927400D03*
X-6651714Y10571714D03*
X-7565400Y2479340D03*
D33*
X-3507400Y23417400D02*
X-3507400Y25227400D01*
D34*
X-3507400Y25227400D02*
X-3507400Y23887400D01*
X3651600Y22027400D02*
X4276600Y22027400D01*
X4276600Y22027400D02*
X4626600Y22377400D01*
X2951600Y22277400D02*
X3401600Y22277400D01*
X3401600Y22277400D02*
X3651600Y22027400D01*
X9626600Y22377400D02*
X10251600Y22377400D01*
X10251600Y22377400D02*
X10601600Y22027400D01*
X11301600Y22277400D02*
X10851600Y22277400D01*
X10851600Y22277400D02*
X10601600Y22027400D01*
D35*
X11176000Y20320000D02*
X10414000Y20320000D01*
X9626600Y20465400D02*
X10268600Y20465400D01*
X10268600Y20465400D02*
X10414000Y20320000D01*
X9652000Y20440000D02*
X9626600Y20465400D01*
X9626600Y22377400D02*
X9626600Y20465400D01*
D36*
X6324600Y23368000D02*
X6832600Y23368000D01*
X6832600Y23368000D02*
X8356600Y23368000D01*
D37*
X6876600Y21127400D02*
X6876600Y23324000D01*
X6876600Y23324000D02*
X6832600Y23368000D01*
D36*
X5588000Y23368000D02*
X6324600Y23368000D01*
D37*
X6376600Y21127400D02*
X6376600Y23316000D01*
X6376600Y23316000D02*
X6324600Y23368000D01*
X5876600Y21127400D02*
X5876600Y23079400D01*
X5876600Y23079400D02*
X5588000Y23368000D01*
D36*
X9626600Y22377400D02*
X9347200Y22377400D01*
X9347200Y22377400D02*
X8356600Y23368000D01*
X4626600Y22406600D02*
X5588000Y23368000D01*
X4626600Y22377400D02*
X4626600Y22406600D01*
D37*
X10048600Y15343400D02*
X10048600Y14335400D01*
X10048600Y14335400D02*
X10160000Y14224000D01*
X2951600Y22277400D02*
X4526600Y22277400D01*
X11301600Y22277400D02*
X9726600Y22277400D01*
D38*
X8890000Y16256000D02*
X9802600Y15343400D01*
X9802600Y15343400D02*
X10048600Y15343400D01*
X7848600Y17043400D02*
X8102600Y17043400D01*
X8102600Y17043400D02*
X8890000Y16256000D01*
D37*
X6447600Y23211600D02*
X6604000Y23368000D01*
X-1947400Y13309857D02*
X-1197400Y13309857D01*
X-3597400Y13327400D02*
X-1964943Y13327400D01*
X-1964943Y13327400D02*
X-1947400Y13309857D01*
X10542600Y1067400D02*
X10652600Y1177400D01*
X9262600Y1067400D02*
X10542600Y1067400D01*
X7762600Y-282600D02*
X7912600Y-282600D01*
X7912600Y-282600D02*
X9262600Y1067400D01*
D35*
X3164004Y6167400D02*
X2919431Y6411973D01*
X4462600Y6167400D02*
X3164004Y6167400D01*
X412600Y6617400D02*
X412600Y8236234D01*
X412600Y8236234D02*
X458598Y8282232D01*
X4462600Y6167400D02*
X4462600Y5328392D01*
X4462600Y5328392D02*
X5407771Y4383221D01*
D36*
X5407771Y4383221D02*
X4949647Y4383221D01*
D35*
X951930Y8478072D02*
X1251929Y8778071D01*
X458598Y8282232D02*
X756090Y8282232D01*
X756090Y8282232D02*
X951930Y8478072D01*
X6014168Y4477400D02*
X5501950Y4477400D01*
X5501950Y4477400D02*
X5407771Y4383221D01*
X7762600Y5767360D02*
X7304128Y5767360D01*
X7304128Y5767360D02*
X6014168Y4477400D01*
X7512560Y7667400D02*
X8434600Y7667400D01*
X8434600Y7667400D02*
X8852600Y8085400D01*
X8852600Y8085400D02*
X8852600Y9377400D01*
D36*
X7762600Y5767360D02*
X7762600Y7417360D01*
X7762600Y7417360D02*
X7512560Y7667400D01*
D37*
X458598Y8282232D02*
X458598Y8934614D01*
X458598Y8934614D02*
X56880Y9336332D01*
D35*
X-7347400Y4803136D02*
X-7347400Y5227400D01*
X-4322399Y3202399D02*
X-5746663Y3202399D01*
X-5746663Y3202399D02*
X-7347400Y4803136D01*
X-3497400Y2377400D02*
X-4322399Y3202399D01*
D36*
X-5244402Y13994692D02*
X-6048314Y13994692D01*
X-6768355Y14714733D02*
X-6768355Y17296912D01*
X-6048314Y13994692D02*
X-6768355Y14714733D01*
X-5244402Y17677692D02*
X-6387575Y17677692D01*
X-6387575Y17677692D02*
X-6768355Y17296912D01*
D33*
X-3597400Y13327400D02*
X-4577110Y13327400D01*
X-4577110Y13327400D02*
X-5244402Y13994692D01*
D36*
X-5559362Y19648732D02*
X-5559362Y17992652D01*
X-5559362Y17992652D02*
X-5244402Y17677692D01*
X-5117402Y17743732D02*
X-5244402Y17677692D01*
D37*
X597598Y8343192D02*
X658558Y8282232D01*
D38*
X5222600Y16177400D02*
X5862600Y16817400D01*
X5062600Y16177400D02*
X5222600Y16177400D01*
D35*
X5482600Y13357400D02*
X2252600Y13357400D01*
X6382600Y14257400D02*
X5892600Y13767400D01*
X5892600Y13767400D02*
X5482600Y13357400D01*
X2252600Y13357400D02*
X1592600Y13357400D01*
X-1087400Y6617400D02*
X-3059570Y6617400D01*
X-3059570Y6617400D02*
X-3212402Y6770232D01*
X1207722Y5677400D02*
X-382522Y5677400D01*
X-382522Y5677400D02*
X-1087400Y6382278D01*
X-1087400Y6382278D02*
X-1087400Y6617400D01*
X2578098Y8082232D02*
X1346001Y6850135D01*
X2578098Y8282232D02*
X2578098Y8082232D01*
X1346001Y6850135D02*
X1346001Y5815679D01*
X1346001Y5815679D02*
X1207722Y5677400D01*
D38*
X512600Y12551351D02*
X-903449Y13967400D01*
X512600Y10877400D02*
X512600Y12551351D01*
X-903449Y13967400D02*
X-2137400Y13967400D01*
X-2737400Y14567400D02*
X-2737400Y16177400D01*
X-2137400Y13967400D02*
X-2737400Y14567400D01*
X-3959070Y14567400D02*
X-2737400Y14567400D01*
X-5119402Y15727732D02*
X-3959070Y14567400D01*
X-5244402Y15727732D02*
X-5119402Y15727732D01*
X1558350Y9501980D02*
X2578098Y8482232D01*
X2578098Y8482232D02*
X2578098Y8282232D01*
X895798Y9501980D02*
X1558350Y9501980D01*
X512600Y9885178D02*
X895798Y9501980D01*
X512600Y10877400D02*
X512600Y9885178D01*
D37*
X4902199Y8377841D02*
X5612640Y7667400D01*
X4902199Y9932533D02*
X4902199Y8377841D01*
X5042598Y10072932D02*
X4902199Y9932533D01*
X5042598Y10949232D02*
X5042598Y10072932D01*
D35*
X5962600Y6167400D02*
X5962600Y7267400D01*
X5962600Y7267400D02*
X5562600Y7667400D01*
D38*
X5042598Y10949232D02*
X5042598Y10568232D01*
X5042598Y11393732D02*
X5042598Y10504732D01*
X5042598Y10504732D02*
X5042598Y10631732D01*
X4622916Y12548084D02*
X5062600Y12108400D01*
X5062600Y12108400D02*
X5062600Y10877400D01*
X1270221Y12548084D02*
X4622916Y12548084D01*
X-689095Y14507400D02*
X1270221Y12548084D01*
X-1409622Y14507400D02*
X-689095Y14507400D01*
X-2087400Y15185178D02*
X-1409622Y14507400D01*
X-2087400Y16177400D02*
X-2087400Y15185178D01*
D36*
X10202600Y4417360D02*
X8312520Y4417360D01*
X8312520Y4417360D02*
X7762600Y3867440D01*
X10202600Y4417360D02*
X10202600Y5677400D01*
X10202600Y5677400D02*
X9921752Y5958248D01*
D35*
X8852600Y11677400D02*
X8002600Y11677400D01*
X8002600Y11677400D02*
X7902600Y11577400D01*
X7902600Y11577400D02*
X7902600Y13277400D01*
D38*
X-418402Y12473232D02*
X-481902Y12536732D01*
D33*
X-4361402Y12294732D02*
X-5244402Y12294732D01*
X-4065123Y12591011D02*
X-4361402Y12294732D01*
X-2505935Y12591011D02*
X-4065123Y12591011D01*
X-2451656Y12536732D02*
X-2505935Y12591011D01*
X-481902Y12536732D02*
X-2451656Y12536732D01*
D38*
X-1009068Y12536732D02*
X-906166Y12536732D01*
X-1437400Y12108400D02*
X-1009068Y12536732D01*
X-906166Y12536732D02*
X-481902Y12536732D01*
X-1437400Y10877400D02*
X-1437400Y12108400D01*
X-137400Y12192230D02*
X-481902Y12536732D01*
X-137400Y10877400D02*
X-137400Y12192230D01*
D35*
X7902600Y11577400D02*
X6372620Y11577400D01*
X6372620Y11577400D02*
X6372611Y11577409D01*
D37*
X7876600Y20082165D02*
X7876600Y20122600D01*
X7459823Y19665388D02*
X7876600Y20082165D01*
X4321546Y19665388D02*
X7459823Y19665388D01*
X7876600Y20122600D02*
X7876600Y21127400D01*
X2992600Y18336442D02*
X4321546Y19665388D01*
X2992600Y16187400D02*
X2992600Y18336442D01*
X3002600Y16177400D02*
X2992600Y16187400D01*
X3112600Y16177400D02*
X3002600Y16177400D01*
X4132165Y20122599D02*
X7270441Y20122599D01*
X7270441Y20122599D02*
X7376600Y20228758D01*
X7376600Y20228758D02*
X7376600Y21127400D01*
X2462600Y18453034D02*
X4132165Y20122599D01*
X2462600Y16177400D02*
X2462600Y18453034D01*
D34*
X1711207Y22097452D02*
X1280886Y22527773D01*
D35*
X1492600Y22739487D02*
X1280886Y22527773D01*
X1492600Y25227400D02*
X1492600Y22739487D01*
D34*
X1711207Y20513461D02*
X1711207Y22097452D01*
D39*
X1492600Y25227400D02*
X1492600Y24166740D01*
D37*
X1812600Y20412068D02*
X1711207Y20513461D01*
X1812600Y16177400D02*
X1812600Y20412068D01*
D34*
X-734253Y21448261D02*
X-734253Y23664253D01*
X-734253Y23664253D02*
X-1007400Y23937400D01*
D35*
X-734253Y21448261D02*
X-734253Y24954253D01*
X-734253Y24954253D02*
X-1007400Y25227400D01*
D39*
X-1007400Y25227400D02*
X-1007400Y23937400D01*
D37*
X1162600Y19551408D02*
X1162600Y16177400D01*
X-734253Y21448261D02*
X1162600Y19551408D01*
X512600Y17332200D02*
X512600Y16177400D01*
X512600Y19070807D02*
X512600Y17332200D01*
X-2751201Y22334608D02*
X512600Y19070807D01*
X-10490190Y22334610D02*
X-2751201Y22334608D01*
X-11097400Y21727400D02*
X-10490190Y22334610D01*
X-11097400Y17405000D02*
X-11097400Y21727400D01*
X-9749800Y16057400D02*
X-11097400Y17405000D01*
X-9597400Y16057400D02*
X-9749800Y16057400D01*
X-9445000Y18597400D02*
X-9597400Y18597400D01*
X-8276600Y19765800D02*
X-9445000Y18597400D01*
X-8276600Y20171587D02*
X-8276600Y19765800D01*
X-6570788Y21877399D02*
X-8276600Y20171587D01*
X-2940584Y21877399D02*
X-6570788Y21877399D01*
X-137400Y19074215D02*
X-137400Y16177400D01*
X-2940584Y21877399D02*
X-137400Y19074215D01*
X-6937400Y20864198D02*
X-6970344Y20831255D01*
X-3346769Y21167399D02*
X-6634200Y21167398D01*
X-6634200Y21167398D02*
X-6937400Y20864198D01*
X-8548413Y17841607D02*
X-8548413Y16813193D01*
X-10947400Y2965000D02*
X-9749800Y1767400D01*
X-8548413Y16813193D02*
X-8276590Y16541370D01*
X-8276590Y18113429D02*
X-8548413Y17841607D01*
X-8302726Y11334121D02*
X-8302726Y9809307D01*
X-10497400Y5527400D02*
X-10947400Y5077400D01*
X-8276590Y18261631D02*
X-8276590Y18113429D01*
X-6970344Y20831255D02*
X-6970344Y19567877D01*
X-6970344Y19567877D02*
X-8276590Y18261631D01*
X-8276590Y16541370D02*
X-8276590Y11360257D01*
X-8276590Y5948210D02*
X-8697400Y5527400D01*
X-8276590Y11360257D02*
X-8302726Y11334121D01*
X-8302726Y9809307D02*
X-8276590Y9783171D01*
X-10947400Y5077400D02*
X-10947400Y2965000D01*
X-8276590Y9783171D02*
X-8276590Y5948210D01*
X-8697400Y5527400D02*
X-10497400Y5527400D01*
X-9749800Y1767400D02*
X-9597400Y1767400D01*
X-787400Y18608030D02*
X-787400Y16177400D01*
X-3346769Y21167399D02*
X-787400Y18608030D01*
X-7790191Y5788017D02*
X-7790191Y9943365D01*
X-7790191Y9943365D02*
X-7845515Y9998689D01*
X-7845515Y9998689D02*
X-7845515Y11144739D01*
X-7845515Y11144739D02*
X-7819379Y11170875D01*
X-6513133Y20641873D02*
X-6444817Y20710189D01*
X-6444817Y20710189D02*
X-3536151Y20710189D01*
X-6513133Y19378495D02*
X-6513133Y20641873D01*
X-7819379Y18072249D02*
X-6513133Y19378495D01*
X-8091202Y17002575D02*
X-8091202Y17652225D01*
X-7819379Y11170875D02*
X-7819379Y16730753D01*
X-7819379Y16730753D02*
X-8091202Y17002575D01*
X-9270808Y4307400D02*
X-7790191Y5788017D01*
X-8091202Y17652225D02*
X-7819379Y17924047D01*
X-7819379Y17924047D02*
X-7819379Y18072249D01*
X-9597400Y4307400D02*
X-9270808Y4307400D01*
X-1437400Y18611438D02*
X-1437400Y16177400D01*
X-3536151Y20710189D02*
X-1437400Y18611438D01*
D38*
X-4304602Y6412175D02*
X-3419827Y5527400D01*
X-3419827Y5527400D02*
X-2147400Y5527400D01*
X-2147400Y5527400D02*
X177601Y3202399D01*
X177601Y3202399D02*
X1002600Y2377400D01*
D37*
X-3387400Y9722600D02*
X-3387400Y10877400D01*
X-4304602Y8805398D02*
X-3387400Y9722600D01*
X-4304602Y6412175D02*
X-4304602Y8805398D01*
D38*
X-1881110Y3202399D02*
X-4838013Y6159302D01*
X-1822399Y3202399D02*
X-1881110Y3202399D01*
X-997400Y2377400D02*
X-1822399Y3202399D01*
D37*
X-2737401Y12032201D02*
X-3806241Y12032201D01*
X-3806241Y12032201D02*
X-4838013Y11000429D01*
X-2737400Y10877400D02*
X-2737401Y12032201D01*
X-4838013Y11000429D02*
X-4838013Y6159302D01*
D35*
X8691300Y2517440D02*
X10202600Y2517440D01*
X6754208Y2517440D02*
X8691300Y2517440D01*
X4086010Y2960810D02*
X6310838Y2960810D01*
X6310838Y2960810D02*
X6754208Y2517440D01*
X3502600Y2377400D02*
X4086010Y2960810D01*
D37*
X4412600Y15022600D02*
X4412600Y16177400D01*
X5481441Y15022599D02*
X4412600Y15022600D01*
X9043800Y18134200D02*
X8890000Y18288000D01*
X6646608Y16187766D02*
X5481441Y15022599D01*
X6808598Y18110190D02*
X6646608Y17948200D01*
X6646608Y17948200D02*
X6646608Y16187766D01*
X7904071Y18110190D02*
X6808598Y18110190D01*
X8081881Y18288000D02*
X7904071Y18110190D01*
X9043800Y17948200D02*
X9043800Y18134200D01*
X8890000Y18288000D02*
X8081881Y18288000D01*
X9948600Y17043400D02*
X9043800Y17948200D01*
X10048600Y17043400D02*
X9948600Y17043400D01*
X3762600Y15022600D02*
X3762600Y16177400D01*
X4219809Y14565391D02*
X3762600Y15022600D01*
X5670825Y14565391D02*
X4219809Y14565391D01*
X6448834Y15343400D02*
X5670825Y14565391D01*
X7848600Y15343400D02*
X6448834Y15343400D01*
X9302600Y12282400D02*
X9302600Y13477400D01*
X9802600Y11577400D02*
X9802600Y11782400D01*
X9802600Y11782400D02*
X9302600Y12282400D01*
X3112600Y10877400D02*
X3125603Y10890403D01*
X3125603Y11480919D02*
X3125603Y11905183D01*
X3125603Y10890403D02*
X3125603Y11480919D01*
X9302600Y13477400D02*
X9302600Y13677400D01*
X9302600Y13677400D02*
X8747800Y14232200D01*
X8747800Y14232200D02*
X7413136Y14232200D01*
X7413136Y14232200D02*
X6942600Y13761664D01*
X6942600Y13761664D02*
X6942600Y13021664D01*
X6942600Y13021664D02*
X6942600Y12597400D01*
X9802600Y9377400D02*
X9802600Y8507400D01*
X9802600Y8507400D02*
X9712600Y8417400D01*
X9829017Y9248099D02*
X9829017Y8999793D01*
X9802600Y9274516D02*
X9829017Y9248099D01*
X9802600Y9377400D02*
X9802600Y9274516D01*
X3772598Y9467400D02*
X3772598Y10187232D01*
X3772598Y9342532D02*
X3772598Y9467400D01*
X4078098Y8282232D02*
X4078098Y9037032D01*
X3772598Y10187232D02*
X3772598Y10949232D01*
X4078098Y9037032D02*
X3772598Y9342532D01*
D34*
X3742278Y24467400D02*
X4912600Y24467400D01*
X3992600Y25227400D02*
X3992600Y24787398D01*
X3992600Y24787398D02*
X3242601Y24037399D01*
D35*
X3712600Y24467400D02*
X4912600Y24467400D01*
X3282599Y24037399D02*
X3712600Y24467400D01*
X3242601Y24037399D02*
X3282599Y24037399D01*
D37*
X8376600Y21127400D02*
X8376600Y19552600D01*
X8376600Y19552600D02*
X7620000Y18796000D01*
D35*
X6096000Y9398000D02*
X7882000Y9398000D01*
X7882000Y9398000D02*
X7902600Y9377400D01*
X6832600Y18796000D02*
X6233200Y18796000D01*
X6233200Y18796000D02*
X6004600Y18567400D01*
X7620000Y18796000D02*
X6832600Y18796000D01*
X7620000Y18796000D02*
X7919999Y19095999D01*
X7919999Y19095999D02*
X10355236Y19095999D01*
X10355236Y19095999D02*
X10401235Y19050000D01*
D36*
X11684000Y17767235D02*
X11684000Y14158564D01*
X11684000Y14158564D02*
X10886001Y13360565D01*
X10401235Y19050000D02*
X11684000Y17767235D01*
D35*
X-6651714Y10571714D02*
X-6651714Y6181714D01*
X-6651714Y6181714D02*
X-5397400Y4927400D01*
X7852600Y9427400D02*
X7902600Y9377400D01*
X10886001Y10845679D02*
X10886001Y13360565D01*
X10517722Y10477400D02*
X10886001Y10845679D01*
X7902600Y10242522D02*
X8137478Y10477400D01*
X7902600Y9377400D02*
X7902600Y10242522D01*
X8137478Y10477400D02*
X10517722Y10477400D01*
D36*
X-7565400Y2479340D02*
X-7088166Y2956574D01*
X-7565400Y1107000D02*
X-7565400Y2479340D01*
X-9445000Y-772600D02*
X-7565400Y1107000D01*
X-9597400Y-772600D02*
X-9445000Y-772600D01*
D38*
X-787400Y8536234D02*
X-1041402Y8282232D01*
X-787400Y10877400D02*
X-787400Y8536234D01*
X-2087400Y9395234D02*
X-3212402Y8270232D01*
X-2087400Y10877400D02*
X-2087400Y9395234D01*
X-3387400Y19176730D02*
X-3859402Y19648732D01*
X-3387400Y16177400D02*
X-3387400Y19176730D01*
D37*
X5702600Y277400D02*
X7762600Y-1782600D01*
X7762600Y1067400D02*
X6492600Y1067400D01*
X6492600Y1067400D02*
X5702600Y277400D01*
D36*
X5702600Y277400D02*
X5702600Y-1222600D01*
X5702600Y-1222600D02*
X4952600Y-1972600D01*
X4952600Y-1972600D02*
X-4697400Y-1972600D01*
X-4697400Y-1972600D02*
X-5697400Y-972600D01*
X-5697400Y-972600D02*
X-5697400Y277400D01*
M02*
