%TF.GenerationSoftware,KiCad,Pcbnew,(5.1.2-1)-1*%
%TF.CreationDate,2019-05-29T15:28:05+01:00*%
%TF.ProjectId,a5v11-mod-01,61357631-312d-46d6-9f64-2d30312e6b69,rev?*%
%TF.SameCoordinates,PX3740df8PY3c191b8*%
%TF.FileFunction,Paste,Top*%
%TF.FilePolarity,Positive*%
%FSLAX46Y46*%
G04 Gerber Fmt 4.6, Leading zero omitted, Abs format (unit mm)*
G04 Created by KiCad (PCBNEW (5.1.2-1)-1) date 2019-05-29 15:28:05*
%MOMM*%
%LPD*%
G04 APERTURE LIST*
%ADD10R,0.350000X1.700000*%
%ADD11R,0.750000X0.800000*%
%ADD12R,0.500000X0.900000*%
%ADD13R,0.900000X0.500000*%
%ADD14R,0.650000X1.060000*%
%ADD15R,0.300000X1.400000*%
%ADD16R,1.250000X2.300000*%
%ADD17R,0.700000X1.600000*%
%ADD18R,0.700000X1.100000*%
%ADD19R,1.250000X1.000000*%
%ADD20R,1.000000X1.250000*%
%ADD21R,0.800000X0.750000*%
%ADD22R,1.300000X0.700000*%
%ADD23R,1.400000X1.200000*%
G04 APERTURE END LIST*
D10*
X5062600Y16177400D03*
X4412600Y16177400D03*
X3762600Y16177400D03*
X3112600Y16177400D03*
X2462600Y16177400D03*
X1812600Y16177400D03*
X1162600Y16177400D03*
X512600Y16177400D03*
X-137400Y16177400D03*
X-787400Y16177400D03*
X-1437400Y16177400D03*
X-2087400Y16177400D03*
X-2737400Y16177400D03*
X-3387400Y16177400D03*
X-3387400Y10877400D03*
X-2737400Y10877400D03*
X-2087400Y10877400D03*
X-1437400Y10877400D03*
X-787400Y10877400D03*
X-137400Y10877400D03*
X512600Y10877400D03*
X1162600Y10877400D03*
X1812600Y10877400D03*
X2462600Y10877400D03*
X3112600Y10877400D03*
X3762600Y10877400D03*
X4412600Y10877400D03*
X5062600Y10877400D03*
D11*
X-5244402Y12294732D03*
X-5244402Y13794732D03*
D12*
X7802600Y13477400D03*
X9302600Y13477400D03*
X-5359402Y19648732D03*
X-3859402Y19648732D03*
D13*
X-3212402Y6770232D03*
X-3212402Y8270232D03*
D12*
X458598Y8282232D03*
X-1041402Y8282232D03*
X2578098Y8282232D03*
X4078098Y8282232D03*
D14*
X7902600Y9377400D03*
X8852600Y9377400D03*
X9802600Y9377400D03*
X9802600Y11577400D03*
X7902600Y11577400D03*
D15*
X8376600Y21127400D03*
X7876600Y21127400D03*
X7376600Y21127400D03*
X6876600Y21127400D03*
X6376600Y21127400D03*
X5876600Y21127400D03*
D16*
X4626600Y22377400D03*
D17*
X3651600Y22027400D03*
D18*
X2951600Y22277400D03*
D16*
X9626600Y22377400D03*
D17*
X10601600Y22027400D03*
D18*
X11301600Y22277400D03*
D19*
X7762600Y3817400D03*
X7762600Y5817400D03*
X-5244402Y15727732D03*
X-5244402Y17727732D03*
D20*
X5562600Y7667400D03*
X7562600Y7667400D03*
D21*
X5962600Y6167400D03*
X4462600Y6167400D03*
D22*
X10202600Y2517400D03*
X10202600Y4417400D03*
D21*
X412600Y6617400D03*
X-1087400Y6617400D03*
X9262600Y1067400D03*
X7762600Y1067400D03*
D13*
X7762600Y-282600D03*
X7762600Y-1782600D03*
D23*
X7848600Y15343400D03*
X10048600Y15343400D03*
X10048600Y17043400D03*
X7848600Y17043400D03*
M02*
