%TF.GenerationSoftware,KiCad,Pcbnew,(5.0.0-rc2-dev-707-g2ed24a4)*%
%TF.CreationDate,2018-05-18T19:07:10+01:00*%
%TF.ProjectId,a5v11-mod-01,61357631312D6D6F642D30312E6B6963,rev?*%
%TF.SameCoordinates,PX3740df8PY3c191b8*%
%TF.FileFunction,Legend,Top*%
%TF.FilePolarity,Positive*%
%FSLAX46Y46*%
G04 Gerber Fmt 4.6, Leading zero omitted, Abs format (unit mm)*
G04 Created by KiCad (PCBNEW (5.0.0-rc2-dev-707-g2ed24a4)) date Friday, 18 May 2018 at 19:07:10*
%MOMM*%
%LPD*%
G01*
G04 APERTURE LIST*
%ADD10C,0.150000*%
%ADD11C,0.120000*%
%ADD12C,0.381000*%
G04 APERTURE END LIST*
D10*
X-5844402Y12694732D02*
X-5844402Y13394732D01*
X-4644402Y13394732D02*
X-4644402Y12694732D01*
X9342600Y31927400D02*
X9342600Y26847400D01*
X9342600Y26847400D02*
X11882600Y26847400D01*
X11882600Y26847400D02*
X11882600Y31927400D01*
X12162600Y34747400D02*
X12162600Y33197400D01*
X11882600Y31927400D02*
X9342600Y31927400D01*
X9062600Y33197400D02*
X9062600Y34747400D01*
X9062600Y34747400D02*
X12162600Y34747400D01*
X9052600Y12802400D02*
X8052600Y12802400D01*
X8052600Y14152400D02*
X9052600Y14152400D01*
X-4109402Y18973732D02*
X-5109402Y18973732D01*
X-5109402Y20323732D02*
X-4109402Y20323732D01*
X-2537402Y8020232D02*
X-2537402Y7020232D01*
X-3887402Y7020232D02*
X-3887402Y8020232D01*
X-791402Y8957232D02*
X208598Y8957232D01*
X208598Y7607232D02*
X-791402Y7607232D01*
X3828098Y7607232D02*
X2828098Y7607232D01*
X2828098Y8957232D02*
X3828098Y8957232D01*
D11*
X10462600Y9577400D02*
X10462600Y11377400D01*
X7242600Y11377400D02*
X7242600Y8927400D01*
D10*
X8626600Y20202400D02*
X5626600Y20202400D01*
X8626600Y22052400D02*
X5626600Y22052400D01*
X8626600Y22052400D02*
X8626600Y23877400D01*
X5626600Y22052400D02*
X5626600Y23877400D01*
X8626600Y23877400D02*
X11801600Y23877400D01*
X5626600Y23877400D02*
X2451600Y23877400D01*
X11801600Y23877400D02*
X11801600Y20477400D01*
X2451600Y23877400D02*
X2451600Y20477400D01*
X11801600Y20477400D02*
X8626600Y20477400D01*
X2451600Y20477400D02*
X5626600Y20477400D01*
X8626600Y20477400D02*
X8626600Y20202400D01*
X5626600Y20477400D02*
X5626600Y20202400D01*
X-8047400Y13517400D02*
X-8047400Y11967400D01*
X-8047400Y11967400D02*
X-11147400Y11967400D01*
X-11147400Y11967400D02*
X-11147400Y13517400D01*
X-10867400Y14787400D02*
X-10867400Y24947400D01*
X-10867400Y24947400D02*
X-8327400Y24947400D01*
X-8327400Y24947400D02*
X-8327400Y14787400D01*
X-10867400Y14787400D02*
X-8327400Y14787400D01*
X-8047400Y-772600D02*
X-8047400Y-2322600D01*
X-8047400Y-2322600D02*
X-11147400Y-2322600D01*
X-11147400Y-2322600D02*
X-11147400Y-772600D01*
X-10867400Y497400D02*
X-10867400Y10657400D01*
X-10867400Y10657400D02*
X-8327400Y10657400D01*
X-8327400Y10657400D02*
X-8327400Y497400D01*
X-10867400Y497400D02*
X-8327400Y497400D01*
D12*
X-3847402Y12028732D02*
X-3847402Y15838732D01*
X5677598Y12028732D02*
X5677598Y13298732D01*
X5677598Y13298732D02*
X5042598Y13933732D01*
X5042598Y13933732D02*
X5677598Y14568732D01*
X5677598Y14568732D02*
X5677598Y15838732D01*
D10*
X6912600Y5317400D02*
X6912600Y4317400D01*
X8612600Y4317400D02*
X8612600Y5317400D01*
X-6094402Y17227732D02*
X-6094402Y16227732D01*
X-4394402Y16227732D02*
X-4394402Y17227732D01*
X7062600Y8517400D02*
X6062600Y8517400D01*
X6062600Y6817400D02*
X7062600Y6817400D01*
X5562600Y5567400D02*
X4862600Y5567400D01*
X4862600Y6767400D02*
X5562600Y6767400D01*
D11*
X11082600Y4067400D02*
X11082600Y2867400D01*
X9322600Y2867400D02*
X9322600Y4067400D01*
D10*
X12600Y6017400D02*
X-687400Y6017400D01*
X-687400Y7217400D02*
X12600Y7217400D01*
X8862600Y467400D02*
X8162600Y467400D01*
X8162600Y1667400D02*
X8862600Y1667400D01*
X7087600Y-1532600D02*
X7087600Y-532600D01*
X8437600Y-532600D02*
X8437600Y-1532600D01*
D11*
X6948600Y17843400D02*
X6948600Y14543400D01*
X6948600Y14543400D02*
X10948600Y14543400D01*
D10*
X-6280258Y13650734D02*
X-6232639Y13603115D01*
X-6185020Y13460258D01*
X-6185020Y13365020D01*
X-6232639Y13222162D01*
X-6327877Y13126924D01*
X-6423115Y13079305D01*
X-6613591Y13031686D01*
X-6756448Y13031686D01*
X-6946924Y13079305D01*
X-7042162Y13126924D01*
X-7137400Y13222162D01*
X-7185020Y13365020D01*
X-7185020Y13460258D01*
X-7137400Y13603115D01*
X-7089781Y13650734D01*
X-7089781Y14031686D02*
X-7137400Y14079305D01*
X-7185020Y14174543D01*
X-7185020Y14412639D01*
X-7137400Y14507877D01*
X-7089781Y14555496D01*
X-6994543Y14603115D01*
X-6899305Y14603115D01*
X-6756448Y14555496D01*
X-6185020Y13984067D01*
X-6185020Y14603115D01*
X10279266Y35625020D02*
X10279266Y34910734D01*
X10231647Y34767877D01*
X10136409Y34672639D01*
X9993552Y34625020D01*
X9898314Y34625020D01*
X11184028Y35625020D02*
X10993552Y35625020D01*
X10898314Y35577400D01*
X10850695Y35529781D01*
X10755457Y35386924D01*
X10707838Y35196448D01*
X10707838Y34815496D01*
X10755457Y34720258D01*
X10803076Y34672639D01*
X10898314Y34625020D01*
X11088790Y34625020D01*
X11184028Y34672639D01*
X11231647Y34720258D01*
X11279266Y34815496D01*
X11279266Y35053591D01*
X11231647Y35148829D01*
X11184028Y35196448D01*
X11088790Y35244067D01*
X10898314Y35244067D01*
X10803076Y35196448D01*
X10755457Y35148829D01*
X10707838Y35053591D01*
X8385933Y14925020D02*
X8052600Y15401210D01*
X7814504Y14925020D02*
X7814504Y15925020D01*
X8195457Y15925020D01*
X8290695Y15877400D01*
X8338314Y15829781D01*
X8385933Y15734543D01*
X8385933Y15591686D01*
X8338314Y15496448D01*
X8290695Y15448829D01*
X8195457Y15401210D01*
X7814504Y15401210D01*
X9290695Y15925020D02*
X8814504Y15925020D01*
X8766885Y15448829D01*
X8814504Y15496448D01*
X8909742Y15544067D01*
X9147838Y15544067D01*
X9243076Y15496448D01*
X9290695Y15448829D01*
X9338314Y15353591D01*
X9338314Y15115496D01*
X9290695Y15020258D01*
X9243076Y14972639D01*
X9147838Y14925020D01*
X8909742Y14925020D01*
X8814504Y14972639D01*
X8766885Y15020258D01*
X-5004067Y20565020D02*
X-5337400Y21041210D01*
X-5575496Y20565020D02*
X-5575496Y21565020D01*
X-5194543Y21565020D01*
X-5099305Y21517400D01*
X-5051686Y21469781D01*
X-5004067Y21374543D01*
X-5004067Y21231686D01*
X-5051686Y21136448D01*
X-5099305Y21088829D01*
X-5194543Y21041210D01*
X-5575496Y21041210D01*
X-4146924Y21231686D02*
X-4146924Y20565020D01*
X-4385020Y21612639D02*
X-4623115Y20898353D01*
X-4004067Y20898353D01*
X-4660022Y7353566D02*
X-5136212Y7020232D01*
X-4660022Y6782137D02*
X-5660022Y6782137D01*
X-5660022Y7163090D01*
X-5612402Y7258328D01*
X-5564783Y7305947D01*
X-5469545Y7353566D01*
X-5326688Y7353566D01*
X-5231450Y7305947D01*
X-5183831Y7258328D01*
X-5136212Y7163090D01*
X-5136212Y6782137D01*
X-5660022Y7686899D02*
X-5660022Y8305947D01*
X-5279069Y7972613D01*
X-5279069Y8115471D01*
X-5231450Y8210709D01*
X-5183831Y8258328D01*
X-5088593Y8305947D01*
X-4850498Y8305947D01*
X-4755260Y8258328D01*
X-4707641Y8210709D01*
X-4660022Y8115471D01*
X-4660022Y7829756D01*
X-4707641Y7734518D01*
X-4755260Y7686899D01*
X-458069Y5929852D02*
X-791402Y6406042D01*
X-1029498Y5929852D02*
X-1029498Y6929852D01*
X-648545Y6929852D01*
X-553307Y6882232D01*
X-505688Y6834613D01*
X-458069Y6739375D01*
X-458069Y6596518D01*
X-505688Y6501280D01*
X-553307Y6453661D01*
X-648545Y6406042D01*
X-1029498Y6406042D01*
X-77117Y6834613D02*
X-29498Y6882232D01*
X65740Y6929852D01*
X303836Y6929852D01*
X399074Y6882232D01*
X446693Y6834613D01*
X494312Y6739375D01*
X494312Y6644137D01*
X446693Y6501280D01*
X-124736Y5929852D01*
X494312Y5929852D01*
X2345933Y6165020D02*
X2012600Y6641210D01*
X1774504Y6165020D02*
X1774504Y7165020D01*
X2155457Y7165020D01*
X2250695Y7117400D01*
X2298314Y7069781D01*
X2345933Y6974543D01*
X2345933Y6831686D01*
X2298314Y6736448D01*
X2250695Y6688829D01*
X2155457Y6641210D01*
X1774504Y6641210D01*
X3298314Y6165020D02*
X2726885Y6165020D01*
X3012600Y6165020D02*
X3012600Y7165020D01*
X2917361Y7022162D01*
X2822123Y6926924D01*
X2726885Y6879305D01*
X10814980Y9605496D02*
X11624504Y9605496D01*
X11719742Y9653115D01*
X11767361Y9700734D01*
X11814980Y9795972D01*
X11814980Y9986448D01*
X11767361Y10081686D01*
X11719742Y10129305D01*
X11624504Y10176924D01*
X10814980Y10176924D01*
X10910219Y10605496D02*
X10862600Y10653115D01*
X10814980Y10748353D01*
X10814980Y10986448D01*
X10862600Y11081686D01*
X10910219Y11129305D01*
X11005457Y11176924D01*
X11100695Y11176924D01*
X11243552Y11129305D01*
X11814980Y10557877D01*
X11814980Y11176924D01*
X6940600Y25320543D02*
X6940600Y24463400D01*
X6883457Y24291972D01*
X6769171Y24177686D01*
X6597742Y24120543D01*
X6483457Y24120543D01*
X8083457Y25320543D02*
X7512028Y25320543D01*
X7454885Y24749115D01*
X7512028Y24806258D01*
X7626314Y24863400D01*
X7912028Y24863400D01*
X8026314Y24806258D01*
X8083457Y24749115D01*
X8140600Y24634829D01*
X8140600Y24349115D01*
X8083457Y24234829D01*
X8026314Y24177686D01*
X7912028Y24120543D01*
X7626314Y24120543D01*
X7512028Y24177686D01*
X7454885Y24234829D01*
X-7785020Y11234067D02*
X-7070734Y11234067D01*
X-6927877Y11186448D01*
X-6832639Y11091210D01*
X-6785020Y10948353D01*
X-6785020Y10853115D01*
X-7785020Y11615020D02*
X-7785020Y12234067D01*
X-7404067Y11900734D01*
X-7404067Y12043591D01*
X-7356448Y12138829D01*
X-7308829Y12186448D01*
X-7213591Y12234067D01*
X-6975496Y12234067D01*
X-6880258Y12186448D01*
X-6832639Y12138829D01*
X-6785020Y12043591D01*
X-6785020Y11757877D01*
X-6832639Y11662639D01*
X-6880258Y11615020D01*
X-7935020Y-2115933D02*
X-7220734Y-2115933D01*
X-7077877Y-2163552D01*
X-6982639Y-2258790D01*
X-6935020Y-2401647D01*
X-6935020Y-2496885D01*
X-7839781Y-1687361D02*
X-7887400Y-1639742D01*
X-7935020Y-1544504D01*
X-7935020Y-1306409D01*
X-7887400Y-1211171D01*
X-7839781Y-1163552D01*
X-7744543Y-1115933D01*
X-7649305Y-1115933D01*
X-7506448Y-1163552D01*
X-6935020Y-1734980D01*
X-6935020Y-1115933D01*
X1927266Y4891020D02*
X1927266Y4176734D01*
X1879647Y4033877D01*
X1784409Y3938639D01*
X1641552Y3891020D01*
X1546314Y3891020D01*
X2927266Y3891020D02*
X2355838Y3891020D01*
X2641552Y3891020D02*
X2641552Y4891020D01*
X2546314Y4748162D01*
X2451076Y4652924D01*
X2355838Y4605305D01*
X5264980Y18605496D02*
X6074504Y18605496D01*
X6169742Y18653115D01*
X6217361Y18700734D01*
X6264980Y18795972D01*
X6264980Y18986448D01*
X6217361Y19081686D01*
X6169742Y19129305D01*
X6074504Y19176924D01*
X5264980Y19176924D01*
X6264980Y20176924D02*
X6264980Y19605496D01*
X6264980Y19891210D02*
X5264980Y19891210D01*
X5407838Y19795972D01*
X5503076Y19700734D01*
X5550695Y19605496D01*
X9919742Y6000734D02*
X9967361Y5953115D01*
X10014980Y5810258D01*
X10014980Y5715020D01*
X9967361Y5572162D01*
X9872123Y5476924D01*
X9776885Y5429305D01*
X9586409Y5381686D01*
X9443552Y5381686D01*
X9253076Y5429305D01*
X9157838Y5476924D01*
X9062600Y5572162D01*
X9014980Y5715020D01*
X9014980Y5810258D01*
X9062600Y5953115D01*
X9110219Y6000734D01*
X10014980Y6953115D02*
X10014980Y6381686D01*
X10014980Y6667400D02*
X9014980Y6667400D01*
X9157838Y6572162D01*
X9253076Y6476924D01*
X9300695Y6381686D01*
X-6430258Y16561066D02*
X-6382639Y16513447D01*
X-6335020Y16370590D01*
X-6335020Y16275352D01*
X-6382639Y16132494D01*
X-6477877Y16037256D01*
X-6573115Y15989637D01*
X-6763591Y15942018D01*
X-6906448Y15942018D01*
X-7096924Y15989637D01*
X-7192162Y16037256D01*
X-7287400Y16132494D01*
X-7335020Y16275352D01*
X-7335020Y16370590D01*
X-7287400Y16513447D01*
X-7239781Y16561066D01*
X-7335020Y16894399D02*
X-7335020Y17513447D01*
X-6954067Y17180113D01*
X-6954067Y17322971D01*
X-6906448Y17418209D01*
X-6858829Y17465828D01*
X-6763591Y17513447D01*
X-6525496Y17513447D01*
X-6430258Y17465828D01*
X-6382639Y17418209D01*
X-6335020Y17322971D01*
X-6335020Y17037256D01*
X-6382639Y16942018D01*
X-6430258Y16894399D01*
X5945933Y8960258D02*
X5898314Y8912639D01*
X5755457Y8865020D01*
X5660219Y8865020D01*
X5517361Y8912639D01*
X5422123Y9007877D01*
X5374504Y9103115D01*
X5326885Y9293591D01*
X5326885Y9436448D01*
X5374504Y9626924D01*
X5422123Y9722162D01*
X5517361Y9817400D01*
X5660219Y9865020D01*
X5755457Y9865020D01*
X5898314Y9817400D01*
X5945933Y9769781D01*
X6803076Y9531686D02*
X6803076Y8865020D01*
X6564980Y9912639D02*
X6326885Y9198353D01*
X6945933Y9198353D01*
X4895933Y4460258D02*
X4848314Y4412639D01*
X4705457Y4365020D01*
X4610219Y4365020D01*
X4467361Y4412639D01*
X4372123Y4507877D01*
X4324504Y4603115D01*
X4276885Y4793591D01*
X4276885Y4936448D01*
X4324504Y5126924D01*
X4372123Y5222162D01*
X4467361Y5317400D01*
X4610219Y5365020D01*
X4705457Y5365020D01*
X4848314Y5317400D01*
X4895933Y5269781D01*
X5753076Y5365020D02*
X5562600Y5365020D01*
X5467361Y5317400D01*
X5419742Y5269781D01*
X5324504Y5126924D01*
X5276885Y4936448D01*
X5276885Y4555496D01*
X5324504Y4460258D01*
X5372123Y4412639D01*
X5467361Y4365020D01*
X5657838Y4365020D01*
X5753076Y4412639D01*
X5800695Y4460258D01*
X5848314Y4555496D01*
X5848314Y4793591D01*
X5800695Y4888829D01*
X5753076Y4936448D01*
X5657838Y4984067D01*
X5467361Y4984067D01*
X5372123Y4936448D01*
X5324504Y4888829D01*
X5276885Y4793591D01*
X12264980Y3300734D02*
X12264980Y2824543D01*
X11264980Y2824543D01*
X12264980Y4157877D02*
X12264980Y3586448D01*
X12264980Y3872162D02*
X11264980Y3872162D01*
X11407838Y3776924D01*
X11503076Y3681686D01*
X11550695Y3586448D01*
X-504067Y4360258D02*
X-551686Y4312639D01*
X-694543Y4265020D01*
X-789781Y4265020D01*
X-932639Y4312639D01*
X-1027877Y4407877D01*
X-1075496Y4503115D01*
X-1123115Y4693591D01*
X-1123115Y4836448D01*
X-1075496Y5026924D01*
X-1027877Y5122162D01*
X-932639Y5217400D01*
X-789781Y5265020D01*
X-694543Y5265020D01*
X-551686Y5217400D01*
X-504067Y5169781D01*
X400695Y5265020D02*
X-75496Y5265020D01*
X-123115Y4788829D01*
X-75496Y4836448D01*
X19742Y4884067D01*
X257838Y4884067D01*
X353076Y4836448D01*
X400695Y4788829D01*
X448314Y4693591D01*
X448314Y4455496D01*
X400695Y4360258D01*
X353076Y4312639D01*
X257838Y4265020D01*
X19742Y4265020D01*
X-75496Y4312639D01*
X-123115Y4360258D01*
X11045933Y710258D02*
X10998314Y662639D01*
X10855457Y615020D01*
X10760219Y615020D01*
X10617361Y662639D01*
X10522123Y757877D01*
X10474504Y853115D01*
X10426885Y1043591D01*
X10426885Y1186448D01*
X10474504Y1376924D01*
X10522123Y1472162D01*
X10617361Y1567400D01*
X10760219Y1615020D01*
X10855457Y1615020D01*
X10998314Y1567400D01*
X11045933Y1519781D01*
X11379266Y1615020D02*
X12045933Y1615020D01*
X11617361Y615020D01*
X4314980Y-1649266D02*
X3838790Y-1982600D01*
X4314980Y-2220695D02*
X3314980Y-2220695D01*
X3314980Y-1839742D01*
X3362600Y-1744504D01*
X3410219Y-1696885D01*
X3505457Y-1649266D01*
X3648314Y-1649266D01*
X3743552Y-1696885D01*
X3791171Y-1744504D01*
X3838790Y-1839742D01*
X3838790Y-2220695D01*
X3314980Y-792123D02*
X3314980Y-982600D01*
X3362600Y-1077838D01*
X3410219Y-1125457D01*
X3553076Y-1220695D01*
X3743552Y-1268314D01*
X4124504Y-1268314D01*
X4219742Y-1220695D01*
X4267361Y-1173076D01*
X4314980Y-1077838D01*
X4314980Y-887361D01*
X4267361Y-792123D01*
X4219742Y-744504D01*
X4124504Y-696885D01*
X3886409Y-696885D01*
X3791171Y-744504D01*
X3743552Y-792123D01*
X3695933Y-887361D01*
X3695933Y-1077838D01*
X3743552Y-1173076D01*
X3791171Y-1220695D01*
X3886409Y-1268314D01*
X8472409Y18667210D02*
X8472409Y18191020D01*
X8139076Y19191020D02*
X8472409Y18667210D01*
X8805742Y19191020D01*
X9662885Y18191020D02*
X9091457Y18191020D01*
X9377171Y18191020D02*
X9377171Y19191020D01*
X9281933Y19048162D01*
X9186695Y18952924D01*
X9091457Y18905305D01*
M02*
