%TF.GenerationSoftware,KiCad,Pcbnew,(5.0.0-rc2-dev-707-g2ed24a4)*%
%TF.CreationDate,2018-05-18T19:07:10+01:00*%
%TF.ProjectId,a5v11-mod-01,61357631312D6D6F642D30312E6B6963,rev?*%
%TF.SameCoordinates,PX3740df8PY3c191b8*%
%TF.FileFunction,Copper,L2,Bot,Signal*%
%TF.FilePolarity,Positive*%
%FSLAX46Y46*%
G04 Gerber Fmt 4.6, Leading zero omitted, Abs format (unit mm)*
G04 Created by KiCad (PCBNEW (5.0.0-rc2-dev-707-g2ed24a4)) date Friday, 18 May 2018 at 19:07:10*
%MOMM*%
%LPD*%
G01*
G04 APERTURE LIST*
%ADD10R,2.032000X1.727200*%
%ADD11O,2.032000X1.727200*%
%ADD12C,1.650000*%
%ADD13C,1.100000*%
%ADD14O,1.800000X4.300000*%
%ADD15R,1.500000X12.000000*%
%ADD16R,1.500000X11.500000*%
%ADD17R,0.300000X0.300000*%
%ADD18C,1.500000*%
%ADD19C,0.600000*%
%ADD20C,1.778000*%
%ADD21C,0.304800*%
%ADD22C,1.016000*%
%ADD23C,0.381000*%
%ADD24C,0.762000*%
%ADD25C,0.250000*%
%ADD26C,0.254000*%
G04 APERTURE END LIST*
D10*
X10612600Y33197400D03*
D11*
X10612600Y30657400D03*
X10612600Y28117400D03*
D10*
X-9597400Y13517400D03*
D11*
X-9597400Y16057400D03*
X-9597400Y18597400D03*
X-9597400Y21137400D03*
X-9597400Y23677400D03*
D10*
X-9597400Y-772600D03*
D11*
X-9597400Y1767400D03*
X-9597400Y4307400D03*
X-9597400Y6847400D03*
X-9597400Y9387400D03*
D12*
X1002600Y2377400D03*
X3502600Y2377400D03*
X-997400Y2377400D03*
X-3497400Y2377400D03*
D13*
X2252600Y277400D03*
X-2247400Y277400D03*
D14*
X-5697400Y277400D03*
X5702600Y277400D03*
D15*
X-3567400Y20127400D03*
X4052600Y20127400D03*
D16*
X1542600Y20377400D03*
X-1057400Y20377400D03*
D17*
X6242600Y24727400D03*
D18*
X3992600Y25227400D03*
X1492600Y25227400D03*
X-1007400Y25227400D03*
X-3507400Y25227400D03*
X-3507400Y23417400D03*
D19*
X11176000Y20320000D03*
X10414000Y20320000D03*
X10414000Y20320000D03*
X9626600Y20465400D03*
X8356600Y23368000D03*
X7594600Y23368000D03*
X10160000Y14224000D03*
X8890000Y16256000D03*
X5751268Y17616732D03*
X6604000Y23368000D03*
X2252600Y13477400D03*
X10652600Y1177400D03*
D20*
X2919431Y6411973D03*
D19*
X1251929Y8778071D03*
D20*
X5407771Y4383221D03*
D19*
X56880Y9336332D03*
X-7347400Y5227400D03*
D20*
X-6768355Y17296912D03*
D19*
X-3597400Y13327400D03*
X-1947400Y13309857D03*
X-1197400Y13309857D03*
D20*
X9921752Y5958248D03*
D19*
X8852600Y11677400D03*
X-481902Y12536732D03*
X6152600Y12240400D03*
D20*
X1280886Y22527773D03*
D19*
X1711207Y20513461D03*
D20*
X-1007400Y23937400D03*
D19*
X-734253Y21448261D03*
X2361276Y12122590D03*
X4255266Y12467400D03*
X9712600Y8417400D03*
X3772598Y9467400D03*
X4912600Y24467400D03*
X3242601Y24037399D03*
D20*
X6096000Y9398000D03*
D19*
X6004600Y18567400D03*
X6832600Y18796000D03*
X7620000Y18796000D03*
D20*
X-5397400Y4927400D03*
X-6651714Y10571714D03*
X-7565400Y2479340D03*
D21*
X7594600Y23368000D02*
X8356600Y23368000D01*
D22*
X10668000Y3302000D02*
X6488992Y3302000D01*
X6488992Y3302000D02*
X5407771Y4383221D01*
X11684000Y4318000D02*
X10668000Y3302000D01*
X11684000Y10414000D02*
X11684000Y4318000D01*
X10160000Y11938000D02*
X11684000Y10414000D01*
X10160000Y14224000D02*
X10160000Y11938000D01*
D23*
X5751268Y17616732D02*
X7529268Y17616732D01*
X7529268Y17616732D02*
X8890000Y16256000D01*
D24*
X1352600Y7953136D02*
X1251929Y8053807D01*
X1251929Y8053807D02*
X1251929Y8353807D01*
X1251929Y8353807D02*
X1251929Y8778071D01*
D21*
X-5262200Y24277400D02*
X-6305000Y24277400D01*
X-6305000Y24277400D02*
X-9445000Y21137400D01*
X-9445000Y21137400D02*
X-9597400Y21137400D01*
X-5062200Y24477400D02*
X-5262200Y24277400D01*
D22*
X-3567400Y18127400D02*
X-5937867Y18127400D01*
X-5937867Y18127400D02*
X-6768355Y17296912D01*
X-1057801Y-933001D02*
X2600Y127400D01*
X-3897400Y-622600D02*
X-3586999Y-933001D01*
X-3586999Y-933001D02*
X-1057801Y-933001D01*
X-3897400Y810674D02*
X-3897400Y-622600D01*
X-3497400Y2377400D02*
X-3497400Y1210674D01*
X-3497400Y1210674D02*
X-3897400Y810674D01*
X-6768355Y17296912D02*
X-6768355Y18308355D01*
X-6768355Y18308355D02*
X-9597400Y21137400D01*
X-3567400Y15077400D02*
X-3567400Y18127400D01*
D21*
X56880Y9336332D02*
X-927461Y10320673D01*
X-927461Y10320673D02*
X-927461Y12012410D01*
X-927461Y12012410D02*
X-1167712Y12252661D01*
X-1167712Y12252661D02*
X-1167712Y13280169D01*
X-1167712Y13280169D02*
X-1197400Y13309857D01*
D24*
X-8967400Y6847400D02*
X-7347400Y5227400D01*
D22*
X-5780257Y8727000D02*
X-1197400Y13309857D01*
X-7565400Y8727000D02*
X-5780257Y8727000D01*
X-9445000Y6847400D02*
X-7565400Y8727000D01*
X-9597400Y6847400D02*
X-9445000Y6847400D01*
D24*
X-9597400Y6847400D02*
X-8967400Y6847400D01*
D21*
X1952600Y13777400D02*
X2252600Y13477400D01*
X-729857Y13777400D02*
X1952600Y13777400D01*
X-1197400Y13309857D02*
X-729857Y13777400D01*
D24*
X9921752Y7215483D02*
X9921752Y5958248D01*
X10642589Y9887411D02*
X10642589Y7936320D01*
X8852600Y11677400D02*
X10642589Y9887411D01*
X10642589Y7936320D02*
X9921752Y7215483D01*
X765641Y11289189D02*
X-181903Y12236733D01*
X-181903Y12236733D02*
X-481902Y12536732D01*
X2761309Y11289189D02*
X765641Y11289189D01*
X2793075Y11320955D02*
X2761309Y11289189D01*
X5728336Y12240400D02*
X4808891Y11320955D01*
X6152600Y12240400D02*
X5728336Y12240400D01*
X4808891Y11320955D02*
X2793075Y11320955D01*
D21*
X1711207Y20089197D02*
X1711207Y20513461D01*
X1711207Y18546007D02*
X1711207Y20089197D01*
X1542600Y18377400D02*
X1711207Y18546007D01*
X-1057400Y21125114D02*
X-1034252Y21148262D01*
X-1034252Y21148262D02*
X-734253Y21448261D01*
X-1057400Y18377400D02*
X-1057400Y21125114D01*
X4255266Y12630066D02*
X4012600Y12630066D01*
X4012600Y12630066D02*
X2836985Y12630066D01*
D25*
X4255266Y12467400D02*
X4175266Y12467400D01*
X4175266Y12467400D02*
X4012600Y12630066D01*
D21*
X2765793Y12558874D02*
X2765793Y12527107D01*
X2765793Y12527107D02*
X2661275Y12422589D01*
X2661275Y12422589D02*
X2361276Y12122590D01*
X3028506Y12701494D02*
X2908413Y12701494D01*
X2836985Y12630066D02*
X2765793Y12558874D01*
X2908413Y12701494D02*
X2765793Y12558874D01*
X9529018Y9299792D02*
X9529018Y8600982D01*
X9529018Y8600982D02*
X9611388Y8518611D01*
X3772598Y9467400D02*
X4956228Y10651030D01*
X8177780Y10651030D02*
X9529018Y9299792D01*
X4956228Y10651030D02*
X8177780Y10651030D01*
D24*
X6820720Y9457229D02*
X6155229Y9457229D01*
X6155229Y9457229D02*
X6096000Y9398000D01*
X6408336Y18796000D02*
X6832600Y18796000D01*
X4721200Y18796000D02*
X6408336Y18796000D01*
X4052600Y18127400D02*
X4721200Y18796000D01*
X6832600Y18796000D02*
X7620000Y18796000D01*
D22*
X-6651714Y10571714D02*
X-9597400Y13517400D01*
D24*
X6820720Y8199994D02*
X3548126Y4927400D01*
X3548126Y4927400D02*
X-4140165Y4927400D01*
X-4140165Y4927400D02*
X-5397400Y4927400D01*
X-5397400Y4927400D02*
X-5397400Y4647340D01*
X-5397400Y4647340D02*
X-7565400Y2479340D01*
X6820720Y9457229D02*
X6820720Y8199994D01*
X6790891Y9427400D02*
X6820720Y9457229D01*
D26*
G36*
X11742600Y25274474D02*
X11742601Y-2012600D01*
X6853822Y-2012600D01*
X7148538Y-1571527D01*
X7237600Y-1123782D01*
X7237600Y1678582D01*
X7148538Y2126327D01*
X6809273Y2634073D01*
X6301526Y2973338D01*
X5702600Y3092472D01*
X5103673Y2973338D01*
X4894061Y2833280D01*
X4740328Y3204424D01*
X4329624Y3615128D01*
X3793012Y3837400D01*
X3212188Y3837400D01*
X2675576Y3615128D01*
X2264872Y3204424D01*
X2252600Y3174797D01*
X2240328Y3204424D01*
X1829624Y3615128D01*
X1293012Y3837400D01*
X712188Y3837400D01*
X175576Y3615128D01*
X2600Y3442152D01*
X-170376Y3615128D01*
X-706988Y3837400D01*
X-1287812Y3837400D01*
X-1824424Y3615128D01*
X-2235128Y3204424D01*
X-2255008Y3156430D01*
X-2471547Y3223648D01*
X-3317795Y2377400D01*
X-3303652Y2363257D01*
X-3483257Y2183652D01*
X-3497400Y2197795D01*
X-3511542Y2183652D01*
X-3691147Y2363257D01*
X-3677005Y2377400D01*
X-4523253Y3223648D01*
X-4771963Y3146444D01*
X-4885794Y2831230D01*
X-5098474Y2973338D01*
X-5545619Y3062281D01*
X-5204647Y3403253D01*
X-4343648Y3403253D01*
X-3497400Y2557005D01*
X-2651152Y3403253D01*
X-2728356Y3651963D01*
X-3274650Y3849243D01*
X-3854856Y3822448D01*
X-4266444Y3651963D01*
X-4343648Y3403253D01*
X-5204647Y3403253D01*
X-5204499Y3403400D01*
X-5094258Y3403400D01*
X-4534123Y3635415D01*
X-4258138Y3911400D01*
X3448063Y3911400D01*
X3548126Y3891496D01*
X3648189Y3911400D01*
X3648191Y3911400D01*
X3944549Y3970349D01*
X4280621Y4194905D01*
X4337306Y4279740D01*
X7468383Y7410816D01*
X7553215Y7467499D01*
X7777771Y7803571D01*
X7836720Y8099929D01*
X7836720Y8099930D01*
X7856624Y8199994D01*
X7836720Y8300057D01*
X7836720Y9357164D01*
X7856624Y9457229D01*
X7777771Y9853652D01*
X7771104Y9863630D01*
X7851629Y9863630D01*
X8741618Y8973640D01*
X8741618Y8678535D01*
X8726192Y8600986D01*
X8741618Y8523432D01*
X8741618Y8523430D01*
X8746243Y8500178D01*
X8777600Y8342534D01*
X8777600Y8231417D01*
X8919945Y7887765D01*
X9057268Y7750442D01*
X8964701Y7611905D01*
X8938941Y7482400D01*
X8885848Y7215483D01*
X8905752Y7115419D01*
X8905752Y7097510D01*
X8629767Y6821525D01*
X8397752Y6261390D01*
X8397752Y5655106D01*
X8629767Y5094971D01*
X9058475Y4666263D01*
X9618610Y4434248D01*
X10224894Y4434248D01*
X10785029Y4666263D01*
X11213737Y5094971D01*
X11445752Y5655106D01*
X11445752Y6261390D01*
X11213737Y6821525D01*
X11089186Y6946076D01*
X11290252Y7147142D01*
X11375084Y7203825D01*
X11599640Y7539897D01*
X11658589Y7836255D01*
X11678493Y7936319D01*
X11658589Y8036383D01*
X11658589Y9787347D01*
X11678493Y9887411D01*
X11658589Y9987476D01*
X11599640Y10283834D01*
X11375084Y10619906D01*
X11290253Y10676588D01*
X9500263Y12466577D01*
X9249023Y12634450D01*
X8852600Y12713304D01*
X8456177Y12634450D01*
X8120106Y12409894D01*
X7895550Y12073823D01*
X7816696Y11677400D01*
X7864230Y11438430D01*
X6781118Y11438430D01*
X6885095Y11507905D01*
X7109651Y11843977D01*
X7188504Y12240400D01*
X7109651Y12636823D01*
X6885095Y12972895D01*
X6549023Y13197451D01*
X6252665Y13256400D01*
X5828400Y13256400D01*
X5728336Y13276304D01*
X5628272Y13256400D01*
X5628271Y13256400D01*
X5331913Y13197451D01*
X5041532Y13003424D01*
X4784901Y13260055D01*
X4639679Y13320208D01*
X4562494Y13371781D01*
X4471449Y13389891D01*
X4441249Y13402400D01*
X4408561Y13402400D01*
X4332818Y13417466D01*
X3374261Y13417466D01*
X3335734Y13443209D01*
X3106058Y13488894D01*
X2985963Y13488894D01*
X2908412Y13504320D01*
X2830861Y13488894D01*
X2601185Y13443209D01*
X2340729Y13269178D01*
X2312119Y13226360D01*
X2269301Y13197750D01*
X2240785Y13155074D01*
X2198109Y13126558D01*
X2143123Y13044265D01*
X1831641Y12915245D01*
X1568621Y12652225D01*
X1426276Y12308573D01*
X1426276Y12305189D01*
X1186482Y12305189D01*
X465760Y13025910D01*
X165761Y13325909D01*
X-85479Y13493782D01*
X-481902Y13572636D01*
X-878325Y13493782D01*
X-1214396Y13269226D01*
X-1438952Y12933155D01*
X-1517806Y12536732D01*
X-1438952Y12140309D01*
X-1271079Y11889069D01*
X-971080Y11589070D01*
X-23537Y10641526D01*
X33146Y10556694D01*
X369218Y10332138D01*
X665576Y10273189D01*
X665577Y10273189D01*
X765641Y10253285D01*
X865705Y10273189D01*
X2661246Y10273189D01*
X2761309Y10253285D01*
X2861372Y10273189D01*
X2861374Y10273189D01*
X3021073Y10304955D01*
X3351361Y10304955D01*
X3242963Y10260055D01*
X2979943Y9997035D01*
X2837598Y9653383D01*
X2837598Y9281417D01*
X2979943Y8937765D01*
X3242963Y8674745D01*
X3586615Y8532400D01*
X3958581Y8532400D01*
X4302233Y8674745D01*
X4565253Y8937765D01*
X4601161Y9024456D01*
X4804015Y8534723D01*
X5232723Y8106015D01*
X5273153Y8089268D01*
X3127286Y5943400D01*
X-4258138Y5943400D01*
X-4534123Y6219385D01*
X-5094258Y6451400D01*
X-5700542Y6451400D01*
X-6260677Y6219385D01*
X-6689385Y5790677D01*
X-6921400Y5230542D01*
X-6921400Y4624258D01*
X-6902632Y4578948D01*
X-7478240Y4003340D01*
X-7868542Y4003340D01*
X-7987308Y3954146D01*
X-7917041Y4307400D01*
X-8033350Y4892125D01*
X-8364570Y5387830D01*
X-8654132Y5581310D01*
X-8246668Y5945364D01*
X-7992691Y6472609D01*
X-7990042Y6488374D01*
X-8111183Y6720400D01*
X-9470400Y6720400D01*
X-9470400Y6700400D01*
X-9724400Y6700400D01*
X-9724400Y6720400D01*
X-9744400Y6720400D01*
X-9744400Y6974400D01*
X-9724400Y6974400D01*
X-9724400Y6994400D01*
X-9470400Y6994400D01*
X-9470400Y6974400D01*
X-8111183Y6974400D01*
X-7990042Y7206426D01*
X-7992691Y7222191D01*
X-8246668Y7749436D01*
X-8654132Y8113490D01*
X-8364570Y8306970D01*
X-8033350Y8802675D01*
X-7917041Y9387400D01*
X-8015268Y9881220D01*
X-7943699Y9708437D01*
X-7514991Y9279729D01*
X-6954856Y9047714D01*
X-6348572Y9047714D01*
X-5788437Y9279729D01*
X-5359729Y9708437D01*
X-5127714Y10268572D01*
X-5127714Y10874856D01*
X-5359729Y11434991D01*
X-5788437Y11863699D01*
X-6348572Y12095714D01*
X-6559268Y12095714D01*
X-7933960Y13470405D01*
X-7933960Y14381000D01*
X-7983243Y14628765D01*
X-8123591Y14838809D01*
X-8333635Y14979157D01*
X-8359651Y14984332D01*
X-8033350Y15472675D01*
X-7917041Y16057400D01*
X-8033350Y16642125D01*
X-8364570Y17137830D01*
X-8648281Y17327400D01*
X-8364570Y17516970D01*
X-8033350Y18012675D01*
X-7917041Y18597400D01*
X-8033350Y19182125D01*
X-8364570Y19677830D01*
X-8609742Y19841650D01*
X-4952400Y19841650D01*
X-4952400Y14001090D01*
X-4855727Y13767701D01*
X-4677098Y13589073D01*
X-4443709Y13492400D01*
X-3853150Y13492400D01*
X-3694400Y13651150D01*
X-3694400Y20000400D01*
X-4793650Y20000400D01*
X-4952400Y19841650D01*
X-8609742Y19841650D01*
X-8654132Y19871310D01*
X-8246668Y20235364D01*
X-7992691Y20762609D01*
X-7990042Y20778374D01*
X-8111183Y21010400D01*
X-9470400Y21010400D01*
X-9470400Y20990400D01*
X-9724400Y20990400D01*
X-9724400Y21010400D01*
X-9744400Y21010400D01*
X-9744400Y21264400D01*
X-9724400Y21264400D01*
X-9724400Y21284400D01*
X-9470400Y21284400D01*
X-9470400Y21264400D01*
X-8111183Y21264400D01*
X-7990042Y21496426D01*
X-7992691Y21512191D01*
X-8246668Y22039436D01*
X-8654132Y22403490D01*
X-8364570Y22596970D01*
X-8033350Y23092675D01*
X-7917041Y23677400D01*
X-8033350Y24262125D01*
X-8319247Y24690000D01*
X-4952400Y24690000D01*
X-4952400Y20413150D01*
X-4793650Y20254400D01*
X-3694400Y20254400D01*
X-3694400Y20274400D01*
X-3440400Y20274400D01*
X-3440400Y20254400D01*
X-3420400Y20254400D01*
X-3420400Y20000400D01*
X-3440400Y20000400D01*
X-3440400Y13651150D01*
X-3281650Y13492400D01*
X-2691091Y13492400D01*
X-2457702Y13589073D01*
X-2279073Y13767701D01*
X-2182400Y14001090D01*
X-2182400Y14114259D01*
X-2055165Y14029243D01*
X-1807400Y13979960D01*
X-307400Y13979960D01*
X-59635Y14029243D01*
X150409Y14169591D01*
X242600Y14307564D01*
X334791Y14169591D01*
X544835Y14029243D01*
X792600Y13979960D01*
X2292600Y13979960D01*
X2540365Y14029243D01*
X2658927Y14108464D01*
X2704443Y13879635D01*
X2844791Y13669591D01*
X3054835Y13529243D01*
X3302600Y13479960D01*
X4802600Y13479960D01*
X5050365Y13529243D01*
X5260409Y13669591D01*
X5400757Y13879635D01*
X5450040Y14127400D01*
X5450040Y17780000D01*
X5469710Y17780000D01*
X5474965Y17774745D01*
X5818617Y17632400D01*
X6190583Y17632400D01*
X6534235Y17774745D01*
X6539490Y17780000D01*
X7720065Y17780000D01*
X8016423Y17838949D01*
X8352495Y18063505D01*
X8577051Y18399577D01*
X8655904Y18796000D01*
X8577051Y19192423D01*
X8352495Y19528495D01*
X8016423Y19753051D01*
X7720065Y19812000D01*
X5450040Y19812000D01*
X5450040Y23682550D01*
X5705255Y23937765D01*
X5745122Y24034012D01*
X5966291Y23942400D01*
X6008850Y23942400D01*
X6167600Y24101150D01*
X6167600Y24652400D01*
X6317600Y24652400D01*
X6317600Y24101150D01*
X6476350Y23942400D01*
X6518909Y23942400D01*
X6752298Y24039073D01*
X6930927Y24217701D01*
X7027600Y24451090D01*
X7027600Y24493650D01*
X6868850Y24652400D01*
X6317600Y24652400D01*
X6167600Y24652400D01*
X6095600Y24652400D01*
X6095600Y24802400D01*
X6167600Y24802400D01*
X6167600Y24874400D01*
X6317600Y24874400D01*
X6317600Y24802400D01*
X6868850Y24802400D01*
X7027600Y24961150D01*
X7027600Y25003710D01*
X6930927Y25237099D01*
X6877589Y25290437D01*
X11742600Y25274474D01*
X11742600Y25274474D01*
G37*
X11742600Y25274474D02*
X11742601Y-2012600D01*
X6853822Y-2012600D01*
X7148538Y-1571527D01*
X7237600Y-1123782D01*
X7237600Y1678582D01*
X7148538Y2126327D01*
X6809273Y2634073D01*
X6301526Y2973338D01*
X5702600Y3092472D01*
X5103673Y2973338D01*
X4894061Y2833280D01*
X4740328Y3204424D01*
X4329624Y3615128D01*
X3793012Y3837400D01*
X3212188Y3837400D01*
X2675576Y3615128D01*
X2264872Y3204424D01*
X2252600Y3174797D01*
X2240328Y3204424D01*
X1829624Y3615128D01*
X1293012Y3837400D01*
X712188Y3837400D01*
X175576Y3615128D01*
X2600Y3442152D01*
X-170376Y3615128D01*
X-706988Y3837400D01*
X-1287812Y3837400D01*
X-1824424Y3615128D01*
X-2235128Y3204424D01*
X-2255008Y3156430D01*
X-2471547Y3223648D01*
X-3317795Y2377400D01*
X-3303652Y2363257D01*
X-3483257Y2183652D01*
X-3497400Y2197795D01*
X-3511542Y2183652D01*
X-3691147Y2363257D01*
X-3677005Y2377400D01*
X-4523253Y3223648D01*
X-4771963Y3146444D01*
X-4885794Y2831230D01*
X-5098474Y2973338D01*
X-5545619Y3062281D01*
X-5204647Y3403253D01*
X-4343648Y3403253D01*
X-3497400Y2557005D01*
X-2651152Y3403253D01*
X-2728356Y3651963D01*
X-3274650Y3849243D01*
X-3854856Y3822448D01*
X-4266444Y3651963D01*
X-4343648Y3403253D01*
X-5204647Y3403253D01*
X-5204499Y3403400D01*
X-5094258Y3403400D01*
X-4534123Y3635415D01*
X-4258138Y3911400D01*
X3448063Y3911400D01*
X3548126Y3891496D01*
X3648189Y3911400D01*
X3648191Y3911400D01*
X3944549Y3970349D01*
X4280621Y4194905D01*
X4337306Y4279740D01*
X7468383Y7410816D01*
X7553215Y7467499D01*
X7777771Y7803571D01*
X7836720Y8099929D01*
X7836720Y8099930D01*
X7856624Y8199994D01*
X7836720Y8300057D01*
X7836720Y9357164D01*
X7856624Y9457229D01*
X7777771Y9853652D01*
X7771104Y9863630D01*
X7851629Y9863630D01*
X8741618Y8973640D01*
X8741618Y8678535D01*
X8726192Y8600986D01*
X8741618Y8523432D01*
X8741618Y8523430D01*
X8746243Y8500178D01*
X8777600Y8342534D01*
X8777600Y8231417D01*
X8919945Y7887765D01*
X9057268Y7750442D01*
X8964701Y7611905D01*
X8938941Y7482400D01*
X8885848Y7215483D01*
X8905752Y7115419D01*
X8905752Y7097510D01*
X8629767Y6821525D01*
X8397752Y6261390D01*
X8397752Y5655106D01*
X8629767Y5094971D01*
X9058475Y4666263D01*
X9618610Y4434248D01*
X10224894Y4434248D01*
X10785029Y4666263D01*
X11213737Y5094971D01*
X11445752Y5655106D01*
X11445752Y6261390D01*
X11213737Y6821525D01*
X11089186Y6946076D01*
X11290252Y7147142D01*
X11375084Y7203825D01*
X11599640Y7539897D01*
X11658589Y7836255D01*
X11678493Y7936319D01*
X11658589Y8036383D01*
X11658589Y9787347D01*
X11678493Y9887411D01*
X11658589Y9987476D01*
X11599640Y10283834D01*
X11375084Y10619906D01*
X11290253Y10676588D01*
X9500263Y12466577D01*
X9249023Y12634450D01*
X8852600Y12713304D01*
X8456177Y12634450D01*
X8120106Y12409894D01*
X7895550Y12073823D01*
X7816696Y11677400D01*
X7864230Y11438430D01*
X6781118Y11438430D01*
X6885095Y11507905D01*
X7109651Y11843977D01*
X7188504Y12240400D01*
X7109651Y12636823D01*
X6885095Y12972895D01*
X6549023Y13197451D01*
X6252665Y13256400D01*
X5828400Y13256400D01*
X5728336Y13276304D01*
X5628272Y13256400D01*
X5628271Y13256400D01*
X5331913Y13197451D01*
X5041532Y13003424D01*
X4784901Y13260055D01*
X4639679Y13320208D01*
X4562494Y13371781D01*
X4471449Y13389891D01*
X4441249Y13402400D01*
X4408561Y13402400D01*
X4332818Y13417466D01*
X3374261Y13417466D01*
X3335734Y13443209D01*
X3106058Y13488894D01*
X2985963Y13488894D01*
X2908412Y13504320D01*
X2830861Y13488894D01*
X2601185Y13443209D01*
X2340729Y13269178D01*
X2312119Y13226360D01*
X2269301Y13197750D01*
X2240785Y13155074D01*
X2198109Y13126558D01*
X2143123Y13044265D01*
X1831641Y12915245D01*
X1568621Y12652225D01*
X1426276Y12308573D01*
X1426276Y12305189D01*
X1186482Y12305189D01*
X465760Y13025910D01*
X165761Y13325909D01*
X-85479Y13493782D01*
X-481902Y13572636D01*
X-878325Y13493782D01*
X-1214396Y13269226D01*
X-1438952Y12933155D01*
X-1517806Y12536732D01*
X-1438952Y12140309D01*
X-1271079Y11889069D01*
X-971080Y11589070D01*
X-23537Y10641526D01*
X33146Y10556694D01*
X369218Y10332138D01*
X665576Y10273189D01*
X665577Y10273189D01*
X765641Y10253285D01*
X865705Y10273189D01*
X2661246Y10273189D01*
X2761309Y10253285D01*
X2861372Y10273189D01*
X2861374Y10273189D01*
X3021073Y10304955D01*
X3351361Y10304955D01*
X3242963Y10260055D01*
X2979943Y9997035D01*
X2837598Y9653383D01*
X2837598Y9281417D01*
X2979943Y8937765D01*
X3242963Y8674745D01*
X3586615Y8532400D01*
X3958581Y8532400D01*
X4302233Y8674745D01*
X4565253Y8937765D01*
X4601161Y9024456D01*
X4804015Y8534723D01*
X5232723Y8106015D01*
X5273153Y8089268D01*
X3127286Y5943400D01*
X-4258138Y5943400D01*
X-4534123Y6219385D01*
X-5094258Y6451400D01*
X-5700542Y6451400D01*
X-6260677Y6219385D01*
X-6689385Y5790677D01*
X-6921400Y5230542D01*
X-6921400Y4624258D01*
X-6902632Y4578948D01*
X-7478240Y4003340D01*
X-7868542Y4003340D01*
X-7987308Y3954146D01*
X-7917041Y4307400D01*
X-8033350Y4892125D01*
X-8364570Y5387830D01*
X-8654132Y5581310D01*
X-8246668Y5945364D01*
X-7992691Y6472609D01*
X-7990042Y6488374D01*
X-8111183Y6720400D01*
X-9470400Y6720400D01*
X-9470400Y6700400D01*
X-9724400Y6700400D01*
X-9724400Y6720400D01*
X-9744400Y6720400D01*
X-9744400Y6974400D01*
X-9724400Y6974400D01*
X-9724400Y6994400D01*
X-9470400Y6994400D01*
X-9470400Y6974400D01*
X-8111183Y6974400D01*
X-7990042Y7206426D01*
X-7992691Y7222191D01*
X-8246668Y7749436D01*
X-8654132Y8113490D01*
X-8364570Y8306970D01*
X-8033350Y8802675D01*
X-7917041Y9387400D01*
X-8015268Y9881220D01*
X-7943699Y9708437D01*
X-7514991Y9279729D01*
X-6954856Y9047714D01*
X-6348572Y9047714D01*
X-5788437Y9279729D01*
X-5359729Y9708437D01*
X-5127714Y10268572D01*
X-5127714Y10874856D01*
X-5359729Y11434991D01*
X-5788437Y11863699D01*
X-6348572Y12095714D01*
X-6559268Y12095714D01*
X-7933960Y13470405D01*
X-7933960Y14381000D01*
X-7983243Y14628765D01*
X-8123591Y14838809D01*
X-8333635Y14979157D01*
X-8359651Y14984332D01*
X-8033350Y15472675D01*
X-7917041Y16057400D01*
X-8033350Y16642125D01*
X-8364570Y17137830D01*
X-8648281Y17327400D01*
X-8364570Y17516970D01*
X-8033350Y18012675D01*
X-7917041Y18597400D01*
X-8033350Y19182125D01*
X-8364570Y19677830D01*
X-8609742Y19841650D01*
X-4952400Y19841650D01*
X-4952400Y14001090D01*
X-4855727Y13767701D01*
X-4677098Y13589073D01*
X-4443709Y13492400D01*
X-3853150Y13492400D01*
X-3694400Y13651150D01*
X-3694400Y20000400D01*
X-4793650Y20000400D01*
X-4952400Y19841650D01*
X-8609742Y19841650D01*
X-8654132Y19871310D01*
X-8246668Y20235364D01*
X-7992691Y20762609D01*
X-7990042Y20778374D01*
X-8111183Y21010400D01*
X-9470400Y21010400D01*
X-9470400Y20990400D01*
X-9724400Y20990400D01*
X-9724400Y21010400D01*
X-9744400Y21010400D01*
X-9744400Y21264400D01*
X-9724400Y21264400D01*
X-9724400Y21284400D01*
X-9470400Y21284400D01*
X-9470400Y21264400D01*
X-8111183Y21264400D01*
X-7990042Y21496426D01*
X-7992691Y21512191D01*
X-8246668Y22039436D01*
X-8654132Y22403490D01*
X-8364570Y22596970D01*
X-8033350Y23092675D01*
X-7917041Y23677400D01*
X-8033350Y24262125D01*
X-8319247Y24690000D01*
X-4952400Y24690000D01*
X-4952400Y20413150D01*
X-4793650Y20254400D01*
X-3694400Y20254400D01*
X-3694400Y20274400D01*
X-3440400Y20274400D01*
X-3440400Y20254400D01*
X-3420400Y20254400D01*
X-3420400Y20000400D01*
X-3440400Y20000400D01*
X-3440400Y13651150D01*
X-3281650Y13492400D01*
X-2691091Y13492400D01*
X-2457702Y13589073D01*
X-2279073Y13767701D01*
X-2182400Y14001090D01*
X-2182400Y14114259D01*
X-2055165Y14029243D01*
X-1807400Y13979960D01*
X-307400Y13979960D01*
X-59635Y14029243D01*
X150409Y14169591D01*
X242600Y14307564D01*
X334791Y14169591D01*
X544835Y14029243D01*
X792600Y13979960D01*
X2292600Y13979960D01*
X2540365Y14029243D01*
X2658927Y14108464D01*
X2704443Y13879635D01*
X2844791Y13669591D01*
X3054835Y13529243D01*
X3302600Y13479960D01*
X4802600Y13479960D01*
X5050365Y13529243D01*
X5260409Y13669591D01*
X5400757Y13879635D01*
X5450040Y14127400D01*
X5450040Y17780000D01*
X5469710Y17780000D01*
X5474965Y17774745D01*
X5818617Y17632400D01*
X6190583Y17632400D01*
X6534235Y17774745D01*
X6539490Y17780000D01*
X7720065Y17780000D01*
X8016423Y17838949D01*
X8352495Y18063505D01*
X8577051Y18399577D01*
X8655904Y18796000D01*
X8577051Y19192423D01*
X8352495Y19528495D01*
X8016423Y19753051D01*
X7720065Y19812000D01*
X5450040Y19812000D01*
X5450040Y23682550D01*
X5705255Y23937765D01*
X5745122Y24034012D01*
X5966291Y23942400D01*
X6008850Y23942400D01*
X6167600Y24101150D01*
X6167600Y24652400D01*
X6317600Y24652400D01*
X6317600Y24101150D01*
X6476350Y23942400D01*
X6518909Y23942400D01*
X6752298Y24039073D01*
X6930927Y24217701D01*
X7027600Y24451090D01*
X7027600Y24493650D01*
X6868850Y24652400D01*
X6317600Y24652400D01*
X6167600Y24652400D01*
X6095600Y24652400D01*
X6095600Y24802400D01*
X6167600Y24802400D01*
X6167600Y24874400D01*
X6317600Y24874400D01*
X6317600Y24802400D01*
X6868850Y24802400D01*
X7027600Y24961150D01*
X7027600Y25003710D01*
X6930927Y25237099D01*
X6877589Y25290437D01*
X11742600Y25274474D01*
G36*
X175576Y1139672D02*
X712188Y917400D01*
X1235061Y917400D01*
X1067600Y513111D01*
X1067600Y41689D01*
X1248005Y-393849D01*
X1581351Y-727195D01*
X2016889Y-907600D01*
X2488311Y-907600D01*
X2923849Y-727195D01*
X3257195Y-393849D01*
X3437600Y41689D01*
X3437600Y513111D01*
X3270139Y917400D01*
X3793012Y917400D01*
X4167600Y1072560D01*
X4167601Y-1123782D01*
X4256663Y-1571527D01*
X4551379Y-2012600D01*
X-4546178Y-2012600D01*
X-4251462Y-1571527D01*
X-4162400Y-1123782D01*
X-4162400Y1065264D01*
X-3720150Y905557D01*
X-3261062Y926759D01*
X-3432400Y513111D01*
X-3432400Y41689D01*
X-3251995Y-393849D01*
X-2918649Y-727195D01*
X-2483111Y-907600D01*
X-2011689Y-907600D01*
X-1576151Y-727195D01*
X-1242805Y-393849D01*
X-1062400Y41689D01*
X-1062400Y513111D01*
X-1229861Y917400D01*
X-706988Y917400D01*
X-170376Y1139672D01*
X2600Y1312648D01*
X175576Y1139672D01*
X175576Y1139672D01*
G37*
X175576Y1139672D02*
X712188Y917400D01*
X1235061Y917400D01*
X1067600Y513111D01*
X1067600Y41689D01*
X1248005Y-393849D01*
X1581351Y-727195D01*
X2016889Y-907600D01*
X2488311Y-907600D01*
X2923849Y-727195D01*
X3257195Y-393849D01*
X3437600Y41689D01*
X3437600Y513111D01*
X3270139Y917400D01*
X3793012Y917400D01*
X4167600Y1072560D01*
X4167601Y-1123782D01*
X4256663Y-1571527D01*
X4551379Y-2012600D01*
X-4546178Y-2012600D01*
X-4251462Y-1571527D01*
X-4162400Y-1123782D01*
X-4162400Y1065264D01*
X-3720150Y905557D01*
X-3261062Y926759D01*
X-3432400Y513111D01*
X-3432400Y41689D01*
X-3251995Y-393849D01*
X-2918649Y-727195D01*
X-2483111Y-907600D01*
X-2011689Y-907600D01*
X-1576151Y-727195D01*
X-1242805Y-393849D01*
X-1062400Y41689D01*
X-1062400Y513111D01*
X-1229861Y917400D01*
X-706988Y917400D01*
X-170376Y1139672D01*
X2600Y1312648D01*
X175576Y1139672D01*
M02*
