%TF.GenerationSoftware,KiCad,Pcbnew,4.0.7*%
%TF.CreationDate,2018-05-11T17:05:07+01:00*%
%TF.ProjectId,a5v11-mod-01,61357631312D6D6F642D30312E6B6963,rev?*%
%TF.FileFunction,Legend,Top*%
%FSLAX46Y46*%
G04 Gerber Fmt 4.6, Leading zero omitted, Abs format (unit mm)*
G04 Created by KiCad (PCBNEW 4.0.7) date Friday, 11 May 2018 'PMt' 17:05:07*
%MOMM*%
%LPD*%
G01*
G04 APERTURE LIST*
%ADD10C,0.100000*%
%ADD11C,0.150000*%
%ADD12C,0.120000*%
%ADD13C,0.381000*%
G04 APERTURE END LIST*
D10*
D11*
X-5844402Y12694732D02*
X-5844402Y13394732D01*
X-4644402Y13394732D02*
X-4644402Y12694732D01*
X9342600Y31927400D02*
X9342600Y26847400D01*
X9342600Y26847400D02*
X11882600Y26847400D01*
X11882600Y26847400D02*
X11882600Y31927400D01*
X12162600Y34747400D02*
X12162600Y33197400D01*
X11882600Y31927400D02*
X9342600Y31927400D01*
X9062600Y33197400D02*
X9062600Y34747400D01*
X9062600Y34747400D02*
X12162600Y34747400D01*
X9052600Y12802400D02*
X8052600Y12802400D01*
X8052600Y14152400D02*
X9052600Y14152400D01*
X-4109402Y18973732D02*
X-5109402Y18973732D01*
X-5109402Y20323732D02*
X-4109402Y20323732D01*
X-2537402Y8020232D02*
X-2537402Y7020232D01*
X-3887402Y7020232D02*
X-3887402Y8020232D01*
X-791402Y8957232D02*
X208598Y8957232D01*
X208598Y7607232D02*
X-791402Y7607232D01*
X3828098Y7607232D02*
X2828098Y7607232D01*
X2828098Y8957232D02*
X3828098Y8957232D01*
D12*
X10462600Y9577400D02*
X10462600Y11377400D01*
X7242600Y11377400D02*
X7242600Y8927400D01*
D11*
X8626600Y20202400D02*
X5626600Y20202400D01*
X8626600Y22052400D02*
X5626600Y22052400D01*
X8626600Y22052400D02*
X8626600Y23877400D01*
X5626600Y22052400D02*
X5626600Y23877400D01*
X8626600Y23877400D02*
X11801600Y23877400D01*
X5626600Y23877400D02*
X2451600Y23877400D01*
X11801600Y23877400D02*
X11801600Y20477400D01*
X2451600Y23877400D02*
X2451600Y20477400D01*
X11801600Y20477400D02*
X8626600Y20477400D01*
X2451600Y20477400D02*
X5626600Y20477400D01*
X8626600Y20477400D02*
X8626600Y20202400D01*
X5626600Y20477400D02*
X5626600Y20202400D01*
X-8047400Y13517400D02*
X-8047400Y11967400D01*
X-8047400Y11967400D02*
X-11147400Y11967400D01*
X-11147400Y11967400D02*
X-11147400Y13517400D01*
X-10867400Y14787400D02*
X-10867400Y24947400D01*
X-10867400Y24947400D02*
X-8327400Y24947400D01*
X-8327400Y24947400D02*
X-8327400Y14787400D01*
X-10867400Y14787400D02*
X-8327400Y14787400D01*
X-8047400Y-772600D02*
X-8047400Y-2322600D01*
X-8047400Y-2322600D02*
X-11147400Y-2322600D01*
X-11147400Y-2322600D02*
X-11147400Y-772600D01*
X-10867400Y497400D02*
X-10867400Y10657400D01*
X-10867400Y10657400D02*
X-8327400Y10657400D01*
X-8327400Y10657400D02*
X-8327400Y497400D01*
X-10867400Y497400D02*
X-8327400Y497400D01*
D13*
X-3847402Y12028732D02*
X-3847402Y15838732D01*
X5677598Y12028732D02*
X5677598Y13298732D01*
X5677598Y13298732D02*
X5042598Y13933732D01*
X5042598Y13933732D02*
X5677598Y14568732D01*
X5677598Y14568732D02*
X5677598Y15838732D01*
D11*
X6912600Y5317400D02*
X6912600Y4317400D01*
X8612600Y4317400D02*
X8612600Y5317400D01*
X-6094402Y17227732D02*
X-6094402Y16227732D01*
X-4394402Y16227732D02*
X-4394402Y17227732D01*
X7062600Y8517400D02*
X6062600Y8517400D01*
X6062600Y6817400D02*
X7062600Y6817400D01*
X5562600Y5567400D02*
X4862600Y5567400D01*
X4862600Y6767400D02*
X5562600Y6767400D01*
D12*
X11082600Y4067400D02*
X11082600Y2867400D01*
X9322600Y2867400D02*
X9322600Y4067400D01*
D11*
X12600Y6017400D02*
X-687400Y6017400D01*
X-687400Y7217400D02*
X12600Y7217400D01*
X8862600Y467400D02*
X8162600Y467400D01*
X8162600Y1667400D02*
X8862600Y1667400D01*
X7087600Y-1532600D02*
X7087600Y-532600D01*
X8437600Y-532600D02*
X8437600Y-1532600D01*
D12*
X6948600Y17843400D02*
X6948600Y14543400D01*
X6948600Y14543400D02*
X10948600Y14543400D01*
D11*
X-6280257Y13650734D02*
X-6232638Y13603115D01*
X-6185019Y13460258D01*
X-6185019Y13365020D01*
X-6232638Y13222162D01*
X-6327876Y13126924D01*
X-6423114Y13079305D01*
X-6613590Y13031686D01*
X-6756448Y13031686D01*
X-6946924Y13079305D01*
X-7042162Y13126924D01*
X-7137400Y13222162D01*
X-7185019Y13365020D01*
X-7185019Y13460258D01*
X-7137400Y13603115D01*
X-7089781Y13650734D01*
X-7089781Y14031686D02*
X-7137400Y14079305D01*
X-7185019Y14174543D01*
X-7185019Y14412639D01*
X-7137400Y14507877D01*
X-7089781Y14555496D01*
X-6994543Y14603115D01*
X-6899305Y14603115D01*
X-6756448Y14555496D01*
X-6185019Y13984067D01*
X-6185019Y14603115D01*
X10279267Y35625019D02*
X10279267Y34910733D01*
X10231647Y34767876D01*
X10136409Y34672638D01*
X9993552Y34625019D01*
X9898314Y34625019D01*
X11184029Y35625019D02*
X10993552Y35625019D01*
X10898314Y35577400D01*
X10850695Y35529781D01*
X10755457Y35386924D01*
X10707838Y35196448D01*
X10707838Y34815495D01*
X10755457Y34720257D01*
X10803076Y34672638D01*
X10898314Y34625019D01*
X11088791Y34625019D01*
X11184029Y34672638D01*
X11231648Y34720257D01*
X11279267Y34815495D01*
X11279267Y35053590D01*
X11231648Y35148829D01*
X11184029Y35196448D01*
X11088791Y35244067D01*
X10898314Y35244067D01*
X10803076Y35196448D01*
X10755457Y35148829D01*
X10707838Y35053590D01*
X8385934Y14925019D02*
X8052600Y15401210D01*
X7814505Y14925019D02*
X7814505Y15925019D01*
X8195458Y15925019D01*
X8290696Y15877400D01*
X8338315Y15829781D01*
X8385934Y15734543D01*
X8385934Y15591686D01*
X8338315Y15496448D01*
X8290696Y15448829D01*
X8195458Y15401210D01*
X7814505Y15401210D01*
X9290696Y15925019D02*
X8814505Y15925019D01*
X8766886Y15448829D01*
X8814505Y15496448D01*
X8909743Y15544067D01*
X9147839Y15544067D01*
X9243077Y15496448D01*
X9290696Y15448829D01*
X9338315Y15353590D01*
X9338315Y15115495D01*
X9290696Y15020257D01*
X9243077Y14972638D01*
X9147839Y14925019D01*
X8909743Y14925019D01*
X8814505Y14972638D01*
X8766886Y15020257D01*
X-5004066Y20565019D02*
X-5337400Y21041210D01*
X-5575495Y20565019D02*
X-5575495Y21565019D01*
X-5194542Y21565019D01*
X-5099304Y21517400D01*
X-5051685Y21469781D01*
X-5004066Y21374543D01*
X-5004066Y21231686D01*
X-5051685Y21136448D01*
X-5099304Y21088829D01*
X-5194542Y21041210D01*
X-5575495Y21041210D01*
X-4146923Y21231686D02*
X-4146923Y20565019D01*
X-4385019Y21612638D02*
X-4623114Y20898352D01*
X-4004066Y20898352D01*
X-4660021Y7353566D02*
X-5136212Y7020232D01*
X-4660021Y6782137D02*
X-5660021Y6782137D01*
X-5660021Y7163090D01*
X-5612402Y7258328D01*
X-5564783Y7305947D01*
X-5469545Y7353566D01*
X-5326688Y7353566D01*
X-5231450Y7305947D01*
X-5183831Y7258328D01*
X-5136212Y7163090D01*
X-5136212Y6782137D01*
X-5660021Y7686899D02*
X-5660021Y8305947D01*
X-5279069Y7972613D01*
X-5279069Y8115471D01*
X-5231450Y8210709D01*
X-5183831Y8258328D01*
X-5088592Y8305947D01*
X-4850497Y8305947D01*
X-4755259Y8258328D01*
X-4707640Y8210709D01*
X-4660021Y8115471D01*
X-4660021Y7829756D01*
X-4707640Y7734518D01*
X-4755259Y7686899D01*
X-458068Y5929851D02*
X-791402Y6406042D01*
X-1029497Y5929851D02*
X-1029497Y6929851D01*
X-648544Y6929851D01*
X-553306Y6882232D01*
X-505687Y6834613D01*
X-458068Y6739375D01*
X-458068Y6596518D01*
X-505687Y6501280D01*
X-553306Y6453661D01*
X-648544Y6406042D01*
X-1029497Y6406042D01*
X-77116Y6834613D02*
X-29497Y6882232D01*
X65741Y6929851D01*
X303837Y6929851D01*
X399075Y6882232D01*
X446694Y6834613D01*
X494313Y6739375D01*
X494313Y6644137D01*
X446694Y6501280D01*
X-124735Y5929851D01*
X494313Y5929851D01*
X2345934Y6165019D02*
X2012600Y6641210D01*
X1774505Y6165019D02*
X1774505Y7165019D01*
X2155458Y7165019D01*
X2250696Y7117400D01*
X2298315Y7069781D01*
X2345934Y6974543D01*
X2345934Y6831686D01*
X2298315Y6736448D01*
X2250696Y6688829D01*
X2155458Y6641210D01*
X1774505Y6641210D01*
X3298315Y6165019D02*
X2726886Y6165019D01*
X3012600Y6165019D02*
X3012600Y7165019D01*
X2917362Y7022162D01*
X2822124Y6926924D01*
X2726886Y6879305D01*
X10814981Y9605495D02*
X11624505Y9605495D01*
X11719743Y9653114D01*
X11767362Y9700733D01*
X11814981Y9795971D01*
X11814981Y9986448D01*
X11767362Y10081686D01*
X11719743Y10129305D01*
X11624505Y10176924D01*
X10814981Y10176924D01*
X10910219Y10605495D02*
X10862600Y10653114D01*
X10814981Y10748352D01*
X10814981Y10986448D01*
X10862600Y11081686D01*
X10910219Y11129305D01*
X11005457Y11176924D01*
X11100695Y11176924D01*
X11243552Y11129305D01*
X11814981Y10557876D01*
X11814981Y11176924D01*
X6940600Y25320543D02*
X6940600Y24463400D01*
X6883458Y24291971D01*
X6769172Y24177686D01*
X6597743Y24120543D01*
X6483458Y24120543D01*
X8083458Y25320543D02*
X7512029Y25320543D01*
X7454886Y24749114D01*
X7512029Y24806257D01*
X7626315Y24863400D01*
X7912029Y24863400D01*
X8026315Y24806257D01*
X8083458Y24749114D01*
X8140601Y24634829D01*
X8140601Y24349114D01*
X8083458Y24234829D01*
X8026315Y24177686D01*
X7912029Y24120543D01*
X7626315Y24120543D01*
X7512029Y24177686D01*
X7454886Y24234829D01*
X-7785019Y11234067D02*
X-7070733Y11234067D01*
X-6927876Y11186447D01*
X-6832638Y11091209D01*
X-6785019Y10948352D01*
X-6785019Y10853114D01*
X-7785019Y11615019D02*
X-7785019Y12234067D01*
X-7404067Y11900733D01*
X-7404067Y12043591D01*
X-7356448Y12138829D01*
X-7308829Y12186448D01*
X-7213590Y12234067D01*
X-6975495Y12234067D01*
X-6880257Y12186448D01*
X-6832638Y12138829D01*
X-6785019Y12043591D01*
X-6785019Y11757876D01*
X-6832638Y11662638D01*
X-6880257Y11615019D01*
X-7935019Y-2115933D02*
X-7220733Y-2115933D01*
X-7077876Y-2163553D01*
X-6982638Y-2258791D01*
X-6935019Y-2401648D01*
X-6935019Y-2496886D01*
X-7839781Y-1687362D02*
X-7887400Y-1639743D01*
X-7935019Y-1544505D01*
X-7935019Y-1306409D01*
X-7887400Y-1211171D01*
X-7839781Y-1163552D01*
X-7744543Y-1115933D01*
X-7649305Y-1115933D01*
X-7506448Y-1163552D01*
X-6935019Y-1734981D01*
X-6935019Y-1115933D01*
X1927267Y4891019D02*
X1927267Y4176733D01*
X1879647Y4033876D01*
X1784409Y3938638D01*
X1641552Y3891019D01*
X1546314Y3891019D01*
X2927267Y3891019D02*
X2355838Y3891019D01*
X2641552Y3891019D02*
X2641552Y4891019D01*
X2546314Y4748162D01*
X2451076Y4652924D01*
X2355838Y4605305D01*
X5264981Y18605495D02*
X6074505Y18605495D01*
X6169743Y18653114D01*
X6217362Y18700733D01*
X6264981Y18795971D01*
X6264981Y18986448D01*
X6217362Y19081686D01*
X6169743Y19129305D01*
X6074505Y19176924D01*
X5264981Y19176924D01*
X6264981Y20176924D02*
X6264981Y19605495D01*
X6264981Y19891209D02*
X5264981Y19891209D01*
X5407838Y19795971D01*
X5503076Y19700733D01*
X5550695Y19605495D01*
X9919743Y6000734D02*
X9967362Y5953115D01*
X10014981Y5810258D01*
X10014981Y5715020D01*
X9967362Y5572162D01*
X9872124Y5476924D01*
X9776886Y5429305D01*
X9586410Y5381686D01*
X9443552Y5381686D01*
X9253076Y5429305D01*
X9157838Y5476924D01*
X9062600Y5572162D01*
X9014981Y5715020D01*
X9014981Y5810258D01*
X9062600Y5953115D01*
X9110219Y6000734D01*
X10014981Y6953115D02*
X10014981Y6381686D01*
X10014981Y6667400D02*
X9014981Y6667400D01*
X9157838Y6572162D01*
X9253076Y6476924D01*
X9300695Y6381686D01*
X-6430257Y16561066D02*
X-6382638Y16513447D01*
X-6335019Y16370590D01*
X-6335019Y16275352D01*
X-6382638Y16132494D01*
X-6477876Y16037256D01*
X-6573114Y15989637D01*
X-6763590Y15942018D01*
X-6906448Y15942018D01*
X-7096924Y15989637D01*
X-7192162Y16037256D01*
X-7287400Y16132494D01*
X-7335019Y16275352D01*
X-7335019Y16370590D01*
X-7287400Y16513447D01*
X-7239781Y16561066D01*
X-7335019Y16894399D02*
X-7335019Y17513447D01*
X-6954067Y17180113D01*
X-6954067Y17322971D01*
X-6906448Y17418209D01*
X-6858829Y17465828D01*
X-6763590Y17513447D01*
X-6525495Y17513447D01*
X-6430257Y17465828D01*
X-6382638Y17418209D01*
X-6335019Y17322971D01*
X-6335019Y17037256D01*
X-6382638Y16942018D01*
X-6430257Y16894399D01*
X5945934Y8960257D02*
X5898315Y8912638D01*
X5755458Y8865019D01*
X5660220Y8865019D01*
X5517362Y8912638D01*
X5422124Y9007876D01*
X5374505Y9103114D01*
X5326886Y9293590D01*
X5326886Y9436448D01*
X5374505Y9626924D01*
X5422124Y9722162D01*
X5517362Y9817400D01*
X5660220Y9865019D01*
X5755458Y9865019D01*
X5898315Y9817400D01*
X5945934Y9769781D01*
X6803077Y9531686D02*
X6803077Y8865019D01*
X6564981Y9912638D02*
X6326886Y9198352D01*
X6945934Y9198352D01*
X4895934Y4460257D02*
X4848315Y4412638D01*
X4705458Y4365019D01*
X4610220Y4365019D01*
X4467362Y4412638D01*
X4372124Y4507876D01*
X4324505Y4603114D01*
X4276886Y4793590D01*
X4276886Y4936448D01*
X4324505Y5126924D01*
X4372124Y5222162D01*
X4467362Y5317400D01*
X4610220Y5365019D01*
X4705458Y5365019D01*
X4848315Y5317400D01*
X4895934Y5269781D01*
X5753077Y5365019D02*
X5562600Y5365019D01*
X5467362Y5317400D01*
X5419743Y5269781D01*
X5324505Y5126924D01*
X5276886Y4936448D01*
X5276886Y4555495D01*
X5324505Y4460257D01*
X5372124Y4412638D01*
X5467362Y4365019D01*
X5657839Y4365019D01*
X5753077Y4412638D01*
X5800696Y4460257D01*
X5848315Y4555495D01*
X5848315Y4793590D01*
X5800696Y4888829D01*
X5753077Y4936448D01*
X5657839Y4984067D01*
X5467362Y4984067D01*
X5372124Y4936448D01*
X5324505Y4888829D01*
X5276886Y4793590D01*
X12264981Y3300734D02*
X12264981Y2824543D01*
X11264981Y2824543D01*
X12264981Y4157877D02*
X12264981Y3586448D01*
X12264981Y3872162D02*
X11264981Y3872162D01*
X11407838Y3776924D01*
X11503076Y3681686D01*
X11550695Y3586448D01*
X-504066Y4360257D02*
X-551685Y4312638D01*
X-694542Y4265019D01*
X-789780Y4265019D01*
X-932638Y4312638D01*
X-1027876Y4407876D01*
X-1075495Y4503114D01*
X-1123114Y4693590D01*
X-1123114Y4836448D01*
X-1075495Y5026924D01*
X-1027876Y5122162D01*
X-932638Y5217400D01*
X-789780Y5265019D01*
X-694542Y5265019D01*
X-551685Y5217400D01*
X-504066Y5169781D01*
X400696Y5265019D02*
X-75495Y5265019D01*
X-123114Y4788829D01*
X-75495Y4836448D01*
X19743Y4884067D01*
X257839Y4884067D01*
X353077Y4836448D01*
X400696Y4788829D01*
X448315Y4693590D01*
X448315Y4455495D01*
X400696Y4360257D01*
X353077Y4312638D01*
X257839Y4265019D01*
X19743Y4265019D01*
X-75495Y4312638D01*
X-123114Y4360257D01*
X11045934Y710257D02*
X10998315Y662638D01*
X10855458Y615019D01*
X10760220Y615019D01*
X10617362Y662638D01*
X10522124Y757876D01*
X10474505Y853114D01*
X10426886Y1043590D01*
X10426886Y1186448D01*
X10474505Y1376924D01*
X10522124Y1472162D01*
X10617362Y1567400D01*
X10760220Y1615019D01*
X10855458Y1615019D01*
X10998315Y1567400D01*
X11045934Y1519781D01*
X11379267Y1615019D02*
X12045934Y1615019D01*
X11617362Y615019D01*
X4314981Y-1649266D02*
X3838790Y-1982600D01*
X4314981Y-2220695D02*
X3314981Y-2220695D01*
X3314981Y-1839742D01*
X3362600Y-1744504D01*
X3410219Y-1696885D01*
X3505457Y-1649266D01*
X3648314Y-1649266D01*
X3743552Y-1696885D01*
X3791171Y-1744504D01*
X3838790Y-1839742D01*
X3838790Y-2220695D01*
X3314981Y-792123D02*
X3314981Y-982600D01*
X3362600Y-1077838D01*
X3410219Y-1125457D01*
X3553076Y-1220695D01*
X3743552Y-1268314D01*
X4124505Y-1268314D01*
X4219743Y-1220695D01*
X4267362Y-1173076D01*
X4314981Y-1077838D01*
X4314981Y-887361D01*
X4267362Y-792123D01*
X4219743Y-744504D01*
X4124505Y-696885D01*
X3886410Y-696885D01*
X3791171Y-744504D01*
X3743552Y-792123D01*
X3695933Y-887361D01*
X3695933Y-1077838D01*
X3743552Y-1173076D01*
X3791171Y-1220695D01*
X3886410Y-1268314D01*
X8472409Y18667210D02*
X8472409Y18191019D01*
X8139076Y19191019D02*
X8472409Y18667210D01*
X8805743Y19191019D01*
X9662886Y18191019D02*
X9091457Y18191019D01*
X9377171Y18191019D02*
X9377171Y19191019D01*
X9281933Y19048162D01*
X9186695Y18952924D01*
X9091457Y18905305D01*
M02*
