M48
;DRILL file {KiCad (5.0.0-rc2-dev-707-g2ed24a4)} date Friday, 18 May 2018 at 19:07:18
;FORMAT={-:-/ absolute / inch / decimal}
FMAT,2
INCH,TZ
T1C0.0157
T2C0.0315
T3C0.0320
T4C0.0362
T5C0.0394
T6C0.0400
T7C0.0433
%
G90
G05
M72
T1
X-0.2893Y0.2058
X-0.1416Y0.5247
X-0.0767Y0.524
X-0.0471Y0.524
X-0.0289Y0.8444
X-0.019Y0.4936
X0.0022Y0.3676
X0.0493Y0.3456
X0.0674Y0.8076
X0.0887Y0.5306
X0.093Y0.4773
X0.1277Y0.9464
X0.1485Y0.3727
X0.1675Y0.4908
X0.1934Y0.9633
X0.2264Y0.6936
X0.2364Y0.731
X0.2422Y0.4819
X0.26Y0.92
X0.269Y0.74
X0.299Y0.92
X0.3Y0.74
X0.329Y0.92
X0.3485Y0.4597
X0.35Y0.64
X0.379Y0.8057
X0.3824Y0.3314
X0.4Y0.56
X0.41Y0.8
X0.41Y0.8
X0.4194Y0.0464
X0.44Y0.8
T2
X-0.1381Y0.9219
T3
X-0.2979Y0.0976
X-0.2665Y0.681
X-0.2619Y0.4162
X-0.2125Y0.194
X-0.0397Y0.9424
X0.0504Y0.8869
X0.1149Y0.2524
X0.2129Y0.1726
X0.24Y0.37
X0.3906Y0.2346
T4
X-0.1377Y0.0936
X-0.0393Y0.0936
X0.0395Y0.0936
X0.1379Y0.0936
T5
X-0.1381Y0.9932
X-0.0397Y0.9932
X0.0588Y0.9932
X0.1572Y0.9932
T6
X-0.3779Y0.8322
X-0.3779Y0.7322
X-0.3779Y0.6322
X-0.3779Y0.5322
X-0.3779Y0.3696
X-0.3779Y0.2696
X-0.3779Y0.1696
X-0.3779Y0.0696
X-0.3779Y-0.0304
X0.4178Y1.307
X0.4178Y1.207
X0.4178Y1.107
X-0.3779Y0.9322
T7
X-0.0885Y0.0109
X0.0887Y0.0109
T5
X-0.2243Y0.0404G85X-0.2243Y-0.0186
G05
X0.2245Y0.0404G85X0.2245Y-0.0186
G05
T0
M30
