M48
;DRILL file {KiCad 4.0.7} date Friday, 11 May 2018 'PMt' 16:59:51
;FORMAT={-:-/ absolute / inch / decimal}
FMAT,2
INCH,TZ
T1C0.016
T2C0.032
T3C0.036
T4C0.039
T5C0.040
T6C0.043
%
G90
G05
M72
T1
X1.9917Y-2.2752
X2.1394Y-1.9563
X2.2043Y-1.957
X2.2339Y-1.957
X2.2521Y-1.6366
X2.262Y-1.9874
X2.2832Y-2.1134
X2.3303Y-2.1354
X2.3484Y-1.6734
X2.3697Y-1.9504
X2.374Y-2.0037
X2.4295Y-2.1083
X2.4485Y-1.9902
X2.5074Y-1.7874
X2.5174Y-1.75
X2.5232Y-1.9991
X2.541Y-1.561
X2.55Y-1.741
X2.58Y-1.561
X2.581Y-1.741
X2.61Y-1.561
X2.6295Y-2.0213
X2.631Y-1.841
X2.66Y-1.6753
X2.6634Y-2.1496
X2.681Y-1.921
X2.691Y-1.681
X2.691Y-1.681
X2.7004Y-2.4346
X2.721Y-1.681
T2
X1.9831Y-2.3834
X2.0145Y-1.8
X2.0191Y-2.0648
X2.0685Y-2.287
X2.3959Y-2.2286
X2.4939Y-2.3084
X2.521Y-2.111
X2.6716Y-2.2464
T3
X2.1433Y-2.3874
X2.2417Y-2.3874
X2.3205Y-2.3874
X2.4189Y-2.3874
T4
X2.1429Y-1.4878
X2.2413Y-1.4878
X2.3398Y-1.4878
X2.4382Y-1.4878
T5
X1.9031Y-1.5488
X1.9031Y-1.6488
X1.9031Y-1.7488
X1.9031Y-1.8488
X1.9031Y-1.9488
X1.9031Y-2.1114
X1.9031Y-2.2114
X1.9031Y-2.3114
X1.9031Y-2.4114
X1.9031Y-2.5114
X2.6988Y-1.174
X2.6988Y-1.274
X2.6988Y-1.374
T6
X2.1925Y-2.4701
X2.3697Y-2.4701
T4
X2.0567Y-2.4406G85X2.0567Y-2.4996
G05
X2.5055Y-2.4406G85X2.5055Y-2.4996
G05
T0
M30
