%TF.GenerationSoftware,KiCad,Pcbnew,4.0.7*%
%TF.CreationDate,2018-03-05T22:45:11+00:00*%
%TF.ProjectId,a5v11-mod-01,61357631312D6D6F642D30312E6B6963,rev?*%
%TF.FileFunction,Paste,Bot*%
%FSLAX46Y46*%
G04 Gerber Fmt 4.6, Leading zero omitted, Abs format (unit mm)*
G04 Created by KiCad (PCBNEW 4.0.7) date Monday, 05 March 2018 'PMt' 22:45:11*
%MOMM*%
%LPD*%
G01*
G04 APERTURE LIST*
%ADD10C,0.100000*%
%ADD11C,0.150000*%
%ADD12C,0.300000*%
G04 APERTURE END LIST*
D10*
D11*
X15240000Y28194000D02*
G75*
G03X20828000Y33782000I0J5588000D01*
G01*
D12*
X10083457Y14471400D02*
X10226314Y14542829D01*
X10440600Y14542829D01*
X10654885Y14471400D01*
X10797743Y14328543D01*
X10869171Y14185686D01*
X10940600Y13899971D01*
X10940600Y13685686D01*
X10869171Y13399971D01*
X10797743Y13257114D01*
X10654885Y13114257D01*
X10440600Y13042829D01*
X10297743Y13042829D01*
X10083457Y13114257D01*
X10012028Y13185686D01*
X10012028Y13685686D01*
X10297743Y13685686D01*
X9369171Y13042829D02*
X9369171Y14542829D01*
X8512028Y13042829D01*
X8512028Y14542829D01*
X7797742Y13042829D02*
X7797742Y14542829D01*
X7440599Y14542829D01*
X7226314Y14471400D01*
X7083456Y14328543D01*
X7012028Y14185686D01*
X6940599Y13899971D01*
X6940599Y13685686D01*
X7012028Y13399971D01*
X7083456Y13257114D01*
X7226314Y13114257D01*
X7440599Y13042829D01*
X7797742Y13042829D01*
D11*
X90600Y71400D02*
X90600Y28121400D01*
X24390600Y71400D02*
X90600Y71400D01*
X24390600Y38621400D02*
X24390600Y71400D01*
X20790600Y38621400D02*
X24390600Y38621400D01*
X20828000Y33782000D02*
X20790600Y38621400D01*
X0Y28194000D02*
X15240000Y28194000D01*
M02*
