%TF.GenerationSoftware,KiCad,Pcbnew,4.0.7*%
%TF.CreationDate,2018-03-05T19:27:17+00:00*%
%TF.ProjectId,a5v11-mod-01,61357631312D6D6F642D30312E6B6963,rev?*%
%TF.FileFunction,Paste,Top*%
%FSLAX46Y46*%
G04 Gerber Fmt 4.6, Leading zero omitted, Abs format (unit mm)*
G04 Created by KiCad (PCBNEW 4.0.7) date Monday, 05 March 2018 'PMt' 19:27:17*
%MOMM*%
%LPD*%
G01*
G04 APERTURE LIST*
%ADD10C,0.100000*%
%ADD11C,0.150000*%
%ADD12R,0.750000X0.800000*%
%ADD13R,0.500000X0.900000*%
%ADD14R,0.900000X0.500000*%
%ADD15R,0.650000X1.060000*%
%ADD16R,0.300000X1.400000*%
%ADD17R,1.250000X2.300000*%
%ADD18R,0.700000X1.600000*%
%ADD19R,0.700000X1.100000*%
%ADD20R,0.304800X1.143000*%
%ADD21R,1.250000X1.000000*%
%ADD22R,1.000000X1.250000*%
%ADD23R,0.800000X0.750000*%
%ADD24R,1.300000X0.700000*%
%ADD25R,1.400000X1.200000*%
G04 APERTURE END LIST*
D10*
D11*
X33299400Y-9677400D02*
G75*
G03X38887400Y-4089400I0J5588000D01*
G01*
X18150000Y-37800000D02*
X18150000Y-9750000D01*
X42450000Y-37800000D02*
X18150000Y-37800000D01*
X42450000Y750000D02*
X42450000Y-37800000D01*
X38850000Y750000D02*
X42450000Y750000D01*
X38887400Y-4089400D02*
X38850000Y750000D01*
X18059400Y-9677400D02*
X33299400Y-9677400D01*
D12*
X24752998Y-22782668D03*
X24752998Y-21282668D03*
D13*
X37800000Y-21600000D03*
X39300000Y-21600000D03*
X24637998Y-15428668D03*
X26137998Y-15428668D03*
D14*
X26784998Y-28307168D03*
X26784998Y-26807168D03*
D13*
X30455998Y-26795168D03*
X28955998Y-26795168D03*
X32575498Y-26795168D03*
X34075498Y-26795168D03*
D15*
X37900000Y-25700000D03*
X38850000Y-25700000D03*
X39800000Y-25700000D03*
X39800000Y-23500000D03*
X37900000Y-23500000D03*
D16*
X35875000Y-13600000D03*
X35375000Y-13600000D03*
X34875000Y-13600000D03*
X34375000Y-13600000D03*
X33875000Y-13600000D03*
X33375000Y-13600000D03*
D17*
X32125000Y-12350000D03*
D18*
X31150000Y-12700000D03*
D19*
X30450000Y-12450000D03*
D17*
X37125000Y-12350000D03*
D18*
X38100000Y-12700000D03*
D19*
X38800000Y-12450000D03*
D20*
X35039998Y-17460668D03*
X34404998Y-17460668D03*
X33769998Y-17460668D03*
X33134998Y-17460668D03*
X32499998Y-17460668D03*
X31864998Y-17460668D03*
X31229998Y-17460668D03*
X30594998Y-17460668D03*
X29959998Y-17460668D03*
X29324998Y-17460668D03*
X28689998Y-17460668D03*
X28054998Y-17460668D03*
X27419998Y-17460668D03*
X26784998Y-17460668D03*
X26784998Y-24128168D03*
X27419998Y-24128168D03*
X28054998Y-24128168D03*
X28689998Y-24128168D03*
X29324998Y-24128168D03*
X29959998Y-24128168D03*
X30594998Y-24128168D03*
X31229998Y-24128168D03*
X31864998Y-24128168D03*
X32499998Y-24128168D03*
X33134998Y-24128168D03*
X33769998Y-24128168D03*
X34404998Y-24128168D03*
X35039998Y-24128168D03*
D21*
X37760000Y-31260000D03*
X37760000Y-29260000D03*
X24752998Y-19349668D03*
X24752998Y-17349668D03*
D22*
X35560000Y-27410000D03*
X37560000Y-27410000D03*
D23*
X35960000Y-28910000D03*
X34460000Y-28910000D03*
D24*
X40200000Y-32560000D03*
X40200000Y-30660000D03*
D23*
X30410000Y-28460000D03*
X28910000Y-28460000D03*
X39260000Y-34010000D03*
X37760000Y-34010000D03*
D14*
X37760000Y-35360000D03*
X37760000Y-36860000D03*
D25*
X37510000Y-18710000D03*
X39710000Y-18710000D03*
X39710000Y-17010000D03*
X37510000Y-17010000D03*
M02*
