%TF.GenerationSoftware,KiCad,Pcbnew,4.0.7*%
%TF.CreationDate,2018-03-05T22:45:11+00:00*%
%TF.ProjectId,a5v11-mod-01,61357631312D6D6F642D30312E6B6963,rev?*%
%TF.FileFunction,Legend,Bot*%
%FSLAX46Y46*%
G04 Gerber Fmt 4.6, Leading zero omitted, Abs format (unit mm)*
G04 Created by KiCad (PCBNEW 4.0.7) date Monday, 05 March 2018 'PMt' 22:45:11*
%MOMM*%
%LPD*%
G01*
G04 APERTURE LIST*
%ADD10C,0.100000*%
%ADD11C,0.300000*%
%ADD12C,0.150000*%
%ADD13C,0.250000*%
%ADD14C,0.254000*%
G04 APERTURE END LIST*
D10*
D11*
X23005171Y24841112D02*
X22290886Y25341112D01*
X23005171Y25698255D02*
X21505171Y25698255D01*
X21505171Y25126827D01*
X21576600Y24983969D01*
X21648029Y24912541D01*
X21790886Y24841112D01*
X22005171Y24841112D01*
X22148029Y24912541D01*
X22219457Y24983969D01*
X22290886Y25126827D01*
X22290886Y25698255D01*
X22933743Y23626827D02*
X23005171Y23769684D01*
X23005171Y24055398D01*
X22933743Y24198255D01*
X22790886Y24269684D01*
X22219457Y24269684D01*
X22076600Y24198255D01*
X22005171Y24055398D01*
X22005171Y23769684D01*
X22076600Y23626827D01*
X22219457Y23555398D01*
X22362314Y23555398D01*
X22505171Y24269684D01*
X22005171Y23055398D02*
X23005171Y22698255D01*
X22005171Y22341113D01*
X21648029Y20698256D02*
X21576600Y20626827D01*
X21505171Y20483970D01*
X21505171Y20126827D01*
X21576600Y19983970D01*
X21648029Y19912541D01*
X21790886Y19841113D01*
X21933743Y19841113D01*
X22148029Y19912541D01*
X23005171Y20769684D01*
X23005171Y19841113D01*
X21505171Y18912542D02*
X21505171Y18769685D01*
X21576600Y18626828D01*
X21648029Y18555399D01*
X21790886Y18483970D01*
X22076600Y18412542D01*
X22433743Y18412542D01*
X22719457Y18483970D01*
X22862314Y18555399D01*
X22933743Y18626828D01*
X23005171Y18769685D01*
X23005171Y18912542D01*
X22933743Y19055399D01*
X22862314Y19126828D01*
X22719457Y19198256D01*
X22433743Y19269685D01*
X22076600Y19269685D01*
X21790886Y19198256D01*
X21648029Y19126828D01*
X21576600Y19055399D01*
X21505171Y18912542D01*
X23005171Y16983971D02*
X23005171Y17841114D01*
X23005171Y17412542D02*
X21505171Y17412542D01*
X21719457Y17555399D01*
X21862314Y17698257D01*
X21933743Y17841114D01*
X22148029Y16126828D02*
X22076600Y16269686D01*
X22005171Y16341114D01*
X21862314Y16412543D01*
X21790886Y16412543D01*
X21648029Y16341114D01*
X21576600Y16269686D01*
X21505171Y16126828D01*
X21505171Y15841114D01*
X21576600Y15698257D01*
X21648029Y15626828D01*
X21790886Y15555400D01*
X21862314Y15555400D01*
X22005171Y15626828D01*
X22076600Y15698257D01*
X22148029Y15841114D01*
X22148029Y16126828D01*
X22219457Y16269686D01*
X22290886Y16341114D01*
X22433743Y16412543D01*
X22719457Y16412543D01*
X22862314Y16341114D01*
X22933743Y16269686D01*
X23005171Y16126828D01*
X23005171Y15841114D01*
X22933743Y15698257D01*
X22862314Y15626828D01*
X22719457Y15555400D01*
X22433743Y15555400D01*
X22290886Y15626828D01*
X22219457Y15698257D01*
X22148029Y15841114D01*
X21505171Y14626829D02*
X21505171Y14483972D01*
X21576600Y14341115D01*
X21648029Y14269686D01*
X21790886Y14198257D01*
X22076600Y14126829D01*
X22433743Y14126829D01*
X22719457Y14198257D01*
X22862314Y14269686D01*
X22933743Y14341115D01*
X23005171Y14483972D01*
X23005171Y14626829D01*
X22933743Y14769686D01*
X22862314Y14841115D01*
X22719457Y14912543D01*
X22433743Y14983972D01*
X22076600Y14983972D01*
X21790886Y14912543D01*
X21648029Y14841115D01*
X21576600Y14769686D01*
X21505171Y14626829D01*
X21505171Y13626829D02*
X21505171Y12698258D01*
X22076600Y13198258D01*
X22076600Y12983972D01*
X22148029Y12841115D01*
X22219457Y12769686D01*
X22362314Y12698258D01*
X22719457Y12698258D01*
X22862314Y12769686D01*
X22933743Y12841115D01*
X23005171Y12983972D01*
X23005171Y13412544D01*
X22933743Y13555401D01*
X22862314Y13626829D01*
X21505171Y11769687D02*
X21505171Y11626830D01*
X21576600Y11483973D01*
X21648029Y11412544D01*
X21790886Y11341115D01*
X22076600Y11269687D01*
X22433743Y11269687D01*
X22719457Y11341115D01*
X22862314Y11412544D01*
X22933743Y11483973D01*
X23005171Y11626830D01*
X23005171Y11769687D01*
X22933743Y11912544D01*
X22862314Y11983973D01*
X22719457Y12055401D01*
X22433743Y12126830D01*
X22076600Y12126830D01*
X21790886Y12055401D01*
X21648029Y11983973D01*
X21576600Y11912544D01*
X21505171Y11769687D01*
X21505171Y9912544D02*
X21505171Y10626830D01*
X22219457Y10698259D01*
X22148029Y10626830D01*
X22076600Y10483973D01*
X22076600Y10126830D01*
X22148029Y9983973D01*
X22219457Y9912544D01*
X22362314Y9841116D01*
X22719457Y9841116D01*
X22862314Y9912544D01*
X22933743Y9983973D01*
X23005171Y10126830D01*
X23005171Y10483973D01*
X22933743Y10626830D01*
X22862314Y10698259D01*
D12*
X15240000Y28194000D02*
G75*
G03X20828000Y33782000I0J5588000D01*
G01*
D13*
X14042981Y15052352D02*
X13042981Y15052352D01*
X13042981Y14814257D01*
X13090600Y14671399D01*
X13185838Y14576161D01*
X13281076Y14528542D01*
X13471552Y14480923D01*
X13614410Y14480923D01*
X13804886Y14528542D01*
X13900124Y14576161D01*
X13995362Y14671399D01*
X14042981Y14814257D01*
X14042981Y15052352D01*
X13662029Y14052352D02*
X13662029Y13290447D01*
X11342981Y14942352D02*
X10342981Y14942352D01*
X10342981Y14704257D01*
X10390600Y14561399D01*
X10485838Y14466161D01*
X10581076Y14418542D01*
X10771552Y14370923D01*
X10914410Y14370923D01*
X11104886Y14418542D01*
X11200124Y14466161D01*
X11295362Y14561399D01*
X11342981Y14704257D01*
X11342981Y14942352D01*
X10962029Y13942352D02*
X10962029Y13180447D01*
X11342981Y13561399D02*
X10581076Y13561399D01*
X7990600Y14333304D02*
X7942981Y14428542D01*
X7942981Y14571399D01*
X7990600Y14714257D01*
X8085838Y14809495D01*
X8181076Y14857114D01*
X8371552Y14904733D01*
X8514410Y14904733D01*
X8704886Y14857114D01*
X8800124Y14809495D01*
X8895362Y14714257D01*
X8942981Y14571399D01*
X8942981Y14476161D01*
X8895362Y14333304D01*
X8847743Y14285685D01*
X8514410Y14285685D01*
X8514410Y14476161D01*
X8942981Y13857114D02*
X7942981Y13857114D01*
X8942981Y13285685D01*
X7942981Y13285685D01*
X8942981Y12809495D02*
X7942981Y12809495D01*
X7942981Y12571400D01*
X7990600Y12428542D01*
X8085838Y12333304D01*
X8181076Y12285685D01*
X8371552Y12238066D01*
X8514410Y12238066D01*
X8704886Y12285685D01*
X8800124Y12333304D01*
X8895362Y12428542D01*
X8942981Y12571400D01*
X8942981Y12809495D01*
X15442981Y14954257D02*
X16442981Y14620924D01*
X15442981Y14287590D01*
X16442981Y13954257D02*
X15442981Y13954257D01*
X15823933Y13954257D02*
X15776314Y13859019D01*
X15776314Y13668542D01*
X15823933Y13573304D01*
X15871552Y13525685D01*
X15966790Y13478066D01*
X16252505Y13478066D01*
X16347743Y13525685D01*
X16395362Y13573304D01*
X16442981Y13668542D01*
X16442981Y13859019D01*
X16395362Y13954257D01*
X15776314Y12620923D02*
X16442981Y12620923D01*
X15776314Y13049495D02*
X16300124Y13049495D01*
X16395362Y13001876D01*
X16442981Y12906638D01*
X16442981Y12763780D01*
X16395362Y12668542D01*
X16347743Y12620923D01*
X16395362Y12192352D02*
X16442981Y12097114D01*
X16442981Y11906638D01*
X16395362Y11811399D01*
X16300124Y11763780D01*
X16252505Y11763780D01*
X16157267Y11811399D01*
X16109648Y11906638D01*
X16109648Y12049495D01*
X16062029Y12144733D01*
X15966790Y12192352D01*
X15919171Y12192352D01*
X15823933Y12144733D01*
X15776314Y12049495D01*
X15776314Y11906638D01*
X15823933Y11811399D01*
D12*
X90600Y71400D02*
X90600Y28121400D01*
X24390600Y71400D02*
X90600Y71400D01*
X24390600Y38621400D02*
X24390600Y71400D01*
X20790600Y38621400D02*
X24390600Y38621400D01*
X20828000Y33782000D02*
X20790600Y38621400D01*
X0Y28194000D02*
X15240000Y28194000D01*
D14*
G36*
X23749000Y889000D02*
X19431000Y889000D01*
X19431000Y9271000D01*
X23749000Y9271000D01*
X23749000Y889000D01*
X23749000Y889000D01*
G37*
X23749000Y889000D02*
X19431000Y889000D01*
X19431000Y9271000D01*
X23749000Y9271000D01*
X23749000Y889000D01*
M02*
