%TF.GenerationSoftware,KiCad,Pcbnew,4.0.7*%
%TF.CreationDate,2018-03-05T22:26:54+00:00*%
%TF.ProjectId,a5v11-mod-01,61357631312D6D6F642D30312E6B6963,rev?*%
%TF.FileFunction,Soldermask,Top*%
%FSLAX46Y46*%
G04 Gerber Fmt 4.6, Leading zero omitted, Abs format (unit mm)*
G04 Created by KiCad (PCBNEW 4.0.7) date Monday, 05 March 2018 'PMt' 22:26:54*
%MOMM*%
%LPD*%
G01*
G04 APERTURE LIST*
%ADD10C,0.100000*%
%ADD11C,0.150000*%
%ADD12C,2.540000*%
%ADD13R,1.150000X1.200000*%
%ADD14R,2.432000X2.127200*%
%ADD15O,2.432000X2.127200*%
%ADD16R,0.900000X1.300000*%
%ADD17R,1.300000X0.900000*%
%ADD18R,1.050000X1.460000*%
%ADD19R,0.700000X1.800000*%
%ADD20R,1.650000X2.700000*%
%ADD21R,1.100000X2.000000*%
%ADD22R,1.100000X1.500000*%
%ADD23C,2.050000*%
%ADD24C,1.500000*%
%ADD25O,2.200000X4.700000*%
%ADD26R,0.704800X1.543000*%
%ADD27R,1.650000X1.400000*%
%ADD28R,1.400000X1.650000*%
%ADD29R,1.200000X1.150000*%
%ADD30R,1.700000X1.100000*%
%ADD31C,1.900000*%
%ADD32R,1.800000X1.600000*%
G04 APERTURE END LIST*
D10*
D11*
X15240000Y28194000D02*
G75*
G03X20828000Y33782000I0J5588000D01*
G01*
X90600Y71400D02*
X90600Y28121400D01*
X24390600Y71400D02*
X90600Y71400D01*
X24390600Y38621400D02*
X24390600Y71400D01*
X20790600Y38621400D02*
X24390600Y38621400D01*
X20828000Y33782000D02*
X20790600Y38621400D01*
X0Y28194000D02*
X15240000Y28194000D01*
D12*
X22590600Y28121400D03*
D13*
X6693598Y15088732D03*
X6693598Y16588732D03*
D12*
X5300600Y26661400D03*
D14*
X22550600Y35991400D03*
D15*
X22550600Y33451400D03*
X22550600Y30911400D03*
D16*
X19740600Y16271400D03*
X21240600Y16271400D03*
X6578598Y22442732D03*
X8078598Y22442732D03*
D17*
X8725598Y9564232D03*
X8725598Y11064232D03*
D16*
X12396598Y11076232D03*
X10896598Y11076232D03*
X14516098Y11076232D03*
X16016098Y11076232D03*
D18*
X19840600Y12171400D03*
X20790600Y12171400D03*
X21740600Y12171400D03*
X21740600Y14371400D03*
X19840600Y14371400D03*
D19*
X17815600Y24271400D03*
X17315600Y24271400D03*
X16815600Y24271400D03*
X16315600Y24271400D03*
X15815600Y24271400D03*
X15315600Y24271400D03*
D20*
X14065600Y25521400D03*
D21*
X13090600Y25171400D03*
D22*
X12390600Y25421400D03*
D20*
X19065600Y25521400D03*
D21*
X20040600Y25171400D03*
D22*
X20740600Y25421400D03*
D14*
X2340600Y16311400D03*
D15*
X2340600Y18851400D03*
X2340600Y21391400D03*
X2340600Y23931400D03*
X2340600Y26471400D03*
D14*
X2340600Y2021400D03*
D15*
X2340600Y4561400D03*
X2340600Y7101400D03*
X2340600Y9641400D03*
X2340600Y12181400D03*
D23*
X12940600Y5171400D03*
X15440600Y5171400D03*
X10940600Y5171400D03*
X8440600Y5171400D03*
D24*
X14190600Y3071400D03*
X9690600Y3071400D03*
D25*
X6240600Y3071400D03*
X17640600Y3071400D03*
D26*
X16980598Y20410732D03*
X16345598Y20410732D03*
X15710598Y20410732D03*
X15075598Y20410732D03*
X14440598Y20410732D03*
X13805598Y20410732D03*
X13170598Y20410732D03*
X12535598Y20410732D03*
X11900598Y20410732D03*
X11265598Y20410732D03*
X10630598Y20410732D03*
X9995598Y20410732D03*
X9360598Y20410732D03*
X8725598Y20410732D03*
X8725598Y13743232D03*
X9360598Y13743232D03*
X9995598Y13743232D03*
X10630598Y13743232D03*
X11265598Y13743232D03*
X11900598Y13743232D03*
X12535598Y13743232D03*
X13170598Y13743232D03*
X13805598Y13743232D03*
X14440598Y13743232D03*
X15075598Y13743232D03*
X15710598Y13743232D03*
X16345598Y13743232D03*
X16980598Y13743232D03*
D12*
X22440600Y1871400D03*
D27*
X19700600Y6611400D03*
X19700600Y8611400D03*
X6693598Y18521732D03*
X6693598Y20521732D03*
D28*
X17500600Y10461400D03*
X19500600Y10461400D03*
D29*
X17900600Y8961400D03*
X16400600Y8961400D03*
D30*
X22140600Y5311400D03*
X22140600Y7211400D03*
D29*
X12350600Y9411400D03*
X10850600Y9411400D03*
D31*
X10700600Y26661400D03*
X8300600Y26661400D03*
D29*
X21200600Y3861400D03*
X19700600Y3861400D03*
D17*
X19700600Y2511400D03*
X19700600Y1011400D03*
D32*
X19450600Y19161400D03*
X21650600Y19161400D03*
X21650600Y20861400D03*
X19450600Y20861400D03*
M02*
