%TF.GenerationSoftware,KiCad,Pcbnew,4.0.7*%
%TF.CreationDate,2018-03-05T22:45:11+00:00*%
%TF.ProjectId,a5v11-mod-01,61357631312D6D6F642D30312E6B6963,rev?*%
%TF.FileFunction,Copper,L1,Top,Signal*%
%FSLAX46Y46*%
G04 Gerber Fmt 4.6, Leading zero omitted, Abs format (unit mm)*
G04 Created by KiCad (PCBNEW 4.0.7) date Monday, 05 March 2018 'PMt' 22:45:11*
%MOMM*%
%LPD*%
G01*
G04 APERTURE LIST*
%ADD10C,0.100000*%
%ADD11C,0.150000*%
%ADD12C,1.000000*%
%ADD13R,0.750000X0.800000*%
%ADD14R,2.032000X1.727200*%
%ADD15O,2.032000X1.727200*%
%ADD16R,0.500000X0.900000*%
%ADD17R,0.900000X0.500000*%
%ADD18R,0.650000X1.060000*%
%ADD19R,0.300000X1.400000*%
%ADD20R,1.250000X2.300000*%
%ADD21R,0.700000X1.600000*%
%ADD22R,0.700000X1.100000*%
%ADD23C,1.650000*%
%ADD24C,1.100000*%
%ADD25O,1.800000X4.300000*%
%ADD26R,0.304800X1.143000*%
%ADD27R,1.250000X1.000000*%
%ADD28R,1.000000X1.250000*%
%ADD29R,0.800000X0.750000*%
%ADD30R,1.300000X0.700000*%
%ADD31C,1.500000*%
%ADD32R,1.400000X1.200000*%
%ADD33C,0.600000*%
%ADD34C,1.778000*%
%ADD35C,0.304800*%
%ADD36C,0.762000*%
%ADD37C,1.016000*%
%ADD38C,0.508000*%
%ADD39C,0.381000*%
%ADD40C,0.254000*%
G04 APERTURE END LIST*
D10*
D11*
X15240000Y28194000D02*
G75*
G03X20828000Y33782000I0J5588000D01*
G01*
X90600Y71400D02*
X90600Y28121400D01*
X24390600Y71400D02*
X90600Y71400D01*
X24390600Y38621400D02*
X24390600Y71400D01*
X20790600Y38621400D02*
X24390600Y38621400D01*
X20828000Y33782000D02*
X20790600Y38621400D01*
X0Y28194000D02*
X15240000Y28194000D01*
D12*
X22590600Y28121400D03*
D13*
X6693598Y15088732D03*
X6693598Y16588732D03*
D12*
X5300600Y26661400D03*
D14*
X22550600Y35991400D03*
D15*
X22550600Y33451400D03*
X22550600Y30911400D03*
D16*
X19740600Y16271400D03*
X21240600Y16271400D03*
X6578598Y22442732D03*
X8078598Y22442732D03*
D17*
X8725598Y9564232D03*
X8725598Y11064232D03*
D16*
X12396598Y11076232D03*
X10896598Y11076232D03*
X14516098Y11076232D03*
X16016098Y11076232D03*
D18*
X19840600Y12171400D03*
X20790600Y12171400D03*
X21740600Y12171400D03*
X21740600Y14371400D03*
X19840600Y14371400D03*
D19*
X17815600Y24271400D03*
X17315600Y24271400D03*
X16815600Y24271400D03*
X16315600Y24271400D03*
X15815600Y24271400D03*
X15315600Y24271400D03*
D20*
X14065600Y25521400D03*
D21*
X13090600Y25171400D03*
D22*
X12390600Y25421400D03*
D20*
X19065600Y25521400D03*
D21*
X20040600Y25171400D03*
D22*
X20740600Y25421400D03*
D14*
X2340600Y16311400D03*
D15*
X2340600Y18851400D03*
X2340600Y21391400D03*
X2340600Y23931400D03*
X2340600Y26471400D03*
D14*
X2340600Y2021400D03*
D15*
X2340600Y4561400D03*
X2340600Y7101400D03*
X2340600Y9641400D03*
X2340600Y12181400D03*
D23*
X12940600Y5171400D03*
X15440600Y5171400D03*
X10940600Y5171400D03*
X8440600Y5171400D03*
D24*
X14190600Y3071400D03*
X9690600Y3071400D03*
D25*
X6240600Y3071400D03*
X17640600Y3071400D03*
D26*
X16980598Y20410732D03*
X16345598Y20410732D03*
X15710598Y20410732D03*
X15075598Y20410732D03*
X14440598Y20410732D03*
X13805598Y20410732D03*
X13170598Y20410732D03*
X12535598Y20410732D03*
X11900598Y20410732D03*
X11265598Y20410732D03*
X10630598Y20410732D03*
X9995598Y20410732D03*
X9360598Y20410732D03*
X8725598Y20410732D03*
X8725598Y13743232D03*
X9360598Y13743232D03*
X9995598Y13743232D03*
X10630598Y13743232D03*
X11265598Y13743232D03*
X11900598Y13743232D03*
X12535598Y13743232D03*
X13170598Y13743232D03*
X13805598Y13743232D03*
X14440598Y13743232D03*
X15075598Y13743232D03*
X15710598Y13743232D03*
X16345598Y13743232D03*
X16980598Y13743232D03*
D12*
X22440600Y1871400D03*
D27*
X19700600Y6611400D03*
X19700600Y8611400D03*
X6693598Y18521732D03*
X6693598Y20521732D03*
D28*
X17500600Y10461400D03*
X19500600Y10461400D03*
D29*
X17900600Y8961400D03*
X16400600Y8961400D03*
D30*
X22140600Y5311400D03*
X22140600Y7211400D03*
D29*
X12350600Y9411400D03*
X10850600Y9411400D03*
D31*
X10700600Y26661400D03*
X8300600Y26661400D03*
D29*
X21200600Y3861400D03*
X19700600Y3861400D03*
D17*
X19700600Y2511400D03*
X19700600Y1011400D03*
D32*
X19450600Y19161400D03*
X21650600Y19161400D03*
X21650600Y20861400D03*
X19450600Y20861400D03*
D33*
X17940600Y16721400D03*
X14190600Y16271400D03*
X22590600Y3971400D03*
X22590600Y17621400D03*
D34*
X14857431Y9205973D03*
D33*
X13189929Y11572071D03*
D34*
X17345771Y7177221D03*
D33*
X16440600Y26171400D03*
X11994880Y12130332D03*
X4590600Y8021400D03*
D34*
X5169645Y20090912D03*
D33*
X8340600Y16121400D03*
X9990600Y16103857D03*
X10740600Y16103857D03*
X17673546Y22287140D03*
D34*
X21859752Y8752248D03*
D33*
X20790600Y14471400D03*
X11456098Y15330732D03*
X18090600Y15034400D03*
X13649207Y23307461D03*
X11203747Y24242261D03*
X14299276Y14916590D03*
X16193266Y15424066D03*
X21650600Y11211400D03*
X15710598Y12261400D03*
D34*
X6540600Y7721400D03*
X5286286Y13365714D03*
X19590600Y23329998D03*
X18240600Y12221400D03*
D33*
X19132009Y17779991D03*
D34*
X4372600Y5273340D03*
D35*
X16740600Y16271400D02*
X17190600Y16721400D01*
X17190600Y16721400D02*
X17940600Y16721400D01*
X14190600Y16271400D02*
X16740600Y16271400D01*
X9990600Y16103857D02*
X10740600Y16103857D01*
X8340600Y16121400D02*
X9973057Y16121400D01*
X9973057Y16121400D02*
X9990600Y16103857D01*
X22480600Y3861400D02*
X22590600Y3971400D01*
X21200600Y3861400D02*
X22480600Y3861400D01*
X19700600Y2511400D02*
X19850600Y2511400D01*
X19850600Y2511400D02*
X21200600Y3861400D01*
X22590600Y18321400D02*
X22590600Y17621400D01*
X21650600Y19161400D02*
X21750600Y19161400D01*
X21750600Y19161400D02*
X22590600Y18321400D01*
X19450600Y20861400D02*
X19850600Y20861400D01*
X19850600Y20861400D02*
X21550600Y19161400D01*
X21550600Y19161400D02*
X21650600Y19161400D01*
D36*
X15102004Y8961400D02*
X14857431Y9205973D01*
X16400600Y8961400D02*
X15102004Y8961400D01*
X12350600Y9411400D02*
X12350600Y11030234D01*
X12350600Y11030234D02*
X12396598Y11076232D01*
X16400600Y8961400D02*
X16400600Y8122392D01*
X16400600Y8122392D02*
X17345771Y7177221D01*
D37*
X17345771Y7177221D02*
X16887647Y7177221D01*
D36*
X12889930Y11272072D02*
X13189929Y11572071D01*
X12396598Y11076232D02*
X12694090Y11076232D01*
X12694090Y11076232D02*
X12889930Y11272072D01*
X17952168Y7271400D02*
X17439950Y7271400D01*
X17439950Y7271400D02*
X17345771Y7177221D01*
X19700600Y8561360D02*
X19242128Y8561360D01*
X19242128Y8561360D02*
X17952168Y7271400D01*
X19450560Y10461400D02*
X20372600Y10461400D01*
X20372600Y10461400D02*
X20790600Y10879400D01*
X20790600Y10879400D02*
X20790600Y12171400D01*
D37*
X19700600Y8561360D02*
X19700600Y10211360D01*
X19700600Y10211360D02*
X19450560Y10461400D01*
D35*
X16315600Y26046400D02*
X16440600Y26171400D01*
X16315600Y24271400D02*
X16315600Y26046400D01*
X17373547Y21987141D02*
X17673546Y22287140D01*
X16980598Y20410732D02*
X16980598Y21594192D01*
X16980598Y21594192D02*
X17373547Y21987141D01*
X16315600Y23721400D02*
X15805600Y23211400D01*
X15805600Y23211400D02*
X15355600Y22761400D01*
X15815600Y24271400D02*
X15815600Y23221400D01*
X15815600Y23221400D02*
X15805600Y23211400D01*
X15315600Y22801400D02*
X15355600Y22761400D01*
X15315600Y24271400D02*
X15315600Y22801400D01*
X16315600Y24271400D02*
X16315600Y23721400D01*
X12396598Y11076232D02*
X12396598Y11728614D01*
X12396598Y11728614D02*
X11994880Y12130332D01*
D36*
X4590600Y7597136D02*
X4590600Y8021400D01*
X7615601Y5996399D02*
X6191337Y5996399D01*
X6191337Y5996399D02*
X4590600Y7597136D01*
X8440600Y5171400D02*
X7615601Y5996399D01*
D37*
X6693598Y16788692D02*
X5889686Y16788692D01*
X5169645Y17508733D02*
X5169645Y20090912D01*
X5889686Y16788692D02*
X5169645Y17508733D01*
X6693598Y20471692D02*
X5550425Y20471692D01*
X5550425Y20471692D02*
X5169645Y20090912D01*
D38*
X8340600Y16121400D02*
X7360890Y16121400D01*
X7360890Y16121400D02*
X6693598Y16788692D01*
D37*
X6378638Y22442732D02*
X6378638Y20786652D01*
X6378638Y20786652D02*
X6693598Y20471692D01*
X6820598Y20537732D02*
X6693598Y20471692D01*
D35*
X12535598Y11137192D02*
X12596558Y11076232D01*
D37*
X12270431Y16110113D02*
X12403015Y15977529D01*
X9808772Y18571772D02*
X12270431Y16110113D01*
X6693598Y18571772D02*
X9808772Y18571772D01*
D36*
X10850600Y9411400D02*
X8878430Y9411400D01*
X8878430Y9411400D02*
X8725598Y9564232D01*
X13145722Y8471400D02*
X11555478Y8471400D01*
X11555478Y8471400D02*
X10850600Y9176278D01*
X10850600Y9176278D02*
X10850600Y9411400D01*
X14516098Y10876232D02*
X13284001Y9644135D01*
X14516098Y11076232D02*
X14516098Y10876232D01*
X13284001Y9644135D02*
X13284001Y8609679D01*
X13284001Y8609679D02*
X13145722Y8471400D01*
D35*
X13900848Y11831032D02*
X13961298Y11831032D01*
X12535598Y13743232D02*
X12535598Y13196282D01*
X12535598Y13196282D02*
X13900848Y11831032D01*
X13961298Y11831032D02*
X14516098Y11276232D01*
X14516098Y11276232D02*
X14516098Y11076232D01*
X6693598Y18571772D02*
X7040972Y18571772D01*
X7040972Y18571772D02*
X7740600Y19271400D01*
X7740600Y19271400D02*
X9097566Y19271400D01*
X9097566Y19271400D02*
X9360598Y19534432D01*
X9360598Y19534432D02*
X9360598Y20410732D01*
X12535598Y16110113D02*
X12403015Y15977529D01*
X12403015Y15977529D02*
X12535598Y13743232D01*
D39*
X6693598Y18505732D02*
X6566598Y18632732D01*
X6566598Y18632732D02*
X6693598Y18571772D01*
D35*
X13863431Y15666599D02*
X14436366Y15666599D01*
X9995598Y19534432D02*
X9995598Y20410732D01*
X13863431Y15666599D02*
X9995598Y19534432D01*
X15483432Y14619533D02*
X14436366Y15666599D01*
X16980597Y14619533D02*
X15483432Y14619533D01*
X16980598Y13743232D02*
X16980597Y14619533D01*
D36*
X17900600Y8961400D02*
X17900600Y10061400D01*
X17900600Y10061400D02*
X17500600Y10461400D01*
D35*
X16980598Y13743232D02*
X16980598Y11031442D01*
X16980598Y11031442D02*
X17550640Y10461400D01*
D39*
X16980598Y13743232D02*
X16980598Y13362232D01*
X16980598Y14187732D02*
X16980598Y13298732D01*
X16980598Y13298732D02*
X16980598Y13425732D01*
X7160577Y15416711D02*
X7074598Y15330732D01*
X9909619Y15416711D02*
X7160577Y15416711D01*
X9995598Y15330732D02*
X9909619Y15416711D01*
D35*
X7074598Y15330732D02*
X6935598Y15330732D01*
X6935598Y15330732D02*
X6693598Y15088732D01*
D37*
X22140600Y7211360D02*
X20250520Y7211360D01*
X20250520Y7211360D02*
X19700600Y6661440D01*
X22140600Y7211360D02*
X22140600Y8471400D01*
X22140600Y8471400D02*
X21859752Y8752248D01*
D36*
X20790600Y14471400D02*
X19940600Y14471400D01*
X19940600Y14471400D02*
X19840600Y14371400D01*
X19840600Y14371400D02*
X19840600Y16071400D01*
X19840600Y14371400D02*
X18753600Y14371400D01*
X18753600Y14371400D02*
X18090600Y15034400D01*
D39*
X11900598Y13425732D02*
X11900598Y14187732D01*
X11900598Y14187732D02*
X11900598Y14568732D01*
X10630598Y15140232D02*
X11519598Y15140232D01*
X11519598Y15140232D02*
X11519598Y15267232D01*
X11646598Y14822732D02*
X11900598Y14568732D01*
X10630598Y14695732D02*
X9995598Y15330732D01*
X10630598Y14378232D02*
X10630598Y15140232D01*
X10630598Y15140232D02*
X10630598Y15330732D01*
X11456098Y15330732D02*
X10630598Y15330732D01*
X10630598Y15330732D02*
X9995598Y15330732D01*
X11900598Y14568732D02*
X11900598Y14886232D01*
X11900598Y14886232D02*
X11519598Y15267232D01*
X11519598Y15267232D02*
X11456098Y15330732D01*
X10630598Y14632232D02*
X10821098Y14822732D01*
X10821098Y14822732D02*
X11646598Y14822732D01*
X10630598Y13743232D02*
X10630598Y14632232D01*
X10630598Y13743232D02*
X10630598Y14695732D01*
X10630598Y13425732D02*
X10630598Y14187732D01*
X10630598Y13425732D02*
X10630598Y14378232D01*
X10630598Y14378232D02*
X10630598Y14314732D01*
D35*
X15075598Y20410732D02*
X15075598Y20963212D01*
X15075598Y20963212D02*
X17315600Y23203214D01*
X17315600Y23203214D02*
X17315600Y24271400D01*
X14440598Y20974805D02*
X14440598Y20410732D01*
X16815600Y23349807D02*
X14440598Y20974805D01*
X16815600Y24271400D02*
X16815600Y23349807D01*
X13649207Y23307461D02*
X12993879Y23307461D01*
X12993879Y23307461D02*
X10700600Y25600740D01*
X10700600Y25600740D02*
X10700600Y26661400D01*
X13649207Y23307461D02*
X13055897Y23307461D01*
X13805598Y23151070D02*
X13649207Y23307461D01*
X13805598Y20410732D02*
X13805598Y23151070D01*
X8300600Y26661400D02*
X9050599Y25911401D01*
X9050599Y25911401D02*
X9534607Y25911401D01*
X9534607Y25911401D02*
X9650599Y25795409D01*
X9650599Y25795409D02*
X11203747Y24242261D01*
X11503746Y23942262D02*
X11203747Y24242261D01*
X13170598Y22275410D02*
X11503746Y23942262D01*
X13170598Y20410732D02*
X13170598Y22275410D01*
X12535598Y20410732D02*
X12535598Y21779810D01*
X2188200Y18851400D02*
X2340600Y18851400D01*
X12535598Y21779810D02*
X9186799Y25128609D01*
X9186799Y25128609D02*
X1447810Y25128610D01*
X1447810Y25128610D02*
X840600Y24521400D01*
X840600Y24521400D02*
X840600Y20199000D01*
X840600Y20199000D02*
X2188200Y18851400D01*
X2493000Y21391400D02*
X2340600Y21391400D01*
X3661400Y22559800D02*
X2493000Y21391400D01*
X3661400Y22965587D02*
X3661400Y22559800D01*
X5367212Y24671399D02*
X3661400Y22965587D01*
X8997416Y24671399D02*
X5367212Y24671399D01*
X11900598Y20410732D02*
X11900598Y21768217D01*
X11900598Y21768217D02*
X8997416Y24671399D01*
X5000600Y23658198D02*
X4967656Y23625255D01*
X11265598Y20410732D02*
X11265598Y21287032D01*
X11265598Y21287032D02*
X8591231Y23961399D01*
X8591231Y23961399D02*
X5303800Y23961398D01*
X5303800Y23961398D02*
X5000600Y23658198D01*
X3389587Y20635607D02*
X3389587Y19607193D01*
X990600Y5759000D02*
X2188200Y4561400D01*
X3389587Y19607193D02*
X3661410Y19335370D01*
X3661410Y20907429D02*
X3389587Y20635607D01*
X3635274Y14128121D02*
X3635274Y12603307D01*
X1440600Y8321400D02*
X990600Y7871400D01*
X3661410Y21055631D02*
X3661410Y20907429D01*
X4967656Y23625255D02*
X4967656Y22361877D01*
X4967656Y22361877D02*
X3661410Y21055631D01*
X3661410Y19335370D02*
X3661410Y14154257D01*
X3661410Y8742210D02*
X3240600Y8321400D01*
X3661410Y14154257D02*
X3635274Y14128121D01*
X3635274Y12603307D02*
X3661410Y12577171D01*
X990600Y7871400D02*
X990600Y5759000D01*
X3661410Y12577171D02*
X3661410Y8742210D01*
X3240600Y8321400D02*
X1440600Y8321400D01*
X2188200Y4561400D02*
X2340600Y4561400D01*
X8401849Y23504189D02*
X10630598Y21275440D01*
X4147809Y8582017D02*
X4147809Y12737365D01*
X4147809Y12737365D02*
X4092485Y12792689D01*
X4092485Y12792689D02*
X4092485Y13938739D01*
X4092485Y13938739D02*
X4118621Y13964875D01*
X5424867Y23435873D02*
X5493183Y23504189D01*
X5493183Y23504189D02*
X8401849Y23504189D01*
X5424867Y22172495D02*
X5424867Y23435873D01*
X4118621Y20866249D02*
X5424867Y22172495D01*
X10630598Y21275440D02*
X10630598Y20410732D01*
X3846798Y19796575D02*
X3846798Y20446225D01*
X4118621Y13964875D02*
X4118621Y19524753D01*
X4118621Y19524753D02*
X3846798Y19796575D01*
X2667192Y7101400D02*
X4147809Y8582017D01*
X3846798Y20446225D02*
X4118621Y20718047D01*
X4118621Y20718047D02*
X4118621Y20866249D01*
X2340600Y7101400D02*
X2667192Y7101400D01*
D39*
X8725598Y13324132D02*
X7633398Y12231931D01*
X7633398Y12231931D02*
X7633398Y9206175D01*
X7633398Y9206175D02*
X8518173Y8321400D01*
X8518173Y8321400D02*
X9790600Y8321400D01*
X9790600Y8321400D02*
X12115601Y5996399D01*
X12115601Y5996399D02*
X12940600Y5171400D01*
X8725598Y13743232D02*
X8725598Y13324132D01*
X8725598Y13425732D02*
X8725598Y13298732D01*
D35*
X9360598Y13743232D02*
X9360598Y14619532D01*
X8340601Y14921401D02*
X8040600Y14621400D01*
X9360598Y14619532D02*
X9390600Y14649534D01*
X9390600Y14649534D02*
X9390600Y14771400D01*
X9390600Y14771400D02*
X9240599Y14921401D01*
X8040600Y13393489D02*
X7099987Y12452876D01*
X9240599Y14921401D02*
X8340601Y14921401D01*
X8040600Y14621400D02*
X8040600Y13393489D01*
D39*
X7099987Y8953302D02*
X7099987Y12452876D01*
X10056890Y5996399D02*
X7099987Y8953302D01*
X10115601Y5996399D02*
X10056890Y5996399D01*
X10940600Y5171400D02*
X10115601Y5996399D01*
D36*
X20629300Y5311440D02*
X22140600Y5311440D01*
X18692208Y5311440D02*
X20629300Y5311440D01*
X16024010Y5754810D02*
X18248838Y5754810D01*
X18248838Y5754810D02*
X18692208Y5311440D01*
X15440600Y5171400D02*
X16024010Y5754810D01*
D35*
X16470222Y19421400D02*
X17263808Y19421400D01*
X17263808Y19421400D02*
X18445799Y20603391D01*
X18445799Y20603391D02*
X18445799Y21705241D01*
X18445799Y21705241D02*
X18506759Y21766201D01*
X18506759Y21766201D02*
X20645800Y21766200D01*
X20645800Y21766200D02*
X21550600Y20861400D01*
X21550600Y20861400D02*
X21650600Y20861400D01*
X16345598Y19546024D02*
X16470222Y19421400D01*
X16345598Y20410732D02*
X16345598Y19546024D01*
X19450600Y19161400D02*
X18445800Y19161400D01*
X18445800Y19161400D02*
X17955800Y18671400D01*
X17955800Y18671400D02*
X16573630Y18671400D01*
X16573630Y18671400D02*
X15710598Y19534432D01*
X15710598Y19534432D02*
X15710598Y20410732D01*
X16493265Y15124067D02*
X16193266Y15424066D01*
X17210387Y15124067D02*
X16493265Y15124067D01*
X17806528Y15720208D02*
X17210387Y15124067D01*
X15075598Y13743232D02*
X15075598Y14380774D01*
X15075598Y14380774D02*
X14539782Y14916590D01*
X14539782Y14916590D02*
X14299276Y14916590D01*
X18139408Y15720208D02*
X18760482Y16341282D01*
X18760482Y16341282D02*
X18760482Y16571400D01*
X17757720Y15671400D02*
X17806528Y15720208D01*
X17806528Y15720208D02*
X18139408Y15720208D01*
X20255679Y17026201D02*
X19215283Y17026201D01*
X19215283Y17026201D02*
X18760482Y16571400D01*
X21240600Y16271400D02*
X21010480Y16271400D01*
X21010480Y16271400D02*
X20255679Y17026201D01*
X21240600Y15076400D02*
X21240600Y16271400D01*
X21740600Y14371400D02*
X21740600Y14576400D01*
X21740600Y14576400D02*
X21240600Y15076400D01*
X21740600Y12171400D02*
X21740600Y11301400D01*
X21740600Y11301400D02*
X21650600Y11211400D01*
X21767017Y12042099D02*
X21767017Y11793793D01*
X21740600Y12068516D02*
X21767017Y12042099D01*
X21740600Y12171400D02*
X21740600Y12068516D01*
X15710598Y12261400D02*
X15710598Y12981232D01*
X15710598Y12136532D02*
X15710598Y12261400D01*
X16016098Y11076232D02*
X16016098Y11831032D01*
X15710598Y12981232D02*
X15710598Y13743232D01*
X16016098Y11831032D02*
X15710598Y12136532D01*
D36*
X5286286Y13365714D02*
X5286286Y8975714D01*
X5286286Y8975714D02*
X6540600Y7721400D01*
D35*
X19590600Y23329998D02*
X18701601Y22440999D01*
X18701601Y22440999D02*
X18421001Y22440999D01*
D36*
X18240600Y12221400D02*
X19790600Y12221400D01*
X19790600Y12221400D02*
X19840600Y12171400D01*
X19556273Y17779991D02*
X19132009Y17779991D01*
X22824001Y13639679D02*
X22824001Y16154565D01*
X21198575Y17779991D02*
X19556273Y17779991D01*
X22824001Y16154565D02*
X21198575Y17779991D01*
X22455722Y13271400D02*
X22824001Y13639679D01*
X19840600Y13036522D02*
X20075478Y13271400D01*
X19840600Y12171400D02*
X19840600Y13036522D01*
X20075478Y13271400D02*
X22455722Y13271400D01*
D35*
X18421001Y22440999D02*
X18140600Y22721400D01*
X18140600Y22721400D02*
X18140600Y22671400D01*
X17815600Y23046400D02*
X18140600Y22721400D01*
X17815600Y24271400D02*
X17815600Y23046400D01*
D37*
X4372600Y5273340D02*
X4849834Y5750574D01*
X4372600Y3901000D02*
X4372600Y5273340D01*
X2493000Y2021400D02*
X4372600Y3901000D01*
X2340600Y2021400D02*
X2493000Y2021400D01*
D39*
X11265598Y13425732D02*
X11265598Y12536732D01*
X11265598Y12536732D02*
X10884598Y11457232D01*
X10884598Y11457232D02*
X10757598Y11457232D01*
X10757598Y11457232D02*
X10696638Y11076232D01*
X9995598Y13425732D02*
X9995598Y12981232D01*
X9995598Y12981232D02*
X8852598Y11266732D01*
X8852598Y11266732D02*
X8725598Y11264192D01*
D35*
X8725598Y20410732D02*
X8725598Y21795732D01*
X8725598Y21795732D02*
X8078598Y22442732D01*
D39*
X8344598Y22569732D02*
X8278558Y22442732D01*
D35*
X17640600Y3071400D02*
X19700600Y1011400D01*
X19700600Y3861400D02*
X18430600Y3861400D01*
X18430600Y3861400D02*
X17640600Y3071400D01*
D37*
X17640600Y3071400D02*
X17640600Y1571400D01*
X17640600Y1571400D02*
X16890600Y821400D01*
X16890600Y821400D02*
X7240600Y821400D01*
X7240600Y821400D02*
X6240600Y1821400D01*
X6240600Y1821400D02*
X6240600Y3071400D01*
D40*
G36*
X14923198Y19191792D02*
X15010741Y19191792D01*
X15153822Y18977656D01*
X16016854Y18114624D01*
X16272305Y17943937D01*
X16573630Y17884000D01*
X17955800Y17884000D01*
X18144150Y17921465D01*
X18116009Y17779991D01*
X18193347Y17391185D01*
X18302843Y17227313D01*
X18203706Y17128176D01*
X18033019Y16872725D01*
X17996927Y16691279D01*
X17813256Y16507608D01*
X17806528Y16507608D01*
X17505203Y16447671D01*
X17249752Y16276984D01*
X16956106Y15983338D01*
X16723593Y16216258D01*
X16380065Y16358904D01*
X16008099Y16359228D01*
X15664323Y16217183D01*
X15401074Y15954393D01*
X15360305Y15856212D01*
X14993142Y16223375D01*
X14737691Y16394062D01*
X14436366Y16453999D01*
X14189583Y16453999D01*
X11446439Y19197143D01*
X11589159Y19223998D01*
X11748198Y19191792D01*
X12052998Y19191792D01*
X12224159Y19223998D01*
X12383198Y19191792D01*
X12687998Y19191792D01*
X12859159Y19223998D01*
X13018198Y19191792D01*
X13322998Y19191792D01*
X13494159Y19223998D01*
X13653198Y19191792D01*
X13957998Y19191792D01*
X14129159Y19223998D01*
X14288198Y19191792D01*
X14592998Y19191792D01*
X14764159Y19223998D01*
X14923198Y19191792D01*
X14923198Y19191792D01*
G37*
X14923198Y19191792D02*
X15010741Y19191792D01*
X15153822Y18977656D01*
X16016854Y18114624D01*
X16272305Y17943937D01*
X16573630Y17884000D01*
X17955800Y17884000D01*
X18144150Y17921465D01*
X18116009Y17779991D01*
X18193347Y17391185D01*
X18302843Y17227313D01*
X18203706Y17128176D01*
X18033019Y16872725D01*
X17996927Y16691279D01*
X17813256Y16507608D01*
X17806528Y16507608D01*
X17505203Y16447671D01*
X17249752Y16276984D01*
X16956106Y15983338D01*
X16723593Y16216258D01*
X16380065Y16358904D01*
X16008099Y16359228D01*
X15664323Y16217183D01*
X15401074Y15954393D01*
X15360305Y15856212D01*
X14993142Y16223375D01*
X14737691Y16394062D01*
X14436366Y16453999D01*
X14189583Y16453999D01*
X11446439Y19197143D01*
X11589159Y19223998D01*
X11748198Y19191792D01*
X12052998Y19191792D01*
X12224159Y19223998D01*
X12383198Y19191792D01*
X12687998Y19191792D01*
X12859159Y19223998D01*
X13018198Y19191792D01*
X13322998Y19191792D01*
X13494159Y19223998D01*
X13653198Y19191792D01*
X13957998Y19191792D01*
X14129159Y19223998D01*
X14288198Y19191792D01*
X14592998Y19191792D01*
X14764159Y19223998D01*
X14923198Y19191792D01*
M02*
