%TF.GenerationSoftware,KiCad,Pcbnew,4.0.7*%
%TF.CreationDate,2018-03-05T22:26:54+00:00*%
%TF.ProjectId,a5v11-mod-01,61357631312D6D6F642D30312E6B6963,rev?*%
%TF.FileFunction,Legend,Bot*%
%FSLAX46Y46*%
G04 Gerber Fmt 4.6, Leading zero omitted, Abs format (unit mm)*
G04 Created by KiCad (PCBNEW 4.0.7) date Monday, 05 March 2018 'PMt' 22:26:54*
%MOMM*%
%LPD*%
G01*
G04 APERTURE LIST*
%ADD10C,0.100000*%
%ADD11C,0.150000*%
%ADD12C,0.250000*%
G04 APERTURE END LIST*
D10*
D11*
X15240000Y28194000D02*
G75*
G03X20828000Y33782000I0J5588000D01*
G01*
D12*
X14042981Y15052352D02*
X13042981Y15052352D01*
X13042981Y14814257D01*
X13090600Y14671399D01*
X13185838Y14576161D01*
X13281076Y14528542D01*
X13471552Y14480923D01*
X13614410Y14480923D01*
X13804886Y14528542D01*
X13900124Y14576161D01*
X13995362Y14671399D01*
X14042981Y14814257D01*
X14042981Y15052352D01*
X13662029Y14052352D02*
X13662029Y13290447D01*
X11342981Y14942352D02*
X10342981Y14942352D01*
X10342981Y14704257D01*
X10390600Y14561399D01*
X10485838Y14466161D01*
X10581076Y14418542D01*
X10771552Y14370923D01*
X10914410Y14370923D01*
X11104886Y14418542D01*
X11200124Y14466161D01*
X11295362Y14561399D01*
X11342981Y14704257D01*
X11342981Y14942352D01*
X10962029Y13942352D02*
X10962029Y13180447D01*
X11342981Y13561399D02*
X10581076Y13561399D01*
X7990600Y14333304D02*
X7942981Y14428542D01*
X7942981Y14571399D01*
X7990600Y14714257D01*
X8085838Y14809495D01*
X8181076Y14857114D01*
X8371552Y14904733D01*
X8514410Y14904733D01*
X8704886Y14857114D01*
X8800124Y14809495D01*
X8895362Y14714257D01*
X8942981Y14571399D01*
X8942981Y14476161D01*
X8895362Y14333304D01*
X8847743Y14285685D01*
X8514410Y14285685D01*
X8514410Y14476161D01*
X8942981Y13857114D02*
X7942981Y13857114D01*
X8942981Y13285685D01*
X7942981Y13285685D01*
X8942981Y12809495D02*
X7942981Y12809495D01*
X7942981Y12571400D01*
X7990600Y12428542D01*
X8085838Y12333304D01*
X8181076Y12285685D01*
X8371552Y12238066D01*
X8514410Y12238066D01*
X8704886Y12285685D01*
X8800124Y12333304D01*
X8895362Y12428542D01*
X8942981Y12571400D01*
X8942981Y12809495D01*
X15442981Y14954257D02*
X16442981Y14620924D01*
X15442981Y14287590D01*
X16442981Y13954257D02*
X15442981Y13954257D01*
X15823933Y13954257D02*
X15776314Y13859019D01*
X15776314Y13668542D01*
X15823933Y13573304D01*
X15871552Y13525685D01*
X15966790Y13478066D01*
X16252505Y13478066D01*
X16347743Y13525685D01*
X16395362Y13573304D01*
X16442981Y13668542D01*
X16442981Y13859019D01*
X16395362Y13954257D01*
X15776314Y12620923D02*
X16442981Y12620923D01*
X15776314Y13049495D02*
X16300124Y13049495D01*
X16395362Y13001876D01*
X16442981Y12906638D01*
X16442981Y12763780D01*
X16395362Y12668542D01*
X16347743Y12620923D01*
X16395362Y12192352D02*
X16442981Y12097114D01*
X16442981Y11906638D01*
X16395362Y11811399D01*
X16300124Y11763780D01*
X16252505Y11763780D01*
X16157267Y11811399D01*
X16109648Y11906638D01*
X16109648Y12049495D01*
X16062029Y12144733D01*
X15966790Y12192352D01*
X15919171Y12192352D01*
X15823933Y12144733D01*
X15776314Y12049495D01*
X15776314Y11906638D01*
X15823933Y11811399D01*
D11*
X90600Y71400D02*
X90600Y28121400D01*
X24390600Y71400D02*
X90600Y71400D01*
X24390600Y38621400D02*
X24390600Y71400D01*
X20790600Y38621400D02*
X24390600Y38621400D01*
X20828000Y33782000D02*
X20790600Y38621400D01*
X0Y28194000D02*
X15240000Y28194000D01*
M02*
