%TF.GenerationSoftware,KiCad,Pcbnew,4.0.7*%
%TF.CreationDate,2018-03-06T15:17:41+00:00*%
%TF.ProjectId,a5v11-mod-01,61357631312D6D6F642D30312E6B6963,rev?*%
%TF.FileFunction,Paste,Top*%
%FSLAX46Y46*%
G04 Gerber Fmt 4.6, Leading zero omitted, Abs format (unit mm)*
G04 Created by KiCad (PCBNEW 4.0.7) date Tuesday, 06 March 2018 'PMt' 15:17:41*
%MOMM*%
%LPD*%
G01*
G04 APERTURE LIST*
%ADD10C,0.100000*%
%ADD11C,0.150000*%
%ADD12R,0.750000X0.800000*%
%ADD13R,0.500000X0.900000*%
%ADD14R,0.900000X0.500000*%
%ADD15R,0.650000X1.060000*%
%ADD16R,0.300000X1.400000*%
%ADD17R,1.250000X2.300000*%
%ADD18R,0.700000X1.600000*%
%ADD19R,0.700000X1.100000*%
%ADD20R,0.304800X1.143000*%
%ADD21R,1.250000X1.000000*%
%ADD22R,1.000000X1.250000*%
%ADD23R,0.800000X0.750000*%
%ADD24R,1.300000X0.700000*%
%ADD25R,1.400000X1.200000*%
G04 APERTURE END LIST*
D10*
D11*
X15240000Y28194000D02*
G75*
G03X20828000Y33782000I0J5588000D01*
G01*
X90600Y71400D02*
X90600Y28121400D01*
X24390600Y71400D02*
X90600Y71400D01*
X24390600Y38621400D02*
X24390600Y71400D01*
X20790600Y38621400D02*
X24390600Y38621400D01*
X20828000Y33782000D02*
X20790600Y38621400D01*
X0Y28194000D02*
X15240000Y28194000D01*
D12*
X6693598Y15088732D03*
X6693598Y16588732D03*
D13*
X19740600Y16271400D03*
X21240600Y16271400D03*
X6578598Y22442732D03*
X8078598Y22442732D03*
D14*
X8725598Y9564232D03*
X8725598Y11064232D03*
D13*
X12396598Y11076232D03*
X10896598Y11076232D03*
X14516098Y11076232D03*
X16016098Y11076232D03*
D15*
X19840600Y12171400D03*
X20790600Y12171400D03*
X21740600Y12171400D03*
X21740600Y14371400D03*
X19840600Y14371400D03*
D16*
X20314600Y23921400D03*
X19814600Y23921400D03*
X19314600Y23921400D03*
X18814600Y23921400D03*
X18314600Y23921400D03*
X17814600Y23921400D03*
D17*
X16564600Y25171400D03*
D18*
X15589600Y24821400D03*
D19*
X14889600Y25071400D03*
D17*
X21564600Y25171400D03*
D18*
X22539600Y24821400D03*
D19*
X23239600Y25071400D03*
D20*
X16980598Y20410732D03*
X16345598Y20410732D03*
X15710598Y20410732D03*
X15075598Y20410732D03*
X14440598Y20410732D03*
X13805598Y20410732D03*
X13170598Y20410732D03*
X12535598Y20410732D03*
X11900598Y20410732D03*
X11265598Y20410732D03*
X10630598Y20410732D03*
X9995598Y20410732D03*
X9360598Y20410732D03*
X8725598Y20410732D03*
X8725598Y13743232D03*
X9360598Y13743232D03*
X9995598Y13743232D03*
X10630598Y13743232D03*
X11265598Y13743232D03*
X11900598Y13743232D03*
X12535598Y13743232D03*
X13170598Y13743232D03*
X13805598Y13743232D03*
X14440598Y13743232D03*
X15075598Y13743232D03*
X15710598Y13743232D03*
X16345598Y13743232D03*
X16980598Y13743232D03*
D21*
X19700600Y6611400D03*
X19700600Y8611400D03*
X6693598Y18521732D03*
X6693598Y20521732D03*
D22*
X17500600Y10461400D03*
X19500600Y10461400D03*
D23*
X17900600Y8961400D03*
X16400600Y8961400D03*
D24*
X22140600Y5311400D03*
X22140600Y7211400D03*
D23*
X12350600Y9411400D03*
X10850600Y9411400D03*
X21200600Y3861400D03*
X19700600Y3861400D03*
D14*
X19700600Y2511400D03*
X19700600Y1011400D03*
D25*
X19786600Y18137400D03*
X21986600Y18137400D03*
X21986600Y19837400D03*
X19786600Y19837400D03*
M02*
