M48
;DRILL file {KiCad 4.0.7} date Monday, 05 March 2018 'PMt' 20:12:53
;FORMAT={-:-/ absolute / inch / decimal}
FMAT,2
INCH,TZ
T1C0.016
T2C0.032
T3C0.036
T4C0.039
T5C0.040
T6C0.043
%
G90
G05
M72
T1
X0.8917Y-1.1752
X1.0394Y-0.8563
X1.1043Y-0.857
X1.1339Y-0.857
X1.1521Y-0.5366
X1.162Y-0.8874
X1.1832Y-1.0134
X1.2303Y-1.0354
X1.2484Y-0.5734
X1.2697Y-0.8504
X1.274Y-0.9037
X1.3295Y-1.0083
X1.3485Y-0.8838
X1.3583Y-0.4606
X1.4068Y-0.6136
X1.4173Y-0.8327
X1.4232Y-0.8991
X1.4642Y-0.791
X1.5295Y-0.9213
X1.5634Y-1.0496
X1.6004Y-0.7972
X1.6004Y-1.3346
T2
X0.8831Y-1.2834
X0.9145Y-0.7
X0.9191Y-0.9648
X0.9685Y-1.187
X1.2959Y-1.1286
X1.3939Y-1.2084
X1.4291Y-1.0098
X1.4823Y-0.5725
X1.5716Y-1.1464
T3
X1.0433Y-1.2874
X1.1417Y-1.2874
X1.2205Y-1.2874
X1.3189Y-1.2874
T5
X0.8031Y-0.4488
X0.8031Y-0.5488
X0.8031Y-0.6488
X0.8031Y-0.7488
X0.8031Y-0.8488
X0.8031Y-1.0114
X0.8031Y-1.1114
X0.8031Y-1.2114
X0.8031Y-1.3114
X0.8031Y-1.4114
X1.5988Y-0.074
X1.5988Y-0.174
X1.5988Y-0.274
T6
X1.0925Y-1.3701
X1.2697Y-1.3701
T4
X0.9567Y-1.3406G85X0.9567Y-1.3996
G05
X1.4055Y-1.3406G85X1.4055Y-1.3996
G05
T0
M30
