M48
;DRILL file {KiCad 4.0.7} date Monday, 05 March 2018 'PMt' 22:26:56
;FORMAT={-:-/ absolute / inch / decimal}
FMAT,2
INCH,TZ
T1C0.016
T2C0.032
T3C0.036
T4C0.039
T5C0.040
T6C0.043
%
G90
G05
M72
T1
X0.1807Y0.3158
X0.3284Y0.6347
X0.3933Y0.634
X0.4229Y0.634
X0.4411Y0.9544
X0.451Y0.6036
X0.4722Y0.4776
X0.5193Y0.4556
X0.5374Y0.9176
X0.5587Y0.6406
X0.563Y0.5873
X0.6185Y0.4827
X0.6375Y0.6072
X0.6473Y1.0304
X0.6958Y0.8774
X0.7063Y0.6583
X0.7122Y0.5919
X0.7532Y0.7
X0.8185Y0.5697
X0.8524Y0.4414
X0.8894Y0.6938
X0.8894Y0.1564
T2
X0.1721Y0.2076
X0.2035Y0.791
X0.2081Y0.5262
X0.2575Y0.304
X0.5849Y0.3624
X0.6829Y0.2826
X0.7181Y0.4812
X0.7713Y0.9185
X0.8606Y0.3446
T3
X0.3323Y0.2036
X0.4307Y0.2036
X0.5095Y0.2036
X0.6079Y0.2036
T5
X0.0921Y1.0422
X0.0921Y0.9422
X0.0921Y0.8422
X0.0921Y0.7422
X0.0921Y0.6422
X0.0921Y0.4796
X0.0921Y0.3796
X0.0921Y0.2796
X0.0921Y0.1796
X0.0921Y0.0796
X0.8878Y1.417
X0.8878Y1.317
X0.8878Y1.217
T6
X0.3815Y0.1209
X0.5587Y0.1209
T4
X0.2457Y0.1504G85X0.2457Y0.0914
G05
X0.6945Y0.1504G85X0.6945Y0.0914
G05
T0
M30
