%TF.GenerationSoftware,KiCad,Pcbnew,4.0.7*%
%TF.CreationDate,2018-03-05T20:09:29+00:00*%
%TF.ProjectId,a5v11-mod-01,61357631312D6D6F642D30312E6B6963,rev?*%
%TF.FileFunction,Copper,L2,Bot,Signal*%
%FSLAX46Y46*%
G04 Gerber Fmt 4.6, Leading zero omitted, Abs format (unit mm)*
G04 Created by KiCad (PCBNEW 4.0.7) date Monday, 05 March 2018 'PMt' 20:09:29*
%MOMM*%
%LPD*%
G01*
G04 APERTURE LIST*
%ADD10C,0.100000*%
%ADD11C,0.150000*%
%ADD12R,1.500000X8.000000*%
%ADD13R,1.500000X7.500000*%
%ADD14R,10.000000X0.300000*%
%ADD15R,2.032000X1.727200*%
%ADD16O,2.032000X1.727200*%
%ADD17C,1.650000*%
%ADD18C,1.100000*%
%ADD19O,1.800000X4.300000*%
%ADD20C,0.600000*%
%ADD21C,1.778000*%
%ADD22C,0.762000*%
%ADD23C,0.304800*%
%ADD24C,1.016000*%
%ADD25C,0.254000*%
G04 APERTURE END LIST*
D10*
D11*
X19726066Y-37871400D02*
G75*
G03X19726066Y-37871400I-1666666J0D01*
G01*
X15559400Y-37871400D02*
X20559400Y-37871400D01*
X18059400Y-35371400D02*
X18059400Y-40371400D01*
X33299400Y-9677400D02*
G75*
G03X38887400Y-4089400I0J5588000D01*
G01*
X18150000Y-37800000D02*
X18150000Y-9750000D01*
X42450000Y-37800000D02*
X18150000Y-37800000D01*
X42450000Y750000D02*
X42450000Y-37800000D01*
X38850000Y750000D02*
X42450000Y750000D01*
X38887400Y-4089400D02*
X38850000Y750000D01*
X18059400Y-9677400D02*
X33299400Y-9677400D01*
D12*
X26430000Y-16950000D03*
X34050000Y-16950000D03*
D13*
X31540000Y-16700000D03*
X28940000Y-16700000D03*
D14*
X30240000Y-10600000D03*
D15*
X40610000Y-1880000D03*
D16*
X40610000Y-4420000D03*
X40610000Y-6960000D03*
D15*
X20400000Y-21560000D03*
D16*
X20400000Y-19020000D03*
X20400000Y-16480000D03*
X20400000Y-13940000D03*
X20400000Y-11400000D03*
D15*
X20400000Y-35850000D03*
D16*
X20400000Y-33310000D03*
X20400000Y-30770000D03*
X20400000Y-28230000D03*
X20400000Y-25690000D03*
D17*
X31000000Y-32700000D03*
X33500000Y-32700000D03*
X29000000Y-32700000D03*
X26500000Y-32700000D03*
D18*
X32250000Y-34800000D03*
X27750000Y-34800000D03*
D19*
X24300000Y-34800000D03*
X35700000Y-34800000D03*
D20*
X36000000Y-21150000D03*
X32250000Y-21600000D03*
X40650000Y-33900000D03*
X40650000Y-20250000D03*
D21*
X32916831Y-28665427D03*
D20*
X31249329Y-26299329D03*
D21*
X35405171Y-30694179D03*
D20*
X34500000Y-11700000D03*
X30054280Y-25741068D03*
X22650000Y-29850000D03*
D21*
X23229045Y-17780488D03*
D20*
X26400000Y-21750000D03*
X28050000Y-21767543D03*
X28800000Y-21767543D03*
X35732946Y-15584260D03*
D21*
X39919152Y-29119152D03*
D20*
X38850000Y-23400000D03*
X29515498Y-22540668D03*
X36150000Y-22837000D03*
X31708607Y-14563939D03*
X29263147Y-13629139D03*
X32358676Y-22954810D03*
X34252666Y-22447334D03*
X39710000Y-26660000D03*
X33769998Y-25610000D03*
D21*
X24600000Y-30150000D03*
X23345686Y-24505686D03*
X37650000Y-14541402D03*
X36300000Y-25650000D03*
D20*
X37191409Y-20091409D03*
D21*
X22432000Y-32598060D03*
D22*
X35700000Y-21600000D02*
X35250000Y-22050000D01*
X38100000Y-21600000D02*
X35700000Y-21600000D01*
X39450000Y-20250000D02*
X38100000Y-21600000D01*
X40650000Y-20250000D02*
X39450000Y-20250000D01*
X31350000Y-27124264D02*
X31249329Y-27023593D01*
X31249329Y-27023593D02*
X31249329Y-26723593D01*
X31249329Y-26723593D02*
X31249329Y-26299329D01*
D23*
X30240000Y-10600000D02*
X35544800Y-10600000D01*
X35544800Y-10600000D02*
X35594800Y-10650000D01*
X24735200Y-10800000D02*
X23692400Y-10800000D01*
X23692400Y-10800000D02*
X20552400Y-13940000D01*
X20552400Y-13940000D02*
X20400000Y-13940000D01*
X30240000Y-10600000D02*
X24935200Y-10600000D01*
X24935200Y-10600000D02*
X24735200Y-10800000D01*
D24*
X26430000Y-16950000D02*
X24059533Y-16950000D01*
X24059533Y-16950000D02*
X23229045Y-17780488D01*
X28939599Y-36010401D02*
X30000000Y-34950000D01*
X26100000Y-35700000D02*
X26410401Y-36010401D01*
X26410401Y-36010401D02*
X28939599Y-36010401D01*
X26100000Y-34266726D02*
X26100000Y-35700000D01*
X26500000Y-32700000D02*
X26500000Y-33866726D01*
X26500000Y-33866726D02*
X26100000Y-34266726D01*
X23229045Y-17780488D02*
X23229045Y-16769045D01*
X23229045Y-16769045D02*
X20400000Y-13940000D01*
X26430000Y-20000000D02*
X26430000Y-16950000D01*
D23*
X30054280Y-25741068D02*
X29069939Y-24756727D01*
X29069939Y-24756727D02*
X29069939Y-23064990D01*
X29069939Y-23064990D02*
X28829688Y-22824739D01*
X28829688Y-22824739D02*
X28829688Y-21797231D01*
X28829688Y-21797231D02*
X28800000Y-21767543D01*
D22*
X21030000Y-28230000D02*
X22650000Y-29850000D01*
D24*
X24217143Y-26350400D02*
X28800000Y-21767543D01*
X22432000Y-26350400D02*
X24217143Y-26350400D01*
X20552400Y-28230000D02*
X22432000Y-26350400D01*
X20400000Y-28230000D02*
X20552400Y-28230000D01*
D22*
X20400000Y-28230000D02*
X21030000Y-28230000D01*
D23*
X31950000Y-21300000D02*
X32250000Y-21600000D01*
X29267543Y-21300000D02*
X31950000Y-21300000D01*
X28800000Y-21767543D02*
X29267543Y-21300000D01*
D22*
X30763041Y-23788211D02*
X29815497Y-22840667D01*
X29815497Y-22840667D02*
X29515498Y-22540668D01*
X32758709Y-23788211D02*
X30763041Y-23788211D01*
X32790475Y-23756445D02*
X32758709Y-23788211D01*
X35725736Y-22837000D02*
X34806291Y-23756445D01*
X36150000Y-22837000D02*
X35725736Y-22837000D01*
X34806291Y-23756445D02*
X32790475Y-23756445D01*
X38850000Y-23400000D02*
X38850000Y-23867756D01*
X38850000Y-23867756D02*
X40659818Y-25677574D01*
X40659818Y-25677574D02*
X40659818Y-26990182D01*
X40659818Y-26990182D02*
X39919152Y-27730848D01*
X39919152Y-27730848D02*
X39919152Y-29119152D01*
D23*
X31708607Y-14988203D02*
X31708607Y-14563939D01*
X31708607Y-16531393D02*
X31708607Y-14988203D01*
X31540000Y-16700000D02*
X31708607Y-16531393D01*
X28940000Y-13952286D02*
X28963148Y-13929138D01*
X28963148Y-13929138D02*
X29263147Y-13629139D01*
X28940000Y-16700000D02*
X28940000Y-13952286D01*
X32763193Y-22518526D02*
X32763193Y-22550293D01*
X32763193Y-22550293D02*
X32658675Y-22654811D01*
X32658675Y-22654811D02*
X32358676Y-22954810D01*
X33025906Y-22375906D02*
X32905813Y-22375906D01*
X32834385Y-22447334D02*
X32763193Y-22518526D01*
X34252666Y-22447334D02*
X32834385Y-22447334D01*
X32905813Y-22375906D02*
X32763193Y-22518526D01*
X39526418Y-25777608D02*
X39526418Y-26476418D01*
X39526418Y-26476418D02*
X39608788Y-26558789D01*
X33769998Y-25610000D02*
X34953628Y-24426370D01*
X38175180Y-24426370D02*
X39526418Y-25777608D01*
X34953628Y-24426370D02*
X38175180Y-24426370D01*
D24*
X23345686Y-24505686D02*
X20400000Y-21560000D01*
D22*
X36818120Y-26877406D02*
X33545526Y-30150000D01*
X33545526Y-30150000D02*
X25857235Y-30150000D01*
X25857235Y-30150000D02*
X24600000Y-30150000D01*
X24600000Y-30150000D02*
X24600000Y-30430060D01*
X24600000Y-30430060D02*
X22432000Y-32598060D01*
X36818120Y-25620171D02*
X36818120Y-26877406D01*
X36788291Y-25650000D02*
X36818120Y-25620171D01*
X36300000Y-25650000D02*
X36788291Y-25650000D01*
D24*
X36016000Y-16950000D02*
X37650000Y-15316000D01*
X37650000Y-15316000D02*
X37650000Y-14541402D01*
X34050000Y-16950000D02*
X36016000Y-16950000D01*
X34050000Y-16950000D02*
X37191409Y-20091409D01*
X37191409Y-20091409D02*
X37191409Y-20268633D01*
D25*
G36*
X38739018Y-26103760D02*
X38739018Y-26476418D01*
X38756640Y-26565008D01*
X38775002Y-26657322D01*
X38774838Y-26845167D01*
X38916883Y-27188943D01*
X39016266Y-27288499D01*
X38980490Y-27342041D01*
X38980490Y-27342042D01*
X38903152Y-27730848D01*
X38903152Y-27979997D01*
X38627921Y-28254748D01*
X38395417Y-28814680D01*
X38394888Y-29420964D01*
X38626414Y-29981301D01*
X39054748Y-30410383D01*
X39614680Y-30642887D01*
X40220964Y-30643416D01*
X40781301Y-30411890D01*
X40973000Y-30220525D01*
X40973000Y-37090000D01*
X36852207Y-37090000D01*
X37118155Y-36691980D01*
X37235000Y-36104561D01*
X37235000Y-33495439D01*
X37118155Y-32908020D01*
X36785409Y-32410030D01*
X36287419Y-32077284D01*
X35700000Y-31960439D01*
X35112581Y-32077284D01*
X34885198Y-32229216D01*
X34738449Y-31874057D01*
X34328103Y-31462994D01*
X33791686Y-31240254D01*
X33210862Y-31239747D01*
X32674057Y-31461551D01*
X32262994Y-31871897D01*
X32250244Y-31902603D01*
X32238449Y-31874057D01*
X31828103Y-31462994D01*
X31291686Y-31240254D01*
X30710862Y-31239747D01*
X30174057Y-31461551D01*
X30000057Y-31635248D01*
X29828103Y-31462994D01*
X29291686Y-31240254D01*
X28710862Y-31239747D01*
X28174057Y-31461551D01*
X27762994Y-31871897D01*
X27742592Y-31921031D01*
X27525853Y-31853752D01*
X26679605Y-32700000D01*
X26693748Y-32714143D01*
X26514143Y-32893748D01*
X26500000Y-32879605D01*
X26485858Y-32893748D01*
X26306253Y-32714143D01*
X26320395Y-32700000D01*
X25474147Y-31853752D01*
X25225437Y-31930956D01*
X25117159Y-32230791D01*
X24887419Y-32077284D01*
X24472207Y-31994693D01*
X24792731Y-31674169D01*
X24901812Y-31674264D01*
X24902095Y-31674147D01*
X25653752Y-31674147D01*
X26500000Y-32520395D01*
X27346248Y-31674147D01*
X27269044Y-31425437D01*
X26722750Y-31228157D01*
X26142544Y-31254952D01*
X25730956Y-31425437D01*
X25653752Y-31674147D01*
X24902095Y-31674147D01*
X25462149Y-31442738D01*
X25739370Y-31166000D01*
X33545526Y-31166000D01*
X33869826Y-31101493D01*
X33934333Y-31088662D01*
X34263946Y-30868420D01*
X37536541Y-27595826D01*
X37756782Y-27266213D01*
X37772220Y-27188600D01*
X37834120Y-26877406D01*
X37834120Y-25620171D01*
X37824071Y-25569650D01*
X37824264Y-25348188D01*
X37768724Y-25213770D01*
X37849028Y-25213770D01*
X38739018Y-26103760D01*
X38739018Y-26103760D01*
G37*
X38739018Y-26103760D02*
X38739018Y-26476418D01*
X38756640Y-26565008D01*
X38775002Y-26657322D01*
X38774838Y-26845167D01*
X38916883Y-27188943D01*
X39016266Y-27288499D01*
X38980490Y-27342041D01*
X38980490Y-27342042D01*
X38903152Y-27730848D01*
X38903152Y-27979997D01*
X38627921Y-28254748D01*
X38395417Y-28814680D01*
X38394888Y-29420964D01*
X38626414Y-29981301D01*
X39054748Y-30410383D01*
X39614680Y-30642887D01*
X40220964Y-30643416D01*
X40781301Y-30411890D01*
X40973000Y-30220525D01*
X40973000Y-37090000D01*
X36852207Y-37090000D01*
X37118155Y-36691980D01*
X37235000Y-36104561D01*
X37235000Y-33495439D01*
X37118155Y-32908020D01*
X36785409Y-32410030D01*
X36287419Y-32077284D01*
X35700000Y-31960439D01*
X35112581Y-32077284D01*
X34885198Y-32229216D01*
X34738449Y-31874057D01*
X34328103Y-31462994D01*
X33791686Y-31240254D01*
X33210862Y-31239747D01*
X32674057Y-31461551D01*
X32262994Y-31871897D01*
X32250244Y-31902603D01*
X32238449Y-31874057D01*
X31828103Y-31462994D01*
X31291686Y-31240254D01*
X30710862Y-31239747D01*
X30174057Y-31461551D01*
X30000057Y-31635248D01*
X29828103Y-31462994D01*
X29291686Y-31240254D01*
X28710862Y-31239747D01*
X28174057Y-31461551D01*
X27762994Y-31871897D01*
X27742592Y-31921031D01*
X27525853Y-31853752D01*
X26679605Y-32700000D01*
X26693748Y-32714143D01*
X26514143Y-32893748D01*
X26500000Y-32879605D01*
X26485858Y-32893748D01*
X26306253Y-32714143D01*
X26320395Y-32700000D01*
X25474147Y-31853752D01*
X25225437Y-31930956D01*
X25117159Y-32230791D01*
X24887419Y-32077284D01*
X24472207Y-31994693D01*
X24792731Y-31674169D01*
X24901812Y-31674264D01*
X24902095Y-31674147D01*
X25653752Y-31674147D01*
X26500000Y-32520395D01*
X27346248Y-31674147D01*
X27269044Y-31425437D01*
X26722750Y-31228157D01*
X26142544Y-31254952D01*
X25730956Y-31425437D01*
X25653752Y-31674147D01*
X24902095Y-31674147D01*
X25462149Y-31442738D01*
X25739370Y-31166000D01*
X33545526Y-31166000D01*
X33869826Y-31101493D01*
X33934333Y-31088662D01*
X34263946Y-30868420D01*
X37536541Y-27595826D01*
X37756782Y-27266213D01*
X37772220Y-27188600D01*
X37834120Y-26877406D01*
X37834120Y-25620171D01*
X37824071Y-25569650D01*
X37824264Y-25348188D01*
X37768724Y-25213770D01*
X37849028Y-25213770D01*
X38739018Y-26103760D01*
G36*
X30171897Y-33937006D02*
X30708314Y-34159746D01*
X31232567Y-34160204D01*
X31065206Y-34563255D01*
X31064794Y-35034677D01*
X31244820Y-35470372D01*
X31577875Y-35804009D01*
X32013255Y-35984794D01*
X32484677Y-35985206D01*
X32920372Y-35805180D01*
X33254009Y-35472125D01*
X33434794Y-35036745D01*
X33435206Y-34565323D01*
X33267646Y-34159798D01*
X33789138Y-34160253D01*
X34165000Y-34004950D01*
X34165000Y-36104561D01*
X34281845Y-36691980D01*
X34547793Y-37090000D01*
X25452207Y-37090000D01*
X25718155Y-36691980D01*
X25835000Y-36104561D01*
X25835000Y-34012136D01*
X26277250Y-34171843D01*
X26736541Y-34150632D01*
X26565206Y-34563255D01*
X26564794Y-35034677D01*
X26744820Y-35470372D01*
X27077875Y-35804009D01*
X27513255Y-35984794D01*
X27984677Y-35985206D01*
X28420372Y-35805180D01*
X28754009Y-35472125D01*
X28934794Y-35036745D01*
X28935206Y-34565323D01*
X28767646Y-34159798D01*
X29289138Y-34160253D01*
X29825943Y-33938449D01*
X29999943Y-33764752D01*
X30171897Y-33937006D01*
X30171897Y-33937006D01*
G37*
X30171897Y-33937006D02*
X30708314Y-34159746D01*
X31232567Y-34160204D01*
X31065206Y-34563255D01*
X31064794Y-35034677D01*
X31244820Y-35470372D01*
X31577875Y-35804009D01*
X32013255Y-35984794D01*
X32484677Y-35985206D01*
X32920372Y-35805180D01*
X33254009Y-35472125D01*
X33434794Y-35036745D01*
X33435206Y-34565323D01*
X33267646Y-34159798D01*
X33789138Y-34160253D01*
X34165000Y-34004950D01*
X34165000Y-36104561D01*
X34281845Y-36691980D01*
X34547793Y-37090000D01*
X25452207Y-37090000D01*
X25718155Y-36691980D01*
X25835000Y-36104561D01*
X25835000Y-34012136D01*
X26277250Y-34171843D01*
X26736541Y-34150632D01*
X26565206Y-34563255D01*
X26564794Y-35034677D01*
X26744820Y-35470372D01*
X27077875Y-35804009D01*
X27513255Y-35984794D01*
X27984677Y-35985206D01*
X28420372Y-35805180D01*
X28754009Y-35472125D01*
X28934794Y-35036745D01*
X28935206Y-34565323D01*
X28767646Y-34159798D01*
X29289138Y-34160253D01*
X29825943Y-33938449D01*
X29999943Y-33764752D01*
X30171897Y-33937006D01*
G36*
X40973000Y-24553915D02*
X39866000Y-23446916D01*
X39866000Y-23400000D01*
X39788662Y-23011194D01*
X39568420Y-22681580D01*
X39238806Y-22461338D01*
X38850000Y-22384000D01*
X38461194Y-22461338D01*
X38131580Y-22681580D01*
X37911338Y-23011194D01*
X37834000Y-23400000D01*
X37834000Y-23638970D01*
X36743379Y-23638970D01*
X36868420Y-23555420D01*
X37088662Y-23225806D01*
X37166000Y-22837000D01*
X37088662Y-22448194D01*
X36868420Y-22118580D01*
X36538806Y-21898338D01*
X36150000Y-21821000D01*
X35725736Y-21821000D01*
X35336929Y-21898338D01*
X35102280Y-22055126D01*
X35045783Y-21918391D01*
X34782993Y-21655142D01*
X34644032Y-21597440D01*
X34800000Y-21597440D01*
X35035317Y-21553162D01*
X35251441Y-21414090D01*
X35396431Y-21201890D01*
X35447440Y-20950000D01*
X35447440Y-19963886D01*
X36121962Y-20638408D01*
X36135415Y-20706040D01*
X36383186Y-21076856D01*
X36754002Y-21324627D01*
X37191409Y-21411633D01*
X37628816Y-21324627D01*
X37999632Y-21076856D01*
X38247403Y-20706040D01*
X38334409Y-20268633D01*
X38334409Y-20091409D01*
X38247403Y-19654002D01*
X37999632Y-19283186D01*
X36614681Y-17898235D01*
X36824223Y-17758223D01*
X38458223Y-16124223D01*
X38705994Y-15753407D01*
X38733984Y-15612692D01*
X38941231Y-15405806D01*
X39173735Y-14845874D01*
X39174264Y-14239590D01*
X38942738Y-13679253D01*
X38514404Y-13250171D01*
X37954472Y-13017667D01*
X37348188Y-13017138D01*
X36787851Y-13248664D01*
X36358769Y-13676998D01*
X36126265Y-14236930D01*
X36125736Y-14843214D01*
X36237018Y-15112536D01*
X35542554Y-15807000D01*
X35447440Y-15807000D01*
X35447440Y-12950000D01*
X35403162Y-12714683D01*
X35264090Y-12498559D01*
X35051890Y-12353569D01*
X34800000Y-12302560D01*
X33300000Y-12302560D01*
X33064683Y-12346838D01*
X32848559Y-12485910D01*
X32795716Y-12563248D01*
X32754090Y-12498559D01*
X32541890Y-12353569D01*
X32290000Y-12302560D01*
X30790000Y-12302560D01*
X30554683Y-12346838D01*
X30338559Y-12485910D01*
X30239367Y-12631083D01*
X30154090Y-12498559D01*
X29941890Y-12353569D01*
X29690000Y-12302560D01*
X28190000Y-12302560D01*
X27954683Y-12346838D01*
X27738559Y-12485910D01*
X27687972Y-12559946D01*
X27539698Y-12411673D01*
X27306309Y-12315000D01*
X26715750Y-12315000D01*
X26557000Y-12473750D01*
X26557000Y-16823000D01*
X26577000Y-16823000D01*
X26577000Y-17077000D01*
X26557000Y-17077000D01*
X26557000Y-21426250D01*
X26715750Y-21585000D01*
X27306309Y-21585000D01*
X27539698Y-21488327D01*
X27718327Y-21309699D01*
X27815000Y-21076310D01*
X27815000Y-20962314D01*
X27938110Y-21046431D01*
X28190000Y-21097440D01*
X29690000Y-21097440D01*
X29925317Y-21053162D01*
X30141441Y-20914090D01*
X30240633Y-20768917D01*
X30325910Y-20901441D01*
X30538110Y-21046431D01*
X30790000Y-21097440D01*
X32290000Y-21097440D01*
X32525317Y-21053162D01*
X32656132Y-20968985D01*
X32696838Y-21185317D01*
X32835910Y-21401441D01*
X33048110Y-21546431D01*
X33300000Y-21597440D01*
X33861134Y-21597440D01*
X33723723Y-21654217D01*
X33717996Y-21659934D01*
X33344428Y-21659934D01*
X33327231Y-21648443D01*
X33025906Y-21588506D01*
X32905813Y-21588506D01*
X32604488Y-21648443D01*
X32349037Y-21819130D01*
X32206417Y-21961750D01*
X32165527Y-22022946D01*
X31829733Y-22161693D01*
X31566484Y-22424483D01*
X31423838Y-22768011D01*
X31423834Y-22772211D01*
X31183882Y-22772211D01*
X30533920Y-22122250D01*
X30533918Y-22122247D01*
X30233918Y-21822248D01*
X29904305Y-21602006D01*
X29515498Y-21524669D01*
X29126691Y-21602006D01*
X28797078Y-21822248D01*
X28576836Y-22151861D01*
X28499499Y-22540668D01*
X28576836Y-22929475D01*
X28797078Y-23259088D01*
X29097077Y-23559088D01*
X29097080Y-23559090D01*
X30044621Y-24506632D01*
X30374234Y-24726873D01*
X30763041Y-24804211D01*
X32758709Y-24804211D01*
X32918408Y-24772445D01*
X33348603Y-24772445D01*
X33241055Y-24816883D01*
X32977806Y-25079673D01*
X32835160Y-25423201D01*
X32834836Y-25795167D01*
X32976881Y-26138943D01*
X33239671Y-26402192D01*
X33583199Y-26544838D01*
X33955165Y-26545162D01*
X34298941Y-26403117D01*
X34562190Y-26140327D01*
X34704836Y-25796799D01*
X34704843Y-25788707D01*
X34775940Y-25717610D01*
X34775736Y-25951812D01*
X35007262Y-26512149D01*
X35376577Y-26882109D01*
X33124686Y-29134000D01*
X25739155Y-29134000D01*
X25464404Y-28858769D01*
X24904472Y-28626265D01*
X24298188Y-28625736D01*
X23737851Y-28857262D01*
X23308769Y-29285596D01*
X23076265Y-29845528D01*
X23075736Y-30451812D01*
X23094937Y-30498283D01*
X22519085Y-31074135D01*
X22130188Y-31073796D01*
X22013310Y-31122089D01*
X22083345Y-30770000D01*
X21969271Y-30196511D01*
X21644415Y-29710330D01*
X21334931Y-29503539D01*
X21750732Y-29132036D01*
X22004709Y-28604791D01*
X22007358Y-28589026D01*
X21886217Y-28357000D01*
X20527000Y-28357000D01*
X20527000Y-28377000D01*
X20273000Y-28377000D01*
X20273000Y-28357000D01*
X20253000Y-28357000D01*
X20253000Y-28103000D01*
X20273000Y-28103000D01*
X20273000Y-28083000D01*
X20527000Y-28083000D01*
X20527000Y-28103000D01*
X21886217Y-28103000D01*
X22007358Y-27870974D01*
X22004709Y-27855209D01*
X21750732Y-27327964D01*
X21334931Y-26956461D01*
X21644415Y-26749670D01*
X21969271Y-26263489D01*
X22083345Y-25690000D01*
X21987992Y-25210630D01*
X22052948Y-25367835D01*
X22481282Y-25796917D01*
X23041214Y-26029421D01*
X23647498Y-26029950D01*
X24207835Y-25798424D01*
X24636917Y-25370090D01*
X24869421Y-24810158D01*
X24869950Y-24203874D01*
X24638424Y-23643537D01*
X24210090Y-23214455D01*
X23650158Y-22981951D01*
X23438212Y-22981766D01*
X22063440Y-21606994D01*
X22063440Y-20696400D01*
X22019162Y-20461083D01*
X21880090Y-20244959D01*
X21667890Y-20099969D01*
X21626561Y-20091600D01*
X21644415Y-20079670D01*
X21969271Y-19593489D01*
X22083345Y-19020000D01*
X21969271Y-18446511D01*
X21644415Y-17960330D01*
X21329634Y-17750000D01*
X21644415Y-17539670D01*
X21847488Y-17235750D01*
X25045000Y-17235750D01*
X25045000Y-21076310D01*
X25141673Y-21309699D01*
X25320302Y-21488327D01*
X25553691Y-21585000D01*
X26144250Y-21585000D01*
X26303000Y-21426250D01*
X26303000Y-17077000D01*
X25203750Y-17077000D01*
X25045000Y-17235750D01*
X21847488Y-17235750D01*
X21969271Y-17053489D01*
X22083345Y-16480000D01*
X21969271Y-15906511D01*
X21644415Y-15420330D01*
X21334931Y-15213539D01*
X21750732Y-14842036D01*
X22004709Y-14314791D01*
X22007358Y-14299026D01*
X21886217Y-14067000D01*
X20527000Y-14067000D01*
X20527000Y-14087000D01*
X20273000Y-14087000D01*
X20273000Y-14067000D01*
X20253000Y-14067000D01*
X20253000Y-13813000D01*
X20273000Y-13813000D01*
X20273000Y-13793000D01*
X20527000Y-13793000D01*
X20527000Y-13813000D01*
X21886217Y-13813000D01*
X22007358Y-13580974D01*
X22004709Y-13565209D01*
X21750732Y-13037964D01*
X21510908Y-12823690D01*
X25045000Y-12823690D01*
X25045000Y-16664250D01*
X25203750Y-16823000D01*
X26303000Y-16823000D01*
X26303000Y-12473750D01*
X26144250Y-12315000D01*
X25553691Y-12315000D01*
X25320302Y-12411673D01*
X25141673Y-12590301D01*
X25045000Y-12823690D01*
X21510908Y-12823690D01*
X21334931Y-12666461D01*
X21644415Y-12459670D01*
X21969271Y-11973489D01*
X22083345Y-11400000D01*
X21970711Y-10833750D01*
X24605000Y-10833750D01*
X24605000Y-10876310D01*
X24701673Y-11109699D01*
X24880302Y-11288327D01*
X25113691Y-11385000D01*
X29954250Y-11385000D01*
X30113000Y-11226250D01*
X30113000Y-10675000D01*
X30367000Y-10675000D01*
X30367000Y-11226250D01*
X30525750Y-11385000D01*
X35366309Y-11385000D01*
X35599698Y-11288327D01*
X35778327Y-11109699D01*
X35875000Y-10876310D01*
X35875000Y-10833750D01*
X35716250Y-10675000D01*
X30367000Y-10675000D01*
X30113000Y-10675000D01*
X24763750Y-10675000D01*
X24605000Y-10833750D01*
X21970711Y-10833750D01*
X21969271Y-10826511D01*
X21724376Y-10460000D01*
X24698750Y-10460000D01*
X24763750Y-10525000D01*
X30113000Y-10525000D01*
X30113000Y-10460000D01*
X30367000Y-10460000D01*
X30367000Y-10525000D01*
X35716250Y-10525000D01*
X35781250Y-10460000D01*
X38850000Y-10460000D01*
X39121705Y-10405954D01*
X39352046Y-10252046D01*
X39505954Y-10021705D01*
X39560000Y-9750000D01*
X39555425Y-9727000D01*
X40973000Y-9727000D01*
X40973000Y-24553915D01*
X40973000Y-24553915D01*
G37*
X40973000Y-24553915D02*
X39866000Y-23446916D01*
X39866000Y-23400000D01*
X39788662Y-23011194D01*
X39568420Y-22681580D01*
X39238806Y-22461338D01*
X38850000Y-22384000D01*
X38461194Y-22461338D01*
X38131580Y-22681580D01*
X37911338Y-23011194D01*
X37834000Y-23400000D01*
X37834000Y-23638970D01*
X36743379Y-23638970D01*
X36868420Y-23555420D01*
X37088662Y-23225806D01*
X37166000Y-22837000D01*
X37088662Y-22448194D01*
X36868420Y-22118580D01*
X36538806Y-21898338D01*
X36150000Y-21821000D01*
X35725736Y-21821000D01*
X35336929Y-21898338D01*
X35102280Y-22055126D01*
X35045783Y-21918391D01*
X34782993Y-21655142D01*
X34644032Y-21597440D01*
X34800000Y-21597440D01*
X35035317Y-21553162D01*
X35251441Y-21414090D01*
X35396431Y-21201890D01*
X35447440Y-20950000D01*
X35447440Y-19963886D01*
X36121962Y-20638408D01*
X36135415Y-20706040D01*
X36383186Y-21076856D01*
X36754002Y-21324627D01*
X37191409Y-21411633D01*
X37628816Y-21324627D01*
X37999632Y-21076856D01*
X38247403Y-20706040D01*
X38334409Y-20268633D01*
X38334409Y-20091409D01*
X38247403Y-19654002D01*
X37999632Y-19283186D01*
X36614681Y-17898235D01*
X36824223Y-17758223D01*
X38458223Y-16124223D01*
X38705994Y-15753407D01*
X38733984Y-15612692D01*
X38941231Y-15405806D01*
X39173735Y-14845874D01*
X39174264Y-14239590D01*
X38942738Y-13679253D01*
X38514404Y-13250171D01*
X37954472Y-13017667D01*
X37348188Y-13017138D01*
X36787851Y-13248664D01*
X36358769Y-13676998D01*
X36126265Y-14236930D01*
X36125736Y-14843214D01*
X36237018Y-15112536D01*
X35542554Y-15807000D01*
X35447440Y-15807000D01*
X35447440Y-12950000D01*
X35403162Y-12714683D01*
X35264090Y-12498559D01*
X35051890Y-12353569D01*
X34800000Y-12302560D01*
X33300000Y-12302560D01*
X33064683Y-12346838D01*
X32848559Y-12485910D01*
X32795716Y-12563248D01*
X32754090Y-12498559D01*
X32541890Y-12353569D01*
X32290000Y-12302560D01*
X30790000Y-12302560D01*
X30554683Y-12346838D01*
X30338559Y-12485910D01*
X30239367Y-12631083D01*
X30154090Y-12498559D01*
X29941890Y-12353569D01*
X29690000Y-12302560D01*
X28190000Y-12302560D01*
X27954683Y-12346838D01*
X27738559Y-12485910D01*
X27687972Y-12559946D01*
X27539698Y-12411673D01*
X27306309Y-12315000D01*
X26715750Y-12315000D01*
X26557000Y-12473750D01*
X26557000Y-16823000D01*
X26577000Y-16823000D01*
X26577000Y-17077000D01*
X26557000Y-17077000D01*
X26557000Y-21426250D01*
X26715750Y-21585000D01*
X27306309Y-21585000D01*
X27539698Y-21488327D01*
X27718327Y-21309699D01*
X27815000Y-21076310D01*
X27815000Y-20962314D01*
X27938110Y-21046431D01*
X28190000Y-21097440D01*
X29690000Y-21097440D01*
X29925317Y-21053162D01*
X30141441Y-20914090D01*
X30240633Y-20768917D01*
X30325910Y-20901441D01*
X30538110Y-21046431D01*
X30790000Y-21097440D01*
X32290000Y-21097440D01*
X32525317Y-21053162D01*
X32656132Y-20968985D01*
X32696838Y-21185317D01*
X32835910Y-21401441D01*
X33048110Y-21546431D01*
X33300000Y-21597440D01*
X33861134Y-21597440D01*
X33723723Y-21654217D01*
X33717996Y-21659934D01*
X33344428Y-21659934D01*
X33327231Y-21648443D01*
X33025906Y-21588506D01*
X32905813Y-21588506D01*
X32604488Y-21648443D01*
X32349037Y-21819130D01*
X32206417Y-21961750D01*
X32165527Y-22022946D01*
X31829733Y-22161693D01*
X31566484Y-22424483D01*
X31423838Y-22768011D01*
X31423834Y-22772211D01*
X31183882Y-22772211D01*
X30533920Y-22122250D01*
X30533918Y-22122247D01*
X30233918Y-21822248D01*
X29904305Y-21602006D01*
X29515498Y-21524669D01*
X29126691Y-21602006D01*
X28797078Y-21822248D01*
X28576836Y-22151861D01*
X28499499Y-22540668D01*
X28576836Y-22929475D01*
X28797078Y-23259088D01*
X29097077Y-23559088D01*
X29097080Y-23559090D01*
X30044621Y-24506632D01*
X30374234Y-24726873D01*
X30763041Y-24804211D01*
X32758709Y-24804211D01*
X32918408Y-24772445D01*
X33348603Y-24772445D01*
X33241055Y-24816883D01*
X32977806Y-25079673D01*
X32835160Y-25423201D01*
X32834836Y-25795167D01*
X32976881Y-26138943D01*
X33239671Y-26402192D01*
X33583199Y-26544838D01*
X33955165Y-26545162D01*
X34298941Y-26403117D01*
X34562190Y-26140327D01*
X34704836Y-25796799D01*
X34704843Y-25788707D01*
X34775940Y-25717610D01*
X34775736Y-25951812D01*
X35007262Y-26512149D01*
X35376577Y-26882109D01*
X33124686Y-29134000D01*
X25739155Y-29134000D01*
X25464404Y-28858769D01*
X24904472Y-28626265D01*
X24298188Y-28625736D01*
X23737851Y-28857262D01*
X23308769Y-29285596D01*
X23076265Y-29845528D01*
X23075736Y-30451812D01*
X23094937Y-30498283D01*
X22519085Y-31074135D01*
X22130188Y-31073796D01*
X22013310Y-31122089D01*
X22083345Y-30770000D01*
X21969271Y-30196511D01*
X21644415Y-29710330D01*
X21334931Y-29503539D01*
X21750732Y-29132036D01*
X22004709Y-28604791D01*
X22007358Y-28589026D01*
X21886217Y-28357000D01*
X20527000Y-28357000D01*
X20527000Y-28377000D01*
X20273000Y-28377000D01*
X20273000Y-28357000D01*
X20253000Y-28357000D01*
X20253000Y-28103000D01*
X20273000Y-28103000D01*
X20273000Y-28083000D01*
X20527000Y-28083000D01*
X20527000Y-28103000D01*
X21886217Y-28103000D01*
X22007358Y-27870974D01*
X22004709Y-27855209D01*
X21750732Y-27327964D01*
X21334931Y-26956461D01*
X21644415Y-26749670D01*
X21969271Y-26263489D01*
X22083345Y-25690000D01*
X21987992Y-25210630D01*
X22052948Y-25367835D01*
X22481282Y-25796917D01*
X23041214Y-26029421D01*
X23647498Y-26029950D01*
X24207835Y-25798424D01*
X24636917Y-25370090D01*
X24869421Y-24810158D01*
X24869950Y-24203874D01*
X24638424Y-23643537D01*
X24210090Y-23214455D01*
X23650158Y-22981951D01*
X23438212Y-22981766D01*
X22063440Y-21606994D01*
X22063440Y-20696400D01*
X22019162Y-20461083D01*
X21880090Y-20244959D01*
X21667890Y-20099969D01*
X21626561Y-20091600D01*
X21644415Y-20079670D01*
X21969271Y-19593489D01*
X22083345Y-19020000D01*
X21969271Y-18446511D01*
X21644415Y-17960330D01*
X21329634Y-17750000D01*
X21644415Y-17539670D01*
X21847488Y-17235750D01*
X25045000Y-17235750D01*
X25045000Y-21076310D01*
X25141673Y-21309699D01*
X25320302Y-21488327D01*
X25553691Y-21585000D01*
X26144250Y-21585000D01*
X26303000Y-21426250D01*
X26303000Y-17077000D01*
X25203750Y-17077000D01*
X25045000Y-17235750D01*
X21847488Y-17235750D01*
X21969271Y-17053489D01*
X22083345Y-16480000D01*
X21969271Y-15906511D01*
X21644415Y-15420330D01*
X21334931Y-15213539D01*
X21750732Y-14842036D01*
X22004709Y-14314791D01*
X22007358Y-14299026D01*
X21886217Y-14067000D01*
X20527000Y-14067000D01*
X20527000Y-14087000D01*
X20273000Y-14087000D01*
X20273000Y-14067000D01*
X20253000Y-14067000D01*
X20253000Y-13813000D01*
X20273000Y-13813000D01*
X20273000Y-13793000D01*
X20527000Y-13793000D01*
X20527000Y-13813000D01*
X21886217Y-13813000D01*
X22007358Y-13580974D01*
X22004709Y-13565209D01*
X21750732Y-13037964D01*
X21510908Y-12823690D01*
X25045000Y-12823690D01*
X25045000Y-16664250D01*
X25203750Y-16823000D01*
X26303000Y-16823000D01*
X26303000Y-12473750D01*
X26144250Y-12315000D01*
X25553691Y-12315000D01*
X25320302Y-12411673D01*
X25141673Y-12590301D01*
X25045000Y-12823690D01*
X21510908Y-12823690D01*
X21334931Y-12666461D01*
X21644415Y-12459670D01*
X21969271Y-11973489D01*
X22083345Y-11400000D01*
X21970711Y-10833750D01*
X24605000Y-10833750D01*
X24605000Y-10876310D01*
X24701673Y-11109699D01*
X24880302Y-11288327D01*
X25113691Y-11385000D01*
X29954250Y-11385000D01*
X30113000Y-11226250D01*
X30113000Y-10675000D01*
X30367000Y-10675000D01*
X30367000Y-11226250D01*
X30525750Y-11385000D01*
X35366309Y-11385000D01*
X35599698Y-11288327D01*
X35778327Y-11109699D01*
X35875000Y-10876310D01*
X35875000Y-10833750D01*
X35716250Y-10675000D01*
X30367000Y-10675000D01*
X30113000Y-10675000D01*
X24763750Y-10675000D01*
X24605000Y-10833750D01*
X21970711Y-10833750D01*
X21969271Y-10826511D01*
X21724376Y-10460000D01*
X24698750Y-10460000D01*
X24763750Y-10525000D01*
X30113000Y-10525000D01*
X30113000Y-10460000D01*
X30367000Y-10460000D01*
X30367000Y-10525000D01*
X35716250Y-10525000D01*
X35781250Y-10460000D01*
X38850000Y-10460000D01*
X39121705Y-10405954D01*
X39352046Y-10252046D01*
X39505954Y-10021705D01*
X39560000Y-9750000D01*
X39555425Y-9727000D01*
X40973000Y-9727000D01*
X40973000Y-24553915D01*
M02*
