%MOIN*%
%OFA0B0*%
%FSLAX46Y46*%
%IPPOS*%
%LPD*%
%AMREC50*
4,1,3,
0.04787401574803149,0.041874015748031512,
-0.047874015748031504,0.041874015748031491,
-0.04787401574803149,-0.041874015748031512,
0.047874015748031504,-0.041874015748031491,
0*%
%AMREC60*
4,1,3,
0.037401574803149575,0.24409448818897639,
-0.037401574803149637,0.24409448818897639,
-0.037401574803149575,-0.24409448818897639,
0.037401574803149637,-0.24409448818897639,
0*%
%AMREC70*
4,1,3,
0.037401574803149575,0.23425196850393704,
-0.037401574803149637,0.23425196850393704,
-0.037401574803149575,-0.23425196850393704,
0.037401574803149637,-0.23425196850393704,
0*%
%ADD10R,0.095748031496063X0.083748031496063011*%
%ADD11O,0.095748031496063X0.083748031496063011*%
%ADD12C,0.08070866141732283*%
%ADD13C,0.059055118110236227*%
%ADD14O,0.086614173228346469X0.18503937007874016*%
%ADD15R,0.074803149606299218X0.48818897637795278*%
%ADD16R,0.074803149606299218X0.46850393700787407*%
%ADD17C,0.074803149606299218*%
%ADD28R,0.095748031496063X0.083748031496063011*%
%ADD29O,0.095748031496063X0.083748031496063011*%
%ADD30C,0.08070866141732283*%
%ADD31C,0.059055118110236227*%
%ADD32O,0.086614173228346469X0.18503937007874016*%
%ADD33R,0.074803149606299218X0.48818897637795278*%
%ADD34R,0.074803149606299218X0.46850393700787407*%
%ADD35C,0.074803149606299218*%
%ADD36R,0.095748031496063X0.083748031496063011*%
%ADD37O,0.095748031496063X0.083748031496063011*%
%ADD38C,0.08070866141732283*%
%ADD39C,0.059055118110236227*%
%ADD40O,0.086614173228346469X0.18503937007874016*%
%ADD41R,0.074803149606299218X0.48818897637795278*%
%ADD42R,0.074803149606299218X0.46850393700787407*%
%ADD43C,0.074803149606299218*%
%AMCOMP56*
4,1,3,
0.04787401574803149,0.041874015748031512,
-0.047874015748031504,0.041874015748031491,
-0.04787401574803149,-0.041874015748031512,
0.047874015748031504,-0.041874015748031491,
0*%
%ADD44COMP56*%
%ADD45O,0.095748031496063X0.083748031496063011*%
%ADD46C,0.08070866141732283*%
%ADD47C,0.059055118110236227*%
%ADD48O,0.086614173228346469X0.18503937007874016*%
%AMCOMP57*
4,1,3,
0.037401574803149575,0.24409448818897639,
-0.037401574803149637,0.24409448818897639,
-0.037401574803149575,-0.24409448818897639,
0.037401574803149637,-0.24409448818897639,
0*%
%ADD49COMP57*%
%AMCOMP58*
4,1,3,
0.037401574803149575,0.23425196850393704,
-0.037401574803149637,0.23425196850393704,
-0.037401574803149575,-0.23425196850393704,
0.037401574803149637,-0.23425196850393704,
0*%
%ADD50COMP58*%
%ADD51C,0.074803149606299218*%
%ADD52R,0.095748031496063X0.083748031496063011*%
%ADD53O,0.095748031496063X0.083748031496063011*%
%ADD54C,0.08070866141732283*%
%ADD55C,0.059055118110236227*%
%ADD56O,0.086614173228346469X0.18503937007874016*%
%ADD57R,0.074803149606299218X0.48818897637795278*%
%ADD58R,0.074803149606299218X0.46850393700787407*%
%ADD59C,0.074803149606299218*%
%ADD60R,0.095748031496063X0.083748031496063011*%
%ADD61O,0.095748031496063X0.083748031496063011*%
%ADD62C,0.08070866141732283*%
%ADD63C,0.059055118110236227*%
%ADD64O,0.086614173228346469X0.18503937007874016*%
%ADD65R,0.074803149606299218X0.48818897637795278*%
%ADD66R,0.074803149606299218X0.46850393700787407*%
%ADD67C,0.074803149606299218*%
%ADD68R,0.095748031496063X0.083748031496063011*%
%ADD69O,0.095748031496063X0.083748031496063011*%
%ADD70C,0.08070866141732283*%
%ADD71C,0.059055118110236227*%
%ADD72O,0.086614173228346469X0.18503937007874016*%
%ADD73R,0.074803149606299218X0.48818897637795278*%
%ADD74R,0.074803149606299218X0.46850393700787407*%
%ADD75C,0.074803149606299218*%
%ADD76R,0.095748031496063X0.083748031496063011*%
%ADD77O,0.095748031496063X0.083748031496063011*%
%ADD78C,0.08070866141732283*%
%ADD79C,0.059055118110236227*%
%ADD80O,0.086614173228346469X0.18503937007874016*%
%ADD81R,0.074803149606299218X0.48818897637795278*%
%ADD82R,0.074803149606299218X0.46850393700787407*%
%ADD83C,0.074803149606299218*%
%ADD84R,0.095748031496063X0.083748031496063011*%
%ADD85O,0.095748031496063X0.083748031496063011*%
%ADD86C,0.08070866141732283*%
%ADD87C,0.059055118110236227*%
%ADD88O,0.086614173228346469X0.18503937007874016*%
%ADD89R,0.074803149606299218X0.48818897637795278*%
%ADD90R,0.074803149606299218X0.46850393700787407*%
%ADD91C,0.074803149606299218*%
%ADD92R,0.095748031496063X0.083748031496063011*%
%ADD93O,0.095748031496063X0.083748031496063011*%
%ADD94C,0.08070866141732283*%
%ADD95C,0.059055118110236227*%
%ADD96O,0.086614173228346469X0.18503937007874016*%
%ADD97R,0.074803149606299218X0.48818897637795278*%
%ADD98R,0.074803149606299218X0.46850393700787407*%
%ADD99C,0.074803149606299218*%
G01G01*
D10*
X0000787401Y0000374015D02*
X0001205220Y0001681000D03*
D11*
X0001205220Y0001580999D03*
X0001205220Y0001481000D03*
D10*
X0000409551Y0000906196D03*
D11*
X0000409551Y0001006196D03*
X0000409551Y0001106196D03*
X0000409551Y0001206196D03*
X0000409551Y0001306196D03*
D10*
X0000409551Y0000343598D03*
D11*
X0000409551Y0000443598D03*
X0000409551Y0000543598D03*
X0000409551Y0000643598D03*
X0000409551Y0000743598D03*
D12*
X0000826874Y0000467614D03*
X0000925299Y0000467614D03*
X0000748133Y0000467614D03*
X0000649708Y0000467614D03*
D13*
X0000876086Y0000384937D03*
X0000698921Y0000384937D03*
D14*
X0000563094Y0000384937D03*
X0001011913Y0000384937D03*
D15*
X0000646952Y0001166433D03*
X0000946952Y0001166433D03*
D16*
X0000848133Y0001176275D03*
X0000745771Y0001176275D03*
D17*
X0000944590Y0001367220D03*
X0000846165Y0001367220D03*
X0000747740Y0001367220D03*
X0000649314Y0001367220D03*
G04 next file*
G04 Gerber Fmt 4.6, Leading zero omitted, Abs format (unit mm)*
G04 Created by KiCad (PCBNEW (5.0.0-rc2-dev-707-g2ed24a4)) date Friday, 18 May 2018 at 19:07:10*
G01G01*
G04 APERTURE LIST*
G04 APERTURE END LIST*
D28*
X0001850393Y0002893700D02*
X0001432574Y0001586716D03*
D29*
X0001432574Y0001686716D03*
X0001432574Y0001786716D03*
D28*
X0002228244Y0002361519D03*
D29*
X0002228244Y0002261519D03*
X0002228244Y0002161519D03*
X0002228244Y0002061519D03*
X0002228244Y0001961519D03*
D28*
X0002228244Y0002924118D03*
D29*
X0002228244Y0002824118D03*
X0002228244Y0002724118D03*
X0002228244Y0002624118D03*
X0002228244Y0002524118D03*
D30*
X0001810921Y0002800102D03*
X0001712496Y0002800102D03*
X0001889661Y0002800102D03*
X0001988086Y0002800102D03*
D31*
X0001761708Y0002882779D03*
X0001938874Y0002882779D03*
D32*
X0002074700Y0002882779D03*
X0001625881Y0002882779D03*
D33*
X0001990842Y0002101283D03*
X0001690842Y0002101283D03*
D34*
X0001789661Y0002091440D03*
X0001892023Y0002091440D03*
D35*
X0001693204Y0001900496D03*
X0001791629Y0001900496D03*
X0001890055Y0001900496D03*
X0001988480Y0001900496D03*
G04 next file*
G04 Gerber Fmt 4.6, Leading zero omitted, Abs format (unit mm)*
G04 Created by KiCad (PCBNEW (5.0.0-rc2-dev-707-g2ed24a4)) date Friday, 18 May 2018 at 19:07:10*
G01G01*
G04 APERTURE LIST*
G04 APERTURE END LIST*
D36*
X0001850393Y0000374015D02*
X0002268212Y0001681000D03*
D37*
X0002268212Y0001580999D03*
X0002268212Y0001481000D03*
D36*
X0001472543Y0000906196D03*
D37*
X0001472543Y0001006196D03*
X0001472543Y0001106196D03*
X0001472543Y0001206196D03*
X0001472543Y0001306196D03*
D36*
X0001472543Y0000343598D03*
D37*
X0001472543Y0000443598D03*
X0001472543Y0000543598D03*
X0001472543Y0000643598D03*
X0001472543Y0000743598D03*
D38*
X0001889866Y0000467614D03*
X0001988291Y0000467614D03*
X0001811125Y0000467614D03*
X0001712700Y0000467614D03*
D39*
X0001939078Y0000384937D03*
X0001761913Y0000384937D03*
D40*
X0001626086Y0000384937D03*
X0002074905Y0000384937D03*
D41*
X0001709944Y0001166433D03*
X0002009944Y0001166433D03*
D42*
X0001911125Y0001176275D03*
X0001808763Y0001176275D03*
D43*
X0002007582Y0001367220D03*
X0001909157Y0001367220D03*
X0001810732Y0001367220D03*
X0001712307Y0001367220D03*
G04 next file*
G04 Gerber Fmt 4.6, Leading zero omitted, Abs format (unit mm)*
G04 Created by KiCad (PCBNEW (5.0.0-rc2-dev-707-g2ed24a4)) date Friday, 18 May 2018 at 19:07:10*
G01G01*
G04 APERTURE LIST*
G04 APERTURE END LIST*
D44*
X0000787401Y0002893700D02*
X0000369582Y0001586716D03*
D45*
X0000369582Y0001686716D03*
X0000369582Y0001786716D03*
D44*
X0001165251Y0002361519D03*
D45*
X0001165251Y0002261519D03*
X0001165251Y0002161519D03*
X0001165251Y0002061519D03*
X0001165251Y0001961519D03*
D44*
X0001165251Y0002924118D03*
D45*
X0001165251Y0002824118D03*
X0001165251Y0002724118D03*
X0001165251Y0002624118D03*
X0001165251Y0002524118D03*
D46*
X0000747929Y0002800102D03*
X0000649503Y0002800102D03*
X0000826669Y0002800102D03*
X0000925094Y0002800102D03*
D47*
X0000698716Y0002882779D03*
X0000875881Y0002882779D03*
D48*
X0001011708Y0002882779D03*
X0000562889Y0002882779D03*
D49*
X0000927850Y0002101283D03*
X0000627850Y0002101283D03*
D50*
X0000726669Y0002091440D03*
X0000829031Y0002091440D03*
D51*
X0000630212Y0001900496D03*
X0000728637Y0001900496D03*
X0000827062Y0001900496D03*
X0000925488Y0001900496D03*
G04 next file*
G04 Gerber Fmt 4.6, Leading zero omitted, Abs format (unit mm)*
G04 Created by KiCad (PCBNEW (5.0.0-rc2-dev-707-g2ed24a4)) date Friday, 18 May 2018 at 19:07:10*
G01G01*
G04 APERTURE LIST*
G04 APERTURE END LIST*
D52*
X0002913385Y0002893700D02*
X0002495566Y0001586716D03*
D53*
X0002495566Y0001686716D03*
X0002495566Y0001786716D03*
D52*
X0003291236Y0002361519D03*
D53*
X0003291236Y0002261519D03*
X0003291236Y0002161519D03*
X0003291236Y0002061519D03*
X0003291236Y0001961519D03*
D52*
X0003291236Y0002924118D03*
D53*
X0003291236Y0002824118D03*
X0003291236Y0002724118D03*
X0003291236Y0002624118D03*
X0003291236Y0002524118D03*
D54*
X0002873913Y0002800102D03*
X0002775488Y0002800102D03*
X0002952653Y0002800102D03*
X0003051078Y0002800102D03*
D55*
X0002824700Y0002882779D03*
X0003001866Y0002882779D03*
D56*
X0003137692Y0002882779D03*
X0002688874Y0002882779D03*
D57*
X0003053834Y0002101283D03*
X0002753834Y0002101283D03*
D58*
X0002852653Y0002091440D03*
X0002955015Y0002091440D03*
D59*
X0002756196Y0001900496D03*
X0002854622Y0001900496D03*
X0002953047Y0001900496D03*
X0003051472Y0001900496D03*
G04 next file*
G04 Gerber Fmt 4.6, Leading zero omitted, Abs format (unit mm)*
G04 Created by KiCad (PCBNEW (5.0.0-rc2-dev-707-g2ed24a4)) date Friday, 18 May 2018 at 19:07:10*
G01G01*
G04 APERTURE LIST*
G04 APERTURE END LIST*
D60*
X0002913385Y0000374015D02*
X0003331204Y0001681000D03*
D61*
X0003331204Y0001580999D03*
X0003331204Y0001481000D03*
D60*
X0002535535Y0000906196D03*
D61*
X0002535535Y0001006196D03*
X0002535535Y0001106196D03*
X0002535535Y0001206196D03*
X0002535535Y0001306196D03*
D60*
X0002535535Y0000343598D03*
D61*
X0002535535Y0000443598D03*
X0002535535Y0000543598D03*
X0002535535Y0000643598D03*
X0002535535Y0000743598D03*
D62*
X0002952858Y0000467614D03*
X0003051283Y0000467614D03*
X0002874118Y0000467614D03*
X0002775692Y0000467614D03*
D63*
X0003002070Y0000384937D03*
X0002824905Y0000384937D03*
D64*
X0002689078Y0000384937D03*
X0003137897Y0000384937D03*
D65*
X0002772937Y0001166433D03*
X0003072937Y0001166433D03*
D66*
X0002974118Y0001176275D03*
X0002871755Y0001176275D03*
D67*
X0003070574Y0001367220D03*
X0002972149Y0001367220D03*
X0002873724Y0001367220D03*
X0002775299Y0001367220D03*
G04 next file*
G04 Gerber Fmt 4.6, Leading zero omitted, Abs format (unit mm)*
G04 Created by KiCad (PCBNEW (5.0.0-rc2-dev-707-g2ed24a4)) date Friday, 18 May 2018 at 19:07:10*
G01G01*
G04 APERTURE LIST*
G04 APERTURE END LIST*
D68*
X0003976377Y0000374015D02*
X0004394196Y0001681000D03*
D69*
X0004394196Y0001580999D03*
X0004394196Y0001481000D03*
D68*
X0003598527Y0000906196D03*
D69*
X0003598527Y0001006196D03*
X0003598527Y0001106196D03*
X0003598527Y0001206196D03*
X0003598527Y0001306196D03*
D68*
X0003598527Y0000343598D03*
D69*
X0003598527Y0000443598D03*
X0003598527Y0000543598D03*
X0003598527Y0000643598D03*
X0003598527Y0000743598D03*
D70*
X0004015850Y0000467614D03*
X0004114275Y0000467614D03*
X0003937110Y0000467614D03*
X0003838685Y0000467614D03*
D71*
X0004065062Y0000384937D03*
X0003887897Y0000384937D03*
D72*
X0003752070Y0000384937D03*
X0004200889Y0000384937D03*
D73*
X0003835929Y0001166433D03*
X0004135929Y0001166433D03*
D74*
X0004037110Y0001176275D03*
X0003934748Y0001176275D03*
D75*
X0004133566Y0001367220D03*
X0004035141Y0001367220D03*
X0003936716Y0001367220D03*
X0003838291Y0001367220D03*
G04 next file*
G04 Gerber Fmt 4.6, Leading zero omitted, Abs format (unit mm)*
G04 Created by KiCad (PCBNEW (5.0.0-rc2-dev-707-g2ed24a4)) date Friday, 18 May 2018 at 19:07:10*
G01G01*
G04 APERTURE LIST*
G04 APERTURE END LIST*
D76*
X0003976377Y0002893700D02*
X0003558559Y0001586716D03*
D77*
X0003558559Y0001686716D03*
X0003558559Y0001786716D03*
D76*
X0004354228Y0002361519D03*
D77*
X0004354228Y0002261519D03*
X0004354228Y0002161519D03*
X0004354228Y0002061519D03*
X0004354228Y0001961519D03*
D76*
X0004354228Y0002924118D03*
D77*
X0004354228Y0002824118D03*
X0004354228Y0002724118D03*
X0004354228Y0002624118D03*
X0004354228Y0002524118D03*
D78*
X0003936905Y0002800102D03*
X0003838480Y0002800102D03*
X0004015645Y0002800102D03*
X0004114070Y0002800102D03*
D79*
X0003887692Y0002882779D03*
X0004064858Y0002882779D03*
D80*
X0004200685Y0002882779D03*
X0003751866Y0002882779D03*
D81*
X0004116826Y0002101283D03*
X0003816826Y0002101283D03*
D82*
X0003915645Y0002091440D03*
X0004018007Y0002091440D03*
D83*
X0003819188Y0001900496D03*
X0003917614Y0001900496D03*
X0004016039Y0001900496D03*
X0004114464Y0001900496D03*
G04 next file*
G04 Gerber Fmt 4.6, Leading zero omitted, Abs format (unit mm)*
G04 Created by KiCad (PCBNEW (5.0.0-rc2-dev-707-g2ed24a4)) date Friday, 18 May 2018 at 19:07:10*
G01G01*
G04 APERTURE LIST*
G04 APERTURE END LIST*
D84*
X0005039370Y0000374015D02*
X0005457188Y0001681000D03*
D85*
X0005457188Y0001580999D03*
X0005457188Y0001481000D03*
D84*
X0004661519Y0000906196D03*
D85*
X0004661519Y0001006196D03*
X0004661519Y0001106196D03*
X0004661519Y0001206196D03*
X0004661519Y0001306196D03*
D84*
X0004661519Y0000343598D03*
D85*
X0004661519Y0000443598D03*
X0004661519Y0000543598D03*
X0004661519Y0000643598D03*
X0004661519Y0000743598D03*
D86*
X0005078842Y0000467614D03*
X0005177267Y0000467614D03*
X0005000102Y0000467614D03*
X0004901677Y0000467614D03*
D87*
X0005128055Y0000384937D03*
X0004950889Y0000384937D03*
D88*
X0004815062Y0000384937D03*
X0005263881Y0000384937D03*
D89*
X0004898921Y0001166433D03*
X0005198921Y0001166433D03*
D90*
X0005100102Y0001176275D03*
X0004997740Y0001176275D03*
D91*
X0005196559Y0001367220D03*
X0005098133Y0001367220D03*
X0004999708Y0001367220D03*
X0004901283Y0001367220D03*
G04 next file*
G04 Gerber Fmt 4.6, Leading zero omitted, Abs format (unit mm)*
G04 Created by KiCad (PCBNEW (5.0.0-rc2-dev-707-g2ed24a4)) date Friday, 18 May 2018 at 19:07:10*
G01G01*
G04 APERTURE LIST*
G04 APERTURE END LIST*
D92*
X0005039370Y0002893700D02*
X0004621551Y0001586716D03*
D93*
X0004621551Y0001686716D03*
X0004621551Y0001786716D03*
D92*
X0005417220Y0002361519D03*
D93*
X0005417220Y0002261519D03*
X0005417220Y0002161519D03*
X0005417220Y0002061519D03*
X0005417220Y0001961519D03*
D92*
X0005417220Y0002924118D03*
D93*
X0005417220Y0002824118D03*
X0005417220Y0002724118D03*
X0005417220Y0002624118D03*
X0005417220Y0002524118D03*
D94*
X0004999897Y0002800102D03*
X0004901472Y0002800102D03*
X0005078637Y0002800102D03*
X0005177062Y0002800102D03*
D95*
X0004950685Y0002882779D03*
X0005127850Y0002882779D03*
D96*
X0005263677Y0002882779D03*
X0004814858Y0002882779D03*
D97*
X0005179818Y0002101283D03*
X0004879818Y0002101283D03*
D98*
X0004978637Y0002091440D03*
X0005081000Y0002091440D03*
D99*
X0004882181Y0001900496D03*
X0004980606Y0001900496D03*
X0005079031Y0001900496D03*
X0005177456Y0001900496D03*
M02*