%
M48
METRIC,000.000
T01C0.40
T02C0.80
T03C0.81
T04C0.92
T05C1.00
T06C1.02
T07C1.10
%
T01
X012651Y014727
X016403Y022827
X018051Y022809
X018803Y022809
X019265Y030947
X019517Y022037
X020055Y018837
X021252Y018278
X021711Y030013
X022252Y022977
X022362Y021623
X023243Y033538
X023771Y018966
X024254Y021966
X024912Y033967
X025750Y027117
X026004Y028067
X026151Y021740
X026604Y032867
X026832Y028296
X027594Y032867
X027619Y028296
X028356Y032867
X028851Y021176
X028890Y025756
X029626Y029964
X029712Y017917
X030160Y023724
X030413Y029820
X030413Y029820
X030652Y010678
X031176Y029820
X054348Y068272
X050596Y060172
X048948Y060190
X048196Y060190
X047734Y052052
X047482Y060962
X046944Y064162
X045747Y064721
X045288Y052986
X044747Y060022
X044637Y061376
X043756Y049461
X043228Y064033
X042745Y061033
X042087Y049032
X041249Y055882
X040995Y054932
X040848Y061259
X040396Y050132
X040167Y054704
X039405Y050132
X039379Y054704
X038643Y050132
X038148Y061823
X038110Y057244
X037373Y053035
X037287Y065081
X036839Y059276
X036586Y053180
X036586Y053180
X036347Y072321
X035824Y053180
X039651Y014727
X043403Y022827
X045051Y022809
X045803Y022809
X046265Y030947
X046517Y022037
X047055Y018837
X048252Y018278
X048711Y030013
X049252Y022977
X049362Y021623
X050243Y033538
X050771Y018966
X051254Y021966
X051912Y033967
X052750Y027117
X053004Y028067
X053151Y021740
X053604Y032867
X053832Y028296
X054594Y032867
X054620Y028296
X055356Y032867
X055851Y021176
X055890Y025756
X056626Y029964
X056712Y017917
X057160Y023724
X057414Y029820
X057414Y029820
X057652Y010678
X058176Y029820
X027348Y068272
X023596Y060172
X021948Y060190
X021196Y060190
X020734Y052052
X020482Y060962
X019944Y064162
X018747Y064721
X018288Y052986
X017747Y060022
X017637Y061376
X016756Y049461
X016228Y064033
X015745Y061033
X015087Y049032
X014249Y055882
X013995Y054932
X013848Y061259
X013396Y050132
X013167Y054704
X012405Y050132
X012380Y054704
X011643Y050132
X011148Y061823
X011110Y057244
X010373Y053035
X010287Y065081
X009840Y059275
X009586Y053180
X009586Y053180
X009347Y072321
X008824Y053180
X081348Y068272
X077596Y060172
X075948Y060190
X075196Y060190
X074734Y052052
X074482Y060962
X073944Y064162
X072747Y064721
X072288Y052986
X071747Y060022
X071637Y061376
X070756Y049461
X070228Y064033
X069745Y061033
X069087Y049032
X068249Y055882
X067995Y054932
X067848Y061259
X067396Y050132
X067167Y054704
X066405Y050132
X066380Y054704
X065643Y050132
X065147Y061823
X065110Y057244
X064373Y053035
X064287Y065081
X063839Y059276
X063586Y053180
X063586Y053180
X063347Y072321
X062824Y053180
X066651Y014727
X070403Y022827
X072051Y022809
X072803Y022809
X073265Y030947
X073517Y022037
X074055Y018837
X075252Y018278
X075711Y030013
X076252Y022977
X076362Y021623
X077243Y033538
X077771Y018966
X078254Y021966
X078912Y033967
X079750Y027117
X080004Y028067
X080151Y021740
X080604Y032867
X080832Y028296
X081594Y032867
X081620Y028296
X082356Y032867
X082851Y021176
X082890Y025756
X083626Y029964
X083712Y017917
X084160Y023724
X084414Y029820
X084414Y029820
X084652Y010678
X085176Y029820
X093651Y014727
X097403Y022827
X099051Y022809
X099803Y022809
X100265Y030947
X100517Y022037
X101055Y018837
X102252Y018278
X102711Y030013
X103252Y022977
X103362Y021623
X104243Y033538
X104771Y018966
X105254Y021966
X105912Y033967
X106750Y027117
X107004Y028067
X107151Y021740
X107604Y032867
X107832Y028296
X108594Y032867
X108620Y028296
X109356Y032867
X109851Y021176
X109890Y025756
X110626Y029964
X110712Y017917
X111160Y023724
X111414Y029820
X111414Y029820
X111652Y010678
X112176Y029820
X108348Y068272
X104596Y060172
X102948Y060190
X102196Y060190
X101734Y052052
X101482Y060962
X100944Y064162
X099747Y064721
X099288Y052986
X098747Y060022
X098637Y061376
X097756Y049461
X097228Y064033
X096745Y061033
X096087Y049032
X095249Y055882
X094995Y054932
X094848Y061259
X094396Y050132
X094167Y054704
X093405Y050132
X093380Y054704
X092643Y050132
X092148Y061823
X092110Y057244
X091373Y053035
X091287Y065081
X090840Y059276
X090586Y053180
X090586Y053180
X090347Y072321
X089824Y053180
X120651Y014727
X124403Y022827
X126051Y022809
X126803Y022809
X127265Y030947
X127517Y022037
X128055Y018837
X129252Y018278
X129711Y030013
X130252Y022977
X130362Y021623
X131243Y033538
X131771Y018966
X132254Y021966
X132912Y033967
X133750Y027117
X134004Y028067
X134151Y021740
X134604Y032867
X134832Y028296
X135594Y032867
X135620Y028296
X136356Y032867
X136851Y021176
X136890Y025756
X137626Y029964
X137712Y017917
X138160Y023724
X138414Y029820
X138414Y029820
X138652Y010678
X139176Y029820
X135348Y068272
X131596Y060172
X129948Y060190
X129196Y060190
X128734Y052052
X128482Y060962
X127944Y064162
X126747Y064721
X126288Y052986
X125747Y060022
X125637Y061376
X124756Y049461
X124228Y064033
X123745Y061033
X123087Y049032
X122249Y055882
X121995Y054932
X121848Y061259
X121396Y050132
X121167Y054704
X120405Y050132
X120380Y054704
X119643Y050132
X119148Y061823
X119110Y057244
X118373Y053035
X118287Y065081
X117840Y059276
X117586Y053180
X117586Y053180
X117347Y072321
X116824Y053180
T02
X016492Y032916
X050507Y050083
X043492Y032916
X023507Y050083
X077507Y050083
X070492Y032916
X097492Y032916
X104507Y050083
X124492Y032916
X131507Y050083
T03
X012433Y011979
X013230Y026797
X013347Y020071
X014602Y014427
X018991Y033436
X021280Y032027
X022918Y015910
X025407Y013884
X026096Y018898
X029921Y015458
X054566Y071020
X053769Y056202
X053652Y062928
X052397Y068572
X048008Y049563
X045719Y050972
X044081Y067089
X041592Y069115
X040904Y064102
X037078Y067541
X039433Y011979
X040230Y026797
X040347Y020071
X041602Y014427
X045991Y033436
X048280Y032027
X049918Y015910
X052407Y013884
X053096Y018898
X056921Y015458
X027566Y071020
X026769Y056202
X026652Y062928
X025397Y068572
X021008Y049563
X018719Y050972
X017081Y067089
X014592Y069115
X013904Y064102
X010078Y067541
X081566Y071020
X080769Y056202
X080652Y062928
X079397Y068572
X075008Y049563
X072719Y050972
X071081Y067089
X068592Y069115
X067904Y064102
X064078Y067541
X066433Y011979
X067230Y026797
X067347Y020071
X068602Y014427
X072991Y033436
X075280Y032027
X076918Y015910
X079407Y013884
X080096Y018898
X083921Y015458
X093433Y011979
X094230Y026797
X094347Y020071
X095602Y014427
X099991Y033436
X102280Y032027
X103918Y015910
X106407Y013884
X107096Y018898
X110921Y015458
X108566Y071020
X107769Y056202
X107652Y062928
X106397Y068572
X102008Y049563
X099719Y050972
X098081Y067089
X095592Y069115
X094904Y064102
X091078Y067541
X120433Y011979
X121230Y026797
X121347Y020071
X122602Y014427
X126991Y033436
X129280Y032027
X130918Y015910
X133407Y013884
X134096Y018898
X137921Y015458
X135566Y071020
X134769Y056202
X134652Y062928
X133397Y068572
X129008Y049563
X126719Y050972
X125081Y067089
X122592Y069115
X121904Y064102
X118078Y067541
T04
X016502Y011877
X019001Y011877
X021003Y011877
X023502Y011877
X050497Y071122
X047998Y071122
X045996Y071122
X043497Y071122
X043502Y011877
X046001Y011877
X048003Y011877
X050502Y011877
X023497Y071122
X020998Y071122
X018996Y071122
X016497Y071122
X077497Y071122
X074998Y071122
X072996Y071122
X070497Y071122
X070502Y011877
X073001Y011877
X075003Y011877
X077502Y011877
X097502Y011877
X100001Y011877
X102003Y011877
X104502Y011877
X104497Y071122
X101998Y071122
X099996Y071122
X097497Y071122
X124502Y011877
X127001Y011877
X129002Y011877
X131502Y011877
X131497Y071122
X128997Y071122
X126996Y071122
X124497Y071122
T05
X016492Y034727
X018991Y034727
X021493Y034727
X023992Y034727
X050507Y048272
X048008Y048272
X045506Y048272
X043007Y048272
X043492Y034727
X045991Y034727
X048493Y034727
X050992Y034727
X023507Y048272
X021008Y048272
X018506Y048272
X016007Y048272
X077507Y048272
X075008Y048272
X072506Y048272
X070007Y048272
X070492Y034727
X072991Y034727
X075493Y034727
X077992Y034727
X097492Y034727
X099991Y034727
X102493Y034727
X104992Y034727
X104507Y048272
X102008Y048272
X099506Y048272
X097007Y048272
X124492Y034727
X126991Y034727
X129493Y034727
X131992Y034727
X131507Y048272
X129008Y048272
X126506Y048272
X124007Y048272
X020000Y009500G85X020000Y009500
X020000Y009500G85X020000Y009500
X047000Y073500G85X047000Y073500
X047000Y073500G85X047000Y073500
X047000Y009500G85X047000Y009500
X047000Y009500G85X047000Y009500
X020000Y073500G85X020000Y073500
X020000Y073500G85X020000Y073500
X074000Y073500G85X074000Y073500
X074000Y073500G85X074000Y073500
X074000Y009500G85X074000Y009500
X074000Y009500G85X074000Y009500
X101000Y009500G85X101000Y009500
X101000Y009500G85X101000Y009500
X101000Y073500G85X101000Y073500
X101000Y073500G85X101000Y073500
X128000Y009500G85X128000Y009500
X128000Y009500G85X128000Y009500
X128000Y073500G85X128000Y073500
X128000Y073500G85X128000Y073500
T06
X010401Y030637
X010401Y028097
X010401Y025557
X010401Y023017
X010401Y018887
X010401Y016347
X010401Y013807
X010401Y011267
X010401Y008727
X030612Y042697
X030612Y040157
X030612Y037617
X010401Y033177
X056598Y052362
X056598Y054902
X056598Y057442
X056598Y059982
X056598Y064111
X056598Y066652
X056598Y069192
X056598Y071732
X056598Y074272
X036387Y040302
X036387Y042842
X036387Y045382
X056598Y049822
X037401Y030637
X037401Y028097
X037401Y025557
X037401Y023017
X037401Y018887
X037401Y016347
X037401Y013807
X037401Y011267
X037401Y008727
X057612Y042697
X057612Y040157
X057612Y037617
X037401Y033177
X029598Y052362
X029598Y054902
X029598Y057442
X029598Y059982
X029598Y064111
X029598Y066652
X029598Y069192
X029598Y071732
X029598Y074272
X009387Y040302
X009387Y042842
X009387Y045382
X029598Y049822
X083598Y052362
X083598Y054902
X083598Y057442
X083598Y059982
X083598Y064111
X083598Y066652
X083598Y069192
X083598Y071732
X083598Y074272
X063387Y040302
X063387Y042842
X063387Y045382
X083598Y049822
X064400Y030637
X064400Y028097
X064400Y025557
X064400Y023017
X064400Y018887
X064400Y016347
X064400Y013807
X064400Y011267
X064400Y008727
X084612Y042697
X084612Y040157
X084612Y037617
X064400Y033177
X091401Y030637
X091401Y028097
X091401Y025557
X091401Y023017
X091401Y018887
X091401Y016347
X091401Y013807
X091401Y011267
X091401Y008727
X111612Y042697
X111612Y040157
X111612Y037617
X091401Y033177
X110598Y052362
X110598Y054902
X110598Y057442
X110598Y059982
X110598Y064111
X110598Y066652
X110598Y069192
X110598Y071732
X110598Y074272
X090387Y040302
X090387Y042842
X090387Y045382
X110598Y049822
X118401Y030637
X118401Y028097
X118401Y025557
X118401Y023017
X118401Y018887
X118401Y016347
X118401Y013807
X118401Y011267
X118401Y008727
X138612Y042697
X138612Y040157
X138612Y037617
X118401Y033177
X137598Y052362
X137598Y054902
X137598Y057442
X137598Y059982
X137598Y064111
X137598Y066652
X137598Y069192
X137598Y071732
X137598Y074272
X117387Y040302
X117387Y042842
X117387Y045382
X137598Y049822
T07
X017752Y009776
X022252Y009776
X049247Y073223
X044747Y073223
X044752Y009776
X049252Y009776
X022247Y073223
X017747Y073223
X076247Y073223
X071747Y073223
X071752Y009776
X076252Y009776
X098752Y009776
X103252Y009776
X103247Y073223
X098747Y073223
X125752Y009776
X130252Y009776
X130247Y073223
X125747Y073223
M30