%MOIN*%
%OFA0B0*%
%FSLAX46Y46*%
%IPPOS*%
%LPD*%
%ADD10C,0.005905511811023622*%
%ADD21C,0.005905511811023622*%
%ADD22C,0.005905511811023622*%
%ADD23C,0.005905511811023622*%
%ADD24C,0.005905511811023622*%
%ADD25C,0.005905511811023622*%
%ADD26C,0.005905511811023622*%
%ADD27C,0.005905511811023622*%
%ADD28C,0.005905511811023622*%
%ADD29C,0.005905511811023622*%
G01G01*
D10*
X0000813648Y0000372278D02*
G75*
G03G03X0000813648Y0000372278I-0000026246D01X0000813648Y0000372278I-0000026246D01*
G01G01*
X0000748031Y0000372278D02*
X0000826771Y0000372278D01*
X0000787401Y0000411648D02*
X0000787401Y0000332908D01*
X0000917401Y0001374015D02*
G75*
G03G03X0001137401Y0001594015J0000220000D01X0001137401Y0001594015J0000220000D01*
G01G01*
X0000320968Y0000266826D02*
X0000320968Y0001371157D01*
X0001277661Y0000266826D02*
X0000320968Y0000266826D01*
X0001277661Y0001784543D02*
X0001277661Y0000266826D01*
X0001135929Y0001784543D02*
X0001277661Y0001784543D01*
X0001137401Y0001594015D02*
X0001135929Y0001784543D01*
X0000317401Y0001374015D02*
X0000917401Y0001374015D01*
G04 next file*
G04 Gerber Fmt 4.6, Leading zero omitted, Abs format (unit mm)*
G04 Created by KiCad (PCBNEW (5.0.0-rc2-dev-707-g2ed24a4)) date Friday, 18 May 2018 at 19:07:10*
G01G01*
G04 APERTURE LIST*
G04 APERTURE END LIST*
D21*
X0001824147Y0002895438D02*
G75*
G03G03X0001824147Y0002895438I0000026246D01X0001824147Y0002895438I0000026246D01*
G01G01*
X0001889763Y0002895438D02*
X0001811023Y0002895438D01*
X0001850393Y0002856068D02*
X0001850393Y0002934808D01*
X0001720393Y0001893700D02*
G75*
G03G03X0001500393Y0001673700J-0000220000D01X0001500393Y0001673700J-0000220000D01*
G01G01*
X0002316826Y0003000889D02*
X0002316826Y0001896559D01*
X0001360133Y0003000889D02*
X0002316826Y0003000889D01*
X0001360133Y0001483173D02*
X0001360133Y0003000889D01*
X0001501866Y0001483173D02*
X0001360133Y0001483173D01*
X0001500393Y0001673700D02*
X0001501866Y0001483173D01*
X0002320393Y0001893700D02*
X0001720393Y0001893700D01*
G04 next file*
G04 Gerber Fmt 4.6, Leading zero omitted, Abs format (unit mm)*
G04 Created by KiCad (PCBNEW (5.0.0-rc2-dev-707-g2ed24a4)) date Friday, 18 May 2018 at 19:07:10*
G01G01*
G04 APERTURE LIST*
G04 APERTURE END LIST*
D22*
X0001876640Y0000372278D02*
G75*
G03G03X0001876640Y0000372278I-0000026246D01X0001876640Y0000372278I-0000026246D01*
G01G01*
X0001811023Y0000372278D02*
X0001889763Y0000372278D01*
X0001850393Y0000411648D02*
X0001850393Y0000332908D01*
X0001980393Y0001374015D02*
G75*
G03G03X0002200393Y0001594015J0000220000D01X0002200393Y0001594015J0000220000D01*
G01G01*
X0001383960Y0000266826D02*
X0001383960Y0001371157D01*
X0002340653Y0000266826D02*
X0001383960Y0000266826D01*
X0002340653Y0001784543D02*
X0002340653Y0000266826D01*
X0002198921Y0001784543D02*
X0002340653Y0001784543D01*
X0002200393Y0001594015D02*
X0002198921Y0001784543D01*
X0001380393Y0001374015D02*
X0001980393Y0001374015D01*
G04 next file*
G04 Gerber Fmt 4.6, Leading zero omitted, Abs format (unit mm)*
G04 Created by KiCad (PCBNEW (5.0.0-rc2-dev-707-g2ed24a4)) date Friday, 18 May 2018 at 19:07:10*
G01G01*
G04 APERTURE LIST*
G04 APERTURE END LIST*
D23*
X0000761154Y0002895438D02*
G75*
G03G03X0000761154Y0002895438I0000026246D01X0000761154Y0002895438I0000026246D01*
G01G01*
X0000826771Y0002895438D02*
X0000748031Y0002895438D01*
X0000787401Y0002856068D02*
X0000787401Y0002934808D01*
X0000657401Y0001893700D02*
G75*
G03G03X0000437401Y0001673700J-0000220000D01X0000437401Y0001673700J-0000220000D01*
G01G01*
X0001253834Y0003000889D02*
X0001253834Y0001896559D01*
X0000297141Y0003000889D02*
X0001253834Y0003000889D01*
X0000297141Y0001483173D02*
X0000297141Y0003000889D01*
X0000438874Y0001483173D02*
X0000297141Y0001483173D01*
X0000437401Y0001673700D02*
X0000438874Y0001483173D01*
X0001257401Y0001893700D02*
X0000657401Y0001893700D01*
G04 next file*
G04 Gerber Fmt 4.6, Leading zero omitted, Abs format (unit mm)*
G04 Created by KiCad (PCBNEW (5.0.0-rc2-dev-707-g2ed24a4)) date Friday, 18 May 2018 at 19:07:10*
G01G01*
G04 APERTURE LIST*
G04 APERTURE END LIST*
D24*
X0002887139Y0002895438D02*
G75*
G03G03X0002887139Y0002895438I0000026246D01X0002887139Y0002895438I0000026246D01*
G01G01*
X0002952755Y0002895438D02*
X0002874015Y0002895438D01*
X0002913385Y0002856068D02*
X0002913385Y0002934808D01*
X0002783385Y0001893700D02*
G75*
G03G03X0002563385Y0001673700J-0000220000D01X0002563385Y0001673700J-0000220000D01*
G01G01*
X0003379818Y0003000889D02*
X0003379818Y0001896559D01*
X0002423125Y0003000889D02*
X0003379818Y0003000889D01*
X0002423125Y0001483173D02*
X0002423125Y0003000889D01*
X0002564858Y0001483173D02*
X0002423125Y0001483173D01*
X0002563385Y0001673700D02*
X0002564858Y0001483173D01*
X0003383385Y0001893700D02*
X0002783385Y0001893700D01*
G04 next file*
G04 Gerber Fmt 4.6, Leading zero omitted, Abs format (unit mm)*
G04 Created by KiCad (PCBNEW (5.0.0-rc2-dev-707-g2ed24a4)) date Friday, 18 May 2018 at 19:07:10*
G01G01*
G04 APERTURE LIST*
G04 APERTURE END LIST*
D25*
X0002939632Y0000372278D02*
G75*
G03G03X0002939632Y0000372278I-0000026246D01X0002939632Y0000372278I-0000026246D01*
G01G01*
X0002874015Y0000372278D02*
X0002952755Y0000372278D01*
X0002913385Y0000411648D02*
X0002913385Y0000332908D01*
X0003043385Y0001374015D02*
G75*
G03G03X0003263385Y0001594015J0000220000D01X0003263385Y0001594015J0000220000D01*
G01G01*
X0002446952Y0000266826D02*
X0002446952Y0001371157D01*
X0003403645Y0000266826D02*
X0002446952Y0000266826D01*
X0003403645Y0001784543D02*
X0003403645Y0000266826D01*
X0003261913Y0001784543D02*
X0003403645Y0001784543D01*
X0003263385Y0001594015D02*
X0003261913Y0001784543D01*
X0002443385Y0001374015D02*
X0003043385Y0001374015D01*
G04 next file*
G04 Gerber Fmt 4.6, Leading zero omitted, Abs format (unit mm)*
G04 Created by KiCad (PCBNEW (5.0.0-rc2-dev-707-g2ed24a4)) date Friday, 18 May 2018 at 19:07:10*
G01G01*
G04 APERTURE LIST*
G04 APERTURE END LIST*
D26*
X0004002624Y0000372278D02*
G75*
G03G03X0004002624Y0000372278I-0000026246D01X0004002624Y0000372278I-0000026246D01*
G01G01*
X0003937007Y0000372278D02*
X0004015748Y0000372278D01*
X0003976377Y0000411648D02*
X0003976377Y0000332908D01*
X0004106377Y0001374015D02*
G75*
G03G03X0004326377Y0001594015J0000220000D01X0004326377Y0001594015J0000220000D01*
G01G01*
X0003509944Y0000266826D02*
X0003509944Y0001371157D01*
X0004466637Y0000266826D02*
X0003509944Y0000266826D01*
X0004466637Y0001784543D02*
X0004466637Y0000266826D01*
X0004324905Y0001784543D02*
X0004466637Y0001784543D01*
X0004326377Y0001594015D02*
X0004324905Y0001784543D01*
X0003506377Y0001374015D02*
X0004106377Y0001374015D01*
G04 next file*
G04 Gerber Fmt 4.6, Leading zero omitted, Abs format (unit mm)*
G04 Created by KiCad (PCBNEW (5.0.0-rc2-dev-707-g2ed24a4)) date Friday, 18 May 2018 at 19:07:10*
G01G01*
G04 APERTURE LIST*
G04 APERTURE END LIST*
D27*
X0003950131Y0002895438D02*
G75*
G03G03X0003950131Y0002895438I0000026246D01X0003950131Y0002895438I0000026246D01*
G01G01*
X0004015748Y0002895438D02*
X0003937007Y0002895438D01*
X0003976377Y0002856068D02*
X0003976377Y0002934808D01*
X0003846377Y0001893700D02*
G75*
G03G03X0003626377Y0001673700J-0000220000D01X0003626377Y0001673700J-0000220000D01*
G01G01*
X0004442811Y0003000889D02*
X0004442811Y0001896559D01*
X0003486118Y0003000889D02*
X0004442811Y0003000889D01*
X0003486118Y0001483173D02*
X0003486118Y0003000889D01*
X0003627850Y0001483173D02*
X0003486118Y0001483173D01*
X0003626377Y0001673700D02*
X0003627850Y0001483173D01*
X0004446377Y0001893700D02*
X0003846377Y0001893700D01*
G04 next file*
G04 Gerber Fmt 4.6, Leading zero omitted, Abs format (unit mm)*
G04 Created by KiCad (PCBNEW (5.0.0-rc2-dev-707-g2ed24a4)) date Friday, 18 May 2018 at 19:07:10*
G01G01*
G04 APERTURE LIST*
G04 APERTURE END LIST*
D28*
X0005065616Y0000372278D02*
G75*
G03G03X0005065616Y0000372278I-0000026246D01X0005065616Y0000372278I-0000026246D01*
G01G01*
X0005000000Y0000372278D02*
X0005078740Y0000372278D01*
X0005039370Y0000411648D02*
X0005039370Y0000332908D01*
X0005169370Y0001374015D02*
G75*
G03G03X0005389370Y0001594015J0000220000D01X0005389370Y0001594015J0000220000D01*
G01G01*
X0004572937Y0000266826D02*
X0004572937Y0001371157D01*
X0005529629Y0000266826D02*
X0004572937Y0000266826D01*
X0005529629Y0001784543D02*
X0005529629Y0000266826D01*
X0005387897Y0001784543D02*
X0005529629Y0001784543D01*
X0005389370Y0001594015D02*
X0005387897Y0001784543D01*
X0004569370Y0001374015D02*
X0005169370Y0001374015D01*
G04 next file*
G04 Gerber Fmt 4.6, Leading zero omitted, Abs format (unit mm)*
G04 Created by KiCad (PCBNEW (5.0.0-rc2-dev-707-g2ed24a4)) date Friday, 18 May 2018 at 19:07:10*
G01G01*
G04 APERTURE LIST*
G04 APERTURE END LIST*
D29*
X0005013123Y0002895438D02*
G75*
G03G03X0005013123Y0002895438I0000026246D01X0005013123Y0002895438I0000026246D01*
G01G01*
X0005078740Y0002895438D02*
X0005000000Y0002895438D01*
X0005039370Y0002856068D02*
X0005039370Y0002934808D01*
X0004909370Y0001893700D02*
G75*
G03G03X0004689370Y0001673700J-0000220000D01X0004689370Y0001673700J-0000220000D01*
G01G01*
X0005505803Y0003000889D02*
X0005505803Y0001896559D01*
X0004549110Y0003000889D02*
X0005505803Y0003000889D01*
X0004549110Y0001483173D02*
X0004549110Y0003000889D01*
X0004690842Y0001483173D02*
X0004549110Y0001483173D01*
X0004689370Y0001673700D02*
X0004690842Y0001483173D01*
X0005509370Y0001893700D02*
X0004909370Y0001893700D01*
M02*