%MOIN*%
%OFA0B0*%
%FSLAX44Y44*%
%IPPOS*%
%LPD*%
%ADD10C,0*%
D10*
X00057480Y00000000D02*
X00057480Y00000000D01*
X00057491Y00000000D01*
X00057502Y00000000D01*
X00057514Y00000001D01*
X00057525Y00000002D01*
X00057536Y00000004D01*
X00057547Y00000005D01*
X00057558Y00000007D01*
X00057569Y00000010D01*
X00057580Y00000012D01*
X00057591Y00000015D01*
X00057601Y00000019D01*
X00057612Y00000022D01*
X00057623Y00000026D01*
X00057633Y00000031D01*
X00057643Y00000035D01*
X00057654Y00000040D01*
X00057664Y00000045D01*
X00057673Y00000050D01*
X00057683Y00000056D01*
X00057693Y00000062D01*
X00057702Y00000068D01*
X00057711Y00000075D01*
X00057720Y00000081D01*
X00057729Y00000088D01*
X00057738Y00000096D01*
X00057746Y00000103D01*
X00057754Y00000111D01*
X00057762Y00000119D01*
X00057770Y00000127D01*
X00057777Y00000135D01*
X00057785Y00000144D01*
X00057792Y00000153D01*
X00057798Y00000162D01*
X00057805Y00000171D01*
X00057811Y00000180D01*
X00057817Y00000190D01*
X00057823Y00000200D01*
X00057828Y00000209D01*
X00057833Y00000219D01*
X00057838Y00000230D01*
X00057842Y00000240D01*
X00057847Y00000250D01*
X00057851Y00000261D01*
X00057854Y00000272D01*
X00057858Y00000282D01*
X00057861Y00000293D01*
X00057863Y00000304D01*
X00057866Y00000315D01*
X00057868Y00000326D01*
X00057870Y00000337D01*
X00057871Y00000348D01*
X00057872Y00000360D01*
X00057873Y00000371D01*
X00057873Y00000382D01*
X00057874Y00000393D01*
X00057874Y00032677D01*
X00057873Y00032688D01*
X00057873Y00032699D01*
X00057872Y00032710D01*
X00057871Y00032722D01*
X00057870Y00032733D01*
X00057868Y00032744D01*
X00057866Y00032755D01*
X00057863Y00032766D01*
X00057861Y00032777D01*
X00057858Y00032788D01*
X00057854Y00032798D01*
X00057851Y00032809D01*
X00057847Y00032820D01*
X00057842Y00032830D01*
X00057838Y00032840D01*
X00057833Y00032850D01*
X00057828Y00032860D01*
X00057823Y00032870D01*
X00057817Y00032880D01*
X00057811Y00032890D01*
X00057805Y00032899D01*
X00057798Y00032908D01*
X00057792Y00032917D01*
X00057785Y00032926D01*
X00057777Y00032934D01*
X00057770Y00032943D01*
X00057762Y00032951D01*
X00057754Y00032959D01*
X00057746Y00032967D01*
X00057738Y00032974D01*
X00057729Y00032981D01*
X00057720Y00032988D01*
X00057711Y00032995D01*
X00057702Y00033002D01*
X00057693Y00033008D01*
X00057683Y00033014D01*
X00057673Y00033019D01*
X00057664Y00033025D01*
X00057654Y00033030D01*
X00057643Y00033035D01*
X00057633Y00033039D01*
X00057623Y00033044D01*
X00057612Y00033047D01*
X00057601Y00033051D01*
X00057591Y00033054D01*
X00057580Y00033057D01*
X00057569Y00033060D01*
X00057558Y00033063D01*
X00057547Y00033065D01*
X00057536Y00033066D01*
X00057525Y00033068D01*
X00057514Y00033069D01*
X00057502Y00033070D01*
X00057491Y00033070D01*
X00057480Y00033070D01*
X00000393Y00033070D01*
X00000382Y00033070D01*
X00000371Y00033070D01*
X00000360Y00033069D01*
X00000348Y00033068D01*
X00000337Y00033066D01*
X00000326Y00033065D01*
X00000315Y00033063D01*
X00000304Y00033060D01*
X00000293Y00033057D01*
X00000282Y00033054D01*
X00000272Y00033051D01*
X00000261Y00033047D01*
X00000250Y00033044D01*
X00000240Y00033039D01*
X00000230Y00033035D01*
X00000219Y00033030D01*
X00000209Y00033025D01*
X00000200Y00033019D01*
X00000190Y00033014D01*
X00000180Y00033008D01*
X00000171Y00033002D01*
X00000162Y00032995D01*
X00000153Y00032988D01*
X00000144Y00032981D01*
X00000135Y00032974D01*
X00000127Y00032967D01*
X00000119Y00032959D01*
X00000111Y00032951D01*
X00000103Y00032943D01*
X00000096Y00032934D01*
X00000088Y00032926D01*
X00000081Y00032917D01*
X00000075Y00032908D01*
X00000068Y00032899D01*
X00000062Y00032890D01*
X00000056Y00032880D01*
X00000050Y00032870D01*
X00000045Y00032860D01*
X00000040Y00032850D01*
X00000035Y00032840D01*
X00000031Y00032830D01*
X00000026Y00032820D01*
X00000022Y00032809D01*
X00000019Y00032798D01*
X00000015Y00032788D01*
X00000012Y00032777D01*
X00000010Y00032766D01*
X00000007Y00032755D01*
X00000005Y00032744D01*
X00000004Y00032733D01*
X00000002Y00032722D01*
X00000001Y00032710D01*
X00000000Y00032699D01*
X00000000Y00032688D01*
X00000000Y00032677D01*
X00000000Y00000393D01*
X00000000Y00000382D01*
X00000000Y00000371D01*
X00000001Y00000360D01*
X00000002Y00000348D01*
X00000004Y00000337D01*
X00000005Y00000326D01*
X00000007Y00000315D01*
X00000010Y00000304D01*
X00000012Y00000293D01*
X00000015Y00000282D01*
X00000019Y00000272D01*
X00000022Y00000261D01*
X00000026Y00000250D01*
X00000031Y00000240D01*
X00000035Y00000230D01*
X00000040Y00000219D01*
X00000045Y00000209D01*
X00000050Y00000200D01*
X00000056Y00000190D01*
X00000062Y00000180D01*
X00000068Y00000171D01*
X00000075Y00000162D01*
X00000081Y00000153D01*
X00000088Y00000144D01*
X00000096Y00000135D01*
X00000103Y00000127D01*
X00000111Y00000119D01*
X00000119Y00000111D01*
X00000127Y00000103D01*
X00000135Y00000096D01*
X00000144Y00000088D01*
X00000153Y00000081D01*
X00000162Y00000075D01*
X00000171Y00000068D01*
X00000180Y00000062D01*
X00000190Y00000056D01*
X00000200Y00000050D01*
X00000209Y00000045D01*
X00000219Y00000040D01*
X00000230Y00000035D01*
X00000240Y00000031D01*
X00000250Y00000026D01*
X00000261Y00000022D01*
X00000272Y00000019D01*
X00000282Y00000015D01*
X00000293Y00000012D01*
X00000304Y00000010D01*
X00000315Y00000007D01*
X00000326Y00000005D01*
X00000337Y00000004D01*
X00000348Y00000002D01*
X00000360Y00000001D01*
X00000371Y00000000D01*
X00000382Y00000000D01*
X00000393Y00000000D01*
X00057480Y00000000D01*
X00050379Y00029216D02*
X00050379Y00029216D01*
X00050436Y00029213D01*
X00050490Y00029198D01*
X00050540Y00029171D01*
X00050584Y00029134D01*
X00050618Y00029089D01*
X00050642Y00029038D01*
X00050654Y00028982D01*
X00050654Y00028926D01*
X00050642Y00028870D01*
X00050618Y00028819D01*
X00050584Y00028773D01*
X00050540Y00028737D01*
X00050490Y00028710D01*
X00050436Y00028695D01*
X00050379Y00028692D01*
X00050323Y00028701D01*
X00050270Y00028722D01*
X00050223Y00028754D01*
X00050184Y00028795D01*
X00050155Y00028844D01*
X00050137Y00028897D01*
X00050131Y00028954D01*
X00050137Y00029010D01*
X00050155Y00029064D01*
X00050184Y00029113D01*
X00050223Y00029154D01*
X00050270Y00029186D01*
X00050323Y00029207D01*
X00050379Y00029216D01*
X00050407Y00003460D02*
X00050407Y00003460D01*
X00050351Y00003463D01*
X00050296Y00003478D01*
X00050246Y00003505D01*
X00050203Y00003542D01*
X00050168Y00003587D01*
X00050144Y00003638D01*
X00050132Y00003694D01*
X00050132Y00003751D01*
X00050144Y00003806D01*
X00050168Y00003858D01*
X00050203Y00003903D01*
X00050246Y00003940D01*
X00050296Y00003966D01*
X00050351Y00003981D01*
X00050407Y00003984D01*
X00050463Y00003975D01*
X00050516Y00003954D01*
X00050563Y00003922D01*
X00050602Y00003881D01*
X00050631Y00003832D01*
X00050650Y00003779D01*
X00050656Y00003722D01*
X00050650Y00003666D01*
X00050631Y00003612D01*
X00050602Y00003563D01*
X00050563Y00003522D01*
X00050516Y00003490D01*
X00050463Y00003469D01*
X00050407Y00003460D01*
X00039749Y00029216D02*
X00039749Y00029216D01*
X00039806Y00029213D01*
X00039860Y00029198D01*
X00039911Y00029171D01*
X00039954Y00029134D01*
X00039988Y00029089D01*
X00040012Y00029038D01*
X00040024Y00028982D01*
X00040024Y00028926D01*
X00040012Y00028870D01*
X00039988Y00028819D01*
X00039954Y00028773D01*
X00039911Y00028737D01*
X00039860Y00028710D01*
X00039806Y00028695D01*
X00039749Y00028692D01*
X00039693Y00028701D01*
X00039640Y00028722D01*
X00039593Y00028754D01*
X00039554Y00028795D01*
X00039525Y00028844D01*
X00039507Y00028897D01*
X00039501Y00028954D01*
X00039507Y00029010D01*
X00039525Y00029064D01*
X00039554Y00029113D01*
X00039593Y00029154D01*
X00039640Y00029186D01*
X00039693Y00029207D01*
X00039749Y00029216D01*
X00039777Y00003460D02*
X00039777Y00003460D01*
X00039721Y00003463D01*
X00039666Y00003478D01*
X00039616Y00003505D01*
X00039573Y00003542D01*
X00039538Y00003587D01*
X00039515Y00003638D01*
X00039502Y00003694D01*
X00039502Y00003751D01*
X00039515Y00003806D01*
X00039538Y00003858D01*
X00039573Y00003903D01*
X00039616Y00003940D01*
X00039666Y00003966D01*
X00039721Y00003981D01*
X00039777Y00003984D01*
X00039833Y00003975D01*
X00039886Y00003954D01*
X00039933Y00003922D01*
X00039972Y00003881D01*
X00040001Y00003832D01*
X00040020Y00003779D01*
X00040026Y00003722D01*
X00040020Y00003666D01*
X00040001Y00003612D01*
X00039972Y00003563D01*
X00039933Y00003522D01*
X00039886Y00003490D01*
X00039833Y00003469D01*
X00039777Y00003460D01*
X00029148Y00003460D02*
X00029148Y00003460D01*
X00029091Y00003463D01*
X00029036Y00003478D01*
X00028986Y00003505D01*
X00028943Y00003542D01*
X00028908Y00003587D01*
X00028885Y00003638D01*
X00028872Y00003694D01*
X00028872Y00003751D01*
X00028885Y00003806D01*
X00028908Y00003858D01*
X00028943Y00003903D01*
X00028986Y00003940D01*
X00029036Y00003966D01*
X00029091Y00003981D01*
X00029148Y00003984D01*
X00029204Y00003975D01*
X00029256Y00003954D01*
X00029303Y00003922D01*
X00029342Y00003881D01*
X00029372Y00003832D01*
X00029390Y00003779D01*
X00029396Y00003722D01*
X00029390Y00003666D01*
X00029372Y00003612D01*
X00029342Y00003563D01*
X00029303Y00003522D01*
X00029256Y00003490D01*
X00029204Y00003469D01*
X00029148Y00003460D01*
X00029119Y00029216D02*
X00029119Y00029216D01*
X00029176Y00029213D01*
X00029231Y00029198D01*
X00029281Y00029171D01*
X00029324Y00029134D01*
X00029358Y00029089D01*
X00029382Y00029038D01*
X00029394Y00028982D01*
X00029394Y00028926D01*
X00029382Y00028870D01*
X00029358Y00028819D01*
X00029324Y00028773D01*
X00029281Y00028737D01*
X00029231Y00028710D01*
X00029176Y00028695D01*
X00029119Y00028692D01*
X00029063Y00028701D01*
X00029010Y00028722D01*
X00028963Y00028754D01*
X00028924Y00028795D01*
X00028895Y00028844D01*
X00028877Y00028897D01*
X00028871Y00028954D01*
X00028877Y00029010D01*
X00028895Y00029064D01*
X00028924Y00029113D01*
X00028963Y00029154D01*
X00029010Y00029186D01*
X00029063Y00029207D01*
X00029119Y00029216D01*
X00007859Y00029216D02*
X00007859Y00029216D01*
X00007916Y00029213D01*
X00007971Y00029198D01*
X00008021Y00029171D01*
X00008064Y00029134D01*
X00008098Y00029089D01*
X00008122Y00029038D01*
X00008134Y00028982D01*
X00008134Y00028926D01*
X00008122Y00028870D01*
X00008098Y00028819D01*
X00008064Y00028773D01*
X00008021Y00028737D01*
X00007971Y00028710D01*
X00007916Y00028695D01*
X00007859Y00028692D01*
X00007803Y00028701D01*
X00007751Y00028722D01*
X00007704Y00028754D01*
X00007665Y00028795D01*
X00007635Y00028844D01*
X00007617Y00028897D01*
X00007611Y00028954D01*
X00007617Y00029010D01*
X00007635Y00029064D01*
X00007665Y00029113D01*
X00007704Y00029154D01*
X00007751Y00029186D01*
X00007803Y00029207D01*
X00007859Y00029216D01*
X00018518Y00003460D02*
X00018518Y00003460D01*
X00018461Y00003463D01*
X00018406Y00003478D01*
X00018356Y00003505D01*
X00018313Y00003542D01*
X00018279Y00003587D01*
X00018255Y00003638D01*
X00018243Y00003694D01*
X00018243Y00003751D01*
X00018255Y00003806D01*
X00018279Y00003858D01*
X00018313Y00003903D01*
X00018356Y00003940D01*
X00018406Y00003966D01*
X00018461Y00003981D01*
X00018518Y00003984D01*
X00018574Y00003975D01*
X00018626Y00003954D01*
X00018673Y00003922D01*
X00018712Y00003881D01*
X00018742Y00003832D01*
X00018760Y00003779D01*
X00018766Y00003722D01*
X00018760Y00003666D01*
X00018742Y00003612D01*
X00018712Y00003563D01*
X00018673Y00003522D01*
X00018626Y00003490D01*
X00018574Y00003469D01*
X00018518Y00003460D01*
X00018489Y00029216D02*
X00018489Y00029216D01*
X00018546Y00029213D01*
X00018601Y00029198D01*
X00018651Y00029171D01*
X00018694Y00029134D01*
X00018728Y00029089D01*
X00018752Y00029038D01*
X00018764Y00028982D01*
X00018764Y00028926D01*
X00018752Y00028870D01*
X00018728Y00028819D01*
X00018694Y00028773D01*
X00018651Y00028737D01*
X00018601Y00028710D01*
X00018546Y00028695D01*
X00018489Y00028692D01*
X00018433Y00028701D01*
X00018380Y00028722D01*
X00018334Y00028754D01*
X00018294Y00028795D01*
X00018265Y00028844D01*
X00018247Y00028897D01*
X00018241Y00028954D01*
X00018247Y00029010D01*
X00018265Y00029064D01*
X00018294Y00029113D01*
X00018334Y00029154D01*
X00018380Y00029186D01*
X00018433Y00029207D01*
X00018489Y00029216D01*
X00007888Y00003460D02*
X00007888Y00003460D01*
X00007831Y00003463D01*
X00007776Y00003478D01*
X00007726Y00003505D01*
X00007683Y00003542D01*
X00007649Y00003587D01*
X00007625Y00003638D01*
X00007613Y00003694D01*
X00007613Y00003751D01*
X00007625Y00003806D01*
X00007649Y00003858D01*
X00007683Y00003903D01*
X00007726Y00003940D01*
X00007776Y00003966D01*
X00007831Y00003981D01*
X00007888Y00003984D01*
X00007944Y00003975D01*
X00007996Y00003954D01*
X00008043Y00003922D01*
X00008082Y00003881D01*
X00008112Y00003832D01*
X00008130Y00003779D01*
X00008136Y00003722D01*
X00008130Y00003666D01*
X00008112Y00003612D01*
X00008082Y00003563D01*
X00008043Y00003522D01*
X00007996Y00003490D01*
X00007944Y00003469D01*
X00007888Y00003460D01*
X00001990Y00030993D02*
X00001990Y00030993D01*
X00005546Y00030993D01*
X00005562Y00030992D01*
X00005577Y00030991D01*
X00005593Y00030990D01*
X00005608Y00030988D01*
X00005623Y00030985D01*
X00005639Y00030982D01*
X00005654Y00030978D01*
X00005669Y00030973D01*
X00005683Y00030968D01*
X00005698Y00030962D01*
X00005712Y00030956D01*
X00005726Y00030949D01*
X00005740Y00030942D01*
X00005753Y00030934D01*
X00005766Y00030925D01*
X00005779Y00030917D01*
X00005791Y00030907D01*
X00005803Y00030897D01*
X00005815Y00030887D01*
X00005826Y00030876D01*
X00006021Y00030679D01*
X00006051Y00030644D01*
X00006078Y00030606D01*
X00006099Y00030565D01*
X00006116Y00030522D01*
X00006127Y00030477D01*
X00006134Y00030432D01*
X00006134Y00030385D01*
X00006130Y00030339D01*
X00006120Y00030294D01*
X00006104Y00030251D01*
X00006084Y00030209D01*
X00006059Y00030170D01*
X00006030Y00030134D01*
X00005996Y00030102D01*
X00005959Y00030074D01*
X00005919Y00030051D01*
X00005877Y00030033D01*
X00005833Y00030019D01*
X00005787Y00030011D01*
X00005741Y00030008D01*
X00002971Y00030008D01*
X00002971Y00024633D01*
X00002969Y00024593D01*
X00002962Y00024552D01*
X00002952Y00024513D01*
X00002938Y00024475D01*
X00002919Y00024438D01*
X00002897Y00024404D01*
X00002872Y00024372D01*
X00002843Y00024343D01*
X00002812Y00024317D01*
X00002778Y00024295D01*
X00002742Y00024276D01*
X00002704Y00024261D01*
X00002664Y00024249D01*
X00002624Y00024243D01*
X00002584Y00024240D01*
X00002543Y00024241D01*
X00002502Y00024247D01*
X00002463Y00024257D01*
X00002424Y00024271D01*
X00002388Y00024288D01*
X00002191Y00024396D01*
X00002173Y00024407D01*
X00002155Y00024419D01*
X00002138Y00024431D01*
X00002122Y00024444D01*
X00002106Y00024459D01*
X00002092Y00024474D01*
X00002078Y00024490D01*
X00002065Y00024506D01*
X00002053Y00024523D01*
X00002042Y00024541D01*
X00002031Y00024559D01*
X00002022Y00024578D01*
X00002014Y00024598D01*
X00002007Y00024617D01*
X00002001Y00024638D01*
X00001996Y00024658D01*
X00001992Y00024679D01*
X00001989Y00024700D01*
X00001987Y00024720D01*
X00001987Y00024742D01*
X00001987Y00030990D01*
X00001987Y00030993D01*
X00001990Y00030993D01*
X00017751Y00001684D02*
X00017751Y00001684D01*
X00009020Y00001684D01*
X00008993Y00001684D01*
X00008967Y00001687D01*
X00008940Y00001692D01*
X00008914Y00001698D01*
X00008888Y00001706D01*
X00008863Y00001716D01*
X00008839Y00001728D01*
X00008815Y00001741D01*
X00008793Y00001756D01*
X00008771Y00001772D01*
X00008751Y00001790D01*
X00008732Y00001809D01*
X00008714Y00001830D01*
X00008698Y00001851D01*
X00008683Y00001874D01*
X00008670Y00001897D01*
X00008659Y00001922D01*
X00008649Y00001947D01*
X00008641Y00001973D01*
X00008635Y00001999D01*
X00008595Y00002196D01*
X00008589Y00002230D01*
X00008587Y00002265D01*
X00008588Y00002300D01*
X00008591Y00002335D01*
X00008598Y00002369D01*
X00008608Y00002402D01*
X00008621Y00002435D01*
X00008637Y00002466D01*
X00008655Y00002495D01*
X00008676Y00002523D01*
X00008699Y00002549D01*
X00008724Y00002573D01*
X00008752Y00002595D01*
X00008781Y00002614D01*
X00008812Y00002630D01*
X00008844Y00002643D01*
X00008877Y00002654D01*
X00008911Y00002662D01*
X00008946Y00002666D01*
X00008980Y00002668D01*
X00012776Y00002668D01*
X00012776Y00006862D01*
X00012778Y00006898D01*
X00012783Y00006934D01*
X00012791Y00006969D01*
X00012803Y00007004D01*
X00012817Y00007037D01*
X00012835Y00007069D01*
X00012856Y00007099D01*
X00012879Y00007127D01*
X00012905Y00007153D01*
X00012933Y00007176D01*
X00012963Y00007196D01*
X00012994Y00007214D01*
X00013028Y00007229D01*
X00013062Y00007240D01*
X00013098Y00007249D01*
X00013134Y00007254D01*
X00013170Y00007255D01*
X00013206Y00007254D01*
X00013242Y00007249D01*
X00013278Y00007240D01*
X00013553Y00007162D01*
X00013578Y00007154D01*
X00013601Y00007145D01*
X00013624Y00007134D01*
X00013647Y00007121D01*
X00013668Y00007108D01*
X00013689Y00007093D01*
X00013708Y00007076D01*
X00013726Y00007059D01*
X00013744Y00007040D01*
X00013760Y00007020D01*
X00013774Y00006999D01*
X00013788Y00006978D01*
X00013799Y00006955D01*
X00013810Y00006932D01*
X00013819Y00006908D01*
X00013826Y00006884D01*
X00013832Y00006859D01*
X00013836Y00006834D01*
X00013838Y00006808D01*
X00013839Y00006783D01*
X00013839Y00002668D01*
X00017946Y00002668D01*
X00017992Y00002665D01*
X00018037Y00002657D01*
X00018082Y00002644D01*
X00018124Y00002625D01*
X00018164Y00002602D01*
X00018201Y00002574D01*
X00018234Y00002542D01*
X00018264Y00002506D01*
X00018289Y00002467D01*
X00018309Y00002426D01*
X00018324Y00002382D01*
X00018334Y00002337D01*
X00018339Y00002291D01*
X00018338Y00002245D01*
X00018332Y00002199D01*
X00018321Y00002154D01*
X00018304Y00002111D01*
X00018282Y00002070D01*
X00018256Y00002032D01*
X00018225Y00001997D01*
X00018031Y00001800D01*
X00018019Y00001789D01*
X00018008Y00001779D01*
X00017996Y00001769D01*
X00017984Y00001760D01*
X00017971Y00001751D01*
X00017958Y00001742D01*
X00017944Y00001734D01*
X00017931Y00001727D01*
X00017917Y00001720D01*
X00017902Y00001714D01*
X00017888Y00001708D01*
X00017873Y00001703D01*
X00017858Y00001698D01*
X00017843Y00001695D01*
X00017828Y00001691D01*
X00017813Y00001688D01*
X00017797Y00001686D01*
X00017782Y00001685D01*
X00017766Y00001684D01*
X00017751Y00001684D01*
X00055058Y00024712D02*
X00055058Y00024712D01*
X00055058Y00030008D01*
X00051738Y00030008D01*
X00051692Y00030011D01*
X00051647Y00030019D01*
X00051602Y00030033D01*
X00051560Y00030051D01*
X00051520Y00030074D01*
X00051483Y00030102D01*
X00051450Y00030134D01*
X00051420Y00030170D01*
X00051395Y00030209D01*
X00051375Y00030251D01*
X00051360Y00030294D01*
X00051350Y00030339D01*
X00051345Y00030385D01*
X00051346Y00030432D01*
X00051352Y00030477D01*
X00051363Y00030522D01*
X00051380Y00030565D01*
X00051402Y00030606D01*
X00051428Y00030644D01*
X00051459Y00030679D01*
X00051653Y00030876D01*
X00051665Y00030887D01*
X00051676Y00030897D01*
X00051688Y00030907D01*
X00051701Y00030917D01*
X00051713Y00030925D01*
X00051726Y00030934D01*
X00051740Y00030942D01*
X00051753Y00030949D01*
X00051767Y00030956D01*
X00051782Y00030962D01*
X00051796Y00030968D01*
X00051811Y00030973D01*
X00051826Y00030978D01*
X00051841Y00030982D01*
X00051856Y00030985D01*
X00051871Y00030988D01*
X00051887Y00030990D01*
X00051902Y00030991D01*
X00051918Y00030992D01*
X00051933Y00030993D01*
X00056039Y00030993D01*
X00056042Y00030993D01*
X00056042Y00030990D01*
X00056042Y00024677D01*
X00056040Y00024642D01*
X00056036Y00024608D01*
X00056028Y00024575D01*
X00056018Y00024542D01*
X00056005Y00024510D01*
X00055989Y00024480D01*
X00055970Y00024451D01*
X00055949Y00024423D01*
X00055926Y00024398D01*
X00055901Y00024375D01*
X00055873Y00024354D01*
X00055844Y00024336D01*
X00055814Y00024320D01*
X00055782Y00024307D01*
X00055749Y00024296D01*
X00055716Y00024289D01*
X00055682Y00024285D01*
X00055647Y00024283D01*
X00055613Y00024285D01*
X00055579Y00024289D01*
X00055382Y00024324D01*
X00055355Y00024330D01*
X00055329Y00024338D01*
X00055303Y00024347D01*
X00055278Y00024358D01*
X00055254Y00024371D01*
X00055231Y00024386D01*
X00055208Y00024402D01*
X00055187Y00024420D01*
X00055168Y00024439D01*
X00055149Y00024459D01*
X00055132Y00024481D01*
X00055117Y00024504D01*
X00055103Y00024527D01*
X00055091Y00024552D01*
X00055081Y00024578D01*
X00055073Y00024604D01*
X00055066Y00024630D01*
X00055061Y00024657D01*
X00055058Y00024685D01*
X00055058Y00024712D01*
X00055296Y00002668D02*
X00055296Y00002668D01*
X00055296Y00006862D01*
X00055298Y00006902D01*
X00055304Y00006943D01*
X00055315Y00006982D01*
X00055329Y00007020D01*
X00055347Y00007057D01*
X00055370Y00007091D01*
X00055395Y00007123D01*
X00055424Y00007152D01*
X00055455Y00007178D01*
X00055489Y00007200D01*
X00055525Y00007219D01*
X00055563Y00007234D01*
X00055602Y00007246D01*
X00055643Y00007253D01*
X00055683Y00007255D01*
X00055724Y00007254D01*
X00055764Y00007248D01*
X00055804Y00007238D01*
X00055842Y00007224D01*
X00055879Y00007207D01*
X00056076Y00007099D01*
X00056094Y00007088D01*
X00056112Y00007076D01*
X00056129Y00007064D01*
X00056145Y00007051D01*
X00056160Y00007036D01*
X00056175Y00007021D01*
X00056189Y00007006D01*
X00056202Y00006989D01*
X00056214Y00006972D01*
X00056225Y00006954D01*
X00056235Y00006936D01*
X00056245Y00006917D01*
X00056253Y00006897D01*
X00056260Y00006878D01*
X00056266Y00006857D01*
X00056271Y00006837D01*
X00056275Y00006816D01*
X00056278Y00006796D01*
X00056279Y00006775D01*
X00056280Y00006754D01*
X00056280Y00001686D01*
X00056280Y00001684D01*
X00056277Y00001684D01*
X00052327Y00001684D01*
X00052311Y00001684D01*
X00052296Y00001685D01*
X00052280Y00001686D01*
X00052265Y00001688D01*
X00052250Y00001691D01*
X00052234Y00001695D01*
X00052219Y00001698D01*
X00052205Y00001703D01*
X00052190Y00001708D01*
X00052175Y00001714D01*
X00052161Y00001720D01*
X00052147Y00001727D01*
X00052133Y00001734D01*
X00052120Y00001742D01*
X00052107Y00001751D01*
X00052094Y00001760D01*
X00052082Y00001769D01*
X00052070Y00001779D01*
X00052058Y00001789D01*
X00052047Y00001800D01*
X00051852Y00001997D01*
X00051822Y00002032D01*
X00051795Y00002070D01*
X00051774Y00002111D01*
X00051757Y00002154D01*
X00051746Y00002199D01*
X00051739Y00002245D01*
X00051739Y00002291D01*
X00051743Y00002337D01*
X00051753Y00002382D01*
X00051769Y00002426D01*
X00051789Y00002467D01*
X00051814Y00002506D01*
X00051843Y00002542D01*
X00051877Y00002574D01*
X00051914Y00002602D01*
X00051954Y00002625D01*
X00051996Y00002644D01*
X00052040Y00002657D01*
X00052086Y00002665D01*
X00052132Y00002668D01*
X00055296Y00002668D01*
X00055296Y00017845D02*
X00055296Y00017845D01*
X00053878Y00017845D01*
X00053893Y00015940D01*
X00053886Y00015767D01*
X00053866Y00015596D01*
X00053832Y00015426D01*
X00053786Y00015260D01*
X00053726Y00015098D01*
X00053653Y00014941D01*
X00053569Y00014790D01*
X00053473Y00014647D01*
X00053366Y00014511D01*
X00053249Y00014384D01*
X00053122Y00014267D01*
X00052986Y00014160D01*
X00052843Y00014064D01*
X00052692Y00013979D01*
X00052535Y00013907D01*
X00052373Y00013847D01*
X00052207Y00013800D01*
X00052037Y00013767D01*
X00051866Y00013746D01*
X00051693Y00013740D01*
X00051574Y00013740D01*
X00051566Y00013740D01*
X00051558Y00013740D01*
X00051550Y00013740D01*
X00051543Y00013741D01*
X00051535Y00013742D01*
X00051527Y00013742D01*
X00051519Y00013743D01*
X00051512Y00013745D01*
X00051504Y00013746D01*
X00051496Y00013747D01*
X00051489Y00013749D01*
X00051481Y00013751D01*
X00051474Y00013753D01*
X00051466Y00013755D01*
X00051459Y00013757D01*
X00051451Y00013759D01*
X00051444Y00013762D01*
X00051437Y00013764D01*
X00051429Y00013767D01*
X00051422Y00013770D01*
X00050950Y00013967D01*
X00050902Y00013991D01*
X00050857Y00014022D01*
X00050817Y00014058D01*
X00050783Y00014099D01*
X00050754Y00014145D01*
X00050732Y00014195D01*
X00050717Y00014246D01*
X00050709Y00014300D01*
X00050709Y00014354D01*
X00050716Y00014408D01*
X00050730Y00014460D01*
X00050751Y00014509D01*
X00050779Y00014556D01*
X00050813Y00014598D01*
X00050852Y00014635D01*
X00050896Y00014666D01*
X00050944Y00014691D01*
X00050995Y00014709D01*
X00051048Y00014720D01*
X00051102Y00014724D01*
X00051666Y00014724D01*
X00051682Y00014724D01*
X00051773Y00014728D01*
X00051804Y00014730D01*
X00051868Y00014738D01*
X00051898Y00014743D01*
X00051962Y00014755D01*
X00051992Y00014762D01*
X00052054Y00014780D01*
X00052083Y00014789D01*
X00052144Y00014812D01*
X00052172Y00014824D01*
X00052231Y00014851D01*
X00052258Y00014865D01*
X00052315Y00014896D01*
X00052341Y00014912D01*
X00052394Y00014948D01*
X00052419Y00014966D01*
X00052470Y00015006D01*
X00052494Y00015026D01*
X00052541Y00015070D01*
X00052563Y00015092D01*
X00052607Y00015139D01*
X00052627Y00015163D01*
X00052667Y00015213D01*
X00052685Y00015238D01*
X00052721Y00015292D01*
X00052737Y00015318D01*
X00052768Y00015375D01*
X00052782Y00015402D01*
X00052809Y00015461D01*
X00052821Y00015489D01*
X00052843Y00015550D01*
X00052853Y00015579D01*
X00052870Y00015641D01*
X00052878Y00015671D01*
X00052890Y00015734D01*
X00052895Y00015765D01*
X00052903Y00015829D01*
X00052905Y00015860D01*
X00052908Y00015946D01*
X00052909Y00015964D01*
X00052896Y00017562D01*
X00052896Y00017573D01*
X00052896Y00017584D01*
X00052895Y00017595D01*
X00052893Y00017606D01*
X00052892Y00017617D01*
X00052890Y00017628D01*
X00052888Y00017639D01*
X00052886Y00017650D01*
X00052883Y00017661D01*
X00052880Y00017672D01*
X00052876Y00017683D01*
X00052873Y00017693D01*
X00052869Y00017704D01*
X00052864Y00017714D01*
X00052860Y00017724D01*
X00052855Y00017734D01*
X00052850Y00017744D01*
X00052844Y00017754D01*
X00052839Y00017764D01*
X00052833Y00017773D01*
X00052827Y00017782D01*
X00052820Y00017791D01*
X00052813Y00017800D01*
X00052806Y00017809D01*
X00052799Y00017818D01*
X00052792Y00017826D01*
X00052784Y00017834D01*
X00052776Y00017842D01*
X00052768Y00017850D01*
X00052759Y00017857D01*
X00052751Y00017864D01*
X00052742Y00017871D01*
X00052733Y00017878D01*
X00052724Y00017884D01*
X00052715Y00017890D01*
X00052705Y00017896D01*
X00052695Y00017902D01*
X00052686Y00017907D01*
X00052676Y00017912D01*
X00052665Y00017917D01*
X00052655Y00017922D01*
X00052645Y00017926D01*
X00052634Y00017930D01*
X00052624Y00017933D01*
X00052613Y00017936D01*
X00052602Y00017939D01*
X00052591Y00017942D01*
X00052581Y00017944D01*
X00052570Y00017947D01*
X00052558Y00017948D01*
X00052547Y00017950D01*
X00052536Y00017951D01*
X00052525Y00017952D01*
X00052514Y00017952D01*
X00052503Y00017952D01*
X00051438Y00017952D01*
X00051402Y00017954D01*
X00051366Y00017959D01*
X00051331Y00017967D01*
X00051296Y00017979D01*
X00051263Y00017993D01*
X00051231Y00018011D01*
X00051201Y00018031D01*
X00051174Y00018054D01*
X00051148Y00018080D01*
X00051125Y00018107D01*
X00051104Y00018137D01*
X00051086Y00018169D01*
X00051071Y00018202D01*
X00051060Y00018236D01*
X00051051Y00018271D01*
X00051046Y00018307D01*
X00051044Y00018343D01*
X00051046Y00018379D01*
X00051050Y00018415D01*
X00051058Y00018451D01*
X00051112Y00018647D01*
X00051120Y00018672D01*
X00051129Y00018696D01*
X00051140Y00018719D01*
X00051152Y00018742D01*
X00051166Y00018763D01*
X00051181Y00018784D01*
X00051197Y00018804D01*
X00051215Y00018822D01*
X00051234Y00018840D01*
X00051253Y00018856D01*
X00051274Y00018871D01*
X00051296Y00018884D01*
X00051319Y00018896D01*
X00051342Y00018907D01*
X00051366Y00018916D01*
X00051391Y00018923D01*
X00051416Y00018929D01*
X00051441Y00018933D01*
X00051466Y00018936D01*
X00051492Y00018937D01*
X00055093Y00018937D01*
X00055058Y00018965D01*
X00055058Y00022531D01*
X00055058Y00022559D01*
X00055061Y00022586D01*
X00055066Y00022613D01*
X00055073Y00022639D01*
X00055081Y00022666D01*
X00055091Y00022691D01*
X00055103Y00022716D01*
X00055117Y00022739D01*
X00055132Y00022762D01*
X00055149Y00022784D01*
X00055168Y00022804D01*
X00055187Y00022823D01*
X00055208Y00022841D01*
X00055231Y00022857D01*
X00055254Y00022872D01*
X00055278Y00022885D01*
X00055303Y00022896D01*
X00055329Y00022905D01*
X00055355Y00022913D01*
X00055382Y00022919D01*
X00055579Y00022954D01*
X00055613Y00022958D01*
X00055647Y00022960D01*
X00055682Y00022959D01*
X00055716Y00022954D01*
X00055749Y00022947D01*
X00055782Y00022936D01*
X00055814Y00022923D01*
X00055844Y00022908D01*
X00055873Y00022889D01*
X00055901Y00022868D01*
X00055926Y00022845D01*
X00055949Y00022820D01*
X00055970Y00022792D01*
X00055989Y00022763D01*
X00056005Y00022733D01*
X00056018Y00022701D01*
X00056028Y00022668D01*
X00056036Y00022635D01*
X00056040Y00022601D01*
X00056042Y00022566D01*
X00056042Y00019627D01*
X00056042Y00019615D01*
X00056042Y00019604D01*
X00056043Y00019593D01*
X00056044Y00019581D01*
X00056046Y00019570D01*
X00056048Y00019559D01*
X00056050Y00019548D01*
X00056052Y00019537D01*
X00056055Y00019526D01*
X00056058Y00019515D01*
X00056061Y00019504D01*
X00056065Y00019493D01*
X00056069Y00019482D01*
X00056074Y00019472D01*
X00056078Y00019461D01*
X00056083Y00019451D01*
X00056088Y00019441D01*
X00056094Y00019431D01*
X00056100Y00019421D01*
X00056106Y00019412D01*
X00056112Y00019402D01*
X00056119Y00019393D01*
X00056125Y00019384D01*
X00056133Y00019375D01*
X00056140Y00019367D01*
X00056148Y00019358D01*
X00056156Y00019350D01*
X00056164Y00019342D01*
X00056172Y00019334D01*
X00056181Y00019327D01*
X00056189Y00019319D01*
X00056251Y00019270D01*
X00056253Y00019268D01*
X00056253Y00019268D01*
X00056252Y00019266D01*
X00056226Y00019192D01*
X00056223Y00019181D01*
X00056219Y00019171D01*
X00056216Y00019160D01*
X00056214Y00019149D01*
X00056211Y00019138D01*
X00056209Y00019126D01*
X00056208Y00019115D01*
X00056206Y00019104D01*
X00056205Y00019093D01*
X00056204Y00019081D01*
X00056204Y00019070D01*
X00056204Y00019059D01*
X00056204Y00019047D01*
X00056205Y00019036D01*
X00056206Y00019025D01*
X00056207Y00019013D01*
X00056209Y00019002D01*
X00056210Y00018991D01*
X00056213Y00018980D01*
X00056215Y00018969D01*
X00056218Y00018958D01*
X00056221Y00018947D01*
X00056225Y00018936D01*
X00056228Y00018925D01*
X00056232Y00018915D01*
X00056237Y00018904D01*
X00056242Y00018894D01*
X00056247Y00018884D01*
X00056252Y00018874D01*
X00056257Y00018864D01*
X00056263Y00018854D01*
X00056269Y00018844D01*
X00056276Y00018835D01*
X00056278Y00018833D01*
X00056280Y00018829D01*
X00056280Y00018829D01*
X00056280Y00018826D01*
X00056280Y00008993D01*
X00056279Y00008972D01*
X00056278Y00008952D01*
X00056275Y00008931D01*
X00056271Y00008910D01*
X00056266Y00008890D01*
X00056260Y00008869D01*
X00056253Y00008850D01*
X00056245Y00008830D01*
X00056235Y00008811D01*
X00056225Y00008793D01*
X00056214Y00008775D01*
X00056202Y00008758D01*
X00056189Y00008742D01*
X00056175Y00008726D01*
X00056160Y00008711D01*
X00056145Y00008696D01*
X00056129Y00008683D01*
X00056112Y00008671D01*
X00056094Y00008659D01*
X00056076Y00008648D01*
X00055879Y00008540D01*
X00055842Y00008523D01*
X00055804Y00008509D01*
X00055764Y00008499D01*
X00055724Y00008493D01*
X00055683Y00008492D01*
X00055643Y00008494D01*
X00055602Y00008501D01*
X00055563Y00008513D01*
X00055525Y00008528D01*
X00055489Y00008547D01*
X00055455Y00008569D01*
X00055424Y00008595D01*
X00055395Y00008624D01*
X00055370Y00008656D01*
X00055347Y00008690D01*
X00055329Y00008727D01*
X00055315Y00008765D01*
X00055304Y00008804D01*
X00055298Y00008845D01*
X00055296Y00008885D01*
X00055296Y00017845D01*
X00003209Y00006783D02*
X00003209Y00006783D01*
X00003209Y00002668D01*
X00006875Y00002668D01*
X00006910Y00002666D01*
X00006945Y00002662D01*
X00006979Y00002654D01*
X00007012Y00002643D01*
X00007044Y00002630D01*
X00007075Y00002614D01*
X00007104Y00002595D01*
X00007131Y00002573D01*
X00007157Y00002549D01*
X00007180Y00002523D01*
X00007201Y00002495D01*
X00007219Y00002466D01*
X00007235Y00002435D01*
X00007247Y00002402D01*
X00007257Y00002369D01*
X00007264Y00002335D01*
X00007268Y00002300D01*
X00007269Y00002265D01*
X00007266Y00002230D01*
X00007261Y00002196D01*
X00007221Y00001999D01*
X00007215Y00001973D01*
X00007207Y00001947D01*
X00007197Y00001922D01*
X00007186Y00001897D01*
X00007172Y00001874D01*
X00007158Y00001851D01*
X00007141Y00001830D01*
X00007124Y00001809D01*
X00007105Y00001790D01*
X00007084Y00001772D01*
X00007063Y00001756D01*
X00007040Y00001741D01*
X00007017Y00001728D01*
X00006993Y00001716D01*
X00006968Y00001706D01*
X00006942Y00001698D01*
X00006916Y00001692D01*
X00006889Y00001687D01*
X00006862Y00001684D01*
X00006835Y00001684D01*
X00002228Y00001684D01*
X00002225Y00001684D01*
X00002225Y00001686D01*
X00002225Y00006818D01*
X00002226Y00006853D01*
X00002231Y00006887D01*
X00002238Y00006920D01*
X00002249Y00006953D01*
X00002262Y00006985D01*
X00002278Y00007015D01*
X00002296Y00007044D01*
X00002317Y00007072D01*
X00002341Y00007097D01*
X00002366Y00007120D01*
X00002393Y00007141D01*
X00002422Y00007159D01*
X00002453Y00007175D01*
X00002485Y00007188D01*
X00002517Y00007199D01*
X00002551Y00007206D01*
X00002585Y00007211D01*
X00002619Y00007212D01*
X00002654Y00007210D01*
X00002688Y00007206D01*
X00002885Y00007171D01*
X00002912Y00007165D01*
X00002938Y00007157D01*
X00002964Y00007148D01*
X00002989Y00007137D01*
X00003013Y00007124D01*
X00003036Y00007109D01*
X00003058Y00007093D01*
X00003079Y00007075D01*
X00003099Y00007056D01*
X00003117Y00007036D01*
X00003134Y00007014D01*
X00003150Y00006991D01*
X00003163Y00006968D01*
X00003175Y00006943D01*
X00003186Y00006918D01*
X00003194Y00006891D01*
X00003201Y00006865D01*
X00003205Y00006838D01*
X00003208Y00006810D01*
X00003209Y00006783D01*
X00016176Y00030993D02*
X00016176Y00030993D01*
X00016192Y00030992D01*
X00016207Y00030991D01*
X00016223Y00030990D01*
X00016238Y00030988D01*
X00016253Y00030985D01*
X00016268Y00030982D01*
X00016284Y00030978D01*
X00016298Y00030973D01*
X00016313Y00030968D01*
X00016328Y00030962D01*
X00016342Y00030956D01*
X00016356Y00030949D01*
X00016370Y00030942D01*
X00016383Y00030934D01*
X00016396Y00030925D01*
X00016409Y00030917D01*
X00016421Y00030907D01*
X00016433Y00030897D01*
X00016445Y00030887D01*
X00016456Y00030876D01*
X00016651Y00030679D01*
X00016681Y00030644D01*
X00016707Y00030606D01*
X00016729Y00030565D01*
X00016746Y00030522D01*
X00016757Y00030477D01*
X00016763Y00030432D01*
X00016764Y00030385D01*
X00016760Y00030339D01*
X00016749Y00030294D01*
X00016734Y00030251D01*
X00016714Y00030209D01*
X00016689Y00030170D01*
X00016659Y00030134D01*
X00016626Y00030102D01*
X00016589Y00030074D01*
X00016549Y00030051D01*
X00016507Y00030033D01*
X00016463Y00030019D01*
X00016417Y00030011D01*
X00016371Y00030008D01*
X00013601Y00030008D01*
X00013601Y00024633D01*
X00013599Y00024597D01*
X00013594Y00024561D01*
X00013586Y00024526D01*
X00013574Y00024491D01*
X00013560Y00024458D01*
X00013542Y00024426D01*
X00013521Y00024396D01*
X00013498Y00024368D01*
X00013472Y00024342D01*
X00013444Y00024319D01*
X00013414Y00024299D01*
X00013382Y00024281D01*
X00013349Y00024266D01*
X00013315Y00024255D01*
X00013279Y00024246D01*
X00013243Y00024241D01*
X00013207Y00024240D01*
X00013171Y00024241D01*
X00013135Y00024246D01*
X00013099Y00024255D01*
X00012824Y00024333D01*
X00012799Y00024341D01*
X00012776Y00024350D01*
X00012753Y00024361D01*
X00012730Y00024374D01*
X00012709Y00024387D01*
X00012688Y00024402D01*
X00012669Y00024419D01*
X00012650Y00024436D01*
X00012633Y00024455D01*
X00012617Y00024475D01*
X00012603Y00024496D01*
X00012589Y00024517D01*
X00012577Y00024540D01*
X00012567Y00024563D01*
X00012558Y00024587D01*
X00012551Y00024611D01*
X00012545Y00024636D01*
X00012541Y00024661D01*
X00012539Y00024687D01*
X00012538Y00024712D01*
X00012538Y00030008D01*
X00007644Y00030008D01*
X00007598Y00030011D01*
X00007552Y00030019D01*
X00007508Y00030033D01*
X00007466Y00030051D01*
X00007426Y00030074D01*
X00007389Y00030102D01*
X00007355Y00030134D01*
X00007326Y00030170D01*
X00007301Y00030209D01*
X00007281Y00030251D01*
X00007265Y00030294D01*
X00007255Y00030339D01*
X00007251Y00030385D01*
X00007251Y00030432D01*
X00007257Y00030477D01*
X00007269Y00030522D01*
X00007286Y00030565D01*
X00007307Y00030606D01*
X00007334Y00030644D01*
X00007364Y00030679D01*
X00007559Y00030876D01*
X00007570Y00030887D01*
X00007582Y00030897D01*
X00007594Y00030907D01*
X00007606Y00030917D01*
X00007619Y00030925D01*
X00007632Y00030934D01*
X00007645Y00030942D01*
X00007659Y00030949D01*
X00007673Y00030956D01*
X00007687Y00030962D01*
X00007702Y00030968D01*
X00007716Y00030973D01*
X00007731Y00030978D01*
X00007746Y00030982D01*
X00007761Y00030985D01*
X00007777Y00030988D01*
X00007792Y00030990D01*
X00007808Y00030991D01*
X00007823Y00030992D01*
X00007839Y00030993D01*
X00016176Y00030993D01*
X00026806Y00030993D02*
X00026806Y00030993D01*
X00026821Y00030992D01*
X00026837Y00030991D01*
X00026852Y00030990D01*
X00026868Y00030988D01*
X00026883Y00030985D01*
X00026898Y00030982D01*
X00026913Y00030978D01*
X00026928Y00030973D01*
X00026943Y00030968D01*
X00026958Y00030962D01*
X00026972Y00030956D01*
X00026986Y00030949D01*
X00026999Y00030942D01*
X00027013Y00030934D01*
X00027026Y00030925D01*
X00027039Y00030917D01*
X00027051Y00030907D01*
X00027063Y00030897D01*
X00027075Y00030887D01*
X00027086Y00030876D01*
X00027281Y00030679D01*
X00027311Y00030644D01*
X00027337Y00030606D01*
X00027359Y00030565D01*
X00027376Y00030522D01*
X00027387Y00030477D01*
X00027393Y00030432D01*
X00027394Y00030385D01*
X00027389Y00030339D01*
X00027379Y00030294D01*
X00027364Y00030251D01*
X00027344Y00030209D01*
X00027319Y00030170D01*
X00027289Y00030134D01*
X00027256Y00030102D01*
X00027219Y00030074D01*
X00027179Y00030051D01*
X00027137Y00030033D01*
X00027092Y00030019D01*
X00027047Y00030011D01*
X00027001Y00030008D01*
X00024231Y00030008D01*
X00024231Y00024633D01*
X00024229Y00024597D01*
X00024224Y00024561D01*
X00024216Y00024526D01*
X00024204Y00024491D01*
X00024189Y00024458D01*
X00024172Y00024426D01*
X00024151Y00024396D01*
X00024128Y00024368D01*
X00024102Y00024342D01*
X00024074Y00024319D01*
X00024044Y00024299D01*
X00024012Y00024281D01*
X00023979Y00024266D01*
X00023945Y00024255D01*
X00023909Y00024246D01*
X00023873Y00024241D01*
X00023837Y00024240D01*
X00023801Y00024241D01*
X00023764Y00024246D01*
X00023729Y00024255D01*
X00023453Y00024333D01*
X00023429Y00024341D01*
X00023406Y00024350D01*
X00023383Y00024361D01*
X00023360Y00024374D01*
X00023339Y00024387D01*
X00023318Y00024402D01*
X00023299Y00024419D01*
X00023280Y00024436D01*
X00023263Y00024455D01*
X00023247Y00024475D01*
X00023233Y00024496D01*
X00023219Y00024517D01*
X00023207Y00024540D01*
X00023197Y00024563D01*
X00023188Y00024587D01*
X00023181Y00024611D01*
X00023175Y00024636D01*
X00023171Y00024661D01*
X00023169Y00024687D01*
X00023168Y00024712D01*
X00023168Y00030008D01*
X00018274Y00030008D01*
X00018228Y00030011D01*
X00018182Y00030019D01*
X00018138Y00030033D01*
X00018095Y00030051D01*
X00018056Y00030074D01*
X00018019Y00030102D01*
X00017985Y00030134D01*
X00017956Y00030170D01*
X00017931Y00030209D01*
X00017910Y00030251D01*
X00017895Y00030294D01*
X00017885Y00030339D01*
X00017880Y00030385D01*
X00017881Y00030432D01*
X00017887Y00030477D01*
X00017899Y00030522D01*
X00017916Y00030565D01*
X00017937Y00030606D01*
X00017963Y00030644D01*
X00017994Y00030679D01*
X00018189Y00030876D01*
X00018200Y00030887D01*
X00018212Y00030897D01*
X00018224Y00030907D01*
X00018236Y00030917D01*
X00018249Y00030925D01*
X00018262Y00030934D01*
X00018275Y00030942D01*
X00018289Y00030949D01*
X00018303Y00030956D01*
X00018317Y00030962D01*
X00018332Y00030968D01*
X00018346Y00030973D01*
X00018361Y00030978D01*
X00018376Y00030982D01*
X00018391Y00030985D01*
X00018407Y00030988D01*
X00018422Y00030990D01*
X00018438Y00030991D01*
X00018453Y00030992D01*
X00018469Y00030993D01*
X00026806Y00030993D01*
X00037830Y00030993D02*
X00037830Y00030993D01*
X00037845Y00030992D01*
X00037861Y00030991D01*
X00037876Y00030990D01*
X00037892Y00030988D01*
X00037907Y00030985D01*
X00037922Y00030982D01*
X00037937Y00030978D01*
X00037952Y00030973D01*
X00037967Y00030968D01*
X00037981Y00030962D01*
X00037995Y00030956D01*
X00038009Y00030949D01*
X00038023Y00030942D01*
X00038036Y00030934D01*
X00038050Y00030925D01*
X00038062Y00030917D01*
X00038075Y00030907D01*
X00038087Y00030897D01*
X00038098Y00030887D01*
X00038109Y00030876D01*
X00038304Y00030679D01*
X00038335Y00030644D01*
X00038361Y00030606D01*
X00038383Y00030565D01*
X00038399Y00030522D01*
X00038411Y00030477D01*
X00038417Y00030432D01*
X00038418Y00030385D01*
X00038413Y00030339D01*
X00038403Y00030294D01*
X00038388Y00030251D01*
X00038367Y00030209D01*
X00038342Y00030170D01*
X00038313Y00030134D01*
X00038280Y00030102D01*
X00038243Y00030074D01*
X00038203Y00030051D01*
X00038160Y00030033D01*
X00038116Y00030019D01*
X00038071Y00030011D01*
X00038024Y00030008D01*
X00034861Y00030008D01*
X00034861Y00024633D01*
X00034859Y00024597D01*
X00034854Y00024561D01*
X00034846Y00024526D01*
X00034834Y00024491D01*
X00034819Y00024458D01*
X00034802Y00024426D01*
X00034781Y00024396D01*
X00034758Y00024368D01*
X00034732Y00024342D01*
X00034704Y00024319D01*
X00034674Y00024299D01*
X00034642Y00024281D01*
X00034609Y00024266D01*
X00034575Y00024255D01*
X00034539Y00024246D01*
X00034503Y00024241D01*
X00034467Y00024240D01*
X00034430Y00024241D01*
X00034394Y00024246D01*
X00034359Y00024255D01*
X00034083Y00024333D01*
X00034059Y00024341D01*
X00034036Y00024350D01*
X00034012Y00024361D01*
X00033990Y00024374D01*
X00033969Y00024387D01*
X00033948Y00024402D01*
X00033929Y00024419D01*
X00033910Y00024436D01*
X00033893Y00024455D01*
X00033877Y00024475D01*
X00033862Y00024496D01*
X00033849Y00024517D01*
X00033837Y00024540D01*
X00033827Y00024563D01*
X00033818Y00024587D01*
X00033811Y00024611D01*
X00033805Y00024636D01*
X00033801Y00024661D01*
X00033799Y00024687D01*
X00033798Y00024712D01*
X00033798Y00030008D01*
X00028904Y00030008D01*
X00028858Y00030011D01*
X00028812Y00030019D01*
X00028768Y00030033D01*
X00028725Y00030051D01*
X00028685Y00030074D01*
X00028649Y00030102D01*
X00028615Y00030134D01*
X00028586Y00030170D01*
X00028561Y00030209D01*
X00028540Y00030251D01*
X00028525Y00030294D01*
X00028515Y00030339D01*
X00028510Y00030385D01*
X00028511Y00030432D01*
X00028517Y00030477D01*
X00028529Y00030522D01*
X00028545Y00030565D01*
X00028567Y00030606D01*
X00028593Y00030644D01*
X00028624Y00030679D01*
X00028819Y00030876D01*
X00028830Y00030887D01*
X00028842Y00030897D01*
X00028854Y00030907D01*
X00028866Y00030917D01*
X00028879Y00030925D01*
X00028892Y00030934D01*
X00028905Y00030942D01*
X00028919Y00030949D01*
X00028933Y00030956D01*
X00028947Y00030962D01*
X00028961Y00030968D01*
X00028976Y00030973D01*
X00028991Y00030978D01*
X00029006Y00030982D01*
X00029021Y00030985D01*
X00029037Y00030988D01*
X00029052Y00030990D01*
X00029067Y00030991D01*
X00029083Y00030992D01*
X00029099Y00030993D01*
X00037830Y00030993D01*
X00049641Y00030993D02*
X00049641Y00030993D01*
X00049656Y00030992D01*
X00049672Y00030991D01*
X00049687Y00030990D01*
X00049703Y00030988D01*
X00049718Y00030985D01*
X00049733Y00030982D01*
X00049748Y00030978D01*
X00049763Y00030973D01*
X00049778Y00030968D01*
X00049792Y00030962D01*
X00049806Y00030956D01*
X00049820Y00030949D01*
X00049834Y00030942D01*
X00049847Y00030934D01*
X00049861Y00030925D01*
X00049873Y00030917D01*
X00049886Y00030907D01*
X00049898Y00030897D01*
X00049909Y00030887D01*
X00049920Y00030876D01*
X00050115Y00030679D01*
X00050146Y00030644D01*
X00050172Y00030606D01*
X00050194Y00030565D01*
X00050210Y00030522D01*
X00050222Y00030477D01*
X00050228Y00030432D01*
X00050229Y00030385D01*
X00050224Y00030339D01*
X00050214Y00030294D01*
X00050199Y00030251D01*
X00050178Y00030209D01*
X00050153Y00030170D01*
X00050124Y00030134D01*
X00050091Y00030102D01*
X00050054Y00030074D01*
X00050014Y00030051D01*
X00049971Y00030033D01*
X00049927Y00030019D01*
X00049882Y00030011D01*
X00049835Y00030008D01*
X00045491Y00030008D01*
X00045491Y00024757D01*
X00045489Y00024727D01*
X00045486Y00024697D01*
X00045480Y00024668D01*
X00045473Y00024639D01*
X00045462Y00024611D01*
X00045450Y00024584D01*
X00045436Y00024557D01*
X00045420Y00024532D01*
X00045402Y00024508D01*
X00045382Y00024486D01*
X00045361Y00024465D01*
X00045338Y00024446D01*
X00045313Y00024428D01*
X00045288Y00024413D01*
X00045261Y00024399D01*
X00045233Y00024388D01*
X00045205Y00024379D01*
X00045176Y00024371D01*
X00045146Y00024367D01*
X00045116Y00024364D01*
X00044841Y00024350D01*
X00044809Y00024350D01*
X00044777Y00024352D01*
X00044746Y00024357D01*
X00044715Y00024364D01*
X00044684Y00024374D01*
X00044655Y00024387D01*
X00044627Y00024401D01*
X00044600Y00024418D01*
X00044574Y00024437D01*
X00044550Y00024458D01*
X00044528Y00024481D01*
X00044507Y00024506D01*
X00044489Y00024532D01*
X00044473Y00024559D01*
X00044459Y00024588D01*
X00044448Y00024618D01*
X00044439Y00024649D01*
X00044433Y00024680D01*
X00044429Y00024712D01*
X00044428Y00024743D01*
X00044428Y00030008D01*
X00039927Y00030008D01*
X00039881Y00030011D01*
X00039836Y00030019D01*
X00039791Y00030033D01*
X00039749Y00030051D01*
X00039709Y00030074D01*
X00039672Y00030102D01*
X00039639Y00030134D01*
X00039609Y00030170D01*
X00039584Y00030209D01*
X00039564Y00030251D01*
X00039549Y00030294D01*
X00039539Y00030339D01*
X00039534Y00030385D01*
X00039535Y00030432D01*
X00039541Y00030477D01*
X00039552Y00030522D01*
X00039569Y00030565D01*
X00039591Y00030606D01*
X00039617Y00030644D01*
X00039648Y00030679D01*
X00039842Y00030876D01*
X00039854Y00030887D01*
X00039865Y00030897D01*
X00039877Y00030907D01*
X00039889Y00030917D01*
X00039902Y00030925D01*
X00039915Y00030934D01*
X00039929Y00030942D01*
X00039942Y00030949D01*
X00039956Y00030956D01*
X00039971Y00030962D01*
X00039985Y00030968D01*
X00040000Y00030973D01*
X00040015Y00030978D01*
X00040030Y00030982D01*
X00040045Y00030985D01*
X00040060Y00030988D01*
X00040076Y00030990D01*
X00040091Y00030991D01*
X00040107Y00030992D01*
X00040122Y00030993D01*
X00049641Y00030993D01*
X00040910Y00001684D02*
X00040910Y00001684D01*
X00040894Y00001684D01*
X00040879Y00001685D01*
X00040863Y00001686D01*
X00040848Y00001688D01*
X00040832Y00001691D01*
X00040817Y00001695D01*
X00040802Y00001698D01*
X00040787Y00001703D01*
X00040772Y00001708D01*
X00040758Y00001714D01*
X00040744Y00001720D01*
X00040730Y00001727D01*
X00040716Y00001734D01*
X00040703Y00001742D01*
X00040690Y00001751D01*
X00040677Y00001760D01*
X00040665Y00001769D01*
X00040653Y00001779D01*
X00040641Y00001789D01*
X00040630Y00001800D01*
X00040435Y00001997D01*
X00040404Y00002032D01*
X00040378Y00002070D01*
X00040357Y00002111D01*
X00040340Y00002154D01*
X00040328Y00002199D01*
X00040322Y00002245D01*
X00040321Y00002291D01*
X00040326Y00002337D01*
X00040336Y00002382D01*
X00040351Y00002426D01*
X00040372Y00002467D01*
X00040397Y00002506D01*
X00040426Y00002542D01*
X00040460Y00002574D01*
X00040496Y00002602D01*
X00040536Y00002625D01*
X00040579Y00002644D01*
X00040623Y00002657D01*
X00040669Y00002665D01*
X00040715Y00002668D01*
X00044666Y00002668D01*
X00044666Y00006862D01*
X00044668Y00006898D01*
X00044673Y00006934D01*
X00044681Y00006969D01*
X00044692Y00007004D01*
X00044707Y00007037D01*
X00044725Y00007069D01*
X00044745Y00007099D01*
X00044769Y00007127D01*
X00044794Y00007153D01*
X00044822Y00007176D01*
X00044852Y00007196D01*
X00044884Y00007214D01*
X00044918Y00007229D01*
X00044952Y00007240D01*
X00044987Y00007249D01*
X00045023Y00007254D01*
X00045060Y00007255D01*
X00045096Y00007254D01*
X00045132Y00007249D01*
X00045168Y00007240D01*
X00045443Y00007162D01*
X00045467Y00007154D01*
X00045491Y00007145D01*
X00045514Y00007134D01*
X00045536Y00007121D01*
X00045558Y00007108D01*
X00045578Y00007093D01*
X00045598Y00007076D01*
X00045616Y00007059D01*
X00045633Y00007040D01*
X00045649Y00007020D01*
X00045664Y00006999D01*
X00045677Y00006978D01*
X00045689Y00006955D01*
X00045700Y00006932D01*
X00045708Y00006908D01*
X00045716Y00006884D01*
X00045721Y00006859D01*
X00045726Y00006834D01*
X00045728Y00006808D01*
X00045729Y00006783D01*
X00045729Y00002668D01*
X00050229Y00002668D01*
X00050275Y00002665D01*
X00050321Y00002657D01*
X00050365Y00002644D01*
X00050407Y00002625D01*
X00050447Y00002602D01*
X00050484Y00002574D01*
X00050518Y00002542D01*
X00050547Y00002506D01*
X00050572Y00002467D01*
X00050592Y00002426D01*
X00050608Y00002382D01*
X00050618Y00002337D01*
X00050622Y00002291D01*
X00050622Y00002245D01*
X00050616Y00002199D01*
X00050604Y00002154D01*
X00050587Y00002111D01*
X00050566Y00002070D01*
X00050539Y00002032D01*
X00050509Y00001997D01*
X00050314Y00001800D01*
X00050303Y00001789D01*
X00050291Y00001779D01*
X00050279Y00001769D01*
X00050267Y00001760D01*
X00050254Y00001751D01*
X00050241Y00001742D01*
X00050228Y00001734D01*
X00050214Y00001727D01*
X00050200Y00001720D01*
X00050186Y00001714D01*
X00050171Y00001708D01*
X00050157Y00001703D01*
X00050142Y00001698D01*
X00050127Y00001695D01*
X00050112Y00001691D01*
X00050096Y00001688D01*
X00050081Y00001686D01*
X00050065Y00001685D01*
X00050050Y00001684D01*
X00050034Y00001684D01*
X00040910Y00001684D01*
X00030673Y00001684D02*
X00030673Y00001684D01*
X00030658Y00001684D01*
X00030642Y00001685D01*
X00030627Y00001686D01*
X00030611Y00001688D01*
X00030596Y00001691D01*
X00030581Y00001695D01*
X00030566Y00001698D01*
X00030551Y00001703D01*
X00030536Y00001708D01*
X00030522Y00001714D01*
X00030508Y00001720D01*
X00030494Y00001727D01*
X00030480Y00001734D01*
X00030466Y00001742D01*
X00030453Y00001751D01*
X00030441Y00001760D01*
X00030428Y00001769D01*
X00030416Y00001779D01*
X00030405Y00001789D01*
X00030394Y00001800D01*
X00030199Y00001997D01*
X00030168Y00002032D01*
X00030142Y00002070D01*
X00030120Y00002111D01*
X00030104Y00002154D01*
X00030092Y00002199D01*
X00030086Y00002245D01*
X00030085Y00002291D01*
X00030090Y00002337D01*
X00030100Y00002382D01*
X00030115Y00002426D01*
X00030135Y00002467D01*
X00030161Y00002506D01*
X00030190Y00002542D01*
X00030223Y00002574D01*
X00030260Y00002602D01*
X00030300Y00002625D01*
X00030343Y00002644D01*
X00030387Y00002657D01*
X00030432Y00002665D01*
X00030479Y00002668D01*
X00034036Y00002668D01*
X00034036Y00006862D01*
X00034038Y00006898D01*
X00034043Y00006934D01*
X00034051Y00006969D01*
X00034063Y00007004D01*
X00034077Y00007037D01*
X00034095Y00007069D01*
X00034116Y00007099D01*
X00034139Y00007127D01*
X00034165Y00007153D01*
X00034192Y00007176D01*
X00034223Y00007196D01*
X00034254Y00007214D01*
X00034288Y00007229D01*
X00034322Y00007240D01*
X00034357Y00007249D01*
X00034394Y00007254D01*
X00034430Y00007255D01*
X00034466Y00007254D01*
X00034502Y00007249D01*
X00034538Y00007240D01*
X00034813Y00007162D01*
X00034837Y00007154D01*
X00034861Y00007145D01*
X00034884Y00007134D01*
X00034906Y00007121D01*
X00034928Y00007108D01*
X00034948Y00007093D01*
X00034968Y00007076D01*
X00034986Y00007059D01*
X00035004Y00007040D01*
X00035019Y00007020D01*
X00035034Y00006999D01*
X00035047Y00006978D01*
X00035059Y00006955D01*
X00035070Y00006932D01*
X00035079Y00006908D01*
X00035086Y00006884D01*
X00035092Y00006859D01*
X00035096Y00006834D01*
X00035098Y00006808D01*
X00035099Y00006783D01*
X00035099Y00002668D01*
X00038812Y00002668D01*
X00038858Y00002665D01*
X00038904Y00002657D01*
X00038948Y00002644D01*
X00038990Y00002625D01*
X00039030Y00002602D01*
X00039067Y00002574D01*
X00039100Y00002542D01*
X00039130Y00002506D01*
X00039155Y00002467D01*
X00039175Y00002426D01*
X00039190Y00002382D01*
X00039200Y00002337D01*
X00039205Y00002291D01*
X00039204Y00002245D01*
X00039198Y00002199D01*
X00039187Y00002154D01*
X00039170Y00002111D01*
X00039148Y00002070D01*
X00039122Y00002032D01*
X00039092Y00001997D01*
X00038897Y00001800D01*
X00038886Y00001789D01*
X00038874Y00001779D01*
X00038862Y00001769D01*
X00038850Y00001760D01*
X00038837Y00001751D01*
X00038824Y00001742D01*
X00038810Y00001734D01*
X00038797Y00001727D01*
X00038783Y00001720D01*
X00038769Y00001714D01*
X00038754Y00001708D01*
X00038739Y00001703D01*
X00038724Y00001698D01*
X00038709Y00001695D01*
X00038694Y00001691D01*
X00038679Y00001688D01*
X00038664Y00001686D01*
X00038648Y00001685D01*
X00038633Y00001684D01*
X00038617Y00001684D01*
X00030673Y00001684D01*
X00020043Y00001684D02*
X00020043Y00001684D01*
X00020028Y00001684D01*
X00020012Y00001685D01*
X00019997Y00001686D01*
X00019981Y00001688D01*
X00019966Y00001691D01*
X00019951Y00001695D01*
X00019936Y00001698D01*
X00019921Y00001703D01*
X00019906Y00001708D01*
X00019892Y00001714D01*
X00019878Y00001720D01*
X00019864Y00001727D01*
X00019850Y00001734D01*
X00019837Y00001742D01*
X00019823Y00001751D01*
X00019811Y00001760D01*
X00019798Y00001769D01*
X00019786Y00001779D01*
X00019775Y00001789D01*
X00019764Y00001800D01*
X00019569Y00001997D01*
X00019538Y00002032D01*
X00019512Y00002070D01*
X00019490Y00002111D01*
X00019474Y00002154D01*
X00019462Y00002199D01*
X00019456Y00002245D01*
X00019455Y00002291D01*
X00019460Y00002337D01*
X00019470Y00002382D01*
X00019485Y00002426D01*
X00019506Y00002467D01*
X00019531Y00002506D01*
X00019560Y00002542D01*
X00019593Y00002574D01*
X00019630Y00002602D01*
X00019670Y00002625D01*
X00019713Y00002644D01*
X00019757Y00002657D01*
X00019802Y00002665D01*
X00019849Y00002668D01*
X00023406Y00002668D01*
X00023406Y00006862D01*
X00023408Y00006898D01*
X00023413Y00006934D01*
X00023421Y00006969D01*
X00023433Y00007004D01*
X00023447Y00007037D01*
X00023465Y00007069D01*
X00023486Y00007099D01*
X00023509Y00007127D01*
X00023535Y00007153D01*
X00023563Y00007176D01*
X00023593Y00007196D01*
X00023624Y00007214D01*
X00023658Y00007229D01*
X00023692Y00007240D01*
X00023728Y00007249D01*
X00023764Y00007254D01*
X00023800Y00007255D01*
X00023836Y00007254D01*
X00023872Y00007249D01*
X00023908Y00007240D01*
X00024183Y00007162D01*
X00024208Y00007154D01*
X00024231Y00007145D01*
X00024254Y00007134D01*
X00024277Y00007121D01*
X00024298Y00007108D01*
X00024318Y00007093D01*
X00024338Y00007076D01*
X00024356Y00007059D01*
X00024374Y00007040D01*
X00024390Y00007020D01*
X00024404Y00006999D01*
X00024418Y00006978D01*
X00024429Y00006955D01*
X00024440Y00006932D01*
X00024449Y00006908D01*
X00024456Y00006884D01*
X00024462Y00006859D01*
X00024466Y00006834D01*
X00024468Y00006808D01*
X00024469Y00006783D01*
X00024469Y00002668D01*
X00028576Y00002668D01*
X00028622Y00002665D01*
X00028667Y00002657D01*
X00028712Y00002644D01*
X00028754Y00002625D01*
X00028794Y00002602D01*
X00028831Y00002574D01*
X00028864Y00002542D01*
X00028894Y00002506D01*
X00028919Y00002467D01*
X00028939Y00002426D01*
X00028954Y00002382D01*
X00028964Y00002337D01*
X00028969Y00002291D01*
X00028968Y00002245D01*
X00028962Y00002199D01*
X00028950Y00002154D01*
X00028934Y00002111D01*
X00028912Y00002070D01*
X00028886Y00002032D01*
X00028855Y00001997D01*
X00028661Y00001800D01*
X00028649Y00001789D01*
X00028638Y00001779D01*
X00028626Y00001769D01*
X00028613Y00001760D01*
X00028601Y00001751D01*
X00028588Y00001742D01*
X00028574Y00001734D01*
X00028561Y00001727D01*
X00028547Y00001720D01*
X00028532Y00001714D01*
X00028518Y00001708D01*
X00028503Y00001703D01*
X00028488Y00001698D01*
X00028473Y00001695D01*
X00028458Y00001691D01*
X00028443Y00001688D01*
X00028427Y00001686D01*
X00028412Y00001685D01*
X00028396Y00001684D01*
X00028381Y00001684D01*
X00020043Y00001684D01*
X00040414Y00017952D02*
X00040414Y00017952D01*
X00040378Y00017954D01*
X00040342Y00017959D01*
X00040307Y00017967D01*
X00040273Y00017979D01*
X00040239Y00017993D01*
X00040208Y00018011D01*
X00040178Y00018031D01*
X00040150Y00018054D01*
X00040124Y00018080D01*
X00040101Y00018107D01*
X00040080Y00018137D01*
X00040063Y00018169D01*
X00040048Y00018202D01*
X00040036Y00018236D01*
X00040028Y00018271D01*
X00040022Y00018307D01*
X00040020Y00018343D01*
X00040022Y00018379D01*
X00040027Y00018415D01*
X00040035Y00018451D01*
X00040089Y00018647D01*
X00040096Y00018672D01*
X00040106Y00018696D01*
X00040116Y00018719D01*
X00040129Y00018742D01*
X00040142Y00018763D01*
X00040157Y00018784D01*
X00040174Y00018804D01*
X00040191Y00018822D01*
X00040210Y00018840D01*
X00040230Y00018856D01*
X00040251Y00018871D01*
X00040273Y00018884D01*
X00040295Y00018896D01*
X00040319Y00018907D01*
X00040343Y00018916D01*
X00040367Y00018923D01*
X00040392Y00018929D01*
X00040417Y00018933D01*
X00040443Y00018936D01*
X00040468Y00018937D01*
X00044463Y00018937D01*
X00044428Y00018965D01*
X00044428Y00022648D01*
X00044429Y00022680D01*
X00044433Y00022711D01*
X00044439Y00022743D01*
X00044448Y00022773D01*
X00044459Y00022803D01*
X00044473Y00022832D01*
X00044489Y00022859D01*
X00044507Y00022886D01*
X00044528Y00022910D01*
X00044550Y00022933D01*
X00044574Y00022954D01*
X00044600Y00022973D01*
X00044627Y00022990D01*
X00044655Y00023005D01*
X00044684Y00023017D01*
X00044715Y00023027D01*
X00044746Y00023034D01*
X00044777Y00023039D01*
X00044809Y00023041D01*
X00044841Y00023041D01*
X00045116Y00023027D01*
X00045146Y00023025D01*
X00045176Y00023020D01*
X00045205Y00023013D01*
X00045233Y00023003D01*
X00045261Y00022992D01*
X00045288Y00022978D01*
X00045313Y00022963D01*
X00045338Y00022946D01*
X00045361Y00022926D01*
X00045382Y00022905D01*
X00045402Y00022883D01*
X00045420Y00022859D01*
X00045436Y00022834D01*
X00045450Y00022808D01*
X00045462Y00022780D01*
X00045473Y00022752D01*
X00045480Y00022723D01*
X00045486Y00022694D01*
X00045489Y00022664D01*
X00045491Y00022634D01*
X00045491Y00014831D01*
X00046908Y00014831D01*
X00046893Y00016737D01*
X00046900Y00016909D01*
X00046920Y00017081D01*
X00046954Y00017250D01*
X00047001Y00017416D01*
X00047061Y00017578D01*
X00047133Y00017735D01*
X00047217Y00017886D01*
X00047313Y00018030D01*
X00047420Y00018165D01*
X00047538Y00018292D01*
X00047664Y00018409D01*
X00047800Y00018516D01*
X00047944Y00018612D01*
X00048094Y00018697D01*
X00048251Y00018769D01*
X00048413Y00018829D01*
X00048580Y00018876D01*
X00048749Y00018909D01*
X00048921Y00018930D01*
X00049093Y00018937D01*
X00049294Y00018937D01*
X00049320Y00018936D01*
X00049345Y00018933D01*
X00049371Y00018929D01*
X00049396Y00018923D01*
X00049420Y00018916D01*
X00049444Y00018907D01*
X00049468Y00018896D01*
X00049490Y00018884D01*
X00049512Y00018871D01*
X00049533Y00018856D01*
X00049553Y00018840D01*
X00049572Y00018822D01*
X00049589Y00018804D01*
X00049606Y00018784D01*
X00049621Y00018763D01*
X00049634Y00018742D01*
X00049646Y00018719D01*
X00049657Y00018696D01*
X00049666Y00018672D01*
X00049674Y00018647D01*
X00049728Y00018451D01*
X00049736Y00018415D01*
X00049741Y00018379D01*
X00049742Y00018343D01*
X00049740Y00018307D01*
X00049735Y00018271D01*
X00049727Y00018236D01*
X00049715Y00018202D01*
X00049700Y00018169D01*
X00049682Y00018137D01*
X00049662Y00018107D01*
X00049639Y00018080D01*
X00049613Y00018054D01*
X00049585Y00018031D01*
X00049555Y00018011D01*
X00049523Y00017993D01*
X00049490Y00017979D01*
X00049456Y00017967D01*
X00049421Y00017959D01*
X00049385Y00017954D01*
X00049349Y00017952D01*
X00049120Y00017952D01*
X00049105Y00017952D01*
X00049013Y00017948D01*
X00048983Y00017946D01*
X00048918Y00017938D01*
X00048888Y00017934D01*
X00048825Y00017921D01*
X00048795Y00017914D01*
X00048733Y00017896D01*
X00048703Y00017887D01*
X00048643Y00017864D01*
X00048614Y00017853D01*
X00048556Y00017826D01*
X00048528Y00017812D01*
X00048472Y00017780D01*
X00048446Y00017764D01*
X00048392Y00017728D01*
X00048367Y00017710D01*
X00048316Y00017670D01*
X00048293Y00017650D01*
X00048245Y00017606D01*
X00048224Y00017584D01*
X00048180Y00017537D01*
X00048160Y00017513D01*
X00048120Y00017463D01*
X00048102Y00017438D01*
X00048066Y00017384D01*
X00048050Y00017358D01*
X00048018Y00017302D01*
X00048004Y00017274D01*
X00047977Y00017215D01*
X00047965Y00017187D01*
X00047943Y00017126D01*
X00047933Y00017097D01*
X00047916Y00017035D01*
X00047909Y00017005D01*
X00047896Y00016942D01*
X00047891Y00016911D01*
X00047884Y00016847D01*
X00047881Y00016816D01*
X00047878Y00016730D01*
X00047878Y00016712D01*
X00047890Y00015115D01*
X00047890Y00015103D01*
X00047891Y00015092D01*
X00047892Y00015081D01*
X00047893Y00015070D01*
X00047894Y00015059D01*
X00047896Y00015048D01*
X00047898Y00015037D01*
X00047901Y00015026D01*
X00047904Y00015015D01*
X00047907Y00015004D01*
X00047910Y00014994D01*
X00047914Y00014983D01*
X00047918Y00014973D01*
X00047922Y00014962D01*
X00047927Y00014952D01*
X00047931Y00014942D01*
X00047936Y00014932D01*
X00047942Y00014922D01*
X00047948Y00014913D01*
X00047954Y00014903D01*
X00047960Y00014894D01*
X00047966Y00014885D01*
X00047973Y00014876D01*
X00047980Y00014867D01*
X00047987Y00014859D01*
X00047995Y00014850D01*
X00048002Y00014842D01*
X00048010Y00014834D01*
X00048019Y00014827D01*
X00048027Y00014819D01*
X00048036Y00014812D01*
X00048044Y00014805D01*
X00048053Y00014798D01*
X00048062Y00014792D01*
X00048072Y00014786D01*
X00048081Y00014780D01*
X00048091Y00014774D01*
X00048101Y00014769D01*
X00048111Y00014764D01*
X00048121Y00014759D01*
X00048131Y00014755D01*
X00048142Y00014750D01*
X00048152Y00014747D01*
X00048163Y00014743D01*
X00048173Y00014740D01*
X00048184Y00014737D01*
X00048195Y00014734D01*
X00048206Y00014732D01*
X00048217Y00014730D01*
X00048228Y00014728D01*
X00048239Y00014726D01*
X00048250Y00014725D01*
X00048261Y00014725D01*
X00048273Y00014724D01*
X00048284Y00014724D01*
X00049685Y00014724D01*
X00049738Y00014720D01*
X00049791Y00014709D01*
X00049842Y00014691D01*
X00049890Y00014666D01*
X00049934Y00014635D01*
X00049973Y00014598D01*
X00050007Y00014556D01*
X00050035Y00014509D01*
X00050056Y00014460D01*
X00050071Y00014408D01*
X00050078Y00014354D01*
X00050077Y00014300D01*
X00050069Y00014246D01*
X00050054Y00014195D01*
X00050032Y00014145D01*
X00050004Y00014099D01*
X00049969Y00014058D01*
X00049929Y00014022D01*
X00049884Y00013991D01*
X00049836Y00013967D01*
X00049364Y00013770D01*
X00049357Y00013767D01*
X00049350Y00013764D01*
X00049343Y00013762D01*
X00049335Y00013759D01*
X00049328Y00013757D01*
X00049320Y00013755D01*
X00049313Y00013753D01*
X00049305Y00013751D01*
X00049298Y00013749D01*
X00049290Y00013747D01*
X00049282Y00013746D01*
X00049275Y00013745D01*
X00049267Y00013743D01*
X00049259Y00013742D01*
X00049252Y00013742D01*
X00049244Y00013741D01*
X00049236Y00013740D01*
X00049228Y00013740D01*
X00049221Y00013740D01*
X00049213Y00013740D01*
X00045693Y00013740D01*
X00045729Y00013711D01*
X00045729Y00008964D01*
X00045728Y00008939D01*
X00045726Y00008913D01*
X00045721Y00008888D01*
X00045716Y00008863D01*
X00045708Y00008839D01*
X00045700Y00008815D01*
X00045689Y00008792D01*
X00045677Y00008769D01*
X00045664Y00008748D01*
X00045649Y00008727D01*
X00045633Y00008707D01*
X00045616Y00008688D01*
X00045598Y00008671D01*
X00045578Y00008654D01*
X00045558Y00008639D01*
X00045536Y00008626D01*
X00045514Y00008613D01*
X00045491Y00008602D01*
X00045467Y00008593D01*
X00045443Y00008585D01*
X00045168Y00008507D01*
X00045132Y00008498D01*
X00045096Y00008493D01*
X00045060Y00008492D01*
X00045023Y00008493D01*
X00044987Y00008498D01*
X00044952Y00008507D01*
X00044918Y00008518D01*
X00044884Y00008533D01*
X00044852Y00008551D01*
X00044822Y00008571D01*
X00044794Y00008594D01*
X00044769Y00008620D01*
X00044745Y00008648D01*
X00044725Y00008678D01*
X00044707Y00008710D01*
X00044692Y00008743D01*
X00044681Y00008778D01*
X00044673Y00008813D01*
X00044668Y00008849D01*
X00044666Y00008885D01*
X00044666Y00017845D01*
X00043249Y00017845D01*
X00043263Y00015940D01*
X00043256Y00015767D01*
X00043236Y00015596D01*
X00043202Y00015426D01*
X00043156Y00015260D01*
X00043096Y00015098D01*
X00043023Y00014941D01*
X00042939Y00014790D01*
X00042843Y00014647D01*
X00042736Y00014511D01*
X00042619Y00014384D01*
X00042492Y00014267D01*
X00042356Y00014160D01*
X00042213Y00014064D01*
X00042062Y00013979D01*
X00041905Y00013907D01*
X00041743Y00013847D01*
X00041577Y00013800D01*
X00041407Y00013767D01*
X00041236Y00013746D01*
X00041063Y00013740D01*
X00040550Y00013740D01*
X00040542Y00013740D01*
X00040534Y00013740D01*
X00040527Y00013740D01*
X00040519Y00013741D01*
X00040511Y00013742D01*
X00040503Y00013742D01*
X00040496Y00013743D01*
X00040488Y00013745D01*
X00040480Y00013746D01*
X00040473Y00013747D01*
X00040465Y00013749D01*
X00040458Y00013751D01*
X00040450Y00013753D01*
X00040442Y00013755D01*
X00040435Y00013757D01*
X00040428Y00013759D01*
X00040420Y00013762D01*
X00040413Y00013764D01*
X00040406Y00013767D01*
X00040398Y00013770D01*
X00039927Y00013967D01*
X00039878Y00013991D01*
X00039834Y00014022D01*
X00039794Y00014058D01*
X00039759Y00014099D01*
X00039731Y00014145D01*
X00039709Y00014195D01*
X00039694Y00014246D01*
X00039686Y00014300D01*
X00039685Y00014354D01*
X00039692Y00014408D01*
X00039706Y00014460D01*
X00039728Y00014509D01*
X00039755Y00014556D01*
X00039789Y00014598D01*
X00039829Y00014635D01*
X00039873Y00014666D01*
X00039921Y00014691D01*
X00039971Y00014709D01*
X00040024Y00014720D01*
X00040078Y00014724D01*
X00041036Y00014724D01*
X00041052Y00014724D01*
X00041143Y00014728D01*
X00041174Y00014730D01*
X00041238Y00014738D01*
X00041269Y00014743D01*
X00041332Y00014755D01*
X00041362Y00014762D01*
X00041424Y00014780D01*
X00041453Y00014789D01*
X00041514Y00014812D01*
X00041542Y00014824D01*
X00041601Y00014851D01*
X00041628Y00014865D01*
X00041685Y00014896D01*
X00041711Y00014912D01*
X00041765Y00014948D01*
X00041790Y00014966D01*
X00041840Y00015006D01*
X00041864Y00015026D01*
X00041911Y00015070D01*
X00041933Y00015092D01*
X00041977Y00015139D01*
X00041997Y00015163D01*
X00042037Y00015213D01*
X00042055Y00015238D01*
X00042091Y00015292D01*
X00042107Y00015318D01*
X00042138Y00015375D01*
X00042152Y00015402D01*
X00042179Y00015461D01*
X00042191Y00015489D01*
X00042213Y00015550D01*
X00042223Y00015579D01*
X00042241Y00015641D01*
X00042248Y00015671D01*
X00042260Y00015734D01*
X00042265Y00015765D01*
X00042273Y00015829D01*
X00042275Y00015860D01*
X00042279Y00015946D01*
X00042279Y00015964D01*
X00042266Y00017562D01*
X00042266Y00017573D01*
X00042266Y00017584D01*
X00042265Y00017595D01*
X00042264Y00017606D01*
X00042262Y00017617D01*
X00042260Y00017628D01*
X00042258Y00017639D01*
X00042256Y00017650D01*
X00042253Y00017661D01*
X00042250Y00017672D01*
X00042246Y00017683D01*
X00042243Y00017693D01*
X00042239Y00017704D01*
X00042235Y00017714D01*
X00042230Y00017724D01*
X00042225Y00017734D01*
X00042220Y00017744D01*
X00042215Y00017754D01*
X00042209Y00017764D01*
X00042203Y00017773D01*
X00042197Y00017782D01*
X00042190Y00017791D01*
X00042183Y00017800D01*
X00042176Y00017809D01*
X00042169Y00017818D01*
X00042162Y00017826D01*
X00042154Y00017834D01*
X00042146Y00017842D01*
X00042138Y00017850D01*
X00042130Y00017857D01*
X00042121Y00017864D01*
X00042112Y00017871D01*
X00042103Y00017878D01*
X00042094Y00017884D01*
X00042085Y00017890D01*
X00042075Y00017896D01*
X00042066Y00017902D01*
X00042056Y00017907D01*
X00042046Y00017912D01*
X00042036Y00017917D01*
X00042025Y00017922D01*
X00042015Y00017926D01*
X00042004Y00017930D01*
X00041994Y00017933D01*
X00041983Y00017936D01*
X00041972Y00017939D01*
X00041962Y00017942D01*
X00041951Y00017944D01*
X00041940Y00017947D01*
X00041929Y00017948D01*
X00041917Y00017950D01*
X00041906Y00017951D01*
X00041895Y00017952D01*
X00041884Y00017952D01*
X00041873Y00017952D01*
X00040414Y00017952D01*
X00038267Y00018927D02*
X00038267Y00018927D01*
X00038303Y00018930D01*
X00038339Y00018929D01*
X00038375Y00018925D01*
X00038410Y00018917D01*
X00038445Y00018907D01*
X00038478Y00018893D01*
X00038510Y00018877D01*
X00038541Y00018857D01*
X00038569Y00018835D01*
X00038596Y00018810D01*
X00038620Y00018783D01*
X00038641Y00018754D01*
X00038660Y00018723D01*
X00038675Y00018691D01*
X00038688Y00018657D01*
X00038697Y00018622D01*
X00038704Y00018586D01*
X00038707Y00018550D01*
X00038706Y00018514D01*
X00038703Y00018478D01*
X00038673Y00018277D01*
X00038668Y00018251D01*
X00038662Y00018226D01*
X00038654Y00018202D01*
X00038645Y00018178D01*
X00038634Y00018155D01*
X00038621Y00018132D01*
X00038608Y00018111D01*
X00038592Y00018090D01*
X00038576Y00018070D01*
X00038558Y00018052D01*
X00038539Y00018035D01*
X00038519Y00018019D01*
X00038498Y00018004D01*
X00038476Y00017991D01*
X00038453Y00017979D01*
X00038429Y00017968D01*
X00038405Y00017960D01*
X00038380Y00017953D01*
X00038355Y00017947D01*
X00038330Y00017943D01*
X00038330Y00017943D01*
X00038289Y00017938D01*
X00038258Y00017934D01*
X00038195Y00017921D01*
X00038165Y00017914D01*
X00038103Y00017896D01*
X00038073Y00017887D01*
X00038013Y00017864D01*
X00037984Y00017853D01*
X00037926Y00017826D01*
X00037898Y00017812D01*
X00037842Y00017780D01*
X00037816Y00017764D01*
X00037762Y00017728D01*
X00037737Y00017710D01*
X00037686Y00017670D01*
X00037663Y00017650D01*
X00037615Y00017606D01*
X00037594Y00017584D01*
X00037550Y00017537D01*
X00037530Y00017513D01*
X00037490Y00017463D01*
X00037472Y00017438D01*
X00037436Y00017384D01*
X00037420Y00017358D01*
X00037388Y00017302D01*
X00037374Y00017274D01*
X00037347Y00017215D01*
X00037335Y00017187D01*
X00037313Y00017126D01*
X00037304Y00017097D01*
X00037286Y00017035D01*
X00037279Y00017005D01*
X00037266Y00016942D01*
X00037261Y00016911D01*
X00037254Y00016847D01*
X00037251Y00016816D01*
X00037248Y00016730D01*
X00037248Y00016712D01*
X00037260Y00015115D01*
X00037260Y00015103D01*
X00037261Y00015092D01*
X00037262Y00015081D01*
X00037263Y00015070D01*
X00037264Y00015059D01*
X00037266Y00015048D01*
X00037268Y00015037D01*
X00037271Y00015026D01*
X00037274Y00015015D01*
X00037277Y00015004D01*
X00037280Y00014994D01*
X00037284Y00014983D01*
X00037288Y00014973D01*
X00037292Y00014962D01*
X00037297Y00014952D01*
X00037301Y00014942D01*
X00037307Y00014932D01*
X00037312Y00014922D01*
X00037318Y00014913D01*
X00037324Y00014903D01*
X00037330Y00014894D01*
X00037336Y00014885D01*
X00037343Y00014876D01*
X00037350Y00014867D01*
X00037357Y00014859D01*
X00037365Y00014850D01*
X00037373Y00014842D01*
X00037380Y00014834D01*
X00037389Y00014827D01*
X00037397Y00014819D01*
X00037406Y00014812D01*
X00037414Y00014805D01*
X00037423Y00014798D01*
X00037433Y00014792D01*
X00037442Y00014786D01*
X00037451Y00014780D01*
X00037461Y00014774D01*
X00037471Y00014769D01*
X00037481Y00014764D01*
X00037491Y00014759D01*
X00037501Y00014755D01*
X00037512Y00014750D01*
X00037522Y00014747D01*
X00037533Y00014743D01*
X00037543Y00014740D01*
X00037554Y00014737D01*
X00037565Y00014734D01*
X00037576Y00014732D01*
X00037587Y00014730D01*
X00037598Y00014728D01*
X00037609Y00014726D01*
X00037620Y00014725D01*
X00037631Y00014725D01*
X00037643Y00014724D01*
X00037654Y00014724D01*
X00038661Y00014724D01*
X00038715Y00014720D01*
X00038768Y00014709D01*
X00038819Y00014691D01*
X00038866Y00014666D01*
X00038910Y00014635D01*
X00038950Y00014598D01*
X00038984Y00014556D01*
X00039012Y00014509D01*
X00039033Y00014460D01*
X00039047Y00014408D01*
X00039054Y00014354D01*
X00039053Y00014300D01*
X00039046Y00014246D01*
X00039031Y00014195D01*
X00039008Y00014145D01*
X00038980Y00014099D01*
X00038945Y00014058D01*
X00038905Y00014022D01*
X00038861Y00013991D01*
X00038813Y00013967D01*
X00038341Y00013770D01*
X00038334Y00013767D01*
X00038326Y00013764D01*
X00038319Y00013762D01*
X00038312Y00013759D01*
X00038304Y00013757D01*
X00038297Y00013755D01*
X00038289Y00013753D01*
X00038282Y00013751D01*
X00038274Y00013749D01*
X00038266Y00013747D01*
X00038259Y00013746D01*
X00038251Y00013745D01*
X00038243Y00013743D01*
X00038236Y00013742D01*
X00038228Y00013742D01*
X00038220Y00013741D01*
X00038212Y00013740D01*
X00038205Y00013740D01*
X00038197Y00013740D01*
X00038189Y00013740D01*
X00035063Y00013740D01*
X00035099Y00013711D01*
X00035099Y00008964D01*
X00035098Y00008939D01*
X00035096Y00008913D01*
X00035092Y00008888D01*
X00035086Y00008863D01*
X00035079Y00008839D01*
X00035070Y00008815D01*
X00035059Y00008792D01*
X00035047Y00008769D01*
X00035034Y00008748D01*
X00035019Y00008727D01*
X00035004Y00008707D01*
X00034986Y00008688D01*
X00034968Y00008671D01*
X00034948Y00008654D01*
X00034928Y00008639D01*
X00034906Y00008626D01*
X00034884Y00008613D01*
X00034861Y00008602D01*
X00034837Y00008593D01*
X00034813Y00008585D01*
X00034538Y00008507D01*
X00034502Y00008498D01*
X00034466Y00008493D01*
X00034430Y00008492D01*
X00034394Y00008493D01*
X00034357Y00008498D01*
X00034322Y00008507D01*
X00034288Y00008518D01*
X00034254Y00008533D01*
X00034223Y00008551D01*
X00034192Y00008571D01*
X00034165Y00008594D01*
X00034139Y00008620D01*
X00034116Y00008648D01*
X00034095Y00008678D01*
X00034077Y00008710D01*
X00034063Y00008743D01*
X00034051Y00008778D01*
X00034043Y00008813D01*
X00034038Y00008849D01*
X00034036Y00008885D01*
X00034036Y00017845D01*
X00032619Y00017845D01*
X00032633Y00015940D01*
X00032627Y00015767D01*
X00032606Y00015596D01*
X00032573Y00015426D01*
X00032526Y00015260D01*
X00032466Y00015098D01*
X00032394Y00014941D01*
X00032309Y00014790D01*
X00032213Y00014647D01*
X00032106Y00014511D01*
X00031989Y00014384D01*
X00031862Y00014267D01*
X00031726Y00014160D01*
X00031583Y00014064D01*
X00031432Y00013979D01*
X00031275Y00013907D01*
X00031113Y00013847D01*
X00030947Y00013800D01*
X00030778Y00013767D01*
X00030606Y00013746D01*
X00030433Y00013740D01*
X00030314Y00013740D01*
X00030306Y00013740D01*
X00030298Y00013740D01*
X00030290Y00013740D01*
X00030283Y00013741D01*
X00030275Y00013742D01*
X00030267Y00013742D01*
X00030260Y00013743D01*
X00030252Y00013745D01*
X00030244Y00013746D01*
X00030236Y00013747D01*
X00030229Y00013749D01*
X00030221Y00013751D01*
X00030214Y00013753D01*
X00030206Y00013755D01*
X00030199Y00013757D01*
X00030191Y00013759D01*
X00030184Y00013762D01*
X00030177Y00013764D01*
X00030169Y00013767D01*
X00030162Y00013770D01*
X00029690Y00013967D01*
X00029642Y00013991D01*
X00029598Y00014022D01*
X00029558Y00014058D01*
X00029523Y00014099D01*
X00029494Y00014145D01*
X00029472Y00014195D01*
X00029457Y00014246D01*
X00029449Y00014300D01*
X00029449Y00014354D01*
X00029456Y00014408D01*
X00029470Y00014460D01*
X00029491Y00014509D01*
X00029519Y00014556D01*
X00029553Y00014598D01*
X00029592Y00014635D01*
X00029636Y00014666D01*
X00029684Y00014691D01*
X00029735Y00014709D01*
X00029788Y00014720D01*
X00029842Y00014724D01*
X00030406Y00014724D01*
X00030422Y00014724D01*
X00030513Y00014728D01*
X00030544Y00014730D01*
X00030608Y00014738D01*
X00030639Y00014743D01*
X00030702Y00014755D01*
X00030732Y00014762D01*
X00030794Y00014780D01*
X00030823Y00014789D01*
X00030884Y00014812D01*
X00030912Y00014824D01*
X00030971Y00014851D01*
X00030998Y00014865D01*
X00031055Y00014896D01*
X00031081Y00014912D01*
X00031135Y00014948D01*
X00031160Y00014966D01*
X00031210Y00015006D01*
X00031234Y00015026D01*
X00031281Y00015070D01*
X00031303Y00015092D01*
X00031347Y00015139D01*
X00031367Y00015163D01*
X00031407Y00015213D01*
X00031425Y00015238D01*
X00031461Y00015292D01*
X00031477Y00015318D01*
X00031508Y00015375D01*
X00031522Y00015402D01*
X00031549Y00015461D01*
X00031561Y00015489D01*
X00031584Y00015550D01*
X00031593Y00015579D01*
X00031611Y00015641D01*
X00031618Y00015671D01*
X00031630Y00015734D01*
X00031635Y00015765D01*
X00031643Y00015829D01*
X00031645Y00015860D01*
X00031649Y00015946D01*
X00031649Y00015964D01*
X00031637Y00017562D01*
X00031636Y00017573D01*
X00031636Y00017584D01*
X00031635Y00017595D01*
X00031634Y00017606D01*
X00031632Y00017617D01*
X00031630Y00017628D01*
X00031628Y00017639D01*
X00031626Y00017650D01*
X00031623Y00017661D01*
X00031620Y00017672D01*
X00031617Y00017683D01*
X00031613Y00017693D01*
X00031609Y00017704D01*
X00031605Y00017714D01*
X00031600Y00017724D01*
X00031595Y00017734D01*
X00031590Y00017744D01*
X00031585Y00017754D01*
X00031579Y00017764D01*
X00031573Y00017773D01*
X00031567Y00017782D01*
X00031560Y00017791D01*
X00031554Y00017800D01*
X00031547Y00017809D01*
X00031539Y00017818D01*
X00031532Y00017826D01*
X00031524Y00017834D01*
X00031516Y00017842D01*
X00031508Y00017850D01*
X00031500Y00017857D01*
X00031491Y00017864D01*
X00031482Y00017871D01*
X00031473Y00017878D01*
X00031464Y00017884D01*
X00031455Y00017890D01*
X00031445Y00017896D01*
X00031436Y00017902D01*
X00031426Y00017907D01*
X00031416Y00017912D01*
X00031406Y00017917D01*
X00031395Y00017922D01*
X00031385Y00017926D01*
X00031375Y00017930D01*
X00031364Y00017933D01*
X00031353Y00017936D01*
X00031342Y00017939D01*
X00031332Y00017942D01*
X00031321Y00017944D01*
X00031310Y00017947D01*
X00031299Y00017948D01*
X00031288Y00017950D01*
X00031276Y00017951D01*
X00031265Y00017952D01*
X00031254Y00017952D01*
X00031243Y00017952D01*
X00030178Y00017952D01*
X00030142Y00017954D01*
X00030106Y00017959D01*
X00030071Y00017967D01*
X00030036Y00017979D01*
X00030003Y00017993D01*
X00029972Y00018011D01*
X00029942Y00018031D01*
X00029914Y00018054D01*
X00029888Y00018080D01*
X00029865Y00018107D01*
X00029844Y00018137D01*
X00029826Y00018169D01*
X00029812Y00018202D01*
X00029800Y00018236D01*
X00029791Y00018271D01*
X00029786Y00018307D01*
X00029784Y00018343D01*
X00029786Y00018379D01*
X00029790Y00018415D01*
X00029798Y00018451D01*
X00029853Y00018647D01*
X00029860Y00018672D01*
X00029869Y00018696D01*
X00029880Y00018719D01*
X00029892Y00018742D01*
X00029906Y00018763D01*
X00029921Y00018784D01*
X00029937Y00018804D01*
X00029955Y00018822D01*
X00029974Y00018840D01*
X00029994Y00018856D01*
X00030015Y00018871D01*
X00030036Y00018884D01*
X00030059Y00018896D01*
X00030082Y00018907D01*
X00030106Y00018916D01*
X00030131Y00018923D01*
X00030156Y00018929D01*
X00030181Y00018933D01*
X00030207Y00018936D01*
X00030232Y00018937D01*
X00033833Y00018937D01*
X00033798Y00018965D01*
X00033798Y00022531D01*
X00033799Y00022557D01*
X00033801Y00022582D01*
X00033805Y00022607D01*
X00033811Y00022632D01*
X00033818Y00022656D01*
X00033827Y00022680D01*
X00033837Y00022703D01*
X00033849Y00022726D01*
X00033862Y00022747D01*
X00033877Y00022768D01*
X00033893Y00022788D01*
X00033910Y00022807D01*
X00033929Y00022824D01*
X00033948Y00022841D01*
X00033969Y00022856D01*
X00033990Y00022870D01*
X00034012Y00022882D01*
X00034036Y00022893D01*
X00034059Y00022902D01*
X00034083Y00022910D01*
X00034359Y00022988D01*
X00034394Y00022997D01*
X00034430Y00023002D01*
X00034467Y00023003D01*
X00034503Y00023002D01*
X00034539Y00022997D01*
X00034575Y00022988D01*
X00034609Y00022977D01*
X00034642Y00022962D01*
X00034674Y00022944D01*
X00034704Y00022924D01*
X00034732Y00022901D01*
X00034758Y00022875D01*
X00034781Y00022847D01*
X00034802Y00022817D01*
X00034819Y00022785D01*
X00034834Y00022752D01*
X00034846Y00022717D01*
X00034854Y00022682D01*
X00034859Y00022646D01*
X00034861Y00022610D01*
X00034861Y00014831D01*
X00036278Y00014831D01*
X00036263Y00016737D01*
X00036270Y00016909D01*
X00036290Y00017081D01*
X00036324Y00017250D01*
X00036371Y00017416D01*
X00036431Y00017578D01*
X00036503Y00017735D01*
X00036587Y00017886D01*
X00036683Y00018030D01*
X00036790Y00018165D01*
X00036908Y00018292D01*
X00037034Y00018409D01*
X00037170Y00018516D01*
X00037314Y00018612D01*
X00037465Y00018697D01*
X00037621Y00018769D01*
X00037783Y00018829D01*
X00037950Y00018876D01*
X00038119Y00018909D01*
X00038267Y00018927D01*
X00019154Y00017952D02*
X00019154Y00017952D01*
X00019118Y00017954D01*
X00019082Y00017959D01*
X00019047Y00017967D01*
X00019013Y00017979D01*
X00018980Y00017993D01*
X00018948Y00018011D01*
X00018918Y00018031D01*
X00018890Y00018054D01*
X00018864Y00018080D01*
X00018841Y00018107D01*
X00018821Y00018137D01*
X00018803Y00018169D01*
X00018788Y00018202D01*
X00018776Y00018236D01*
X00018768Y00018271D01*
X00018763Y00018307D01*
X00018761Y00018343D01*
X00018762Y00018379D01*
X00018767Y00018415D01*
X00018775Y00018451D01*
X00018829Y00018647D01*
X00018837Y00018672D01*
X00018846Y00018696D01*
X00018857Y00018719D01*
X00018869Y00018742D01*
X00018882Y00018763D01*
X00018897Y00018784D01*
X00018914Y00018804D01*
X00018931Y00018822D01*
X00018950Y00018840D01*
X00018970Y00018856D01*
X00018991Y00018871D01*
X00019013Y00018884D01*
X00019035Y00018896D01*
X00019059Y00018907D01*
X00019083Y00018916D01*
X00019107Y00018923D01*
X00019132Y00018929D01*
X00019157Y00018933D01*
X00019183Y00018936D01*
X00019209Y00018937D01*
X00023203Y00018937D01*
X00023168Y00018965D01*
X00023168Y00022531D01*
X00023169Y00022557D01*
X00023171Y00022582D01*
X00023175Y00022607D01*
X00023181Y00022632D01*
X00023188Y00022656D01*
X00023197Y00022680D01*
X00023207Y00022703D01*
X00023219Y00022726D01*
X00023233Y00022747D01*
X00023247Y00022768D01*
X00023263Y00022788D01*
X00023280Y00022807D01*
X00023299Y00022824D01*
X00023318Y00022841D01*
X00023339Y00022856D01*
X00023360Y00022870D01*
X00023383Y00022882D01*
X00023406Y00022893D01*
X00023429Y00022902D01*
X00023453Y00022910D01*
X00023729Y00022988D01*
X00023764Y00022997D01*
X00023801Y00023002D01*
X00023837Y00023003D01*
X00023873Y00023002D01*
X00023909Y00022997D01*
X00023945Y00022988D01*
X00023979Y00022977D01*
X00024012Y00022962D01*
X00024044Y00022944D01*
X00024074Y00022924D01*
X00024102Y00022901D01*
X00024128Y00022875D01*
X00024151Y00022847D01*
X00024172Y00022817D01*
X00024189Y00022785D01*
X00024204Y00022752D01*
X00024216Y00022717D01*
X00024224Y00022682D01*
X00024229Y00022646D01*
X00024231Y00022610D01*
X00024231Y00014831D01*
X00025648Y00014831D01*
X00025633Y00016737D01*
X00025640Y00016909D01*
X00025660Y00017081D01*
X00025694Y00017250D01*
X00025741Y00017416D01*
X00025801Y00017578D01*
X00025873Y00017735D01*
X00025958Y00017886D01*
X00026054Y00018030D01*
X00026160Y00018165D01*
X00026278Y00018292D01*
X00026405Y00018409D01*
X00026540Y00018516D01*
X00026684Y00018612D01*
X00026835Y00018697D01*
X00026991Y00018769D01*
X00027154Y00018829D01*
X00027320Y00018876D01*
X00027489Y00018909D01*
X00027661Y00018930D01*
X00027833Y00018937D01*
X00028035Y00018937D01*
X00028060Y00018936D01*
X00028086Y00018933D01*
X00028111Y00018929D01*
X00028136Y00018923D01*
X00028160Y00018916D01*
X00028184Y00018907D01*
X00028208Y00018896D01*
X00028230Y00018884D01*
X00028252Y00018871D01*
X00028273Y00018856D01*
X00028293Y00018840D01*
X00028312Y00018822D01*
X00028329Y00018804D01*
X00028346Y00018784D01*
X00028361Y00018763D01*
X00028374Y00018742D01*
X00028387Y00018719D01*
X00028397Y00018696D01*
X00028406Y00018672D01*
X00028414Y00018647D01*
X00028468Y00018451D01*
X00028476Y00018415D01*
X00028481Y00018379D01*
X00028482Y00018343D01*
X00028481Y00018307D01*
X00028475Y00018271D01*
X00028467Y00018236D01*
X00028455Y00018202D01*
X00028440Y00018169D01*
X00028423Y00018137D01*
X00028402Y00018107D01*
X00028379Y00018080D01*
X00028353Y00018054D01*
X00028325Y00018031D01*
X00028295Y00018011D01*
X00028264Y00017993D01*
X00028230Y00017979D01*
X00028196Y00017967D01*
X00028161Y00017959D01*
X00028125Y00017954D01*
X00028089Y00017952D01*
X00027860Y00017952D01*
X00027845Y00017952D01*
X00027754Y00017948D01*
X00027723Y00017946D01*
X00027659Y00017938D01*
X00027628Y00017934D01*
X00027565Y00017921D01*
X00027535Y00017914D01*
X00027473Y00017896D01*
X00027443Y00017887D01*
X00027383Y00017864D01*
X00027354Y00017853D01*
X00027296Y00017826D01*
X00027268Y00017812D01*
X00027212Y00017780D01*
X00027186Y00017764D01*
X00027132Y00017728D01*
X00027107Y00017710D01*
X00027056Y00017670D01*
X00027033Y00017650D01*
X00026986Y00017606D01*
X00026964Y00017584D01*
X00026920Y00017537D01*
X00026900Y00017513D01*
X00026860Y00017463D01*
X00026842Y00017438D01*
X00026806Y00017384D01*
X00026790Y00017358D01*
X00026758Y00017302D01*
X00026744Y00017274D01*
X00026717Y00017215D01*
X00026706Y00017187D01*
X00026683Y00017126D01*
X00026674Y00017097D01*
X00026656Y00017035D01*
X00026649Y00017005D01*
X00026636Y00016942D01*
X00026632Y00016911D01*
X00026624Y00016847D01*
X00026622Y00016816D01*
X00026618Y00016730D01*
X00026618Y00016712D01*
X00026630Y00015115D01*
X00026630Y00015103D01*
X00026631Y00015092D01*
X00026632Y00015081D01*
X00026633Y00015070D01*
X00026635Y00015059D01*
X00026636Y00015048D01*
X00026639Y00015037D01*
X00026641Y00015026D01*
X00026644Y00015015D01*
X00026647Y00015004D01*
X00026650Y00014994D01*
X00026654Y00014983D01*
X00026658Y00014973D01*
X00026662Y00014962D01*
X00026667Y00014952D01*
X00026672Y00014942D01*
X00026677Y00014932D01*
X00026682Y00014922D01*
X00026688Y00014913D01*
X00026694Y00014903D01*
X00026700Y00014894D01*
X00026706Y00014885D01*
X00026713Y00014876D01*
X00026720Y00014867D01*
X00026727Y00014859D01*
X00026735Y00014850D01*
X00026743Y00014842D01*
X00026751Y00014834D01*
X00026759Y00014827D01*
X00026767Y00014819D01*
X00026776Y00014812D01*
X00026784Y00014805D01*
X00026793Y00014798D01*
X00026803Y00014792D01*
X00026812Y00014786D01*
X00026821Y00014780D01*
X00026831Y00014774D01*
X00026841Y00014769D01*
X00026851Y00014764D01*
X00026861Y00014759D01*
X00026871Y00014755D01*
X00026882Y00014750D01*
X00026892Y00014747D01*
X00026903Y00014743D01*
X00026913Y00014740D01*
X00026924Y00014737D01*
X00026935Y00014734D01*
X00026946Y00014732D01*
X00026957Y00014730D01*
X00026968Y00014728D01*
X00026979Y00014726D01*
X00026990Y00014725D01*
X00027001Y00014725D01*
X00027013Y00014724D01*
X00027024Y00014724D01*
X00028425Y00014724D01*
X00028479Y00014720D01*
X00028531Y00014709D01*
X00028582Y00014691D01*
X00028630Y00014666D01*
X00028674Y00014635D01*
X00028714Y00014598D01*
X00028747Y00014556D01*
X00028775Y00014509D01*
X00028797Y00014460D01*
X00028811Y00014408D01*
X00028818Y00014354D01*
X00028817Y00014300D01*
X00028809Y00014246D01*
X00028794Y00014195D01*
X00028772Y00014145D01*
X00028744Y00014099D01*
X00028709Y00014058D01*
X00028669Y00014022D01*
X00028625Y00013991D01*
X00028576Y00013967D01*
X00028105Y00013770D01*
X00028097Y00013767D01*
X00028090Y00013764D01*
X00028083Y00013762D01*
X00028075Y00013759D01*
X00028068Y00013757D01*
X00028060Y00013755D01*
X00028053Y00013753D01*
X00028045Y00013751D01*
X00028038Y00013749D01*
X00028030Y00013747D01*
X00028023Y00013746D01*
X00028015Y00013745D01*
X00028007Y00013743D01*
X00027999Y00013742D01*
X00027992Y00013742D01*
X00027984Y00013741D01*
X00027976Y00013740D01*
X00027968Y00013740D01*
X00027961Y00013740D01*
X00027953Y00013740D01*
X00024433Y00013740D01*
X00024469Y00013711D01*
X00024469Y00008964D01*
X00024468Y00008939D01*
X00024466Y00008913D01*
X00024462Y00008888D01*
X00024456Y00008863D01*
X00024449Y00008839D01*
X00024440Y00008815D01*
X00024429Y00008792D01*
X00024418Y00008769D01*
X00024404Y00008748D01*
X00024390Y00008727D01*
X00024374Y00008707D01*
X00024356Y00008688D01*
X00024338Y00008671D01*
X00024318Y00008654D01*
X00024298Y00008639D01*
X00024277Y00008626D01*
X00024254Y00008613D01*
X00024231Y00008602D01*
X00024208Y00008593D01*
X00024183Y00008585D01*
X00023908Y00008507D01*
X00023872Y00008498D01*
X00023836Y00008493D01*
X00023800Y00008492D01*
X00023764Y00008493D01*
X00023728Y00008498D01*
X00023692Y00008507D01*
X00023658Y00008518D01*
X00023624Y00008533D01*
X00023593Y00008551D01*
X00023563Y00008571D01*
X00023535Y00008594D01*
X00023509Y00008620D01*
X00023486Y00008648D01*
X00023465Y00008678D01*
X00023447Y00008710D01*
X00023433Y00008743D01*
X00023421Y00008778D01*
X00023413Y00008813D01*
X00023408Y00008849D01*
X00023406Y00008885D01*
X00023406Y00017845D01*
X00021989Y00017845D01*
X00022003Y00015940D01*
X00021997Y00015767D01*
X00021976Y00015596D01*
X00021943Y00015426D01*
X00021896Y00015260D01*
X00021836Y00015098D01*
X00021764Y00014941D01*
X00021679Y00014790D01*
X00021583Y00014647D01*
X00021476Y00014511D01*
X00021359Y00014384D01*
X00021232Y00014267D01*
X00021097Y00014160D01*
X00020953Y00014064D01*
X00020802Y00013979D01*
X00020645Y00013907D01*
X00020483Y00013847D01*
X00020317Y00013800D01*
X00020148Y00013767D01*
X00019976Y00013746D01*
X00019803Y00013740D01*
X00019290Y00013740D01*
X00019282Y00013740D01*
X00019275Y00013740D01*
X00019267Y00013740D01*
X00019259Y00013741D01*
X00019251Y00013742D01*
X00019244Y00013742D01*
X00019236Y00013743D01*
X00019228Y00013745D01*
X00019221Y00013746D01*
X00019213Y00013747D01*
X00019205Y00013749D01*
X00019198Y00013751D01*
X00019190Y00013753D01*
X00019183Y00013755D01*
X00019175Y00013757D01*
X00019168Y00013759D01*
X00019160Y00013762D01*
X00019153Y00013764D01*
X00019146Y00013767D01*
X00019139Y00013770D01*
X00018667Y00013967D01*
X00018618Y00013991D01*
X00018574Y00014022D01*
X00018534Y00014058D01*
X00018499Y00014099D01*
X00018471Y00014145D01*
X00018449Y00014195D01*
X00018434Y00014246D01*
X00018426Y00014300D01*
X00018425Y00014354D01*
X00018432Y00014408D01*
X00018447Y00014460D01*
X00018468Y00014509D01*
X00018496Y00014556D01*
X00018530Y00014598D01*
X00018569Y00014635D01*
X00018613Y00014666D01*
X00018661Y00014691D01*
X00018712Y00014709D01*
X00018765Y00014720D01*
X00018818Y00014724D01*
X00019776Y00014724D01*
X00019792Y00014724D01*
X00019883Y00014728D01*
X00019914Y00014730D01*
X00019978Y00014738D01*
X00020009Y00014743D01*
X00020072Y00014755D01*
X00020102Y00014762D01*
X00020164Y00014780D01*
X00020193Y00014789D01*
X00020254Y00014812D01*
X00020283Y00014824D01*
X00020341Y00014851D01*
X00020368Y00014865D01*
X00020425Y00014896D01*
X00020451Y00014912D01*
X00020505Y00014948D01*
X00020530Y00014966D01*
X00020580Y00015006D01*
X00020604Y00015026D01*
X00020651Y00015070D01*
X00020673Y00015092D01*
X00020717Y00015139D01*
X00020737Y00015163D01*
X00020777Y00015213D01*
X00020795Y00015238D01*
X00020831Y00015292D01*
X00020847Y00015318D01*
X00020878Y00015375D01*
X00020892Y00015402D01*
X00020919Y00015461D01*
X00020931Y00015489D01*
X00020954Y00015550D01*
X00020963Y00015579D01*
X00020981Y00015641D01*
X00020988Y00015671D01*
X00021000Y00015734D01*
X00021005Y00015765D01*
X00021013Y00015829D01*
X00021015Y00015860D01*
X00021019Y00015946D01*
X00021019Y00015964D01*
X00021007Y00017562D01*
X00021006Y00017573D01*
X00021006Y00017584D01*
X00021005Y00017595D01*
X00021004Y00017606D01*
X00021002Y00017617D01*
X00021000Y00017628D01*
X00020998Y00017639D01*
X00020996Y00017650D01*
X00020993Y00017661D01*
X00020990Y00017672D01*
X00020987Y00017683D01*
X00020983Y00017693D01*
X00020979Y00017704D01*
X00020975Y00017714D01*
X00020970Y00017724D01*
X00020965Y00017734D01*
X00020960Y00017744D01*
X00020955Y00017754D01*
X00020949Y00017764D01*
X00020943Y00017773D01*
X00020937Y00017782D01*
X00020930Y00017791D01*
X00020924Y00017800D01*
X00020917Y00017809D01*
X00020909Y00017818D01*
X00020902Y00017826D01*
X00020894Y00017834D01*
X00020886Y00017842D01*
X00020878Y00017850D01*
X00020870Y00017857D01*
X00020861Y00017864D01*
X00020852Y00017871D01*
X00020843Y00017878D01*
X00020834Y00017884D01*
X00020825Y00017890D01*
X00020815Y00017896D01*
X00020806Y00017902D01*
X00020796Y00017907D01*
X00020786Y00017912D01*
X00020776Y00017917D01*
X00020765Y00017922D01*
X00020755Y00017926D01*
X00020745Y00017930D01*
X00020734Y00017933D01*
X00020723Y00017936D01*
X00020713Y00017939D01*
X00020702Y00017942D01*
X00020691Y00017944D01*
X00020680Y00017947D01*
X00020669Y00017948D01*
X00020658Y00017950D01*
X00020646Y00017951D01*
X00020635Y00017952D01*
X00020624Y00017952D01*
X00020613Y00017952D01*
X00019154Y00017952D01*
X00008524Y00017952D02*
X00008524Y00017952D01*
X00008488Y00017954D01*
X00008452Y00017959D01*
X00008417Y00017967D01*
X00008383Y00017979D01*
X00008350Y00017993D01*
X00008318Y00018011D01*
X00008288Y00018031D01*
X00008260Y00018054D01*
X00008234Y00018080D01*
X00008211Y00018107D01*
X00008191Y00018137D01*
X00008173Y00018169D01*
X00008158Y00018202D01*
X00008146Y00018236D01*
X00008138Y00018271D01*
X00008133Y00018307D01*
X00008131Y00018343D01*
X00008132Y00018379D01*
X00008137Y00018415D01*
X00008145Y00018451D01*
X00008199Y00018647D01*
X00008207Y00018672D01*
X00008216Y00018696D01*
X00008227Y00018719D01*
X00008239Y00018742D01*
X00008252Y00018763D01*
X00008267Y00018784D01*
X00008284Y00018804D01*
X00008301Y00018822D01*
X00008320Y00018840D01*
X00008340Y00018856D01*
X00008361Y00018871D01*
X00008383Y00018884D01*
X00008405Y00018896D01*
X00008429Y00018907D01*
X00008453Y00018916D01*
X00008477Y00018923D01*
X00008502Y00018929D01*
X00008528Y00018933D01*
X00008553Y00018936D01*
X00008579Y00018937D01*
X00012574Y00018937D01*
X00012538Y00018965D01*
X00012538Y00022531D01*
X00012538Y00022531D01*
X00012539Y00022557D01*
X00012541Y00022582D01*
X00012545Y00022607D01*
X00012551Y00022632D01*
X00012558Y00022656D01*
X00012567Y00022680D01*
X00012577Y00022703D01*
X00012589Y00022726D01*
X00012603Y00022747D01*
X00012617Y00022768D01*
X00012633Y00022788D01*
X00012650Y00022807D01*
X00012669Y00022824D01*
X00012688Y00022841D01*
X00012709Y00022856D01*
X00012730Y00022870D01*
X00012753Y00022882D01*
X00012776Y00022893D01*
X00012799Y00022902D01*
X00012824Y00022910D01*
X00013099Y00022988D01*
X00013135Y00022997D01*
X00013171Y00023002D01*
X00013207Y00023003D01*
X00013243Y00023002D01*
X00013279Y00022997D01*
X00013315Y00022988D01*
X00013349Y00022977D01*
X00013382Y00022962D01*
X00013414Y00022944D01*
X00013444Y00022924D01*
X00013472Y00022901D01*
X00013498Y00022875D01*
X00013521Y00022847D01*
X00013542Y00022817D01*
X00013560Y00022785D01*
X00013574Y00022752D01*
X00013586Y00022717D01*
X00013594Y00022682D01*
X00013599Y00022646D01*
X00013601Y00022610D01*
X00013601Y00014831D01*
X00015018Y00014831D01*
X00015003Y00016737D01*
X00015010Y00016909D01*
X00015031Y00017081D01*
X00015064Y00017250D01*
X00015111Y00017416D01*
X00015171Y00017578D01*
X00015243Y00017735D01*
X00015328Y00017886D01*
X00015424Y00018030D01*
X00015531Y00018165D01*
X00015648Y00018292D01*
X00015775Y00018409D01*
X00015910Y00018516D01*
X00016054Y00018612D01*
X00016205Y00018697D01*
X00016362Y00018769D01*
X00016524Y00018829D01*
X00016690Y00018876D01*
X00016859Y00018909D01*
X00017007Y00018927D01*
X00017043Y00018930D01*
X00017079Y00018929D01*
X00017115Y00018925D01*
X00017151Y00018917D01*
X00017185Y00018907D01*
X00017219Y00018893D01*
X00017251Y00018877D01*
X00017281Y00018857D01*
X00017309Y00018835D01*
X00017336Y00018810D01*
X00017360Y00018783D01*
X00017381Y00018754D01*
X00017400Y00018723D01*
X00017415Y00018691D01*
X00017428Y00018657D01*
X00017438Y00018622D01*
X00017444Y00018586D01*
X00017447Y00018550D01*
X00017447Y00018514D01*
X00017443Y00018478D01*
X00017413Y00018277D01*
X00017409Y00018251D01*
X00017402Y00018226D01*
X00017394Y00018202D01*
X00017385Y00018178D01*
X00017374Y00018155D01*
X00017362Y00018132D01*
X00017348Y00018111D01*
X00017332Y00018090D01*
X00017316Y00018070D01*
X00017298Y00018052D01*
X00017279Y00018035D01*
X00017259Y00018019D01*
X00017238Y00018004D01*
X00017216Y00017991D01*
X00017193Y00017979D01*
X00017169Y00017968D01*
X00017145Y00017960D01*
X00017120Y00017953D01*
X00017095Y00017947D01*
X00017070Y00017943D01*
X00017029Y00017938D01*
X00016998Y00017934D01*
X00016935Y00017921D01*
X00016905Y00017914D01*
X00016843Y00017896D01*
X00016814Y00017887D01*
X00016753Y00017864D01*
X00016724Y00017853D01*
X00016666Y00017826D01*
X00016638Y00017812D01*
X00016582Y00017780D01*
X00016556Y00017764D01*
X00016502Y00017728D01*
X00016477Y00017710D01*
X00016427Y00017670D01*
X00016403Y00017650D01*
X00016356Y00017606D01*
X00016334Y00017584D01*
X00016290Y00017537D01*
X00016270Y00017513D01*
X00016230Y00017463D01*
X00016212Y00017438D01*
X00016176Y00017384D01*
X00016160Y00017358D01*
X00016128Y00017302D01*
X00016114Y00017274D01*
X00016087Y00017215D01*
X00016076Y00017187D01*
X00016053Y00017126D01*
X00016044Y00017097D01*
X00016026Y00017035D01*
X00016019Y00017005D01*
X00016006Y00016942D01*
X00016002Y00016911D01*
X00015994Y00016847D01*
X00015992Y00016816D01*
X00015988Y00016730D01*
X00015988Y00016712D01*
X00016000Y00015115D01*
X00016000Y00015103D01*
X00016001Y00015092D01*
X00016002Y00015081D01*
X00016003Y00015070D01*
X00016005Y00015059D01*
X00016006Y00015048D01*
X00016009Y00015037D01*
X00016011Y00015026D01*
X00016014Y00015015D01*
X00016017Y00015004D01*
X00016020Y00014994D01*
X00016024Y00014983D01*
X00016028Y00014973D01*
X00016032Y00014962D01*
X00016037Y00014952D01*
X00016042Y00014942D01*
X00016047Y00014932D01*
X00016052Y00014922D01*
X00016058Y00014913D01*
X00016064Y00014903D01*
X00016070Y00014894D01*
X00016077Y00014885D01*
X00016083Y00014876D01*
X00016090Y00014867D01*
X00016097Y00014859D01*
X00016105Y00014850D01*
X00016113Y00014842D01*
X00016121Y00014834D01*
X00016129Y00014827D01*
X00016137Y00014819D01*
X00016146Y00014812D01*
X00016155Y00014805D01*
X00016164Y00014798D01*
X00016173Y00014792D01*
X00016182Y00014786D01*
X00016192Y00014780D01*
X00016201Y00014774D01*
X00016211Y00014769D01*
X00016221Y00014764D01*
X00016231Y00014759D01*
X00016241Y00014755D01*
X00016252Y00014750D01*
X00016262Y00014747D01*
X00016273Y00014743D01*
X00016284Y00014740D01*
X00016294Y00014737D01*
X00016305Y00014734D01*
X00016316Y00014732D01*
X00016327Y00014730D01*
X00016338Y00014728D01*
X00016349Y00014726D01*
X00016360Y00014725D01*
X00016372Y00014725D01*
X00016383Y00014724D01*
X00016394Y00014724D01*
X00017401Y00014724D01*
X00017455Y00014720D01*
X00017508Y00014709D01*
X00017559Y00014691D01*
X00017607Y00014666D01*
X00017651Y00014635D01*
X00017690Y00014598D01*
X00017724Y00014556D01*
X00017752Y00014509D01*
X00017773Y00014460D01*
X00017787Y00014408D01*
X00017794Y00014354D01*
X00017794Y00014300D01*
X00017786Y00014246D01*
X00017771Y00014195D01*
X00017749Y00014145D01*
X00017720Y00014099D01*
X00017685Y00014058D01*
X00017646Y00014022D01*
X00017601Y00013991D01*
X00017553Y00013967D01*
X00017081Y00013770D01*
X00017074Y00013767D01*
X00017066Y00013764D01*
X00017059Y00013762D01*
X00017052Y00013759D01*
X00017044Y00013757D01*
X00017037Y00013755D01*
X00017029Y00013753D01*
X00017022Y00013751D01*
X00017014Y00013749D01*
X00017007Y00013747D01*
X00016999Y00013746D01*
X00016991Y00013745D01*
X00016984Y00013743D01*
X00016976Y00013742D01*
X00016968Y00013742D01*
X00016960Y00013741D01*
X00016953Y00013740D01*
X00016945Y00013740D01*
X00016937Y00013740D01*
X00016929Y00013740D01*
X00013803Y00013740D01*
X00013839Y00013711D01*
X00013839Y00008964D01*
X00013838Y00008939D01*
X00013836Y00008913D01*
X00013832Y00008888D01*
X00013826Y00008863D01*
X00013819Y00008839D01*
X00013810Y00008815D01*
X00013799Y00008792D01*
X00013788Y00008769D01*
X00013774Y00008748D01*
X00013760Y00008727D01*
X00013744Y00008707D01*
X00013726Y00008688D01*
X00013708Y00008671D01*
X00013689Y00008654D01*
X00013668Y00008639D01*
X00013647Y00008626D01*
X00013624Y00008613D01*
X00013601Y00008602D01*
X00013578Y00008593D01*
X00013553Y00008585D01*
X00013278Y00008507D01*
X00013242Y00008498D01*
X00013206Y00008493D01*
X00013170Y00008492D01*
X00013134Y00008493D01*
X00013098Y00008498D01*
X00013062Y00008507D01*
X00013028Y00008518D01*
X00012994Y00008533D01*
X00012963Y00008551D01*
X00012933Y00008571D01*
X00012905Y00008594D01*
X00012879Y00008620D01*
X00012856Y00008648D01*
X00012835Y00008678D01*
X00012817Y00008710D01*
X00012803Y00008743D01*
X00012791Y00008778D01*
X00012783Y00008813D01*
X00012778Y00008849D01*
X00012776Y00008885D01*
X00012776Y00017845D01*
X00011359Y00017845D01*
X00011374Y00015940D01*
X00011367Y00015767D01*
X00011346Y00015596D01*
X00011313Y00015426D01*
X00011266Y00015260D01*
X00011206Y00015098D01*
X00011134Y00014941D01*
X00011049Y00014790D01*
X00010953Y00014647D01*
X00010846Y00014511D01*
X00010729Y00014384D01*
X00010602Y00014267D01*
X00010467Y00014160D01*
X00010323Y00014064D01*
X00010172Y00013979D01*
X00010015Y00013907D01*
X00009853Y00013847D01*
X00009687Y00013800D01*
X00009518Y00013767D01*
X00009346Y00013746D01*
X00009174Y00013740D01*
X00008660Y00013740D01*
X00008652Y00013740D01*
X00008645Y00013740D01*
X00008637Y00013740D01*
X00008629Y00013741D01*
X00008621Y00013742D01*
X00008614Y00013742D01*
X00008606Y00013743D01*
X00008598Y00013745D01*
X00008591Y00013746D01*
X00008583Y00013747D01*
X00008575Y00013749D01*
X00008568Y00013751D01*
X00008560Y00013753D01*
X00008553Y00013755D01*
X00008545Y00013757D01*
X00008538Y00013759D01*
X00008530Y00013762D01*
X00008523Y00013764D01*
X00008516Y00013767D01*
X00008509Y00013770D01*
X00008037Y00013967D01*
X00007989Y00013991D01*
X00007944Y00014022D01*
X00007904Y00014058D01*
X00007869Y00014099D01*
X00007841Y00014145D01*
X00007819Y00014195D01*
X00007804Y00014246D01*
X00007796Y00014300D01*
X00007795Y00014354D01*
X00007802Y00014408D01*
X00007817Y00014460D01*
X00007838Y00014509D01*
X00007866Y00014556D01*
X00007900Y00014598D01*
X00007939Y00014635D01*
X00007983Y00014666D01*
X00008031Y00014691D01*
X00008082Y00014709D01*
X00008135Y00014720D01*
X00008188Y00014724D01*
X00009146Y00014724D01*
X00009162Y00014724D01*
X00009253Y00014728D01*
X00009284Y00014730D01*
X00009348Y00014738D01*
X00009379Y00014743D01*
X00009442Y00014755D01*
X00009472Y00014762D01*
X00009534Y00014780D01*
X00009563Y00014789D01*
X00009624Y00014812D01*
X00009653Y00014824D01*
X00009711Y00014851D01*
X00009739Y00014865D01*
X00009795Y00014896D01*
X00009821Y00014912D01*
X00009875Y00014948D01*
X00009900Y00014966D01*
X00009950Y00015006D01*
X00009974Y00015026D01*
X00010021Y00015070D01*
X00010043Y00015092D01*
X00010087Y00015139D01*
X00010107Y00015163D01*
X00010147Y00015213D01*
X00010165Y00015238D01*
X00010201Y00015292D01*
X00010217Y00015318D01*
X00010248Y00015375D01*
X00010263Y00015402D01*
X00010290Y00015461D01*
X00010301Y00015489D01*
X00010324Y00015550D01*
X00010333Y00015579D01*
X00010351Y00015641D01*
X00010358Y00015671D01*
X00010371Y00015734D01*
X00010375Y00015765D01*
X00010383Y00015829D01*
X00010385Y00015860D01*
X00010389Y00015946D01*
X00010389Y00015964D01*
X00010377Y00017562D01*
X00010376Y00017573D01*
X00010376Y00017584D01*
X00010375Y00017595D01*
X00010374Y00017606D01*
X00010372Y00017617D01*
X00010370Y00017628D01*
X00010368Y00017639D01*
X00010366Y00017650D01*
X00010363Y00017661D01*
X00010360Y00017672D01*
X00010357Y00017683D01*
X00010353Y00017693D01*
X00010349Y00017704D01*
X00010345Y00017714D01*
X00010340Y00017724D01*
X00010335Y00017734D01*
X00010330Y00017744D01*
X00010325Y00017754D01*
X00010319Y00017764D01*
X00010313Y00017773D01*
X00010307Y00017782D01*
X00010300Y00017791D01*
X00010294Y00017800D01*
X00010287Y00017809D01*
X00010279Y00017818D01*
X00010272Y00017826D01*
X00010264Y00017834D01*
X00010256Y00017842D01*
X00010248Y00017850D01*
X00010240Y00017857D01*
X00010231Y00017864D01*
X00010222Y00017871D01*
X00010213Y00017878D01*
X00010204Y00017884D01*
X00010195Y00017890D01*
X00010185Y00017896D01*
X00010176Y00017902D01*
X00010166Y00017907D01*
X00010156Y00017912D01*
X00010146Y00017917D01*
X00010136Y00017922D01*
X00010125Y00017926D01*
X00010115Y00017930D01*
X00010104Y00017933D01*
X00010093Y00017936D01*
X00010083Y00017939D01*
X00010072Y00017942D01*
X00010061Y00017944D01*
X00010050Y00017947D01*
X00010039Y00017948D01*
X00010028Y00017950D01*
X00010017Y00017951D01*
X00010005Y00017952D01*
X00009994Y00017952D01*
X00009983Y00017952D01*
X00008524Y00017952D01*
X00006377Y00018927D02*
X00006377Y00018927D01*
X00006413Y00018930D01*
X00006449Y00018929D01*
X00006485Y00018925D01*
X00006521Y00018917D01*
X00006555Y00018907D01*
X00006589Y00018893D01*
X00006621Y00018877D01*
X00006651Y00018857D01*
X00006680Y00018835D01*
X00006706Y00018810D01*
X00006730Y00018783D01*
X00006751Y00018754D01*
X00006770Y00018723D01*
X00006786Y00018691D01*
X00006798Y00018657D01*
X00006808Y00018622D01*
X00006814Y00018586D01*
X00006817Y00018550D01*
X00006817Y00018514D01*
X00006813Y00018478D01*
X00006783Y00018277D01*
X00006779Y00018251D01*
X00006772Y00018226D01*
X00006765Y00018202D01*
X00006755Y00018178D01*
X00006744Y00018155D01*
X00006732Y00018132D01*
X00006718Y00018111D01*
X00006703Y00018090D01*
X00006686Y00018070D01*
X00006668Y00018052D01*
X00006649Y00018035D01*
X00006629Y00018019D01*
X00006608Y00018004D01*
X00006586Y00017991D01*
X00006563Y00017979D01*
X00006539Y00017968D01*
X00006515Y00017960D01*
X00006491Y00017953D01*
X00006465Y00017947D01*
X00006440Y00017943D01*
X00006399Y00017938D01*
X00006368Y00017934D01*
X00006305Y00017921D01*
X00006275Y00017914D01*
X00006213Y00017896D01*
X00006184Y00017887D01*
X00006123Y00017864D01*
X00006094Y00017853D01*
X00006036Y00017826D01*
X00006008Y00017812D01*
X00005952Y00017780D01*
X00005926Y00017764D01*
X00005872Y00017728D01*
X00005847Y00017710D01*
X00005797Y00017670D01*
X00005773Y00017650D01*
X00005726Y00017606D01*
X00005704Y00017584D01*
X00005660Y00017537D01*
X00005640Y00017513D01*
X00005600Y00017463D01*
X00005582Y00017438D01*
X00005546Y00017384D01*
X00005530Y00017358D01*
X00005499Y00017302D01*
X00005484Y00017274D01*
X00005457Y00017215D01*
X00005446Y00017187D01*
X00005423Y00017126D01*
X00005414Y00017097D01*
X00005396Y00017035D01*
X00005389Y00017005D01*
X00005377Y00016942D01*
X00005372Y00016911D01*
X00005364Y00016847D01*
X00005362Y00016816D01*
X00005358Y00016730D01*
X00005358Y00016712D01*
X00005370Y00015115D01*
X00005371Y00015103D01*
X00005371Y00015092D01*
X00005372Y00015081D01*
X00005373Y00015070D01*
X00005375Y00015059D01*
X00005377Y00015048D01*
X00005379Y00015037D01*
X00005381Y00015026D01*
X00005384Y00015015D01*
X00005387Y00015004D01*
X00005390Y00014994D01*
X00005394Y00014983D01*
X00005398Y00014973D01*
X00005402Y00014962D01*
X00005407Y00014952D01*
X00005412Y00014942D01*
X00005417Y00014932D01*
X00005422Y00014922D01*
X00005428Y00014913D01*
X00005434Y00014903D01*
X00005440Y00014894D01*
X00005447Y00014885D01*
X00005453Y00014876D01*
X00005460Y00014867D01*
X00005468Y00014859D01*
X00005475Y00014850D01*
X00005483Y00014842D01*
X00005491Y00014834D01*
X00005499Y00014827D01*
X00005507Y00014819D01*
X00005516Y00014812D01*
X00005525Y00014805D01*
X00005534Y00014798D01*
X00005543Y00014792D01*
X00005552Y00014786D01*
X00005562Y00014780D01*
X00005571Y00014774D01*
X00005581Y00014769D01*
X00005591Y00014764D01*
X00005601Y00014759D01*
X00005611Y00014755D01*
X00005622Y00014750D01*
X00005632Y00014747D01*
X00005643Y00014743D01*
X00005654Y00014740D01*
X00005664Y00014737D01*
X00005675Y00014734D01*
X00005686Y00014732D01*
X00005697Y00014730D01*
X00005708Y00014728D01*
X00005719Y00014726D01*
X00005730Y00014725D01*
X00005742Y00014725D01*
X00005753Y00014724D01*
X00005764Y00014724D01*
X00006771Y00014724D01*
X00006825Y00014720D01*
X00006878Y00014709D01*
X00006929Y00014691D01*
X00006977Y00014666D01*
X00007021Y00014635D01*
X00007060Y00014598D01*
X00007094Y00014556D01*
X00007122Y00014509D01*
X00007143Y00014460D01*
X00007157Y00014408D01*
X00007164Y00014354D01*
X00007164Y00014300D01*
X00007156Y00014246D01*
X00007141Y00014195D01*
X00007119Y00014145D01*
X00007090Y00014099D01*
X00007056Y00014058D01*
X00007016Y00014022D01*
X00006971Y00013991D01*
X00006923Y00013967D01*
X00006451Y00013770D01*
X00006444Y00013767D01*
X00006436Y00013764D01*
X00006429Y00013762D01*
X00006422Y00013759D01*
X00006414Y00013757D01*
X00006407Y00013755D01*
X00006399Y00013753D01*
X00006392Y00013751D01*
X00006384Y00013749D01*
X00006377Y00013747D01*
X00006369Y00013746D01*
X00006361Y00013745D01*
X00006354Y00013743D01*
X00006346Y00013742D01*
X00006338Y00013742D01*
X00006330Y00013741D01*
X00006323Y00013740D01*
X00006315Y00013740D01*
X00006307Y00013740D01*
X00006299Y00013740D01*
X00003174Y00013740D01*
X00003209Y00013711D01*
X00003209Y00008964D01*
X00003208Y00008937D01*
X00003205Y00008909D01*
X00003201Y00008882D01*
X00003194Y00008856D01*
X00003186Y00008830D01*
X00003175Y00008804D01*
X00003163Y00008779D01*
X00003150Y00008756D01*
X00003134Y00008733D01*
X00003117Y00008711D01*
X00003099Y00008691D01*
X00003079Y00008672D01*
X00003058Y00008654D01*
X00003036Y00008638D01*
X00003013Y00008623D01*
X00002989Y00008610D01*
X00002964Y00008599D01*
X00002938Y00008590D01*
X00002912Y00008582D01*
X00002885Y00008576D01*
X00002688Y00008541D01*
X00002654Y00008537D01*
X00002619Y00008535D01*
X00002585Y00008537D01*
X00002551Y00008541D01*
X00002517Y00008548D01*
X00002485Y00008559D01*
X00002453Y00008572D01*
X00002422Y00008588D01*
X00002393Y00008606D01*
X00002366Y00008627D01*
X00002341Y00008650D01*
X00002317Y00008675D01*
X00002296Y00008703D01*
X00002278Y00008732D01*
X00002262Y00008762D01*
X00002249Y00008794D01*
X00002238Y00008827D01*
X00002231Y00008860D01*
X00002226Y00008894D01*
X00002225Y00008929D01*
X00002225Y00013049D01*
X00002225Y00013061D01*
X00002224Y00013072D01*
X00002223Y00013083D01*
X00002222Y00013095D01*
X00002221Y00013106D01*
X00002219Y00013117D01*
X00002217Y00013128D01*
X00002214Y00013140D01*
X00002212Y00013151D01*
X00002209Y00013162D01*
X00002205Y00013172D01*
X00002202Y00013183D01*
X00002198Y00013194D01*
X00002193Y00013204D01*
X00002189Y00013215D01*
X00002184Y00013225D01*
X00002178Y00013235D01*
X00002173Y00013245D01*
X00002167Y00013255D01*
X00002161Y00013264D01*
X00002155Y00013274D01*
X00002148Y00013283D01*
X00002141Y00013292D01*
X00002134Y00013301D01*
X00002127Y00013310D01*
X00002119Y00013318D01*
X00002111Y00013326D01*
X00002103Y00013334D01*
X00002095Y00013342D01*
X00002086Y00013349D01*
X00002077Y00013357D01*
X00002016Y00013406D01*
X00002014Y00013408D01*
X00002015Y00013410D01*
X00002041Y00013484D01*
X00002044Y00013495D01*
X00002047Y00013506D01*
X00002050Y00013516D01*
X00002053Y00013528D01*
X00002055Y00013539D01*
X00002057Y00013550D01*
X00002059Y00013561D01*
X00002061Y00013572D01*
X00002062Y00013584D01*
X00002062Y00013595D01*
X00002063Y00013606D01*
X00002063Y00013618D01*
X00002062Y00013629D01*
X00002062Y00013640D01*
X00002061Y00013652D01*
X00002060Y00013663D01*
X00002058Y00013674D01*
X00002056Y00013685D01*
X00002054Y00013696D01*
X00002052Y00013708D01*
X00002049Y00013718D01*
X00002046Y00013729D01*
X00002042Y00013740D01*
X00002038Y00013751D01*
X00002034Y00013761D01*
X00002030Y00013772D01*
X00002025Y00013782D01*
X00002020Y00013792D01*
X00002015Y00013803D01*
X00002009Y00013812D01*
X00002003Y00013822D01*
X00001997Y00013832D01*
X00001991Y00013841D01*
X00001989Y00013844D01*
X00001987Y00013847D01*
X00001987Y00013847D01*
X00001987Y00013850D01*
X00001987Y00022502D01*
X00001987Y00022523D01*
X00001989Y00022544D01*
X00001992Y00022564D01*
X00001996Y00022585D01*
X00002001Y00022605D01*
X00002007Y00022626D01*
X00002014Y00022645D01*
X00002022Y00022665D01*
X00002031Y00022684D01*
X00002042Y00022702D01*
X00002053Y00022720D01*
X00002065Y00022737D01*
X00002078Y00022754D01*
X00002092Y00022769D01*
X00002106Y00022784D01*
X00002122Y00022799D01*
X00002138Y00022812D01*
X00002155Y00022824D01*
X00002173Y00022836D01*
X00002191Y00022847D01*
X00002388Y00022955D01*
X00002424Y00022973D01*
X00002463Y00022986D01*
X00002502Y00022996D01*
X00002543Y00023002D01*
X00002584Y00023003D01*
X00002624Y00023001D01*
X00002664Y00022994D01*
X00002704Y00022983D01*
X00002742Y00022967D01*
X00002778Y00022949D01*
X00002812Y00022926D01*
X00002843Y00022900D01*
X00002872Y00022871D01*
X00002897Y00022839D01*
X00002919Y00022805D01*
X00002938Y00022768D01*
X00002952Y00022730D01*
X00002962Y00022691D01*
X00002969Y00022650D01*
X00002971Y00022610D01*
X00002971Y00014831D01*
X00004388Y00014831D01*
X00004374Y00016737D01*
X00004380Y00016909D01*
X00004401Y00017081D01*
X00004434Y00017250D01*
X00004481Y00017416D01*
X00004541Y00017578D01*
X00004613Y00017735D01*
X00004698Y00017886D01*
X00004794Y00018030D01*
X00004901Y00018165D01*
X00005018Y00018292D01*
X00005145Y00018409D01*
X00005280Y00018516D01*
X00005424Y00018612D01*
X00005575Y00018697D01*
X00005732Y00018769D01*
X00005894Y00018829D01*
X00006060Y00018876D01*
X00006229Y00018909D01*
X00006377Y00018927D01*
M02*