M48
;DRILL file {KiCad 4.0.5+dfsg1-4} date Wed Feb 28 09:20:55 2018
;FORMAT={-:-/ absolute / inch / decimal}
FMAT,2
INCH,TZ
T1C0.030
T2C0.032
T3C0.035
T4C0.039
T5C0.040
T6C0.051
T7C0.060
T8C0.098
T9C0.122
%
G90
G05
M72
T1
X0.4575Y-0.225
X0.4575Y-1.6
X1.6175Y-0.225
T2
X0.2575Y-0.735
X0.3Y-0.225
X0.3Y-1.6
X0.36Y-0.73
X0.37Y-0.47
X0.3787Y-0.225
X0.3787Y-1.6
X0.4225Y-1.2975
X0.5362Y-0.225
X0.5362Y-1.6
X0.7275Y-0.47
X0.835Y-1.4525
X0.8425Y-1.3475
X0.9375Y-1.26
X1.475Y-0.565
X1.475Y-1.085
X1.475Y-1.1675
X1.475Y-1.6025
X1.5388Y-0.225
X1.6963Y-0.225
X1.775Y-0.225
T3
X0.205Y-0.45
X0.575Y-0.45
T4
X1.605Y-0.7694
X1.605Y-0.8679
X1.605Y-0.9466
X1.605Y-1.045
T5
X0.1625Y-1.3325
X0.205Y-0.5775
X0.205Y-1.2025
X0.2625Y-1.3325
X0.575Y-0.5775
X0.575Y-1.2025
X0.775Y-0.74
X0.775Y-0.94
X0.875Y-1.6
X0.975Y-1.6
X0.98Y-0.74
X0.98Y-0.94
X1.075Y-1.6
X1.175Y-1.6
X1.2Y-0.375
X1.3Y-0.375
X1.6Y-1.325
X1.6Y-1.6
X1.7Y-1.325
X1.7Y-1.6
X1.8Y-1.325
X1.8Y-1.6
X1.9Y-1.6
T6
X1.1Y-0.175
X1.2969Y-0.175
T7
X0.2921Y-0.1266
X0.2921Y-0.3234
X0.2921Y-1.5016
X0.2921Y-1.6984
X0.5463Y-0.125
X0.5463Y-0.325
X0.5463Y-1.5
X0.5463Y-1.7
X1.5287Y-0.125
X1.5287Y-0.325
X1.7829Y-0.1266
X1.7829Y-0.3234
T8
X1.7133Y-0.6513
X1.7133Y-1.1631
T9
X0.875Y-0.275
X1.35Y-1.4
T0
M30
