G04 #@! TF.FileFunction,Copper,L2,Bot,Signal*
%FSLAX46Y46*%
G04 Gerber Fmt 4.6, Leading zero omitted, Abs format (unit mm)*
G04 Created by KiCad (PCBNEW 4.0.5+dfsg1-4) date Wed Feb 28 09:20:33 2018*
%MOMM*%
%LPD*%
G01*
G04 APERTURE LIST*
%ADD10C,0.100000*%
%ADD11C,0.150000*%
%ADD12R,1.778000X1.778000*%
%ADD13C,1.778000*%
%ADD14R,1.297940X1.498600*%
%ADD15R,1.498600X1.297940*%
%ADD16C,1.600200*%
%ADD17C,1.524000*%
%ADD18C,3.500120*%
%ADD19R,1.597660X1.800860*%
%ADD20R,2.032000X2.032000*%
%ADD21C,2.032000*%
%ADD22R,2.499360X2.499360*%
%ADD23C,2.499360*%
%ADD24R,0.635000X1.651000*%
%ADD25R,1.016000X0.635000*%
%ADD26R,1.524000X2.032000*%
%ADD27O,1.524000X2.032000*%
%ADD28C,3.101340*%
%ADD29R,0.304800X1.143000*%
%ADD30O,1.524000X1.778000*%
%ADD31O,3.302000X2.540000*%
%ADD32C,0.381000*%
%ADD33C,1.270000*%
%ADD34C,0.762000*%
%ADD35C,1.778000*%
%ADD36C,1.016000*%
%ADD37C,1.524000*%
%ADD38C,0.508000*%
G04 APERTURE END LIST*
D10*
D11*
X0Y0D02*
X0Y-45085000D01*
X50800000Y0D02*
X0Y0D01*
X50800000Y-45085000D02*
X50800000Y0D01*
X0Y-45085000D02*
X50800000Y-45085000D01*
D12*
X24892000Y-18796000D03*
D13*
X24892000Y-23876000D03*
D14*
X29715460Y-28003500D03*
X27815540Y-28003500D03*
X31435040Y-28003500D03*
X33334960Y-28003500D03*
D15*
X35306000Y-29715460D03*
X35306000Y-27815540D03*
D14*
X37652960Y-16637000D03*
X35753040Y-16637000D03*
D15*
X44958000Y-24450040D03*
X44958000Y-26349960D03*
X42926000Y-26349960D03*
X42926000Y-24450040D03*
X37338000Y-24190960D03*
X37338000Y-22291040D03*
X37338000Y-20507960D03*
X37338000Y-18608040D03*
D14*
X25587960Y-26035000D03*
X23688040Y-26035000D03*
D16*
X40767000Y-26543000D03*
D17*
X40767000Y-24043640D03*
X40767000Y-22044660D03*
D16*
X40767000Y-19542760D03*
D18*
X43517820Y-29542740D03*
X43517820Y-16543020D03*
D15*
X45085000Y-12697460D03*
X45085000Y-10797540D03*
D12*
X33020000Y-9525000D03*
D13*
X30480000Y-9525000D03*
D12*
X4127500Y-33845500D03*
D13*
X6667500Y-33845500D03*
D19*
X39855140Y-10922000D03*
X42694860Y-10922000D03*
D20*
X5207000Y-14668500D03*
D21*
X14605000Y-14668500D03*
X5207000Y-30543500D03*
X14605000Y-30543500D03*
D22*
X27940000Y-4445000D03*
D23*
X32941260Y-4445000D03*
D15*
X4572000Y-8950960D03*
X4572000Y-7051040D03*
D12*
X19685000Y-18796000D03*
D13*
X19685000Y-23876000D03*
D15*
X17208500Y-26228040D03*
X17208500Y-28127960D03*
X19177000Y-26228040D03*
X19177000Y-28127960D03*
D24*
X6604000Y-20828000D03*
X7874000Y-20828000D03*
X9144000Y-20828000D03*
X10414000Y-20828000D03*
X11684000Y-20828000D03*
X12954000Y-20828000D03*
X14224000Y-20828000D03*
X15494000Y-20828000D03*
X15494000Y-26543000D03*
X14224000Y-26543000D03*
X12954000Y-26543000D03*
X11684000Y-26543000D03*
X10414000Y-26543000D03*
X9144000Y-26543000D03*
X7874000Y-26543000D03*
X6604000Y-26543000D03*
D10*
G36*
X5934779Y-34788551D02*
X6994449Y-35848221D01*
X6076667Y-36766003D01*
X5016997Y-35706333D01*
X5934779Y-34788551D01*
X5934779Y-34788551D01*
G37*
G36*
X4591333Y-36131997D02*
X5651003Y-37191667D01*
X4733221Y-38109449D01*
X3673551Y-37049779D01*
X4591333Y-36131997D01*
X4591333Y-36131997D01*
G37*
D15*
X4762500Y-24767540D03*
X4762500Y-26667460D03*
X4762500Y-23047960D03*
X4762500Y-21148040D03*
D10*
G36*
X13505151Y-33163949D02*
X14778551Y-34437349D01*
X13648835Y-35567065D01*
X12375435Y-34293665D01*
X13505151Y-33163949D01*
X13505151Y-33163949D01*
G37*
G36*
X11497165Y-35171935D02*
X12770565Y-36445335D01*
X11640849Y-37575051D01*
X10367449Y-36301651D01*
X11497165Y-35171935D01*
X11497165Y-35171935D01*
G37*
D14*
X28254960Y-31750000D03*
X26355040Y-31750000D03*
D25*
X24003000Y-35496500D03*
X24003000Y-34546540D03*
X24003000Y-33596580D03*
X26543000Y-33596580D03*
X26543000Y-34546540D03*
X26543000Y-35496500D03*
D26*
X22225000Y-40640000D03*
D27*
X24765000Y-40640000D03*
D13*
X27305000Y-40640000D03*
X29845000Y-40640000D03*
D28*
X22225000Y-6985000D03*
X34290000Y-35560000D03*
D15*
X40449500Y-31556960D03*
X40449500Y-29657040D03*
D25*
X44450000Y-36385500D03*
X44450000Y-37335460D03*
X44450000Y-38285420D03*
X41910000Y-38285420D03*
X41910000Y-37335460D03*
X41910000Y-36385500D03*
D14*
X46230540Y-38671500D03*
X48130460Y-38671500D03*
D12*
X40640000Y-40640000D03*
D13*
X43180000Y-40640000D03*
X45720000Y-40640000D03*
X48260000Y-40640000D03*
D12*
X45720000Y-33655000D03*
D13*
X43180000Y-33655000D03*
X40640000Y-33655000D03*
D19*
X25250140Y-37465000D03*
X28089860Y-37465000D03*
D29*
X27051000Y-18669000D03*
X27686000Y-18669000D03*
X28321000Y-18669000D03*
X28956000Y-18669000D03*
X29591000Y-18669000D03*
X30226000Y-18669000D03*
X30861000Y-18669000D03*
X31496000Y-18669000D03*
X32131000Y-18669000D03*
X32766000Y-18669000D03*
X33401000Y-18669000D03*
X34036000Y-18669000D03*
X34671000Y-18669000D03*
X35306000Y-18669000D03*
X35306000Y-25336500D03*
X34671000Y-25336500D03*
X34036000Y-25336500D03*
X33401000Y-25336500D03*
X32766000Y-25336500D03*
X32131000Y-25336500D03*
X31496000Y-25336500D03*
X30861000Y-25336500D03*
X30226000Y-25336500D03*
X29591000Y-25336500D03*
X28956000Y-25336500D03*
X28321000Y-25336500D03*
X27686000Y-25336500D03*
X27051000Y-25336500D03*
D13*
X5207000Y-11430000D03*
X14605000Y-11430000D03*
X7620000Y-40640000D03*
D30*
X9620000Y-40640000D03*
X11620000Y-40640000D03*
D13*
X13620000Y-40640000D03*
D31*
X13875000Y-38100000D03*
X13875000Y-43180000D03*
X7420000Y-38140000D03*
X7420000Y-43140000D03*
D13*
X7620000Y-5715000D03*
D30*
X9620000Y-5715000D03*
X11620000Y-5715000D03*
D13*
X13620000Y-5715000D03*
D31*
X13875000Y-3175000D03*
X13875000Y-8255000D03*
X7420000Y-3215000D03*
X7420000Y-8215000D03*
D13*
X45085000Y-5715000D03*
D30*
X43085000Y-5715000D03*
X41085000Y-5715000D03*
D13*
X39085000Y-5715000D03*
D31*
X38830000Y-8255000D03*
X38830000Y-3175000D03*
X45285000Y-8215000D03*
X45285000Y-3215000D03*
D13*
X37465000Y-27559000D03*
X37465000Y-14351000D03*
X37465000Y-40703500D03*
X37465000Y-29654500D03*
X21209000Y-36893500D03*
X10731500Y-32956500D03*
X9398000Y-11938000D03*
X18478500Y-11938000D03*
X6540500Y-18669000D03*
X21399500Y-34226500D03*
X9144000Y-18542000D03*
X23812500Y-32004000D03*
D32*
X27686000Y-18669000D02*
X27686000Y-19685000D01*
X26289000Y-19939000D02*
X25146000Y-18796000D01*
X27432000Y-19939000D02*
X26289000Y-19939000D01*
X27686000Y-19685000D02*
X27432000Y-19939000D01*
X25146000Y-18796000D02*
X24892000Y-18796000D01*
X28321000Y-18669000D02*
X28321000Y-20066000D01*
X28321000Y-20066000D02*
X24892000Y-23876000D01*
X28321000Y-25654000D02*
X28321000Y-26098500D01*
X28321000Y-26098500D02*
X27749500Y-27813000D01*
X27749500Y-27813000D02*
X27813000Y-27813000D01*
X27813000Y-27813000D02*
X27815540Y-28003500D01*
X32766000Y-25654000D02*
X32766000Y-26543000D01*
X32766000Y-26543000D02*
X33147000Y-27622500D01*
X33147000Y-27622500D02*
X33274000Y-27622500D01*
X33274000Y-27622500D02*
X33334960Y-28003500D01*
X34036000Y-25654000D02*
X34036000Y-26098500D01*
X34036000Y-26098500D02*
X35179000Y-27813000D01*
X35179000Y-27813000D02*
X35306000Y-27815540D01*
D33*
X4127500Y-33845500D02*
X4127500Y-35115500D01*
X4127500Y-35115500D02*
X2667000Y-36576000D01*
X2667000Y-36576000D02*
X2667000Y-35115500D01*
X7420000Y-43140000D02*
X6437000Y-43140000D01*
X6437000Y-43140000D02*
X2540000Y-39243000D01*
X2540000Y-39243000D02*
X2540000Y-38462857D01*
D32*
X26670000Y-27159857D02*
X26670000Y-31496000D01*
X26670000Y-31496000D02*
X26289000Y-31877000D01*
X26289000Y-31877000D02*
X26355040Y-31750000D01*
X26670000Y-27159857D02*
X26670000Y-27159857D01*
X26670000Y-27159857D02*
X26307143Y-27159857D01*
X26307143Y-27159857D02*
X25463500Y-28003500D01*
X25463500Y-28003500D02*
X25336500Y-28003500D01*
X25336500Y-28003500D02*
X25463500Y-28003500D01*
D34*
X35179000Y-21717000D02*
X33718500Y-21717000D01*
X33718500Y-21717000D02*
X32766000Y-22669500D01*
X32766000Y-22669500D02*
X32766000Y-22923500D01*
X32766000Y-22923500D02*
X32829500Y-22860000D01*
X32829500Y-22860000D02*
X34861500Y-22860000D01*
X34861500Y-22860000D02*
X35560000Y-22161500D01*
X35560000Y-22161500D02*
X35560000Y-22291040D01*
D35*
X13875000Y-8255000D02*
X13589000Y-8255000D01*
X13589000Y-8255000D02*
X13398500Y-8445500D01*
X13398500Y-8445500D02*
X13398500Y-13271500D01*
X13398500Y-13271500D02*
X14478000Y-14351000D01*
X14478000Y-14351000D02*
X14605000Y-14668500D01*
D36*
X7870000Y-3215000D02*
X7870000Y-3433000D01*
X7870000Y-3433000D02*
X7493000Y-3810000D01*
X7493000Y-3810000D02*
X4381500Y-3810000D01*
X4381500Y-3810000D02*
X2921000Y-5270500D01*
X2921000Y-5270500D02*
X2476500Y-5270500D01*
D35*
X2476500Y-8699500D02*
X2476500Y-5270500D01*
X2476500Y-5270500D02*
X2476500Y-5969000D01*
X2476500Y-5969000D02*
X4889500Y-3556000D01*
X4889500Y-3556000D02*
X4889500Y-2857500D01*
X7870000Y-3215000D02*
X6754500Y-3215000D01*
X2476500Y-8699500D02*
X1397000Y-12065000D01*
X24447500Y-1905000D02*
X24193500Y-1905000D01*
X24193500Y-1905000D02*
X23685500Y-1397000D01*
X23685500Y-1397000D02*
X3365500Y-1397000D01*
X3365500Y-1397000D02*
X1397000Y-3365500D01*
X1397000Y-3365500D02*
X1397000Y-10477500D01*
X44259500Y-1397000D02*
X44958000Y-1397000D01*
X44958000Y-1397000D02*
X46863000Y-3302000D01*
X46863000Y-3302000D02*
X48387000Y-3302000D01*
X48387000Y-3302000D02*
X48387000Y-2413000D01*
X47371000Y-1397000D02*
X48387000Y-2413000D01*
X48387000Y-2413000D02*
X49276000Y-3302000D01*
X49276000Y-3302000D02*
X49276000Y-12001500D01*
X47625000Y-16637000D02*
X47625000Y-12890500D01*
X48514000Y-12001500D02*
X49276000Y-12001500D01*
X47625000Y-12890500D02*
X48514000Y-12001500D01*
X44835000Y-3215000D02*
X46268000Y-3215000D01*
X46268000Y-3215000D02*
X49085500Y-6032500D01*
X49085500Y-6032500D02*
X49085500Y-9779000D01*
X49085500Y-9779000D02*
X47434500Y-11430000D01*
X47434500Y-11430000D02*
X47434500Y-15367000D01*
X47434500Y-15367000D02*
X47625000Y-15367000D01*
X38830000Y-8255000D02*
X36893500Y-8255000D01*
X35750500Y-9271000D02*
X35750500Y-9080500D01*
X35877500Y-9271000D02*
X35750500Y-9271000D01*
X36893500Y-8255000D02*
X35877500Y-9271000D01*
X39085000Y-5715000D02*
X39085000Y-4285500D01*
X39085000Y-4285500D02*
X40386000Y-2984500D01*
X40386000Y-2984500D02*
X38830000Y-3175000D01*
X39085000Y-5715000D02*
X39085000Y-8095500D01*
X39085000Y-8095500D02*
X38925500Y-8255000D01*
X38925500Y-8255000D02*
X38830000Y-8255000D01*
X17653000Y-4191000D02*
X16637000Y-4191000D01*
X16573500Y-4127500D02*
X15875000Y-4127500D01*
X16637000Y-4191000D02*
X16573500Y-4127500D01*
X25082500Y-1905000D02*
X24447500Y-1905000D01*
X24447500Y-1905000D02*
X2921000Y-1905000D01*
X1968500Y-6604000D02*
X2349500Y-6604000D01*
X1587500Y-6604000D02*
X1968500Y-6604000D01*
X1460500Y-6477000D02*
X1587500Y-6604000D01*
X1460500Y-3365500D02*
X1460500Y-6477000D01*
X2921000Y-1905000D02*
X1460500Y-3365500D01*
D36*
X7870000Y-3215000D02*
X6500500Y-3215000D01*
X7870000Y-3215000D02*
X7389500Y-3215000D01*
D33*
X13620000Y-5715000D02*
X13620000Y-4666500D01*
X12128500Y-3175000D02*
X12128500Y-2794000D01*
X13620000Y-4666500D02*
X12128500Y-3175000D01*
X13875000Y-8255000D02*
X13875000Y-3016000D01*
X13875000Y-3016000D02*
X13906500Y-3047500D01*
X13906500Y-3047500D02*
X13906500Y-3048000D01*
X13906500Y-3048000D02*
X13875000Y-3175000D01*
X13620000Y-5715000D02*
X13620000Y-7651000D01*
X13620000Y-7651000D02*
X14097000Y-8128000D01*
X14097000Y-8128000D02*
X13875000Y-8255000D01*
X4127500Y-33845500D02*
X4445000Y-33845500D01*
X4445000Y-33845500D02*
X4762500Y-33528000D01*
X4762500Y-33528000D02*
X4762500Y-34480500D01*
X4762500Y-34480500D02*
X3111500Y-35750500D01*
X3111500Y-35750500D02*
X2603500Y-35750500D01*
D35*
X17843500Y-37719000D02*
X17145000Y-37719000D01*
X16827500Y-38036500D02*
X16827500Y-38481000D01*
X17145000Y-37719000D02*
X16827500Y-38036500D01*
X13620000Y-40640000D02*
X13620000Y-41561500D01*
X11811000Y-43370500D02*
X14414500Y-43370500D01*
X13620000Y-41561500D02*
X11811000Y-43370500D01*
X14414500Y-43370500D02*
X17272000Y-40513000D01*
X17272000Y-40513000D02*
X17272000Y-41021000D01*
X13620000Y-40640000D02*
X13620000Y-38259500D01*
X13620000Y-38259500D02*
X13716000Y-38163500D01*
X13716000Y-38163500D02*
X13875000Y-38100000D01*
D33*
X40640000Y-41783000D02*
X40513000Y-41783000D01*
X40513000Y-41783000D02*
X38989000Y-43307000D01*
X38989000Y-43307000D02*
X38989000Y-43751500D01*
X40640000Y-40640000D02*
X40640000Y-41783000D01*
X40640000Y-41783000D02*
X40640000Y-42291000D01*
X40640000Y-42291000D02*
X42100500Y-43751500D01*
X40640000Y-40640000D02*
X40195500Y-40640000D01*
X40195500Y-40640000D02*
X38290500Y-42545000D01*
X38290500Y-42545000D02*
X30099000Y-42545000D01*
X30099000Y-42545000D02*
X29146500Y-43497500D01*
X29146500Y-43497500D02*
X29146500Y-43751500D01*
X21272500Y-42481500D02*
X20701000Y-42481500D01*
X20701000Y-42481500D02*
X20193000Y-42989500D01*
X20193000Y-42989500D02*
X20193000Y-42098310D01*
X22796500Y-43751500D02*
X22542500Y-43751500D01*
X22542500Y-43751500D02*
X21272500Y-42481500D01*
X21272500Y-42481500D02*
X21145500Y-42354500D01*
X21145500Y-42354500D02*
X21145500Y-41474258D01*
X24701500Y-43751500D02*
X22796500Y-43751500D01*
X22796500Y-43751500D02*
X2476500Y-43751500D01*
X2476500Y-38544500D02*
X2603500Y-38544500D01*
X1143000Y-40259000D02*
X2540000Y-38462857D01*
X2540000Y-38462857D02*
X2476500Y-38544500D01*
X1143000Y-42418000D02*
X1143000Y-40259000D01*
X2476500Y-43751500D02*
X1143000Y-42418000D01*
X42672000Y-43751500D02*
X42100500Y-43751500D01*
X42100500Y-43751500D02*
X38989000Y-43751500D01*
X38989000Y-43751500D02*
X29146500Y-43751500D01*
X29146500Y-43751500D02*
X24701500Y-43751500D01*
X24701500Y-43751500D02*
X23685500Y-43751500D01*
X23685500Y-43751500D02*
X22288500Y-42354500D01*
X22288500Y-42354500D02*
X22288500Y-40576500D01*
X22288500Y-40576500D02*
X22225000Y-40640000D01*
D34*
X49784000Y-38735000D02*
X49784000Y-38100000D01*
X49784000Y-38100000D02*
X49085500Y-37401500D01*
X49085500Y-37401500D02*
X49085500Y-37335460D01*
X49784000Y-36258500D02*
X49784000Y-38735000D01*
X49784000Y-38735000D02*
X49784000Y-41783000D01*
X49784000Y-41783000D02*
X49276000Y-42291000D01*
X49276000Y-42291000D02*
X49276000Y-42418000D01*
D33*
X40640000Y-40640000D02*
X40640000Y-43243500D01*
X40640000Y-43243500D02*
X41148000Y-43751500D01*
X41148000Y-43751500D02*
X42672000Y-43751500D01*
X42672000Y-43751500D02*
X47942500Y-43751500D01*
X47942500Y-43751500D02*
X49276000Y-42418000D01*
X49276000Y-42418000D02*
X49339500Y-42354500D01*
D34*
X44450000Y-37335460D02*
X49085500Y-37335460D01*
X49085500Y-37335460D02*
X49215040Y-37335460D01*
X49215040Y-37335460D02*
X49784000Y-36766500D01*
X49784000Y-36766500D02*
X49784000Y-36258500D01*
X49784000Y-36258500D02*
X49784000Y-34544000D01*
X49784000Y-34544000D02*
X48895000Y-33655000D01*
X48895000Y-33655000D02*
X49276000Y-33655000D01*
D35*
X46418500Y-35115500D02*
X46418500Y-30670500D01*
X46418500Y-30670500D02*
X46990000Y-30099000D01*
X46990000Y-30099000D02*
X46990000Y-30035500D01*
X46990000Y-30035500D02*
X47688500Y-30035500D01*
X47688500Y-36639500D02*
X47688500Y-30035500D01*
X47688500Y-30035500D02*
X47688500Y-28257500D01*
X47688500Y-28257500D02*
X47561500Y-28130500D01*
X47561500Y-28130500D02*
X47561500Y-26924000D01*
X49276000Y-23876000D02*
X49276000Y-33655000D01*
X49276000Y-33655000D02*
X49276000Y-36068000D01*
X49276000Y-36068000D02*
X48704500Y-36639500D01*
X48704500Y-36639500D02*
X47688500Y-36639500D01*
X47688500Y-36639500D02*
X46355000Y-36639500D01*
X46355000Y-36639500D02*
X46418500Y-36576000D01*
X46418500Y-36576000D02*
X46418500Y-35115500D01*
X46418500Y-35115500D02*
X46418500Y-35242500D01*
X46418500Y-35242500D02*
X45529500Y-34353500D01*
X45529500Y-34353500D02*
X45529500Y-32385000D01*
X45529500Y-32385000D02*
X45720000Y-32385000D01*
X45720000Y-33655000D02*
X45720000Y-32385000D01*
X45720000Y-32385000D02*
X45720000Y-28765500D01*
X45720000Y-28765500D02*
X47561500Y-26924000D01*
X47561500Y-26924000D02*
X46863000Y-27622500D01*
X46863000Y-27622500D02*
X46863000Y-28194000D01*
X45720000Y-33655000D02*
X45720000Y-32893000D01*
X45720000Y-32893000D02*
X42735500Y-29908500D01*
X42735500Y-29908500D02*
X43517820Y-29542740D01*
D36*
X40449500Y-29657040D02*
X41277540Y-29657040D01*
X41277540Y-29657040D02*
X42291000Y-30670500D01*
X42291000Y-30670500D02*
X45339000Y-30670500D01*
X45339000Y-30670500D02*
X49276000Y-26733500D01*
X49276000Y-26733500D02*
X49276000Y-25654000D01*
X43517820Y-29542740D02*
X43517820Y-29189680D01*
X43517820Y-29189680D02*
X43284140Y-28956000D01*
X43284140Y-28956000D02*
X41719500Y-28956000D01*
X40449500Y-29657040D02*
X40449500Y-29337000D01*
X40449500Y-29337000D02*
X41465500Y-28321000D01*
X41465500Y-28321000D02*
X44577000Y-28321000D01*
X44577000Y-28321000D02*
X43517820Y-29542740D01*
X40449500Y-29657040D02*
X43436540Y-29657040D01*
X43436540Y-29657040D02*
X43751500Y-29972000D01*
X43751500Y-29972000D02*
X43751500Y-28702000D01*
X43751500Y-28702000D02*
X43815000Y-28638500D01*
X43815000Y-28638500D02*
X43878500Y-28638500D01*
X43878500Y-28638500D02*
X43517820Y-29542740D01*
D34*
X44450000Y-37335460D02*
X45214540Y-37335460D01*
X45214540Y-37335460D02*
X45783500Y-36766500D01*
X45783500Y-36766500D02*
X45783500Y-33464500D01*
X45783500Y-33464500D02*
X45720000Y-33655000D01*
D36*
X15875000Y-38100000D02*
X15938500Y-38100000D01*
X15938500Y-38100000D02*
X17526000Y-36512500D01*
X17526000Y-36512500D02*
X17843500Y-36512500D01*
X17843500Y-38481000D02*
X17843500Y-37719000D01*
X17843500Y-37719000D02*
X17843500Y-36512500D01*
X17843500Y-36512500D02*
X17843500Y-36131500D01*
X17843500Y-36131500D02*
X17780000Y-36068000D01*
X17780000Y-36068000D02*
X17780000Y-35623500D01*
X19494500Y-39116000D02*
X19367500Y-39116000D01*
X19367500Y-39116000D02*
X18669000Y-38417500D01*
X18669000Y-38417500D02*
X18669000Y-35814000D01*
X18669000Y-35814000D02*
X18669000Y-35623500D01*
X20002500Y-35242500D02*
X20002500Y-35623500D01*
X20002500Y-35623500D02*
X19494500Y-36131500D01*
X19494500Y-36131500D02*
X19494500Y-39116000D01*
X19494500Y-39116000D02*
X19494500Y-38735000D01*
X19494500Y-38735000D02*
X19494500Y-38481000D01*
D35*
X32004000Y-13652500D02*
X32766000Y-13652500D01*
X32766000Y-13652500D02*
X36068000Y-10350500D01*
X36068000Y-10350500D02*
X36766500Y-10350500D01*
X36766500Y-10350500D02*
X38798500Y-8318500D01*
X38798500Y-8318500D02*
X38735000Y-8255000D01*
D37*
X38735000Y-8509000D02*
X38735000Y-8255000D01*
X32004000Y-13335000D02*
X32004000Y-13652500D01*
X32004000Y-13652500D02*
X32004000Y-12827000D01*
X32004000Y-12827000D02*
X35750500Y-9080500D01*
X35750500Y-9080500D02*
X35179000Y-9652000D01*
X35179000Y-9652000D02*
X35179000Y-9525000D01*
X33020000Y-9525000D02*
X33020000Y-10033000D01*
X33020000Y-10033000D02*
X30861000Y-12192000D01*
X30861000Y-12192000D02*
X32004000Y-13335000D01*
X38989000Y-8001000D02*
X38989000Y-7874000D01*
X38989000Y-7874000D02*
X38862000Y-7747000D01*
X38862000Y-7747000D02*
X38735000Y-8255000D01*
D35*
X32004000Y-2413000D02*
X31623000Y-2413000D01*
X31623000Y-2413000D02*
X31115000Y-1905000D01*
X31115000Y-1905000D02*
X25082500Y-1905000D01*
X25082500Y-1905000D02*
X21336000Y-1905000D01*
X21336000Y-1905000D02*
X21336000Y-2159000D01*
X21336000Y-2159000D02*
X21336000Y-2921000D01*
X36830000Y-4064000D02*
X36830000Y-3048000D01*
X36830000Y-3048000D02*
X36068000Y-2286000D01*
X36068000Y-2286000D02*
X36068000Y-1397000D01*
X36957000Y-1397000D02*
X36068000Y-1397000D01*
X36068000Y-1397000D02*
X35560000Y-1397000D01*
X35560000Y-1397000D02*
X34798000Y-2159000D01*
X34798000Y-2159000D02*
X34798000Y-1397000D01*
X35941000Y-8255000D02*
X35941000Y-4826000D01*
X35941000Y-4826000D02*
X33274000Y-2159000D01*
X33274000Y-2159000D02*
X33274000Y-1397000D01*
X34290000Y-8255000D02*
X34290000Y-4699000D01*
X34290000Y-4699000D02*
X32004000Y-2413000D01*
X32004000Y-2413000D02*
X31369000Y-1778000D01*
X31369000Y-1778000D02*
X31369000Y-1397000D01*
X38735000Y-8255000D02*
X35941000Y-8255000D01*
X35941000Y-8255000D02*
X34290000Y-8255000D01*
X34290000Y-8255000D02*
X33782000Y-8255000D01*
X33782000Y-8255000D02*
X33528000Y-8001000D01*
X33528000Y-8001000D02*
X33528000Y-7874000D01*
X33528000Y-7874000D02*
X33020000Y-7874000D01*
X33020000Y-9525000D02*
X33020000Y-7874000D01*
X33020000Y-7874000D02*
X33020000Y-5080000D01*
X33020000Y-5080000D02*
X29337000Y-1397000D01*
X33020000Y-9525000D02*
X35179000Y-9525000D01*
X35179000Y-9525000D02*
X37465000Y-9525000D01*
X37465000Y-9525000D02*
X38735000Y-8255000D01*
D36*
X22225000Y-40640000D02*
X19939000Y-40640000D01*
X19939000Y-40640000D02*
X19431000Y-41148000D01*
X19431000Y-41148000D02*
X19431000Y-41432655D01*
X21209000Y-41432655D02*
X19431000Y-41432655D01*
X19431000Y-41432655D02*
X18638345Y-41432655D01*
X18638345Y-41432655D02*
X17780000Y-42291000D01*
X17780000Y-42291000D02*
X17780000Y-43180000D01*
X17272000Y-38862000D02*
X17018000Y-39116000D01*
X17018000Y-39116000D02*
X15875000Y-38100000D01*
D35*
X22225000Y-40640000D02*
X22225000Y-40767000D01*
X22225000Y-40767000D02*
X21209000Y-41432655D01*
X21209000Y-41432655D02*
X21145500Y-41474258D01*
X21145500Y-41474258D02*
X20193000Y-42098310D01*
X20193000Y-42098310D02*
X18542000Y-43180000D01*
X18542000Y-43180000D02*
X17780000Y-43180000D01*
X17780000Y-43180000D02*
X14986000Y-43180000D01*
X14986000Y-43180000D02*
X14224000Y-42418000D01*
X14224000Y-42418000D02*
X14224000Y-42608500D01*
X38735000Y-8255000D02*
X34163000Y-3683000D01*
X34163000Y-3683000D02*
X34163000Y-4064000D01*
X33020000Y-4318000D02*
X33020000Y-4699000D01*
X45212000Y-15240000D02*
X45212000Y-17272000D01*
X45212000Y-17272000D02*
X44958000Y-17526000D01*
X44958000Y-17526000D02*
X43517820Y-16543020D01*
X46482000Y-14859000D02*
X46482000Y-18034000D01*
X46482000Y-18034000D02*
X46228000Y-18288000D01*
X46228000Y-18288000D02*
X46228000Y-19431000D01*
X47625000Y-14224000D02*
X47625000Y-15367000D01*
X47625000Y-15367000D02*
X47625000Y-16637000D01*
X47625000Y-16637000D02*
X47625000Y-19812000D01*
X47625000Y-19812000D02*
X47879000Y-20066000D01*
X47879000Y-20066000D02*
X47879000Y-21082000D01*
X47625000Y-14224000D02*
X47625000Y-13716000D01*
X47625000Y-13716000D02*
X46482000Y-14859000D01*
X46482000Y-14859000D02*
X46101000Y-15240000D01*
X46101000Y-15240000D02*
X45212000Y-15240000D01*
X45212000Y-15240000D02*
X39624000Y-15240000D01*
X39624000Y-15240000D02*
X38227000Y-16637000D01*
X38227000Y-16637000D02*
X38227000Y-17780000D01*
X38227000Y-17780000D02*
X38354000Y-17907000D01*
X38354000Y-17907000D02*
X38227000Y-17907000D01*
X38989000Y-6223000D02*
X36830000Y-4064000D01*
X36830000Y-4064000D02*
X36322000Y-3556000D01*
X36322000Y-3556000D02*
X36322000Y-3175000D01*
X38735000Y-8255000D02*
X38735000Y-7747000D01*
X38735000Y-7747000D02*
X35052000Y-4064000D01*
X35052000Y-4064000D02*
X34163000Y-4064000D01*
X34163000Y-4064000D02*
X33020000Y-4699000D01*
X33020000Y-4699000D02*
X33655000Y-4445000D01*
X20066000Y-4191000D02*
X17653000Y-4191000D01*
X17653000Y-4191000D02*
X18034000Y-4191000D01*
X18034000Y-4191000D02*
X16129000Y-6096000D01*
X16129000Y-6096000D02*
X15240000Y-6096000D01*
X15875000Y-8255000D02*
X16002000Y-8255000D01*
X16002000Y-8255000D02*
X20066000Y-4191000D01*
X20066000Y-4191000D02*
X21336000Y-2921000D01*
X21336000Y-2921000D02*
X22733000Y-1524000D01*
X22733000Y-1524000D02*
X22733000Y-1397000D01*
X25781000Y-1397000D02*
X29337000Y-1397000D01*
X29337000Y-1397000D02*
X31369000Y-1397000D01*
X31369000Y-1397000D02*
X33274000Y-1397000D01*
X33274000Y-1397000D02*
X34798000Y-1397000D01*
X34798000Y-1397000D02*
X36957000Y-1397000D01*
X36957000Y-1397000D02*
X44259500Y-1397000D01*
X44259500Y-1397000D02*
X47371000Y-1397000D01*
X49276000Y-12001500D02*
X49276000Y-23876000D01*
X49276000Y-23876000D02*
X49276000Y-25654000D01*
X49276000Y-25654000D02*
X49276000Y-25781000D01*
X49276000Y-25781000D02*
X46863000Y-28194000D01*
X46863000Y-28194000D02*
X47117000Y-27940000D01*
X47117000Y-27940000D02*
X46228000Y-27940000D01*
X46228000Y-27940000D02*
X46228000Y-28829000D01*
X24257000Y-1397000D02*
X24511000Y-1397000D01*
X24511000Y-1397000D02*
X22733000Y-1397000D01*
X15875000Y-3175000D02*
X21082000Y-3175000D01*
X21082000Y-3175000D02*
X22860000Y-1397000D01*
X22860000Y-1397000D02*
X24257000Y-1397000D01*
X24257000Y-1397000D02*
X25781000Y-1397000D01*
X32639000Y-4191000D02*
X32941260Y-4445000D01*
X38735000Y-3175000D02*
X36322000Y-3175000D01*
X36322000Y-3175000D02*
X33401000Y-3556000D01*
X33401000Y-3556000D02*
X32766000Y-4191000D01*
X32766000Y-4191000D02*
X32941260Y-4445000D01*
X32893000Y-4445000D02*
X32941260Y-4445000D01*
D34*
X47117000Y-23622000D02*
X46863000Y-23622000D01*
X46863000Y-23622000D02*
X43180000Y-19939000D01*
X43180000Y-19939000D02*
X43053000Y-19939000D01*
X43053000Y-19939000D02*
X43053000Y-19542760D01*
X36322000Y-21717000D02*
X35179000Y-21717000D01*
X35179000Y-21717000D02*
X34671000Y-21717000D01*
X36576000Y-22291040D02*
X35560000Y-22291040D01*
X35560000Y-22291040D02*
X33969960Y-22291040D01*
X33969960Y-22291040D02*
X33782000Y-22479000D01*
X33782000Y-22479000D02*
X33782000Y-22860000D01*
X37338000Y-22291040D02*
X36576000Y-22291040D01*
X36576000Y-22291040D02*
X36636960Y-22291040D01*
X36636960Y-22291040D02*
X36068000Y-22860000D01*
X36068000Y-22860000D02*
X33782000Y-22860000D01*
X36322000Y-21717000D02*
X36703000Y-22098000D01*
X36703000Y-22098000D02*
X37084000Y-22098000D01*
X37084000Y-22098000D02*
X37338000Y-22291040D01*
X15875000Y-43180000D02*
X14795500Y-43180000D01*
X14795500Y-43180000D02*
X14224000Y-42608500D01*
X14224000Y-42608500D02*
X13906500Y-42291000D01*
X13906500Y-42291000D02*
X5842000Y-42291000D01*
X5842000Y-42291000D02*
X6350000Y-43180000D01*
X15240000Y-40640000D02*
X14922500Y-40640000D01*
X14922500Y-40640000D02*
X12890500Y-42672000D01*
X12890500Y-42672000D02*
X12890500Y-43180000D01*
X15240000Y-40640000D02*
X15240000Y-41084500D01*
X15240000Y-41084500D02*
X13589000Y-42735500D01*
X13589000Y-42735500D02*
X13589000Y-43180000D01*
X22225000Y-40640000D02*
X22225000Y-40703500D01*
X22225000Y-40703500D02*
X21653500Y-41275000D01*
X21653500Y-41275000D02*
X19685000Y-40005000D01*
X19685000Y-40005000D02*
X19685000Y-40322500D01*
X22225000Y-40640000D02*
X20637500Y-39370000D01*
X20637500Y-39370000D02*
X19685000Y-40322500D01*
X19685000Y-40322500D02*
X16700500Y-43307000D01*
X16700500Y-43307000D02*
X15875000Y-43180000D01*
X22225000Y-40640000D02*
X19812000Y-39370000D01*
X19812000Y-39370000D02*
X16319500Y-42862500D01*
X16319500Y-42862500D02*
X15875000Y-43180000D01*
X22225000Y-40640000D02*
X18923000Y-39370000D01*
X18923000Y-39370000D02*
X17272000Y-41021000D01*
X17272000Y-41021000D02*
X16192500Y-42100500D01*
X16192500Y-42100500D02*
X15875000Y-43180000D01*
X18859500Y-34734500D02*
X18796000Y-34734500D01*
X18796000Y-34734500D02*
X18097500Y-35433000D01*
X18097500Y-35433000D02*
X18097500Y-35623500D01*
X21590000Y-32004000D02*
X21463000Y-32004000D01*
X21463000Y-32004000D02*
X19431000Y-34036000D01*
X19431000Y-34036000D02*
X19685000Y-34036000D01*
X21780500Y-31813500D02*
X21844000Y-31813500D01*
X21844000Y-31813500D02*
X23495000Y-30162500D01*
X22352000Y-31750000D02*
X21844000Y-31750000D01*
X21844000Y-31750000D02*
X21780500Y-31813500D01*
X21780500Y-31813500D02*
X21590000Y-32004000D01*
X21590000Y-32004000D02*
X21272500Y-32321500D01*
X21272500Y-32321500D02*
X21272500Y-31813500D01*
X22352000Y-32766000D02*
X22352000Y-31750000D01*
X22352000Y-31750000D02*
X22352000Y-30353000D01*
X22352000Y-30353000D02*
X22288500Y-30353000D01*
X22288500Y-30353000D02*
X22288500Y-30162500D01*
X22225000Y-32766000D02*
X22352000Y-32766000D01*
X22352000Y-32766000D02*
X20129500Y-32766000D01*
X20129500Y-32766000D02*
X20002500Y-32893000D01*
X20002500Y-32893000D02*
X19685000Y-32893000D01*
D36*
X19685000Y-38481000D02*
X19494500Y-38481000D01*
X19494500Y-38481000D02*
X18669000Y-38481000D01*
X18669000Y-38481000D02*
X16192500Y-40957500D01*
X16192500Y-40957500D02*
X15875000Y-40957500D01*
X19621500Y-35242500D02*
X20002500Y-35242500D01*
X20002500Y-35242500D02*
X19367500Y-35242500D01*
X19367500Y-35242500D02*
X18859500Y-34734500D01*
X18859500Y-34734500D02*
X18605500Y-34480500D01*
X18605500Y-34480500D02*
X18605500Y-33909000D01*
X20002500Y-35623500D02*
X18669000Y-35623500D01*
X18669000Y-35623500D02*
X18097500Y-35623500D01*
X18097500Y-35623500D02*
X17780000Y-35623500D01*
X17780000Y-35623500D02*
X17335500Y-35623500D01*
X17335500Y-35623500D02*
X17272000Y-35687000D01*
X17272000Y-35687000D02*
X17272000Y-35242500D01*
X16637000Y-37338000D02*
X16383000Y-37084000D01*
X16383000Y-37084000D02*
X15875000Y-38100000D01*
X16002000Y-37909500D02*
X15811500Y-37719000D01*
X15811500Y-37719000D02*
X15875000Y-38100000D01*
X22225000Y-40640000D02*
X22225000Y-40576500D01*
X22225000Y-40576500D02*
X21399500Y-39751000D01*
X21399500Y-39751000D02*
X19685000Y-38481000D01*
X19685000Y-38481000D02*
X17843500Y-38481000D01*
X17843500Y-38481000D02*
X16827500Y-38481000D01*
X16827500Y-38481000D02*
X15811500Y-38481000D01*
X15811500Y-38481000D02*
X15875000Y-38100000D01*
X22225000Y-40640000D02*
X15938500Y-39370000D01*
X15938500Y-39370000D02*
X15875000Y-39433500D01*
X15875000Y-39433500D02*
X15811500Y-39433500D01*
X15811500Y-39433500D02*
X15240000Y-39433500D01*
X20002500Y-35623500D02*
X19621500Y-35242500D01*
X19621500Y-35242500D02*
X19685000Y-35306000D01*
X19685000Y-35306000D02*
X19685000Y-34036000D01*
X19685000Y-34036000D02*
X19685000Y-32893000D01*
X19685000Y-32893000D02*
X19685000Y-32893000D01*
X19685000Y-32893000D02*
X19685000Y-32829500D01*
D32*
X26797000Y-26924000D02*
X26670000Y-27159857D01*
X26670000Y-27159857D02*
X26352500Y-27749500D01*
X26352500Y-27749500D02*
X26289000Y-27749500D01*
X26289000Y-27749500D02*
X26225500Y-27813000D01*
X26225500Y-27813000D02*
X26101040Y-27813000D01*
D36*
X24638000Y-27622500D02*
X24638000Y-29908500D01*
X24638000Y-29908500D02*
X24765000Y-30035500D01*
X24765000Y-30035500D02*
X24765000Y-30162500D01*
X25463500Y-27622500D02*
X25463500Y-28003500D01*
X25463500Y-28003500D02*
X25463500Y-30607000D01*
X25463500Y-30607000D02*
X25400000Y-30670500D01*
X25400000Y-30670500D02*
X25400000Y-31115000D01*
X26101040Y-31686500D02*
X26101040Y-27813000D01*
X26101040Y-27813000D02*
X26101040Y-27688540D01*
X26101040Y-27688540D02*
X26035000Y-27622500D01*
X26035000Y-27622500D02*
X25463500Y-27622500D01*
X25463500Y-27622500D02*
X24638000Y-27622500D01*
X24638000Y-27622500D02*
X23749000Y-27622500D01*
X23749000Y-27622500D02*
X23688040Y-27622500D01*
X24447500Y-30162500D02*
X24765000Y-30162500D01*
X24765000Y-30162500D02*
X23495000Y-30162500D01*
X23495000Y-30162500D02*
X22288500Y-30162500D01*
X22288500Y-30162500D02*
X22542500Y-30162500D01*
X22542500Y-30162500D02*
X22479000Y-30099000D01*
X22479000Y-30099000D02*
X22479000Y-30035500D01*
X26101040Y-31686500D02*
X25971500Y-31686500D01*
X25971500Y-31686500D02*
X25400000Y-31115000D01*
X25400000Y-31115000D02*
X24447500Y-30162500D01*
X24447500Y-30162500D02*
X23495000Y-29210000D01*
X23495000Y-29210000D02*
X23495000Y-29146500D01*
X23495000Y-29146500D02*
X23688040Y-29146500D01*
D32*
X25146000Y-27305000D02*
X24892000Y-27305000D01*
X24892000Y-27305000D02*
X24003000Y-28194000D01*
X24003000Y-28194000D02*
X23688040Y-28194000D01*
X24955500Y-27305000D02*
X25146000Y-27305000D01*
X25146000Y-27305000D02*
X24765000Y-27305000D01*
X24765000Y-27305000D02*
X24066500Y-26606500D01*
X24066500Y-26606500D02*
X23688040Y-26035000D01*
X27686000Y-25654000D02*
X27686000Y-26225500D01*
X27686000Y-26225500D02*
X26797000Y-26924000D01*
X24955500Y-27305000D02*
X24003000Y-27305000D01*
X24003000Y-27305000D02*
X23688040Y-27305000D01*
D34*
X24003000Y-34546540D02*
X23243540Y-34546540D01*
X23243540Y-34546540D02*
X22860000Y-34163000D01*
X22860000Y-34163000D02*
X22860000Y-33401000D01*
X22860000Y-33401000D02*
X22225000Y-32766000D01*
X22225000Y-32766000D02*
X21272500Y-31813500D01*
X21272500Y-31813500D02*
X21209000Y-31750000D01*
X21209000Y-31750000D02*
X21209000Y-31305500D01*
D36*
X15494000Y-26543000D02*
X15494000Y-29591000D01*
X15494000Y-29591000D02*
X14541500Y-30543500D01*
X14541500Y-30543500D02*
X14541500Y-30607000D01*
X14541500Y-30607000D02*
X14605000Y-30543500D01*
X17272000Y-30480000D02*
X10414000Y-30480000D01*
X10414000Y-30480000D02*
X10033000Y-30099000D01*
X10033000Y-30099000D02*
X10033000Y-30670500D01*
X18415000Y-29337000D02*
X18415000Y-28892500D01*
X18415000Y-28892500D02*
X18351500Y-28956000D01*
X18351500Y-28956000D02*
X9398000Y-28956000D01*
X9398000Y-28956000D02*
X9398000Y-29210000D01*
X18288000Y-29464000D02*
X9652000Y-29464000D01*
X9652000Y-29464000D02*
X9398000Y-29210000D01*
X9398000Y-29210000D02*
X9080500Y-28892500D01*
X9080500Y-28892500D02*
X9080500Y-28829000D01*
X9080500Y-28829000D02*
X9080500Y-28321000D01*
X7874000Y-26543000D02*
X7874000Y-27813000D01*
X7874000Y-27813000D02*
X7493000Y-28194000D01*
X7493000Y-28194000D02*
X5080000Y-28194000D01*
X5080000Y-28194000D02*
X5588000Y-28702000D01*
X5588000Y-28702000D02*
X6096000Y-28702000D01*
X6096000Y-28702000D02*
X6350000Y-28956000D01*
X6350000Y-28956000D02*
X8318500Y-28956000D01*
X8318500Y-28956000D02*
X10033000Y-30670500D01*
X17272000Y-30480000D02*
X18288000Y-29464000D01*
X18288000Y-29464000D02*
X18415000Y-29337000D01*
X18415000Y-29337000D02*
X19177000Y-28575000D01*
X19177000Y-28575000D02*
X19177000Y-28194000D01*
X19177000Y-28194000D02*
X19177000Y-28127960D01*
D34*
X16129000Y-28321000D02*
X15557500Y-27749500D01*
X15557500Y-27749500D02*
X15494000Y-27749500D01*
X15494000Y-26543000D02*
X15494000Y-27749500D01*
X15494000Y-27749500D02*
X15494000Y-27432000D01*
X15494000Y-27432000D02*
X14668500Y-28257500D01*
X14668500Y-28257500D02*
X14668500Y-28321000D01*
D36*
X7874000Y-25527000D02*
X7874000Y-27622500D01*
X7874000Y-27622500D02*
X8572500Y-28321000D01*
X8572500Y-28321000D02*
X9080500Y-28321000D01*
X9080500Y-28321000D02*
X14668500Y-28321000D01*
X14668500Y-28321000D02*
X16129000Y-28321000D01*
X16129000Y-28321000D02*
X19113500Y-28321000D01*
X19113500Y-28321000D02*
X19240500Y-28194000D01*
X19240500Y-28194000D02*
X19177000Y-28127960D01*
D34*
X7556500Y-22606000D02*
X6350000Y-22606000D01*
X6350000Y-22606000D02*
X6096000Y-22860000D01*
X6096000Y-22860000D02*
X6032500Y-22860000D01*
X6032500Y-22860000D02*
X6032500Y-23177500D01*
X6604000Y-20828000D02*
X6604000Y-21653500D01*
X6604000Y-21653500D02*
X7556500Y-22606000D01*
X7556500Y-22606000D02*
X7429500Y-22479000D01*
X7429500Y-22479000D02*
X13208000Y-22479000D01*
X13208000Y-22479000D02*
X14859000Y-24130000D01*
X14859000Y-24130000D02*
X14859000Y-24765000D01*
X14859000Y-24765000D02*
X14859000Y-24828500D01*
X6604000Y-20828000D02*
X6604000Y-21653500D01*
X6604000Y-21653500D02*
X5397500Y-22860000D01*
X5397500Y-22860000D02*
X4826000Y-22860000D01*
X4826000Y-22860000D02*
X4762500Y-23047960D01*
X4762500Y-23047960D02*
X4511040Y-23047960D01*
X4511040Y-23047960D02*
X4445000Y-23114000D01*
X4445000Y-23114000D02*
X4445000Y-24701500D01*
X4445000Y-24701500D02*
X4762500Y-24767540D01*
X14351000Y-24320500D02*
X4953000Y-24320500D01*
X4953000Y-24320500D02*
X4889500Y-24384000D01*
X4889500Y-24384000D02*
X4762500Y-24767540D01*
X14033500Y-24003000D02*
X5334000Y-24003000D01*
X5334000Y-24003000D02*
X5143500Y-24193500D01*
X5143500Y-24193500D02*
X5143500Y-24257000D01*
X5143500Y-24257000D02*
X4762500Y-24767540D01*
X13589000Y-23558500D02*
X5461000Y-23558500D01*
X5461000Y-23558500D02*
X4889500Y-24130000D01*
X4889500Y-24130000D02*
X4762500Y-24767540D01*
X14986000Y-24955500D02*
X14859000Y-24828500D01*
X14859000Y-24828500D02*
X14351000Y-24320500D01*
X14351000Y-24320500D02*
X14033500Y-24003000D01*
X14033500Y-24003000D02*
X13589000Y-23558500D01*
X13589000Y-23558500D02*
X13208000Y-23177500D01*
X13208000Y-23177500D02*
X6032500Y-23177500D01*
X6032500Y-23177500D02*
X4508500Y-23177500D01*
X4508500Y-23177500D02*
X4445000Y-23114000D01*
X4445000Y-23114000D02*
X4762500Y-23047960D01*
X7874000Y-26543000D02*
X7874000Y-25527000D01*
X7874000Y-25527000D02*
X7874000Y-25717500D01*
X7874000Y-25717500D02*
X7112000Y-24955500D01*
X7112000Y-24955500D02*
X7112000Y-24892000D01*
X7874000Y-26543000D02*
X7874000Y-25654000D01*
X7874000Y-25654000D02*
X8636000Y-24892000D01*
X15494000Y-26543000D02*
X15494000Y-25463500D01*
X15494000Y-25463500D02*
X14986000Y-24955500D01*
X14986000Y-24955500D02*
X14922500Y-24892000D01*
X14922500Y-24892000D02*
X8636000Y-24892000D01*
X8636000Y-24892000D02*
X7112000Y-24892000D01*
X7112000Y-24892000D02*
X4635500Y-24892000D01*
X4635500Y-24892000D02*
X4762500Y-24767540D01*
X17208500Y-28127960D02*
X16634460Y-28127960D01*
X16634460Y-28127960D02*
X15494000Y-26987500D01*
X15494000Y-26987500D02*
X15494000Y-26289000D01*
X15494000Y-26289000D02*
X15494000Y-26543000D01*
D36*
X17208500Y-28127960D02*
X19110960Y-28127960D01*
X19110960Y-28127960D02*
X19113500Y-28130500D01*
X19113500Y-28130500D02*
X19177000Y-28127960D01*
X4762500Y-24767540D02*
X4762500Y-23241000D01*
X4762500Y-23241000D02*
X4889500Y-23114000D01*
X4889500Y-23114000D02*
X4953000Y-23114000D01*
X4953000Y-23114000D02*
X4762500Y-23047960D01*
D35*
X14605000Y-30543500D02*
X14541500Y-30543500D01*
X1397000Y-30353000D02*
X1397000Y-41402000D01*
X3302000Y-43307000D02*
X6540500Y-43307000D01*
X1397000Y-41402000D02*
X3302000Y-43307000D01*
X6540500Y-43307000D02*
X6350000Y-43180000D01*
X2349500Y-4762500D02*
X2349500Y-6604000D01*
X1397000Y-13335000D02*
X1397000Y-12065000D01*
X1397000Y-12065000D02*
X1397000Y-10477500D01*
X1397000Y-10477500D02*
X1397000Y-5715000D01*
X4254500Y-2857500D02*
X4889500Y-2857500D01*
X4889500Y-2857500D02*
X7429500Y-2857500D01*
X1397000Y-5715000D02*
X2349500Y-4762500D01*
X2349500Y-4762500D02*
X4254500Y-2857500D01*
X7429500Y-2857500D02*
X6350000Y-3175000D01*
X12128500Y-2794000D02*
X15049500Y-2794000D01*
X15049500Y-2794000D02*
X15811500Y-3556000D01*
X15811500Y-3556000D02*
X15875000Y-3175000D01*
X2984500Y-31940500D02*
X2667000Y-35115500D01*
X2667000Y-35115500D02*
X2603500Y-35750500D01*
X2603500Y-35750500D02*
X2603500Y-38544500D01*
X2603500Y-38544500D02*
X2984500Y-41465500D01*
X4699000Y-43180000D02*
X6794500Y-43180000D01*
X2984500Y-41465500D02*
X4699000Y-43180000D01*
X6794500Y-43180000D02*
X6350000Y-43180000D01*
X6477000Y-43434000D02*
X6477000Y-43497500D01*
X6477000Y-43497500D02*
X6350000Y-43180000D01*
X4508500Y-33464500D02*
X4445000Y-33464500D01*
X1397000Y-30353000D02*
X2984500Y-31940500D01*
X2984500Y-31940500D02*
X4508500Y-33464500D01*
X1397000Y-13335000D02*
X1397000Y-30353000D01*
X14605000Y-14668500D02*
X14922500Y-14668500D01*
X14922500Y-14668500D02*
X15875000Y-13716000D01*
X15875000Y-13716000D02*
X15875000Y-7874000D01*
X15875000Y-7874000D02*
X15875000Y-8255000D01*
X14605000Y-14668500D02*
X14605000Y-9398000D01*
X14605000Y-9398000D02*
X15684500Y-8318500D01*
X15684500Y-8318500D02*
X15875000Y-8255000D01*
X6413500Y-42799000D02*
X6413500Y-42862500D01*
X6413500Y-42862500D02*
X6350000Y-43180000D01*
X15875000Y-43180000D02*
X12890500Y-43180000D01*
X12890500Y-43180000D02*
X13589000Y-43180000D01*
X13589000Y-43180000D02*
X6413500Y-43180000D01*
X6413500Y-43180000D02*
X6350000Y-43116500D01*
X6350000Y-43116500D02*
X6350000Y-43180000D01*
X15240000Y-40640000D02*
X15240000Y-42735500D01*
X15240000Y-42735500D02*
X15684500Y-43180000D01*
X15684500Y-43180000D02*
X15875000Y-43180000D01*
X15240000Y-40640000D02*
X15240000Y-39433500D01*
X15240000Y-39433500D02*
X15240000Y-38671500D01*
X15240000Y-38671500D02*
X15684500Y-38227000D01*
X15684500Y-38227000D02*
X15875000Y-38100000D01*
X15875000Y-38100000D02*
X15875000Y-40957500D01*
X15875000Y-40957500D02*
X15875000Y-42672000D01*
X15875000Y-42672000D02*
X15748000Y-42799000D01*
X15748000Y-42799000D02*
X15875000Y-43180000D01*
D37*
X23688040Y-26035000D02*
X23688040Y-27622500D01*
X23688040Y-27622500D02*
X23688040Y-27305000D01*
X23688040Y-27305000D02*
X23688040Y-28194000D01*
X23688040Y-28194000D02*
X23688040Y-29146500D01*
X23688040Y-29146500D02*
X23688040Y-28826460D01*
X23688040Y-28826460D02*
X22479000Y-30035500D01*
X22479000Y-30035500D02*
X21209000Y-31305500D01*
X21209000Y-31305500D02*
X19685000Y-32829500D01*
X19685000Y-32829500D02*
X18605500Y-33909000D01*
X18605500Y-33909000D02*
X17272000Y-35242500D01*
X17272000Y-35242500D02*
X15684500Y-36830000D01*
X15684500Y-36830000D02*
X15684500Y-38290500D01*
X15684500Y-38290500D02*
X15875000Y-38100000D01*
D35*
X39370000Y-7112000D02*
X38608000Y-7874000D01*
X38608000Y-7874000D02*
X38544500Y-7874000D01*
X38544500Y-7874000D02*
X38735000Y-8255000D01*
X15240000Y-5715000D02*
X15240000Y-6096000D01*
X15240000Y-6096000D02*
X15240000Y-7556500D01*
X15240000Y-7556500D02*
X15875000Y-8191500D01*
X15875000Y-8191500D02*
X15938500Y-8191500D01*
X15938500Y-8191500D02*
X15875000Y-8255000D01*
X15240000Y-5715000D02*
X15240000Y-5016500D01*
X15240000Y-5016500D02*
X13398500Y-3175000D01*
X13398500Y-3175000D02*
X13398500Y-3111500D01*
X15240000Y-5715000D02*
X15875000Y-5715000D01*
X6350000Y-3175000D02*
X6350000Y-3429000D01*
X15875000Y-3175000D02*
X13398500Y-3175000D01*
X13398500Y-3175000D02*
X6540500Y-3175000D01*
X6540500Y-3175000D02*
X6413500Y-3048000D01*
X6413500Y-3048000D02*
X6350000Y-3175000D01*
X15875000Y-8255000D02*
X15875000Y-4127500D01*
X15875000Y-4127500D02*
X15875000Y-3238500D01*
X15938500Y-3175000D02*
X15875000Y-3175000D01*
X15875000Y-3238500D02*
X15938500Y-3175000D01*
X38735000Y-3175000D02*
X38735000Y-8128000D01*
X38735000Y-8128000D02*
X38544500Y-8318500D01*
X38544500Y-8318500D02*
X38735000Y-8255000D01*
X46355000Y-3175000D02*
X39243000Y-3175000D01*
X39243000Y-3175000D02*
X38417500Y-3175000D01*
X38417500Y-3175000D02*
X38735000Y-3175000D01*
D34*
X39878000Y-19542760D02*
X39639240Y-19542760D01*
X39639240Y-19542760D02*
X38735000Y-20447000D01*
X37338000Y-22291040D02*
X37906960Y-22291040D01*
X37906960Y-22291040D02*
X38735000Y-21463000D01*
X38735000Y-21463000D02*
X38735000Y-20447000D01*
X38735000Y-20447000D02*
X38735000Y-19304000D01*
D35*
X44450000Y-17653000D02*
X42926000Y-17653000D01*
X42926000Y-17653000D02*
X41910000Y-18669000D01*
X41910000Y-18669000D02*
X41910000Y-19542760D01*
X40767000Y-19542760D02*
X41910000Y-19542760D01*
X41910000Y-19542760D02*
X43053000Y-19542760D01*
X43053000Y-19542760D02*
X45069760Y-19542760D01*
X45339000Y-19812000D02*
X45339000Y-20701000D01*
X45069760Y-19542760D02*
X45339000Y-19812000D01*
X43517820Y-16543020D02*
X43517820Y-16720820D01*
X43517820Y-16720820D02*
X44450000Y-17653000D01*
X44450000Y-17653000D02*
X46228000Y-19431000D01*
X46228000Y-19431000D02*
X47879000Y-21082000D01*
X47879000Y-21082000D02*
X48514000Y-21717000D01*
X48514000Y-26543000D02*
X46228000Y-28829000D01*
X46228000Y-28829000D02*
X45212000Y-29845000D01*
X48514000Y-21717000D02*
X48514000Y-26543000D01*
X45212000Y-29845000D02*
X43180000Y-29845000D01*
X43180000Y-29845000D02*
X43517820Y-29542740D01*
X43517820Y-16543020D02*
X43517820Y-18879820D01*
X43517820Y-18879820D02*
X45339000Y-20701000D01*
X47117000Y-25654000D02*
X43688000Y-29083000D01*
X45339000Y-20701000D02*
X47117000Y-22479000D01*
X47117000Y-22479000D02*
X47117000Y-23622000D01*
X47117000Y-23622000D02*
X47117000Y-25654000D01*
X43688000Y-29083000D02*
X43517820Y-29542740D01*
D33*
X44958000Y-26349960D02*
X44958000Y-28448000D01*
X44958000Y-28448000D02*
X43815000Y-29591000D01*
X43815000Y-29591000D02*
X43517820Y-29542740D01*
X44958000Y-26349960D02*
X44958000Y-27051000D01*
X44958000Y-27051000D02*
X43180000Y-28829000D01*
X43180000Y-28829000D02*
X43517820Y-29542740D01*
D36*
X37338000Y-18608040D02*
X38039040Y-18608040D01*
X38039040Y-18608040D02*
X38735000Y-19304000D01*
X38735000Y-19304000D02*
X38989000Y-19558000D01*
X43517820Y-16543020D02*
X42892980Y-16543020D01*
X42892980Y-16543020D02*
X41910000Y-17526000D01*
X38227000Y-17526000D02*
X38227000Y-17907000D01*
X38227000Y-17907000D02*
X38227000Y-17653000D01*
X41910000Y-17526000D02*
X38227000Y-17526000D01*
X41529000Y-18542000D02*
X38862000Y-18542000D01*
X37973000Y-17653000D02*
X38227000Y-17653000D01*
X38227000Y-17653000D02*
X37652960Y-17653000D01*
X38862000Y-18542000D02*
X37973000Y-17653000D01*
X40767000Y-19542760D02*
X40767000Y-19685000D01*
X43517820Y-16543020D02*
X43517820Y-16553180D01*
X43517820Y-16553180D02*
X41529000Y-18542000D01*
X41529000Y-18542000D02*
X40894000Y-19177000D01*
X40894000Y-19177000D02*
X40894000Y-19304000D01*
X40894000Y-19304000D02*
X40767000Y-19542760D01*
X37652960Y-16637000D02*
X43180000Y-16637000D01*
X43180000Y-16637000D02*
X43517820Y-16543020D01*
X40767000Y-19542760D02*
X39878000Y-19542760D01*
X39878000Y-19542760D02*
X39131240Y-19542760D01*
X39116000Y-19558000D02*
X38989000Y-19558000D01*
X39131240Y-19542760D02*
X39116000Y-19558000D01*
X26543000Y-18034000D02*
X26543000Y-17526000D01*
D32*
X27051000Y-18542000D02*
X26543000Y-18034000D01*
D36*
X23622000Y-25273000D02*
X23622000Y-26162000D01*
X23114000Y-24765000D02*
X23622000Y-25273000D01*
X23114000Y-17653000D02*
X23114000Y-24765000D01*
X23749000Y-17018000D02*
X23114000Y-17653000D01*
X26035000Y-17018000D02*
X23749000Y-17018000D01*
X26543000Y-17526000D02*
X26035000Y-17018000D01*
X23622000Y-26162000D02*
X23688040Y-26035000D01*
D32*
X27051000Y-18669000D02*
X27051000Y-18542000D01*
D36*
X37338000Y-18608040D02*
X38293040Y-18608040D01*
X38989000Y-19304000D02*
X38989000Y-19558000D01*
X38293040Y-18608040D02*
X38989000Y-19304000D01*
X37211000Y-22225000D02*
X37338000Y-22291040D01*
X37652960Y-16637000D02*
X37652960Y-17653000D01*
X37652960Y-17653000D02*
X37652960Y-18100040D01*
X37652960Y-18100040D02*
X37211000Y-18542000D01*
X37211000Y-18542000D02*
X37338000Y-18608040D01*
D32*
X35306000Y-18669000D02*
X35306000Y-18161000D01*
X35306000Y-18161000D02*
X35687000Y-16510000D01*
X35687000Y-16510000D02*
X35753040Y-16637000D01*
X35306000Y-25654000D02*
X35306000Y-25781000D01*
X35306000Y-25781000D02*
X35687000Y-26162000D01*
X35687000Y-26162000D02*
X38227000Y-26162000D01*
X38227000Y-26162000D02*
X38925500Y-25527000D01*
X38925500Y-25527000D02*
X40513000Y-24066500D01*
X40513000Y-24066500D02*
X40767000Y-24130000D01*
X40767000Y-24130000D02*
X40767000Y-24043640D01*
X34671000Y-25654000D02*
X34671000Y-24638000D01*
X38481000Y-25146000D02*
X39433500Y-24066500D01*
X39433500Y-24066500D02*
X39814500Y-23304500D01*
X39814500Y-23304500D02*
X40513000Y-22098000D01*
X38100000Y-25527000D02*
X38481000Y-25146000D01*
X36322000Y-25527000D02*
X38100000Y-25527000D01*
X36068000Y-25273000D02*
X36322000Y-25527000D01*
X36068000Y-24638000D02*
X36068000Y-25273000D01*
X35750500Y-24320500D02*
X36068000Y-24638000D01*
X34988500Y-24320500D02*
X35750500Y-24320500D01*
X34671000Y-24638000D02*
X34988500Y-24320500D01*
X40513000Y-22098000D02*
X40767000Y-22044660D01*
X11176000Y-34671000D02*
X11874500Y-34671000D01*
X17843500Y-32639000D02*
X17843500Y-32639000D01*
X9906000Y-35941000D02*
X11176000Y-34671000D01*
X9906000Y-36893500D02*
X9906000Y-35941000D01*
X10414000Y-37401500D02*
X9906000Y-36893500D01*
D34*
X10414000Y-39560500D02*
X10414000Y-37401500D01*
X10414000Y-39560500D02*
X9620000Y-40354500D01*
D32*
X13779500Y-36195000D02*
X17843500Y-32639000D01*
X13398500Y-36195000D02*
X13779500Y-36195000D01*
X11874500Y-34671000D02*
X13398500Y-36195000D01*
D34*
X9620000Y-40640000D02*
X9620000Y-40354500D01*
D32*
X28956000Y-18669000D02*
X28956000Y-17970500D01*
X22098000Y-28384500D02*
X17843500Y-32639000D01*
X17843500Y-32639000D02*
X17843500Y-32639000D01*
X17843500Y-32639000D02*
X17907000Y-32575500D01*
X22098000Y-17208500D02*
X22098000Y-28384500D01*
X23368000Y-15938500D02*
X22098000Y-17208500D01*
X26924000Y-15938500D02*
X23368000Y-15938500D01*
X28956000Y-17970500D02*
X26924000Y-15938500D01*
X21399500Y-28067000D02*
X17526000Y-31940500D01*
X17526000Y-31940500D02*
X13589000Y-34417000D01*
X29591000Y-18669000D02*
X29591000Y-17653000D01*
X21399500Y-16700500D02*
X21399500Y-28067000D01*
X22860000Y-15240000D02*
X21399500Y-16700500D01*
X27178000Y-15240000D02*
X22860000Y-15240000D01*
X29591000Y-17653000D02*
X27178000Y-15240000D01*
X16700500Y-17716500D02*
X14224000Y-18923000D01*
X14224000Y-18923000D02*
X12954000Y-20066000D01*
X12954000Y-20066000D02*
X12954000Y-20891500D01*
X30226000Y-18669000D02*
X30226000Y-17208500D01*
X22415500Y-14478000D02*
X16700500Y-17716500D01*
X27495500Y-14478000D02*
X22415500Y-14478000D01*
X30226000Y-17208500D02*
X27495500Y-14478000D01*
X16446500Y-17018000D02*
X13843000Y-18288000D01*
X13843000Y-18288000D02*
X12128500Y-19685000D01*
X12128500Y-19685000D02*
X11747500Y-20129500D01*
X30861000Y-18669000D02*
X30861000Y-16700500D01*
X22098000Y-13652500D02*
X16446500Y-17018000D01*
X27813000Y-13652500D02*
X22098000Y-13652500D01*
X30861000Y-16700500D02*
X27813000Y-13652500D01*
X14389100Y-16954500D02*
X13462000Y-16954500D01*
X21971000Y-12763500D02*
X16065500Y-16446500D01*
X16065500Y-16446500D02*
X14389100Y-16954500D01*
X31496000Y-18669000D02*
X31496000Y-16256000D01*
X31496000Y-16256000D02*
X28003500Y-12763500D01*
X28003500Y-12763500D02*
X21971000Y-12763500D01*
X10160000Y-7429500D02*
X10160000Y-7552531D01*
X10858500Y-11557000D02*
X10160000Y-7429500D01*
X10858500Y-14351000D02*
X10858500Y-11557000D01*
X13462000Y-16954500D02*
X10858500Y-14351000D01*
D36*
X10096500Y-7366000D02*
X10160000Y-7552531D01*
X10160000Y-7552531D02*
X9652000Y-5778500D01*
D32*
X9652000Y-5778500D02*
X9588500Y-5969000D01*
X14478000Y-16319500D02*
X13779500Y-16319500D01*
X15621000Y-15938500D02*
X14478000Y-16319500D01*
X12827000Y-15367000D02*
X11493500Y-14033500D01*
X11493500Y-14033500D02*
X11493500Y-7620000D01*
X13779500Y-16319500D02*
X12827000Y-15367000D01*
D36*
X11493500Y-7683500D02*
X11493500Y-7620000D01*
X11493500Y-7620000D02*
X11620500Y-5778500D01*
D32*
X11620500Y-5778500D02*
X11493500Y-5715000D01*
X21780500Y-11938000D02*
X15621000Y-15938500D01*
X32131000Y-18669000D02*
X32131000Y-15811500D01*
X32131000Y-15811500D02*
X28257500Y-11938000D01*
X28257500Y-11938000D02*
X21780500Y-11938000D01*
X38798500Y-11229399D02*
X39697601Y-11229399D01*
X39697601Y-11229399D02*
X39941500Y-10985500D01*
X39941500Y-10985500D02*
X39855140Y-10922000D01*
X36004500Y-12763500D02*
X38798500Y-11229399D01*
X38798500Y-11229399D02*
X38735000Y-11264265D01*
X33909000Y-15240000D02*
X36004500Y-12763500D01*
X32766000Y-17589500D02*
X33909000Y-15240000D01*
X32766000Y-18669000D02*
X32766000Y-17589500D01*
X40640000Y-12573000D02*
X40894000Y-12573000D01*
X41084500Y-5778500D02*
X41084500Y-5651500D01*
D34*
X41338500Y-7747000D02*
X41084500Y-5778500D01*
D32*
X41338500Y-12128500D02*
X41338500Y-7747000D01*
X40894000Y-12573000D02*
X41338500Y-12128500D01*
X41084500Y-5651500D02*
X41085000Y-5715000D01*
X40640000Y-12573000D02*
X40640000Y-12573000D01*
X40640000Y-12573000D02*
X40640000Y-12573000D01*
X38036500Y-12573000D02*
X40640000Y-12573000D01*
X36639500Y-13271500D02*
X38036500Y-12573000D01*
X34607500Y-15557500D02*
X36639500Y-13271500D01*
X33401000Y-17780000D02*
X34607500Y-15557500D01*
X33401000Y-18669000D02*
X33401000Y-17780000D01*
X41021000Y-5651500D02*
X41085000Y-5715000D01*
D33*
X42926000Y-26349960D02*
X40960040Y-26349960D01*
X40960040Y-26349960D02*
X40767000Y-26543000D01*
D36*
X28254960Y-31750000D02*
X28067000Y-31750000D01*
X28067000Y-31750000D02*
X28003500Y-31686500D01*
X28003500Y-31686500D02*
X28003500Y-30416500D01*
X28003500Y-30416500D02*
X29654500Y-28765500D01*
X29654500Y-28765500D02*
X29654500Y-29710380D01*
X28254960Y-31750000D02*
X28003500Y-31750000D01*
X28003500Y-31750000D02*
X28003500Y-34163000D01*
X28003500Y-34163000D02*
X28003500Y-34226500D01*
X28003500Y-34226500D02*
X28089860Y-34226500D01*
D34*
X41529000Y-32131000D02*
X32258000Y-32131000D01*
X32258000Y-32131000D02*
X29019500Y-35369500D01*
X29019500Y-35369500D02*
X28956000Y-35369500D01*
X28956000Y-35369500D02*
X28829000Y-35369500D01*
X36195000Y-30734000D02*
X35306000Y-30734000D01*
X35306000Y-30734000D02*
X35179000Y-30861000D01*
X35179000Y-30861000D02*
X35179000Y-30353000D01*
X35306000Y-29715460D02*
X35306000Y-29845000D01*
X35306000Y-29845000D02*
X36195000Y-30734000D01*
X36195000Y-30734000D02*
X36639500Y-31178500D01*
X36639500Y-31178500D02*
X39878000Y-31178500D01*
X39878000Y-31178500D02*
X40005000Y-31305500D01*
X40005000Y-31305500D02*
X40449500Y-31556960D01*
X35306000Y-29715460D02*
X34673540Y-29715460D01*
X34673540Y-29715460D02*
X34163000Y-30226000D01*
X34163000Y-30226000D02*
X34163000Y-30289500D01*
D36*
X40449500Y-31556960D02*
X30413960Y-31556960D01*
X30413960Y-31556960D02*
X30099000Y-31242000D01*
X30099000Y-31242000D02*
X30099000Y-31178500D01*
X30099000Y-31178500D02*
X30099000Y-30988000D01*
X40322500Y-31623000D02*
X40449500Y-31556960D01*
X35306000Y-29715460D02*
X35306000Y-30226000D01*
X35306000Y-30226000D02*
X35179000Y-30353000D01*
X35179000Y-30353000D02*
X34798000Y-30734000D01*
X34798000Y-30734000D02*
X34480500Y-31051500D01*
X34480500Y-31051500D02*
X32385000Y-31051500D01*
X32385000Y-31051500D02*
X28829000Y-34607500D01*
X28829000Y-34607500D02*
X28829000Y-35369500D01*
X28829000Y-35369500D02*
X28829000Y-36830000D01*
X28829000Y-36830000D02*
X28257500Y-37401500D01*
X28257500Y-37401500D02*
X28257500Y-37465000D01*
X28257500Y-37465000D02*
X28089860Y-37465000D01*
X35306000Y-29715460D02*
X35306000Y-29718000D01*
X35306000Y-29718000D02*
X34734500Y-30289500D01*
X34734500Y-30289500D02*
X34163000Y-30289500D01*
X34163000Y-30289500D02*
X32321500Y-30289500D01*
X32321500Y-30289500D02*
X31051500Y-28448000D01*
X31051500Y-28448000D02*
X31435040Y-28003500D01*
X41910000Y-32766000D02*
X41910000Y-32512000D01*
X41910000Y-32512000D02*
X41529000Y-32131000D01*
X41529000Y-32131000D02*
X41021000Y-31623000D01*
X41021000Y-31623000D02*
X40449500Y-31623000D01*
X40449500Y-31623000D02*
X40449500Y-31556960D01*
D32*
X41910000Y-34353500D02*
X41910000Y-32766000D01*
D38*
X41910000Y-37335460D02*
X41145460Y-37335460D01*
X41145460Y-37335460D02*
X40703500Y-36893500D01*
X40703500Y-36893500D02*
X40703500Y-35814000D01*
X40703500Y-35814000D02*
X41910000Y-34353500D01*
X28089860Y-34544000D02*
X27559000Y-34544000D01*
X26543000Y-34546540D02*
X27180540Y-34546540D01*
X27180540Y-34546540D02*
X28194000Y-35560000D01*
X28194000Y-35560000D02*
X28089860Y-35560000D01*
X26543000Y-34546540D02*
X27175460Y-34546540D01*
X27175460Y-34546540D02*
X28194000Y-33528000D01*
X28194000Y-33528000D02*
X28089860Y-33528000D01*
D36*
X28089860Y-37465000D02*
X28089860Y-35560000D01*
X28089860Y-35560000D02*
X28089860Y-34226500D01*
X28089860Y-34226500D02*
X28089860Y-34544000D01*
X28089860Y-34544000D02*
X28089860Y-34394140D01*
X28089860Y-34394140D02*
X31242000Y-31242000D01*
X31242000Y-31242000D02*
X31242000Y-29464000D01*
X31242000Y-29464000D02*
X31242000Y-30035500D01*
X28089860Y-37465000D02*
X28089860Y-33528000D01*
X28089860Y-33528000D02*
X28089860Y-30965140D01*
X28089860Y-30965140D02*
X29718000Y-29337000D01*
X29718000Y-29337000D02*
X29718000Y-29654500D01*
X31435040Y-30480000D02*
X30543500Y-30480000D01*
X30543500Y-30480000D02*
X29718000Y-29654500D01*
X29718000Y-29654500D02*
X29845000Y-29781500D01*
X29845000Y-29781500D02*
X29651960Y-29781500D01*
X31435040Y-30480000D02*
X31435040Y-30540960D01*
X31435040Y-30480000D02*
X30607000Y-30480000D01*
X30607000Y-30480000D02*
X30099000Y-30988000D01*
X30099000Y-30988000D02*
X28575000Y-32512000D01*
X28575000Y-32512000D02*
X28448000Y-32512000D01*
X29715460Y-28003500D02*
X29654500Y-29710380D01*
X29654500Y-29710380D02*
X29651960Y-29781500D01*
X29651960Y-29781500D02*
X29651960Y-29784040D01*
X31435040Y-30480000D02*
X29464000Y-30480000D01*
D33*
X31435040Y-30480000D02*
X31435040Y-30228540D01*
X31435040Y-30228540D02*
X31242000Y-30035500D01*
X31242000Y-30035500D02*
X29908500Y-28067000D01*
X29908500Y-28067000D02*
X29715460Y-28003500D01*
X31435040Y-28003500D02*
X29845000Y-28003500D01*
X29845000Y-28003500D02*
X29781500Y-27940000D01*
X29781500Y-27940000D02*
X29715460Y-28003500D01*
D36*
X31435040Y-28003500D02*
X31435040Y-30165040D01*
X31435040Y-30165040D02*
X31496000Y-30226000D01*
X31496000Y-30226000D02*
X31435040Y-30480000D01*
D32*
X31496000Y-25654000D02*
X31496000Y-27876500D01*
X31496000Y-27876500D02*
X31435040Y-28003500D01*
X34671000Y-19939000D02*
X37338000Y-20574000D01*
X37338000Y-20574000D02*
X37465000Y-20447000D01*
X37465000Y-20447000D02*
X37338000Y-20507960D01*
X31496000Y-25654000D02*
X31496000Y-22479000D01*
X34671000Y-19939000D02*
X34671000Y-18669000D01*
X31496000Y-22479000D02*
X34671000Y-19939000D01*
D36*
X29651960Y-29784040D02*
X28130500Y-31305500D01*
X28130500Y-31305500D02*
X28000960Y-31686500D01*
X29464000Y-30480000D02*
X28257500Y-31686500D01*
X28257500Y-31686500D02*
X28194000Y-31686500D01*
X28194000Y-31686500D02*
X28000960Y-31686500D01*
X28448000Y-32512000D02*
X28448000Y-32131000D01*
X28448000Y-32131000D02*
X28067000Y-31750000D01*
X28067000Y-31750000D02*
X28000960Y-31686500D01*
X31435040Y-30540960D02*
X28638500Y-33337500D01*
X28638500Y-33337500D02*
X28448000Y-33975040D01*
X28448000Y-33975040D02*
X28448000Y-32512000D01*
D32*
X30099000Y-22796500D02*
X29464000Y-22796500D01*
X29464000Y-22796500D02*
X29400500Y-22733000D01*
X29400500Y-22733000D02*
X29400500Y-22669500D01*
X30099000Y-22225000D02*
X30099000Y-22796500D01*
X30099000Y-22796500D02*
X30099000Y-22987000D01*
X30099000Y-22987000D02*
X30035500Y-23050500D01*
X30035500Y-23050500D02*
X28511500Y-23050500D01*
X28511500Y-23050500D02*
X28511500Y-22923500D01*
X30353000Y-21971000D02*
X30353000Y-23304500D01*
X30353000Y-23304500D02*
X28257500Y-23304500D01*
X28257500Y-23304500D02*
X28257500Y-23177500D01*
X30607000Y-21717000D02*
X30607000Y-23431500D01*
X30607000Y-23431500D02*
X30416500Y-23622000D01*
X30416500Y-23622000D02*
X28003500Y-23622000D01*
X28003500Y-23622000D02*
X28003500Y-23431500D01*
X33274000Y-19749698D02*
X33274000Y-19875500D01*
X33274000Y-19875500D02*
X33147000Y-20002500D01*
X33147000Y-20002500D02*
X30797500Y-20002500D01*
X30797500Y-20002500D02*
X27114500Y-23685500D01*
X27114500Y-23685500D02*
X27114500Y-23876000D01*
X30988000Y-19749698D02*
X30988000Y-20002500D01*
X30988000Y-20002500D02*
X27114500Y-23876000D01*
X27114500Y-23876000D02*
X26924000Y-24066500D01*
X27051000Y-25336500D02*
X27051000Y-24384000D01*
X27051000Y-24384000D02*
X27559000Y-23876000D01*
X27559000Y-23876000D02*
X30607000Y-23876000D01*
X30607000Y-23876000D02*
X30734000Y-23876000D01*
X26606500Y-26162000D02*
X26098500Y-26162000D01*
X26098500Y-26162000D02*
X25908000Y-25971500D01*
X25908000Y-25971500D02*
X25587960Y-26035000D01*
X26733500Y-25654000D02*
X26606500Y-25654000D01*
X26606500Y-25654000D02*
X26162000Y-26098500D01*
X26162000Y-26098500D02*
X25587960Y-26035000D01*
X27051000Y-25336500D02*
X27051000Y-25717500D01*
X27051000Y-25717500D02*
X26606500Y-26162000D01*
X26606500Y-26162000D02*
X26416000Y-26352500D01*
X26416000Y-26352500D02*
X25908000Y-26352500D01*
X25908000Y-26352500D02*
X25587960Y-26035000D01*
X26797000Y-25336500D02*
X26797000Y-25146000D01*
X26797000Y-25146000D02*
X26606500Y-24955500D01*
X26606500Y-24955500D02*
X26416000Y-24955500D01*
X27051000Y-25336500D02*
X26797000Y-25336500D01*
X26797000Y-25336500D02*
X26670000Y-25336500D01*
X26670000Y-25336500D02*
X26416000Y-25082500D01*
X26416000Y-25082500D02*
X26416000Y-25019000D01*
X26416000Y-25019000D02*
X26416000Y-24955500D01*
X26416000Y-24955500D02*
X26416000Y-24892000D01*
X27051000Y-25336500D02*
X26225500Y-25336500D01*
X26225500Y-25336500D02*
X25587960Y-26035000D01*
X30734000Y-23622000D02*
X30734000Y-23876000D01*
X30734000Y-23876000D02*
X30734000Y-23876000D01*
X30861000Y-23622000D02*
X30734000Y-23622000D01*
X30734000Y-23622000D02*
X30734000Y-23622000D01*
X30861000Y-21717000D02*
X30861000Y-22225000D01*
X30861000Y-22225000D02*
X30861000Y-22606000D01*
X30861000Y-22606000D02*
X30861000Y-22860000D01*
X30861000Y-22860000D02*
X30861000Y-23241000D01*
X30861000Y-23241000D02*
X30861000Y-23622000D01*
X29845000Y-22479000D02*
X29591000Y-22479000D01*
X29591000Y-22479000D02*
X29400500Y-22669500D01*
X29400500Y-22669500D02*
X28829000Y-23241000D01*
X28829000Y-23241000D02*
X28829000Y-22987000D01*
X31369000Y-21187433D02*
X31369000Y-21209000D01*
X31369000Y-21209000D02*
X30861000Y-21717000D01*
X30861000Y-21717000D02*
X30988000Y-21590000D01*
X30988000Y-21590000D02*
X30988000Y-21336000D01*
X31242000Y-21187433D02*
X31369000Y-21187433D01*
X31369000Y-21187433D02*
X31136567Y-21187433D01*
X31136567Y-21187433D02*
X30988000Y-21336000D01*
X30988000Y-21336000D02*
X30607000Y-21717000D01*
X30607000Y-21717000D02*
X30353000Y-21971000D01*
X30353000Y-21971000D02*
X30099000Y-22225000D01*
X30099000Y-22225000D02*
X29845000Y-22479000D01*
X29845000Y-22479000D02*
X29972000Y-22352000D01*
X32893000Y-20133094D02*
X32825906Y-20133094D01*
X32825906Y-20133094D02*
X32639000Y-20320000D01*
X32639000Y-20320000D02*
X32639000Y-20574000D01*
X32004000Y-20804037D02*
X31900963Y-20804037D01*
X31900963Y-20804037D02*
X31750000Y-20955000D01*
X31750000Y-20955000D02*
X30861000Y-20955000D01*
X31877000Y-21187433D02*
X31242000Y-21187433D01*
X31242000Y-21187433D02*
X30966433Y-21187433D01*
X30966433Y-21187433D02*
X30861000Y-21082000D01*
X30861000Y-21082000D02*
X30861000Y-20955000D01*
X32385000Y-20804037D02*
X32004000Y-20804037D01*
X32004000Y-20804037D02*
X31265963Y-20804037D01*
X31265963Y-20804037D02*
X31242000Y-20828000D01*
X31242000Y-20828000D02*
X31242000Y-20574000D01*
X32639000Y-20612339D02*
X32639000Y-20574000D01*
X32639000Y-20574000D02*
X32639000Y-20574000D01*
X32639000Y-20574000D02*
X32512000Y-20447000D01*
X32512000Y-20447000D02*
X31369000Y-20447000D01*
X33274000Y-20133094D02*
X32893000Y-20133094D01*
X32893000Y-20133094D02*
X31817094Y-20133094D01*
X31817094Y-20133094D02*
X31750000Y-20066000D01*
X32131000Y-19749698D02*
X32066302Y-19749698D01*
X32066302Y-19749698D02*
X31750000Y-20066000D01*
X31750000Y-20066000D02*
X31369000Y-20447000D01*
X31369000Y-20447000D02*
X31242000Y-20574000D01*
X31242000Y-20574000D02*
X30861000Y-20955000D01*
X30861000Y-20955000D02*
X28829000Y-22987000D01*
X27051000Y-24765000D02*
X26797000Y-25019000D01*
X26797000Y-25019000D02*
X26797000Y-25400000D01*
X31623000Y-19749698D02*
X31623000Y-19812000D01*
X31623000Y-19812000D02*
X28511500Y-22923500D01*
X28511500Y-22923500D02*
X28257500Y-23177500D01*
X28257500Y-23177500D02*
X28003500Y-23431500D01*
X28003500Y-23431500D02*
X26924000Y-24511000D01*
X26162000Y-25654000D02*
X25587960Y-26035000D01*
X30607000Y-19749698D02*
X30607000Y-19812000D01*
X30607000Y-19812000D02*
X26924000Y-23495000D01*
X26924000Y-23495000D02*
X26924000Y-24066500D01*
X26924000Y-24066500D02*
X26924000Y-24511000D01*
X26924000Y-24511000D02*
X26924000Y-24384000D01*
X26924000Y-24384000D02*
X26416000Y-24892000D01*
X26416000Y-24892000D02*
X25781000Y-25527000D01*
X25781000Y-25527000D02*
X25587960Y-26035000D01*
X33782000Y-19749698D02*
X33274000Y-19749698D01*
X33274000Y-19749698D02*
X32131000Y-19749698D01*
X32131000Y-19749698D02*
X31623000Y-19749698D01*
X31623000Y-19749698D02*
X30988000Y-19749698D01*
X30988000Y-19749698D02*
X31115000Y-19749698D01*
X31115000Y-19749698D02*
X30607000Y-19749698D01*
X30607000Y-19749698D02*
X30161302Y-19749698D01*
X30161302Y-19749698D02*
X26543000Y-23368000D01*
X26543000Y-23368000D02*
X26543000Y-24384000D01*
X26543000Y-24384000D02*
X25527000Y-25400000D01*
X25527000Y-25400000D02*
X25527000Y-25908000D01*
X25527000Y-25908000D02*
X25587960Y-26035000D01*
X27051000Y-25654000D02*
X26733500Y-25654000D01*
X26733500Y-25654000D02*
X25908000Y-25654000D01*
X25908000Y-25654000D02*
X25527000Y-26035000D01*
X25527000Y-26035000D02*
X25587960Y-26035000D01*
X34036000Y-18669000D02*
X34036000Y-19558000D01*
X27051000Y-24892000D02*
X27051000Y-25781000D01*
X34036000Y-19558000D02*
X33782000Y-19749698D01*
X33782000Y-19749698D02*
X33274000Y-20133094D01*
X33274000Y-20133094D02*
X32639000Y-20612339D01*
X32639000Y-20612339D02*
X32385000Y-20804037D01*
X32385000Y-20804037D02*
X31877000Y-21187433D01*
X27051000Y-25781000D02*
X27051000Y-25654000D01*
X33401000Y-23939500D02*
X32512000Y-23939500D01*
X32512000Y-23939500D02*
X32512000Y-23812500D01*
X33401000Y-25336500D02*
X33401000Y-24447500D01*
X33401000Y-24447500D02*
X33210500Y-24257000D01*
X33210500Y-24257000D02*
X32385000Y-24257000D01*
X32385000Y-24257000D02*
X32131000Y-24511000D01*
X33401000Y-25336500D02*
X33401000Y-24384000D01*
X33401000Y-24384000D02*
X34036000Y-23749000D01*
X33401000Y-24701500D02*
X33401000Y-23939500D01*
X33401000Y-23939500D02*
X33401000Y-23812500D01*
X33401000Y-23812500D02*
X33401000Y-23749000D01*
D34*
X38925500Y-13652500D02*
X40767000Y-13652500D01*
X45021500Y-12700000D02*
X44831000Y-12763500D01*
X40767000Y-13652500D02*
X45021500Y-12700000D01*
X44831000Y-12763500D02*
X45085000Y-12697460D01*
D36*
X37528500Y-14351000D02*
X37465000Y-14351000D01*
X38036500Y-14351000D02*
X37528500Y-14351000D01*
X38925500Y-13652500D02*
X38925500Y-13652500D01*
X38925500Y-13652500D02*
X38036500Y-14351000D01*
D33*
X10795000Y-32956500D02*
X10795000Y-33147000D01*
X6286500Y-35814000D02*
X6667500Y-35814000D01*
X8128000Y-35814000D02*
X6286500Y-35814000D01*
X10795000Y-33147000D02*
X8128000Y-35814000D01*
X7747000Y-31051500D02*
X7747000Y-33972500D01*
X7683500Y-34036000D02*
X7683500Y-34163000D01*
X7747000Y-33972500D02*
X7683500Y-34036000D01*
X8890000Y-32194500D02*
X8890000Y-32956500D01*
X8890000Y-32956500D02*
X7683500Y-34163000D01*
X6667500Y-35179000D02*
X6667500Y-35814000D01*
X7683500Y-34163000D02*
X6667500Y-35179000D01*
X6667500Y-35814000D02*
X6667500Y-35433000D01*
X10731500Y-32956500D02*
X10795000Y-32956500D01*
X10795000Y-32956500D02*
X10287000Y-32956500D01*
X10287000Y-32956500D02*
X7810500Y-35433000D01*
X7810500Y-35433000D02*
X6540500Y-35433000D01*
X6540500Y-35433000D02*
X6667500Y-35433000D01*
X6667500Y-35433000D02*
X6667500Y-35433000D01*
X6667500Y-33845500D02*
X6667500Y-35433000D01*
D34*
X39116000Y-26416000D02*
X37973000Y-27559000D01*
X38481000Y-27107444D02*
X38481000Y-28829000D01*
X38481000Y-28829000D02*
X38481000Y-29083000D01*
X39116000Y-26543000D02*
X39116000Y-26416000D01*
X39116000Y-26416000D02*
X39116000Y-28448000D01*
X39116000Y-28448000D02*
X38481000Y-29083000D01*
X38481000Y-29083000D02*
X37846000Y-29718000D01*
X37846000Y-29718000D02*
X37465000Y-29718000D01*
D33*
X37465000Y-40654941D02*
X29796441Y-40654941D01*
X29796441Y-40654941D02*
X29781500Y-40640000D01*
X29781500Y-40640000D02*
X29845000Y-40640000D01*
D34*
X39941500Y-39052500D02*
X39560500Y-39052500D01*
X39560500Y-39052500D02*
X37465000Y-40654941D01*
X37465000Y-40654941D02*
X37401500Y-40703500D01*
X37401500Y-40703500D02*
X37465000Y-40703500D01*
D38*
X42037000Y-39497000D02*
X42037000Y-39370000D01*
X42037000Y-39370000D02*
X41846500Y-39179500D01*
X41846500Y-39179500D02*
X40068500Y-39179500D01*
X40068500Y-39179500D02*
X39941500Y-39052500D01*
D32*
X42037000Y-41783000D02*
X42037000Y-41529000D01*
X42037000Y-41529000D02*
X41910000Y-41402000D01*
X41910000Y-41402000D02*
X41910000Y-40005000D01*
X41910000Y-40005000D02*
X42037000Y-39878000D01*
X42037000Y-39878000D02*
X42037000Y-39497000D01*
D34*
X48260000Y-40640000D02*
X48133000Y-40640000D01*
X48133000Y-40640000D02*
X46545500Y-42227500D01*
X46545500Y-42227500D02*
X42481500Y-42227500D01*
X42481500Y-42227500D02*
X42037000Y-41783000D01*
X42037000Y-41783000D02*
X42100500Y-41846500D01*
X37465000Y-40703500D02*
X37528500Y-40640000D01*
D35*
X37465000Y-27559000D02*
X37465000Y-29718000D01*
X37465000Y-29718000D02*
X37465000Y-29654500D01*
D36*
X48260000Y-40640000D02*
X48260000Y-38925500D01*
X48260000Y-38925500D02*
X48196500Y-38862000D01*
X48196500Y-38862000D02*
X48130460Y-38671500D01*
X24384000Y-42418000D02*
X28003500Y-42418000D01*
X28003500Y-42418000D02*
X29718000Y-40703500D01*
X29718000Y-40703500D02*
X29845000Y-40640000D01*
D38*
X23558500Y-39108063D02*
X23558500Y-41592500D01*
X23558500Y-41592500D02*
X24384000Y-42418000D01*
D36*
X21209000Y-36893500D02*
X21590000Y-36893500D01*
X21590000Y-36893500D02*
X23558500Y-39108063D01*
X23558500Y-39108063D02*
X23622000Y-39179500D01*
D35*
X6667500Y-33845500D02*
X6667500Y-32258000D01*
X6667500Y-32258000D02*
X4127500Y-29718000D01*
X4127500Y-29718000D02*
X3937000Y-29718000D01*
X6667500Y-33845500D02*
X6667500Y-30861000D01*
X6667500Y-30861000D02*
X6667500Y-30543500D01*
D34*
X39116000Y-26479500D02*
X39116000Y-26543000D01*
X39116000Y-26543000D02*
X38481000Y-27107444D01*
X38481000Y-27107444D02*
X37973000Y-27559000D01*
X37973000Y-27559000D02*
X37465000Y-27559000D01*
D38*
X41529000Y-25209500D02*
X41465500Y-25273000D01*
X41465500Y-25273000D02*
X40259000Y-25273000D01*
X40259000Y-25273000D02*
X39116000Y-26479500D01*
X39116000Y-26479500D02*
X39116000Y-26479500D01*
D34*
X42100500Y-24450040D02*
X42100500Y-21399500D01*
X42100500Y-21399500D02*
X42037000Y-21336000D01*
X42037000Y-21336000D02*
X42037000Y-21209000D01*
X42926000Y-24450040D02*
X42100500Y-24450040D01*
X42100500Y-24450040D02*
X42288460Y-24450040D01*
X42288460Y-24450040D02*
X41529000Y-25209500D01*
X41529000Y-25209500D02*
X41592500Y-25146000D01*
D32*
X33401000Y-25654000D02*
X33401000Y-24892000D01*
X33401000Y-25654000D02*
X33401000Y-24701500D01*
X33401000Y-24701500D02*
X33401000Y-24765000D01*
D34*
X4762500Y-26667460D02*
X4193540Y-26667460D01*
X4193540Y-26667460D02*
X3937000Y-26924000D01*
X3937000Y-26924000D02*
X3937000Y-29273500D01*
X3937000Y-29273500D02*
X3937000Y-29718000D01*
X3937000Y-29718000D02*
X3937000Y-29718000D01*
X4762500Y-26667460D02*
X4257040Y-26667460D01*
X4257040Y-26667460D02*
X3556000Y-27368500D01*
X3556000Y-27368500D02*
X3238500Y-27368500D01*
X4762500Y-26667460D02*
X3616960Y-26667460D01*
X3616960Y-26667460D02*
X3492500Y-26543000D01*
X3492500Y-26543000D02*
X3492500Y-26479500D01*
X3492500Y-26479500D02*
X3238500Y-26479500D01*
X4762500Y-26667460D02*
X4505960Y-26667460D01*
X4505960Y-26667460D02*
X3302000Y-25463500D01*
X3302000Y-25463500D02*
X3238500Y-25463500D01*
X4762500Y-26667460D02*
X4762500Y-26860500D01*
X4762500Y-26860500D02*
X3302000Y-28321000D01*
X3302000Y-28321000D02*
X3238500Y-28321000D01*
D37*
X5207000Y-30543500D02*
X6667500Y-30543500D01*
X6667500Y-30543500D02*
X7239000Y-30543500D01*
X7239000Y-30543500D02*
X7747000Y-31051500D01*
X7747000Y-31051500D02*
X8890000Y-32194500D01*
X8890000Y-32194500D02*
X9080500Y-32385000D01*
X9080500Y-32385000D02*
X10731500Y-32956500D01*
D34*
X5207000Y-30543500D02*
X5588000Y-30543500D01*
X3238500Y-24765000D02*
X3238500Y-25463500D01*
X3238500Y-25463500D02*
X3238500Y-26479500D01*
X3238500Y-26479500D02*
X3238500Y-27368500D01*
X3238500Y-27368500D02*
X3238500Y-28321000D01*
X3238500Y-28321000D02*
X3238500Y-29654500D01*
X3238500Y-29654500D02*
X4127500Y-30543500D01*
X4127500Y-30543500D02*
X5270500Y-30543500D01*
X5270500Y-30543500D02*
X5207000Y-30543500D01*
X3238500Y-25209500D02*
X3238500Y-29019500D01*
X3238500Y-29019500D02*
X3937000Y-29718000D01*
X3937000Y-29718000D02*
X4699000Y-30480000D01*
X4699000Y-30480000D02*
X5334000Y-30480000D01*
X5334000Y-30480000D02*
X5207000Y-30543500D01*
D36*
X5143500Y-30480000D02*
X5207000Y-30543500D01*
D34*
X4572000Y-9080500D02*
X3429000Y-10922000D01*
X3429000Y-10922000D02*
X3238500Y-24765000D01*
X3238500Y-24765000D02*
X3238500Y-25209500D01*
X3238500Y-25209500D02*
X3238500Y-27495500D01*
X3238500Y-27495500D02*
X3238500Y-28130500D01*
X3238500Y-28130500D02*
X5461000Y-30353000D01*
X5461000Y-30353000D02*
X5207000Y-30543500D01*
D36*
X44958000Y-24450040D02*
X44958000Y-24130000D01*
X44958000Y-24130000D02*
X42672000Y-21844000D01*
X44069000Y-24450040D02*
X44069000Y-24003000D01*
X42926000Y-22860000D02*
X42672000Y-22860000D01*
X44069000Y-24003000D02*
X42926000Y-22860000D01*
X42037000Y-21209000D02*
X42037000Y-21209000D01*
X42037000Y-21209000D02*
X42672000Y-21844000D01*
X42672000Y-21844000D02*
X42672000Y-22860000D01*
D38*
X39497000Y-21717000D02*
X39751000Y-21209000D01*
X38989000Y-22733000D02*
X39497000Y-22225000D01*
X39497000Y-22225000D02*
X39497000Y-21717000D01*
D34*
X37658040Y-24190960D02*
X38989000Y-22860000D01*
D38*
X38989000Y-22860000D02*
X38989000Y-22733000D01*
X41666162Y-20838162D02*
X42037000Y-21209000D01*
X39867838Y-20838162D02*
X41666162Y-20838162D01*
X39751000Y-20955000D02*
X39867838Y-20838162D01*
X39751000Y-21209000D02*
X39751000Y-20955000D01*
D36*
X42672000Y-22860000D02*
X42672000Y-24003000D01*
X42672000Y-24003000D02*
X42926000Y-24257000D01*
X42926000Y-24257000D02*
X42926000Y-24450040D01*
D34*
X37338000Y-24190960D02*
X37658040Y-24190960D01*
D33*
X44958000Y-24450040D02*
X44069000Y-24450040D01*
X44069000Y-24450040D02*
X43119040Y-24450040D01*
X43119040Y-24450040D02*
X43053000Y-24384000D01*
X43053000Y-24384000D02*
X42926000Y-24450040D01*
D32*
X32131000Y-25654000D02*
X32131000Y-24892000D01*
X32575500Y-23749000D02*
X33401000Y-23749000D01*
X33401000Y-23749000D02*
X34036000Y-23749000D01*
X34036000Y-23749000D02*
X34480500Y-23749000D01*
X34480500Y-23749000D02*
X36957000Y-23749000D01*
X36957000Y-23749000D02*
X37211000Y-24257000D01*
X32131000Y-24892000D02*
X32131000Y-24511000D01*
X32131000Y-24511000D02*
X32131000Y-24193500D01*
X32131000Y-24193500D02*
X32131000Y-24193500D01*
X32131000Y-24193500D02*
X32512000Y-23812500D01*
X32512000Y-23812500D02*
X32575500Y-23749000D01*
X37211000Y-24257000D02*
X37338000Y-24190960D01*
D38*
X4762500Y-26667460D02*
X6416040Y-26667460D01*
X6416040Y-26667460D02*
X6540500Y-26543000D01*
X6540500Y-26543000D02*
X6604000Y-26543000D01*
D34*
X45085000Y-5715000D02*
X45529500Y-5715000D01*
X45529500Y-5715000D02*
X47625000Y-7429500D01*
X47625000Y-7429500D02*
X47625000Y-9144000D01*
X47625000Y-9144000D02*
X45656500Y-10731500D01*
X45656500Y-10731500D02*
X45021500Y-10731500D01*
X45021500Y-10731500D02*
X45085000Y-10797540D01*
D37*
X18669000Y-11811000D02*
X18478500Y-11938000D01*
X21463000Y-10668000D02*
X18669000Y-11811000D01*
X21463000Y-10668000D02*
X24765000Y-10414000D01*
D36*
X8064500Y-11938000D02*
X7175500Y-11938000D01*
X7175500Y-11938000D02*
X6096000Y-13017500D01*
X6096000Y-13017500D02*
X5334000Y-13017500D01*
D35*
X9398000Y-11938000D02*
X8064500Y-11938000D01*
X8064500Y-11938000D02*
X5651500Y-11938000D01*
X5651500Y-11938000D02*
X5334000Y-12255500D01*
X5334000Y-12255500D02*
X5334000Y-13017500D01*
X5334000Y-13017500D02*
X5334000Y-14541500D01*
X5334000Y-14541500D02*
X5207000Y-14668500D01*
D37*
X27940000Y-4445000D02*
X27686000Y-4445000D01*
X27686000Y-4445000D02*
X27051000Y-5080000D01*
X27051000Y-5080000D02*
X27051000Y-7874000D01*
X27051000Y-7874000D02*
X24765000Y-10160000D01*
X24765000Y-10160000D02*
X28575000Y-10160000D01*
X28575000Y-10160000D02*
X29718000Y-9017000D01*
X29718000Y-9017000D02*
X29210000Y-9017000D01*
X29210000Y-7112000D02*
X28321000Y-7112000D01*
X28321000Y-7112000D02*
X25527000Y-9906000D01*
X25527000Y-9906000D02*
X25527000Y-10414000D01*
X24765000Y-10414000D02*
X25527000Y-10414000D01*
X25527000Y-10414000D02*
X29718000Y-10414000D01*
X29718000Y-10414000D02*
X30480000Y-9652000D01*
X30480000Y-9652000D02*
X30480000Y-9525000D01*
X29210000Y-9525000D02*
X29210000Y-9017000D01*
X29210000Y-9017000D02*
X29210000Y-7112000D01*
X29210000Y-7112000D02*
X29210000Y-5334000D01*
X29210000Y-5334000D02*
X29210000Y-4699000D01*
X30480000Y-9525000D02*
X30480000Y-5969000D01*
X30480000Y-5969000D02*
X29210000Y-4699000D01*
X29210000Y-4699000D02*
X28956000Y-4445000D01*
X28956000Y-4445000D02*
X27813000Y-4445000D01*
X27813000Y-4445000D02*
X27940000Y-4445000D01*
X27940000Y-4445000D02*
X27940000Y-9144000D01*
X27940000Y-9144000D02*
X27813000Y-9271000D01*
X27813000Y-9271000D02*
X27813000Y-9525000D01*
X30480000Y-9525000D02*
X29210000Y-9525000D01*
X29210000Y-9525000D02*
X27813000Y-9525000D01*
X27813000Y-9525000D02*
X27559000Y-9525000D01*
X26670000Y-10414000D02*
X24765000Y-10414000D01*
X27559000Y-9525000D02*
X26670000Y-10414000D01*
D35*
X27940000Y-4318000D02*
X27940000Y-4445000D01*
D37*
X5207000Y-14668500D02*
X9398000Y-11938000D01*
D32*
X42694860Y-10922000D02*
X42608500Y-10922000D01*
X42608500Y-10922000D02*
X42418000Y-10731500D01*
X42418000Y-10731500D02*
X42418000Y-7747000D01*
D34*
X42418000Y-7747000D02*
X42926000Y-6540500D01*
D32*
X42926000Y-6540500D02*
X42926000Y-5651500D01*
X42926000Y-5651500D02*
X43085000Y-5715000D01*
X42608500Y-10985500D02*
X42608500Y-11049000D01*
X42608500Y-11049000D02*
X42694860Y-10922000D01*
D36*
X7620000Y-5715000D02*
X7620000Y-5715000D01*
X7620000Y-5715000D02*
X4572000Y-6921500D01*
X4572000Y-6921500D02*
X4572000Y-7051040D01*
X7620000Y-5715000D02*
X7620000Y-5969000D01*
D38*
X19685000Y-18796000D02*
X14922500Y-19558000D01*
X14922500Y-19558000D02*
X14224000Y-20193000D01*
X14224000Y-20193000D02*
X14224000Y-20637500D01*
X14224000Y-20637500D02*
X14224000Y-20828000D01*
X14224000Y-20828000D02*
X14224000Y-21526500D01*
X14224000Y-21526500D02*
X17145000Y-26035000D01*
X17145000Y-26035000D02*
X17145000Y-26035000D01*
X17145000Y-26035000D02*
X17208500Y-26228040D01*
X15494000Y-20828000D02*
X19558000Y-23876000D01*
X19558000Y-23876000D02*
X19494500Y-23812500D01*
D34*
X19177000Y-26228040D02*
X19748500Y-23876000D01*
X19748500Y-23876000D02*
X19558000Y-23685500D01*
X19558000Y-23685500D02*
X19494500Y-23685500D01*
X19494500Y-23685500D02*
X19494500Y-23812500D01*
D38*
X24003000Y-35496500D02*
X22606000Y-35496500D01*
X22606000Y-35496500D02*
X21336000Y-34226500D01*
X21336000Y-34226500D02*
X21399500Y-34226500D01*
D34*
X7874000Y-20828000D02*
X7874000Y-20002500D01*
X7874000Y-20002500D02*
X6540500Y-18669000D01*
D38*
X26543000Y-33596580D02*
X26289000Y-33591500D01*
X26289000Y-33591500D02*
X24003000Y-32004000D01*
X24003000Y-32004000D02*
X23812500Y-32004000D01*
D34*
X9144000Y-20828000D02*
X9144000Y-18542000D01*
D33*
X4662277Y-37120723D02*
X4662277Y-38952277D01*
X4662277Y-38952277D02*
X6350000Y-40640000D01*
X6350000Y-40640000D02*
X7620000Y-40640000D01*
X7683500Y-40576500D02*
X7620000Y-40640000D01*
D34*
X10414000Y-20828000D02*
X10414000Y-19939000D01*
X10414000Y-19939000D02*
X10795000Y-19558000D01*
X10795000Y-19558000D02*
X10795000Y-17843500D01*
X10795000Y-17843500D02*
X10033000Y-17081500D01*
X10033000Y-17081500D02*
X5969000Y-17081500D01*
X5969000Y-17081500D02*
X4889500Y-18161000D01*
X4889500Y-18161000D02*
X4889500Y-20955000D01*
X4889500Y-20955000D02*
X4762500Y-21148040D01*
D38*
X4889500Y-21018500D02*
X4762500Y-21018500D01*
X4762500Y-21018500D02*
X4762500Y-21148040D01*
D34*
X11569007Y-36373493D02*
X11569007Y-40437493D01*
X11569007Y-40437493D02*
X11557000Y-40449500D01*
X11557000Y-40449500D02*
X11620000Y-40640000D01*
D37*
X25250140Y-37465000D02*
X25250140Y-39900860D01*
X25250140Y-39900860D02*
X24765000Y-40386000D01*
X24765000Y-40386000D02*
X24765000Y-40640000D01*
D36*
X25273000Y-36385500D02*
X25273000Y-39941500D01*
X25273000Y-39941500D02*
X24828500Y-40386000D01*
X24828500Y-40386000D02*
X24765000Y-40640000D01*
D38*
X24003000Y-33596580D02*
X24770080Y-33596580D01*
X24770080Y-33596580D02*
X25273000Y-34099500D01*
X25273000Y-34099500D02*
X25273000Y-36385500D01*
X25273000Y-36385500D02*
X25273000Y-36322000D01*
D36*
X27178000Y-39116000D02*
X27178000Y-40386000D01*
X27178000Y-40386000D02*
X27432000Y-40640000D01*
X27432000Y-40640000D02*
X27305000Y-40640000D01*
D38*
X26543000Y-35496500D02*
X26543000Y-35814000D01*
X26543000Y-35814000D02*
X26670000Y-35941000D01*
X26670000Y-35941000D02*
X26670000Y-38608000D01*
X26670000Y-38608000D02*
X27178000Y-39116000D01*
D36*
X27305000Y-40513000D02*
X27305000Y-40640000D01*
D38*
X44450000Y-36385500D02*
X44450000Y-36385500D01*
X44450000Y-36385500D02*
X43878500Y-35296929D01*
D36*
X43878500Y-35296929D02*
X43116500Y-33845500D01*
D38*
X43116500Y-33845500D02*
X43180000Y-33655000D01*
X44450000Y-38285420D02*
X44450000Y-38354000D01*
X44450000Y-38354000D02*
X44323000Y-38481000D01*
X44323000Y-38481000D02*
X44323000Y-39497000D01*
X44323000Y-39497000D02*
X45593000Y-40767000D01*
X45593000Y-40767000D02*
X45720000Y-40640000D01*
X45720000Y-40640000D02*
X45720000Y-39624000D01*
X45720000Y-39624000D02*
X45974000Y-39370000D01*
X45974000Y-39370000D02*
X46230540Y-38671500D01*
X46230540Y-38671500D02*
X46230540Y-40319960D01*
X46230540Y-40319960D02*
X45974000Y-40576500D01*
X45974000Y-40576500D02*
X45720000Y-40640000D01*
X46230540Y-38671500D02*
X45212000Y-38671500D01*
X45212000Y-38671500D02*
X45148500Y-38735000D01*
X45148500Y-38735000D02*
X45148500Y-39364227D01*
X44450000Y-38285420D02*
X46095920Y-38285420D01*
X46095920Y-38285420D02*
X46101000Y-38290500D01*
X46101000Y-38290500D02*
X46230540Y-38671500D01*
D36*
X46230540Y-38671500D02*
X46164500Y-38671500D01*
X46164500Y-38671500D02*
X45275500Y-39560500D01*
X45275500Y-39560500D02*
X45275500Y-39537409D01*
D38*
X44450000Y-38285420D02*
X44450000Y-38290500D01*
X44450000Y-38290500D02*
X44640500Y-38671500D01*
D36*
X44640500Y-38671500D02*
X45148500Y-39364227D01*
X45148500Y-39364227D02*
X45275500Y-39537409D01*
X45275500Y-39537409D02*
X46037500Y-40576500D01*
D38*
X46037500Y-40576500D02*
X45720000Y-40640000D01*
X41910000Y-38285420D02*
X40698420Y-38285420D01*
X40698420Y-38285420D02*
X39814500Y-37401500D01*
X39814500Y-37401500D02*
X39814500Y-35120385D01*
D36*
X39814500Y-35120385D02*
X40449500Y-33655000D01*
D38*
X40449500Y-33655000D02*
X40640000Y-33655000D01*
X41910000Y-36385500D02*
X42545000Y-36385500D01*
X42545000Y-36385500D02*
X43053000Y-36893500D01*
X43053000Y-36893500D02*
X43053000Y-39116000D01*
D36*
X43053000Y-39116000D02*
X43053000Y-40576500D01*
D38*
X43053000Y-40576500D02*
X43180000Y-40640000D01*
M02*
