G04 #@! TF.FileFunction,Soldermask,Bot*
%FSLAX46Y46*%
G04 Gerber Fmt 4.6, Leading zero omitted, Abs format (unit mm)*
G04 Created by KiCad (PCBNEW (2015-09-15 BZR 6201)-product) date Fri 01 Apr 2016 05:48:24 PM EEST*
%MOMM*%
G01*
G04 APERTURE LIST*
%ADD10C,0.100000*%
%ADD11C,0.150000*%
%ADD12R,2.178000X2.178000*%
%ADD13C,2.178000*%
%ADD14R,1.697940X1.898600*%
%ADD15R,1.898600X1.697940*%
%ADD16C,2.000200*%
%ADD17C,1.924000*%
%ADD18C,3.900120*%
%ADD19R,1.997660X2.200860*%
%ADD20R,2.432000X2.432000*%
%ADD21C,2.432000*%
%ADD22R,2.899360X2.899360*%
%ADD23C,2.899360*%
%ADD24R,1.035000X2.051000*%
%ADD25R,1.416000X1.035000*%
%ADD26R,1.924000X2.432000*%
%ADD27O,1.924000X2.432000*%
%ADD28C,3.501340*%
%ADD29O,1.924000X2.178000*%
%ADD30O,3.702000X2.940000*%
%ADD31R,0.704800X1.543000*%
G04 APERTURE END LIST*
D10*
D11*
X0Y0D02*
X0Y-45085000D01*
X50800000Y0D02*
X0Y0D01*
X50800000Y-45085000D02*
X50800000Y0D01*
X0Y-45085000D02*
X50800000Y-45085000D01*
D12*
X24892000Y-18796000D03*
D13*
X24892000Y-23876000D03*
D14*
X29715460Y-28003500D03*
X27815540Y-28003500D03*
X31435040Y-28003500D03*
X33334960Y-28003500D03*
D15*
X35306000Y-29715460D03*
X35306000Y-27815540D03*
D14*
X37652960Y-16637000D03*
X35753040Y-16637000D03*
D15*
X44958000Y-24450040D03*
X44958000Y-26349960D03*
X42926000Y-26349960D03*
X42926000Y-24450040D03*
X37338000Y-24190960D03*
X37338000Y-22291040D03*
X37338000Y-20507960D03*
X37338000Y-18608040D03*
D14*
X25587960Y-26035000D03*
X23688040Y-26035000D03*
D16*
X40767000Y-26543000D03*
D17*
X40767000Y-24043640D03*
X40767000Y-22044660D03*
D16*
X40767000Y-19542760D03*
D18*
X43517820Y-29542740D03*
X43517820Y-16543020D03*
D15*
X45085000Y-12697460D03*
X45085000Y-10797540D03*
D12*
X33020000Y-9525000D03*
D13*
X30480000Y-9525000D03*
D12*
X4127500Y-33845500D03*
D13*
X6667500Y-33845500D03*
D19*
X39855140Y-10922000D03*
X42694860Y-10922000D03*
D20*
X5207000Y-14668500D03*
D21*
X14605000Y-14668500D03*
X5207000Y-30543500D03*
X14605000Y-30543500D03*
D22*
X27940000Y-4445000D03*
D23*
X32941260Y-4445000D03*
D15*
X4762500Y-8823960D03*
X4762500Y-6924040D03*
D12*
X19685000Y-18796000D03*
D13*
X19685000Y-23876000D03*
D15*
X17208500Y-26228040D03*
X17208500Y-28127960D03*
X19177000Y-26228040D03*
X19177000Y-28127960D03*
D24*
X6604000Y-20828000D03*
X7874000Y-20828000D03*
X9144000Y-20828000D03*
X10414000Y-20828000D03*
X11684000Y-20828000D03*
X12954000Y-20828000D03*
X14224000Y-20828000D03*
X15494000Y-20828000D03*
X15494000Y-26543000D03*
X14224000Y-26543000D03*
X12954000Y-26543000D03*
X11684000Y-26543000D03*
X10414000Y-26543000D03*
X9144000Y-26543000D03*
X7874000Y-26543000D03*
X6604000Y-26543000D03*
D15*
X5080000Y-38293040D03*
X5080000Y-40192960D03*
X4762500Y-24767540D03*
X4762500Y-26667460D03*
X4762500Y-23047960D03*
X4762500Y-21148040D03*
D10*
G36*
X13505151Y-32881106D02*
X15061394Y-34437349D01*
X13648835Y-35849908D01*
X12092592Y-34293665D01*
X13505151Y-32881106D01*
X13505151Y-32881106D01*
G37*
G36*
X11497165Y-34889092D02*
X13053408Y-36445335D01*
X11640849Y-37857894D01*
X10084606Y-36301651D01*
X11497165Y-34889092D01*
X11497165Y-34889092D01*
G37*
D14*
X28254960Y-31750000D03*
X26355040Y-31750000D03*
D25*
X24003000Y-35496500D03*
X24003000Y-34546540D03*
X24003000Y-33596580D03*
X26543000Y-33596580D03*
X26543000Y-34546540D03*
X26543000Y-35496500D03*
D26*
X22225000Y-40640000D03*
D27*
X24765000Y-40640000D03*
D13*
X27305000Y-40640000D03*
X29845000Y-40640000D03*
D28*
X22225000Y-6985000D03*
X34290000Y-35560000D03*
D15*
X40449500Y-31556960D03*
X40449500Y-29657040D03*
D25*
X44450000Y-36385500D03*
X44450000Y-37335460D03*
X44450000Y-38285420D03*
X41910000Y-38285420D03*
X41910000Y-37335460D03*
X41910000Y-36385500D03*
D14*
X46230540Y-38671500D03*
X48130460Y-38671500D03*
D12*
X40640000Y-40640000D03*
D13*
X43180000Y-40640000D03*
X45720000Y-40640000D03*
X48260000Y-40640000D03*
D12*
X45720000Y-33655000D03*
D13*
X43180000Y-33655000D03*
X40640000Y-33655000D03*
D19*
X25250140Y-37465000D03*
X28089860Y-37465000D03*
D13*
X45085000Y-5715000D03*
D29*
X43085000Y-5715000D03*
X41085000Y-5715000D03*
D13*
X39085000Y-5715000D03*
D30*
X38830000Y-8255000D03*
X38830000Y-3175000D03*
X44835000Y-8215000D03*
X44835000Y-3215000D03*
D13*
X7620000Y-5715000D03*
D29*
X9620000Y-5715000D03*
X11620000Y-5715000D03*
D13*
X13620000Y-5715000D03*
D30*
X13875000Y-3175000D03*
X13875000Y-8255000D03*
X7870000Y-3215000D03*
X7870000Y-8215000D03*
D13*
X7620000Y-40640000D03*
D29*
X9620000Y-40640000D03*
X11620000Y-40640000D03*
D13*
X13620000Y-40640000D03*
D30*
X13875000Y-38100000D03*
X13875000Y-43180000D03*
X7870000Y-38140000D03*
X7870000Y-43140000D03*
D31*
X27051000Y-18669000D03*
X27686000Y-18669000D03*
X28321000Y-18669000D03*
X28956000Y-18669000D03*
X29591000Y-18669000D03*
X30226000Y-18669000D03*
X30861000Y-18669000D03*
X31496000Y-18669000D03*
X32131000Y-18669000D03*
X32766000Y-18669000D03*
X33401000Y-18669000D03*
X34036000Y-18669000D03*
X34671000Y-18669000D03*
X35306000Y-18669000D03*
X35306000Y-25336500D03*
X34671000Y-25336500D03*
X34036000Y-25336500D03*
X33401000Y-25336500D03*
X32766000Y-25336500D03*
X32131000Y-25336500D03*
X31496000Y-25336500D03*
X30861000Y-25336500D03*
X30226000Y-25336500D03*
X29591000Y-25336500D03*
X28956000Y-25336500D03*
X28321000Y-25336500D03*
X27686000Y-25336500D03*
X27051000Y-25336500D03*
D13*
X5207000Y-11430000D03*
X14605000Y-11430000D03*
X37465000Y-27559000D03*
X37465000Y-14351000D03*
X37465000Y-40703500D03*
X37465000Y-29654500D03*
X21209000Y-36893500D03*
X10731500Y-32956500D03*
X9398000Y-11938000D03*
X18478500Y-11938000D03*
X6540500Y-18669000D03*
X21399500Y-34226500D03*
X9144000Y-18542000D03*
X23812500Y-32004000D03*
M02*
