G04 #@! TF.FileFunction,Legend,Bot*
%FSLAX46Y46*%
G04 Gerber Fmt 4.6, Leading zero omitted, Abs format (unit mm)*
G04 Created by KiCad (PCBNEW 4.0.5+dfsg1-4) date Wed Feb 28 09:20:33 2018*
%MOMM*%
%LPD*%
G01*
G04 APERTURE LIST*
%ADD10C,0.100000*%
%ADD11C,0.150000*%
%ADD12C,0.066040*%
%ADD13C,0.152400*%
%ADD14C,0.381000*%
%ADD15C,0.025400*%
%ADD16C,0.088900*%
%ADD17C,0.190500*%
G04 APERTURE END LIST*
D10*
D11*
X0Y0D02*
X0Y-45085000D01*
X50800000Y0D02*
X0Y0D01*
X50800000Y-45085000D02*
X50800000Y0D01*
X0Y-45085000D02*
X50800000Y-45085000D01*
D12*
X28359100Y-28702000D02*
X27711400Y-28702000D01*
X27711400Y-28702000D02*
X27711400Y-27302460D01*
X28359100Y-27302460D02*
X27711400Y-27302460D01*
X28359100Y-28702000D02*
X28359100Y-27302460D01*
X29832300Y-28702000D02*
X29182060Y-28702000D01*
X29182060Y-28702000D02*
X29182060Y-27302460D01*
X29832300Y-27302460D02*
X29182060Y-27302460D01*
X29832300Y-28702000D02*
X29832300Y-27302460D01*
D13*
X29174440Y-27368500D02*
X28356560Y-27368500D01*
X29174440Y-28638500D02*
X28356560Y-28638500D01*
D12*
X32791400Y-27305000D02*
X33439100Y-27305000D01*
X33439100Y-27305000D02*
X33439100Y-28704540D01*
X32791400Y-28704540D02*
X33439100Y-28704540D01*
X32791400Y-27305000D02*
X32791400Y-28704540D01*
X31318200Y-27305000D02*
X31968440Y-27305000D01*
X31968440Y-27305000D02*
X31968440Y-28704540D01*
X31318200Y-28704540D02*
X31968440Y-28704540D01*
X31318200Y-27305000D02*
X31318200Y-28704540D01*
D13*
X31976060Y-28638500D02*
X32793940Y-28638500D01*
X31976060Y-27368500D02*
X32793940Y-27368500D01*
D12*
X34607500Y-28359100D02*
X34607500Y-27711400D01*
X34607500Y-27711400D02*
X36007040Y-27711400D01*
X36007040Y-28359100D02*
X36007040Y-27711400D01*
X34607500Y-28359100D02*
X36007040Y-28359100D01*
X34607500Y-29832300D02*
X34607500Y-29182060D01*
X34607500Y-29182060D02*
X36007040Y-29182060D01*
X36007040Y-29832300D02*
X36007040Y-29182060D01*
X34607500Y-29832300D02*
X36007040Y-29832300D01*
D13*
X35941000Y-29174440D02*
X35941000Y-28356560D01*
X34671000Y-29174440D02*
X34671000Y-28356560D01*
D12*
X36296600Y-17335500D02*
X35648900Y-17335500D01*
X35648900Y-17335500D02*
X35648900Y-15935960D01*
X36296600Y-15935960D02*
X35648900Y-15935960D01*
X36296600Y-17335500D02*
X36296600Y-15935960D01*
X37769800Y-17335500D02*
X37119560Y-17335500D01*
X37119560Y-17335500D02*
X37119560Y-15935960D01*
X37769800Y-15935960D02*
X37119560Y-15935960D01*
X37769800Y-17335500D02*
X37769800Y-15935960D01*
D13*
X37111940Y-16002000D02*
X36294060Y-16002000D01*
X37111940Y-17272000D02*
X36294060Y-17272000D01*
D12*
X45656500Y-25806400D02*
X45656500Y-26454100D01*
X45656500Y-26454100D02*
X44256960Y-26454100D01*
X44256960Y-25806400D02*
X44256960Y-26454100D01*
X45656500Y-25806400D02*
X44256960Y-25806400D01*
X45656500Y-24333200D02*
X45656500Y-24983440D01*
X45656500Y-24983440D02*
X44256960Y-24983440D01*
X44256960Y-24333200D02*
X44256960Y-24983440D01*
X45656500Y-24333200D02*
X44256960Y-24333200D01*
D13*
X44323000Y-24991060D02*
X44323000Y-25808940D01*
X45593000Y-24991060D02*
X45593000Y-25808940D01*
D12*
X42227500Y-24993600D02*
X42227500Y-24345900D01*
X42227500Y-24345900D02*
X43627040Y-24345900D01*
X43627040Y-24993600D02*
X43627040Y-24345900D01*
X42227500Y-24993600D02*
X43627040Y-24993600D01*
X42227500Y-26466800D02*
X42227500Y-25816560D01*
X42227500Y-25816560D02*
X43627040Y-25816560D01*
X43627040Y-26466800D02*
X43627040Y-25816560D01*
X42227500Y-26466800D02*
X43627040Y-26466800D01*
D13*
X43561000Y-25808940D02*
X43561000Y-24991060D01*
X42291000Y-25808940D02*
X42291000Y-24991060D01*
D12*
X36639500Y-22834600D02*
X36639500Y-22186900D01*
X36639500Y-22186900D02*
X38039040Y-22186900D01*
X38039040Y-22834600D02*
X38039040Y-22186900D01*
X36639500Y-22834600D02*
X38039040Y-22834600D01*
X36639500Y-24307800D02*
X36639500Y-23657560D01*
X36639500Y-23657560D02*
X38039040Y-23657560D01*
X38039040Y-24307800D02*
X38039040Y-23657560D01*
X36639500Y-24307800D02*
X38039040Y-24307800D01*
D13*
X37973000Y-23649940D02*
X37973000Y-22832060D01*
X36703000Y-23649940D02*
X36703000Y-22832060D01*
D12*
X36639500Y-19151600D02*
X36639500Y-18503900D01*
X36639500Y-18503900D02*
X38039040Y-18503900D01*
X38039040Y-19151600D02*
X38039040Y-18503900D01*
X36639500Y-19151600D02*
X38039040Y-19151600D01*
X36639500Y-20624800D02*
X36639500Y-19974560D01*
X36639500Y-19974560D02*
X38039040Y-19974560D01*
X38039040Y-20624800D02*
X38039040Y-19974560D01*
X36639500Y-20624800D02*
X38039040Y-20624800D01*
D13*
X37973000Y-19966940D02*
X37973000Y-19149060D01*
X36703000Y-19966940D02*
X36703000Y-19149060D01*
D12*
X24231600Y-26733500D02*
X23583900Y-26733500D01*
X23583900Y-26733500D02*
X23583900Y-25333960D01*
X24231600Y-25333960D02*
X23583900Y-25333960D01*
X24231600Y-26733500D02*
X24231600Y-25333960D01*
X25704800Y-26733500D02*
X25054560Y-26733500D01*
X25054560Y-26733500D02*
X25054560Y-25333960D01*
X25704800Y-25333960D02*
X25054560Y-25333960D01*
X25704800Y-26733500D02*
X25704800Y-25333960D01*
D13*
X25046940Y-25400000D02*
X24229060Y-25400000D01*
X25046940Y-26670000D02*
X24229060Y-26670000D01*
D12*
X44386500Y-11341100D02*
X44386500Y-10693400D01*
X44386500Y-10693400D02*
X45786040Y-10693400D01*
X45786040Y-11341100D02*
X45786040Y-10693400D01*
X44386500Y-11341100D02*
X45786040Y-11341100D01*
X44386500Y-12814300D02*
X44386500Y-12164060D01*
X44386500Y-12164060D02*
X45786040Y-12164060D01*
X45786040Y-12814300D02*
X45786040Y-12164060D01*
X44386500Y-12814300D02*
X45786040Y-12814300D01*
D13*
X45720000Y-12156440D02*
X45720000Y-11338560D01*
X44450000Y-12156440D02*
X44450000Y-11338560D01*
D12*
X39585900Y-10045700D02*
X40322500Y-10045700D01*
X40322500Y-10045700D02*
X40322500Y-11798300D01*
X39585900Y-11798300D02*
X40322500Y-11798300D01*
X39585900Y-10045700D02*
X39585900Y-11798300D01*
X42227500Y-10045700D02*
X42964100Y-10045700D01*
X42964100Y-10045700D02*
X42964100Y-11798300D01*
X42227500Y-11798300D02*
X42964100Y-11798300D01*
X42227500Y-10045700D02*
X42227500Y-11798300D01*
D13*
X42227500Y-10109200D02*
X40309800Y-10109200D01*
X42227500Y-11734800D02*
X40309800Y-11734800D01*
D12*
X3873500Y-7594600D02*
X3873500Y-6946900D01*
X3873500Y-6946900D02*
X5273040Y-6946900D01*
X5273040Y-7594600D02*
X5273040Y-6946900D01*
X3873500Y-7594600D02*
X5273040Y-7594600D01*
X3873500Y-9067800D02*
X3873500Y-8417560D01*
X3873500Y-8417560D02*
X5273040Y-8417560D01*
X5273040Y-9067800D02*
X5273040Y-8417560D01*
X3873500Y-9067800D02*
X5273040Y-9067800D01*
D13*
X5207000Y-8409940D02*
X5207000Y-7592060D01*
X3937000Y-8409940D02*
X3937000Y-7592060D01*
D12*
X17907000Y-27584400D02*
X17907000Y-28232100D01*
X17907000Y-28232100D02*
X16507460Y-28232100D01*
X16507460Y-27584400D02*
X16507460Y-28232100D01*
X17907000Y-27584400D02*
X16507460Y-27584400D01*
X17907000Y-26111200D02*
X17907000Y-26761440D01*
X17907000Y-26761440D02*
X16507460Y-26761440D01*
X16507460Y-26111200D02*
X16507460Y-26761440D01*
X17907000Y-26111200D02*
X16507460Y-26111200D01*
D13*
X16573500Y-26769060D02*
X16573500Y-27586940D01*
X17843500Y-26769060D02*
X17843500Y-27586940D01*
D12*
X19875500Y-27584400D02*
X19875500Y-28232100D01*
X19875500Y-28232100D02*
X18475960Y-28232100D01*
X18475960Y-27584400D02*
X18475960Y-28232100D01*
X19875500Y-27584400D02*
X18475960Y-27584400D01*
X19875500Y-26111200D02*
X19875500Y-26761440D01*
X19875500Y-26761440D02*
X18475960Y-26761440D01*
X18475960Y-26111200D02*
X18475960Y-26761440D01*
X19875500Y-26111200D02*
X18475960Y-26111200D01*
D13*
X18542000Y-26769060D02*
X18542000Y-27586940D01*
X19812000Y-26769060D02*
X19812000Y-27586940D01*
D14*
X5969000Y-24003000D02*
X6604000Y-24003000D01*
X6604000Y-24003000D02*
X6604000Y-23368000D01*
X6604000Y-23368000D02*
X5969000Y-23368000D01*
X16129000Y-25273000D02*
X16129000Y-22098000D01*
X5969000Y-25273000D02*
X5969000Y-24003000D01*
X5969000Y-23368000D02*
X5969000Y-22098000D01*
D12*
X5540546Y-37230282D02*
X5082553Y-37688275D01*
X5082553Y-37688275D02*
X4092929Y-36698651D01*
X4550922Y-36240658D02*
X4092929Y-36698651D01*
X5540546Y-37230282D02*
X4550922Y-36240658D01*
X6582256Y-36188573D02*
X6122466Y-36648362D01*
X6122466Y-36648362D02*
X5132842Y-35658737D01*
X5592631Y-35198948D02*
X5132842Y-35658737D01*
X6582256Y-36188573D02*
X5592631Y-35198948D01*
D13*
X5174151Y-35710823D02*
X4595823Y-36289151D01*
X6072177Y-36608849D02*
X5493849Y-37187177D01*
D12*
X5461000Y-26123900D02*
X5461000Y-26771600D01*
X5461000Y-26771600D02*
X4061460Y-26771600D01*
X4061460Y-26123900D02*
X4061460Y-26771600D01*
X5461000Y-26123900D02*
X4061460Y-26123900D01*
X5461000Y-24650700D02*
X5461000Y-25300940D01*
X5461000Y-25300940D02*
X4061460Y-25300940D01*
X4061460Y-24650700D02*
X4061460Y-25300940D01*
X5461000Y-24650700D02*
X4061460Y-24650700D01*
D13*
X4127500Y-25308560D02*
X4127500Y-26126440D01*
X5397500Y-25308560D02*
X5397500Y-26126440D01*
D12*
X4064000Y-21691600D02*
X4064000Y-21043900D01*
X4064000Y-21043900D02*
X5463540Y-21043900D01*
X5463540Y-21691600D02*
X5463540Y-21043900D01*
X4064000Y-21691600D02*
X5463540Y-21691600D01*
X4064000Y-23164800D02*
X4064000Y-22514560D01*
X4064000Y-22514560D02*
X5463540Y-22514560D01*
X5463540Y-23164800D02*
X5463540Y-22514560D01*
X4064000Y-23164800D02*
X5463540Y-23164800D01*
D13*
X5397500Y-22506940D02*
X5397500Y-21689060D01*
X4127500Y-22506940D02*
X4127500Y-21689060D01*
D12*
X14387012Y-34794764D02*
X13866157Y-35315618D01*
X13866157Y-35315618D02*
X12626882Y-34076343D01*
X13147736Y-33555488D02*
X12626882Y-34076343D01*
X14387012Y-34794764D02*
X13147736Y-33555488D01*
X12519118Y-36662657D02*
X11998264Y-37183512D01*
X11998264Y-37183512D02*
X10758988Y-35944236D01*
X11279843Y-35423382D02*
X10758988Y-35944236D01*
X12519118Y-36662657D02*
X11279843Y-35423382D01*
D13*
X12474217Y-36617756D02*
X13830236Y-35261737D01*
X11324744Y-35468283D02*
X12680763Y-34112264D01*
D12*
X26898600Y-32448500D02*
X26250900Y-32448500D01*
X26250900Y-32448500D02*
X26250900Y-31048960D01*
X26898600Y-31048960D02*
X26250900Y-31048960D01*
X26898600Y-32448500D02*
X26898600Y-31048960D01*
X28371800Y-32448500D02*
X27721560Y-32448500D01*
X27721560Y-32448500D02*
X27721560Y-31048960D01*
X28371800Y-31048960D02*
X27721560Y-31048960D01*
X28371800Y-32448500D02*
X28371800Y-31048960D01*
D13*
X27713940Y-31115000D02*
X26896060Y-31115000D01*
X27713940Y-32385000D02*
X26896060Y-32385000D01*
D14*
X25908000Y-36131500D02*
X24638000Y-36131500D01*
X24638000Y-36131500D02*
X24638000Y-32956500D01*
X24638000Y-32956500D02*
X25908000Y-32956500D01*
X25908000Y-32956500D02*
X25908000Y-36131500D01*
D12*
X39751000Y-30200600D02*
X39751000Y-29552900D01*
X39751000Y-29552900D02*
X41150540Y-29552900D01*
X41150540Y-30200600D02*
X41150540Y-29552900D01*
X39751000Y-30200600D02*
X41150540Y-30200600D01*
X39751000Y-31673800D02*
X39751000Y-31023560D01*
X39751000Y-31023560D02*
X41150540Y-31023560D01*
X41150540Y-31673800D02*
X41150540Y-31023560D01*
X39751000Y-31673800D02*
X41150540Y-31673800D01*
D13*
X41084500Y-31015940D02*
X41084500Y-30198060D01*
X39814500Y-31015940D02*
X39814500Y-30198060D01*
D14*
X42545000Y-35750500D02*
X43815000Y-35750500D01*
X43815000Y-35750500D02*
X43815000Y-38925500D01*
X43815000Y-38925500D02*
X42545000Y-38925500D01*
X42545000Y-38925500D02*
X42545000Y-35750500D01*
D12*
X47586900Y-37973000D02*
X48234600Y-37973000D01*
X48234600Y-37973000D02*
X48234600Y-39372540D01*
X47586900Y-39372540D02*
X48234600Y-39372540D01*
X47586900Y-37973000D02*
X47586900Y-39372540D01*
X46113700Y-37973000D02*
X46763940Y-37973000D01*
X46763940Y-37973000D02*
X46763940Y-39372540D01*
X46113700Y-39372540D02*
X46763940Y-39372540D01*
X46113700Y-37973000D02*
X46113700Y-39372540D01*
D13*
X46771560Y-39306500D02*
X47589440Y-39306500D01*
X46771560Y-38036500D02*
X47589440Y-38036500D01*
D12*
X24980900Y-36588700D02*
X25717500Y-36588700D01*
X25717500Y-36588700D02*
X25717500Y-38341300D01*
X24980900Y-38341300D02*
X25717500Y-38341300D01*
X24980900Y-36588700D02*
X24980900Y-38341300D01*
X27622500Y-36588700D02*
X28359100Y-36588700D01*
X28359100Y-36588700D02*
X28359100Y-38341300D01*
X27622500Y-38341300D02*
X28359100Y-38341300D01*
X27622500Y-36588700D02*
X27622500Y-38341300D01*
D13*
X27622500Y-36652200D02*
X25704800Y-36652200D01*
X27622500Y-38277800D02*
X25704800Y-38277800D01*
D14*
X35941000Y-24257000D02*
X35941000Y-20447000D01*
X26416000Y-24257000D02*
X26416000Y-22987000D01*
X26416000Y-22987000D02*
X27051000Y-22352000D01*
X27051000Y-22352000D02*
X26416000Y-21717000D01*
X26416000Y-21717000D02*
X26416000Y-20447000D01*
D15*
X28850167Y-26963310D02*
X29019500Y-26721405D01*
X29140453Y-26963310D02*
X29140453Y-26455310D01*
X28946929Y-26455310D01*
X28898548Y-26479500D01*
X28874357Y-26503690D01*
X28850167Y-26552071D01*
X28850167Y-26624643D01*
X28874357Y-26673024D01*
X28898548Y-26697214D01*
X28946929Y-26721405D01*
X29140453Y-26721405D01*
X28366357Y-26963310D02*
X28656643Y-26963310D01*
X28511500Y-26963310D02*
X28511500Y-26455310D01*
X28559881Y-26527881D01*
X28608262Y-26576262D01*
X28656643Y-26600452D01*
X32469667Y-26963310D02*
X32639000Y-26721405D01*
X32759953Y-26963310D02*
X32759953Y-26455310D01*
X32566429Y-26455310D01*
X32518048Y-26479500D01*
X32493857Y-26503690D01*
X32469667Y-26552071D01*
X32469667Y-26624643D01*
X32493857Y-26673024D01*
X32518048Y-26697214D01*
X32566429Y-26721405D01*
X32759953Y-26721405D01*
X32276143Y-26503690D02*
X32251953Y-26479500D01*
X32203572Y-26455310D01*
X32082619Y-26455310D01*
X32034238Y-26479500D01*
X32010048Y-26503690D01*
X31985857Y-26552071D01*
X31985857Y-26600452D01*
X32010048Y-26673024D01*
X32300334Y-26963310D01*
X31985857Y-26963310D01*
X36805810Y-28680833D02*
X36563905Y-28511500D01*
X36805810Y-28390547D02*
X36297810Y-28390547D01*
X36297810Y-28584071D01*
X36322000Y-28632452D01*
X36346190Y-28656643D01*
X36394571Y-28680833D01*
X36467143Y-28680833D01*
X36515524Y-28656643D01*
X36539714Y-28632452D01*
X36563905Y-28584071D01*
X36563905Y-28390547D01*
X36297810Y-28850166D02*
X36297810Y-29164643D01*
X36491333Y-28995309D01*
X36491333Y-29067881D01*
X36515524Y-29116262D01*
X36539714Y-29140452D01*
X36588095Y-29164643D01*
X36709048Y-29164643D01*
X36757429Y-29140452D01*
X36781619Y-29116262D01*
X36805810Y-29067881D01*
X36805810Y-28922738D01*
X36781619Y-28874357D01*
X36757429Y-28850166D01*
X36787667Y-15596810D02*
X36957000Y-15354905D01*
X37077953Y-15596810D02*
X37077953Y-15088810D01*
X36884429Y-15088810D01*
X36836048Y-15113000D01*
X36811857Y-15137190D01*
X36787667Y-15185571D01*
X36787667Y-15258143D01*
X36811857Y-15306524D01*
X36836048Y-15330714D01*
X36884429Y-15354905D01*
X37077953Y-15354905D01*
X36352238Y-15258143D02*
X36352238Y-15596810D01*
X36473191Y-15064619D02*
X36594143Y-15427476D01*
X36279667Y-15427476D01*
X45042667Y-23295429D02*
X45066857Y-23319619D01*
X45139429Y-23343810D01*
X45187810Y-23343810D01*
X45260381Y-23319619D01*
X45308762Y-23271238D01*
X45332953Y-23222857D01*
X45357143Y-23126095D01*
X45357143Y-23053524D01*
X45332953Y-22956762D01*
X45308762Y-22908381D01*
X45260381Y-22860000D01*
X45187810Y-22835810D01*
X45139429Y-22835810D01*
X45066857Y-22860000D01*
X45042667Y-22884190D01*
X44558857Y-23343810D02*
X44849143Y-23343810D01*
X44704000Y-23343810D02*
X44704000Y-22835810D01*
X44752381Y-22908381D01*
X44800762Y-22956762D01*
X44849143Y-22980952D01*
X43010667Y-23343810D02*
X43252572Y-23343810D01*
X43252572Y-22835810D01*
X42575238Y-23343810D02*
X42865524Y-23343810D01*
X42720381Y-23343810D02*
X42720381Y-22835810D01*
X42768762Y-22908381D01*
X42817143Y-22956762D01*
X42865524Y-22980952D01*
X38789429Y-23156333D02*
X38813619Y-23132143D01*
X38837810Y-23059571D01*
X38837810Y-23011190D01*
X38813619Y-22938619D01*
X38765238Y-22890238D01*
X38716857Y-22866047D01*
X38620095Y-22841857D01*
X38547524Y-22841857D01*
X38450762Y-22866047D01*
X38402381Y-22890238D01*
X38354000Y-22938619D01*
X38329810Y-23011190D01*
X38329810Y-23059571D01*
X38354000Y-23132143D01*
X38378190Y-23156333D01*
X38378190Y-23349857D02*
X38354000Y-23374047D01*
X38329810Y-23422428D01*
X38329810Y-23543381D01*
X38354000Y-23591762D01*
X38378190Y-23615952D01*
X38426571Y-23640143D01*
X38474952Y-23640143D01*
X38547524Y-23615952D01*
X38837810Y-23325666D01*
X38837810Y-23640143D01*
X38789429Y-19473333D02*
X38813619Y-19449143D01*
X38837810Y-19376571D01*
X38837810Y-19328190D01*
X38813619Y-19255619D01*
X38765238Y-19207238D01*
X38716857Y-19183047D01*
X38620095Y-19158857D01*
X38547524Y-19158857D01*
X38450762Y-19183047D01*
X38402381Y-19207238D01*
X38354000Y-19255619D01*
X38329810Y-19328190D01*
X38329810Y-19376571D01*
X38354000Y-19449143D01*
X38378190Y-19473333D01*
X38329810Y-19642666D02*
X38329810Y-19957143D01*
X38523333Y-19787809D01*
X38523333Y-19860381D01*
X38547524Y-19908762D01*
X38571714Y-19932952D01*
X38620095Y-19957143D01*
X38741048Y-19957143D01*
X38789429Y-19932952D01*
X38813619Y-19908762D01*
X38837810Y-19860381D01*
X38837810Y-19715238D01*
X38813619Y-19666857D01*
X38789429Y-19642666D01*
X24722667Y-27740429D02*
X24746857Y-27764619D01*
X24819429Y-27788810D01*
X24867810Y-27788810D01*
X24940381Y-27764619D01*
X24988762Y-27716238D01*
X25012953Y-27667857D01*
X25037143Y-27571095D01*
X25037143Y-27498524D01*
X25012953Y-27401762D01*
X24988762Y-27353381D01*
X24940381Y-27305000D01*
X24867810Y-27280810D01*
X24819429Y-27280810D01*
X24746857Y-27305000D01*
X24722667Y-27329190D01*
X24287238Y-27450143D02*
X24287238Y-27788810D01*
X24408191Y-27256619D02*
X24529143Y-27619476D01*
X24214667Y-27619476D01*
X46318714Y-11312072D02*
X46318714Y-11142738D01*
X46584810Y-11142738D02*
X46076810Y-11142738D01*
X46076810Y-11384643D01*
X46076810Y-11578167D02*
X46488048Y-11578167D01*
X46536429Y-11602358D01*
X46560619Y-11626548D01*
X46584810Y-11674929D01*
X46584810Y-11771691D01*
X46560619Y-11820072D01*
X46536429Y-11844263D01*
X46488048Y-11868453D01*
X46076810Y-11868453D01*
X46584810Y-12376453D02*
X46584810Y-12086167D01*
X46584810Y-12231310D02*
X46076810Y-12231310D01*
X46149381Y-12182929D01*
X46197762Y-12134548D01*
X46221952Y-12086167D01*
D16*
X41444333Y-13286619D02*
X41782999Y-12802810D01*
X42024904Y-13286619D02*
X42024904Y-12270619D01*
X41637857Y-12270619D01*
X41541095Y-12319000D01*
X41492714Y-12367381D01*
X41444333Y-12464143D01*
X41444333Y-12609286D01*
X41492714Y-12706048D01*
X41541095Y-12754429D01*
X41637857Y-12802810D01*
X42024904Y-12802810D01*
X40573476Y-12270619D02*
X40766999Y-12270619D01*
X40863761Y-12319000D01*
X40912142Y-12367381D01*
X41008904Y-12512524D01*
X41057285Y-12706048D01*
X41057285Y-13093095D01*
X41008904Y-13189857D01*
X40960523Y-13238238D01*
X40863761Y-13286619D01*
X40670238Y-13286619D01*
X40573476Y-13238238D01*
X40525095Y-13189857D01*
X40476714Y-13093095D01*
X40476714Y-12851190D01*
X40525095Y-12754429D01*
X40573476Y-12706048D01*
X40670238Y-12657667D01*
X40863761Y-12657667D01*
X40960523Y-12706048D01*
X41008904Y-12754429D01*
X41057285Y-12851190D01*
D15*
X5805714Y-7565572D02*
X5805714Y-7396238D01*
X6071810Y-7396238D02*
X5563810Y-7396238D01*
X5563810Y-7638143D01*
X5563810Y-7831667D02*
X5975048Y-7831667D01*
X6023429Y-7855858D01*
X6047619Y-7880048D01*
X6071810Y-7928429D01*
X6071810Y-8025191D01*
X6047619Y-8073572D01*
X6023429Y-8097763D01*
X5975048Y-8121953D01*
X5563810Y-8121953D01*
X5612190Y-8339667D02*
X5588000Y-8363857D01*
X5563810Y-8412238D01*
X5563810Y-8533191D01*
X5588000Y-8581572D01*
X5612190Y-8605762D01*
X5660571Y-8629953D01*
X5708952Y-8629953D01*
X5781524Y-8605762D01*
X6071810Y-8315476D01*
X6071810Y-8629953D01*
X17229667Y-29645429D02*
X17253857Y-29669619D01*
X17326429Y-29693810D01*
X17374810Y-29693810D01*
X17447381Y-29669619D01*
X17495762Y-29621238D01*
X17519953Y-29572857D01*
X17544143Y-29476095D01*
X17544143Y-29403524D01*
X17519953Y-29306762D01*
X17495762Y-29258381D01*
X17447381Y-29210000D01*
X17374810Y-29185810D01*
X17326429Y-29185810D01*
X17253857Y-29210000D01*
X17229667Y-29234190D01*
X16794238Y-29185810D02*
X16891000Y-29185810D01*
X16939381Y-29210000D01*
X16963572Y-29234190D01*
X17011953Y-29306762D01*
X17036143Y-29403524D01*
X17036143Y-29597048D01*
X17011953Y-29645429D01*
X16987762Y-29669619D01*
X16939381Y-29693810D01*
X16842619Y-29693810D01*
X16794238Y-29669619D01*
X16770048Y-29645429D01*
X16745857Y-29597048D01*
X16745857Y-29476095D01*
X16770048Y-29427714D01*
X16794238Y-29403524D01*
X16842619Y-29379333D01*
X16939381Y-29379333D01*
X16987762Y-29403524D01*
X17011953Y-29427714D01*
X17036143Y-29476095D01*
X19261667Y-29645429D02*
X19285857Y-29669619D01*
X19358429Y-29693810D01*
X19406810Y-29693810D01*
X19479381Y-29669619D01*
X19527762Y-29621238D01*
X19551953Y-29572857D01*
X19576143Y-29476095D01*
X19576143Y-29403524D01*
X19551953Y-29306762D01*
X19527762Y-29258381D01*
X19479381Y-29210000D01*
X19406810Y-29185810D01*
X19358429Y-29185810D01*
X19285857Y-29210000D01*
X19261667Y-29234190D01*
X19092334Y-29185810D02*
X18753667Y-29185810D01*
X18971381Y-29693810D01*
D17*
X11992428Y-24347714D02*
X11992428Y-23585714D01*
X11811000Y-23585714D01*
X11702143Y-23622000D01*
X11629571Y-23694571D01*
X11593286Y-23767143D01*
X11557000Y-23912286D01*
X11557000Y-24021143D01*
X11593286Y-24166286D01*
X11629571Y-24238857D01*
X11702143Y-24311429D01*
X11811000Y-24347714D01*
X11992428Y-24347714D01*
X11230428Y-24347714D02*
X11230428Y-23585714D01*
X11049000Y-23585714D01*
X10940143Y-23622000D01*
X10867571Y-23694571D01*
X10831286Y-23767143D01*
X10795000Y-23912286D01*
X10795000Y-24021143D01*
X10831286Y-24166286D01*
X10867571Y-24238857D01*
X10940143Y-24311429D01*
X11049000Y-24347714D01*
X11230428Y-24347714D01*
X10504714Y-23658286D02*
X10468428Y-23622000D01*
X10395857Y-23585714D01*
X10214428Y-23585714D01*
X10141857Y-23622000D01*
X10105571Y-23658286D01*
X10069286Y-23730857D01*
X10069286Y-23803429D01*
X10105571Y-23912286D01*
X10541000Y-24347714D01*
X10069286Y-24347714D01*
D15*
X4718210Y-35217422D02*
X4837947Y-35097685D01*
X5026106Y-35285843D02*
X4666895Y-34926633D01*
X4495843Y-35097685D01*
X4359000Y-35234527D02*
X4649790Y-35525317D01*
X4666895Y-35576633D01*
X4666895Y-35610843D01*
X4649790Y-35662159D01*
X4581369Y-35730580D01*
X4530052Y-35747685D01*
X4495842Y-35747685D01*
X4444526Y-35730580D01*
X4153737Y-35439791D01*
X4016896Y-35576632D02*
X3794527Y-35799001D01*
X4051106Y-35816105D01*
X3999790Y-35867421D01*
X3982685Y-35918737D01*
X3982685Y-35952947D01*
X3999790Y-36004263D01*
X4085316Y-36089790D01*
X4136632Y-36106895D01*
X4170842Y-36106895D01*
X4222158Y-36089790D01*
X4324790Y-35987158D01*
X4341895Y-35935842D01*
X4341896Y-35901632D01*
X3483429Y-25696333D02*
X3507619Y-25672143D01*
X3531810Y-25599571D01*
X3531810Y-25551190D01*
X3507619Y-25478619D01*
X3459238Y-25430238D01*
X3410857Y-25406047D01*
X3314095Y-25381857D01*
X3241524Y-25381857D01*
X3144762Y-25406047D01*
X3096381Y-25430238D01*
X3048000Y-25478619D01*
X3023810Y-25551190D01*
X3023810Y-25599571D01*
X3048000Y-25672143D01*
X3072190Y-25696333D01*
X3241524Y-25986619D02*
X3217333Y-25938238D01*
X3193143Y-25914047D01*
X3144762Y-25889857D01*
X3120571Y-25889857D01*
X3072190Y-25914047D01*
X3048000Y-25938238D01*
X3023810Y-25986619D01*
X3023810Y-26083381D01*
X3048000Y-26131762D01*
X3072190Y-26155952D01*
X3120571Y-26180143D01*
X3144762Y-26180143D01*
X3193143Y-26155952D01*
X3217333Y-26131762D01*
X3241524Y-26083381D01*
X3241524Y-25986619D01*
X3265714Y-25938238D01*
X3289905Y-25914047D01*
X3338286Y-25889857D01*
X3435048Y-25889857D01*
X3483429Y-25914047D01*
X3507619Y-25938238D01*
X3531810Y-25986619D01*
X3531810Y-26083381D01*
X3507619Y-26131762D01*
X3483429Y-26155952D01*
X3435048Y-26180143D01*
X3338286Y-26180143D01*
X3289905Y-26155952D01*
X3265714Y-26131762D01*
X3241524Y-26083381D01*
X3483429Y-21771428D02*
X3507619Y-21747238D01*
X3531810Y-21674666D01*
X3531810Y-21626285D01*
X3507619Y-21553714D01*
X3459238Y-21505333D01*
X3410857Y-21481142D01*
X3314095Y-21456952D01*
X3241524Y-21456952D01*
X3144762Y-21481142D01*
X3096381Y-21505333D01*
X3048000Y-21553714D01*
X3023810Y-21626285D01*
X3023810Y-21674666D01*
X3048000Y-21747238D01*
X3072190Y-21771428D01*
X3531810Y-22255238D02*
X3531810Y-21964952D01*
X3531810Y-22110095D02*
X3023810Y-22110095D01*
X3096381Y-22061714D01*
X3144762Y-22013333D01*
X3168952Y-21964952D01*
X3023810Y-22569714D02*
X3023810Y-22618095D01*
X3048000Y-22666476D01*
X3072190Y-22690667D01*
X3120571Y-22714857D01*
X3217333Y-22739048D01*
X3338286Y-22739048D01*
X3435048Y-22714857D01*
X3483429Y-22690667D01*
X3507619Y-22666476D01*
X3531810Y-22618095D01*
X3531810Y-22569714D01*
X3507619Y-22521333D01*
X3483429Y-22497143D01*
X3435048Y-22472952D01*
X3338286Y-22448762D01*
X3217333Y-22448762D01*
X3120571Y-22472952D01*
X3072190Y-22497143D01*
X3048000Y-22521333D01*
X3023810Y-22569714D01*
D16*
X11670698Y-34227725D02*
X11568067Y-33646148D01*
X12081224Y-33817200D02*
X11362803Y-33098779D01*
X11089120Y-33372463D01*
X11054909Y-33475094D01*
X11054909Y-33543515D01*
X11089120Y-33646147D01*
X11191751Y-33748778D01*
X11294383Y-33782989D01*
X11362804Y-33782989D01*
X11465436Y-33748778D01*
X11739119Y-33475095D01*
X10302278Y-34159304D02*
X10644383Y-33817200D01*
X11020699Y-34125094D01*
X10952278Y-34125094D01*
X10849646Y-34159305D01*
X10678594Y-34330357D01*
X10644384Y-34432988D01*
X10644384Y-34501409D01*
X10678593Y-34604040D01*
X10849646Y-34775093D01*
X10952278Y-34809304D01*
X11020699Y-34809304D01*
X11123330Y-34775093D01*
X11294382Y-34604041D01*
X11328593Y-34501409D01*
X11328593Y-34432988D01*
D15*
X27631572Y-30661429D02*
X27655762Y-30685619D01*
X27728334Y-30709810D01*
X27776715Y-30709810D01*
X27849286Y-30685619D01*
X27897667Y-30637238D01*
X27921858Y-30588857D01*
X27946048Y-30492095D01*
X27946048Y-30419524D01*
X27921858Y-30322762D01*
X27897667Y-30274381D01*
X27849286Y-30226000D01*
X27776715Y-30201810D01*
X27728334Y-30201810D01*
X27655762Y-30226000D01*
X27631572Y-30250190D01*
X27147762Y-30709810D02*
X27438048Y-30709810D01*
X27292905Y-30709810D02*
X27292905Y-30201810D01*
X27341286Y-30274381D01*
X27389667Y-30322762D01*
X27438048Y-30346952D01*
X26663952Y-30709810D02*
X26954238Y-30709810D01*
X26809095Y-30709810D02*
X26809095Y-30201810D01*
X26857476Y-30274381D01*
X26905857Y-30322762D01*
X26954238Y-30346952D01*
X25502810Y-33902347D02*
X24994810Y-33902347D01*
X24994810Y-34023300D01*
X25019000Y-34095871D01*
X25067381Y-34144252D01*
X25115762Y-34168443D01*
X25212524Y-34192633D01*
X25285095Y-34192633D01*
X25381857Y-34168443D01*
X25430238Y-34144252D01*
X25478619Y-34095871D01*
X25502810Y-34023300D01*
X25502810Y-33902347D01*
X25502810Y-34410347D02*
X24994810Y-34410347D01*
X24994810Y-34531300D01*
X25019000Y-34603871D01*
X25067381Y-34652252D01*
X25115762Y-34676443D01*
X25212524Y-34700633D01*
X25285095Y-34700633D01*
X25381857Y-34676443D01*
X25430238Y-34652252D01*
X25478619Y-34603871D01*
X25502810Y-34531300D01*
X25502810Y-34410347D01*
X24994810Y-34869966D02*
X24994810Y-35184443D01*
X25188333Y-35015109D01*
X25188333Y-35087681D01*
X25212524Y-35136062D01*
X25236714Y-35160252D01*
X25285095Y-35184443D01*
X25406048Y-35184443D01*
X25454429Y-35160252D01*
X25478619Y-35136062D01*
X25502810Y-35087681D01*
X25502810Y-34942538D01*
X25478619Y-34894157D01*
X25454429Y-34869966D01*
X41900929Y-30280428D02*
X41925119Y-30256238D01*
X41949310Y-30183666D01*
X41949310Y-30135285D01*
X41925119Y-30062714D01*
X41876738Y-30014333D01*
X41828357Y-29990142D01*
X41731595Y-29965952D01*
X41659024Y-29965952D01*
X41562262Y-29990142D01*
X41513881Y-30014333D01*
X41465500Y-30062714D01*
X41441310Y-30135285D01*
X41441310Y-30183666D01*
X41465500Y-30256238D01*
X41489690Y-30280428D01*
X41949310Y-30764238D02*
X41949310Y-30473952D01*
X41949310Y-30619095D02*
X41441310Y-30619095D01*
X41513881Y-30570714D01*
X41562262Y-30522333D01*
X41586452Y-30473952D01*
X41489690Y-30957762D02*
X41465500Y-30981952D01*
X41441310Y-31030333D01*
X41441310Y-31151286D01*
X41465500Y-31199667D01*
X41489690Y-31223857D01*
X41538071Y-31248048D01*
X41586452Y-31248048D01*
X41659024Y-31223857D01*
X41949310Y-30933571D01*
X41949310Y-31248048D01*
X43409810Y-36721747D02*
X42901810Y-36721747D01*
X42901810Y-36842700D01*
X42926000Y-36915271D01*
X42974381Y-36963652D01*
X43022762Y-36987843D01*
X43119524Y-37012033D01*
X43192095Y-37012033D01*
X43288857Y-36987843D01*
X43337238Y-36963652D01*
X43385619Y-36915271D01*
X43409810Y-36842700D01*
X43409810Y-36721747D01*
X43409810Y-37229747D02*
X42901810Y-37229747D01*
X42901810Y-37350700D01*
X42926000Y-37423271D01*
X42974381Y-37471652D01*
X43022762Y-37495843D01*
X43119524Y-37520033D01*
X43192095Y-37520033D01*
X43288857Y-37495843D01*
X43337238Y-37471652D01*
X43385619Y-37423271D01*
X43409810Y-37350700D01*
X43409810Y-37229747D01*
X43071143Y-37955462D02*
X43409810Y-37955462D01*
X42877619Y-37834509D02*
X43240476Y-37713557D01*
X43240476Y-38028033D01*
X47265167Y-40171310D02*
X47434500Y-39929405D01*
X47555453Y-40171310D02*
X47555453Y-39663310D01*
X47361929Y-39663310D01*
X47313548Y-39687500D01*
X47289357Y-39711690D01*
X47265167Y-39760071D01*
X47265167Y-39832643D01*
X47289357Y-39881024D01*
X47313548Y-39905214D01*
X47361929Y-39929405D01*
X47555453Y-39929405D01*
X46974881Y-39881024D02*
X47023262Y-39856833D01*
X47047453Y-39832643D01*
X47071643Y-39784262D01*
X47071643Y-39760071D01*
X47047453Y-39711690D01*
X47023262Y-39687500D01*
X46974881Y-39663310D01*
X46878119Y-39663310D01*
X46829738Y-39687500D01*
X46805548Y-39711690D01*
X46781357Y-39760071D01*
X46781357Y-39784262D01*
X46805548Y-39832643D01*
X46829738Y-39856833D01*
X46878119Y-39881024D01*
X46974881Y-39881024D01*
X47023262Y-39905214D01*
X47047453Y-39929405D01*
X47071643Y-39977786D01*
X47071643Y-40074548D01*
X47047453Y-40122929D01*
X47023262Y-40147119D01*
X46974881Y-40171310D01*
X46878119Y-40171310D01*
X46829738Y-40147119D01*
X46805548Y-40122929D01*
X46781357Y-40074548D01*
X46781357Y-39977786D01*
X46805548Y-39929405D01*
X46829738Y-39905214D01*
X46878119Y-39881024D01*
D16*
X26839333Y-39829619D02*
X27177999Y-39345810D01*
X27419904Y-39829619D02*
X27419904Y-38813619D01*
X27032857Y-38813619D01*
X26936095Y-38862000D01*
X26887714Y-38910381D01*
X26839333Y-39007143D01*
X26839333Y-39152286D01*
X26887714Y-39249048D01*
X26936095Y-39297429D01*
X27032857Y-39345810D01*
X27419904Y-39345810D01*
X26500666Y-38813619D02*
X25823333Y-38813619D01*
X26258761Y-39829619D01*
D15*
X31489953Y-22708810D02*
X31489953Y-22200810D01*
X31369000Y-22200810D01*
X31296429Y-22225000D01*
X31248048Y-22273381D01*
X31223857Y-22321762D01*
X31199667Y-22418524D01*
X31199667Y-22491095D01*
X31223857Y-22587857D01*
X31248048Y-22636238D01*
X31296429Y-22684619D01*
X31369000Y-22708810D01*
X31489953Y-22708810D01*
X30981953Y-22708810D02*
X30981953Y-22200810D01*
X30861000Y-22200810D01*
X30788429Y-22225000D01*
X30740048Y-22273381D01*
X30715857Y-22321762D01*
X30691667Y-22418524D01*
X30691667Y-22491095D01*
X30715857Y-22587857D01*
X30740048Y-22636238D01*
X30788429Y-22684619D01*
X30861000Y-22708810D01*
X30981953Y-22708810D01*
X30207857Y-22708810D02*
X30498143Y-22708810D01*
X30353000Y-22708810D02*
X30353000Y-22200810D01*
X30401381Y-22273381D01*
X30449762Y-22321762D01*
X30498143Y-22345952D01*
M02*
