G04 #@! TF.FileFunction,Legend,Top*
%FSLAX46Y46*%
G04 Gerber Fmt 4.6, Leading zero omitted, Abs format (unit mm)*
G04 Created by KiCad (PCBNEW 4.0.5+dfsg1-4) date Wed Feb 28 09:20:33 2018*
%MOMM*%
%LPD*%
G01*
G04 APERTURE LIST*
%ADD10C,0.100000*%
%ADD11C,0.150000*%
%ADD12C,0.381000*%
%ADD13C,0.304800*%
%ADD14C,0.190500*%
%ADD15C,0.254000*%
G04 APERTURE END LIST*
D10*
D11*
X0Y0D02*
X0Y-45085000D01*
X50800000Y0D02*
X0Y0D01*
X50800000Y-45085000D02*
X50800000Y0D01*
X0Y-45085000D02*
X50800000Y-45085000D01*
D12*
X26797000Y-16891000D02*
X23622000Y-16891000D01*
X23622000Y-16891000D02*
X22987000Y-17526000D01*
X22987000Y-17526000D02*
X22987000Y-25781000D01*
X22987000Y-25781000D02*
X26797000Y-25781000D01*
X26797000Y-25781000D02*
X26797000Y-16891000D01*
X39766240Y-30043120D02*
X53766720Y-30043120D01*
X53766720Y-30043120D02*
X53766720Y-16042640D01*
X53766720Y-16042640D02*
X39766240Y-16042640D01*
X39766240Y-16042640D02*
X39766240Y-30043120D01*
D13*
X34290000Y-11430000D02*
X34290000Y-8255000D01*
X34290000Y-8255000D02*
X33655000Y-7620000D01*
X29210000Y-7620000D02*
X29210000Y-11430000D01*
X33655000Y-7620000D02*
X29210000Y-7620000D01*
X34290000Y-11430000D02*
X29210000Y-11430000D01*
X2857500Y-31940500D02*
X2857500Y-35115500D01*
X2857500Y-35115500D02*
X3492500Y-35750500D01*
X7937500Y-35750500D02*
X7937500Y-31940500D01*
X3492500Y-35750500D02*
X7937500Y-35750500D01*
X2857500Y-31940500D02*
X7937500Y-31940500D01*
D11*
X16002000Y-13398500D02*
X3937000Y-13398500D01*
X3937000Y-13398500D02*
X3937000Y-31813500D01*
X3937000Y-31813500D02*
X16002000Y-31813500D01*
X16002000Y-31813500D02*
X16002000Y-13398500D01*
D12*
X25400000Y-1905000D02*
X25400000Y-5715000D01*
X25400000Y-5715000D02*
X26670000Y-6985000D01*
X26670000Y-6985000D02*
X35560000Y-6985000D01*
X35560000Y-6985000D02*
X35560000Y-1905000D01*
X35560000Y-1905000D02*
X25400000Y-1905000D01*
X21590000Y-16891000D02*
X18415000Y-16891000D01*
X18415000Y-16891000D02*
X17780000Y-17526000D01*
X17780000Y-17526000D02*
X17780000Y-25781000D01*
X17780000Y-25781000D02*
X21590000Y-25781000D01*
X21590000Y-25781000D02*
X21590000Y-16891000D01*
D13*
X20955000Y-38735000D02*
X20955000Y-41910000D01*
X20955000Y-41910000D02*
X21590000Y-42545000D01*
X21590000Y-42545000D02*
X31115000Y-42545000D01*
X31115000Y-42545000D02*
X31115000Y-38735000D01*
X31115000Y-38735000D02*
X20955000Y-38735000D01*
D12*
X24765000Y-6985000D02*
G75*
G03X24765000Y-6985000I-2540000J0D01*
G01*
X36830000Y-35560000D02*
G75*
G03X36830000Y-35560000I-2540000J0D01*
G01*
D13*
X39370000Y-38735000D02*
X39370000Y-41910000D01*
X39370000Y-41910000D02*
X40005000Y-42545000D01*
X40005000Y-42545000D02*
X49530000Y-42545000D01*
X49530000Y-42545000D02*
X49530000Y-38735000D01*
X49530000Y-38735000D02*
X39370000Y-38735000D01*
X46990000Y-35560000D02*
X46990000Y-32385000D01*
X46990000Y-32385000D02*
X46355000Y-31750000D01*
X46355000Y-31750000D02*
X39370000Y-31750000D01*
X39370000Y-31750000D02*
X39370000Y-35560000D01*
X39370000Y-35560000D02*
X46990000Y-35560000D01*
X6477000Y-11430000D02*
G75*
G03X6477000Y-11430000I-1270000J0D01*
G01*
X15875000Y-11430000D02*
G75*
G03X15875000Y-11430000I-1270000J0D01*
G01*
D11*
X5560000Y-44450000D02*
X5560000Y-36830000D01*
X15780000Y-36830000D02*
X15780000Y-44450000D01*
X15780000Y-44450000D02*
X-7715000Y-44450000D01*
X-7715000Y-44450000D02*
X-7715000Y-36830000D01*
X-7715000Y-36830000D02*
X15780000Y-36830000D01*
X5560000Y-9525000D02*
X5560000Y-1905000D01*
X15780000Y-1905000D02*
X15780000Y-9525000D01*
X15780000Y-9525000D02*
X-7715000Y-9525000D01*
X-7715000Y-9525000D02*
X-7715000Y-1905000D01*
X-7715000Y-1905000D02*
X15780000Y-1905000D01*
X47145000Y-1905000D02*
X47145000Y-9525000D01*
X36925000Y-9525000D02*
X36925000Y-1905000D01*
X36925000Y-1905000D02*
X60420000Y-1905000D01*
X60420000Y-1905000D02*
X60420000Y-9525000D01*
X60420000Y-9525000D02*
X36925000Y-9525000D01*
D13*
X23603857Y-15258143D02*
X23821571Y-15330714D01*
X23894143Y-15403286D01*
X23966714Y-15548429D01*
X23966714Y-15766143D01*
X23894143Y-15911286D01*
X23821571Y-15983857D01*
X23676429Y-16056429D01*
X23095857Y-16056429D01*
X23095857Y-14532429D01*
X23603857Y-14532429D01*
X23749000Y-14605000D01*
X23821571Y-14677571D01*
X23894143Y-14822714D01*
X23894143Y-14967857D01*
X23821571Y-15113000D01*
X23749000Y-15185571D01*
X23603857Y-15258143D01*
X23095857Y-15258143D01*
X25635857Y-16201571D02*
X25490714Y-16129000D01*
X25345571Y-15983857D01*
X25127857Y-15766143D01*
X24982714Y-15693571D01*
X24837571Y-15693571D01*
X24910143Y-16056429D02*
X24765000Y-15983857D01*
X24619857Y-15838714D01*
X24547286Y-15548429D01*
X24547286Y-15040429D01*
X24619857Y-14750143D01*
X24765000Y-14605000D01*
X24910143Y-14532429D01*
X25200429Y-14532429D01*
X25345571Y-14605000D01*
X25490714Y-14750143D01*
X25563286Y-15040429D01*
X25563286Y-15548429D01*
X25490714Y-15838714D01*
X25345571Y-15983857D01*
X25200429Y-16056429D01*
X24910143Y-16056429D01*
X27014714Y-16056429D02*
X26143857Y-16056429D01*
X26579285Y-16056429D02*
X26579285Y-14532429D01*
X26434142Y-14750143D01*
X26289000Y-14895286D01*
X26143857Y-14967857D01*
D14*
X31623000Y-12337143D02*
X31586714Y-12373429D01*
X31477857Y-12409714D01*
X31405286Y-12409714D01*
X31296429Y-12373429D01*
X31223857Y-12300857D01*
X31187572Y-12228286D01*
X31151286Y-12083143D01*
X31151286Y-11974286D01*
X31187572Y-11829143D01*
X31223857Y-11756571D01*
X31296429Y-11684000D01*
X31405286Y-11647714D01*
X31477857Y-11647714D01*
X31586714Y-11684000D01*
X31623000Y-11720286D01*
X32312429Y-11647714D02*
X31949572Y-11647714D01*
X31913286Y-12010571D01*
X31949572Y-11974286D01*
X32022143Y-11938000D01*
X32203572Y-11938000D01*
X32276143Y-11974286D01*
X32312429Y-12010571D01*
X32348714Y-12083143D01*
X32348714Y-12264571D01*
X32312429Y-12337143D01*
X32276143Y-12373429D01*
X32203572Y-12409714D01*
X32022143Y-12409714D01*
X31949572Y-12373429D01*
X31913286Y-12337143D01*
X2177143Y-33782000D02*
X2213429Y-33818286D01*
X2249714Y-33927143D01*
X2249714Y-33999714D01*
X2213429Y-34108571D01*
X2140857Y-34181143D01*
X2068286Y-34217428D01*
X1923143Y-34253714D01*
X1814286Y-34253714D01*
X1669143Y-34217428D01*
X1596571Y-34181143D01*
X1524000Y-34108571D01*
X1487714Y-33999714D01*
X1487714Y-33927143D01*
X1524000Y-33818286D01*
X1560286Y-33782000D01*
X2249714Y-33419143D02*
X2249714Y-33274000D01*
X2213429Y-33201428D01*
X2177143Y-33165143D01*
X2068286Y-33092571D01*
X1923143Y-33056286D01*
X1632857Y-33056286D01*
X1560286Y-33092571D01*
X1524000Y-33128857D01*
X1487714Y-33201428D01*
X1487714Y-33346571D01*
X1524000Y-33419143D01*
X1560286Y-33455428D01*
X1632857Y-33491714D01*
X1814286Y-33491714D01*
X1886857Y-33455428D01*
X1923143Y-33419143D01*
X1959429Y-33346571D01*
X1959429Y-33201428D01*
X1923143Y-33128857D01*
X1886857Y-33092571D01*
X1814286Y-33056286D01*
D11*
X11374381Y-24090167D02*
X10374381Y-24090167D01*
X10374381Y-23852072D01*
X10422000Y-23709214D01*
X10517238Y-23613976D01*
X10612476Y-23566357D01*
X10802952Y-23518738D01*
X10945810Y-23518738D01*
X11136286Y-23566357D01*
X11231524Y-23613976D01*
X11326762Y-23709214D01*
X11374381Y-23852072D01*
X11374381Y-24090167D01*
X11088667Y-23137786D02*
X11088667Y-22661595D01*
X11374381Y-23233024D02*
X10374381Y-22899691D01*
X11374381Y-22566357D01*
X11374381Y-21709214D02*
X11374381Y-22280643D01*
X11374381Y-21994929D02*
X10374381Y-21994929D01*
X10517238Y-22090167D01*
X10612476Y-22185405D01*
X10660095Y-22280643D01*
D15*
X29101143Y-193524D02*
X29947809Y-1463524D01*
X29947809Y-193524D02*
X29101143Y-1463524D01*
X30371143Y-1403048D02*
X30552571Y-1463524D01*
X30854952Y-1463524D01*
X30975905Y-1403048D01*
X31036381Y-1342571D01*
X31096857Y-1221619D01*
X31096857Y-1100667D01*
X31036381Y-979714D01*
X30975905Y-919238D01*
X30854952Y-858762D01*
X30613048Y-798286D01*
X30492095Y-737810D01*
X30431619Y-677333D01*
X30371143Y-556381D01*
X30371143Y-435429D01*
X30431619Y-314476D01*
X30492095Y-254000D01*
X30613048Y-193524D01*
X30915428Y-193524D01*
X31096857Y-254000D01*
X31520191Y-193524D02*
X32306381Y-193524D01*
X31883048Y-677333D01*
X32064476Y-677333D01*
X32185429Y-737810D01*
X32245905Y-798286D01*
X32306381Y-919238D01*
X32306381Y-1221619D01*
X32245905Y-1342571D01*
X32185429Y-1403048D01*
X32064476Y-1463524D01*
X31701619Y-1463524D01*
X31580667Y-1403048D01*
X31520191Y-1342571D01*
D13*
X18142857Y-15258143D02*
X18360571Y-15330714D01*
X18433143Y-15403286D01*
X18505714Y-15548429D01*
X18505714Y-15766143D01*
X18433143Y-15911286D01*
X18360571Y-15983857D01*
X18215429Y-16056429D01*
X17634857Y-16056429D01*
X17634857Y-14532429D01*
X18142857Y-14532429D01*
X18288000Y-14605000D01*
X18360571Y-14677571D01*
X18433143Y-14822714D01*
X18433143Y-14967857D01*
X18360571Y-15113000D01*
X18288000Y-15185571D01*
X18142857Y-15258143D01*
X17634857Y-15258143D01*
X20174857Y-16201571D02*
X20029714Y-16129000D01*
X19884571Y-15983857D01*
X19666857Y-15766143D01*
X19521714Y-15693571D01*
X19376571Y-15693571D01*
X19449143Y-16056429D02*
X19304000Y-15983857D01*
X19158857Y-15838714D01*
X19086286Y-15548429D01*
X19086286Y-15040429D01*
X19158857Y-14750143D01*
X19304000Y-14605000D01*
X19449143Y-14532429D01*
X19739429Y-14532429D01*
X19884571Y-14605000D01*
X20029714Y-14750143D01*
X20102286Y-15040429D01*
X20102286Y-15548429D01*
X20029714Y-15838714D01*
X19884571Y-15983857D01*
X19739429Y-16056429D01*
X19449143Y-16056429D01*
X20682857Y-14677571D02*
X20755428Y-14605000D01*
X20900571Y-14532429D01*
X21263428Y-14532429D01*
X21408571Y-14605000D01*
X21481142Y-14677571D01*
X21553714Y-14822714D01*
X21553714Y-14967857D01*
X21481142Y-15185571D01*
X20610285Y-16056429D01*
X21553714Y-16056429D01*
D14*
X25037143Y-37682714D02*
X25545143Y-38444714D01*
X25545143Y-37682714D02*
X25037143Y-38444714D01*
X25835429Y-38444714D02*
X25835429Y-37682714D01*
X26125714Y-37682714D01*
X26198286Y-37719000D01*
X26234571Y-37755286D01*
X26270857Y-37827857D01*
X26270857Y-37936714D01*
X26234571Y-38009286D01*
X26198286Y-38045571D01*
X26125714Y-38081857D01*
X25835429Y-38081857D01*
X26996571Y-38444714D02*
X26561143Y-38444714D01*
X26778857Y-38444714D02*
X26778857Y-37682714D01*
X26706286Y-37791571D01*
X26633714Y-37864143D01*
X26561143Y-37900429D01*
X43452143Y-37682714D02*
X43960143Y-38444714D01*
X43960143Y-37682714D02*
X43452143Y-38444714D01*
X44250429Y-38444714D02*
X44250429Y-37682714D01*
X44540714Y-37682714D01*
X44613286Y-37719000D01*
X44649571Y-37755286D01*
X44685857Y-37827857D01*
X44685857Y-37936714D01*
X44649571Y-38009286D01*
X44613286Y-38045571D01*
X44540714Y-38081857D01*
X44250429Y-38081857D01*
X44976143Y-37755286D02*
X45012429Y-37719000D01*
X45085000Y-37682714D01*
X45266429Y-37682714D01*
X45339000Y-37719000D01*
X45375286Y-37755286D01*
X45411571Y-37827857D01*
X45411571Y-37900429D01*
X45375286Y-38009286D01*
X44939857Y-38444714D01*
X45411571Y-38444714D01*
X42200286Y-35777714D02*
X42708286Y-36539714D01*
X42708286Y-35777714D02*
X42200286Y-36539714D01*
X42962286Y-36503429D02*
X43071143Y-36539714D01*
X43252572Y-36539714D01*
X43325143Y-36503429D01*
X43361429Y-36467143D01*
X43397714Y-36394571D01*
X43397714Y-36322000D01*
X43361429Y-36249429D01*
X43325143Y-36213143D01*
X43252572Y-36176857D01*
X43107429Y-36140571D01*
X43034857Y-36104286D01*
X42998572Y-36068000D01*
X42962286Y-35995429D01*
X42962286Y-35922857D01*
X42998572Y-35850286D01*
X43034857Y-35814000D01*
X43107429Y-35777714D01*
X43288857Y-35777714D01*
X43397714Y-35814000D01*
X44050857Y-35777714D02*
X43905714Y-35777714D01*
X43833143Y-35814000D01*
X43796857Y-35850286D01*
X43724286Y-35959143D01*
X43688000Y-36104286D01*
X43688000Y-36394571D01*
X43724286Y-36467143D01*
X43760571Y-36503429D01*
X43833143Y-36539714D01*
X43978286Y-36539714D01*
X44050857Y-36503429D01*
X44087143Y-36467143D01*
X44123428Y-36394571D01*
X44123428Y-36213143D01*
X44087143Y-36140571D01*
X44050857Y-36104286D01*
X43978286Y-36068000D01*
X43833143Y-36068000D01*
X43760571Y-36104286D01*
X43724286Y-36140571D01*
X43688000Y-36213143D01*
D11*
X15867381Y-41925714D02*
X16867381Y-41259047D01*
X15867381Y-41259047D02*
X16867381Y-41925714D01*
X16819762Y-40925714D02*
X16867381Y-40782857D01*
X16867381Y-40544761D01*
X16819762Y-40449523D01*
X16772143Y-40401904D01*
X16676905Y-40354285D01*
X16581667Y-40354285D01*
X16486429Y-40401904D01*
X16438810Y-40449523D01*
X16391190Y-40544761D01*
X16343571Y-40735238D01*
X16295952Y-40830476D01*
X16248333Y-40878095D01*
X16153095Y-40925714D01*
X16057857Y-40925714D01*
X15962619Y-40878095D01*
X15915000Y-40830476D01*
X15867381Y-40735238D01*
X15867381Y-40497142D01*
X15915000Y-40354285D01*
X15867381Y-39449523D02*
X15867381Y-39925714D01*
X16343571Y-39973333D01*
X16295952Y-39925714D01*
X16248333Y-39830476D01*
X16248333Y-39592380D01*
X16295952Y-39497142D01*
X16343571Y-39449523D01*
X16438810Y-39401904D01*
X16676905Y-39401904D01*
X16772143Y-39449523D01*
X16819762Y-39497142D01*
X16867381Y-39592380D01*
X16867381Y-39830476D01*
X16819762Y-39925714D01*
X16772143Y-39973333D01*
X15867381Y-7000714D02*
X16867381Y-6334047D01*
X15867381Y-6334047D02*
X16867381Y-7000714D01*
X16819762Y-6000714D02*
X16867381Y-5857857D01*
X16867381Y-5619761D01*
X16819762Y-5524523D01*
X16772143Y-5476904D01*
X16676905Y-5429285D01*
X16581667Y-5429285D01*
X16486429Y-5476904D01*
X16438810Y-5524523D01*
X16391190Y-5619761D01*
X16343571Y-5810238D01*
X16295952Y-5905476D01*
X16248333Y-5953095D01*
X16153095Y-6000714D01*
X16057857Y-6000714D01*
X15962619Y-5953095D01*
X15915000Y-5905476D01*
X15867381Y-5810238D01*
X15867381Y-5572142D01*
X15915000Y-5429285D01*
X16200714Y-4572142D02*
X16867381Y-4572142D01*
X15819762Y-4810238D02*
X16534048Y-5048333D01*
X16534048Y-4429285D01*
X35742381Y-7000714D02*
X36742381Y-6334047D01*
X35742381Y-6334047D02*
X36742381Y-7000714D01*
X36694762Y-6000714D02*
X36742381Y-5857857D01*
X36742381Y-5619761D01*
X36694762Y-5524523D01*
X36647143Y-5476904D01*
X36551905Y-5429285D01*
X36456667Y-5429285D01*
X36361429Y-5476904D01*
X36313810Y-5524523D01*
X36266190Y-5619761D01*
X36218571Y-5810238D01*
X36170952Y-5905476D01*
X36123333Y-5953095D01*
X36028095Y-6000714D01*
X35932857Y-6000714D01*
X35837619Y-5953095D01*
X35790000Y-5905476D01*
X35742381Y-5810238D01*
X35742381Y-5572142D01*
X35790000Y-5429285D01*
X35837619Y-5048333D02*
X35790000Y-5000714D01*
X35742381Y-4905476D01*
X35742381Y-4667380D01*
X35790000Y-4572142D01*
X35837619Y-4524523D01*
X35932857Y-4476904D01*
X36028095Y-4476904D01*
X36170952Y-4524523D01*
X36742381Y-5095952D01*
X36742381Y-4476904D01*
M02*
