G04 #@! TF.FileFunction,Soldermask,Top*
%FSLAX46Y46*%
G04 Gerber Fmt 4.6, Leading zero omitted, Abs format (unit mm)*
G04 Created by KiCad (PCBNEW (2015-09-15 BZR 6201)-product) date Fri 01 Apr 2016 05:48:24 PM EEST*
%MOMM*%
G01*
G04 APERTURE LIST*
%ADD10C,0.100000*%
%ADD11C,0.150000*%
%ADD12R,2.178000X2.178000*%
%ADD13C,2.178000*%
%ADD14C,2.000200*%
%ADD15C,1.924000*%
%ADD16C,3.900120*%
%ADD17R,2.432000X2.432000*%
%ADD18C,2.432000*%
%ADD19R,2.899360X2.899360*%
%ADD20C,2.899360*%
%ADD21R,1.924000X2.432000*%
%ADD22O,1.924000X2.432000*%
%ADD23C,3.501340*%
%ADD24O,1.924000X2.178000*%
%ADD25O,3.702000X2.940000*%
G04 APERTURE END LIST*
D10*
D11*
X0Y0D02*
X0Y-45085000D01*
X50800000Y0D02*
X0Y0D01*
X50800000Y-45085000D02*
X50800000Y0D01*
X0Y-45085000D02*
X50800000Y-45085000D01*
D12*
X24892000Y-18796000D03*
D13*
X24892000Y-23876000D03*
D14*
X40767000Y-26543000D03*
D15*
X40767000Y-24043640D03*
X40767000Y-22044660D03*
D14*
X40767000Y-19542760D03*
D16*
X43517820Y-29542740D03*
X43517820Y-16543020D03*
D12*
X33020000Y-9525000D03*
D13*
X30480000Y-9525000D03*
D12*
X4127500Y-33845500D03*
D13*
X6667500Y-33845500D03*
D17*
X5207000Y-14668500D03*
D18*
X14605000Y-14668500D03*
X5207000Y-30543500D03*
X14605000Y-30543500D03*
D19*
X27940000Y-4445000D03*
D20*
X32941260Y-4445000D03*
D12*
X19685000Y-18796000D03*
D13*
X19685000Y-23876000D03*
D21*
X22225000Y-40640000D03*
D22*
X24765000Y-40640000D03*
D13*
X27305000Y-40640000D03*
X29845000Y-40640000D03*
D23*
X22225000Y-6985000D03*
X34290000Y-35560000D03*
D12*
X40640000Y-40640000D03*
D13*
X43180000Y-40640000D03*
X45720000Y-40640000D03*
X48260000Y-40640000D03*
D12*
X45720000Y-33655000D03*
D13*
X43180000Y-33655000D03*
X40640000Y-33655000D03*
X45085000Y-5715000D03*
D24*
X43085000Y-5715000D03*
X41085000Y-5715000D03*
D13*
X39085000Y-5715000D03*
D25*
X38830000Y-8255000D03*
X38830000Y-3175000D03*
X44835000Y-8215000D03*
X44835000Y-3215000D03*
D13*
X7620000Y-5715000D03*
D24*
X9620000Y-5715000D03*
X11620000Y-5715000D03*
D13*
X13620000Y-5715000D03*
D25*
X13875000Y-3175000D03*
X13875000Y-8255000D03*
X7870000Y-3215000D03*
X7870000Y-8215000D03*
D13*
X7620000Y-40640000D03*
D24*
X9620000Y-40640000D03*
X11620000Y-40640000D03*
D13*
X13620000Y-40640000D03*
D25*
X13875000Y-38100000D03*
X13875000Y-43180000D03*
X7870000Y-38140000D03*
X7870000Y-43140000D03*
D13*
X5207000Y-11430000D03*
X14605000Y-11430000D03*
X37465000Y-27559000D03*
X37465000Y-14351000D03*
X37465000Y-40703500D03*
X37465000Y-29654500D03*
X21209000Y-36893500D03*
X10731500Y-32956500D03*
X9398000Y-11938000D03*
X18478500Y-11938000D03*
X6540500Y-18669000D03*
X21399500Y-34226500D03*
X9144000Y-18542000D03*
X23812500Y-32004000D03*
M02*
